<?xml version="1.0" encoding="UTF-8" standalone="no"?>
<svg
   xmlns:dc="http://purl.org/dc/elements/1.1/"
   xmlns:cc="http://creativecommons.org/ns#"
   xmlns:rdf="http://www.w3.org/1999/02/22-rdf-syntax-ns#"
   xmlns:svg="http://www.w3.org/2000/svg"
   xmlns="http://www.w3.org/2000/svg"
   height="32"
   width="32"
   version="1.1"
   id="svg3960">
  <metadata
     id="metadata3966">
    <rdf:RDF>
      <cc:Work
         rdf:about="">
        <dc:format>image/svg+xml</dc:format>
        <dc:type
           rdf:resource="http://purl.org/dc/dcmitype/StillImage" />
        <dc:title></dc:title>
      </cc:Work>
    </rdf:RDF>
  </metadata>
  <defs
     id="defs3964" />
  <g
     id="layer6">
    <rect
       ry="3.4000001"
       y="8"
       x="5"
       height="17"
       width="20"
       id="rect4619"
       style="fill:#000000;fill-opacity:1;stroke:none" />
    <rect
       ry="3"
       y="9"
       x="6.1764708"
       height="15"
       width="17.647058"
       id="rect4619-3"
       style="fill:#808000;fill-opacity:1;stroke:none" />
    <g
       id="g4611">
      <g
         transform="matrix(0.92307692,0,0,0.78571429,1.0769232,6.3571428)"
         style="display:inline"
         id="g3952">
        <g
           id="g3945">
          <path
             id="rect5489-5"
             d="m 14,11 0,14 13,0 0,-8.909091 L 22.666667,11 z"
             style="fill:#000080;fill-opacity:1;stroke:none" />
          <path
             id="rect5491-2"
             d="m 15.083333,12.272727 0,11.454546 10.833334,0 0,-6.363637 -3.25,0 0,-5.090909 z m 8.45,-0.494949 L 27,16.090909 24.833333,13.545455 z"
             style="fill:#ffffff;fill-opacity:1;stroke:none" />
        </g>
      </g>
      <rect
         style="fill:#000080;fill-opacity:1;stroke:none"
         id="rect4580"
         width="5"
         height="1"
         x="16"
         y="19" />
      <rect
         style="fill:#000080;fill-opacity:1;stroke:none"
         id="rect4580-2"
         width="8"
         height="1"
         x="16"
         y="22" />
    </g>
    <path
       id="path4639"
       d="M 9,13 21,13 18,7 12,7 z"
       style="fill:#000000;fill-opacity:1;stroke:none" />
    <path
       id="path4639-2"
       d="m 11,12 8,0 -2,-4 -4,0 z"
       style="fill:#c0c0c0;fill-opacity:1;stroke:none" />
    <path
       id="path4639-2-2"
       d="m 11.767031,10.609756 6.609756,0.04794 L 17,8 13,8 z"
       style="fill:#ffff00;fill-opacity:1;stroke:none" />
    <rect
       ry="1.3877788e-016"
       y="9"
       x="14"
       height="2"
       width="2"
       id="rect4677"
       style="fill:#000000;fill-opacity:1;stroke:none" />
  </g>
</svg>
