<?xml version="1.0" encoding="UTF-8" standalone="no"?>
<svg
   xmlns:dc="http://purl.org/dc/elements/1.1/"
   xmlns:cc="http://creativecommons.org/ns#"
   xmlns:rdf="http://www.w3.org/1999/02/22-rdf-syntax-ns#"
   xmlns:svg="http://www.w3.org/2000/svg"
   xmlns="http://www.w3.org/2000/svg"
   version="1.1"
   id="svg5195"
   height="32"
   width="32">
  <defs
     id="defs5197" />
  <metadata
     id="metadata5200">
    <rdf:RDF>
      <cc:Work
         rdf:about="">
        <dc:format>image/svg+xml</dc:format>
        <dc:type
           rdf:resource="http://purl.org/dc/dcmitype/StillImage" />
        <dc:title></dc:title>
      </cc:Work>
    </rdf:RDF>
  </metadata>
  <g
     style="display:inline"
     id="layer5">
    <path
       id="rect5723"
       d="m 5,21 0,5 0,1 1,0 5,0 0,-1 -5,0 0,-5 -1,0 z"
       style="fill:#000000;fill-opacity:1;stroke:none" />
    <path
       id="rect5723-5"
       d="m 10.973214,4.9821431 -4.9999996,0 -1,0 0,1 0,4.9999989 1,0 0,-4.9999989 4.9999996,0 0,-1 z"
       style="fill:#000000;fill-opacity:1;stroke:none;display:inline" />
    <path
       id="rect5723-1"
       d="m 21.026786,26.946428 5,0 1,0 0,-1 0,-5 -1,0 0,5 -5,0 0,1 z"
       style="fill:#000000;fill-opacity:1;stroke:none;display:inline" />
    <path
       id="rect5723-7"
       d="m 27.044643,10.964286 0,-4.9999998 0,-1 -1,0 -5,0 0,1 5,0 0,4.9999998 1,0 z"
       style="fill:#000000;fill-opacity:1;stroke:none;display:inline" />
    <path
       id="path5778"
       d="m 18.971928,23.034896 0,-14.079001 -6.944799,6.944799 z"
       style="fill:#ff8401;fill-opacity:1;stroke:none" />
  </g>
</svg>
