<?xml version="1.0" encoding="UTF-8" standalone="no"?>
<svg
   xmlns:dc="http://purl.org/dc/elements/1.1/"
   xmlns:cc="http://creativecommons.org/ns#"
   xmlns:rdf="http://www.w3.org/1999/02/22-rdf-syntax-ns#"
   xmlns:svg="http://www.w3.org/2000/svg"
   xmlns="http://www.w3.org/2000/svg"
   xmlns:xlink="http://www.w3.org/1999/xlink"
   height="32"
   width="32"
   version="1.1"
   id="svg2985">
  <metadata
     id="metadata2991">
    <rdf:RDF>
      <cc:Work
         rdf:about="">
        <dc:format>image/svg+xml</dc:format>
        <dc:type
           rdf:resource="http://purl.org/dc/dcmitype/StillImage" />
        <dc:title></dc:title>
      </cc:Work>
    </rdf:RDF>
  </metadata>
  <defs
     id="defs2989">
    <linearGradient
       id="linearGradient3855">
      <stop
         id="stop3857"
         offset="0"
         style="stop-color:#808080;stop-opacity:1" />
      <stop
         id="stop3859"
         offset="1"
         style="stop-color:#c0c0c0;stop-opacity:1" />
    </linearGradient>
    <linearGradient
       id="linearGradient3833">
      <stop
         id="stop3835"
         offset="0"
         style="stop-color:#000000;stop-opacity:1;" />
      <stop
         id="stop3837"
         offset="1"
         style="stop-color:#c0c0c0;stop-opacity:0;" />
    </linearGradient>
    <linearGradient
       gradientTransform="matrix(1.1140065,0,0,1.0953801,-0.86567659,-1.5749324)"
       gradientUnits="userSpaceOnUse"
       y2="14.300611"
       x2="13.181782"
       y1="12.587986"
       x1="11.140946"
       id="linearGradient3839"
       xlink:href="#linearGradient3833" />
    <linearGradient
       gradientUnits="userSpaceOnUse"
       y2="26"
       x2="19"
       y1="22"
       x1="15"
       id="linearGradient3861"
       xlink:href="#linearGradient3855" />
  </defs>
  <path
     id="path3845"
     d="M 22.45064,6.4999618 22.494834,11.203125 20.506097,9 20.550291,6.4999618 z"
     style="fill:#808080;fill-opacity:1;stroke:none" />
  <g
     id="layer3">
    <path
       id="path3831"
       d="M 7.6949152,21.711864 22.474576,11.228675 16.958427,6.779661 7.5932203,17.046528 z"
       style="fill:url(#linearGradient3839);fill-opacity:1;stroke:none" />
    <path
       id="path3829"
       d="M 5.4915254,16 16,4.5423729 26.610169,16 25.525424,16.474576 24,16.440678 16,7.5254237 8,16.372881 l -2.5084746,0 L 5.5254237,16 z"
       style="fill:#c0c0c0;fill-opacity:1;stroke:none" />
    <path
       id="path3811"
       d="m 7,16 -2,0 0,1 2,0 0,10 18,0 0,-10 c 0.666667,0 1.333333,0 2,0 l 0,-1 -2,0 -1,0 0,10 -4,0 0,-7 -8,0 4,1 3,0 0,6 -6,0 0,-6 3,0 4,-1 -8,0 0,7 -4,0 0,-10 z"
       style="fill:#000000;fill-opacity:1;stroke:none" />
    <path
       id="path3815"
       d="m 16,7 -1,1 -8,9 1,0 8,-9 8,9 1,0 -8,-9 z"
       style="font-size:medium;font-style:normal;font-variant:normal;font-weight:normal;font-stretch:normal;text-indent:0;text-align:start;text-decoration:none;line-height:normal;letter-spacing:normal;word-spacing:normal;text-transform:none;direction:ltr;block-progression:tb;writing-mode:lr-tb;text-anchor:start;baseline-shift:baseline;color:#000000;fill:#000000;fill-opacity:1;stroke:none;stroke-width:1px;marker:none;visibility:visible;display:inline;overflow:visible;enable-background:accumulate;font-family:Sans;-inkscape-font-specification:Sans" />
    <path
       id="path3817"
       d="M 16,4 15,5 5,16 6,16 16,5 26,16 27,16 17,5 z"
       style="font-size:medium;font-style:normal;font-variant:normal;font-weight:normal;font-stretch:normal;text-indent:0;text-align:start;text-decoration:none;line-height:normal;letter-spacing:normal;word-spacing:normal;text-transform:none;direction:ltr;block-progression:tb;writing-mode:lr-tb;text-anchor:start;baseline-shift:baseline;color:#000000;fill:#000000;fill-opacity:1;stroke:none;stroke-width:1px;marker:none;visibility:visible;display:inline;overflow:visible;enable-background:accumulate;font-family:Sans;-inkscape-font-specification:Sans" />
    <path
       id="path3827"
       d="m 20,9 0,-3 3,0 0,6 -0.635723,-1 -0.01563,-4.46875 -1.754902,-0.00781 0,2.4765625 z"
       style="fill:#000000;fill-opacity:1;stroke:none" />
  </g>
  <rect
     y="20"
     x="13"
     height="6"
     width="6"
     id="rect3841"
     style="fill:url(#linearGradient3861);fill-opacity:1;stroke:none" />
</svg>
