<?xml version="1.0" encoding="UTF-8" standalone="no"?>
<svg
   xmlns:dc="http://purl.org/dc/elements/1.1/"
   xmlns:cc="http://creativecommons.org/ns#"
   xmlns:rdf="http://www.w3.org/1999/02/22-rdf-syntax-ns#"
   xmlns:svg="http://www.w3.org/2000/svg"
   xmlns="http://www.w3.org/2000/svg"
   xmlns:xlink="http://www.w3.org/1999/xlink"
   version="1.1"
   id="svg2"
   height="32"
   width="32">
  <defs
     id="defs4">
    <linearGradient
       id="linearGradient5466">
      <stop
         id="stop5468"
         offset="0"
         style="stop-color:#d7d1c4;stop-opacity:1" />
      <stop
         id="stop5470"
         offset="1"
         style="stop-color:#bcb4a2;stop-opacity:1" />
    </linearGradient>
    <linearGradient
       id="linearGradient5362">
      <stop
         id="stop5364"
         offset="0"
         style="stop-color:#000000;stop-opacity:1;" />
      <stop
         id="stop5366"
         offset="1"
         style="stop-color:#000000;stop-opacity:0;" />
    </linearGradient>
    <linearGradient
       id="linearGradient5348">
      <stop
         id="stop5350"
         offset="0"
         style="stop-color:#b8b19d;stop-opacity:1" />
      <stop
         id="stop5352"
         offset="1"
         style="stop-color:#d1cbbd;stop-opacity:1" />
    </linearGradient>
    <linearGradient
       id="linearGradient5294">
      <stop
         id="stop5296"
         offset="0"
         style="stop-color:#ffffff;stop-opacity:1;" />
      <stop
         id="stop5298"
         offset="1"
         style="stop-color:#e4e1d9;stop-opacity:0;" />
    </linearGradient>
    <linearGradient
       id="linearGradient5112">
      <stop
         id="stop5114"
         offset="0"
         style="stop-color:#f4f3f0;stop-opacity:1;" />
      <stop
         id="stop5116"
         offset="1"
         style="stop-color:#9d937b;stop-opacity:1;" />
    </linearGradient>
    <linearGradient
       id="linearGradient4401">
      <stop
         style="stop-color:#edebe6;stop-opacity:1"
         offset="0"
         id="stop4403" />
      <stop
         style="stop-color:#8f856c;stop-opacity:1"
         offset="1"
         id="stop4405" />
    </linearGradient>
    <linearGradient
       id="linearGradient4333">
      <stop
         id="stop4335"
         offset="0"
         style="stop-color:#edebe5;stop-opacity:1;" />
      <stop
         id="stop4337"
         offset="1"
         style="stop-color:#8f856c;stop-opacity:1;" />
    </linearGradient>
    <linearGradient
       id="linearGradient3831">
      <stop
         id="stop3833"
         offset="0"
         style="stop-color:#000000;stop-opacity:1;" />
      <stop
         id="stop3835"
         offset="1"
         style="stop-color:#000000;stop-opacity:0;" />
    </linearGradient>
    <linearGradient
       id="linearGradient3769">
      <stop
         id="stop3771"
         offset="0"
         style="stop-color:#8f856c;stop-opacity:1;" />
      <stop
         id="stop3773"
         offset="1"
         style="stop-color:#f8f7f5;stop-opacity:1;" />
    </linearGradient>
    <linearGradient
       gradientUnits="userSpaceOnUse"
       y2="31"
       x2="2"
       y1="30"
       x1="1"
       id="linearGradient4339-7"
       xlink:href="#linearGradient4333-4" />
    <linearGradient
       id="linearGradient4333-4">
      <stop
         id="stop4335-0"
         offset="0"
         style="stop-color:#eeeded;stop-opacity:1;" />
      <stop
         id="stop4337-9"
         offset="1"
         style="stop-color:#bcb5a3;stop-opacity:1;" />
    </linearGradient>
    <linearGradient
       y2="563.86792"
       x2="326.36893"
       y1="563.22351"
       x1="319.28055"
       gradientUnits="userSpaceOnUse"
       id="linearGradient5162"
       xlink:href="#linearGradient5112" />
    <linearGradient
       y2="571.65668"
       x2="326.21774"
       y1="571.14667"
       x1="323.67865"
       gradientUnits="userSpaceOnUse"
       id="linearGradient5332"
       xlink:href="#linearGradient5112" />
    <linearGradient
       y2="558.49115"
       x2="326.59042"
       y1="558.81787"
       x1="324.56253"
       gradientUnits="userSpaceOnUse"
       id="linearGradient5338"
       xlink:href="#linearGradient5112" />
    <linearGradient
       y2="563.79077"
       x2="317.71429"
       y1="563.86792"
       x1="314.76978"
       gradientUnits="userSpaceOnUse"
       id="linearGradient5344"
       xlink:href="#linearGradient5112" />
    <linearGradient
       y2="31.166454"
       x2="28.258387"
       y1="15.56836"
       x1="15.133295"
       gradientUnits="userSpaceOnUse"
       id="linearGradient5360"
       xlink:href="#linearGradient5348" />
    <filter
       id="filter5382">
      <feGaussianBlur
         id="feGaussianBlur5384"
         stdDeviation="0.20706592" />
    </filter>
    <filter
       id="filter5406">
      <feGaussianBlur
         id="feGaussianBlur5408"
         stdDeviation="0.18791466" />
    </filter>
    <filter
       id="filter5426">
      <feGaussianBlur
         id="feGaussianBlur5428"
         stdDeviation="0.19369724" />
    </filter>
    <filter
       id="filter5446">
      <feGaussianBlur
         id="feGaussianBlur5448"
         stdDeviation="0.20993167" />
    </filter>
    <filter
       id="filter5462">
      <feGaussianBlur
         id="feGaussianBlur5464"
         stdDeviation="0.18747121" />
    </filter>
    <linearGradient
       gradientUnits="userSpaceOnUse"
       y2="20"
       x2="19.6875"
       y1="2.75"
       x1="3.125"
       id="linearGradient5472"
       xlink:href="#linearGradient5466" />
    <filter
       id="filter5648">
      <feGaussianBlur
         id="feGaussianBlur5650"
         stdDeviation="0.496" />
    </filter>
  </defs>
  <metadata
     id="metadata7">
    <rdf:RDF>
      <cc:Work
         rdf:about="">
        <dc:format>image/svg+xml</dc:format>
        <dc:type
           rdf:resource="http://purl.org/dc/dcmitype/StillImage" />
        <dc:title></dc:title>
      </cc:Work>
    </rdf:RDF>
  </metadata>
  <g
     style="display:inline"
     id="layer2">
    <rect
       y="0"
       x="0"
       height="32"
       width="32"
       id="rect3767"
       style="fill:#8f856c;fill-opacity:1;stroke:none" />
    <rect
       y="3"
       x="3"
       height="26"
       width="26"
       id="rect3777"
       style="fill:url(#linearGradient5472);fill-opacity:1;stroke:none" />
    <path
       id="path3839"
       d="M 0,32 3,29 3,3 29,3 32,0 0,0 z"
       style="fill:#e4e1d9;fill-opacity:1;stroke:none" />
    <path
       id="path3839-2"
       d="M -3.0263817e-8,32 3,29 3,3 29,3 32,1.9472365e-8 l -32.000000030263819,0 z"
       style="fill:#e4e1d9;fill-opacity:1;stroke:none;display:inline" />
    <path
       id="path5346"
       d="m 15.58546,14.396446 c -0.685643,0.05792 -1.069731,-0.164429 -1.299082,0.484312 -0.229351,0.648737 -0.2731,1.540784 0.223781,2.016774 l 6.708587,6.977473 c 0.631757,0.783975 1.962676,0.855317 2.674622,0.143372 C 24.605317,23.306426 24.533975,21.975507 23.75,21.34375 L 17.548551,14.977959 C 17.17755,14.582078 16.125992,14.349663 15.58546,14.396446 z"
       style="font-size:medium;font-style:normal;font-variant:normal;font-weight:normal;font-stretch:normal;text-indent:0;text-align:start;text-decoration:none;line-height:normal;letter-spacing:normal;word-spacing:normal;text-transform:none;direction:ltr;block-progression:tb;writing-mode:lr-tb;text-anchor:start;baseline-shift:baseline;color:#000000;fill:url(#linearGradient5360);fill-opacity:1;stroke:none;stroke-width:3.5999999;marker:none;visibility:visible;display:inline;overflow:visible;filter:url(#filter5382);enable-background:accumulate;font-family:Sans;-inkscape-font-specification:Sans" />
    <path
       id="path3839-2-9"
       d="M 0,32 3,29 4,4 29,3.1161165 32,0 1,1 z"
       style="fill:#edeceb;fill-opacity:0.97354496;stroke:none;display:inline;filter:url(#filter5648)" />
  </g>
  <g
     style="display:inline"
     id="layer3" />
  <g
     style="display:inline"
     transform="translate(-309.71429,-547.79077)"
     id="layer1">
    <g
       style="stroke-width:0.91131604;stroke-miterlimit:4;stroke-dasharray:none"
       transform="matrix(0.77591831,0.77591831,-0.77591831,0.77591831,510.36912,-126.08531)"
       id="g5150">
      <path
         id="path5020-4"
         d="m 316.65286,561.42914 c 0,0 -0.63228,-0.0514 -1.05911,0.25831 -0.73719,0.5449 -1.1542,1.13076 -1.3125,1.71875 -0.1583,0.58799 -0.0465,1.14992 0.15625,1.59375 0.40541,0.88767 1.15625,1.4375 1.15625,1.4375 0.0838,0.0503 0.6952,0.0639 0.7924,0.0538 l 6.96936,-0.19803 c 0.25335,0.0168 0.92755,0.0433 0.91881,-0.21048 -0.009,-0.25376 -0.89768,-0.7733 -1.14927,-0.73909 l -7.09375,0.25 c -0.0962,-0.0769 -0.52915,-0.41677 -0.78125,-0.96875 -0.13942,-0.30526 -0.18803,-0.61856 -0.0937,-0.96875 0.089,-0.33044 0.35845,-0.72812 0.90625,-1.15625 l 7.78125,0 c 0.25333,0.0271 0.50411,-0.19835 0.50411,-0.45313 0,-0.25477 -0.25078,-0.48018 -0.50411,-0.45312 -4.2495,-0.15064 -7.19099,-0.16452 -7.19099,-0.16451 z"
         style="color:#000000;font-style:normal;font-variant:normal;font-weight:normal;font-stretch:normal;font-size:medium;line-height:normal;font-family:Sans;-inkscape-font-specification:Sans;text-indent:0;text-align:start;text-decoration:none;text-decoration-line:none;letter-spacing:normal;word-spacing:normal;text-transform:none;direction:ltr;block-progression:tb;writing-mode:lr-tb;baseline-shift:baseline;text-anchor:start;display:inline;overflow:visible;visibility:visible;fill:url(#linearGradient5344);fill-opacity:1;stroke:none;stroke-width:0.91131604;marker:none;filter:url(#filter5406);enable-background:accumulate" />
      <path
         id="path5020"
         d="m 327.6875,565.40625 c -0.22609,0.0245 -0.41409,0.24147 -0.40625,0.46875 l 0.0312,7.78125 c -0.0537,0.0682 -0.42851,0.55149 -1,0.8125 -0.30526,0.13942 -0.61852,0.21912 -0.96875,0.125 -0.32204,-0.0865 -0.62643,-0.35103 -0.76253,-0.83473 0.1189,-3.14996 -0.23077,-6.49357 -0.23327,-9.66362 0,0 -0.1409,0.12861 -0.7853,0.77304 -0.6444,0.6444 -0.55688,0.58945 -0.55688,0.58945 l 0.30682,8.41711 c -0.01,0.0972 0.21194,0.55739 0.26224,0.64118 0.5449,0.73719 0.93102,0.79427 1.51901,0.95257 0.58799,0.1583 1.14992,0.0465 1.59375,-0.15625 0.88767,-0.40541 1.4375,-1.15625 1.4375,-1.15625 0.0611,-0.08 0.0947,-0.18061 0.0937,-0.28125 l -0.0312,-8 c 0.009,-0.25841 -0.24268,-0.49403 -0.5,-0.46875 z"
         style="color:#000000;font-style:normal;font-variant:normal;font-weight:normal;font-stretch:normal;font-size:medium;line-height:normal;font-family:Sans;-inkscape-font-specification:Sans;text-indent:0;text-align:start;text-decoration:none;text-decoration-line:none;letter-spacing:normal;word-spacing:normal;text-transform:none;direction:ltr;block-progression:tb;writing-mode:lr-tb;baseline-shift:baseline;text-anchor:start;display:inline;overflow:visible;visibility:visible;fill:url(#linearGradient5332);fill-opacity:1;stroke:none;stroke-width:0.91131604;marker:none;filter:url(#filter5426);enable-background:accumulate" />
      <path
         id="path5020-4-9"
         d="m 326.25,552.375 c -0.58799,-0.1583 -1.14992,-0.0465 -1.59375,0.15625 -0.88767,0.40541 -1.4375,1.1875 -1.4375,1.1875 -0.0612,0.0799 -0.0947,0.1806 -0.0937,0.28125 l 0.61612,8.51671 c -1e-5,0 -0.049,-0.0613 0.59538,0.58314 0.6444,0.6444 0.51575,0.479 0.51576,0.479 l -0.45857,-9.51212 c 0.23494,-0.53136 0.066,-0.43067 0.63753,-0.69168 0.30526,-0.13942 0.61856,-0.21928 0.96875,-0.125 0.32528,0.0876 0.70478,0.40777 1.125,0.9375 l 0.0312,7.78125 c -0.0271,0.25333 0.19835,0.50411 0.45312,0.50411 0.25478,0 0.48019,-0.25078 0.45313,-0.50411 l -0.0312,-8 c 0.01,-0.0972 -0.0122,-0.19746 -0.0625,-0.28125 -0.5449,-0.73719 -1.13076,-1.1542 -1.71875,-1.3125 z"
         style="color:#000000;font-style:normal;font-variant:normal;font-weight:normal;font-stretch:normal;font-size:medium;line-height:normal;font-family:Sans;-inkscape-font-specification:Sans;text-indent:0;text-align:start;text-decoration:none;text-decoration-line:none;letter-spacing:normal;word-spacing:normal;text-transform:none;direction:ltr;block-progression:tb;writing-mode:lr-tb;baseline-shift:baseline;text-anchor:start;display:inline;overflow:visible;visibility:visible;fill:url(#linearGradient5338);fill-opacity:1;stroke:none;stroke-width:0.91131604;marker:none;filter:url(#filter5462);enable-background:accumulate" />
      <path
         style="display:inline;fill:none;stroke:url(#linearGradient5162);stroke-width:0.91131604;stroke-linecap:round;stroke-linejoin:round;stroke-miterlimit:4;stroke-dasharray:none;stroke-opacity:1;filter:url(#filter5446)"
         d="m 327.58716,561.91533 7.93956,0.0391 c 0,0 2.72629,1.99274 0.0107,3.99999 l -7.71806,-0.0593"
         id="path5020-4-9-4" />
    </g>
  </g>
</svg>
