<?xml version="1.0" encoding="UTF-8" standalone="no"?>
<svg
   xmlns:dc="http://purl.org/dc/elements/1.1/"
   xmlns:cc="http://creativecommons.org/ns#"
   xmlns:rdf="http://www.w3.org/1999/02/22-rdf-syntax-ns#"
   xmlns:svg="http://www.w3.org/2000/svg"
   xmlns="http://www.w3.org/2000/svg"
   height="32"
   width="32"
   version="1.1"
   id="svg6120">
  <metadata
     id="metadata6126">
    <rdf:RDF>
      <cc:Work
         rdf:about="">
        <dc:format>image/svg+xml</dc:format>
        <dc:type
           rdf:resource="http://purl.org/dc/dcmitype/StillImage" />
        <dc:title></dc:title>
      </cc:Work>
    </rdf:RDF>
  </metadata>
  <defs
     id="defs6124" />
  <g
     id="layer18">
    <path
       id="rect6668"
       d="M 5,7 24,7 24,26 6,26 6,25 5,25 z"
       style="fill:#000000;fill-opacity:1;stroke:none" />
    <rect
       y="8"
       x="6"
       height="17"
       width="17"
       id="rect6671-5"
       style="fill:#808000;fill-opacity:1;stroke:none" />
  </g>
  <rect
     y="19"
     x="9"
     height="6"
     width="13"
     id="rect6673"
     style="fill:#000000;fill-opacity:1;stroke:none" />
  <rect
     y="20"
     x="17"
     height="5"
     width="4"
     id="rect6675-2"
     style="fill:#5f5f5f;fill-opacity:1;stroke:none" />
  <rect
     y="21"
     x="18"
     height="3"
     width="2"
     id="rect6675"
     style="fill:#c0c0c0;fill-opacity:1;stroke:none" />
  <path
     id="rect6677"
     d="m 8,8 14,0 0,8 0,2 -2,0 -11,0 -1,0 0,-2 z"
     style="fill:#000000;fill-opacity:1;stroke:none" />
  <path
     id="rect6680"
     d="M 8.9999998,8.0000003 21,8 l 0,9 0,0 0,0 -12,0 z"
     style="fill:#c0c0c0;fill-opacity:1;stroke:none" />
  <rect
     y="8"
     x="22"
     height="1"
     width="1"
     id="rect7066"
     style="fill:#c0c0c0;fill-opacity:1;stroke:none" />
</svg>
