<?xml version="1.0" encoding="UTF-8" standalone="no"?>
<svg
   xmlns:dc="http://purl.org/dc/elements/1.1/"
   xmlns:cc="http://creativecommons.org/ns#"
   xmlns:rdf="http://www.w3.org/1999/02/22-rdf-syntax-ns#"
   xmlns:svg="http://www.w3.org/2000/svg"
   xmlns="http://www.w3.org/2000/svg"
   height="32"
   width="32"
   version="1.1"
   id="svg4142">
  <metadata
     id="metadata4148">
    <rdf:RDF>
      <cc:Work
         rdf:about="">
        <dc:format>image/svg+xml</dc:format>
        <dc:type
           rdf:resource="http://purl.org/dc/dcmitype/StillImage" />
        <dc:title></dc:title>
      </cc:Work>
    </rdf:RDF>
  </metadata>
  <defs
     id="defs4146">
    <filter
       id="filter4918">
      <feGaussianBlur
         id="feGaussianBlur4920"
         stdDeviation="0.48" />
    </filter>
  </defs>
  <g
     style="display:inline"
     id="layer6">
    <path
       d="M 24,12 A 8,8 0 1 1 8,12 8,8 0 1 1 24,12 z"
       id="path4690"
       style="fill:#000000;fill-opacity:1;stroke:none" />
    <path
       transform="matrix(0.875,0,0,0.875,2,1.5)"
       d="M 24,12 A 8,8 0 1 1 8,12 8,8 0 1 1 24,12 z"
       id="path4690-4"
       style="fill:#808080;fill-opacity:1;stroke:none" />
    <path
       transform="matrix(0.75,0,0,0.75,4,3)"
       d="M 24,12 A 8,8 0 1 1 8,12 8,8 0 1 1 24,12 z"
       id="path4690-4-8"
       style="fill:#c0c0c0;fill-opacity:1;stroke:none;filter:url(#filter4918)" />
    <path
       id="path4728"
       d="m 12.28,9.7208578 c -8.1866667,14.8527612 -4.0933333,7.4263812 0,0 z"
       style="fill:#ffffff;fill-opacity:1;stroke:none" />
    <path
       id="path5002"
       d="m 16,19 -3,3 0,9 6,0 0,-9 -3,-3 z"
       style="fill:#000000;fill-opacity:1;stroke:none" />
    <rect
       y="23"
       x="14"
       height="8"
       width="3"
       id="rect5004"
       style="fill:#c0c0c0;fill-opacity:1;stroke:none" />
    <rect
       y="23"
       x="15"
       height="8"
       width="2"
       id="rect5006"
       style="fill:#808080;fill-opacity:1;stroke:none" />
    <path
       id="path5010"
       d="m 12,14 0,-4 c 0,0 0,-2 2,-2 2,0 4,0 4,0 -3.700187,1.1365082 -4.930048,2.688267 -6,6 z"
       style="fill:#ffffff;fill-opacity:1;stroke:none" />
  </g>
</svg>
