<?xml version="1.0" encoding="UTF-8" standalone="no"?>
<svg
   xmlns:dc="http://purl.org/dc/elements/1.1/"
   xmlns:cc="http://creativecommons.org/ns#"
   xmlns:rdf="http://www.w3.org/1999/02/22-rdf-syntax-ns#"
   xmlns:svg="http://www.w3.org/2000/svg"
   xmlns="http://www.w3.org/2000/svg"
   xmlns:xlink="http://www.w3.org/1999/xlink"
   version="1.1"
   id="svg2"
   height="32"
   width="32">
  <defs
     id="defs4">
    <linearGradient
       id="linearGradient3973">
      <stop
         id="stop3975"
         offset="0"
         style="stop-color:#5e2600;stop-opacity:1" />
      <stop
         id="stop3977"
         offset="1"
         style="stop-color:#ffd00d;stop-opacity:1" />
    </linearGradient>
    <linearGradient
       gradientUnits="userSpaceOnUse"
       y2="22"
       x2="23"
       y1="25"
       x1="27"
       id="linearGradient3979"
       xlink:href="#linearGradient3973" />
    <linearGradient
       y2="22"
       x2="23"
       y1="25"
       x1="27"
       gradientUnits="userSpaceOnUse"
       id="linearGradient4054"
       xlink:href="#linearGradient3973" />
    <linearGradient
       xlink:href="#linearGradient3893"
       id="linearGradient3919"
       gradientUnits="userSpaceOnUse"
       x1="-14.750001"
       y1="18.25"
       x2="-19.25"
       y2="13.75" />
    <linearGradient
       id="linearGradient3893">
      <stop
         id="stop3895"
         offset="0"
         style="stop-color:#5b3403;stop-opacity:1" />
      <stop
         style="stop-color:#ff8007;stop-opacity:1"
         offset="0.5"
         id="stop3901" />
      <stop
         id="stop3897"
         offset="1"
         style="stop-color:#ffed14;stop-opacity:1" />
    </linearGradient>
    <linearGradient
       xlink:href="#linearGradient3893"
       id="linearGradient4006"
       gradientUnits="userSpaceOnUse"
       x1="-14.750001"
       y1="18.25"
       x2="-19.25"
       y2="13.75" />
  </defs>
  <metadata
     id="metadata7">
    <rdf:RDF>
      <cc:Work
         rdf:about="">
        <dc:format>image/svg+xml</dc:format>
        <dc:type
           rdf:resource="http://purl.org/dc/dcmitype/StillImage" />
        <dc:title></dc:title>
      </cc:Work>
    </rdf:RDF>
  </metadata>
  <g
     style="display:inline"
     id="layer3">
    <g
       transform="translate(4,0)"
       id="g3966">
      <path
         style="fill:#000000;fill-opacity:1;stroke:none"
         d="m 6,14 5,0 2,-2 3,0 6,6 0,3 -2,0 0,1 -12,0 0,-1 -2,0 z"
         id="path3786" />
      <path
         style="fill:#000000;fill-opacity:1;stroke:none"
         d="M 11,23.5 C 11,24.880712 9.8807119,26 8.5,26 7.1192881,26 6,24.880712 6,23.5 6,22.119288 7.1192881,21 8.5,21 9.8807119,21 11,22.119288 11,23.5 z"
         id="path3788" />
      <path
         style="fill:#000000;fill-opacity:1;stroke:none"
         id="path3828"
         d="M 22,23.5 A 2.5,2.5 0 0 1 19.5,26 2.5,2.5 0 0 1 17,23.5 2.5,2.5 0 0 1 19.5,21 2.5,2.5 0 0 1 22,23.5 Z" />
    </g>
    <path
       id="path3964"
       d="m 6,13 1,0 0,4 2,0 L 6.569487,19.878169 4,17 6,17 z"
       style="fill:#000000;fill-opacity:1;stroke:none" />
    <path
       transform="matrix(0.83333333,0,0,0.83333333,20.666667,10.166667)"
       d="m -14,16 a 3,3 0 1 1 -6,0 3,3 0 1 1 6,0 z"
       id="path3891"
       style="fill:url(#linearGradient4006);fill-opacity:1;stroke:none" />
  </g>
</svg>
