<?xml version="1.0" encoding="UTF-8" standalone="no"?>
<svg
   xmlns:dc="http://purl.org/dc/elements/1.1/"
   xmlns:cc="http://creativecommons.org/ns#"
   xmlns:rdf="http://www.w3.org/1999/02/22-rdf-syntax-ns#"
   xmlns:svg="http://www.w3.org/2000/svg"
   xmlns="http://www.w3.org/2000/svg"
   version="1.1"
   id="svg2"
   height="32"
   width="32">
  <defs
     id="defs4" />
  <metadata
     id="metadata7">
    <rdf:RDF>
      <cc:Work
         rdf:about="">
        <dc:format>image/svg+xml</dc:format>
        <dc:type
           rdf:resource="http://purl.org/dc/dcmitype/StillImage" />
        <dc:title></dc:title>
      </cc:Work>
    </rdf:RDF>
  </metadata>
  <g
     style="display:inline"
     id="layer2">
    <rect
       ry="0"
       y="12.365161"
       x="6.8816638"
       height="9.659584"
       width="15.65736"
       id="rect3765"
       style="fill:#000000;fill-opacity:1;stroke:none" />
    <path
       id="path3811"
       d="m 25.695755,21.393399 -4.230013,-4.040611 4.166879,-4.419417 z"
       style="fill:#000000;fill-opacity:1;stroke:none" />
    <path
       transform="translate(4.4455684,4.8983426)"
       d="m 10.101526,4.0945358 a 4.0406103,4.0406103 0 1 1 -8.0812208,0 4.0406103,4.0406103 0 1 1 8.0812208,0 z"
       id="path3813"
       style="fill:#000000;fill-opacity:1;stroke:none" />
    <path
       transform="translate(13.068849,4.9244937)"
       d="m 10.038391,4.0945358 a 3.9774759,4.1037445 0 1 1 -7.9549514,0 3.9774759,4.1037445 0 1 1 7.9549514,0 z"
       id="path3813-1"
       style="fill:#000000;fill-opacity:1;stroke:none" />
    <path
       id="path3833"
       d="m 11.869293,21.645936 -2.651651,6.187184 3.219862,0 2.525381,-6.439722 3.535534,6.502857 3.156727,-1e-6 -4.293149,-7.007932 -5.303301,0 z"
       style="fill:#000000;fill-opacity:1;stroke:none" />
  </g>
</svg>
