<?xml version="1.0" encoding="UTF-8" standalone="no"?>
<svg
   xmlns:dc="http://purl.org/dc/elements/1.1/"
   xmlns:cc="http://creativecommons.org/ns#"
   xmlns:rdf="http://www.w3.org/1999/02/22-rdf-syntax-ns#"
   xmlns:svg="http://www.w3.org/2000/svg"
   xmlns="http://www.w3.org/2000/svg"
   height="32"
   width="32"
   version="1.1"
   id="svg5523">
  <metadata
     id="metadata5529">
    <rdf:RDF>
      <cc:Work
         rdf:about="">
        <dc:format>image/svg+xml</dc:format>
        <dc:type
           rdf:resource="http://purl.org/dc/dcmitype/StillImage" />
        <dc:title></dc:title>
      </cc:Work>
    </rdf:RDF>
  </metadata>
  <defs
     id="defs5527" />
  <g
     id="layer15">
    <path
       id="rect6082"
       d="m 5,12 0,-2 1,0 5,0 0,2 10,0 0,13 -16,0 z"
       style="fill:#000000;fill-opacity:1;stroke:none" />
    <path
       id="rect6084"
       d="m 6,13 0,-2 4,0 0,2 10,0 0,11 -14,0 z"
       style="fill:#ffff1d;fill-opacity:1;stroke:none" />
    <rect
       transform="matrix(1,0,-0.65717247,0.75374023,0,0)"
       y="21.227472"
       x="26.797049"
       height="11.940454"
       width="16.153063"
       id="rect6090"
       style="fill:#1a1a1a;fill-opacity:1;stroke:none" />
    <rect
       transform="matrix(1,0,-0.68264072,0.73075416,0,0)"
       y="23.263638"
       x="29.419821"
       height="9.5791445"
       width="13.460885"
       id="rect6090-8"
       style="fill:#808000;fill-opacity:1;stroke:none" />
    <path
       id="path6110"
       d="m 18,9 c 0,0 3.135593,-3.9322034 7.135593,1.067797"
       style="fill:none;stroke:#000000;stroke-width:1.20000005;stroke-linecap:butt;stroke-linejoin:miter;stroke-miterlimit:4;stroke-opacity:1;stroke-dasharray:none" />
    <path
       id="path6112"
       d="m 23,12 4,-4 0,4 z"
       style="fill:#000000;fill-opacity:1;stroke:none" />
  </g>
</svg>
