<?xml version="1.0" encoding="UTF-8" standalone="no"?>
<svg
   xmlns:dc="http://purl.org/dc/elements/1.1/"
   xmlns:cc="http://creativecommons.org/ns#"
   xmlns:rdf="http://www.w3.org/1999/02/22-rdf-syntax-ns#"
   xmlns:svg="http://www.w3.org/2000/svg"
   xmlns="http://www.w3.org/2000/svg"
   xmlns:xlink="http://www.w3.org/1999/xlink"
   height="32"
   width="32"
   version="1.1"
   id="svg2985">
  <metadata
     id="metadata2991">
    <rdf:RDF>
      <cc:Work
         rdf:about="">
        <dc:format>image/svg+xml</dc:format>
        <dc:type
           rdf:resource="http://purl.org/dc/dcmitype/StillImage" />
        <dc:title></dc:title>
      </cc:Work>
    </rdf:RDF>
  </metadata>
  <defs
     id="defs2989">
    <linearGradient
       id="linearGradient3893">
      <stop
         id="stop3895"
         offset="0"
         style="stop-color:#5b3403;stop-opacity:1" />
      <stop
         style="stop-color:#ff8007;stop-opacity:1"
         offset="0.5"
         id="stop3901" />
      <stop
         id="stop3897"
         offset="1"
         style="stop-color:#ffed14;stop-opacity:1" />
    </linearGradient>
    <linearGradient
       gradientUnits="userSpaceOnUse"
       y2="13.75"
       x2="-19.25"
       y1="18.25"
       x1="-14.750001"
       id="linearGradient3899"
       xlink:href="#linearGradient3893" />
  </defs>
  <g
     id="layer3">
    <path
       transform="matrix(1.0833333,0,0,1.0833333,-1.3333332,-1.3333332)"
       d="M 28,16 A 12,12 0 1 1 4,16 12,12 0 1 1 28,16 z"
       id="path3815"
       style="fill:#c0c0c0;fill-opacity:1;stroke:none" />
    <path
       id="path3817"
       d="M 14,20 12,18 8.9999994,21 7,19 l 0,6 6,0 -2,-2 z"
       style="fill:#000000;fill-opacity:1;stroke:none" />
    <path
       id="path3817-7"
       d="m 18,20 2,-2 3.000001,3 L 25,19 l 0,6 -6,0 2,-2 z"
       style="fill:#000000;fill-opacity:1;stroke:none" />
    <path
       id="path3817-7-4"
       d="m 18,12 2,2 3.000001,-3 L 25,13 25,7 19,7 21,9 z"
       style="fill:#000000;fill-opacity:1;stroke:none" />
    <path
       id="path3817-7-4-0"
       d="M 14,12 12,14 8.999999,11 7,13 7,7 13,7 11,9 z"
       style="fill:#000000;fill-opacity:1;stroke:none" />
  </g>
  <path
     transform="translate(33.000004,-3.1666667e-6)"
     d="m -14,16 a 3,3 0 1 1 -6,0 3,3 0 1 1 6,0 z"
     id="path3891"
     style="fill:url(#linearGradient3899);fill-opacity:1;stroke:none" />
</svg>
