<?xml version="1.0" encoding="UTF-8" standalone="no"?>
<svg
   xmlns:dc="http://purl.org/dc/elements/1.1/"
   xmlns:cc="http://creativecommons.org/ns#"
   xmlns:rdf="http://www.w3.org/1999/02/22-rdf-syntax-ns#"
   xmlns:svg="http://www.w3.org/2000/svg"
   xmlns="http://www.w3.org/2000/svg"
   height="32"
   width="32"
   version="1.1"
   id="svg4679">
  <metadata
     id="metadata4685">
    <rdf:RDF>
      <cc:Work
         rdf:about="">
        <dc:format>image/svg+xml</dc:format>
        <dc:type
           rdf:resource="http://purl.org/dc/dcmitype/StillImage" />
        <dc:title></dc:title>
      </cc:Work>
    </rdf:RDF>
  </metadata>
  <defs
     id="defs4683" />
  <g
     style="display:inline"
     id="layer1">
    <path
       id="path3918"
       d="M 10.368644,7.6885593 C 7.5043959,7.6800093 3.3006556,8.5573441 3.625,15.78125 c 0.2690582,5.992553 3.5297037,-0.153725 3.34375,3.4375 -0.074682,1.442298 -3.5227754,1.153072 -3.5227754,1.153072 L 3.4375,24.1875 c 0.9440281,0.147768 2.8345595,-0.357581 4.34375,-1.8125 l 0,-4.40625 c 0,0 -0.2257542,-2.102385 2.40625,-2.75 0.05599,-4.415913 -2.7089293,-0.748917 -2.96875,-2.625 -0.207535,-1.498545 1.2872985,-1.909665 3.125,-1.625 z"
       style="fill:#1f1a17;fill-opacity:1;stroke:none" />
    <path
       id="path3920"
       d="M 19,7.125 16.46875,8.59375 C 16.42223,8.59563 16.48449,8.74728 16.4375,8.75 c -1.25379,0.072477 -4.482398,0.7104979 -4.65625,5.53125 -0.0091,0.251978 -0.0047,0.464367 0,0.6875 2.464711,0.04096 3.305472,1.651157 3.5625,3.125 C 16.965461,17.710337 18.912118,16.001953 19,16.03125 L 19,7.125 Z m -2.78125,5.1875 c 0.0374,1.294477 -0.04493,1.212543 0,2.375 -0.0233,-0.0086 -0.501241,0.611406 -0.90625,0.6875 -0.526656,0.09895 -0.927282,-0.101835 -0.8125,-1.15625 0.129984,-1.194064 0.648293,-1.51163 1.71875,-1.90625 z"
       style="fill:#1f1a17;fill-opacity:1;stroke:none" />
    <path
       id="path3800"
       d="m 12.069811,25.07275 0,1.814577 c -0.01239,0.06035 -0.631756,0.788744 -1.091675,0.103002 l -10e-7,-9.060555 c -0.0021,0.145794 0.49606,-0.730922 1.091676,0.04794 l 0,1.937985 1.976449,0.02753 0,-2.013456 c 0,0 -0.143819,-2.013457 -2.349033,-1.965518 0,0 -2.6846087,-0.239697 -2.6846087,2.013457 l 0,8.772918 c 0,0 -0.2396973,2.157275 2.5407907,2.109335 0,0 2.492851,0.143819 2.492851,-1.965517 l -1e-6,-1.821698 z"
       style="fill:#000000;fill-opacity:1;stroke:none" />
    <g
       transform="translate(33.094644,-0.1557395)"
       id="g3882">
      <path
         style="fill:#1f1a17;fill-opacity:1;stroke:none"
         d="m -13.004248,5.9915035 4.8279242,-2.8811808 0,3.8934875 -4.8279242,3.1926598 z"
         id="path3878" />
      <path
         style="fill:#1f1a17;fill-opacity:1;stroke:none"
         d="M -11.914072,15.024394 -8.9550213,12.844041 -9.0328913,0.15127221 -12.069811,2.2537555 Z"
         id="path3880" />
    </g>
    <path
       id="path3888"
       d="M 17.5625,19 C 15.117545,19 15,21 15,21 l 0,6 c 0,2.323276 2.5,2 2.5,2 2.499982,0 2.5,-2 2.5,-2 l 0,-6 c 0,0 0.0075,-2 -2.4375,-2 z M 17.5,20.90625 c 0.488991,0 0.5,0.6875 0.5,0.6875 l 0,4.8125 c 0,0 -2e-6,0.90625 -0.5,0.90625 0,0 -0.519476,0.02054 -0.5,-0.90625 0.03907,-1.858921 0,-4.8125 0,-4.8125 0,0 0.01101,-0.6875 0.5,-0.6875 z"
       style="fill:#000000;fill-opacity:1;stroke:none" />
    <path
       id="path3908"
       d="m 23,29 -2,0 0,-9 -0.02247,-0.885983 2.009294,-3.37e-4 c 0,0 -0.0072,0.703171 0.01317,0.88632 l 0,0 L 24,20 24,19.595733 26,19.578182 26,20 l 1,0 0,-0.388728 2,0.0026 L 29,20 l 0,9 -2,0 0,-8 -1,0 0,8 -2,0 0,-8 -1,0 z"
       style="fill:#000000;fill-opacity:1;stroke:none" />
    <path
       id="path3912"
       d="M -23,8.2456316 -23,11 l -3,1 0,2 3,0 0,7 -3,3 -3,0 0,-4 3,0 0,-2 -3,0 0,-6 4,-4 2,0 z"
       style="fill:none;stroke:none" />
  </g>
</svg>
