<?xml version="1.0" encoding="UTF-8" standalone="no"?>
<svg
   xmlns:dc="http://purl.org/dc/elements/1.1/"
   xmlns:cc="http://creativecommons.org/ns#"
   xmlns:rdf="http://www.w3.org/1999/02/22-rdf-syntax-ns#"
   xmlns:svg="http://www.w3.org/2000/svg"
   xmlns="http://www.w3.org/2000/svg"
   height="32"
   width="32"
   version="1.1"
   id="svg7451">
  <metadata
     id="metadata7457">
    <rdf:RDF>
      <cc:Work
         rdf:about="">
        <dc:format>image/svg+xml</dc:format>
        <dc:type
           rdf:resource="http://purl.org/dc/dcmitype/StillImage" />
        <dc:title></dc:title>
      </cc:Work>
    </rdf:RDF>
  </metadata>
  <defs
     id="defs7455" />
  <g
     id="layer21">
    <rect
       y="22"
       x="6"
       height="2"
       width="12"
       id="rect7999"
       style="fill:#000000;fill-opacity:1;stroke:none" />
    <rect
       transform="scale(1,-1)"
       y="-24"
       x="19"
       height="2"
       width="2"
       id="rect7999-6"
       style="fill:#000000;fill-opacity:1;stroke:none" />
    <rect
       y="22"
       x="22"
       height="2"
       width="2"
       id="rect7999-6-1"
       style="fill:#000000;fill-opacity:1;stroke:none" />
    <rect
       y="22"
       x="25"
       height="2"
       width="2"
       id="rect7999-6-4"
       style="fill:#000000;fill-opacity:1;stroke:none" />
    <path
       id="path8044"
       d="m 6,17 7,0 -7,-7 z"
       style="fill:#000000;stroke:none;stroke-width:1px;stroke-linecap:butt;stroke-linejoin:miter;stroke-opacity:1;fill-opacity:1" />
    <path
       id="path8050"
       d="m 17,8 c -4.418278,0 -7.0686648,2.91636 -9.294365,5.732969 -0.1438183,0.182001 1.9384288,1.598468 1.9800778,1.867168 2.1675642,-2.382795 4.1625622,-5.7027442 7.4442282,-5.7027442 3.589851,0 5.972666,2.6220912 5.972666,5.3835152 0,2.58069 -3.652288,5.420862 -6.915107,5.687842 C 16.456437,20.990941 16.723858,21 17,21 21.418278,21 25,18.089851 25,14.5 25,10.910149 21.418278,8 17,8 z"
       style="fill:#000000;fill-opacity:1;stroke:none" />
  </g>
</svg>
