<?xml version="1.0" encoding="UTF-8" standalone="no"?>
<!-- Created with Inkscape (http://www.inkscape.org/) -->

<svg
   xmlns:dc="http://purl.org/dc/elements/1.1/"
   xmlns:cc="http://creativecommons.org/ns#"
   xmlns:rdf="http://www.w3.org/1999/02/22-rdf-syntax-ns#"
   xmlns:svg="http://www.w3.org/2000/svg"
   xmlns="http://www.w3.org/2000/svg"
   xmlns:xlink="http://www.w3.org/1999/xlink"
   xmlns:sodipodi="http://sodipodi.sourceforge.net/DTD/sodipodi-0.dtd"
   xmlns:inkscape="http://www.inkscape.org/namespaces/inkscape"
   width="32"
   height="32"
   id="svg2"
   version="1.1"
   inkscape:version="0.48.4 r9939"
   sodipodi:docname="button1-08.svg">
  <defs
     id="defs4">
    <mask
       id="mask4639"
       maskUnits="userSpaceOnUse">
      <path
         inkscape:connector-curvature="0"
         id="path4641"
         d="m 8,198 0,12 c 0,4.41828 3.58172,8 8,8 4.41828,0 8,-3.58172 8,-8 l 0,-12 -16,0 z"
         style="fill:#ffffff;fill-opacity:1;fill-rule:evenodd;stroke:none" />
    </mask>
    <mask
       id="mask4584"
       maskUnits="userSpaceOnUse">
      <path
         d="m 27,208 a 11,11 0 1 1 -22,0 11,11 0 1 1 22,0 z"
         sodipodi:ry="11"
         sodipodi:rx="11"
         sodipodi:cy="208"
         sodipodi:cx="16"
         id="path4586"
         style="fill:#ffffff;fill-opacity:1;fill-rule:evenodd;stroke:none"
         sodipodi:type="arc" />
    </mask>
    <mask
       id="mask4325"
       maskUnits="userSpaceOnUse">
      <path
         sodipodi:type="arc"
         style="fill:#ffffff;fill-opacity:1;fill-rule:evenodd;stroke:none;display:inline"
         id="path4327"
         sodipodi:cx="145"
         sodipodi:cy="80"
         sodipodi:rx="11"
         sodipodi:ry="11"
         d="m 156,80 a 11,11 0 1 1 -22,0 11,11 0 1 1 22,0 z"
         transform="translate(24.5,-0.5)" />
    </mask>
    <linearGradient
       id="linearGradient3818">
      <stop
         style="stop-color:#ffffff;stop-opacity:1;"
         offset="0"
         id="stop3822" />
      <stop
         style="stop-color:#808080;stop-opacity:1"
         offset="1"
         id="stop3820" />
    </linearGradient>
    <linearGradient
       id="linearGradient3924">
      <stop
         id="stop3926"
         offset="0"
         style="stop-color:#808080;stop-opacity:1;" />
      <stop
         id="stop3928"
         offset="1"
         style="stop-color:#000000;stop-opacity:1;" />
    </linearGradient>
    <linearGradient
       id="linearGradient3938">
      <stop
         style="stop-color:#ffffff;stop-opacity:1;"
         offset="0"
         id="stop3942" />
      <stop
         style="stop-color:#c0c0c0;stop-opacity:1;"
         offset="1"
         id="stop3940" />
    </linearGradient>
    <radialGradient
       inkscape:collect="always"
       xlink:href="#linearGradient3818"
       id="radialGradient4212"
       gradientUnits="userSpaceOnUse"
       gradientTransform="matrix(0.64706466,-0.17338045,0.2105263,0.78569486,6.3303736,15.357328)"
       cx="49.507587"
       cy="41.016331"
       fx="49.507587"
       fy="41.016331"
       r="9.5" />
    <radialGradient
       inkscape:collect="always"
       xlink:href="#linearGradient3818"
       id="radialGradient4214"
       gradientUnits="userSpaceOnUse"
       gradientTransform="matrix(0.2309401,-0.39999999,0.39999999,0.2309401,19.520207,51.720948)"
       cx="48.677711"
       cy="41.867233"
       fx="48.677711"
       fy="41.867233"
       r="3.1172675" />
    <radialGradient
       inkscape:collect="always"
       xlink:href="#linearGradient3938"
       id="radialGradient4216"
       gradientUnits="userSpaceOnUse"
       gradientTransform="matrix(0.23094002,-0.39999987,0.42163546,0.24343212,74.60873,118.3946)"
       cx="223.56012"
       cy="49.005108"
       fx="223.56012"
       fy="49.005108"
       r="5.5" />
    <linearGradient
       inkscape:collect="always"
       xlink:href="#linearGradient3924"
       id="linearGradient4218"
       gradientUnits="userSpaceOnUse"
       x1="138"
       y1="41.5"
       x2="138"
       y2="44" />
    <radialGradient
       inkscape:collect="always"
       xlink:href="#linearGradient3818"
       id="radialGradient4242"
       gradientUnits="userSpaceOnUse"
       gradientTransform="matrix(0.64706466,-0.17338045,0.2105263,0.78569486,6.3303736,15.357328)"
       cx="49.507587"
       cy="41.016331"
       fx="49.507587"
       fy="41.016331"
       r="9.5" />
    <radialGradient
       inkscape:collect="always"
       xlink:href="#linearGradient3818"
       id="radialGradient4244"
       gradientUnits="userSpaceOnUse"
       gradientTransform="matrix(0.2309401,-0.39999999,0.39999999,0.2309401,19.520207,51.720948)"
       cx="48.677711"
       cy="41.867233"
       fx="48.677711"
       fy="41.867233"
       r="3.1172675" />
    <radialGradient
       inkscape:collect="always"
       xlink:href="#linearGradient3938"
       id="radialGradient4274"
       gradientUnits="userSpaceOnUse"
       gradientTransform="matrix(0.23094002,-0.39999987,0.42163546,0.24343212,74.60873,118.3946)"
       cx="223.56012"
       cy="49.005108"
       fx="223.56012"
       fy="49.005108"
       r="5.5" />
    <linearGradient
       inkscape:collect="always"
       xlink:href="#linearGradient3924"
       id="linearGradient4276"
       gradientUnits="userSpaceOnUse"
       x1="138"
       y1="41.5"
       x2="138"
       y2="44" />
    <radialGradient
       inkscape:collect="always"
       xlink:href="#linearGradient3938"
       id="radialGradient4286"
       gradientUnits="userSpaceOnUse"
       gradientTransform="matrix(0.23094002,-0.39999987,0.42163546,0.24343212,74.60873,118.3946)"
       cx="223.56012"
       cy="49.005108"
       fx="223.56012"
       fy="49.005108"
       r="5.5" />
    <linearGradient
       inkscape:collect="always"
       xlink:href="#linearGradient3924"
       id="linearGradient4288"
       gradientUnits="userSpaceOnUse"
       x1="138"
       y1="41.5"
       x2="138"
       y2="44" />
    <radialGradient
       inkscape:collect="always"
       xlink:href="#linearGradient3938"
       id="radialGradient4549"
       gradientUnits="userSpaceOnUse"
       gradientTransform="matrix(0.23094002,-0.39999987,0.42163546,0.24343212,74.60873,118.3946)"
       cx="223.56012"
       cy="49.005108"
       fx="223.56012"
       fy="49.005108"
       r="5.5" />
    <linearGradient
       inkscape:collect="always"
       xlink:href="#linearGradient3924"
       id="linearGradient4551"
       gradientUnits="userSpaceOnUse"
       x1="138"
       y1="41.5"
       x2="138"
       y2="44" />
    <radialGradient
       inkscape:collect="always"
       xlink:href="#linearGradient3818"
       id="radialGradient4587"
       gradientUnits="userSpaceOnUse"
       gradientTransform="matrix(0.64706466,-0.17338045,0.2105263,0.78569486,6.3303736,15.357328)"
       cx="49.507587"
       cy="41.016331"
       fx="49.507587"
       fy="41.016331"
       r="9.5" />
    <radialGradient
       inkscape:collect="always"
       xlink:href="#linearGradient3818"
       id="radialGradient4589"
       gradientUnits="userSpaceOnUse"
       gradientTransform="matrix(0.2309401,-0.39999999,0.39999999,0.2309401,19.520207,51.720948)"
       cx="48.677711"
       cy="41.867233"
       fx="48.677711"
       fy="41.867233"
       r="3.1172675" />
    <radialGradient
       inkscape:collect="always"
       xlink:href="#linearGradient3818"
       id="radialGradient4597"
       gradientUnits="userSpaceOnUse"
       gradientTransform="matrix(0.64706466,-0.17338045,0.2105263,0.78569486,6.3303736,15.357328)"
       cx="49.507587"
       cy="41.016331"
       fx="49.507587"
       fy="41.016331"
       r="9.5" />
    <radialGradient
       inkscape:collect="always"
       xlink:href="#linearGradient3818"
       id="radialGradient4599"
       gradientUnits="userSpaceOnUse"
       gradientTransform="matrix(0.2309401,-0.39999999,0.39999999,0.2309401,19.520207,51.720948)"
       cx="48.677711"
       cy="41.867233"
       fx="48.677711"
       fy="41.867233"
       r="3.1172675" />
  </defs>
  <sodipodi:namedview
     id="base"
     pagecolor="#ffffff"
     bordercolor="#666666"
     borderopacity="1.0"
     inkscape:pageopacity="0.0"
     inkscape:pageshadow="2"
     inkscape:zoom="1"
     inkscape:cx="6.6848341"
     inkscape:cy="31.034311"
     inkscape:document-units="px"
     inkscape:current-layer="layer2"
     showgrid="false"
     fit-margin-top="0"
     fit-margin-left="0"
     fit-margin-right="0"
     fit-margin-bottom="0"
     inkscape:window-width="1280"
     inkscape:window-height="977"
     inkscape:window-x="-4"
     inkscape:window-y="-4"
     inkscape:window-maximized="1" />
  <metadata
     id="metadata7">
    <rdf:RDF>
      <cc:Work
         rdf:about="">
        <dc:format>image/svg+xml</dc:format>
        <dc:type
           rdf:resource="http://purl.org/dc/dcmitype/StillImage" />
        <dc:title />
      </cc:Work>
    </rdf:RDF>
  </metadata>
  <g
     inkscape:groupmode="layer"
     id="layer2"
     inkscape:label="Back"
     style="display:inline"
     sodipodi:insensitive="true">
    <path
       style="fill:#ff8401;fill-opacity:1;stroke:none"
       d="m 5.8497608,11.239084 5.0468522,-4.932151 8.946693,-0.1147012 5.161554,5.1615532 0,9.634901 -5.161554,5.161553 -8.946693,0 -5.0468522,-5.276255 z"
       id="path3765"
       inkscape:connector-curvature="0"
       sodipodi:nodetypes="ccccccccc" />
    <path
       style="fill:none;stroke:#ffffff;stroke-width:1.30553758;stroke-opacity:1;display:inline"
       d="m 7.1737188,11.89135 4.3794192,-4.2798869 7.763513,-0.099533 4.478952,4.4789509 0,8.360709 -4.478952,4.478949 -7.763513,0 -4.3794192,-4.578482 z"
       id="path3765-1"
       inkscape:connector-curvature="0"
       sodipodi:nodetypes="ccccccccc" />
  </g>
  <g
     inkscape:groupmode="layer"
     id="layer3"
     inkscape:label="Stop"
     sodipodi:insensitive="true"
     style="display:inline">
    <g
       transform="scale(0.81253904,1.2307101)"
       style="font-size:8.12228489px;font-style:normal;font-variant:normal;font-weight:bold;font-stretch:normal;line-height:125%;letter-spacing:0px;word-spacing:0px;fill:#ffffff;fill-opacity:1;stroke:none;font-family:Calibri;-inkscape-font-specification:Calibri Bold"
       id="text3797">
      <path
         d="m 13.916077,14.025155 c -3e-6,0.269687 -0.05024,0.506322 -0.150706,0.709907 -0.100474,0.203587 -0.236639,0.373462 -0.408494,0.509626 -0.171861,0.136165 -0.372803,0.238619 -0.602826,0.307362 -0.230028,0.06874 -0.475917,0.103115 -0.737668,0.103115 -0.177148,0 -0.341735,-0.01454 -0.493762,-0.04363 -0.15203,-0.02908 -0.286211,-0.06412 -0.402545,-0.105098 -0.116336,-0.04098 -0.213501,-0.08395 -0.291498,-0.128893 -0.078,-0.04495 -0.134182,-0.08461 -0.168553,-0.118979 -0.03437,-0.03437 -0.05883,-0.08395 -0.07337,-0.148724 -0.01454,-0.06478 -0.02181,-0.157976 -0.02181,-0.2796 -10e-7,-0.08196 0.0026,-0.150705 0.0079,-0.20623 0.0053,-0.05552 0.01388,-0.10047 0.02578,-0.134842 0.0119,-0.03437 0.02776,-0.05883 0.04759,-0.07337 0.01983,-0.01454 0.04296,-0.02181 0.0694,-0.02181 0.03702,1e-6 0.08923,0.02181 0.156656,0.06544 0.06742,0.04363 0.15401,0.09188 0.25977,0.144757 0.105758,0.05288 0.232007,0.101133 0.378749,0.144758 0.146739,0.04363 0.316614,0.06544 0.509626,0.06544 0.126909,10e-7 0.240599,-0.0152 0.341072,-0.04561 0.100469,-0.03041 0.185737,-0.07337 0.255805,-0.128894 0.07006,-0.05552 0.123603,-0.124266 0.160621,-0.20623 0.03701,-0.08196 0.05552,-0.173179 0.05552,-0.273651 -2e-6,-0.116333 -0.03173,-0.216143 -0.09518,-0.29943 -0.06346,-0.08328 -0.146081,-0.157314 -0.247872,-0.222094 -0.101795,-0.06478 -0.217469,-0.125586 -0.347021,-0.182434 -0.129557,-0.05684 -0.263077,-0.116993 -0.400562,-0.180451 -0.137488,-0.06345 -0.271009,-0.135501 -0.400562,-0.216145 -0.129556,-0.08064 -0.24523,-0.177143 -0.347022,-0.289515 -0.101793,-0.112366 -0.184417,-0.245225 -0.247872,-0.398579 -0.06346,-0.153347 -0.09518,-0.337103 -0.09518,-0.551268 -10e-7,-0.245886 0.04561,-0.46203 0.136825,-0.648434 0.09122,-0.186396 0.214161,-0.341068 0.368835,-0.464018 0.154671,-0.122939 0.337105,-0.214817 0.547302,-0.275634 0.210194,-0.06081 0.432949,-0.09121 0.668264,-0.09122 0.121621,5e-6 0.243243,0.0093 0.364868,0.02776 0.121621,0.01851 0.235311,0.04363 0.341073,0.07535 0.105756,0.03173 0.199617,0.06743 0.281583,0.107081 0.08196,0.03967 0.136161,0.07271 0.162604,0.09915 0.02644,0.02645 0.04428,0.04892 0.05354,0.06742 0.0092,0.01851 0.01718,0.04297 0.0238,0.07337 0.0066,0.03041 0.01123,0.06875 0.01388,0.115012 0.0026,0.04627 0.004,0.103781 0.004,0.17252 -3e-6,0.07668 -0.002,0.141456 -0.0059,0.194332 -0.004,0.05288 -0.01058,0.09651 -0.01983,0.130876 -0.0093,0.03438 -0.02248,0.05949 -0.03966,0.07535 -0.01719,0.01587 -0.04032,0.0238 -0.0694,0.0238 -0.02909,4e-6 -0.07536,-0.0185 -0.138809,-0.05552 -0.06346,-0.03701 -0.141455,-0.07733 -0.233991,-0.120962 -0.09254,-0.04362 -0.199623,-0.08328 -0.321243,-0.118979 -0.121625,-0.03569 -0.255146,-0.05354 -0.400562,-0.05354 -0.113693,4e-6 -0.212842,0.01389 -0.297447,0.04164 -0.08461,0.02777 -0.155335,0.0661 -0.212179,0.115013 -0.05685,0.04892 -0.09915,0.107746 -0.12691,0.176485 -0.02776,0.06875 -0.04164,0.141457 -0.04164,0.218128 -1e-6,0.113695 0.03106,0.212183 0.0932,0.295464 0.06213,0.08329 0.145417,0.15732 0.249855,0.222094 0.104436,0.06478 0.222753,0.125592 0.354954,0.182434 0.132196,0.05685 0.267039,0.116999 0.404528,0.180451 0.137484,0.06346 0.272326,0.135507 0.404528,0.216145 0.132195,0.08064 0.249852,0.177149 0.35297,0.289515 0.103111,0.112371 0.186397,0.24457 0.249855,0.396596 0.06345,0.15203 0.09518,0.331159 0.09518,0.537387 z"
         style="fill:#ffffff;font-family:Calibri;-inkscape-font-specification:Calibri Bold"
         id="path3023"
         inkscape:connector-curvature="0" />
      <path
         d="m 18.127926,10.86032 c -4e-6,0.07668 -0.0033,0.142118 -0.0099,0.196315 -0.0066,0.05421 -0.01653,0.09783 -0.02974,0.130876 -0.01322,0.03305 -0.02975,0.05751 -0.04957,0.07337 -0.01983,0.01587 -0.04165,0.0238 -0.06544,0.02379 l -1.284971,0 0,4.136496 c -3e-6,0.02644 -0.0086,0.05024 -0.02578,0.07139 -0.01719,0.02115 -0.04561,0.03834 -0.08527,0.05156 -0.03966,0.01322 -0.0932,0.0238 -0.160621,0.03173 -0.06742,0.0079 -0.15137,0.0119 -0.251839,0.0119 -0.100473,0 -0.184419,-0.004 -0.251838,-0.0119 -0.06742,-0.0079 -0.120964,-0.01851 -0.160622,-0.03173 -0.03966,-0.01322 -0.06808,-0.03041 -0.08527,-0.05156 -0.01719,-0.02115 -0.02578,-0.04495 -0.02578,-0.07139 l 0,-4.136496 -1.284971,0 c -0.02644,5e-6 -0.04891,-0.0079 -0.06742,-0.02379 -0.01851,-0.01586 -0.03437,-0.04032 -0.04759,-0.07337 -0.01322,-0.03305 -0.02313,-0.07667 -0.02975,-0.130876 -0.0066,-0.0542 -0.0099,-0.119635 -0.0099,-0.196315 0,-0.07931 0.0033,-0.146736 0.0099,-0.202264 0.0066,-0.05552 0.01652,-0.0998 0.02975,-0.13286 0.01322,-0.03304 0.02908,-0.05684 0.04759,-0.07139 0.01851,-0.01454 0.04098,-0.02181 0.06742,-0.02181 l 3.616955,0 c 0.02379,5e-6 0.0456,0.0073 0.06544,0.02181 0.01983,0.01455 0.03635,0.03834 0.04957,0.07139 0.01322,0.03306 0.02313,0.07734 0.02974,0.13286 0.0066,0.05553 0.0099,0.122949 0.0099,0.202264 z"
         style="fill:#ffffff;font-family:Calibri;-inkscape-font-specification:Calibri Bold"
         id="path3025"
         inkscape:connector-curvature="0" />
      <path
         d="m 23.359027,12.938483 c -5e-6,0.425681 -0.05288,0.806413 -0.158639,1.142196 -0.105763,0.335786 -0.26308,0.620673 -0.471949,0.854664 -0.208878,0.233992 -0.467326,0.41246 -0.775345,0.535405 -0.308026,0.122944 -0.664301,0.184417 -1.068826,0.184417 -0.399242,0 -0.747585,-0.05222 -1.04503,-0.156656 -0.297449,-0.104436 -0.545321,-0.263736 -0.743618,-0.477898 -0.198298,-0.214161 -0.347022,-0.48649 -0.44617,-0.816987 -0.09915,-0.330495 -0.148724,-0.721803 -0.148724,-1.173924 0,-0.415101 0.05288,-0.788562 0.158639,-1.120384 0.105758,-0.331815 0.263074,-0.614058 0.471949,-0.846732 0.208873,-0.232665 0.467321,-0.411133 0.775345,-0.535405 0.308021,-0.124261 0.665618,-0.186395 1.072792,-0.1864 0.388661,5e-6 0.731716,0.05156 1.029167,0.154673 0.297442,0.103119 0.545976,0.261758 0.7456,0.475915 0.199615,0.214166 0.350321,0.484512 0.452119,0.811038 0.101788,0.326534 0.152685,0.711893 0.15269,1.156078 z m -1.094605,0.05552 c -4e-6,-0.269682 -0.02116,-0.514911 -0.06346,-0.735685 -0.04231,-0.220769 -0.114356,-0.409813 -0.216145,-0.567133 -0.101797,-0.157312 -0.2373,-0.278935 -0.406511,-0.364868 -0.169217,-0.08593 -0.380735,-0.128889 -0.634553,-0.128894 -0.256468,5e-6 -0.47063,0.04826 -0.642486,0.144758 -0.17186,0.09651 -0.310669,0.225403 -0.416426,0.386681 -0.10576,0.161286 -0.180452,0.349669 -0.224076,0.565149 -0.04363,0.215487 -0.06544,0.443529 -0.06544,0.684128 -10e-7,0.280264 0.02115,0.532102 0.06346,0.755515 0.0423,0.223418 0.113689,0.414445 0.214161,0.573082 0.10047,0.158639 0.235312,0.279601 0.404528,0.362885 0.169212,0.08329 0.382052,0.124928 0.63852,0.124928 0.256462,0 0.470624,-0.04759 0.642485,-0.142775 0.171855,-0.09518 0.310663,-0.224737 0.416426,-0.388664 0.105755,-0.163925 0.180447,-0.354952 0.224077,-0.573081 0.04362,-0.218126 0.06543,-0.450134 0.06544,-0.696026 z"
         style="fill:#ffffff;font-family:Calibri;-inkscape-font-specification:Calibri Bold"
         id="path3027"
         inkscape:connector-curvature="0" />
      <path
         d="m 27.745378,11.990618 c -4e-6,0.288197 -0.04495,0.54334 -0.134843,0.76543 -0.0899,0.222097 -0.220775,0.409158 -0.39263,0.561184 -0.171861,0.15203 -0.382718,0.267704 -0.63257,0.347021 -0.249858,0.07932 -0.544,0.118981 -0.882426,0.118979 l -0.428324,0 0,1.637941 c -10e-7,0.02644 -0.0086,0.05024 -0.02578,0.07139 -0.01719,0.02115 -0.04561,0.03834 -0.08527,0.05156 -0.03966,0.01322 -0.09254,0.0238 -0.158638,0.03173 -0.0661,0.0079 -0.150708,0.0119 -0.253822,0.0119 -0.100471,0 -0.184418,-0.004 -0.251838,-0.0119 -0.06742,-0.0079 -0.120962,-0.01851 -0.160621,-0.03173 -0.03966,-0.01322 -0.06742,-0.03041 -0.08329,-0.05156 -0.01587,-0.02115 -0.0238,-0.04495 -0.0238,-0.07139 l 0,-4.616377 c -10e-7,-0.124261 0.03239,-0.217461 0.09717,-0.2796 0.06478,-0.06213 0.150044,-0.09319 0.255804,-0.0932 l 1.209618,0 c 0.12162,5e-6 0.237294,0.0046 0.347021,0.01388 0.109723,0.0093 0.24126,0.02909 0.394613,0.05949 0.153348,0.03041 0.308681,0.0866 0.466,0.168554 0.157313,0.08197 0.291495,0.185744 0.402545,0.311328 0.111043,0.125593 0.19565,0.272333 0.253822,0.440221 0.05816,0.167896 0.08725,0.356279 0.08725,0.565149 z m -1.090639,0.07535 c -3e-6,-0.179786 -0.03173,-0.327848 -0.09518,-0.444187 -0.06346,-0.116331 -0.141455,-0.20226 -0.233992,-0.257787 -0.09254,-0.05552 -0.189707,-0.09055 -0.291498,-0.105098 -0.101795,-0.01454 -0.206893,-0.02181 -0.315293,-0.02181 l -0.444188,0 0,1.741056 0.467983,0 c 0.166568,3e-6 0.306038,-0.02247 0.418409,-0.06742 0.112366,-0.04495 0.204244,-0.107739 0.275634,-0.188383 0.07138,-0.08064 0.125586,-0.177143 0.162605,-0.289515 0.03701,-0.112366 0.05552,-0.23465 0.05552,-0.366852 z"
         style="fill:#ffffff;font-family:Calibri;-inkscape-font-specification:Calibri Bold"
         id="path3029"
         inkscape:connector-curvature="0" />
    </g>
  </g>
</svg>
