<?xml version="1.0" encoding="UTF-8" standalone="no"?>
<!-- Created with Inkscape (http://www.inkscape.org/) -->

<svg
   xmlns:dc="http://purl.org/dc/elements/1.1/"
   xmlns:cc="http://creativecommons.org/ns#"
   xmlns:rdf="http://www.w3.org/1999/02/22-rdf-syntax-ns#"
   xmlns:svg="http://www.w3.org/2000/svg"
   xmlns="http://www.w3.org/2000/svg"
   xmlns:xlink="http://www.w3.org/1999/xlink"
   xmlns:sodipodi="http://sodipodi.sourceforge.net/DTD/sodipodi-0.dtd"
   xmlns:inkscape="http://www.inkscape.org/namespaces/inkscape"
   id="svg2985"
   version="1.1"
   inkscape:version="0.48.4 r9939"
   width="32"
   height="32"
   sodipodi:docname="button1-39.svg"
   inkscape:export-filename="C:\Documents and Settings\Administrator\Pulpit\button1-39.png"
   inkscape:export-xdpi="360"
   inkscape:export-ydpi="360">
  <metadata
     id="metadata2991">
    <rdf:RDF>
      <cc:Work
         rdf:about="">
        <dc:format>image/svg+xml</dc:format>
        <dc:type
           rdf:resource="http://purl.org/dc/dcmitype/StillImage" />
        <dc:title></dc:title>
      </cc:Work>
    </rdf:RDF>
  </metadata>
  <defs
     id="defs2989">
    <linearGradient
       id="linearGradient3893">
      <stop
         style="stop-color:#5b3403;stop-opacity:1"
         offset="0"
         id="stop3895" />
      <stop
         id="stop3901"
         offset="0.5"
         style="stop-color:#ff8007;stop-opacity:1" />
      <stop
         style="stop-color:#ffed14;stop-opacity:1"
         offset="1"
         id="stop3897" />
    </linearGradient>
    <linearGradient
       inkscape:collect="always"
       xlink:href="#linearGradient3893"
       id="linearGradient3899"
       x1="-14.750001"
       y1="18.25"
       x2="-19.25"
       y2="13.75"
       gradientUnits="userSpaceOnUse" />
  </defs>
  <sodipodi:namedview
     pagecolor="#ffffff"
     bordercolor="#666666"
     borderopacity="1"
     objecttolerance="10"
     gridtolerance="10"
     guidetolerance="10"
     inkscape:pageopacity="0"
     inkscape:pageshadow="2"
     inkscape:window-width="1280"
     inkscape:window-height="977"
     id="namedview2987"
     showgrid="false"
     inkscape:snap-bbox="true"
     inkscape:zoom="1"
     inkscape:cx="24.984698"
     inkscape:cy="22.821991"
     inkscape:window-x="-4"
     inkscape:window-y="-4"
     inkscape:window-maximized="1"
     inkscape:current-layer="layer3">
    <inkscape:grid
       type="xygrid"
       id="grid3793" />
  </sodipodi:namedview>
  <g
     inkscape:groupmode="layer"
     id="layer3"
     inkscape:label="vector">
    <path
       sodipodi:type="arc"
       style="fill:#c0c0c0;fill-opacity:1;stroke:none"
       id="path3815"
       sodipodi:cx="16"
       sodipodi:cy="16"
       sodipodi:rx="12"
       sodipodi:ry="12"
       d="M 28,16 A 12,12 0 1 1 4,16 12,12 0 1 1 28,16 z"
       transform="matrix(1.0833333,0,0,1.0833333,-1.3333332,-1.3333332)" />
    <path
       style="fill:#000000;fill-opacity:1;stroke:none"
       d="M 14,20 12,18 8.9999994,21 7,19 l 0,6 6,0 -2,-2 z"
       id="path3817"
       inkscape:connector-curvature="0" />
    <path
       style="fill:#000000;fill-opacity:1;stroke:none"
       d="m 18,20 2,-2 3.000001,3 L 25,19 l 0,6 -6,0 2,-2 z"
       id="path3817-7"
       inkscape:connector-curvature="0" />
    <path
       style="fill:#000000;fill-opacity:1;stroke:none"
       d="m 18,12 2,2 3.000001,-3 L 25,13 25,7 19,7 21,9 z"
       id="path3817-7-4"
       inkscape:connector-curvature="0" />
    <path
       style="fill:#000000;fill-opacity:1;stroke:none"
       d="M 14,12 12,14 8.999999,11 7,13 7,7 13,7 11,9 z"
       id="path3817-7-4-0"
       inkscape:connector-curvature="0" />
  </g>
  <path
     sodipodi:type="arc"
     style="fill:url(#linearGradient3899);fill-opacity:1;stroke:none"
     id="path3891"
     sodipodi:cx="-17"
     sodipodi:cy="16"
     sodipodi:rx="3"
     sodipodi:ry="3"
     d="m -14,16 a 3,3 0 1 1 -6,0 3,3 0 1 1 6,0 z"
     transform="translate(33.000004,-3.1666667e-6)" />
</svg>
