<?xml version="1.0" encoding="UTF-8" standalone="no"?>
<!-- Created with Inkscape (http://www.inkscape.org/) -->

<svg
   xmlns:dc="http://purl.org/dc/elements/1.1/"
   xmlns:cc="http://creativecommons.org/ns#"
   xmlns:rdf="http://www.w3.org/1999/02/22-rdf-syntax-ns#"
   xmlns:svg="http://www.w3.org/2000/svg"
   xmlns="http://www.w3.org/2000/svg"
   xmlns:sodipodi="http://sodipodi.sourceforge.net/DTD/sodipodi-0.dtd"
   xmlns:inkscape="http://www.inkscape.org/namespaces/inkscape"
   id="svg7239"
   version="1.1"
   inkscape:version="0.48.4 r9939"
   width="32"
   height="32"
   sodipodi:docname="button1-32.svg"
   inkscape:export-filename="C:\Documents and Settings\Administrator\Pulpit\button1-32.png"
   inkscape:export-xdpi="360"
   inkscape:export-ydpi="360">
  <metadata
     id="metadata7245">
    <rdf:RDF>
      <cc:Work
         rdf:about="">
        <dc:format>image/svg+xml</dc:format>
        <dc:type
           rdf:resource="http://purl.org/dc/dcmitype/StillImage" />
        <dc:title></dc:title>
      </cc:Work>
    </rdf:RDF>
  </metadata>
  <defs
     id="defs7243" />
  <sodipodi:namedview
     pagecolor="#ffffff"
     bordercolor="#666666"
     borderopacity="1"
     objecttolerance="10"
     gridtolerance="10"
     guidetolerance="10"
     inkscape:pageopacity="0"
     inkscape:pageshadow="2"
     inkscape:window-width="1280"
     inkscape:window-height="977"
     id="namedview7241"
     showgrid="false"
     inkscape:zoom="1"
     inkscape:cx="12.182637"
     inkscape:cy="17.329159"
     inkscape:window-x="-4"
     inkscape:window-y="-4"
     inkscape:window-maximized="1"
     inkscape:current-layer="layer15">
    <inkscape:grid
       type="xygrid"
       id="grid7776" />
  </sodipodi:namedview>
  <g
     inkscape:groupmode="layer"
     id="layer15"
     inkscape:label="vector"
     style="display:inline">
    <g
       id="g4057">
      <g
         id="g4030">
        <g
           id="g4004">
          <g
             id="g3979">
            <g
               id="g3955">
              <g
                 id="g3932">
                <path
                   style="fill:#c0c0c0;fill-opacity:1;stroke:none"
                   d="m 26.765544,25.409329 c -0.287637,-0.04794 -4.122793,-0.04794 -4.122793,-0.04794 l 0,-7.382674 -4.410428,-4.602186 2.396972,-2.444912 6.088309,6.088309 z"
                   id="path3797-0"
                   inkscape:connector-curvature="0" />
                <path
                   style="fill:#c0c0c0;fill-opacity:1;stroke:none"
                   d="m 5.451919,25.576168 c 0.2876366,-0.04794 4.1227921,-0.04794 4.1227921,-0.04794 l 0,-7.382674 4.4104279,-4.602186 -2.396972,-2.444912 -6.0883086,6.088309 z"
                   id="path3797"
                   inkscape:connector-curvature="0" />
                <path
                   style="fill:#c0c0c0;fill-opacity:1;stroke:none"
                   d="m 18.395568,4.6266307 -4.937763,-0.095879 -0.470983,-3.5306993 6,0 z"
                   id="path3795"
                   inkscape:connector-curvature="0" />
                <path
                   sodipodi:type="star"
                   style="fill:#c0c0c0;fill-opacity:1;stroke:none"
                   id="path3775-7"
                   sodipodi:sides="8"
                   sodipodi:cx="14"
                   sodipodi:cy="6"
                   sodipodi:r1="3.1622777"
                   sodipodi:r2="3.2015622"
                   sodipodi:arg1="-1.2490458"
                   sodipodi:arg2="-0.85634665"
                   inkscape:flatsided="true"
                   inkscape:rounded="0"
                   inkscape:randomized="0"
                   d="M 15,2.9999999 16.828427,4.5857863 17,6.9999999 15.414214,8.8284271 13,9.0000001 11.171573,7.4142137 11,5.0000001 12.585786,3.1715729 z"
                   inkscape:transform-center-x="0.089019471"
                   inkscape:transform-center-y="-0.8777101"
                   transform="matrix(1.6533117,0.12012666,-0.1199547,1.6556819,-6.3220216,-2.7657872)" />
                <path
                   style="fill:#000000;fill-opacity:1;stroke:none"
                   d="m 13.986822,14.000053 -3,-3 1,0 2,2 z"
                   id="path7842"
                   inkscape:connector-curvature="0" />
                <path
                   style="fill:#000000;fill-opacity:1;stroke:none"
                   d="m 17.986822,13.000053 2,-2 1,0 -3,3 z"
                   id="path7844"
                   inkscape:connector-curvature="0" />
                <path
                   style="fill:#000000;fill-opacity:1;stroke:none"
                   d="m 10.986822,7.0000525 2,-2 1,0 -2,2 z"
                   id="path7846"
                   inkscape:connector-curvature="0" />
                <path
                   style="fill:#000000;fill-opacity:1;stroke:none"
                   d="m 20.986822,7.0000525 -2,-2 -1,0 2,2 z"
                   id="path7848"
                   inkscape:connector-curvature="0" />
                <path
                   style="fill:#000000;fill-opacity:1;stroke:none"
                   d="m 12.986822,5.0000525 0,-4 1,0 0,3 4,0 0,-3 1,0 0,4 z"
                   id="path3773"
                   inkscape:connector-curvature="0" />
                <path
                   sodipodi:type="star"
                   style="fill:#9f9f9f;fill-opacity:1;stroke:none"
                   id="path3775"
                   sodipodi:sides="8"
                   sodipodi:cx="14"
                   sodipodi:cy="6"
                   sodipodi:r1="3.1622777"
                   sodipodi:r2="3.2015622"
                   sodipodi:arg1="-1.2490458"
                   sodipodi:arg2="-0.85634665"
                   inkscape:flatsided="true"
                   inkscape:rounded="0"
                   inkscape:randomized="0"
                   d="M 15,2.9999999 16.828427,4.5857863 17,6.9999999 15.414214,8.8284271 13,9.0000001 11.171573,7.4142137 11,5.0000001 12.585786,3.1715729 z"
                   inkscape:transform-center-x="0.054961791"
                   inkscape:transform-center-y="-0.54191679"
                   transform="matrix(1.0207897,0.07416874,-0.07406257,1.0222531,2.1452892,1.8319128)" />
                <rect
                   style="fill:#808080;fill-opacity:1;stroke:none"
                   id="rect3817"
                   width="1"
                   height="4"
                   x="7.9868226"
                   y="21.000053" />
                <rect
                   style="fill:#808080;fill-opacity:1;stroke:none"
                   id="rect3817-4"
                   width="1"
                   height="4"
                   x="22.986822"
                   y="21.000053" />
                <path
                   style="fill:#000000;fill-opacity:1;stroke:none"
                   d="m 5,26 0,-9 1,0 0,8 3,0 0,-7 1,0 0,8 z"
                   id="path7787"
                   inkscape:connector-curvature="0" />
                <path
                   style="fill:#000000;fill-opacity:1;stroke:none"
                   d="m 5,17 6,-6 1,0 -6,6 z"
                   id="path7789"
                   inkscape:connector-curvature="0" />
                <path
                   style="fill:#000000;fill-opacity:1;stroke:none"
                   d="m 9,18 5,-5 1,0 -5,5 z"
                   id="path7791"
                   inkscape:connector-curvature="0" />
                <path
                   style="fill:#000000;fill-opacity:1;stroke:none"
                   d="m 27,26 0,-9 -1,0 0,8 -3,0 0,-7 -1,0 0,8 z"
                   id="path7787-2"
                   inkscape:connector-curvature="0" />
                <path
                   style="fill:#000000;fill-opacity:1;stroke:none"
                   d="m 27,17 -6,-6 -1,0 6,6 z"
                   id="path7789-6"
                   inkscape:connector-curvature="0" />
                <path
                   style="fill:#000000;fill-opacity:1;stroke:none"
                   d="m 23,18 -5,-5 -1,0 5,5 z"
                   id="path7791-8"
                   inkscape:connector-curvature="0" />
                <path
                   style="fill:#000000;fill-opacity:1;stroke:none"
                   d="m 14,13 0,1 4,0 0,-1 z"
                   id="path7825"
                   inkscape:connector-curvature="0" />
                <path
                   style="fill:#000000;fill-opacity:1;stroke:none"
                   d="m 12,11 -1,0 0,-4 1,0 z"
                   id="path7838"
                   inkscape:connector-curvature="0" />
                <path
                   style="fill:#000000;fill-opacity:1;stroke:none"
                   d="m 20,11 1,0 0,-4 -1,0 z"
                   id="path7840"
                   inkscape:connector-curvature="0" />
              </g>
            </g>
          </g>
        </g>
      </g>
    </g>
  </g>
</svg>
