<?xml version="1.0" encoding="UTF-8" standalone="no"?>
<!-- Created with Inkscape (http://www.inkscape.org/) -->

<svg
   xmlns:dc="http://purl.org/dc/elements/1.1/"
   xmlns:cc="http://creativecommons.org/ns#"
   xmlns:rdf="http://www.w3.org/1999/02/22-rdf-syntax-ns#"
   xmlns:svg="http://www.w3.org/2000/svg"
   xmlns="http://www.w3.org/2000/svg"
   xmlns:xlink="http://www.w3.org/1999/xlink"
   xmlns:sodipodi="http://sodipodi.sourceforge.net/DTD/sodipodi-0.dtd"
   xmlns:inkscape="http://www.inkscape.org/namespaces/inkscape"
   width="32"
   height="32"
   id="svg6384"
   version="1.1"
   inkscape:version="0.48.4 r9939"
   sodipodi:docname="button1-12.svg">
  <defs
     id="defs6386">
    <linearGradient
       id="linearGradient6922">
      <stop
         style="stop-color:#fff600;stop-opacity:1;"
         offset="0"
         id="stop6924" />
      <stop
         style="stop-color:#ff5000;stop-opacity:1;"
         offset="1"
         id="stop6926" />
    </linearGradient>
    <linearGradient
       id="linearGradient6914">
      <stop
         style="stop-color:#0000ff;stop-opacity:1;"
         offset="0"
         id="stop6916" />
      <stop
         style="stop-color:#0000ff;stop-opacity:0;"
         offset="1"
         id="stop6918" />
    </linearGradient>
    <radialGradient
       inkscape:collect="always"
       xlink:href="#linearGradient6922"
       id="radialGradient6936"
       cx="16.367317"
       cy="16.228981"
       fx="16.367317"
       fy="16.228981"
       r="14.780574"
       gradientTransform="matrix(1.2142248,-0.02195373,0.02232482,1.2347492,-3.8685949,-3.4504166)"
       gradientUnits="userSpaceOnUse" />
  </defs>
  <sodipodi:namedview
     id="base"
     pagecolor="#ffffff"
     bordercolor="#666666"
     borderopacity="1.0"
     inkscape:pageopacity="0.0"
     inkscape:pageshadow="2"
     inkscape:zoom="1"
     inkscape:cx="15.152795"
     inkscape:cy="19.552472"
     inkscape:document-units="px"
     inkscape:current-layer="layer7"
     showgrid="false"
     fit-margin-top="0"
     fit-margin-left="0"
     fit-margin-right="0"
     fit-margin-bottom="0"
     inkscape:window-width="1280"
     inkscape:window-height="977"
     inkscape:window-x="-4"
     inkscape:window-y="-4"
     inkscape:window-maximized="1" />
  <metadata
     id="metadata6389">
    <rdf:RDF>
      <cc:Work
         rdf:about="">
        <dc:format>image/svg+xml</dc:format>
        <dc:type
           rdf:resource="http://purl.org/dc/dcmitype/StillImage" />
        <dc:title />
      </cc:Work>
    </rdf:RDF>
  </metadata>
  <g
     inkscape:groupmode="layer"
     id="layer7"
     inkscape:label="Vector"
     style="display:inline">
    <path
       style="fill:url(#radialGradient6936);fill-opacity:1;stroke:none"
       d="M 14.584077,9.0821641 C 14.598009,9.0403695 11.277681,4.785548 9.7227183,1.9479617 7.8707315,-1.4316515 7.4488882,12.525359 7.7655477,11.796949 c 0,0 -2.2998693,1.877216 -4.1668792,-2.0834396 -1.4376907,-3.049902 -1.8390035,8.5783816 4.5456864,6.8185296 6.8347611,-1.883908 -4.9015152,2.27526 -6.3134534,3.219861 -1.69866193,1.136422 0.8060734,1.778078 7.8286822,0.757615 5.2493843,-0.762794 -6.5447968,5.520161 -2.841054,7.071068 3.0980255,1.297268 5.9084553,-5.244603 7.7024133,-3.851207 1.381658,1.073156 -0.606638,8.009894 2.335978,7.007933 1.566991,-0.533561 2.056483,-4.68355 3.535534,-6.439722 2.107223,-2.502042 0.181768,2.40044 6.69226,3.219861 5.092877,0.640998 -2.15409,-3.74222 -2.65165,-6.250319 -0.104966,-0.52911 5.366435,1.010153 6.565991,-1.325825 1.199556,-2.335978 -5.240166,-2.209709 -5.42957,-3.282996 -0.189403,-1.073287 5.366436,-3.914341 4.482552,-5.240166 -0.883883,-1.325825 -7.639278,-0.378807 -9.407045,1.073287 -1.767767,1.452094 1.605534,-6.1291532 0.631345,-6.9447988 -2.432519,-2.0366407 -5.398339,5.8537148 -6.692261,3.5355339 z"
       id="path6912"
       inkscape:connector-curvature="0"
       sodipodi:nodetypes="cscsssssssssssssssc" />
  </g>
</svg>
