<?xml version="1.0" encoding="UTF-8" standalone="no"?>
<!-- Created with Inkscape (http://www.inkscape.org/) -->

<svg
   xmlns:dc="http://purl.org/dc/elements/1.1/"
   xmlns:cc="http://creativecommons.org/ns#"
   xmlns:rdf="http://www.w3.org/1999/02/22-rdf-syntax-ns#"
   xmlns:svg="http://www.w3.org/2000/svg"
   xmlns="http://www.w3.org/2000/svg"
   xmlns:sodipodi="http://sodipodi.sourceforge.net/DTD/sodipodi-0.dtd"
   xmlns:inkscape="http://www.inkscape.org/namespaces/inkscape"
   id="svg4679"
   version="1.1"
   inkscape:version="0.48.4 r9939"
   width="32"
   height="32"
   sodipodi:docname="button1-63.svg"
   inkscape:export-filename="C:\Documents and Settings\Administrator\Pulpit\button1-63.png"
   inkscape:export-xdpi="360"
   inkscape:export-ydpi="360">
  <metadata
     id="metadata4685">
    <rdf:RDF>
      <cc:Work
         rdf:about="">
        <dc:format>image/svg+xml</dc:format>
        <dc:type
           rdf:resource="http://purl.org/dc/dcmitype/StillImage" />
        <dc:title></dc:title>
      </cc:Work>
    </rdf:RDF>
  </metadata>
  <defs
     id="defs4683" />
  <sodipodi:namedview
     pagecolor="#ffffff"
     bordercolor="#666666"
     borderopacity="1"
     objecttolerance="10"
     gridtolerance="10"
     guidetolerance="10"
     inkscape:pageopacity="0"
     inkscape:pageshadow="2"
     inkscape:window-width="1280"
     inkscape:window-height="977"
     id="namedview4681"
     showgrid="false"
     inkscape:snap-bbox="true"
     inkscape:zoom="1"
     inkscape:cx="9.7271139"
     inkscape:cy="12.117047"
     inkscape:window-x="-4"
     inkscape:window-y="-4"
     inkscape:window-maximized="1"
     inkscape:current-layer="layer1"
     showguides="true"
     inkscape:guide-bbox="true">
    <inkscape:grid
       type="xygrid"
       id="grid5211" />
  </sodipodi:namedview>
  <g
     inkscape:groupmode="layer"
     id="layer9"
     inkscape:label="vector_old"
     style="display:none"
     sodipodi:insensitive="true">
    <rect
       style="fill:#f2f2f2;fill-opacity:1;stroke:none"
       id="rect2995"
       width="32"
       height="32"
       x="0"
       y="0"
       ry="1.3877788e-016" />
    <g
       style="font-size:20px;font-style:normal;font-weight:normal;line-height:125%;letter-spacing:0px;word-spacing:0px;fill:#000000;fill-opacity:1;stroke:none;font-family:Sans;-inkscape-font-specification:Sans"
       id="text5245"
       transform="matrix(0.74988757,-0.50319469,0,0.91216321,-0.67308456,22.696331)">
      <path
         d="m 5.4408102,3.7393732 1.7871094,-0.15625 c 0.084633,0.7161499 0.2815725,1.3037144 0.5908203,1.7626953 0.3092412,0.4589869 0.7893839,0.8300803 1.4404297,1.1132813 0.6510363,0.2832047 1.3834574,0.4248061 2.1972654,0.4248047 0.722649,1.4e-6 1.360669,-0.1074204 1.914063,-0.3222657 0.553376,-0.2148417 0.965159,-0.5094378 1.235351,-0.883789 0.270172,-0.374346 0.405263,-0.7828742 0.405274,-1.225586 C 15.011112,4.0030494 14.880904,3.6107972 14.620498,3.275506 14.360071,2.940225 13.930384,2.6586497 13.331435,2.4307795 12.947312,2.2810459 12.097704,2.0482988 10.782607,1.7325373 9.467498,1.416789 8.5462749,1.1189377 8.0189352,0.83898258 7.3353387,0.48091752 6.8258991,0.03658203 6.4906149,-0.49402523 6.1553268,-1.0246148 5.9876838,-1.6186898 5.9876852,-2.2762518 c -1.4e-6,-0.7226449 0.2050765,-1.3981 0.6152344,-2.0263672 0.4101538,-0.6282419 1.0091115,-1.1051295 1.796875,-1.430664 0.7877558,-0.3255065 1.6634064,-0.4882667 2.6269534,-0.4882813 1.06119,1.46e-5 1.997062,0.1709128 2.807617,0.5126953 0.810537,0.3418106 1.433908,0.8447398 1.870117,1.5087891 0.436186,0.6640744 0.670561,1.4160267 0.703125,2.2558594 l -1.816406,0.1367187 c -0.09767,-0.9049369 -0.42807,-1.5885299 -0.991211,-2.0507812 -0.56316,-0.462227 -1.394865,-0.6933465 -2.495117,-0.6933594 -1.145839,1.29e-5 -1.9807991,0.2099736 -2.5048831,0.6298828 -0.5240921,0.4199337 -0.7861361,0.9261181 -0.7861328,1.5185547 -3.3e-6,0.5143331 0.1855434,0.9375098 0.5566406,1.2695312 0.3645791,0.33204042 1.3167266,0.67220935 2.8564453,1.02050784 1.539705,0.3483154 2.596019,0.65267707 3.168945,0.91308594 0.833323,0.38412172 1.448557,0.87077492 1.845703,1.45996092 0.397124,0.5891982 0.595691,1.2679085 0.595704,2.0361328 -1.3e-5,0.7617221 -0.218111,1.4794948 -0.654297,2.1533203 C 15.746789,7.1231635 15.120162,7.6472515 14.303115,8.0215998 13.486049,8.3959487 12.566453,8.583123 11.544326,8.5831232 10.248747,8.583123 9.1631363,8.3943211 8.2874899,8.016717 7.411836,7.6391135 6.7249877,7.0710802 6.226943,6.3126154 5.728895,5.5541546 5.4668509,4.6964081 5.4408102,3.7393732 z"
         id="path5250"
         inkscape:connector-curvature="0" />
      <path
         d="m 25.987685,7.0596857 c -0.651049,0.5533861 -1.277676,0.9440108 -1.879883,1.171875 -0.602219,0.2278645 -1.248377,0.3417966 -1.938476,0.3417969 -1.139326,-3e-7 -2.014976,-0.2783203 -2.626953,-0.834961 -0.61198,-0.5566394 -0.91797,-1.2679017 -0.917969,-2.133789 -10e-7,-0.5078093 0.115559,-0.971676 0.34668,-1.3916016 0.231118,-0.4199173 0.533852,-0.756831 0.908203,-1.0107422 0.374346,-0.2539008 0.795895,-0.4459579 1.264648,-0.5761718 0.345049,-0.09114 0.865882,-0.1790306 1.5625,-0.2636719 1.419265,-0.1692647 2.464186,-0.3710874 3.134766,-0.6054688 0.0065,-0.2408786 0.0098,-0.3938732 0.0098,-0.4589843 -7e-6,-0.71613812 -0.166023,-1.22069491 -0.498046,-1.51367192 -0.449226,-0.39712646 -1.116543,-0.59569397 -2.001954,-0.59570312 -0.826827,9.15e-6 -1.437178,0.14486577 -1.831054,0.43457031 -0.393884,0.28972197 -0.685225,0.80241677 -0.874024,1.53808593 l -1.71875,-0.23437499 c 0.156249,-0.73566894 0.41341,-1.32974387 0.771485,-1.78222657 0.35807,-0.45246434 0.875648,-0.80077124 1.552734,-1.04492184 0.677079,-0.2441302 1.461584,-0.3662004 2.353516,-0.366211 0.88541,1.06e-5 1.60481,0.1041772 2.158203,0.3125 0.553377,0.2083435 0.960277,0.4703875 1.220703,0.7861328 0.260407,0.31576444 0.442699,0.71452707 0.546875,1.19628911 0.05858,0.29948717 0.08788,0.83985122 0.08789,1.62109379 l 0,2.34375 c -10e-6,1.6341173 0.03742,2.6676449 0.112304,3.1005859 0.07486,0.4329435 0.222972,0.8479822 0.444336,1.2451172 l -1.835937,0 C 26.156948,7.9743996 26.03976,7.5479677 25.987685,7.0596857 z M 25.841201,3.1339045 C 25.203173,3.3943261 24.246142,3.61568 22.970107,3.797967 c -0.722661,0.1041711 -1.233728,0.2213584 -1.533203,0.3515625 -0.299482,0.1302123 -0.530602,0.3206418 -0.693359,0.571289 -0.162764,0.2506544 -0.244144,0.5289745 -0.244141,0.834961 -3e-6,0.4687523 0.177406,0.8593769 0.532227,1.171875 0.354814,0.3125013 0.874019,0.4687511 1.557617,0.46875 0.677078,1.1e-6 1.279291,-0.1481107 1.80664,-0.444336 0.527337,-0.2962221 0.914706,-0.7014951 1.16211,-1.2158203 0.188794,-0.3971322 0.283195,-0.9830691 0.283203,-1.7578125 z"
         id="path5252"
         inkscape:connector-curvature="0" />
      <path
         d="m 34.19081,6.766717 0.253906,1.5527343 C 33.94992,8.4236179 33.507212,8.4757012 33.116591,8.4757013 32.478567,8.4757012 31.983776,8.3747898 31.632216,8.172967 31.280652,7.9711444 31.033256,7.7058452 30.890029,7.3770685 30.746798,7.0482938 30.675184,6.3565627 30.675185,5.3018732 l 0,-5.96679687 -1.289062,0 0,-1.36718753 1.289062,0 0,-2.5683593 1.748047,-1.0546875 0,3.6230468 1.767578,0 0,1.36718753 -1.767578,0 0,6.06445317 c -3e-6,0.5013045 0.03092,0.8235698 0.09277,0.9667968 0.06185,0.143231 0.162756,0.2571632 0.302734,0.3417969 0.13997,0.084637 0.340165,0.1269546 0.600586,0.1269531 0.195308,1.5e-6 0.452469,-0.022785 0.771484,-0.068359 z"
         id="path5254"
         inkscape:connector-curvature="0" />
    </g>
    <path
       sodipodi:type="arc"
       style="fill:#f2f2f2;fill-opacity:1;stroke:none"
       id="path5298"
       sodipodi:cx="12"
       sodipodi:cy="22.677965"
       sodipodi:rx="3.8644068"
       sodipodi:ry="7.5593219"
       d="m 15.864407,22.677965 a 3.8644068,7.5593219 0 1 1 -7.7288138,0 3.8644068,7.5593219 0 1 1 7.7288138,0 z"
       transform="matrix(1.0526316,0,0,1,-0.42818911,0)" />
    <path
       style="font-size:17.06163979px;font-style:normal;font-weight:normal;line-height:125%;letter-spacing:0px;word-spacing:0px;fill:#000000;fill-opacity:1;stroke:none;font-family:Sans;-inkscape-font-specification:Sans"
       inkscape:connector-curvature="0"
       id="path5239"
       d="m 14.386119,24.377968 0.948192,0.420184 c -0.198769,1.366318 -0.556377,2.408203 -1.072825,3.12566 -0.51646,0.717458 -1.147773,1.076187 -1.89394,1.076187 -0.772241,0 -1.400295,-0.275835 -1.884164,-0.827506 -0.4838721,-0.55167 -0.8520697,-1.350592 -1.1045939,-2.396768 -0.252526,-1.04617 -0.3787884,-2.16952 -0.3787878,-3.370053 -6e-7,-1.309139 0.142554,-2.451068 0.4276637,-3.425791 0.2851075,-0.974703 0.690777,-1.715028 1.217008,-2.220976 C 11.1709,16.252981 11.750078,16.000012 12.382209,16 c 0.716841,1.2e-5 1.319643,0.320152 1.808407,0.960422 0.488752,0.640292 0.829253,1.540688 1.021505,2.701187 l -0.933528,0.385884 c -0.166184,-0.914678 -0.407305,-1.580684 -0.723363,-1.998021 -0.316069,-0.417315 -0.713592,-0.625978 -1.192571,-0.625989 -0.550672,1.1e-5 -1.010919,0.231541 -1.380743,0.694591 -0.369829,0.46307 -0.629686,1.084771 -0.77957,1.865105 -0.149887,0.780351 -0.2248303,1.58499 -0.2248291,2.413918 -1.2e-6,1.069047 0.08879,2.002313 0.2663731,2.799802 0.177581,0.797496 0.453729,1.393472 0.828446,1.787929 0.374712,0.39446 0.780381,0.59169 1.217009,0.591689 0.531114,1e-6 0.980771,-0.268688 1.348974,-0.806069 0.368192,-0.537377 0.617459,-1.334869 0.7478,-2.39248 z" />
    <path
       style="font-size:17.06163979px;font-style:normal;font-weight:normal;line-height:125%;letter-spacing:0px;word-spacing:0px;fill:#000000;fill-opacity:1;stroke:none;font-family:Sans;-inkscape-font-specification:Sans"
       inkscape:connector-curvature="0"
       id="path5241"
       d="m 16.067448,24.232189 c 0,-1.686449 0.267188,-2.935568 0.801564,-3.747361 0.446399,-0.674573 0.990549,-1.011864 1.632454,-1.011873 0.713584,9e-6 1.296835,0.410189 1.749756,1.230541 0.452911,0.820368 0.679369,1.953722 0.679374,3.400065 -5e-6,1.171948 -0.1002,2.093781 -0.300586,2.765502 -0.200396,0.671725 -0.492022,1.193382 -0.874878,1.564973 -0.382865,0.371592 -0.800753,0.557388 -1.253666,0.557388 -0.726623,0 -1.313947,-0.408751 -1.761974,-1.226253 -0.44803,-0.8175 -0.672044,-1.99516 -0.672044,-3.532982 z m 0.904204,0 c -10e-7,1.166231 0.144997,2.039471 0.434995,2.619723 0.289995,0.580257 0.654934,0.870384 1.094819,0.870383 0.436621,1e-6 0.799931,-0.291555 1.089932,-0.87467 0.289992,-0.583111 0.434991,-1.472072 0.434995,-2.666887 -4e-6,-1.126203 -0.145817,-1.979435 -0.437439,-2.559696 -0.29163,-0.580247 -0.654125,-0.870374 -1.087488,-0.870383 -0.439885,9e-6 -0.804824,0.288706 -1.094819,0.866095 -0.289998,0.577403 -0.434996,1.449214 -0.434995,2.615435 z" />
    <path
       style="font-size:17.06163979px;font-style:normal;font-weight:normal;line-height:125%;letter-spacing:0px;word-spacing:0px;fill:#000000;fill-opacity:1;stroke:none;font-family:Sans;-inkscape-font-specification:Sans"
       inkscape:connector-curvature="0"
       id="path5243"
       d="m 21.966764,28.785619 0,-9.106859 0.786902,0 0,1.277704 c 0.162917,-0.445902 0.3796,-0.804631 0.650048,-1.076187 0.270444,-0.271539 0.578362,-0.407313 0.923754,-0.407322 0.384487,9e-6 0.699736,0.140071 0.945748,0.420185 0.246004,0.280131 0.419513,0.671731 0.520528,1.174801 0.410552,-1.063315 0.944927,-1.594977 1.603128,-1.594986 0.514819,9e-6 0.910713,0.250119 1.187683,0.75033 C 28.861511,20.723512 28.999992,21.49385 29,22.5343 l 0,6.251319 -0.874878,0 0,-5.736807 c -7e-6,-0.617408 -0.02852,-1.061888 -0.08553,-1.333443 -0.05703,-0.271541 -0.160482,-0.490208 -0.310361,-0.656003 -0.149893,-0.165779 -0.325846,-0.248672 -0.52786,-0.24868 -0.364945,8e-6 -0.667975,0.212958 -0.909091,0.638852 -0.241125,0.425908 -0.361686,1.107636 -0.361681,2.045185 l 0,5.290896 -0.879765,0 0,-5.916886 c -4e-6,-0.686009 -0.07169,-1.20052 -0.215054,-1.543536 -0.143373,-0.343 -0.377976,-0.514503 -0.703812,-0.514511 -0.247641,8e-6 -0.476542,0.114344 -0.686706,0.343007 -0.210168,0.22868 -0.362498,0.563112 -0.456989,1.003299 -0.09449,0.440199 -0.141742,1.074763 -0.14174,1.903694 l 0,4.724933 z" />
  </g>
  <g
     inkscape:groupmode="layer"
     id="layer2"
     inkscape:label="vector_hide"
     style="display:none"
     sodipodi:insensitive="true">
    <path
       style="fill:#1f1a17;fill-opacity:1;stroke:none;display:inline"
       d="M 3.4552449,24.152761 C 5.0195679,24.397623 9.1780075,22.856491 9.9048518,18.15596 11.268122,9.3396317 7.5196499,14.75707 7.2159804,12.564368 7.0084454,11.065823 8.5211587,10.650754 10.35886,10.935419 L 10.003721,7.7251667 c -2.8642477,-0.00855 -6.6965807,0.8148949 -6.3722363,8.0388013 0.2690582,5.992553 3.5221767,-0.161502 3.336223,3.429723 -0.074682,1.442298 -3.0283863,0.971666 -3.0283863,0.971666 z"
       id="path3918-8"
       inkscape:connector-curvature="0"
       sodipodi:nodetypes="cssccsscc" />
    <path
       style="fill:#1f1a17;fill-opacity:1;stroke:none;display:inline"
       d="m 19.016031,15.992552 c -0.09461,-0.03154 -2.363853,1.973654 -4.039262,2.145191 -2.178631,0.22306 -3.310095,-0.491753 -3.187832,-3.882003 0.173852,-4.8207526 3.394161,-5.4576577 4.647951,-5.5301343 0.04699,-0.00272 -0.01079,-0.1495868 0.03573,-0.1514634 l 2.543415,-1.4600484 z"
       id="path3920-2"
       inkscape:connector-curvature="0"
       sodipodi:nodetypes="csssccc" />
    <path
       style="fill:#ffffff;fill-opacity:1;stroke:none;display:inline"
       d="m 7.7963395,24.108931 7.6312355,-3.618847 c 0,0 0.99112,-5.725523 -3.971358,-5.491913 -3.9738207,0.187069 -3.6598775,2.95905 -3.6598775,2.95905 z"
       id="path3804-45"
       inkscape:connector-curvature="0"
       sodipodi:nodetypes="ccscc" />
    <path
       style="fill:#ffffff;fill-opacity:1;stroke:none;display:inline"
       d="m 7.7561425,24.042163 7.6312345,-3.618847 c 0,0 0.99112,-5.725523 -3.971358,-5.491913 -3.9738205,0.187069 -3.6598765,2.95905 -3.6598765,2.95905 z"
       id="path3804-4-5"
       inkscape:connector-curvature="0"
       sodipodi:nodetypes="ccscc" />
    <path
       style="fill:#000000;fill-opacity:1;stroke:none;display:inline"
       d="m 12.079175,25.046526 0,1.814577 c -0.01239,0.06035 -0.631756,0.788744 -1.091675,0.103002 l -1e-6,-9.060555 c -0.0021,0.145794 0.49606,-0.730922 1.091676,0.04794 l 0,1.937985 1.976449,0.02753 0,-2.013456 c 0,0 -0.143819,-2.013457 -2.349033,-1.965518 0,0 -2.6846085,-0.239697 -2.6846085,2.013457 l 0,8.772918 c 0,0 -0.2396973,2.157275 2.5407905,2.109335 0,0 2.492851,0.143819 2.492851,-1.965517 l -10e-7,-1.821698 z"
       id="path3800-1"
       inkscape:connector-curvature="0"
       sodipodi:nodetypes="cccccccccsccccc" />
    <path
       style="fill:#ffffff;fill-opacity:1;stroke:none;display:inline"
       d="m 17.509361,27.291473 c 0,0 -0.519473,0.01154 -0.499997,-0.915249 0.03907,-1.858921 0,-4.801836 0,-4.801836 0,0 0.02202,-0.698033 0.511009,-0.698033 0.48899,0 0.48899,0.698033 0.48899,0.698033 l 0,4.801836 c 0,0 -5e-6,0.915249 -0.500002,0.915249 z"
       id="path3888-4-7"
       inkscape:connector-curvature="0"
       sodipodi:nodetypes="cscsccc" />
    <path
       style="fill:#ffffff;fill-opacity:1;stroke:none;display:inline"
       d="m 16.241691,14.65125 c -0.0233,-0.0086 -0.520644,0.634421 -0.925653,0.710515 -0.526656,0.09895 -0.929356,-0.115343 -0.814574,-1.169758 0.129984,-1.194064 0.645796,-1.500833 1.716253,-1.895453 0.0374,1.294477 -0.02096,1.192239 0.02397,2.354696 z"
       id="path3920-0-1"
       inkscape:connector-curvature="0"
       sodipodi:nodetypes="csscc" />
  </g>
  <g
     inkscape:groupmode="layer"
     id="layer1"
     inkscape:label="vector"
     style="display:inline">
    <path
       style="fill:#1f1a17;fill-opacity:1;stroke:none"
       d="M 10.368644,7.6885593 C 7.5043959,7.6800093 3.3006556,8.5573441 3.625,15.78125 c 0.2690582,5.992553 3.5297037,-0.153725 3.34375,3.4375 -0.074682,1.442298 -3.5227754,1.153072 -3.5227754,1.153072 L 3.4375,24.1875 c 0.9440281,0.147768 2.8345595,-0.357581 4.34375,-1.8125 l 0,-4.40625 c 0,0 -0.2257542,-2.102385 2.40625,-2.75 0.05599,-4.415913 -2.7089293,-0.748917 -2.96875,-2.625 -0.207535,-1.498545 1.2872985,-1.909665 3.125,-1.625 z"
       id="path3918"
       inkscape:connector-curvature="0"
       sodipodi:nodetypes="csscccccscc" />
    <path
       style="fill:#1f1a17;fill-opacity:1;stroke:none"
       d="M 19,7.125 16.46875,8.59375 C 16.42223,8.59563 16.48449,8.74728 16.4375,8.75 c -1.25379,0.072477 -4.482398,0.7104979 -4.65625,5.53125 -0.0091,0.251978 -0.0047,0.464367 0,0.6875 2.464711,0.04096 3.305472,1.651157 3.5625,3.125 C 16.965461,17.710337 18.912118,16.001953 19,16.03125 L 19,7.125 z m -2.78125,5.1875 c 0.0374,1.294477 -0.04493,1.212543 0,2.375 -0.0233,-0.0086 -0.501241,0.611406 -0.90625,0.6875 -0.526656,0.09895 -0.927282,-0.101835 -0.8125,-1.15625 0.129984,-1.194064 0.648293,-1.51163 1.71875,-1.90625 z"
       id="path3920"
       inkscape:connector-curvature="0" />
    <path
       style="fill:#000000;fill-opacity:1;stroke:none"
       d="m 12.069811,25.07275 0,1.814577 c -0.01239,0.06035 -0.631756,0.788744 -1.091675,0.103002 l -10e-7,-9.060555 c -0.0021,0.145794 0.49606,-0.730922 1.091676,0.04794 l 0,1.937985 1.976449,0.02753 0,-2.013456 c 0,0 -0.143819,-2.013457 -2.349033,-1.965518 0,0 -2.6846087,-0.239697 -2.6846087,2.013457 l 0,8.772918 c 0,0 -0.2396973,2.157275 2.5407907,2.109335 0,0 2.492851,0.143819 2.492851,-1.965517 l -1e-6,-1.821698 z"
       id="path3800"
       inkscape:connector-curvature="0"
       sodipodi:nodetypes="cccccccccsccccc" />
    <g
       id="g3882"
       transform="translate(33.094644,-0.1557395)">
      <path
         sodipodi:nodetypes="ccccc"
         inkscape:connector-curvature="0"
         id="path3878"
         d="m -13.004248,5.9915035 4.8279242,-2.8811808 0,3.8934875 -4.8279242,3.1926598 z"
         style="fill:#1f1a17;fill-opacity:1;stroke:none" />
      <path
         inkscape:connector-curvature="0"
         id="path3880"
         d="M -11.914072,15.024394 -8.9550213,12.844041 -9.0328913,0.15127221 -12.069811,2.2537555 z"
         style="fill:#1f1a17;fill-opacity:1;stroke:none" />
    </g>
    <path
       style="fill:#000000;fill-opacity:1;stroke:none"
       d="M 17.5625,19 C 15.117545,19 15,21 15,21 l 0,6 c 0,2.323276 2.5,2 2.5,2 2.499982,0 2.5,-2 2.5,-2 l 0,-6 c 0,0 0.0075,-2 -2.4375,-2 z M 17.5,20.90625 c 0.488991,0 0.5,0.6875 0.5,0.6875 l 0,4.8125 c 0,0 -2e-6,0.90625 -0.5,0.90625 0,0 -0.519476,0.02054 -0.5,-0.90625 0.03907,-1.858921 0,-4.8125 0,-4.8125 0,0 0.01101,-0.6875 0.5,-0.6875 z"
       id="path3888"
       inkscape:connector-curvature="0" />
    <path
       style="fill:#000000;fill-opacity:1;stroke:none"
       d="m 23,29 -2,0 0,-9 -0.02247,-0.885983 2.009294,-3.37e-4 c 0,0 -0.0072,0.703171 0.01317,0.88632 l 0,0 L 24,20 24,19.595733 26,19.578182 26,20 l 1,0 0,-0.388728 2,0.0026 L 29,20 l 0,9 -2,0 0,-8 -1,0 0,8 -2,0 0,-8 -1,0 z"
       id="path3908"
       inkscape:connector-curvature="0"
       sodipodi:nodetypes="cccccccccccccccccccccccc" />
    <path
       style="fill:none;stroke:none"
       d="M -23,8.2456316 -23,11 l -3,1 0,2 3,0 0,7 -3,3 -3,0 0,-4 3,0 0,-2 -3,0 0,-6 4,-4 2,0 z"
       id="path3912"
       inkscape:connector-curvature="0" />
  </g>
</svg>
