<?xml version="1.0" encoding="UTF-8" standalone="no"?>
<!-- Created with Inkscape (http://www.inkscape.org/) -->

<svg
   xmlns:dc="http://purl.org/dc/elements/1.1/"
   xmlns:cc="http://creativecommons.org/ns#"
   xmlns:rdf="http://www.w3.org/1999/02/22-rdf-syntax-ns#"
   xmlns:svg="http://www.w3.org/2000/svg"
   xmlns="http://www.w3.org/2000/svg"
   xmlns:xlink="http://www.w3.org/1999/xlink"
   xmlns:sodipodi="http://sodipodi.sourceforge.net/DTD/sodipodi-0.dtd"
   xmlns:inkscape="http://www.inkscape.org/namespaces/inkscape"
   width="32"
   height="32"
   id="svg3787"
   version="1.1"
   inkscape:version="0.48.4 r9939"
   sodipodi:docname="button1-20.svg">
  <sodipodi:namedview
     id="base"
     pagecolor="#ffffff"
     bordercolor="#666666"
     borderopacity="1.0"
     inkscape:pageopacity="0.0"
     inkscape:pageshadow="2"
     inkscape:zoom="1"
     inkscape:cx="10.1875"
     inkscape:cy="15.563133"
     inkscape:document-units="px"
     inkscape:current-layer="layer2"
     showgrid="false"
     fit-margin-top="0"
     fit-margin-left="0"
     fit-margin-right="0"
     fit-margin-bottom="0"
     inkscape:window-width="1280"
     inkscape:window-height="977"
     inkscape:window-x="-4"
     inkscape:window-y="-4"
     inkscape:window-maximized="1"
     showguides="true"
     inkscape:guide-bbox="true"
     inkscape:snap-object-midpoints="false"
     inkscape:snap-grids="true"
     inkscape:snap-bbox="false"
     inkscape:bbox-nodes="true"
     inkscape:bbox-paths="true"
     inkscape:snap-global="true"
     inkscape:object-nodes="true">
    <inkscape:grid
       snapvisiblegridlinesonly="true"
       enabled="true"
       visible="true"
       empspacing="8"
       id="grid4315"
       type="xygrid" />
  </sodipodi:namedview>
  <defs
     id="defs3789">
    <linearGradient
       id="linearGradient4238">
      <stop
         id="stop4242"
         offset="0"
         style="stop-color:#696a69;stop-opacity:1;" />
      <stop
         id="stop4240"
         offset="1"
         style="stop-color:#383a38;stop-opacity:1;" />
    </linearGradient>
    <inkscape:perspective
       sodipodi:type="inkscape:persp3d"
       inkscape:vp_x="33.599995 : 38.999999 : 1"
       inkscape:vp_y="0 : 1000 : 0"
       inkscape:vp_z="65.599995 : 38.999999 : 1"
       inkscape:persp3d-origin="49.599995 : 33.666666 : 1"
       id="perspective4002" />
    <radialGradient
       inkscape:collect="always"
       xlink:href="#linearGradient4238"
       id="radialGradient4248"
       cx="24.311855"
       cy="5.8560066"
       fx="24.311855"
       fy="5.8560066"
       r="9.5"
       gradientTransform="matrix(2.0232995,-0.28904227,0.10526297,0.73684214,-25.806586,10.712202)"
       gradientUnits="userSpaceOnUse" />
  </defs>
  <metadata
     id="metadata3792">
    <rdf:RDF>
      <cc:Work
         rdf:about="">
        <dc:format>image/svg+xml</dc:format>
        <dc:type
           rdf:resource="http://purl.org/dc/dcmitype/StillImage" />
        <dc:title />
      </cc:Work>
    </rdf:RDF>
  </metadata>
  <g
     inkscape:label="Warstwa"
     id="layer2"
     inkscape:groupmode="layer"
     style="display:inline">
    <path
       style="fill:url(#radialGradient4248);fill-opacity:1;stroke:none"
       d="M 14.25,3.34375 C 13.119278,3.40473 12.007276,3.631037 11,4 9.578261,4.52078 8.257801,6.105946 7.75,7.15625 7.272062,8.211201 7.029872,9.507452 7,11 l 5.15625,0.65625 3,-0.65625 0,-0.03125 0,-0.1875 c 0,-0.573312 0.120014,-1.034036 0.40625,-1.40625 0.331447,0.174388 0.627321,0.424219 0.84375,0.71875 0.700185,0.952859 0.659325,2.28002 -0.53125,3.5 -0.951739,0.951567 -1.588418,1.100857 -2.3125,2.0625 C 12.742188,16.785522 12.265493,18.160965 12,19.53125 11.97019,19.685128 12,20 12,20 l 5,1 3,-1.40625 c -1.8e-5,-1.03458 0.383661,-1.966136 1,-2.75 0.974517,-1.239397 3.078088,-1.477233 4,-2.75 0.760228,-1.04955 0.999975,-2.357307 1,-3.6875 -2.5e-5,-2.153609 -1.396977,-4.667365 -3.4375,-5.875 C 21.427387,3.85946 20.051678,3.512282 18.633627,3.42436 z"
       id="path4226"
       inkscape:connector-curvature="0"
       sodipodi:nodetypes="cscccccscsccccccsscscc" />
    <path
       style="fill:#3a3c3a;fill-opacity:1;stroke:none"
       d="m 15,20.46875 -3,1.5 0,5.03125 5,1 3,-2 0,-4.625 z"
       id="path2999-0"
       inkscape:connector-curvature="0"
       sodipodi:nodetypes="ccccccc" />
    <path
       style="fill:#a6a7a6;fill-opacity:1;stroke:none"
       d="M 11,4 C 9.578261,4.52078 8.2446472,6.109571 7.7368464,7.159875 7.2589081,8.214826 7.0298723,9.507452 7,11 l 5.156076,0.650513 0,-0.04742 0,-0.189672 c 0,-0.808306 0.207145,-1.427945 0.7039,-1.873012 1.391812,-0.855914 2.827021,-0.414809 3.532539,0.545307 0.700185,0.952859 0.659758,2.287444 -0.530817,3.507424 -0.951739,0.951567 -1.573739,1.090697 -2.297821,2.05234 C 12.743565,16.774752 12.265493,18.159496 12,19.529781 11.970186,19.683659 12,20 12,20 l 5,1 c -1.8e-5,-1.128633 0.383661,-2.144876 1,-3 0.974517,-1.35207 3.078088,-1.611527 4,-3 0.760228,-1.144964 0.999975,-2.54888 1,-4 C 22.999975,8.650607 21.603023,5.892657 19.5625,4.575237 17.159259,3.023636 13.68607,3.016098 11,4 z M 12,21.964733 12,27 l 5,1 0,-5.054859 z"
       id="path2999"
       inkscape:connector-curvature="0"
       sodipodi:nodetypes="accccscaccaccaacaaccccc" />
    <path
       style="fill:#5e5f5d;fill-opacity:1;stroke:none"
       d="M 17,22.945141 20,21.375 20,26 l -3,2 0,-5.054859"
       id="path4228"
       inkscape:connector-curvature="0" />
  </g>
</svg>
