<?xml version="1.0" encoding="UTF-8" standalone="no"?>
<!-- Created with Inkscape (http://www.inkscape.org/) -->

<svg
   xmlns:dc="http://purl.org/dc/elements/1.1/"
   xmlns:cc="http://creativecommons.org/ns#"
   xmlns:rdf="http://www.w3.org/1999/02/22-rdf-syntax-ns#"
   xmlns:svg="http://www.w3.org/2000/svg"
   xmlns="http://www.w3.org/2000/svg"
   xmlns:sodipodi="http://sodipodi.sourceforge.net/DTD/sodipodi-0.dtd"
   xmlns:inkscape="http://www.inkscape.org/namespaces/inkscape"
   id="svg4142"
   version="1.1"
   inkscape:version="0.48.4 r9939"
   width="32"
   height="32"
   sodipodi:docname="button1-40.svg"
   inkscape:export-filename="C:\Documents and Settings\Administrator\Pulpit\button1-40.png"
   inkscape:export-xdpi="360"
   inkscape:export-ydpi="360">
  <metadata
     id="metadata4148">
    <rdf:RDF>
      <cc:Work
         rdf:about="">
        <dc:format>image/svg+xml</dc:format>
        <dc:type
           rdf:resource="http://purl.org/dc/dcmitype/StillImage" />
        <dc:title></dc:title>
      </cc:Work>
    </rdf:RDF>
  </metadata>
  <defs
     id="defs4146">
    <filter
       inkscape:collect="always"
       id="filter4918">
      <feGaussianBlur
         inkscape:collect="always"
         stdDeviation="0.48"
         id="feGaussianBlur4920" />
    </filter>
  </defs>
  <sodipodi:namedview
     pagecolor="#ffffff"
     bordercolor="#666666"
     borderopacity="1"
     objecttolerance="10"
     gridtolerance="10"
     guidetolerance="10"
     inkscape:pageopacity="0"
     inkscape:pageshadow="2"
     inkscape:window-width="1280"
     inkscape:window-height="977"
     id="namedview4144"
     showgrid="false"
     inkscape:snap-bbox="true"
     inkscape:zoom="1"
     inkscape:cx="19.922001"
     inkscape:cy="16.805937"
     inkscape:window-x="-4"
     inkscape:window-y="-4"
     inkscape:window-maximized="1"
     inkscape:current-layer="layer6">
    <inkscape:grid
       type="xygrid"
       id="grid4687" />
  </sodipodi:namedview>
  <g
     inkscape:groupmode="layer"
     id="layer6"
     inkscape:label="vector"
     style="display:inline">
    <path
       sodipodi:type="arc"
       style="fill:#000000;fill-opacity:1;stroke:none"
       id="path4690"
       sodipodi:cx="16"
       sodipodi:cy="12"
       sodipodi:rx="8"
       sodipodi:ry="8"
       d="M 24,12 A 8,8 0 1 1 8,12 8,8 0 1 1 24,12 z" />
    <path
       sodipodi:type="arc"
       style="fill:#808080;fill-opacity:1;stroke:none"
       id="path4690-4"
       sodipodi:cx="16"
       sodipodi:cy="12"
       sodipodi:rx="8"
       sodipodi:ry="8"
       d="M 24,12 A 8,8 0 1 1 8,12 8,8 0 1 1 24,12 z"
       transform="matrix(0.875,0,0,0.875,2,1.5)" />
    <path
       sodipodi:type="arc"
       style="fill:#c0c0c0;fill-opacity:1;stroke:none;filter:url(#filter4918)"
       id="path4690-4-8"
       sodipodi:cx="16"
       sodipodi:cy="12"
       sodipodi:rx="8"
       sodipodi:ry="8"
       d="M 24,12 A 8,8 0 1 1 8,12 8,8 0 1 1 24,12 z"
       transform="matrix(0.75,0,0,0.75,4,3)" />
    <path
       style="fill:#ffffff;fill-opacity:1;stroke:none"
       d="m 12.28,9.7208578 c -8.1866667,14.8527612 -4.0933333,7.4263812 0,0 z"
       id="path4728"
       inkscape:connector-curvature="0"
       sodipodi:nodetypes="cc" />
    <path
       style="fill:#000000;fill-opacity:1;stroke:none"
       d="m 16,19 -3,3 0,9 6,0 0,-9 -3,-3 z"
       id="path5002"
       inkscape:connector-curvature="0"
       sodipodi:nodetypes="ccccccc" />
    <rect
       style="fill:#c0c0c0;fill-opacity:1;stroke:none"
       id="rect5004"
       width="3"
       height="8"
       x="14"
       y="23" />
    <rect
       style="fill:#808080;fill-opacity:1;stroke:none"
       id="rect5006"
       width="2"
       height="8"
       x="15"
       y="23" />
    <path
       style="fill:#ffffff;fill-opacity:1;stroke:none"
       d="m 12,14 0,-4 c 0,0 0,-2 2,-2 2,0 4,0 4,0 -3.700187,1.1365082 -4.930048,2.688267 -6,6 z"
       id="path5010"
       inkscape:connector-curvature="0"
       sodipodi:nodetypes="ccscc" />
  </g>
</svg>
