<?xml version="1.0" encoding="UTF-8" standalone="no"?>
<!-- Created with Inkscape (http://www.inkscape.org/) -->

<svg
   xmlns:dc="http://purl.org/dc/elements/1.1/"
   xmlns:cc="http://creativecommons.org/ns#"
   xmlns:rdf="http://www.w3.org/1999/02/22-rdf-syntax-ns#"
   xmlns:svg="http://www.w3.org/2000/svg"
   xmlns="http://www.w3.org/2000/svg"
   xmlns:sodipodi="http://sodipodi.sourceforge.net/DTD/sodipodi-0.dtd"
   xmlns:inkscape="http://www.inkscape.org/namespaces/inkscape"
   width="32"
   height="32"
   id="svg5195"
   version="1.1"
   inkscape:version="0.48.4 r9939"
   sodipodi:docname="button1-10.svg">
  <defs
     id="defs5197" />
  <sodipodi:namedview
     id="base"
     pagecolor="#ffffff"
     bordercolor="#666666"
     borderopacity="1.0"
     inkscape:pageopacity="0.0"
     inkscape:pageshadow="2"
     inkscape:zoom="1"
     inkscape:cx="21.472982"
     inkscape:cy="16.978015"
     inkscape:document-units="px"
     inkscape:current-layer="layer5"
     showgrid="false"
     fit-margin-top="0"
     fit-margin-left="0"
     fit-margin-right="0"
     fit-margin-bottom="0"
     inkscape:window-width="1280"
     inkscape:window-height="977"
     inkscape:window-x="-4"
     inkscape:window-y="-4"
     inkscape:window-maximized="1" />
  <metadata
     id="metadata5200">
    <rdf:RDF>
      <cc:Work
         rdf:about="">
        <dc:format>image/svg+xml</dc:format>
        <dc:type
           rdf:resource="http://purl.org/dc/dcmitype/StillImage" />
        <dc:title />
      </cc:Work>
    </rdf:RDF>
  </metadata>
  <g
     inkscape:groupmode="layer"
     id="layer5"
     inkscape:label="Vector"
     style="display:inline">
    <path
       style="fill:#000000;fill-opacity:1;stroke:none"
       d="m 5,21 0,5 0,1 1,0 5,0 0,-1 -5,0 0,-5 -1,0 z"
       id="rect5723"
       inkscape:connector-curvature="0" />
    <path
       style="fill:#000000;fill-opacity:1;stroke:none;display:inline"
       d="m 10.973214,4.9821431 -4.9999996,0 -1,0 0,1 0,4.9999989 1,0 0,-4.9999989 4.9999996,0 0,-1 z"
       id="rect5723-5"
       inkscape:connector-curvature="0" />
    <path
       style="fill:#000000;fill-opacity:1;stroke:none;display:inline"
       d="m 21.026786,26.946428 5,0 1,0 0,-1 0,-5 -1,0 0,5 -5,0 0,1 z"
       id="rect5723-1"
       inkscape:connector-curvature="0" />
    <path
       style="fill:#000000;fill-opacity:1;stroke:none;display:inline"
       d="m 27.044643,10.964286 0,-4.9999998 0,-1 -1,0 -5,0 0,1 5,0 0,4.9999998 1,0 z"
       id="rect5723-7"
       inkscape:connector-curvature="0" />
    <path
       style="fill:#ff8401;fill-opacity:1;stroke:none"
       d="m 18.971928,23.034896 0,-14.079001 -6.944799,6.944799 z"
       id="path5778"
       inkscape:connector-curvature="0" />
  </g>
</svg>
