<?xml version="1.0" encoding="UTF-8" standalone="no"?>
<!-- Created with Inkscape (http://www.inkscape.org/) -->

<svg
   xmlns:dc="http://purl.org/dc/elements/1.1/"
   xmlns:cc="http://creativecommons.org/ns#"
   xmlns:rdf="http://www.w3.org/1999/02/22-rdf-syntax-ns#"
   xmlns:svg="http://www.w3.org/2000/svg"
   xmlns="http://www.w3.org/2000/svg"
   xmlns:sodipodi="http://sodipodi.sourceforge.net/DTD/sodipodi-0.dtd"
   xmlns:inkscape="http://www.inkscape.org/namespaces/inkscape"
   width="32"
   height="32"
   id="svg3447"
   version="1.1"
   inkscape:version="0.48.4 r9939"
   sodipodi:docname="button3-37.svg">
  <defs
     id="defs3449">
    <mask
       maskUnits="userSpaceOnUse"
       id="mask4325">
      <path
         transform="translate(24.5,-0.5)"
         d="m 156,80 a 11,11 0 1 1 -22,0 11,11 0 1 1 22,0 z"
         sodipodi:ry="11"
         sodipodi:rx="11"
         sodipodi:cy="80"
         sodipodi:cx="145"
         id="path4327"
         style="fill:#ffffff;fill-opacity:1;fill-rule:evenodd;stroke:none;display:inline"
         sodipodi:type="arc" />
    </mask>
    <mask
       maskUnits="userSpaceOnUse"
       id="mask4639">
      <path
         style="fill:#ffffff;fill-opacity:1;fill-rule:evenodd;stroke:none"
         d="m 8,198 0,12 c 0,4.41828 3.58172,8 8,8 4.41828,0 8,-3.58172 8,-8 l 0,-12 -16,0 z"
         id="path4641"
         inkscape:connector-curvature="0" />
    </mask>
  </defs>
  <sodipodi:namedview
     id="base"
     pagecolor="#ffffff"
     bordercolor="#666666"
     borderopacity="1.0"
     inkscape:pageopacity="0.0"
     inkscape:pageshadow="2"
     inkscape:zoom="11.173391"
     inkscape:cx="26.269024"
     inkscape:cy="14.733512"
     inkscape:document-units="px"
     inkscape:current-layer="layer1"
     showgrid="true"
     inkscape:snap-bbox="true"
     inkscape:window-width="1360"
     inkscape:window-height="706"
     inkscape:window-x="-8"
     inkscape:window-y="-8"
     inkscape:window-maximized="1"
     inkscape:snap-page="true">
    <inkscape:grid
       type="xygrid"
       id="grid3695"
       empspacing="5"
       visible="true"
       enabled="true"
       snapvisiblegridlinesonly="true" />
  </sodipodi:namedview>
  <metadata
     id="metadata3452">
    <rdf:RDF>
      <cc:Work
         rdf:about="">
        <dc:format>image/svg+xml</dc:format>
        <dc:type
           rdf:resource="http://purl.org/dc/dcmitype/StillImage" />
        <dc:title></dc:title>
      </cc:Work>
    </rdf:RDF>
  </metadata>
  <g
     inkscape:label="Layer 1"
     inkscape:groupmode="layer"
     id="layer1"
     transform="translate(0,-1020.3622)">
    <g
       id="g3131"
       transform="translate(0.003935,1020.3268)">
      <path
         id="path3133"
         d="m 0,0.03543307 31.996065,0 0,31.99606093 -31.996065,0 z"
         style="fill:#ffedc1;fill-opacity:1;fill-rule:nonzero;stroke:none"
         inkscape:connector-curvature="0" />
      <path
         id="path3135"
         d="m 13.003938,4.0393698 5.988189,0 c 1.098425,0 2.019685,0.8858268 2.019685,1.9842519 l 0,6.0236213 c 0,1.098426 -0.92126,1.984252 -2.019685,1.984252 l -5.988189,0 c -1.098425,0 -2.019685,-0.885826 -2.019685,-1.984252 l 0,-6.0236213 c 0,-1.0984251 0.92126,-1.9842519 2.019685,-1.9842519 z"
         style="fill:#000000;fill-opacity:1;fill-rule:evenodd;stroke:none"
         inkscape:connector-curvature="0" />
      <path
         id="path3137"
         d="m 13.003938,5.0314958 5.988189,0 c 0.566929,0 0.992126,0.4606299 0.992126,0.9921259 l 0,6.0236213 c 0,0.531496 -0.425197,0.992126 -0.992126,0.992126 l -5.988189,0 c -0.566929,0 -0.992126,-0.46063 -0.992126,-0.992126 l 0,-6.0236213 c 0,-0.531496 0.425197,-0.9921259 0.992126,-0.9921259 z"
         style="fill:#ffffff;fill-opacity:1;fill-rule:evenodd;stroke:none"
         inkscape:connector-curvature="0" />
      <path
         id="path3139"
         d="m 4.9960633,26.043306 22.0039387,0 0,2.19685 -22.0039387,0 z"
         style="fill:#000000;fill-opacity:1;fill-rule:evenodd;stroke:none"
         inkscape:connector-curvature="0" />
      <path
         id="path3141"
         d="m 13.996064,13.039369 4.003937,0 c 0.566929,0 0.992126,0.425197 0.992126,0.992126 l 0,12.011811 c 0,0.531496 -0.425197,0.992125 -0.992126,0.992125 l -4.003937,0 c -0.566929,0 -0.992126,-0.460629 -0.992126,-0.992125 l 0,-12.011811 c 0,-0.566929 0.425197,-0.992126 0.992126,-0.992126 z"
         style="fill:#000000;fill-opacity:1;fill-rule:evenodd;stroke:none"
         inkscape:connector-curvature="0" />
      <path
         id="path3143"
         d="m 18.496064,16.547243 2.515748,0 c 0,0 0.496063,0 0.496063,0.496063 l 0,2.976378 c 0,0 0,0.496063 0.496063,0.496063 l 0.992126,0 c 0,0 0.496063,0 0.496063,-0.496063 l 0,-8.503937"
         style="fill:none;stroke:#000000;stroke-width:0.99212605px;stroke-linecap:butt;stroke-linejoin:miter;stroke-miterlimit:4;stroke-opacity:1;stroke-dasharray:none"
         inkscape:connector-curvature="0" />
      <path
         id="path3145"
         d="m 20.444883,5.7755902 c 2.444882,1.9488188 1.84252,2.1968503 3.047244,5.5984248 l -0.956693,0.141732 c 0,0 -1.700787,-1.381889 -0.318897,-3.791338"
         style="fill:none;stroke:#000000;stroke-width:0.99212605px;stroke-linecap:butt;stroke-linejoin:miter;stroke-miterlimit:4;stroke-opacity:1;stroke-dasharray:none"
         inkscape:connector-curvature="0" />
    </g>
  </g>
</svg>
