<?xml version="1.0" encoding="UTF-8" standalone="no"?>
<!-- Created with Inkscape (http://www.inkscape.org/) -->

<svg
   xmlns:dc="http://purl.org/dc/elements/1.1/"
   xmlns:cc="http://creativecommons.org/ns#"
   xmlns:rdf="http://www.w3.org/1999/02/22-rdf-syntax-ns#"
   xmlns:svg="http://www.w3.org/2000/svg"
   xmlns="http://www.w3.org/2000/svg"
   xmlns:sodipodi="http://sodipodi.sourceforge.net/DTD/sodipodi-0.dtd"
   xmlns:inkscape="http://www.inkscape.org/namespaces/inkscape"
   width="32"
   height="32"
   id="svg3447"
   version="1.1"
   inkscape:version="0.48.4 r9939"
   sodipodi:docname="button3-33.svg">
  <defs
     id="defs3449">
    <mask
       maskUnits="userSpaceOnUse"
       id="mask4325">
      <path
         transform="translate(24.5,-0.5)"
         d="m 156,80 a 11,11 0 1 1 -22,0 11,11 0 1 1 22,0 z"
         sodipodi:ry="11"
         sodipodi:rx="11"
         sodipodi:cy="80"
         sodipodi:cx="145"
         id="path4327"
         style="fill:#ffffff;fill-opacity:1;fill-rule:evenodd;stroke:none;display:inline"
         sodipodi:type="arc" />
    </mask>
    <mask
       maskUnits="userSpaceOnUse"
       id="mask4639">
      <path
         style="fill:#ffffff;fill-opacity:1;fill-rule:evenodd;stroke:none"
         d="m 8,198 0,12 c 0,4.41828 3.58172,8 8,8 4.41828,0 8,-3.58172 8,-8 l 0,-12 -16,0 z"
         id="path4641"
         inkscape:connector-curvature="0" />
    </mask>
  </defs>
  <sodipodi:namedview
     id="base"
     pagecolor="#ffffff"
     bordercolor="#666666"
     borderopacity="1.0"
     inkscape:pageopacity="0.0"
     inkscape:pageshadow="2"
     inkscape:zoom="11.173391"
     inkscape:cx="26.269024"
     inkscape:cy="14.733512"
     inkscape:document-units="px"
     inkscape:current-layer="layer1"
     showgrid="true"
     inkscape:snap-bbox="true"
     inkscape:window-width="1360"
     inkscape:window-height="706"
     inkscape:window-x="-8"
     inkscape:window-y="-8"
     inkscape:window-maximized="1"
     inkscape:snap-page="true">
    <inkscape:grid
       type="xygrid"
       id="grid3695"
       empspacing="5"
       visible="true"
       enabled="true"
       snapvisiblegridlinesonly="true" />
  </sodipodi:namedview>
  <metadata
     id="metadata3452">
    <rdf:RDF>
      <cc:Work
         rdf:about="">
        <dc:format>image/svg+xml</dc:format>
        <dc:type
           rdf:resource="http://purl.org/dc/dcmitype/StillImage" />
        <dc:title></dc:title>
      </cc:Work>
    </rdf:RDF>
  </metadata>
  <g
     inkscape:label="Layer 1"
     inkscape:groupmode="layer"
     id="layer1"
     transform="translate(0,-1020.3622)">
    <rect
       style="fill:#ffedc1;fill-opacity:1;fill-rule:nonzero;stroke:none;display:inline"
       id="rect4640"
       width="32"
       height="32"
       x="-1.7763568e-015"
       y="1020.3622" />
    <path
       sodipodi:type="arc"
       style="fill:#000000;fill-opacity:1;fill-rule:evenodd;stroke:none;display:inline"
       id="path4802"
       sodipodi:cx="24.5"
       sodipodi:cy="135.5"
       sodipodi:rx="3.5"
       sodipodi:ry="3.5"
       d="m 28,135.5 a 3.5,3.5 0 1 1 -7,0 3.5,3.5 0 1 1 7,0 z"
       transform="translate(1.2e-6,892.36221)" />
    <path
       sodipodi:type="arc"
       style="fill:#ffffff;fill-opacity:1;fill-rule:evenodd;stroke:none;display:inline"
       id="path4804"
       sodipodi:cx="24.5"
       sodipodi:cy="135.5"
       sodipodi:rx="1.5"
       sodipodi:ry="1.5"
       d="m 26,135.5 a 1.5,1.5 0 1 1 -3,0 1.5,1.5 0 1 1 3,0 z"
       transform="translate(1.2e-6,892.36221)" />
    <path
       style="fill:#000000;fill-opacity:1;stroke:none;display:inline"
       d="m 21.000001,1028.3622 -11.000001,11 3,3 11,-11 z"
       id="path4806"
       inkscape:connector-curvature="0" />
    <path
       style="fill:#000000;fill-opacity:1;fill-rule:evenodd;stroke:none;display:inline"
       d="m 10.000004,1037.3622 c -2.7614293,0 -5.0000006,2.2386 -5.0000014,5 0,0.7919 0.2035506,1.5221 0.5312472,2.1875 L 9.7187503,1040.3622 12,1042.6435 7.8124994,1046.831 c 0.6654143,0.3277 1.3956449,0.5312 2.1875036,0.5312 2.761423,0 5.000001,-2.2386 5.000001,-5 -6e-6,-2.7614 -2.238577,-5 -5,-5 z"
       id="path4808"
       inkscape:connector-curvature="0" />
  </g>
</svg>
