<?xml version="1.0" encoding="UTF-8" standalone="no"?>
<!-- Created with Inkscape (http://www.inkscape.org/) -->

<svg
   xmlns:dc="http://purl.org/dc/elements/1.1/"
   xmlns:cc="http://creativecommons.org/ns#"
   xmlns:rdf="http://www.w3.org/1999/02/22-rdf-syntax-ns#"
   xmlns:svg="http://www.w3.org/2000/svg"
   xmlns="http://www.w3.org/2000/svg"
   xmlns:xlink="http://www.w3.org/1999/xlink"
   xmlns:sodipodi="http://sodipodi.sourceforge.net/DTD/sodipodi-0.dtd"
   xmlns:inkscape="http://www.inkscape.org/namespaces/inkscape"
   width="32"
   height="32"
   id="svg3447"
   version="1.1"
   inkscape:version="0.48.4 r9939"
   sodipodi:docname="button3-20.svg">
  <defs
     id="defs3449" />
  <sodipodi:namedview
     id="base"
     pagecolor="#ffffff"
     bordercolor="#666666"
     borderopacity="1.0"
     inkscape:pageopacity="0.0"
     inkscape:pageshadow="2"
     inkscape:zoom="11.186688"
     inkscape:cx="8.5178303"
     inkscape:cy="16.943686"
     inkscape:document-units="px"
     inkscape:current-layer="layer1"
     showgrid="false"
     inkscape:snap-bbox="true"
     inkscape:window-width="1360"
     inkscape:window-height="706"
     inkscape:window-x="-8"
     inkscape:window-y="-8"
     inkscape:window-maximized="1"
     inkscape:snap-page="true">
    <inkscape:grid
       type="xygrid"
       id="grid3695"
       empspacing="5"
       visible="true"
       enabled="true"
       snapvisiblegridlinesonly="true" />
  </sodipodi:namedview>
  <metadata
     id="metadata3452">
    <rdf:RDF>
      <cc:Work
         rdf:about="">
        <dc:format>image/svg+xml</dc:format>
        <dc:type
           rdf:resource="http://purl.org/dc/dcmitype/StillImage" />
        <dc:title></dc:title>
      </cc:Work>
    </rdf:RDF>
  </metadata>
  <g
     inkscape:label="Layer 1"
     inkscape:groupmode="layer"
     id="layer1"
     transform="translate(0,-1020.3622)">
    <use
       x="0"
       y="0"
       xlink:href="#use5974"
       id="use5976-1"
       transform="translate(167.37568,1033.2417)"
       width="256"
       height="256"
       style="fill:#000000;fill-opacity:0;display:inline" />
    <use
       style="display:inline"
       x="0"
       y="0"
       xlink:href="#g5966"
       id="use6049-7"
       transform="translate(71.375679,1001.2784)"
       width="256"
       height="256" />
    <rect
       style="fill:#ffedc1;fill-opacity:1;fill-rule:nonzero;stroke:none;display:inline"
       id="rect4640-2"
       width="32"
       height="32"
       x="0"
       y="1020.3622" />
    <path
       transform="translate(-96.000003,956.36227)"
       sodipodi:type="arc"
       style="fill:#000000;fill-opacity:1;fill-rule:evenodd;stroke:none;display:inline"
       id="path4068"
       sodipodi:cx="104"
       sodipodi:cy="72"
       sodipodi:rx="3"
       sodipodi:ry="3"
       d="m 107,72 a 3,3 0 1 1 -6,0 3,3 0 1 1 6,0 z" />
    <path
       transform="translate(-88.000003,956.36227)"
       sodipodi:type="arc"
       style="fill:#000000;fill-opacity:1;fill-rule:evenodd;stroke:none;display:inline"
       id="path4068-4"
       sodipodi:cx="104"
       sodipodi:cy="72"
       sodipodi:rx="3"
       sodipodi:ry="3"
       d="m 107,72 a 3,3 0 1 1 -6,0 3,3 0 1 1 6,0 z" />
    <path
       transform="translate(-79.999999,956.36227)"
       sodipodi:type="arc"
       style="fill:#000000;fill-opacity:1;fill-rule:evenodd;stroke:none;display:inline"
       id="path4068-9"
       sodipodi:cx="104"
       sodipodi:cy="72"
       sodipodi:rx="3"
       sodipodi:ry="3"
       d="m 107,72 a 3,3 0 1 1 -6,0 3,3 0 1 1 6,0 z" />
    <path
       transform="translate(-79.999999,964.36227)"
       sodipodi:type="arc"
       style="fill:#000000;fill-opacity:1;fill-rule:evenodd;stroke:none;display:inline"
       id="path4068-46"
       sodipodi:cx="104"
       sodipodi:cy="72"
       sodipodi:rx="3"
       sodipodi:ry="3"
       d="m 107,72 a 3,3 0 1 1 -6,0 3,3 0 1 1 6,0 z" />
    <path
       transform="translate(-88.000003,964.36227)"
       sodipodi:type="arc"
       style="fill:#000000;fill-opacity:1;fill-rule:evenodd;stroke:none;display:inline"
       id="path4068-0"
       sodipodi:cx="104"
       sodipodi:cy="72"
       sodipodi:rx="3"
       sodipodi:ry="3"
       d="m 107,72 a 3,3 0 1 1 -6,0 3,3 0 1 1 6,0 z" />
    <path
       transform="translate(-96.000003,964.36227)"
       sodipodi:type="arc"
       style="fill:#000000;fill-opacity:1;fill-rule:evenodd;stroke:none;display:inline"
       id="path4068-3"
       sodipodi:cx="104"
       sodipodi:cy="72"
       sodipodi:rx="3"
       sodipodi:ry="3"
       d="m 107,72 a 3,3 0 1 1 -6,0 3,3 0 1 1 6,0 z" />
    <path
       transform="translate(-96.000003,972.36227)"
       sodipodi:type="arc"
       style="fill:#000000;fill-opacity:1;fill-rule:evenodd;stroke:none;display:inline"
       id="path4068-6"
       sodipodi:cx="104"
       sodipodi:cy="72"
       sodipodi:rx="3"
       sodipodi:ry="3"
       d="m 107,72 a 3,3 0 1 1 -6,0 3,3 0 1 1 6,0 z" />
    <path
       transform="translate(-88.000003,972.36227)"
       sodipodi:type="arc"
       style="fill:#000000;fill-opacity:1;fill-rule:evenodd;stroke:none;display:inline"
       id="path4068-2"
       sodipodi:cx="104"
       sodipodi:cy="72"
       sodipodi:rx="3"
       sodipodi:ry="3"
       d="m 107,72 a 3,3 0 1 1 -6,0 3,3 0 1 1 6,0 z" />
    <path
       transform="translate(-79.999999,972.36227)"
       sodipodi:type="arc"
       style="fill:#000000;fill-opacity:1;fill-rule:evenodd;stroke:none;display:inline"
       id="path4068-45"
       sodipodi:cx="104"
       sodipodi:cy="72"
       sodipodi:rx="3"
       sodipodi:ry="3"
       d="m 107,72 a 3,3 0 1 1 -6,0 3,3 0 1 1 6,0 z" />
  </g>
</svg>
