<?xml version="1.0" encoding="UTF-8" standalone="no"?>
<!-- Created with Inkscape (http://www.inkscape.org/) -->

<svg
   xmlns:dc="http://purl.org/dc/elements/1.1/"
   xmlns:cc="http://creativecommons.org/ns#"
   xmlns:rdf="http://www.w3.org/1999/02/22-rdf-syntax-ns#"
   xmlns:svg="http://www.w3.org/2000/svg"
   xmlns="http://www.w3.org/2000/svg"
   xmlns:xlink="http://www.w3.org/1999/xlink"
   xmlns:sodipodi="http://sodipodi.sourceforge.net/DTD/sodipodi-0.dtd"
   xmlns:inkscape="http://www.inkscape.org/namespaces/inkscape"
   width="32"
   height="32"
   id="svg3447"
   version="1.1"
   inkscape:version="0.48.4 r9939"
   sodipodi:docname="button3-30.svg">
  <defs
     id="defs3449">
    <mask
       maskUnits="userSpaceOnUse"
       id="mask4325">
      <path
         transform="translate(24.5,-0.5)"
         d="m 156,80 a 11,11 0 1 1 -22,0 11,11 0 1 1 22,0 z"
         sodipodi:ry="11"
         sodipodi:rx="11"
         sodipodi:cy="80"
         sodipodi:cx="145"
         id="path4327"
         style="fill:#ffffff;fill-opacity:1;fill-rule:evenodd;stroke:none;display:inline"
         sodipodi:type="arc" />
    </mask>
    <filter
       color-interpolation-filters="sRGB"
       inkscape:collect="always"
       id="filter5886"
       x="-0.32036272"
       width="1.6407254"
       y="-0.32036272"
       height="1.6407254">
      <feGaussianBlur
         inkscape:collect="always"
         stdDeviation="0.26696893"
         id="feGaussianBlur5888" />
    </filter>
    <mask
       maskUnits="userSpaceOnUse"
       id="mask4639">
      <path
         style="fill:#ffffff;fill-opacity:1;fill-rule:evenodd;stroke:none"
         d="m 8,198 0,12 c 0,4.41828 3.58172,8 8,8 4.41828,0 8,-3.58172 8,-8 l 0,-12 -16,0 z"
         id="path4641"
         inkscape:connector-curvature="0" />
    </mask>
  </defs>
  <sodipodi:namedview
     id="base"
     pagecolor="#ffffff"
     bordercolor="#666666"
     borderopacity="1.0"
     inkscape:pageopacity="0.0"
     inkscape:pageshadow="2"
     inkscape:zoom="5.5933439"
     inkscape:cx="-7.6176783"
     inkscape:cy="14.747618"
     inkscape:document-units="px"
     inkscape:current-layer="layer1"
     showgrid="false"
     inkscape:snap-bbox="true"
     inkscape:window-width="1360"
     inkscape:window-height="706"
     inkscape:window-x="-8"
     inkscape:window-y="-8"
     inkscape:window-maximized="1"
     inkscape:snap-page="true">
    <inkscape:grid
       type="xygrid"
       id="grid3695"
       empspacing="5"
       visible="true"
       enabled="true"
       snapvisiblegridlinesonly="true" />
  </sodipodi:namedview>
  <metadata
     id="metadata3452">
    <rdf:RDF>
      <cc:Work
         rdf:about="">
        <dc:format>image/svg+xml</dc:format>
        <dc:type
           rdf:resource="http://purl.org/dc/dcmitype/StillImage" />
        <dc:title></dc:title>
      </cc:Work>
    </rdf:RDF>
  </metadata>
  <g
     inkscape:label="Layer 1"
     inkscape:groupmode="layer"
     id="layer1"
     transform="translate(0,-1020.3622)">
    <use
       style="display:inline"
       x="0"
       y="0"
       xlink:href="#g5944"
       id="use5978"
       transform="translate(-32.000001,988.36226)"
       width="256"
       height="256" />
    <rect
       style="fill:#ffedc1;fill-opacity:1;fill-rule:nonzero;stroke:none;display:inline"
       id="rect4640-2"
       width="32"
       height="32"
       x="0"
       y="1020.3622" />
    <g
       transform="translate(0,828.36222)"
       style="display:inline"
       id="g4556-8-6"
       mask="url(#mask4639)">
      <path
         inkscape:connector-curvature="0"
         id="rect4473-8-6-6"
         d="m -2,190 0,18 18,0 0,-18 -18,0 z m 18,18 0,18 18,0 0,-18 -18,0 z"
         style="fill:#000000;fill-opacity:1;fill-rule:evenodd;stroke:none" />
      <path
         inkscape:connector-curvature="0"
         id="rect4473-5-2-3-9-2"
         d="m 16,190 0,18 18,0 0,-18 -18,0 z m 0,18 -18,0 0,18 18,0 0,-18 z"
         style="fill:#ffffff;fill-opacity:1;fill-rule:evenodd;stroke:none;display:inline" />
    </g>
    <path
       inkscape:connector-curvature="0"
       style="fill:none;stroke:#373737;stroke-width:1;stroke-opacity:1;display:inline"
       d="m 8.35858,1026.6854 0,11.714 c 0,4.2755 3.42118,7.6396 7.64142,7.6396 4.22025,0 7.64142,-3.3641 7.64142,-7.6396 l 0,-11.714 z"
       id="path4592-8"
       sodipodi:nodetypes="cssscc" />
  </g>
</svg>
