<?xml version="1.0" encoding="UTF-8" standalone="no"?>
<!-- Created with Inkscape (http://www.inkscape.org/) -->

<svg
   xmlns:dc="http://purl.org/dc/elements/1.1/"
   xmlns:cc="http://creativecommons.org/ns#"
   xmlns:rdf="http://www.w3.org/1999/02/22-rdf-syntax-ns#"
   xmlns:svg="http://www.w3.org/2000/svg"
   xmlns="http://www.w3.org/2000/svg"
   xmlns:xlink="http://www.w3.org/1999/xlink"
   xmlns:sodipodi="http://sodipodi.sourceforge.net/DTD/sodipodi-0.dtd"
   xmlns:inkscape="http://www.inkscape.org/namespaces/inkscape"
   width="32"
   height="32"
   id="svg3447"
   version="1.1"
   inkscape:version="0.48.4 r9939"
   sodipodi:docname="Nowy dokument 2">
  <defs
     id="defs3449" />
  <sodipodi:namedview
     id="base"
     pagecolor="#ffffff"
     bordercolor="#666666"
     borderopacity="1.0"
     inkscape:pageopacity="0.0"
     inkscape:pageshadow="2"
     inkscape:zoom="5.5933439"
     inkscape:cx="10.854329"
     inkscape:cy="21.689505"
     inkscape:document-units="px"
     inkscape:current-layer="layer1"
     showgrid="false"
     inkscape:snap-bbox="true"
     inkscape:window-width="1360"
     inkscape:window-height="706"
     inkscape:window-x="-8"
     inkscape:window-y="-8"
     inkscape:window-maximized="1">
    <inkscape:grid
       type="xygrid"
       id="grid3695"
       empspacing="5"
       visible="true"
       enabled="true"
       snapvisiblegridlinesonly="true" />
  </sodipodi:namedview>
  <metadata
     id="metadata3452">
    <rdf:RDF>
      <cc:Work
         rdf:about="">
        <dc:format>image/svg+xml</dc:format>
        <dc:type
           rdf:resource="http://purl.org/dc/dcmitype/StillImage" />
        <dc:title></dc:title>
      </cc:Work>
    </rdf:RDF>
  </metadata>
  <g
     inkscape:label="Layer 1"
     inkscape:groupmode="layer"
     id="layer1"
     transform="translate(0,-1020.3622)">
    <rect
       style="opacity:1;fill:#ffedc1;fill-opacity:1;fill-rule:nonzero;stroke:none;stroke-width:20;stroke-linecap:butt;stroke-linejoin:miter;stroke-miterlimit:4;stroke-opacity:1;stroke-dasharray:none;stroke-dashoffset:0"
       id="rect3697"
       width="32"
       height="32"
       x="0"
       y="0"
       transform="translate(0,1020.3622)" />
    <use
       x="0"
       y="0"
       xlink:href="#use5974"
       id="use5976-1"
       transform="translate(144.13494,1024.8377)"
       width="256"
       height="256"
       style="fill:#000000;fill-opacity:0;display:inline" />
    <use
       style="display:inline"
       x="0"
       y="0"
       xlink:href="#g5966"
       id="use6049-7"
       transform="translate(48.134931,992.87433)"
       width="256"
       height="256" />
    <path
       sodipodi:type="arc"
       style="fill:#000000;fill-opacity:1;stroke:none;display:inline"
       id="path3552"
       sodipodi:cx="42.17387"
       sodipodi:cy="57.063084"
       sodipodi:rx="7.8918166"
       sodipodi:ry="7.8918166"
       d="m 50.065687,57.063084 a 7.8918166,7.8918166 0 1 1 -15.783634,0 7.8918166,7.8918166 0 1 1 15.783634,0 z"
       transform="matrix(0.38148416,0,0,0.38148416,-6.0903264,1023.6008)" />
    <path
       sodipodi:type="arc"
       style="fill:#000000;fill-opacity:1;stroke:none;display:inline"
       id="path3554"
       sodipodi:cx="42.17387"
       sodipodi:cy="57.063084"
       sodipodi:rx="7.8918166"
       sodipodi:ry="7.8918166"
       d="m 50.065687,57.063084 a 7.8918166,7.8918166 0 1 1 -15.783634,0 7.8918166,7.8918166 0 1 1 15.783634,0 z"
       transform="matrix(0.38148416,0,0,0.38148416,5.9007336,1023.6041)" />
    <rect
       style="fill:#000000;fill-opacity:1;stroke:none;display:inline"
       id="rect3556"
       width="22"
       height="3"
       x="4.9894037"
       y="1038.3623" />
    <g
       style="display:inline"
       id="use6049-7-8"
       transform="translate(-224.0106,956.42018)">
      <path
         sodipodi:type="arc"
         style="fill:#000000;fill-opacity:1;fill-rule:evenodd;stroke:none"
         id="path3538"
         sodipodi:cx="240"
         sodipodi:cy="74"
         sodipodi:rx="3"
         sodipodi:ry="3"
         d="m 243,74 c 0,1.656854 -1.34315,3 -3,3 -1.65685,0 -3,-1.343146 -3,-3 0,-1.656854 1.34315,-3 3,-3 1.65685,0 3,1.343146 3,3 z" />
      <path
         style="fill:#000000;fill-opacity:1;stroke:none"
         d="m 238,72 c 0,0 -2.11968,-0.557306 -2,-1.5 0.11968,-0.942694 3,-2.5 3,-2.5 -2.37241,-0.298971 -4.70601,0.540076 -5,3 -0.0925,1.301455 3,3 3,3 z"
         id="path3540"
         inkscape:connector-curvature="0"
         sodipodi:nodetypes="czcccc"
         inkscape:tile-cx="236.49898"
         inkscape:tile-cy="70.971072"
         inkscape:tile-w="5.0020345"
         inkscape:tile-h="6.0578564"
         inkscape:tile-x0="233.99797"
         inkscape:tile-y0="67.942144" />
      <path
         style="fill:#000000;fill-opacity:1;stroke:none"
         d="m 238,72 c 0,0 -2.11968,-0.557306 -2,-1.5 0.11968,-0.942694 3,-2.5 3,-2.5 -2.37241,-0.298971 -4.70601,0.540076 -5,3 -0.0925,1.301455 3,3 3,3 z"
         id="use3542"
         inkscape:connector-curvature="0"
         sodipodi:nodetypes="czcccc"
         inkscape:tile-x0="233.99797"
         inkscape:tile-y0="67.942144" />
      <path
         style="fill:#000000;fill-opacity:1;stroke:none"
         d="m 241.94214,72.00203 c 0,0 0.55731,-2.11968 1.5,-2 0.94269,0.11968 2.5,3 2.5,3 0.29897,-2.37241 -0.54008,-4.70601 -3,-5 -1.30146,-0.0925 -3,3 -3,3 z"
         id="use3544"
         inkscape:connector-curvature="0"
         sodipodi:nodetypes="czcccc"
         inkscape:tile-x0="233.99797"
         inkscape:tile-y0="67.942144" />
      <path
         style="fill:#000000;fill-opacity:1;stroke:none"
         d="m 241.99797,75.94214 c 0,0 2.11968,0.557306 2,1.5 -0.11968,0.942694 -3,2.5 -3,2.5 2.37241,0.298971 4.70601,-0.540076 5,-3 0.0925,-1.301455 -3,-3 -3,-3 z"
         id="use3546"
         inkscape:connector-curvature="0"
         sodipodi:nodetypes="czcccc"
         inkscape:tile-x0="233.99797"
         inkscape:tile-y0="67.942144" />
      <path
         style="fill:#000000;fill-opacity:1;stroke:none"
         d="m 238,75.99797 c 0,0 -0.55731,2.11968 -1.5,2 -0.94269,-0.11968 -2.5,-3 -2.5,-3 -0.29897,2.37241 0.54008,4.70601 3,5 1.30145,0.0925 3,-3 3,-3 z"
         id="use3548"
         inkscape:connector-curvature="0"
         sodipodi:nodetypes="czcccc"
         inkscape:tile-x0="233.99797"
         inkscape:tile-y0="67.942144" />
    </g>
  </g>
</svg>
