<?xml version="1.0" encoding="UTF-8" standalone="no"?>
<!-- Created with Inkscape (http://www.inkscape.org/) -->

<svg
   xmlns:dc="http://purl.org/dc/elements/1.1/"
   xmlns:cc="http://creativecommons.org/ns#"
   xmlns:rdf="http://www.w3.org/1999/02/22-rdf-syntax-ns#"
   xmlns:svg="http://www.w3.org/2000/svg"
   xmlns="http://www.w3.org/2000/svg"
   xmlns:sodipodi="http://sodipodi.sourceforge.net/DTD/sodipodi-0.dtd"
   xmlns:inkscape="http://www.inkscape.org/namespaces/inkscape"
   width="32"
   height="32"
   id="svg3447"
   version="1.1"
   inkscape:version="0.48.4 r9939"
   sodipodi:docname="button3-44.svg">
  <defs
     id="defs3449">
    <mask
       maskUnits="userSpaceOnUse"
       id="mask4325">
      <path
         transform="translate(24.5,-0.5)"
         d="m 156,80 a 11,11 0 1 1 -22,0 11,11 0 1 1 22,0 z"
         sodipodi:ry="11"
         sodipodi:rx="11"
         sodipodi:cy="80"
         sodipodi:cx="145"
         id="path4327"
         style="fill:#ffffff;fill-opacity:1;fill-rule:evenodd;stroke:none;display:inline"
         sodipodi:type="arc" />
    </mask>
    <mask
       maskUnits="userSpaceOnUse"
       id="mask4639">
      <path
         style="fill:#ffffff;fill-opacity:1;fill-rule:evenodd;stroke:none"
         d="m 8,198 0,12 c 0,4.41828 3.58172,8 8,8 4.41828,0 8,-3.58172 8,-8 l 0,-12 -16,0 z"
         id="path4641"
         inkscape:connector-curvature="0" />
    </mask>
  </defs>
  <sodipodi:namedview
     id="base"
     pagecolor="#ffffff"
     bordercolor="#666666"
     borderopacity="1.0"
     inkscape:pageopacity="0.0"
     inkscape:pageshadow="2"
     inkscape:zoom="11.173391"
     inkscape:cx="26.269024"
     inkscape:cy="14.733512"
     inkscape:document-units="px"
     inkscape:current-layer="layer1"
     showgrid="true"
     inkscape:snap-bbox="true"
     inkscape:window-width="1360"
     inkscape:window-height="706"
     inkscape:window-x="-8"
     inkscape:window-y="-8"
     inkscape:window-maximized="1"
     inkscape:snap-page="true">
    <inkscape:grid
       type="xygrid"
       id="grid3695"
       empspacing="5"
       visible="true"
       enabled="true"
       snapvisiblegridlinesonly="true" />
  </sodipodi:namedview>
  <metadata
     id="metadata3452">
    <rdf:RDF>
      <cc:Work
         rdf:about="">
        <dc:format>image/svg+xml</dc:format>
        <dc:type
           rdf:resource="http://purl.org/dc/dcmitype/StillImage" />
        <dc:title></dc:title>
      </cc:Work>
    </rdf:RDF>
  </metadata>
  <g
     inkscape:label="Layer 1"
     inkscape:groupmode="layer"
     id="layer1"
     transform="translate(0,-1020.3622)">
    <g
       id="g3280"
       transform="translate(0,1020.3268)">
      <path
         id="path3282"
         d="m 0,0.03543307 31.996065,0 0,31.99606093 -31.996065,0 z"
         style="fill:#ffedc1;fill-opacity:1;fill-rule:nonzero;stroke:none"
         inkscape:connector-curvature="0" />
      <path
         id="path3284"
         d="M 16.015749,2.0196849 C 13.003938,3.0472439 9.9921266,5.0314958 8.0433076,9.0354325 l 6.9448824,0 0,12.0118105 -6.9803155,0 c 0,0.248031 0,0.531496 0.035433,0.779527 l -6.1299217,6.200787 -0.92125986,0 c -0.28346458,0 -0.49606302,0.212599 -0.49606302,0.496063 0,0.283465 0.21259844,0.496063 0.49606302,0.496063 l 0.99212606,0 0.2834646,0 5.9881893,-6.059054 c 0.2125984,0.850393 0.5314961,1.629921 0.956693,2.338582 l -1.2401576,1.73622 -0.4606299,0 c -0.2834646,0 -0.4960631,0.212599 -0.4960631,0.496063 l 0,0.992126 c 0,0.283465 0.2125985,0.496063 0.4960631,0.496063 l 1.9842521,0 c 0.2834645,0 0.496063,-0.212598 0.496063,-0.496063 l 0,-0.850393 0.5669295,-0.814961 c 0.708661,0.673228 1.523622,1.204724 2.444882,1.594488 l 0,0.566929 3.011811,0 0,-26.9999981 z"
         style="fill:#000000;fill-opacity:1;fill-rule:evenodd;stroke:none"
         inkscape:connector-curvature="0" />
      <path
         id="path3286"
         d="m 16.015749,2.0196849 c 2.976378,1.027559 5.988189,3.0118109 7.937008,7.0157476 l -6.944882,0 0,12.0118105 6.980315,0 c 0,0.248031 0,0.531496 -0.03543,0.779527 l 6.129922,6.200787 0.92126,0 c 0.283464,0 0.496063,0.212599 0.496063,0.496063 0,0.283465 -0.212599,0.496063 -0.496063,0.496063 l -0.992126,0 -0.283465,0 -5.988189,-6.059054 c -0.212599,0.850393 -0.531496,1.629921 -0.956693,2.338582 l 1.240157,1.73622 0.46063,0 c 0.283465,0 0.531497,0.212599 0.531497,0.496063 l 0,0.992126 c 0,0.283465 -0.248032,0.496063 -0.531497,0.496063 l -1.984252,0 c -0.283464,0 -0.496063,-0.212598 -0.496063,-0.496063 l 0,-0.850393 -0.566929,-0.814961 c -0.708661,0.673228 -1.523622,1.204724 -2.444882,1.594488 l 0,0.566929 -2.976378,0 0,-26.9999981 z"
         style="fill:#000000;fill-opacity:1;fill-rule:evenodd;stroke:none"
         inkscape:connector-curvature="0" />
    </g>
  </g>
</svg>
