<?xml version="1.0" encoding="UTF-8" standalone="no"?>
<!-- Created with Inkscape (http://www.inkscape.org/) -->

<svg
   xmlns:dc="http://purl.org/dc/elements/1.1/"
   xmlns:cc="http://creativecommons.org/ns#"
   xmlns:rdf="http://www.w3.org/1999/02/22-rdf-syntax-ns#"
   xmlns:svg="http://www.w3.org/2000/svg"
   xmlns="http://www.w3.org/2000/svg"
   xmlns:sodipodi="http://sodipodi.sourceforge.net/DTD/sodipodi-0.dtd"
   xmlns:inkscape="http://www.inkscape.org/namespaces/inkscape"
   width="32"
   height="32"
   id="svg3447"
   version="1.1"
   inkscape:version="0.48.4 r9939"
   sodipodi:docname="button3-41.svg">
  <defs
     id="defs3449">
    <mask
       maskUnits="userSpaceOnUse"
       id="mask4325">
      <path
         transform="translate(24.5,-0.5)"
         d="m 156,80 a 11,11 0 1 1 -22,0 11,11 0 1 1 22,0 z"
         sodipodi:ry="11"
         sodipodi:rx="11"
         sodipodi:cy="80"
         sodipodi:cx="145"
         id="path4327"
         style="fill:#ffffff;fill-opacity:1;fill-rule:evenodd;stroke:none;display:inline"
         sodipodi:type="arc" />
    </mask>
    <mask
       maskUnits="userSpaceOnUse"
       id="mask4639">
      <path
         style="fill:#ffffff;fill-opacity:1;fill-rule:evenodd;stroke:none"
         d="m 8,198 0,12 c 0,4.41828 3.58172,8 8,8 4.41828,0 8,-3.58172 8,-8 l 0,-12 -16,0 z"
         id="path4641"
         inkscape:connector-curvature="0" />
    </mask>
  </defs>
  <sodipodi:namedview
     id="base"
     pagecolor="#ffffff"
     bordercolor="#666666"
     borderopacity="1.0"
     inkscape:pageopacity="0.0"
     inkscape:pageshadow="2"
     inkscape:zoom="11.173391"
     inkscape:cx="26.269024"
     inkscape:cy="14.733512"
     inkscape:document-units="px"
     inkscape:current-layer="layer1"
     showgrid="true"
     inkscape:snap-bbox="true"
     inkscape:window-width="1360"
     inkscape:window-height="706"
     inkscape:window-x="-8"
     inkscape:window-y="-8"
     inkscape:window-maximized="1"
     inkscape:snap-page="true">
    <inkscape:grid
       type="xygrid"
       id="grid3695"
       empspacing="5"
       visible="true"
       enabled="true"
       snapvisiblegridlinesonly="true" />
  </sodipodi:namedview>
  <metadata
     id="metadata3452">
    <rdf:RDF>
      <cc:Work
         rdf:about="">
        <dc:format>image/svg+xml</dc:format>
        <dc:type
           rdf:resource="http://purl.org/dc/dcmitype/StillImage" />
        <dc:title></dc:title>
      </cc:Work>
    </rdf:RDF>
  </metadata>
  <g
     inkscape:label="Layer 1"
     inkscape:groupmode="layer"
     id="layer1"
     transform="translate(0,-1020.3622)">
    <g
       id="g3211"
       transform="translate(0,1020.3268)">
      <path
         id="path3213"
         d="m 0,0.03543307 31.996065,0 0,31.99606093 -31.996065,0 z"
         style="fill:#ffedc1;fill-opacity:1;fill-rule:nonzero;stroke:none"
         inkscape:connector-curvature="0" />
      <path
         id="path3215"
         d="m 9.9921266,5.669291 c -3.5787404,2.055118 -5.9881894,5.917322 -5.9881894,10.346456 0,4.464567 2.409449,8.326771 5.9881894,10.381889 -2.409449,-2.374015 -4.0039373,-6.129921 -4.0039373,-10.381889 0,-4.216535 1.5944883,-7.9724404 4.0039373,-10.346456 z m 12.0118114,0 c 2.409449,2.3740156 4.003938,6.129921 4.003938,10.346456 0,4.251968 -1.594489,8.007874 -4.003938,10.381889 3.578741,-2.055118 5.98819,-5.917322 5.98819,-10.381889 0,-4.429134 -2.409449,-8.291338 -5.98819,-10.346456 z"
         style="fill:#000000;fill-opacity:1;fill-rule:evenodd;stroke:none"
         inkscape:connector-curvature="0" />
      <path
         id="path3217"
         d="m 18.000001,16.015747 c 0,1.133858 -0.885827,2.019685 -1.984252,2.019685 -1.133858,0 -2.019685,-0.885827 -2.019685,-2.019685 0,-1.098425 0.885827,-1.984252 2.019685,-1.984252 1.098425,0 1.984252,0.885827 1.984252,1.984252 z"
         style="fill:#000000;fill-opacity:1;fill-rule:evenodd;stroke:none"
         inkscape:connector-curvature="0" />
      <path
         id="path3219"
         d="m 12.259843,10.133858 c -1.948819,1.240157 -3.2598425,3.401574 -3.2598425,5.881889 0,2.515748 1.3110235,4.677165 3.2598425,5.917323 -0.779527,-1.594489 -1.27559,-3.649607 -1.27559,-5.917323 0,-2.232283 0.496063,-4.322834 1.27559,-5.881889 z m 7.476379,0 c 0.779527,1.559055 1.27559,3.649606 1.27559,5.881889 0,2.267716 -0.496063,4.322834 -1.27559,5.917323 1.948819,-1.240158 3.259842,-3.401575 3.259842,-5.917323 0,-2.480315 -1.311023,-4.641732 -3.259842,-5.881889 z"
         style="fill:#000000;fill-opacity:1;fill-rule:evenodd;stroke:none"
         inkscape:connector-curvature="0" />
    </g>
  </g>
</svg>
