<?xml version="1.0" encoding="UTF-8" standalone="no"?>
<!-- Created with Inkscape (http://www.inkscape.org/) -->

<svg
   xmlns:dc="http://purl.org/dc/elements/1.1/"
   xmlns:cc="http://creativecommons.org/ns#"
   xmlns:rdf="http://www.w3.org/1999/02/22-rdf-syntax-ns#"
   xmlns:svg="http://www.w3.org/2000/svg"
   xmlns="http://www.w3.org/2000/svg"
   xmlns:xlink="http://www.w3.org/1999/xlink"
   xmlns:sodipodi="http://sodipodi.sourceforge.net/DTD/sodipodi-0.dtd"
   xmlns:inkscape="http://www.inkscape.org/namespaces/inkscape"
   width="32"
   height="32"
   id="svg3447"
   version="1.1"
   inkscape:version="0.48.4 r9939"
   sodipodi:docname="button3-31.svg">
  <defs
     id="defs3449">
    <mask
       maskUnits="userSpaceOnUse"
       id="mask4325">
      <path
         transform="translate(24.5,-0.5)"
         d="m 156,80 a 11,11 0 1 1 -22,0 11,11 0 1 1 22,0 z"
         sodipodi:ry="11"
         sodipodi:rx="11"
         sodipodi:cy="80"
         sodipodi:cx="145"
         id="path4327"
         style="fill:#ffffff;fill-opacity:1;fill-rule:evenodd;stroke:none;display:inline"
         sodipodi:type="arc" />
    </mask>
    <filter
       color-interpolation-filters="sRGB"
       inkscape:collect="always"
       id="filter5886"
       x="-0.32036272"
       width="1.6407254"
       y="-0.32036272"
       height="1.6407254">
      <feGaussianBlur
         inkscape:collect="always"
         stdDeviation="0.26696893"
         id="feGaussianBlur5888" />
    </filter>
    <mask
       maskUnits="userSpaceOnUse"
       id="mask4639">
      <path
         style="fill:#ffffff;fill-opacity:1;fill-rule:evenodd;stroke:none"
         d="m 8,198 0,12 c 0,4.41828 3.58172,8 8,8 4.41828,0 8,-3.58172 8,-8 l 0,-12 -16,0 z"
         id="path4641"
         inkscape:connector-curvature="0" />
    </mask>
  </defs>
  <sodipodi:namedview
     id="base"
     pagecolor="#ffffff"
     bordercolor="#666666"
     borderopacity="1.0"
     inkscape:pageopacity="0.0"
     inkscape:pageshadow="2"
     inkscape:zoom="15.820365"
     inkscape:cx="21.177824"
     inkscape:cy="16.079725"
     inkscape:document-units="px"
     inkscape:current-layer="layer1"
     showgrid="true"
     inkscape:snap-bbox="true"
     inkscape:window-width="1360"
     inkscape:window-height="706"
     inkscape:window-x="-8"
     inkscape:window-y="-8"
     inkscape:window-maximized="1"
     inkscape:snap-page="true">
    <inkscape:grid
       type="xygrid"
       id="grid3695"
       empspacing="5"
       visible="true"
       enabled="true"
       snapvisiblegridlinesonly="true" />
  </sodipodi:namedview>
  <metadata
     id="metadata3452">
    <rdf:RDF>
      <cc:Work
         rdf:about="">
        <dc:format>image/svg+xml</dc:format>
        <dc:type
           rdf:resource="http://purl.org/dc/dcmitype/StillImage" />
        <dc:title></dc:title>
      </cc:Work>
    </rdf:RDF>
  </metadata>
  <g
     inkscape:label="Layer 1"
     inkscape:groupmode="layer"
     id="layer1"
     transform="translate(0,-1020.3622)">
    <use
       style="display:inline"
       x="0"
       y="0"
       xlink:href="#g5944"
       id="use5978"
       transform="translate(-32.000001,988.36226)"
       width="256"
       height="256" />
    <rect
       style="fill:#ffedc1;fill-opacity:1;fill-rule:nonzero;stroke:none;display:inline"
       id="rect4640"
       width="32"
       height="32"
       x="0"
       y="1020.3622" />
    <rect
       style="fill:#000000;fill-opacity:1;fill-rule:evenodd;stroke:none;display:inline"
       id="rect4668"
       width="12"
       height="12"
       x="10"
       y="1025.3622" />
    <path
       style="fill:#ffffff;fill-opacity:1;fill-rule:evenodd;stroke:none;display:inline"
       d="m 14,1027.3622 0,7 1,0 1,0 3,0 0,-2 -3,0 0,-5 -2,0 z"
       id="rect4663"
       inkscape:connector-curvature="0" />
    <use
       style="display:inline"
       x="0"
       y="0"
       xlink:href="#use5976"
       id="use5992"
       transform="translate(-224,988.3622)"
       width="256"
       height="256" />
    <g
       id="use5976-1"
       style="fill:#000000;fill-opacity:0;display:inline"
       transform="translate(-32,988.3622)">
      <path
         sodipodi:type="arc"
         style="fill:#000000;fill-opacity:1;stroke:none"
         id="path3552"
         sodipodi:cx="42.17387"
         sodipodi:cy="57.063084"
         sodipodi:rx="7.8918166"
         sodipodi:ry="7.8918166"
         d="m 50.065687,57.063084 a 7.8918166,7.8918166 0 1 1 -15.783634,0 7.8918166,7.8918166 0 1 1 15.783634,0 z"
         transform="matrix(0.38148416,0,0,0.38148416,25.920266,35.238591)" />
      <path
         sodipodi:type="arc"
         style="fill:#000000;fill-opacity:1;stroke:none"
         id="path3554"
         sodipodi:cx="42.17387"
         sodipodi:cy="57.063084"
         sodipodi:rx="7.8918166"
         sodipodi:ry="7.8918166"
         d="m 50.065687,57.063084 a 7.8918166,7.8918166 0 1 1 -15.783634,0 7.8918166,7.8918166 0 1 1 15.783634,0 z"
         transform="matrix(0.38148416,0,0,0.38148416,37.911335,35.241938)" />
      <rect
         style="fill:#000000;fill-opacity:1;stroke:none"
         id="rect3556"
         width="22"
         height="3"
         x="37"
         y="50" />
    </g>
  </g>
</svg>
