<?xml version="1.0" encoding="UTF-8" standalone="no"?>
<!-- Created with Inkscape (http://www.inkscape.org/) -->

<svg
   xmlns:dc="http://purl.org/dc/elements/1.1/"
   xmlns:cc="http://creativecommons.org/ns#"
   xmlns:rdf="http://www.w3.org/1999/02/22-rdf-syntax-ns#"
   xmlns:svg="http://www.w3.org/2000/svg"
   xmlns="http://www.w3.org/2000/svg"
   xmlns:sodipodi="http://sodipodi.sourceforge.net/DTD/sodipodi-0.dtd"
   xmlns:inkscape="http://www.inkscape.org/namespaces/inkscape"
   width="32"
   height="32"
   id="svg3447"
   version="1.1"
   inkscape:version="0.48.4 r9939"
   sodipodi:docname="button3-46.svg">
  <defs
     id="defs3449">
    <mask
       maskUnits="userSpaceOnUse"
       id="mask4325">
      <path
         transform="translate(24.5,-0.5)"
         d="m 156,80 a 11,11 0 1 1 -22,0 11,11 0 1 1 22,0 z"
         sodipodi:ry="11"
         sodipodi:rx="11"
         sodipodi:cy="80"
         sodipodi:cx="145"
         id="path4327"
         style="fill:#ffffff;fill-opacity:1;fill-rule:evenodd;stroke:none;display:inline"
         sodipodi:type="arc" />
    </mask>
    <mask
       maskUnits="userSpaceOnUse"
       id="mask4639">
      <path
         style="fill:#ffffff;fill-opacity:1;fill-rule:evenodd;stroke:none"
         d="m 8,198 0,12 c 0,4.41828 3.58172,8 8,8 4.41828,0 8,-3.58172 8,-8 l 0,-12 -16,0 z"
         id="path4641"
         inkscape:connector-curvature="0" />
    </mask>
  </defs>
  <sodipodi:namedview
     id="base"
     pagecolor="#ffffff"
     bordercolor="#666666"
     borderopacity="1.0"
     inkscape:pageopacity="0.0"
     inkscape:pageshadow="2"
     inkscape:zoom="11.173391"
     inkscape:cx="26.269024"
     inkscape:cy="14.733512"
     inkscape:document-units="px"
     inkscape:current-layer="layer1"
     showgrid="true"
     inkscape:snap-bbox="true"
     inkscape:window-width="1360"
     inkscape:window-height="706"
     inkscape:window-x="-8"
     inkscape:window-y="-8"
     inkscape:window-maximized="1"
     inkscape:snap-page="true">
    <inkscape:grid
       type="xygrid"
       id="grid3695"
       empspacing="5"
       visible="true"
       enabled="true"
       snapvisiblegridlinesonly="true" />
  </sodipodi:namedview>
  <metadata
     id="metadata3452">
    <rdf:RDF>
      <cc:Work
         rdf:about="">
        <dc:format>image/svg+xml</dc:format>
        <dc:type
           rdf:resource="http://purl.org/dc/dcmitype/StillImage" />
        <dc:title></dc:title>
      </cc:Work>
    </rdf:RDF>
  </metadata>
  <g
     inkscape:label="Layer 1"
     inkscape:groupmode="layer"
     id="layer1"
     transform="translate(0,-1020.3622)">
    <g
       id="g3329"
       transform="translate(0,1020.3268)">
      <path
         id="path3331"
         d="m 0,0.03543307 31.996065,0 0,31.99606093 -31.996065,0 z"
         style="fill:#ffedc1;fill-opacity:1;fill-rule:nonzero;stroke:none"
         inkscape:connector-curvature="0" />
      <path
         id="path3333"
         d="m 27.000002,16.015747 c 0,6.094488 -4.925198,11.019684 -10.984253,11.019684 -6.0944886,0 -11.0196857,-4.925196 -11.0196857,-11.019684 0,-6.0590547 4.9251971,-10.9842512 11.0196857,-10.9842512 6.059055,0 10.984253,4.9251965 10.984253,10.9842512 z"
         style="fill:#000000;fill-opacity:1;fill-rule:nonzero;stroke:none"
         inkscape:connector-curvature="0" />
      <path
         id="path3335"
         d="m 25.01575,16.015747 c 0,4.996063 -4.039371,9 -9.000001,9 -4.996063,0 -9.0000006,-4.003937 -9.0000006,-9 0,-4.96063 4.0039376,-8.9999994 9.0000006,-8.9999994 4.96063,0 9.000001,4.0393694 9.000001,8.9999994 z"
         style="fill:#ffffff;fill-opacity:1;fill-rule:evenodd;stroke:none"
         inkscape:connector-curvature="0" />
      <path
         id="path3337"
         d="m 22.996064,16.015747 c 0,3.897638 -3.11811,7.015748 -6.980315,7.015748 -3.897638,0 -7.0157485,-3.11811 -7.0157485,-7.015748 0,-3.862204 3.1181105,-6.9803145 7.0157485,-6.9803145 3.862205,0 6.980315,3.1181105 6.980315,6.9803145 z"
         style="fill:#000000;fill-opacity:1;fill-rule:evenodd;stroke:none"
         inkscape:connector-curvature="0" />
      <path
         id="path3339"
         d="m 21.011812,16.015747 c 0,2.763779 -2.267716,5.031496 -4.996063,5.031496 -2.76378,0 -5.031496,-2.267717 -5.031496,-5.031496 0,-2.728346 2.267716,-4.996063 5.031496,-4.996063 2.728347,0 4.996063,2.267717 4.996063,4.996063 z"
         style="fill:#ffffff;fill-opacity:1;fill-rule:evenodd;stroke:none"
         inkscape:connector-curvature="0" />
      <path
         id="path3341"
         d="m 18.992127,16.015747 c 0,1.665354 -1.346457,3.011811 -2.976378,3.011811 -1.665354,0 -3.011811,-1.346457 -3.011811,-3.011811 0,-1.629921 1.346457,-2.976378 3.011811,-2.976378 1.629921,0 2.976378,1.346457 2.976378,2.976378 z"
         style="fill:#000000;fill-opacity:1;fill-rule:evenodd;stroke:none"
         inkscape:connector-curvature="0" />
      <path
         id="path3343"
         d="m 17.007875,16.015747 c 0,0.566929 -0.46063,1.027559 -0.992126,1.027559 -0.566929,0 -1.027559,-0.46063 -1.027559,-1.027559 0,-0.531496 0.46063,-0.992126 1.027559,-0.992126 0.531496,0 0.992126,0.46063 0.992126,0.992126 z"
         style="fill:#ffffff;fill-opacity:1;fill-rule:evenodd;stroke:none"
         inkscape:connector-curvature="0" />
    </g>
  </g>
</svg>
