<?xml version="1.0" encoding="UTF-8" standalone="no"?>
<!-- Created with Inkscape (http://www.inkscape.org/) -->

<svg
   xmlns:dc="http://purl.org/dc/elements/1.1/"
   xmlns:cc="http://creativecommons.org/ns#"
   xmlns:rdf="http://www.w3.org/1999/02/22-rdf-syntax-ns#"
   xmlns:svg="http://www.w3.org/2000/svg"
   xmlns="http://www.w3.org/2000/svg"
   xmlns:xlink="http://www.w3.org/1999/xlink"
   xmlns:sodipodi="http://sodipodi.sourceforge.net/DTD/sodipodi-0.dtd"
   xmlns:inkscape="http://www.inkscape.org/namespaces/inkscape"
   id="svg2"
   version="1.1"
   inkscape:version="0.48.4 r9939"
   width="32"
   height="32"
   sodipodi:docname="button3-13.png">
  <metadata
     id="metadata8">
    <rdf:RDF>
      <cc:Work
         rdf:about="">
        <dc:format>image/svg+xml</dc:format>
        <dc:type
           rdf:resource="http://purl.org/dc/dcmitype/StillImage" />
        <dc:title></dc:title>
      </cc:Work>
    </rdf:RDF>
  </metadata>
  <defs
     id="defs6">
    <radialGradient
       inkscape:collect="always"
       xlink:href="#linearGradient3938"
       id="radialGradient3948"
       cx="223.56012"
       cy="49.005108"
       fx="223.56012"
       fy="49.005108"
       r="5.5"
       gradientUnits="userSpaceOnUse"
       gradientTransform="matrix(0.23094002,-0.39999987,0.42163546,0.24343212,74.60873,118.3946)" />
    <linearGradient
       id="linearGradient3938">
      <stop
         id="stop3942"
         offset="0"
         style="stop-color:#ffffff;stop-opacity:1;" />
      <stop
         id="stop3940"
         offset="1"
         style="stop-color:#c0c0c0;stop-opacity:1;" />
    </linearGradient>
    <linearGradient
       inkscape:collect="always"
       xlink:href="#linearGradient3924"
       id="linearGradient3936"
       x1="138"
       y1="41.5"
       x2="138"
       y2="44"
       gradientUnits="userSpaceOnUse" />
    <linearGradient
       id="linearGradient3924">
      <stop
         style="stop-color:#808080;stop-opacity:1;"
         offset="0"
         id="stop3926" />
      <stop
         style="stop-color:#000000;stop-opacity:1;"
         offset="1"
         id="stop3928" />
    </linearGradient>
  </defs>
  <sodipodi:namedview
     pagecolor="#ffffff"
     bordercolor="#666666"
     borderopacity="1"
     objecttolerance="10"
     gridtolerance="10"
     guidetolerance="10"
     inkscape:pageopacity="0"
     inkscape:pageshadow="2"
     inkscape:window-width="640"
     inkscape:window-height="480"
     id="namedview4"
     showgrid="true"
     inkscape:snap-bbox="true"
     fit-margin-top="0"
     fit-margin-left="0"
     fit-margin-right="0"
     fit-margin-bottom="0"
     inkscape:zoom="5.2149125"
     inkscape:cx="-2.8626076"
     inkscape:cy="15.459908"
     inkscape:window-x="530"
     inkscape:window-y="104"
     inkscape:window-maximized="0"
     inkscape:current-layer="svg2">
    <inkscape:grid
       type="xygrid"
       id="grid3020"
       empspacing="5"
       visible="true"
       enabled="true"
       snapvisiblegridlinesonly="true"
       originx="0px"
       originy="0px" />
  </sodipodi:namedview>
  <rect
     y="0"
     x="0"
     height="32"
     width="32"
     id="rect3489"
     style="fill:#ffedc1;fill-opacity:1;stroke:none;display:inline" />
  <g
     transform="translate(-128,-32)"
     style="display:inline"
     id="g6036">
    <path
       transform="matrix(0.90909097,0,0,0.90909092,13.454537,3.8181813)"
       d="m 153,42 c 0,2.761424 -2.23858,5 -5,5 -2.76142,0 -5,-2.238576 -5,-5 0,-2.761424 2.23858,-5 5,-5 2.76142,0 5,2.238576 5,5 z"
       sodipodi:ry="5"
       sodipodi:rx="5"
       sodipodi:cy="42"
       sodipodi:cx="148"
       id="path4174-2"
       style="fill:url(#radialGradient3948);fill-opacity:1;stroke:#000000;stroke-opacity:1"
       sodipodi:type="arc" />
    <path
       sodipodi:nodetypes="sssssss"
       id="path4214-9"
       d="m 136,40.5 c -0.9665,0 -1.5,0.671573 -1.5,1.5 0,0.828427 0.5335,1.5 1.5,1.5 l 4,0 c 0.96649,0 1.5,-0.671573 1.5,-1.5 0,-0.828427 -0.53351,-1.5 -1.5,-1.5 z"
       style="fill:url(#linearGradient3936);fill-opacity:1;stroke:#000000;stroke-width:1;stroke-opacity:1"
       inkscape:connector-curvature="0" />
    <rect
       y="41"
       x="141.5"
       height="2"
       width="2"
       id="rect4289"
       style="fill:#000000;fill-opacity:1;stroke:none" />
  </g>
  <use
     style="display:inline"
     x="0"
     y="0"
     xlink:href="#g5944"
     id="use5974"
     transform="translate(-3.79661,-40.156797)"
     width="256"
     height="256" />
  <g
     id="g3026"
     transform="translate(4.996063,17.972442)">
    <path
       id="path3028"
       d="m 8.0078739,7.0157475 c 0,1.6653542 -1.3464566,3.0118105 -3.011811,3.0118105 -1.6653543,0 -3.011811,-1.3464563 -3.011811,-3.0118105 0,-1.6653542 1.3464567,-3.0118108 3.011811,-3.0118108 1.6653544,0 3.011811,1.3464566 3.011811,3.0118108 z"
       style="fill:#000000;fill-opacity:1;fill-rule:nonzero;stroke:none"
       inkscape:connector-curvature="0" />
    <path
       id="path3030"
       d="m 20.019685,7.0157475 c 0,1.6653542 -1.346457,3.0118105 -3.011811,3.0118105 -1.665354,0 -3.011811,-1.3464563 -3.011811,-3.0118105 0,-1.6653542 1.346457,-3.0118108 3.011811,-3.0118108 1.665354,0 3.011811,1.3464566 3.011811,3.0118108 z"
       style="fill:#000000;fill-opacity:1;fill-rule:nonzero;stroke:none"
       inkscape:connector-curvature="0" />
    <path
       id="path3032"
       d="m 0,0 22.003937,0 0,3.0118108 -22.003937,0 z"
       style="fill:#000000;fill-opacity:1;fill-rule:nonzero;stroke:none"
       inkscape:connector-curvature="0" />
  </g>
</svg>
