<?xml version="1.0" encoding="UTF-8" standalone="no"?>
<!-- Created with Inkscape (http://www.inkscape.org/) -->

<svg
   xmlns:dc="http://purl.org/dc/elements/1.1/"
   xmlns:cc="http://creativecommons.org/ns#"
   xmlns:rdf="http://www.w3.org/1999/02/22-rdf-syntax-ns#"
   xmlns:svg="http://www.w3.org/2000/svg"
   xmlns="http://www.w3.org/2000/svg"
   xmlns:sodipodi="http://sodipodi.sourceforge.net/DTD/sodipodi-0.dtd"
   xmlns:inkscape="http://www.inkscape.org/namespaces/inkscape"
   width="32"
   height="32"
   id="svg3447"
   version="1.1"
   inkscape:version="0.48.4 r9939"
   sodipodi:docname="button3-43.svg">
  <defs
     id="defs3449">
    <mask
       maskUnits="userSpaceOnUse"
       id="mask4325">
      <path
         transform="translate(24.5,-0.5)"
         d="m 156,80 a 11,11 0 1 1 -22,0 11,11 0 1 1 22,0 z"
         sodipodi:ry="11"
         sodipodi:rx="11"
         sodipodi:cy="80"
         sodipodi:cx="145"
         id="path4327"
         style="fill:#ffffff;fill-opacity:1;fill-rule:evenodd;stroke:none;display:inline"
         sodipodi:type="arc" />
    </mask>
    <mask
       maskUnits="userSpaceOnUse"
       id="mask4639">
      <path
         style="fill:#ffffff;fill-opacity:1;fill-rule:evenodd;stroke:none"
         d="m 8,198 0,12 c 0,4.41828 3.58172,8 8,8 4.41828,0 8,-3.58172 8,-8 l 0,-12 -16,0 z"
         id="path4641"
         inkscape:connector-curvature="0" />
    </mask>
  </defs>
  <sodipodi:namedview
     id="base"
     pagecolor="#ffffff"
     bordercolor="#666666"
     borderopacity="1.0"
     inkscape:pageopacity="0.0"
     inkscape:pageshadow="2"
     inkscape:zoom="11.173391"
     inkscape:cx="26.269024"
     inkscape:cy="14.733512"
     inkscape:document-units="px"
     inkscape:current-layer="layer1"
     showgrid="true"
     inkscape:snap-bbox="true"
     inkscape:window-width="1360"
     inkscape:window-height="706"
     inkscape:window-x="-8"
     inkscape:window-y="-8"
     inkscape:window-maximized="1"
     inkscape:snap-page="true">
    <inkscape:grid
       type="xygrid"
       id="grid3695"
       empspacing="5"
       visible="true"
       enabled="true"
       snapvisiblegridlinesonly="true" />
  </sodipodi:namedview>
  <metadata
     id="metadata3452">
    <rdf:RDF>
      <cc:Work
         rdf:about="">
        <dc:format>image/svg+xml</dc:format>
        <dc:type
           rdf:resource="http://purl.org/dc/dcmitype/StillImage" />
        <dc:title></dc:title>
      </cc:Work>
    </rdf:RDF>
  </metadata>
  <g
     inkscape:label="Layer 1"
     inkscape:groupmode="layer"
     id="layer1"
     transform="translate(0,-1020.3622)">
    <g
       id="g3254"
       transform="translate(0.003935,1020.3268)">
      <path
         id="path3256"
         d="m 0,0.03543307 31.996065,0 0,31.99606093 -31.996065,0 z"
         style="fill:#ffedc1;fill-opacity:1;fill-rule:nonzero;stroke:none"
         inkscape:connector-curvature="0" />
      <path
         id="path3258"
         d="m 19.94882,15.377952 c 0.141732,0.885827 0,1.807086 -0.496063,2.65748 -0.46063,0.814961 -1.204724,1.417323 -2.055118,1.73622 l 4.429134,6.732283 c 1.984252,-1.098425 3.649606,-2.763779 4.748032,-4.748031 0.92126,-1.700787 1.417323,-3.649606 1.417323,-5.740157 0,-0.03543 0,-0.106299 0,-0.177165 l -8.043308,-0.46063 z"
         style="fill:#000000;fill-opacity:1;fill-rule:evenodd;stroke:none"
         inkscape:connector-curvature="0" />
      <path
         id="path3260"
         d="m 18.000001,16.015747 c 0,1.133858 -0.885827,2.019685 -1.984252,2.019685 -1.133858,0 -2.019685,-0.885827 -2.019685,-2.019685 0,-1.098425 0.885827,-1.984252 2.019685,-1.984252 1.098425,0 1.984252,0.885827 1.984252,1.984252 z"
         style="fill:#000000;fill-opacity:1;fill-rule:evenodd;stroke:none"
         inkscape:connector-curvature="0" />
      <path
         id="path3262"
         d="m 16.015749,4.0393698 c -2.267717,0 -4.358268,0.6377953 -6.1653547,1.7007873 L 13.464568,12.93307 c 0.708661,-0.566929 1.594488,-0.885827 2.551181,-0.885827 0.956693,0 1.84252,0.318898 2.515748,0.885827 L 22.145671,5.7401571 C 20.338584,4.6771651 18.248033,4.0393698 16.015749,4.0393698 z"
         style="fill:#000000;fill-opacity:1;fill-rule:evenodd;stroke:none"
         inkscape:connector-curvature="0" />
      <path
         id="path3264"
         d="m 12.047245,15.377952 -8.0433078,0.46063 c 0,0.07087 0,0.141732 0,0.177165 0,2.090551 0.4960631,4.03937 1.417323,5.740157 1.0984252,1.984252 2.7637797,3.649606 4.7480318,4.748031 l 4.429134,-6.732283 c -0.850394,-0.318897 -1.594488,-0.921259 -2.055118,-1.73622 -0.496063,-0.850394 -0.637795,-1.771653 -0.496063,-2.65748 z"
         style="fill:#000000;fill-opacity:1;fill-rule:evenodd;stroke:none"
         inkscape:connector-curvature="0" />
    </g>
  </g>
</svg>
