<?xml version="1.0" encoding="UTF-8" standalone="no"?>
<svg
   xmlns:dc="http://purl.org/dc/elements/1.1/"
   xmlns:cc="http://creativecommons.org/ns#"
   xmlns:rdf="http://www.w3.org/1999/02/22-rdf-syntax-ns#"
   xmlns:svg="http://www.w3.org/2000/svg"
   xmlns="http://www.w3.org/2000/svg"
   xmlns:xlink="http://www.w3.org/1999/xlink"
   id="svg2"
   height="128"
   width="128"
   version="1.1">
  <defs
     id="defs4">
    <linearGradient
       id="linearGradient3071">
      <stop
         offset="0"
         style="stop-color:#016fa9;stop-opacity:1"
         id="stop3073" />
      <stop
         offset="1"
         style="stop-color:#0193e0;stop-opacity:1"
         id="stop3075" />
    </linearGradient>
    <linearGradient
       id="linearGradient4070">
      <stop
         offset="0"
         style="stop-color:#013552;stop-opacity:1"
         id="stop4072" />
      <stop
         offset="1"
         style="stop-color:#7ad0fe;stop-opacity:1"
         id="stop4074" />
    </linearGradient>
    <linearGradient
       id="linearGradient3886">
      <stop
         offset="0"
         style="stop-color:#016fa9;stop-opacity:1"
         id="stop3888" />
      <stop
         offset="1"
         style="stop-color:#7ad0fe;stop-opacity:0"
         id="stop3890" />
    </linearGradient>
    <linearGradient
       id="linearGradient3880">
      <stop
         offset="0"
         style="stop-color:#016fa9;stop-opacity:1"
         id="stop3882" />
      <stop
         offset="1"
         style="stop-color:#7ad0fe;stop-opacity:1"
         id="stop3884" />
    </linearGradient>
    <linearGradient
       id="linearGradient3821">
      <stop
         offset="0"
         style="stop-color:#016fa9;stop-opacity:1"
         id="stop3823" />
      <stop
         offset="1"
         style="stop-color:#7ad0fe;stop-opacity:1"
         id="stop3825" />
    </linearGradient>
    <linearGradient
       gradientUnits="userSpaceOnUse"
       xlink:href="#linearGradient3821"
       id="linearGradient3835"
       y2="76"
       x2="-126"
       y1="80"
       x1="-122" />
    <linearGradient
       gradientUnits="userSpaceOnUse"
       xlink:href="#linearGradient3821"
       id="linearGradient3843"
       y2="76"
       x2="-126"
       y1="80"
       x1="-122" />
    <linearGradient
       gradientTransform="matrix(0.99999778,0,0,1,793.71435,788.14789)"
       gradientUnits="userSpaceOnUse"
       xlink:href="#linearGradient3833"
       id="linearGradient3853"
       y2="5"
       x2="29"
       y1="3"
       x1="29" />
    <linearGradient
       id="linearGradient3833">
      <stop
         offset="0"
         style="stop-color:#c5c5c5;stop-opacity:1"
         id="stop3835" />
      <stop
         offset="1"
         style="stop-color:#ffffff;stop-opacity:0"
         id="stop3837" />
    </linearGradient>
    <linearGradient
       gradientTransform="matrix(0.99999997,0,0,2.2857139,-1549.1433,-984.69029)"
       gradientUnits="userSpaceOnUse"
       xlink:href="#linearGradient3880"
       id="linearGradient3915"
       y2="795.14789"
       x2="821.71429"
       y1="795.14789"
       x1="823.71429" />
    <linearGradient
       gradientTransform="matrix(0.99999835,0,0,1.0000003,697.42863,820.64791)"
       gradientUnits="userSpaceOnUse"
       xlink:href="#linearGradient3886"
       id="linearGradient3917"
       y2="5"
       x2="29"
       y1="3"
       x1="29" />
    <linearGradient
       gradientTransform="matrix(0.99999997,0,0,2.2857139,-1549.1433,-984.69029)"
       gradientUnits="userSpaceOnUse"
       xlink:href="#linearGradient3880"
       id="linearGradient3930"
       y2="795.14789"
       x2="821.71429"
       y1="795.14789"
       x1="823.71429" />
    <linearGradient
       gradientTransform="matrix(0.99999835,0,0,1.0000003,697.42863,820.64791)"
       gradientUnits="userSpaceOnUse"
       xlink:href="#linearGradient3886"
       id="linearGradient3932"
       y2="5"
       x2="29"
       y1="3"
       x1="29" />
    <linearGradient
       gradientTransform="matrix(0.99999997,0,0,2.2857139,-1549.1433,-984.69029)"
       gradientUnits="userSpaceOnUse"
       xlink:href="#linearGradient3880"
       id="linearGradient3940"
       y2="795.14789"
       x2="821.71429"
       y1="795.14789"
       x1="823.71429" />
    <linearGradient
       gradientTransform="matrix(0.99999835,0,0,1.0000003,697.42863,820.64791)"
       gradientUnits="userSpaceOnUse"
       xlink:href="#linearGradient3886"
       id="linearGradient3942"
       y2="5"
       x2="29"
       y1="3"
       x1="29" />
    <linearGradient
       gradientTransform="matrix(0.99999997,0,0,2.2857139,-1549.1433,-984.69029)"
       gradientUnits="userSpaceOnUse"
       xlink:href="#linearGradient3880"
       id="linearGradient3965"
       y2="795.14789"
       x2="821.71429"
       y1="795.14789"
       x1="823.71429" />
    <linearGradient
       gradientTransform="matrix(0.99999835,0,0,1.0000003,697.42863,820.64791)"
       gradientUnits="userSpaceOnUse"
       xlink:href="#linearGradient3886"
       id="linearGradient3967"
       y2="5"
       x2="29"
       y1="3"
       x1="29" />
    <linearGradient
       gradientTransform="matrix(0.99999997,0,0,2.2857139,-1549.1433,-984.69029)"
       gradientUnits="userSpaceOnUse"
       xlink:href="#linearGradient3880"
       id="linearGradient3980"
       y2="795.14789"
       x2="821.71429"
       y1="795.14789"
       x1="823.71429" />
    <linearGradient
       gradientTransform="matrix(0.99999835,0,0,1.0000003,697.42863,820.64791)"
       gradientUnits="userSpaceOnUse"
       xlink:href="#linearGradient3886"
       id="linearGradient3982"
       y2="5"
       x2="29"
       y1="3"
       x1="29" />
    <linearGradient
       gradientTransform="matrix(0.99999997,0,0,2.2857139,-1549.1433,-984.69029)"
       gradientUnits="userSpaceOnUse"
       xlink:href="#linearGradient3880"
       id="linearGradient3990"
       y2="795.14789"
       x2="821.71429"
       y1="795.14789"
       x1="823.71429" />
    <linearGradient
       gradientTransform="matrix(0.99999835,0,0,1.0000003,697.42863,820.64791)"
       gradientUnits="userSpaceOnUse"
       xlink:href="#linearGradient3886"
       id="linearGradient3992"
       y2="5"
       x2="29"
       y1="3"
       x1="29" />
    <linearGradient
       gradientTransform="translate(-26.5714,32.321451)"
       gradientUnits="userSpaceOnUse"
       xlink:href="#linearGradient4070"
       id="linearGradient3952"
       y2="840.64789"
       x2="762.42859"
       y1="898.64789"
       x1="820.42859" />
    <linearGradient
       gradientTransform="translate(898.85716,779.96932)"
       gradientUnits="userSpaceOnUse"
       xlink:href="#linearGradient3071"
       id="linearGradient3954"
       y2="94.286156"
       x2="-162.00322"
       y1="150.09709"
       x1="-106.06602" />
    <linearGradient
       gradientTransform="translate(-26.5714,32.321451)"
       gradientUnits="userSpaceOnUse"
       xlink:href="#linearGradient4070"
       id="linearGradient3989"
       y2="840.64789"
       x2="762.42859"
       y1="898.64789"
       x1="820.42859" />
    <linearGradient
       gradientTransform="translate(898.85716,779.96932)"
       gradientUnits="userSpaceOnUse"
       xlink:href="#linearGradient3071"
       id="linearGradient3991"
       y2="94.286156"
       x2="-162.00322"
       y1="150.09709"
       x1="-106.06602" />
    <linearGradient
       gradientTransform="translate(1029.4286,688.64785)"
       gradientUnits="userSpaceOnUse"
       xlink:href="#linearGradient3071"
       id="linearGradient4082"
       y2="94.286156"
       x2="-162.00322"
       y1="150.09709"
       x1="-106.06602" />
    <linearGradient
       gradientTransform="translate(104.00007,-59.000018)"
       gradientUnits="userSpaceOnUse"
       xlink:href="#linearGradient4070"
       id="linearGradient4090"
       y2="841.64789"
       x2="763.42853"
       y1="898.64789"
       x1="820.42859" />
    <clipPath
       id="clipPath4113">
      <path
         style="fill:#f50000;fill-opacity:1;stroke:none"
         id="path4115"
         d="m 868.42859,792.64789 0,45 54,0 0,-54 -45,0 z" />
    </clipPath>
    <clipPath
       id="clipPath4119">
      <path
         style="fill:#f50000;fill-opacity:1;stroke:none"
         id="path4121"
         d="m 868.42859,792.64789 0,45 54,0 0,-54 -45,0 z" />
    </clipPath>
    <clipPath
       id="clipPath4125">
      <path
         style="fill:#f50000;fill-opacity:1;stroke:none"
         id="path4127"
         d="m 868.42859,792.64789 0,45 54,0 0,-54 -45,0 z" />
    </clipPath>
    <clipPath
       id="clipPath4146">
      <path
         style="fill:#f50000;fill-opacity:1;stroke:none"
         id="path4148"
         d="m 868.42859,792.64789 0,45 54,0 0,-54 -45,0 z" />
    </clipPath>
  </defs>
  <metadata
     id="metadata7">
    <rdf:RDF>
      <cc:Work
         rdf:about="">
        <dc:format>image/svg+xml</dc:format>
        <dc:type
           rdf:resource="http://purl.org/dc/dcmitype/StillImage" />
        <dc:title></dc:title>
      </cc:Work>
    </rdf:RDF>
  </metadata>
  <g
     id="layer1"
     transform="translate(-827.42859,-742.64789)">
    <rect
       style="fill:#0aa6fe;fill-opacity:1;stroke:none"
       id="rect3766"
       y="742.64789"
       x="827.42859"
       height="128"
       width="128" />
    <g
       id="g3814"
       transform="translate(0.5,1.5)">
      <path
         style="fill:#016fa9;fill-opacity:1;stroke:none"
         id="path3768"
         d="m 829.42859,870.82646 0,-53 74,-74 53,0 0,3 -52,0 -72,72 0,52 z" />
      <path
         style="fill:none;stroke:#016093;stroke-width:1px;stroke-linecap:butt;stroke-linejoin:miter;stroke-opacity:1"
         id="path3789"
         d="m 829.42859,870.64789 0,-53 74,-74 53,0" />
      <path
         style="fill:none;stroke:#7ad0fe;stroke-width:1px;stroke-linecap:butt;stroke-linejoin:miter;stroke-opacity:1"
         id="path3791"
         d="m 832.42859,870.64789 0,-52 72,-72 52,0" />
    </g>
    <g
       id="g3831"
       transform="translate(122,2)">
      <path
         style="fill:url(#linearGradient3835);fill-opacity:1;stroke:none"
         id="path3819"
         transform="translate(838.42859,741.64789)"
         d="m -122,78 a 2,2 0 1 1 -4,0 2,2 0 1 1 4,0 z" />
      <path
         style="fill:#0090e2;fill-opacity:1;stroke:none"
         id="path3829"
         transform="translate(838.42859,741.64789)"
         d="m -123,78 a 1,1 0 1 1 -2,0 1,1 0 1 1 2,0 z" />
    </g>
    <g
       id="g3837"
       transform="translate(192,-68)">
      <path
         style="fill:url(#linearGradient3843);fill-opacity:1;stroke:none"
         id="path3839"
         transform="translate(838.42859,741.64789)"
         d="m -122,78 a 2,2 0 1 1 -4,0 2,2 0 1 1 4,0 z" />
      <path
         style="fill:#0090e2;fill-opacity:1;stroke:none"
         id="path3841"
         transform="translate(838.42859,741.64789)"
         d="m -123,78 a 1,1 0 1 1 -2,0 1,1 0 1 1 2,0 z" />
    </g>
    <g
       id="g3892"
       transform="translate(125,-1.8188484e-7)">
      <rect
         style="fill:url(#linearGradient3915);fill-opacity:1;stroke:none"
         id="rect3847"
         transform="scale(-1,1)"
         y="823.64789"
         x="-727.42859"
         height="16.000002"
         width="2.0000012" />
      <rect
         style="fill:url(#linearGradient3917);fill-opacity:1;stroke:none"
         id="rect3849"
         y="823.64789"
         x="725.42859"
         height="2.0000005"
         width="1.9999968" />
    </g>
    <g
       id="g3924"
       transform="translate(129,1.8164062e-6)">
      <rect
         style="fill:url(#linearGradient3930);fill-opacity:1;stroke:none"
         id="rect3926"
         transform="scale(-1,1)"
         y="823.64789"
         x="-727.42859"
         height="16.000002"
         width="2.0000012" />
      <rect
         style="fill:url(#linearGradient3932);fill-opacity:1;stroke:none"
         id="rect3928"
         y="823.64789"
         x="725.42859"
         height="2.0000005"
         width="1.9999968" />
    </g>
    <g
       id="g3934"
       transform="translate(133,1.8164062e-6)">
      <rect
         style="fill:url(#linearGradient3940);fill-opacity:1;stroke:none"
         id="rect3936"
         transform="scale(-1,1)"
         y="823.64789"
         x="-727.42859"
         height="16.000002"
         width="2.0000012" />
      <rect
         style="fill:url(#linearGradient3942);fill-opacity:1;stroke:none"
         id="rect3938"
         y="823.64789"
         x="725.42859"
         height="2.0000005"
         width="1.9999968" />
    </g>
    <g
       id="g3944"
       transform="matrix(0,1,-1,0,1748.0765,40.219301)">
      <rect
         style="fill:url(#linearGradient3965);fill-opacity:1;stroke:none"
         id="rect3946"
         transform="scale(-1,1)"
         y="823.64789"
         x="-727.42859"
         height="16.000002"
         width="2.0000012" />
      <rect
         style="fill:url(#linearGradient3967);fill-opacity:1;stroke:none"
         id="rect3948"
         y="823.64789"
         x="725.42859"
         height="2.0000005"
         width="1.9999968" />
    </g>
    <g
       id="g3974"
       transform="matrix(0,1,-1,0,1748.0765,44.219301)">
      <rect
         style="fill:url(#linearGradient3980);fill-opacity:1;stroke:none"
         id="rect3976"
         transform="scale(-1,1)"
         y="823.64789"
         x="-727.42859"
         height="16.000002"
         width="2.0000012" />
      <rect
         style="fill:url(#linearGradient3982);fill-opacity:1;stroke:none"
         id="rect3978"
         y="823.64789"
         x="725.42859"
         height="2.0000005"
         width="1.9999968" />
    </g>
    <g
       id="g3984"
       transform="matrix(0,1,-1,0,1748.0765,48.219301)">
      <rect
         style="fill:url(#linearGradient3990);fill-opacity:1;stroke:none"
         id="rect3986"
         transform="scale(-1,1)"
         y="823.64789"
         x="-727.42859"
         height="16.000002"
         width="2.0000012" />
      <rect
         style="fill:url(#linearGradient3992);fill-opacity:1;stroke:none"
         id="rect3988"
         y="823.64789"
         x="725.42859"
         height="2.0000005"
         width="1.9999968" />
    </g>
    <g
       id="g4008"
       transform="translate(142.98286,8.6110402)">
      <g
         id="g3998"
         transform="translate(-9.9828579,8.3889598)">
        <path
           style="fill:#016fa9;fill-opacity:1;stroke:none"
           id="path3994"
           d="m 703.42859,853.64789 16,-16 0,8 12,0 0,8 z" />
        <path
           style="fill:#0090e2;fill-opacity:1;stroke:none"
           id="path3996"
           d="m 704.89288,853.64789 13.53571,-13.49107 0,6.49107 12,0 0,7 z" />
      </g>
      <g
         id="g4002"
         transform="matrix(1,0,0,-1,-9.9828579,1715.6848)">
        <path
           style="fill:#016fa9;fill-opacity:1;stroke:none"
           id="path4004"
           d="m 703.42859,853.64789 16,-16 0,8 12,0 0,8 z" />
        <path
           style="fill:#0090e2;fill-opacity:1;stroke:none"
           id="path4006"
           d="m 704.89288,853.64789 13.53571,-13.49107 0,6.49107 12,0 0,7 z" />
      </g>
    </g>
    <g
       id="g4016"
       transform="matrix(0,1,-1,0,1817.4654,58.202158)">
      <g
         id="g4018"
         transform="translate(-9.9828579,8.3889598)">
        <path
           style="fill:#016fa9;fill-opacity:1;stroke:none"
           id="path4020"
           d="m 703.42859,853.64789 16,-16 0,8 12,0 0,8 z" />
        <path
           style="fill:#0090e2;fill-opacity:1;stroke:none"
           id="path4022"
           d="m 704.89288,853.64789 13.53571,-13.49107 0,6.49107 12,0 0,7 z" />
      </g>
      <g
         id="g4024"
         transform="matrix(1,0,0,-1,-9.9828579,1715.6848)">
        <path
           style="fill:#016fa9;fill-opacity:1;stroke:none"
           id="path4026"
           d="m 703.42859,853.64789 16,-16 0,8 12,0 0,8 z" />
        <path
           style="fill:#0090e2;fill-opacity:1;stroke:none"
           id="path4028"
           d="m 704.89288,853.64789 13.53571,-13.49107 0,6.49107 12,0 0,7 z" />
      </g>
    </g>
    <g
       id="g3918"
       transform="translate(118.85786,-52.022601)">
      <g
         id="g3897"
         transform="translate(14.142136,21.022601)">
        <g
           id="g3081"
           transform="translate(-2.4285267,-0.32147035)">
          <rect
             style="fill:url(#linearGradient3952);fill-opacity:1;stroke:none"
             id="rect4068"
             y="872.96936"
             x="735.85712"
             height="58"
             width="58" />
          <rect
             style="fill:url(#linearGradient3954);fill-opacity:1;stroke:none"
             id="rect3069"
             y="873.96936"
             x="736.85712"
             height="56"
             width="56" />
        </g>
        <rect
           style="fill:#000000;fill-opacity:1;stroke:none"
           id="rect3079"
           y="874.64789"
           x="735.42859"
           height="54"
           width="54" />
        <rect
           style="fill:#ffff00;fill-opacity:1;stroke:none"
           id="rect3091"
           transform="translate(827.42859,742.64789)"
           y="133"
           x="-91"
           height="52"
           width="52" />
        <path
           style="fill:#000000;fill-opacity:1;stroke:none"
           id="path3093"
           d="m 735.42859,874.64789 54,54 -8,0 -46,-46 z" />
        <path
           style="fill:#000000;fill-opacity:1;stroke:none"
           id="path3863"
           d="m 735.42859,890.64789 38,38 -8,0 -30,-30 z" />
        <path
           style="fill:#000000;fill-opacity:1;stroke:none"
           id="path3865"
           d="m 735.42859,906.64789 22,22 -8,0 -14,-14 z" />
        <path
           style="fill:#000000;fill-opacity:1;stroke:none"
           id="path3867"
           d="m 735.42859,922.64789 6,6 -5,0 -1,-1 z" />
        <path
           style="fill:#000000;fill-opacity:1;stroke:none"
           id="path3887"
           d="m 750.42859,874.64789 39,39 0,7 -46,-46 z" />
        <path
           style="fill:#000000;fill-opacity:1;stroke:none"
           id="path3891"
           d="m 767.42859,874.64789 22,22 0,8 -30,-30 z" />
        <path
           style="fill:#000000;fill-opacity:1;stroke:none"
           id="path3893"
           d="m 783.42859,874.64789 6,6 0,8 -14,-14 z" />
      </g>
    </g>
    <rect
       style="fill:#0aa6fe;fill-opacity:1;stroke:none"
       id="rect3933"
       y="848.64789"
       x="873.42859"
       height="44"
       width="44" />
    <g
       id="g3958"
       transform="translate(178.85786,-112.0226)">
      <g
         id="g3960"
         transform="translate(14.142136,21.022601)">
        <g
           id="g3962"
           transform="translate(-2.4285267,-0.32147035)">
          <rect
             style="fill:url(#linearGradient3989);fill-opacity:1;stroke:none"
             id="rect3964"
             y="872.96936"
             x="735.85712"
             height="58"
             width="58" />
          <rect
             style="fill:url(#linearGradient3991);fill-opacity:1;stroke:none"
             id="rect3966"
             y="873.96936"
             x="736.85712"
             height="56"
             width="56" />
        </g>
        <rect
           style="fill:#000000;fill-opacity:1;stroke:none"
           id="rect3968"
           y="874.64789"
           x="735.42859"
           height="54"
           width="54" />
        <rect
           style="fill:#ffff00;fill-opacity:1;stroke:none"
           id="rect3970"
           transform="translate(827.42859,742.64789)"
           y="133"
           x="-91"
           height="52"
           width="52" />
        <path
           style="fill:#000000;fill-opacity:1;stroke:none"
           id="path3972"
           d="m 735.42859,874.64789 54,54 -8,0 -46,-46 z" />
        <path
           style="fill:#000000;fill-opacity:1;stroke:none"
           id="path3974"
           d="m 735.42859,890.64789 38,38 -8,0 -30,-30 z" />
        <path
           style="fill:#000000;fill-opacity:1;stroke:none"
           id="path3976"
           d="m 735.42859,906.64789 22,22 -8,0 -14,-14 z" />
        <path
           style="fill:#000000;fill-opacity:1;stroke:none"
           id="path3978"
           d="m 735.42859,922.64789 6,6 -5,0 -1,-1 z" />
        <path
           style="fill:#000000;fill-opacity:1;stroke:none"
           id="path3980"
           d="m 750.42859,874.64789 39,39 0,7 -46,-46 z" />
        <path
           style="fill:#000000;fill-opacity:1;stroke:none"
           id="path3982"
           d="m 767.42859,874.64789 22,22 0,8 -30,-30 z" />
        <path
           style="fill:#000000;fill-opacity:1;stroke:none"
           id="path3984"
           d="m 783.42859,874.64789 6,6 0,8 -14,-14 z" />
      </g>
    </g>
    <rect
       style="fill:#0aa6fe;fill-opacity:1;stroke:none"
       id="rect3987"
       y="788.64789"
       x="933.42859"
       height="44"
       width="44" />
    <path
       style="fill:url(#linearGradient4090);fill-opacity:1;stroke:none"
       id="rect4001"
       d="m 875.42859,781.64789 49,0 0,58 -58,0 0,-49 z" />
    <path
       style="fill:url(#linearGradient4082);fill-opacity:1;stroke:none"
       id="rect4003"
       d="m 875.92859,782.64789 47.5,0 0,56 -56,0 0,-47.375 z" />
    <rect
       style="fill:#000000;fill-opacity:1;stroke:none"
       id="rect4005"
       clip-path="url(#clipPath4119)"
       y="783.64789"
       x="868.42859"
       height="54"
       width="54" />
    <rect
       style="fill:#ffff00;fill-opacity:1;stroke:none"
       id="rect4007"
       clip-path="url(#clipPath4113)"
       y="784.64789"
       x="869.42859"
       height="52"
       width="52" />
    <path
       style="fill:#000000;fill-opacity:1;stroke:none"
       id="path4009"
       clip-path="url(#clipPath4125)"
       d="m 868.42859,783.64789 54,54 -8,0 -46,-46 z" />
    <path
       style="fill:#000000;fill-opacity:1;stroke:none"
       id="path4011"
       d="m 868.42859,799.64789 38,38 -8,0 -30,-30 z" />
    <path
       style="fill:#000000;fill-opacity:1;stroke:none"
       id="path4013"
       d="m 868.42859,815.64789 22,22 -8,0 -14,-14 z" />
    <path
       style="fill:#000000;fill-opacity:1;stroke:none"
       id="path4015"
       d="m 868.42859,831.64789 6,6 -5,0 -1,-1 z" />
    <path
       style="fill:#000000;fill-opacity:1;stroke:none"
       id="path4017"
       clip-path="url(#clipPath4146)"
       d="m 883.42859,783.64789 39,39 0,7 -46,-46 z" />
    <path
       style="fill:#000000;fill-opacity:1;stroke:none"
       id="path4019"
       d="m 900.42859,783.64789 22,22 0,8 -30,-30 z" />
    <path
       style="fill:#000000;fill-opacity:1;stroke:none"
       id="path4021"
       d="m 916.42859,783.64789 6,6 0,8 -14,-14 z" />
    <rect
       style="fill:#0aa6fe;fill-opacity:1;stroke:none"
       id="rect4023"
       y="788.64789"
       x="873.42859"
       height="44"
       width="44" />
    <g
       id="g4030"
       transform="matrix(0.70710678,0.70710678,-0.70710678,0.70710678,994.64055,-309.24439)">
      <g
         id="g4032"
         transform="translate(-9.9828579,8.3889598)">
        <path
           style="fill:#016fa9;fill-opacity:1;stroke:none"
           id="path4034"
           d="m 703.3844,853.73628 16.04419,-16.08839 0,8 12,0 -0.0442,8.13259 z" />
        <path
           style="fill:#0090e2;fill-opacity:1;stroke:none"
           id="path4036"
           d="m 704.84869,853.69208 13.5799,-13.53526 0,6.49107 12,0 0,7 z" />
      </g>
      <g
         id="g4038"
         transform="matrix(1,0,0,-1,-9.9828579,1715.6848)">
        <path
           style="fill:#016fa9;fill-opacity:1;stroke:none"
           id="path4040"
           d="m 703.3844,853.6037 16.04419,-15.95581 0,8 12,0 -0.0442,7.91161 z" />
        <path
           style="fill:#0090e2;fill-opacity:1;stroke:none"
           id="path4042"
           d="m 704.89288,853.64789 13.53571,-13.49107 0,6.49107 12,0 0.003,13.93852 z" />
      </g>
    </g>
    <rect
       style="fill:#016fa9;fill-opacity:1;stroke:none"
       id="rect3127"
       y="855.64789"
       x="940.42859"
       height="15"
       width="15" />
    <rect
       style="fill:#0185cb;fill-opacity:1;stroke:none"
       id="rect3129"
       y="856.64789"
       x="941.42859"
       height="14"
       width="14" />
  </g>
</svg>
