<?xml version="1.0" encoding="UTF-8" standalone="no"?>
<svg
   xmlns:dc="http://purl.org/dc/elements/1.1/"
   xmlns:cc="http://creativecommons.org/ns#"
   xmlns:rdf="http://www.w3.org/1999/02/22-rdf-syntax-ns#"
   xmlns:svg="http://www.w3.org/2000/svg"
   xmlns="http://www.w3.org/2000/svg"
   xmlns:xlink="http://www.w3.org/1999/xlink"
   id="svg2"
   height="256"
   width="28"
   version="1.1">
  <defs
     id="defs4">
    <linearGradient
       id="linearGradient4382">
      <stop
         offset="0"
         style="stop-color:#aaaaaa;stop-opacity:1"
         id="stop4384" />
      <stop
         offset="1"
         style="stop-color:#cacaca;stop-opacity:1"
         id="stop4386" />
    </linearGradient>
    <linearGradient
       id="linearGradient4364">
      <stop
         offset="0"
         style="stop-color:#8a8a8a;stop-opacity:1"
         id="stop4366" />
      <stop
         offset="1"
         style="stop-color:#e4e4e4;stop-opacity:1"
         id="stop4368" />
    </linearGradient>
    <linearGradient
       id="linearGradient4126">
      <stop
         offset="0"
         style="stop-color:#aaaaaa;stop-opacity:1"
         id="stop4128" />
      <stop
         offset="1"
         style="stop-color:#cacaca;stop-opacity:1"
         id="stop4130" />
    </linearGradient>
    <linearGradient
       id="linearGradient4088">
      <stop
         offset="0"
         style="stop-color:#aaaaaa;stop-opacity:1"
         id="stop4090" />
      <stop
         offset="1"
         style="stop-color:#cacaca;stop-opacity:0"
         id="stop4092" />
    </linearGradient>
    <linearGradient
       id="linearGradient4078">
      <stop
         offset="0"
         style="stop-color:#aaaaaa;stop-opacity:1"
         id="stop4080" />
      <stop
         offset="1"
         style="stop-color:#cacaca;stop-opacity:1"
         id="stop4082" />
    </linearGradient>
    <linearGradient
       id="linearGradient3222">
      <stop
         offset="0"
         style="stop-color:#aaaaaa;stop-opacity:1"
         id="stop3224" />
      <stop
         offset="1"
         style="stop-color:#cacaca;stop-opacity:1"
         id="stop3226" />
    </linearGradient>
    <linearGradient
       id="linearGradient3934">
      <stop
         offset="0"
         style="stop-color:#8a8a8a;stop-opacity:1"
         id="stop3936" />
      <stop
         offset="1"
         style="stop-color:#e4e4e4;stop-opacity:1"
         id="stop3938" />
    </linearGradient>
    <linearGradient
       id="linearGradient3885">
      <stop
         offset="0"
         style="stop-color:#0aa6fe;stop-opacity:1"
         id="stop3887" />
      <stop
         offset="1"
         style="stop-color:#016fa9;stop-opacity:1"
         id="stop3889" />
    </linearGradient>
    <linearGradient
       id="linearGradient3447">
      <stop
         offset="0"
         style="stop-color:#d6d6d6;stop-opacity:1"
         id="stop3449" />
      <stop
         offset="0.68813419"
         style="stop-color:#969696;stop-opacity:1"
         id="stop3451" />
      <stop
         offset="1"
         style="stop-color:#d6d6d6;stop-opacity:1"
         id="stop3453" />
    </linearGradient>
    <linearGradient
       id="linearGradient3163">
      <stop
         offset="0"
         style="stop-color:#d6d6d6;stop-opacity:1"
         id="stop3165" />
      <stop
         offset="0.68813419"
         style="stop-color:#969696;stop-opacity:1"
         id="stop3171" />
      <stop
         offset="1"
         style="stop-color:#c0c0c0;stop-opacity:1"
         id="stop3167" />
    </linearGradient>
    <linearGradient
       id="linearGradient3076">
      <stop
         offset="0"
         style="stop-color:#b6b6b6;stop-opacity:1"
         id="stop3078" />
      <stop
         offset="1"
         style="stop-color:#c0c0c0;stop-opacity:1"
         id="stop3080" />
    </linearGradient>
    <linearGradient
       id="linearGradient3034">
      <stop
         offset="0"
         style="stop-color:#aaaaaa;stop-opacity:1"
         id="stop3036" />
      <stop
         offset="1"
         style="stop-color:#cacaca;stop-opacity:1"
         id="stop3038" />
    </linearGradient>
    <linearGradient
       gradientUnits="userSpaceOnUse"
       xlink:href="#linearGradient3034"
       id="linearGradient3040"
       y2="6"
       x2="-26"
       y1="8"
       x1="-24" />
    <linearGradient
       gradientUnits="userSpaceOnUse"
       xlink:href="#linearGradient3034-4"
       id="linearGradient3040-7"
       y2="6"
       x2="-26"
       y1="8"
       x1="-24" />
    <linearGradient
       id="linearGradient3034-4">
      <stop
         offset="0"
         style="stop-color:#aaaaaa;stop-opacity:1"
         id="stop3036-0" />
      <stop
         offset="1"
         style="stop-color:#cacaca;stop-opacity:1"
         id="stop3038-9" />
    </linearGradient>
    <linearGradient
       gradientUnits="userSpaceOnUse"
       xlink:href="#linearGradient3076"
       id="linearGradient3057"
       y2="6.5535712"
       x2="-25.267857"
       y1="8.1964283"
       x1="-23.892857" />
    <linearGradient
       id="linearGradient3034-8">
      <stop
         offset="0"
         style="stop-color:#aaaaaa;stop-opacity:1"
         id="stop3036-2" />
      <stop
         offset="1"
         style="stop-color:#cacaca;stop-opacity:1"
         id="stop3038-4" />
    </linearGradient>
    <linearGradient
       gradientUnits="userSpaceOnUse"
       xlink:href="#linearGradient3076-5"
       id="linearGradient3057-5"
       y2="6.5535712"
       x2="-25.267857"
       y1="8.1964283"
       x1="-23.892857" />
    <linearGradient
       id="linearGradient3076-5">
      <stop
         offset="0"
         style="stop-color:#b6b6b6;stop-opacity:1"
         id="stop3078-1" />
      <stop
         offset="1"
         style="stop-color:#c0c0c0;stop-opacity:1"
         id="stop3080-7" />
    </linearGradient>
    <linearGradient
       gradientUnits="userSpaceOnUse"
       xlink:href="#linearGradient3034-8"
       id="linearGradient3157"
       y2="6"
       x2="-24"
       y1="8"
       x1="-26" />
    <linearGradient
       gradientUnits="userSpaceOnUse"
       xlink:href="#linearGradient3076-5"
       id="linearGradient3159"
       y2="6.5535712"
       x2="-25.267857"
       y1="7.8035712"
       x1="-26.196428" />
    <linearGradient
       gradientUnits="userSpaceOnUse"
       xlink:href="#linearGradient3163"
       id="linearGradient3169"
       y2="455.36218"
       x2="376"
       y1="447.36218"
       x1="376" />
    <linearGradient
       id="linearGradient3034-8-7">
      <stop
         offset="0"
         style="stop-color:#aaaaaa;stop-opacity:1"
         id="stop3036-2-6" />
      <stop
         offset="1"
         style="stop-color:#cacaca;stop-opacity:1"
         id="stop3038-4-1" />
    </linearGradient>
    <linearGradient
       id="linearGradient3076-5-9">
      <stop
         offset="0"
         style="stop-color:#b6b6b6;stop-opacity:1"
         id="stop3078-1-2" />
      <stop
         offset="1"
         style="stop-color:#c0c0c0;stop-opacity:1"
         id="stop3080-7-7" />
    </linearGradient>
    <linearGradient
       gradientUnits="userSpaceOnUse"
       xlink:href="#linearGradient3163-7"
       id="linearGradient3169-8"
       y2="455.36218"
       x2="376"
       y1="447.36218"
       x1="376" />
    <linearGradient
       id="linearGradient3163-7">
      <stop
         offset="0"
         style="stop-color:#d6d6d6;stop-opacity:1"
         id="stop3165-4" />
      <stop
         offset="0.68813419"
         style="stop-color:#969696;stop-opacity:1"
         id="stop3171-2" />
      <stop
         offset="1"
         style="stop-color:#c0c0c0;stop-opacity:1"
         id="stop3167-7" />
    </linearGradient>
    <linearGradient
       gradientTransform="translate(-1.65e-5,124.99996)"
       gradientUnits="userSpaceOnUse"
       xlink:href="#linearGradient3447"
       id="linearGradient3325"
       y2="455.36218"
       x2="376"
       y1="447.36218"
       x1="376" />
    <linearGradient
       gradientUnits="userSpaceOnUse"
       xlink:href="#linearGradient3034-2-3"
       id="linearGradient3040-4-9"
       y2="6"
       x2="-26"
       y1="8"
       x1="-24" />
    <linearGradient
       id="linearGradient3034-2-3">
      <stop
         offset="0"
         style="stop-color:#aaaaaa;stop-opacity:1"
         id="stop3036-3-1" />
      <stop
         offset="1"
         style="stop-color:#cacaca;stop-opacity:1"
         id="stop3038-2-9" />
    </linearGradient>
    <linearGradient
       gradientUnits="userSpaceOnUse"
       xlink:href="#linearGradient3076-1-6"
       id="linearGradient3057-2-8"
       y2="6.5535712"
       x2="-25.267857"
       y1="8.1964283"
       x1="-23.892857" />
    <linearGradient
       id="linearGradient3076-1-6">
      <stop
         offset="0"
         style="stop-color:#b6b6b6;stop-opacity:1"
         id="stop3078-6-5" />
      <stop
         offset="1"
         style="stop-color:#c0c0c0;stop-opacity:1"
         id="stop3080-8-0" />
    </linearGradient>
    <linearGradient
       gradientUnits="userSpaceOnUse"
       xlink:href="#linearGradient3034-8-7-8"
       id="linearGradient3157-5-2"
       y2="6"
       x2="-24"
       y1="8"
       x1="-26" />
    <linearGradient
       id="linearGradient3034-8-7-8">
      <stop
         offset="0"
         style="stop-color:#aaaaaa;stop-opacity:1"
         id="stop3036-2-6-6" />
      <stop
         offset="1"
         style="stop-color:#cacaca;stop-opacity:1"
         id="stop3038-4-1-0" />
    </linearGradient>
    <linearGradient
       gradientUnits="userSpaceOnUse"
       xlink:href="#linearGradient3076-5-9-4"
       id="linearGradient3159-8-2"
       y2="6.5535712"
       x2="-25.267857"
       y1="7.8035712"
       x1="-26.196428" />
    <linearGradient
       id="linearGradient3076-5-9-4">
      <stop
         offset="0"
         style="stop-color:#b6b6b6;stop-opacity:1"
         id="stop3078-1-2-8" />
      <stop
         offset="1"
         style="stop-color:#c0c0c0;stop-opacity:1"
         id="stop3080-7-7-6" />
    </linearGradient>
    <linearGradient
       gradientUnits="userSpaceOnUse"
       xlink:href="#linearGradient3034-8-7"
       id="linearGradient3655"
       y2="6"
       x2="-24"
       y1="8"
       x1="-26" />
    <linearGradient
       gradientUnits="userSpaceOnUse"
       xlink:href="#linearGradient3076-5-9"
       id="linearGradient3657"
       y2="6.5535712"
       x2="-25.267857"
       y1="7.8035712"
       x1="-26.196428" />
    <linearGradient
       gradientUnits="userSpaceOnUse"
       xlink:href="#linearGradient3034-8-7"
       id="linearGradient3665"
       y2="6"
       x2="-24"
       y1="8"
       x1="-26" />
    <linearGradient
       gradientUnits="userSpaceOnUse"
       xlink:href="#linearGradient3076-5-9"
       id="linearGradient3667"
       y2="6.5535712"
       x2="-25.267857"
       y1="7.8035712"
       x1="-26.196428" />
    <linearGradient
       gradientUnits="userSpaceOnUse"
       xlink:href="#linearGradient3034-8-7"
       id="linearGradient3675"
       y2="6"
       x2="-24"
       y1="8"
       x1="-26" />
    <linearGradient
       gradientUnits="userSpaceOnUse"
       xlink:href="#linearGradient3076-5-9"
       id="linearGradient3677"
       y2="6.5535712"
       x2="-25.267857"
       y1="7.8035712"
       x1="-26.196428" />
    <linearGradient
       gradientUnits="userSpaceOnUse"
       xlink:href="#linearGradient3034-8-7"
       id="linearGradient3685"
       y2="6"
       x2="-24"
       y1="8"
       x1="-26" />
    <linearGradient
       gradientUnits="userSpaceOnUse"
       xlink:href="#linearGradient3076-5-9"
       id="linearGradient3687"
       y2="6.5535712"
       x2="-25.267857"
       y1="7.8035712"
       x1="-26.196428" />
    <linearGradient
       gradientUnits="userSpaceOnUse"
       xlink:href="#linearGradient3885"
       id="linearGradient3891"
       y2="647.36218"
       x2="376"
       y1="650.36218"
       x1="376" />
    <linearGradient
       gradientUnits="userSpaceOnUse"
       xlink:href="#linearGradient3934"
       id="linearGradient3940"
       y2="240"
       x2="14"
       y1="242"
       x1="14" />
    <linearGradient
       gradientTransform="translate(361,404.36218)"
       gradientUnits="userSpaceOnUse"
       xlink:href="#linearGradient3222"
       id="linearGradient4064"
       y2="3"
       x2="0"
       y1="9"
       x1="5" />
    <linearGradient
       gradientUnits="userSpaceOnUse"
       xlink:href="#linearGradient3034-8"
       id="linearGradient4066"
       y2="6"
       x2="-24"
       y1="8"
       x1="-26" />
    <linearGradient
       gradientUnits="userSpaceOnUse"
       xlink:href="#linearGradient3076-5"
       id="linearGradient4068"
       y2="6.5535712"
       x2="-25.267857"
       y1="7.8035712"
       x1="-26.196428" />
    <linearGradient
       gradientUnits="userSpaceOnUse"
       xlink:href="#linearGradient4078"
       id="linearGradient4100"
       y2="535.36218"
       x2="370"
       y1="535.36218"
       x1="368" />
    <linearGradient
       gradientUnits="userSpaceOnUse"
       xlink:href="#linearGradient4088"
       id="linearGradient4102"
       y2="125"
       x2="8"
       y1="123"
       x1="8" />
    <linearGradient
       gradientUnits="userSpaceOnUse"
       xlink:href="#linearGradient4078"
       id="linearGradient4110"
       y2="535.36218"
       x2="370"
       y1="535.36218"
       x1="368" />
    <linearGradient
       gradientUnits="userSpaceOnUse"
       xlink:href="#linearGradient4088"
       id="linearGradient4112"
       y2="125"
       x2="8"
       y1="123"
       x1="8" />
    <linearGradient
       gradientUnits="userSpaceOnUse"
       xlink:href="#linearGradient4078"
       id="linearGradient4120"
       y2="535.36218"
       x2="370"
       y1="535.36218"
       x1="368" />
    <linearGradient
       gradientUnits="userSpaceOnUse"
       xlink:href="#linearGradient4088"
       id="linearGradient4122"
       y2="125"
       x2="8"
       y1="123"
       x1="8" />
    <linearGradient
       gradientTransform="translate(390,404.36218)"
       gradientUnits="userSpaceOnUse"
       xlink:href="#linearGradient4126"
       id="linearGradient4132"
       y2="118"
       x2="-27"
       y1="139"
       x1="-3" />
    <linearGradient
       gradientTransform="translate(361,404.36218)"
       gradientUnits="userSpaceOnUse"
       xlink:href="#linearGradient3222"
       id="linearGradient4134"
       y2="3"
       x2="0"
       y1="9"
       x1="5" />
    <linearGradient
       gradientUnits="userSpaceOnUse"
       xlink:href="#linearGradient3034-8"
       id="linearGradient4136"
       y2="6"
       x2="-24"
       y1="8"
       x1="-26" />
    <linearGradient
       gradientUnits="userSpaceOnUse"
       xlink:href="#linearGradient3076-5"
       id="linearGradient4138"
       y2="6.5535712"
       x2="-25.267857"
       y1="7.8035712"
       x1="-26.196428" />
    <linearGradient
       gradientTransform="translate(-389,404.36218)"
       gradientUnits="userSpaceOnUse"
       xlink:href="#linearGradient3222"
       id="linearGradient4166"
       y2="3.0000026"
       x2="8"
       y1="9.0000029"
       x1="1" />
    <linearGradient
       gradientUnits="userSpaceOnUse"
       xlink:href="#linearGradient3034-8"
       id="linearGradient4168"
       y2="6"
       x2="-26"
       y1="8"
       x1="-24" />
    <linearGradient
       gradientUnits="userSpaceOnUse"
       xlink:href="#linearGradient3076-5"
       id="linearGradient4170"
       y2="6.4696698"
       x2="-25.530331"
       y1="7.5384064"
       x1="-24.693827" />
    <linearGradient
       gradientUnits="userSpaceOnUse"
       xlink:href="#linearGradient3076-5-1"
       id="linearGradient4170-0"
       y2="6.4696698"
       x2="-25.530331"
       y1="7.5384064"
       x1="-24.693827" />
    <linearGradient
       id="linearGradient3076-5-1">
      <stop
         offset="0"
         style="stop-color:#b6b6b6;stop-opacity:1"
         id="stop3078-1-4" />
      <stop
         offset="1"
         style="stop-color:#c0c0c0;stop-opacity:1"
         id="stop3080-7-4" />
    </linearGradient>
    <linearGradient
       gradientUnits="userSpaceOnUse"
       xlink:href="#linearGradient3034-8-76"
       id="linearGradient4168-7"
       y2="6"
       x2="-26"
       y1="8"
       x1="-24" />
    <linearGradient
       id="linearGradient3034-8-76">
      <stop
         offset="0"
         style="stop-color:#aaaaaa;stop-opacity:1"
         id="stop3036-2-0" />
      <stop
         offset="1"
         style="stop-color:#cacaca;stop-opacity:1"
         id="stop3038-4-5" />
    </linearGradient>
    <linearGradient
       gradientTransform="translate(-389,404.36218)"
       gradientUnits="userSpaceOnUse"
       xlink:href="#linearGradient3222-0"
       id="linearGradient4166-3"
       y2="3.0000026"
       x2="8"
       y1="9.0000029"
       x1="1" />
    <linearGradient
       id="linearGradient3222-0">
      <stop
         offset="0"
         style="stop-color:#aaaaaa;stop-opacity:1"
         id="stop3224-1" />
      <stop
         offset="1"
         style="stop-color:#cacaca;stop-opacity:1"
         id="stop3226-4" />
    </linearGradient>
    <linearGradient
       gradientTransform="translate(-389,507.36218)"
       gradientUnits="userSpaceOnUse"
       xlink:href="#linearGradient3222-0"
       id="linearGradient4198"
       y2="3.0000026"
       x2="8"
       y1="9.0000029"
       x1="1" />
    <linearGradient
       gradientTransform="translate(361,404.36218)"
       gradientUnits="userSpaceOnUse"
       xlink:href="#linearGradient3222"
       id="linearGradient4280"
       y2="3"
       x2="0"
       y1="9"
       x1="5" />
    <linearGradient
       gradientUnits="userSpaceOnUse"
       xlink:href="#linearGradient3034-8"
       id="linearGradient4282"
       y2="6"
       x2="-24"
       y1="8"
       x1="-26" />
    <linearGradient
       gradientUnits="userSpaceOnUse"
       xlink:href="#linearGradient3076-5"
       id="linearGradient4284"
       y2="6.5535712"
       x2="-25.267857"
       y1="7.8035712"
       x1="-26.196428" />
    <linearGradient
       gradientTransform="translate(-389,507.36218)"
       gradientUnits="userSpaceOnUse"
       xlink:href="#linearGradient3222-0"
       id="linearGradient4286"
       y2="3.0000026"
       x2="8"
       y1="9.0000029"
       x1="1" />
    <linearGradient
       gradientUnits="userSpaceOnUse"
       xlink:href="#linearGradient3034-8-76"
       id="linearGradient4288"
       y2="6"
       x2="-26"
       y1="8"
       x1="-24" />
    <linearGradient
       gradientUnits="userSpaceOnUse"
       xlink:href="#linearGradient3076-5-1"
       id="linearGradient4290"
       y2="6.4696698"
       x2="-25.530331"
       y1="7.5384064"
       x1="-24.693827" />
    <linearGradient
       gradientTransform="matrix(1,0,0,0.81818158,0,173.88416)"
       gradientUnits="userSpaceOnUse"
       xlink:href="#linearGradient4078"
       id="linearGradient4312"
       y2="535.36218"
       x2="370"
       y1="535.36218"
       x1="368" />
    <linearGradient
       gradientTransform="translate(361,482.36218)"
       gradientUnits="userSpaceOnUse"
       xlink:href="#linearGradient4088"
       id="linearGradient4314"
       y2="125"
       x2="8"
       y1="123"
       x1="8" />
    <linearGradient
       gradientTransform="matrix(1,0,0,0.81818158,0,173.88416)"
       gradientUnits="userSpaceOnUse"
       xlink:href="#linearGradient4078"
       id="linearGradient4322"
       y2="535.36218"
       x2="370"
       y1="535.36218"
       x1="368" />
    <linearGradient
       gradientTransform="translate(361,482.36218)"
       gradientUnits="userSpaceOnUse"
       xlink:href="#linearGradient4088"
       id="linearGradient4324"
       y2="125"
       x2="8"
       y1="123"
       x1="8" />
    <linearGradient
       gradientTransform="matrix(1,0,0,0.81818158,0,173.88416)"
       gradientUnits="userSpaceOnUse"
       xlink:href="#linearGradient4078"
       id="linearGradient4332"
       y2="535.36218"
       x2="370"
       y1="535.36218"
       x1="368" />
    <linearGradient
       gradientTransform="translate(361,482.36218)"
       gradientUnits="userSpaceOnUse"
       xlink:href="#linearGradient4088"
       id="linearGradient4334"
       y2="125"
       x2="8"
       y1="123"
       x1="8" />
    <linearGradient
       gradientTransform="matrix(1,0,0,0.81818158,0,173.88416)"
       gradientUnits="userSpaceOnUse"
       xlink:href="#linearGradient4078"
       id="linearGradient4342"
       y2="535.36218"
       x2="370"
       y1="535.36218"
       x1="368" />
    <linearGradient
       gradientTransform="translate(361,482.36218)"
       gradientUnits="userSpaceOnUse"
       xlink:href="#linearGradient4088"
       id="linearGradient4344"
       y2="125"
       x2="8"
       y1="123"
       x1="8" />
    <linearGradient
       gradientTransform="matrix(1,0,0,0.81818158,0,173.88416)"
       gradientUnits="userSpaceOnUse"
       xlink:href="#linearGradient4078"
       id="linearGradient4352"
       y2="535.36218"
       x2="370"
       y1="535.36218"
       x1="368" />
    <linearGradient
       gradientTransform="translate(361,482.36218)"
       gradientUnits="userSpaceOnUse"
       xlink:href="#linearGradient4088"
       id="linearGradient4354"
       y2="125"
       x2="8"
       y1="123"
       x1="8" />
    <linearGradient
       gradientUnits="userSpaceOnUse"
       xlink:href="#linearGradient4364"
       id="linearGradient4370"
       y2="239"
       x2="15"
       y1="243"
       x1="15" />
    <linearGradient
       gradientUnits="userSpaceOnUse"
       xlink:href="#linearGradient4382"
       id="linearGradient4388"
       y2="223"
       x2="6"
       y1="233"
       x1="17" />
    <linearGradient
       gradientTransform="matrix(0.45454545,0,0,0.39999974,383.64773,539.03724)"
       gradientUnits="userSpaceOnUse"
       xlink:href="#linearGradient4382"
       id="linearGradient4392"
       y2="223"
       x2="6"
       y1="233"
       x1="17" />
    <linearGradient
       gradientTransform="matrix(0.45454545,0,0,0.39999974,383.64773,539.03724)"
       gradientUnits="userSpaceOnUse"
       xlink:href="#linearGradient4382"
       id="linearGradient4400"
       y2="223"
       x2="6"
       y1="233"
       x1="17" />
    <linearGradient
       gradientTransform="matrix(0.45454545,0,0,0.39999974,383.64773,539.03724)"
       gradientUnits="userSpaceOnUse"
       xlink:href="#linearGradient4382"
       id="linearGradient4408"
       y2="223"
       x2="6"
       y1="233"
       x1="17" />
  </defs>
  <metadata
     id="metadata7">
    <rdf:RDF>
      <cc:Work
         rdf:about="">
        <dc:format>image/svg+xml</dc:format>
        <dc:type
           rdf:resource="http://purl.org/dc/dcmitype/StillImage" />
        <dc:title></dc:title>
      </cc:Work>
    </rdf:RDF>
  </metadata>
  <g
     id="layer1"
     transform="translate(-361,-404.36218)">
    <rect
       style="fill:#c0c0c0;fill-opacity:1;stroke:none"
       id="rect3024"
       y="404.36218"
       x="361"
       ry="2.0005271e-015"
       height="256"
       width="28" />
    <rect
       style="fill:url(#linearGradient3169);fill-opacity:1;stroke:none"
       id="rect3161"
       y="447.36218"
       x="361"
       ry="1.6004212e-014"
       height="7.9999976"
       width="28" />
    <rect
       style="fill:#969696;fill-opacity:1;stroke:none"
       id="rect3173"
       y="465.36218"
       x="361"
       ry="1.6004212e-014"
       height="34"
       width="28" />
    <rect
       style="fill:#e6e6e6;fill-opacity:1;stroke:none"
       id="rect3175"
       y="466.36218"
       x="361"
       ry="1.6004212e-014"
       height="32"
       width="28" />
    <rect
       style="fill:#0aa6fe;fill-opacity:1;stroke:none"
       id="rect3177"
       y="468.36218"
       x="361"
       ry="1.6004212e-014"
       height="14"
       width="14" />
    <rect
       style="fill:#0aa6fe;fill-opacity:1;stroke:none"
       id="rect3177-1"
       y="482.36218"
       x="375"
       ry="1.6004212e-014"
       height="14"
       width="14" />
    <rect
       style="fill:url(#linearGradient3325);fill-opacity:1;stroke:none"
       id="rect3161-7"
       y="572.36218"
       x="361"
       ry="1.6004212e-014"
       height="7.9999976"
       width="28" />
    <g
       id="g3197-9-5"
       transform="translate(0,183)">
      <g
         id="g3082-5-0">
        <rect
           style="fill:#aaaaaa;fill-opacity:1;stroke:none"
           id="rect3026-4-9"
           y="407.36218"
           x="361"
           ry="2.0005271e-015"
           height="8"
           width="8" />
        <rect
           style="fill:#cacaca;fill-opacity:1;stroke:none"
           id="rect3028-3-0"
           transform="translate(361,404.36218)"
           y="3"
           x="0"
           ry="2.0005271e-015"
           height="1"
           width="8" />
        <rect
           style="fill:#b7b7b7;fill-opacity:1;stroke:none"
           id="rect3030-1-0"
           y="408.36218"
           x="361"
           ry="2.0005271e-015"
           height="6"
           width="7" />
        <path
           style="fill:url(#linearGradient3040-4-9);fill-opacity:1;stroke:none"
           id="path3032-2-6"
           transform="translate(390,404.36218)"
           d="m -23,7 a 2,2 0 1 1 -0.06815,-0.5176381" />
        <path
           style="fill:url(#linearGradient3057-2-8);fill-opacity:1;stroke:none"
           id="path3032-4-3-1"
           transform="matrix(0.5,0,0,0.5,377.5,407.86218)"
           d="m -23,7 a 2,2 0 1 1 -0.06815,-0.5176381" />
      </g>
      <rect
         style="fill:#cacaca;fill-opacity:1;stroke:none"
         id="rect3028-5-3-3"
         transform="scale(-1,1)"
         y="407.36218"
         x="-389"
         ry="1.6004212e-014"
         height="7.9999976"
         width="8" />
      <rect
         style="fill:#b7b7b7;fill-opacity:1;stroke:none"
         id="rect3030-2-4-8"
         transform="scale(-1,1)"
         y="408.36218"
         x="-389"
         ry="2.0005271e-015"
         height="6"
         width="7" />
      <path
         style="fill:url(#linearGradient3157-5-2);fill-opacity:1;stroke:none"
         id="path3032-7-1-9"
         transform="matrix(-1,0,0,1,360,404.36218)"
         d="m -23,7 a 2,2 0 1 1 -0.06815,-0.5176381" />
      <path
         style="fill:url(#linearGradient3159-8-2);fill-opacity:1;stroke:none"
         id="path3032-4-6-1-3"
         transform="matrix(-0.5,0,0,0.5,372.5,407.86218)"
         d="m -23,7 a 2,2 0 1 1 -0.06815,-0.5176381" />
      <rect
         style="fill:#aaaaaa;fill-opacity:1;stroke:none"
         id="rect3155-3-4"
         y="414.36218"
         x="382"
         ry="1.6004212e-014"
         height="1"
         width="7" />
    </g>
    <rect
       style="fill:#d6d6d6;fill-opacity:1;stroke:none"
       id="rect3445"
       y="580.36218"
       x="361"
       ry="1.6004212e-014"
       height="63"
       width="28" />
    <rect
       style="fill:url(#linearGradient4388);fill-opacity:1;stroke:none"
       id="rect4380"
       transform="translate(361,404.36218)"
       y="223"
       x="6"
       ry="5.2513836e-015"
       height="10"
       width="11" />
    <rect
       style="fill:url(#linearGradient4132);fill-opacity:1;stroke:none"
       id="rect4124"
       y="522.36218"
       x="363"
       ry="5.2513836e-015"
       height="21"
       width="24" />
    <rect
       style="fill:#b6b6b6;fill-opacity:1;stroke:none"
       id="rect3638"
       y="523.36218"
       x="364"
       ry="5.2513836e-015"
       height="19"
       width="22" />
    <g
       id="g3649"
       transform="translate(-18,12)">
      <path
         style="fill:url(#linearGradient3655);fill-opacity:1;stroke:none"
         id="path3651"
         transform="matrix(-1,0,0,1,360,507.36218)"
         d="m -23,7 a 2,2 0 1 1 -0.06815,-0.5176381" />
      <path
         style="fill:url(#linearGradient3657);fill-opacity:1;stroke:none"
         id="path3653"
         transform="matrix(-0.5,0,0,0.5,372.5,510.86218)"
         d="m -23,7 a 2,2 0 1 1 -0.06815,-0.5176381" />
    </g>
    <g
       id="g3659"
       transform="translate(-2,12)">
      <path
         style="fill:url(#linearGradient3665);fill-opacity:1;stroke:none"
         id="path3661"
         transform="matrix(-1,0,0,1,360,507.36218)"
         d="m -23,7 a 2,2 0 1 1 -0.06815,-0.5176381" />
      <path
         style="fill:url(#linearGradient3667);fill-opacity:1;stroke:none"
         id="path3663"
         transform="matrix(-0.5,0,0,0.5,372.5,510.86218)"
         d="m -23,7 a 2,2 0 1 1 -0.06815,-0.5176381" />
    </g>
    <g
       id="g3669"
       transform="translate(-2,25)">
      <path
         style="fill:url(#linearGradient3675);fill-opacity:1;stroke:none"
         id="path3671"
         transform="matrix(-1,0,0,1,360,507.36218)"
         d="m -23,7 a 2,2 0 1 1 -0.06815,-0.5176381" />
      <path
         style="fill:url(#linearGradient3677);fill-opacity:1;stroke:none"
         id="path3673"
         transform="matrix(-0.5,0,0,0.5,372.5,510.86218)"
         d="m -23,7 a 2,2 0 1 1 -0.06815,-0.5176381" />
    </g>
    <g
       id="g3679"
       transform="translate(-18,25)">
      <path
         style="fill:url(#linearGradient3685);fill-opacity:1;stroke:none"
         id="path3681"
         transform="matrix(-1,0,0,1,360,507.36218)"
         d="m -23,7 a 2,2 0 1 1 -0.06815,-0.5176381" />
      <path
         style="fill:url(#linearGradient3687);fill-opacity:1;stroke:none"
         id="path3683"
         transform="matrix(-0.5,0,0,0.5,372.5,510.86218)"
         d="m -23,7 a 2,2 0 1 1 -0.06815,-0.5176381" />
    </g>
    <rect
       style="fill:#b6b6b6;fill-opacity:1;stroke:none"
       id="rect3749"
       y="628.36218"
       x="368"
       ry="5.2513836e-015"
       height="8"
       width="9" />
    <path
       style="fill:#aaaaaa;fill-opacity:1;stroke:none"
       id="path3944"
       transform="translate(358,404.36218)"
       d="m 12,230.5 a 0.5,0.5 0 1 1 -0.01704,-0.12941" />
    <path
       style="fill:#aaaaaa;fill-opacity:1;stroke:none"
       id="path3944-3"
       transform="translate(358,399.36218)"
       d="m 12,230.5 a 0.5,0.5 0 1 1 -0.01704,-0.12941" />
    <path
       style="fill:#aaaaaa;fill-opacity:1;stroke:none"
       id="path3944-9"
       transform="translate(364,399.36218)"
       d="m 12,230.5 a 0.5,0.5 0 1 1 -0.01704,-0.12941" />
    <path
       style="fill:#aaaaaa;fill-opacity:1;stroke:none"
       id="path3944-98"
       transform="translate(364,404.36218)"
       d="m 12,230.5 a 0.5,0.5 0 1 1 -0.01704,-0.12941" />
    <rect
       style="fill:#0aa6fe;fill-opacity:1;stroke:none"
       id="rect3881"
       y="650.36218"
       x="361"
       ry="8.2052922e-014"
       height="10"
       width="28" />
    <rect
       style="fill:url(#linearGradient3891);fill-opacity:1;stroke:none"
       id="rect3883"
       y="647.36218"
       x="361"
       ry="8.2052922e-014"
       height="3"
       width="28" />
    <path
       style="fill:#016fa9;fill-opacity:1;stroke:none"
       id="path3893"
       transform="translate(390,404.36218)"
       d="m -27,246.5 a 0.5,0.5 0 1 1 -0.01704,-0.12941" />
    <path
       style="fill:#016fa9;fill-opacity:1;stroke:none"
       id="path3895"
       transform="translate(390,412.36218)"
       d="m -27,246.5 a 0.5,0.5 0 1 1 -0.01704,-0.12941" />
    <path
       style="fill:#016fa9;fill-opacity:1;stroke:none"
       id="path3897"
       transform="translate(394,412.36218)"
       d="m -27,246.5 a 0.5,0.5 0 1 1 -0.01704,-0.12941" />
    <path
       style="fill:#016fa9;fill-opacity:1;stroke:none"
       id="path3899"
       transform="translate(398,412.36218)"
       d="m -27,246.5 a 0.5,0.5 0 1 1 -0.01704,-0.12941" />
    <path
       style="fill:#016fa9;fill-opacity:1;stroke:none"
       id="path3901"
       transform="translate(402,412.36218)"
       d="m -27,246.5 a 0.5,0.5 0 1 1 -0.01704,-0.12941" />
    <path
       style="fill:#016fa9;fill-opacity:1;stroke:none"
       id="path3903"
       transform="translate(407,412.36218)"
       d="m -27,246.5 a 0.5,0.5 0 1 1 -0.01704,-0.12941" />
    <path
       style="fill:#016fa9;fill-opacity:1;stroke:none"
       id="path3905"
       transform="translate(411,412.36218)"
       d="m -27,246.5 a 0.5,0.5 0 1 1 -0.01704,-0.12941" />
    <path
       style="fill:#016fa9;fill-opacity:1;stroke:none"
       id="path3907"
       transform="translate(415,412.36218)"
       d="m -27,246.5 a 0.5,0.5 0 1 1 -0.01704,-0.12941" />
    <path
       style="fill:#016fa9;fill-opacity:1;stroke:none"
       id="path3909"
       transform="translate(415,404.36218)"
       d="m -27,246.5 a 0.5,0.5 0 1 1 -0.01704,-0.12941" />
    <g
       id="g4008">
      <rect
         style="fill:url(#linearGradient4134);fill-opacity:1;stroke:none"
         id="rect3220"
         y="407.36218"
         x="361"
         ry="2.0005271e-015"
         height="8"
         width="8" />
      <rect
         style="fill:#b7b7b7;fill-opacity:1;stroke:none"
         id="rect3230"
         y="408.36218"
         x="361"
         ry="2.0005271e-015"
         height="6"
         width="7" />
      <path
         style="fill:url(#linearGradient4136);fill-opacity:1;stroke:none"
         id="path4000"
         transform="matrix(-1,0,0,1,340,404.36218)"
         d="m -23,7 a 2,2 0 1 1 -0.06815,-0.5176381" />
      <path
         style="fill:url(#linearGradient4138);fill-opacity:1;stroke:none"
         id="path4002"
         transform="matrix(-0.5,0,0,0.5,352.5,407.86218)"
         d="m -23,7 a 2,2 0 1 1 -0.06815,-0.5176381" />
    </g>
    <rect
       style="fill:url(#linearGradient4166);fill-opacity:1;stroke:none"
       id="rect4016"
       transform="scale(-1,1)"
       y="407.36218"
       x="-389"
       ry="2.0005271e-015"
       height="8"
       width="8" />
    <rect
       style="fill:#b7b7b7;fill-opacity:1;stroke:none"
       id="rect4018"
       transform="scale(-1,1)"
       y="408.36218"
       x="-389"
       ry="2.0005271e-015"
       height="6"
       width="7" />
    <path
       style="fill:url(#linearGradient4168);fill-opacity:1;stroke:none"
       id="path4020"
       transform="translate(410,404.36218)"
       d="m -23,7 a 2,2 0 1 1 -0.06815,-0.5176381" />
    <path
       style="fill:url(#linearGradient4170);fill-opacity:1;stroke:none"
       id="path4022"
       transform="matrix(0.5,0,0,0.5,397.5,407.86218)"
       d="m -23,7 a 2,2 0 1 1 -0.06815,-0.5176381" />
    <g
       id="g4096"
       transform="translate(3,-2.6171874e-6)">
      <rect
         style="fill:url(#linearGradient4100);fill-opacity:1;stroke:none"
         id="rect4076"
         y="527.36218"
         x="368"
         ry="2.0005271e-015"
         height="11"
         width="2" />
      <rect
         style="fill:url(#linearGradient4102);fill-opacity:1;stroke:none"
         id="rect4086"
         transform="translate(361,404.36218)"
         y="123"
         x="7"
         ry="2.0005271e-015"
         height="2"
         width="2" />
    </g>
    <g
       id="g4104"
       transform="translate(6,0)">
      <rect
         style="fill:url(#linearGradient4110);fill-opacity:1;stroke:none"
         id="rect4106"
         y="527.36218"
         x="368"
         ry="2.0005271e-015"
         height="11"
         width="2" />
      <rect
         style="fill:url(#linearGradient4112);fill-opacity:1;stroke:none"
         id="rect4108"
         transform="translate(361,404.36218)"
         y="123"
         x="7"
         ry="2.0005271e-015"
         height="2"
         width="2" />
    </g>
    <g
       id="g4114"
       transform="translate(9,0)">
      <rect
         style="fill:url(#linearGradient4120);fill-opacity:1;stroke:none"
         id="rect4116"
         y="527.36218"
         x="368"
         ry="2.0005271e-015"
         height="11"
         width="2" />
      <rect
         style="fill:url(#linearGradient4122);fill-opacity:1;stroke:none"
         id="rect4118"
         transform="translate(361,404.36218)"
         y="123"
         x="7"
         ry="2.0005271e-015"
         height="2"
         width="2" />
    </g>
    <g
       id="g4249">
      <g
         id="g4044"
         transform="translate(0,103)">
        <rect
           style="fill:url(#linearGradient4064);fill-opacity:1;stroke:none"
           id="rect4046"
           y="407.36218"
           x="361"
           ry="2.0005271e-015"
           height="8"
           width="8" />
        <rect
           style="fill:#b7b7b7;fill-opacity:1;stroke:none"
           id="rect4048"
           y="408.36218"
           x="361"
           ry="2.0005271e-015"
           height="6"
           width="7" />
        <path
           style="fill:url(#linearGradient4066);fill-opacity:1;stroke:none"
           id="path4050"
           transform="matrix(-1,0,0,1,340,404.36218)"
           d="m -23,7 a 2,2 0 1 1 -0.06815,-0.5176381" />
        <path
           style="fill:url(#linearGradient4068);fill-opacity:1;stroke:none"
           id="path4052"
           transform="matrix(-0.5,0,0,0.5,352.5,407.86218)"
           d="m -23,7 a 2,2 0 1 1 -0.06815,-0.5176381" />
      </g>
      <rect
         style="fill:url(#linearGradient4198);fill-opacity:1;stroke:none"
         id="rect4016-3"
         transform="scale(-1,1)"
         y="510.36218"
         x="-389"
         ry="2.0005271e-015"
         height="8"
         width="8" />
      <rect
         style="fill:#b7b7b7;fill-opacity:1;stroke:none"
         id="rect4018-7"
         transform="scale(-1,1)"
         y="511.36218"
         x="-389"
         ry="2.0005271e-015"
         height="6"
         width="7" />
      <path
         style="fill:url(#linearGradient4168-7);fill-opacity:1;stroke:none"
         id="path4020-3"
         transform="translate(410,507.36218)"
         d="m -23,7 a 2,2 0 1 1 -0.06815,-0.5176381" />
      <path
         style="fill:url(#linearGradient4170-0);fill-opacity:1;stroke:none"
         id="path4022-8"
         transform="matrix(0.5,0,0,0.5,397.5,510.86218)"
         d="m -23,7 a 2,2 0 1 1 -0.06815,-0.5176381" />
    </g>
    <g
       id="g4260"
       transform="translate(0,79.999997)">
      <g
         id="g4262"
         transform="translate(0,103)">
        <rect
           style="fill:url(#linearGradient4280);fill-opacity:1;stroke:none"
           id="rect4264"
           y="407.36218"
           x="361"
           ry="2.0005271e-015"
           height="8"
           width="8" />
        <rect
           style="fill:#b7b7b7;fill-opacity:1;stroke:none"
           id="rect4266"
           y="408.36218"
           x="361"
           ry="2.0005271e-015"
           height="6"
           width="7" />
        <path
           style="fill:url(#linearGradient4282);fill-opacity:1;stroke:none"
           id="path4268"
           transform="matrix(-1,0,0,1,340,404.36218)"
           d="m -23,7 a 2,2 0 1 1 -0.06815,-0.5176381" />
        <path
           style="fill:url(#linearGradient4284);fill-opacity:1;stroke:none"
           id="path4270"
           transform="matrix(-0.5,0,0,0.5,352.5,407.86218)"
           d="m -23,7 a 2,2 0 1 1 -0.06815,-0.5176381" />
      </g>
      <rect
         style="fill:url(#linearGradient4286);fill-opacity:1;stroke:none"
         id="rect4272"
         transform="scale(-1,1)"
         y="510.36218"
         x="-389"
         ry="2.0005271e-015"
         height="8"
         width="8" />
      <rect
         style="fill:#b7b7b7;fill-opacity:1;stroke:none"
         id="rect4274"
         transform="scale(-1,1)"
         y="511.36218"
         x="-389"
         ry="2.0005271e-015"
         height="6"
         width="7" />
      <path
         style="fill:url(#linearGradient4288);fill-opacity:1;stroke:none"
         id="path4276"
         transform="translate(410,507.36218)"
         d="m -23,7 a 2,2 0 1 1 -0.06815,-0.5176381" />
      <path
         style="fill:url(#linearGradient4290);fill-opacity:1;stroke:none"
         id="path4278"
         transform="matrix(0.5,0,0,0.5,397.5,510.86218)"
         d="m -23,7 a 2,2 0 1 1 -0.06815,-0.5176381" />
    </g>
    <g
       id="g4308">
      <rect
         style="fill:url(#linearGradient4312);fill-opacity:1;stroke:none"
         id="rect4294"
         y="605.36218"
         x="368"
         ry="1.6367944e-015"
         height="8.9999971"
         width="2" />
      <rect
         style="fill:url(#linearGradient4314);fill-opacity:1;stroke:none"
         id="rect4296"
         y="605.36218"
         x="368"
         ry="2.0005271e-015"
         height="2"
         width="2" />
    </g>
    <g
       id="g4316"
       transform="translate(3,2.4383553e-7)">
      <rect
         style="fill:url(#linearGradient4322);fill-opacity:1;stroke:none"
         id="rect4318"
         y="605.36218"
         x="368"
         ry="1.6367944e-015"
         height="8.9999971"
         width="2" />
      <rect
         style="fill:url(#linearGradient4324);fill-opacity:1;stroke:none"
         id="rect4320"
         y="605.36218"
         x="368"
         ry="2.0005271e-015"
         height="2"
         width="2" />
    </g>
    <g
       id="g4326"
       transform="translate(6,2.4383553e-7)">
      <rect
         style="fill:url(#linearGradient4332);fill-opacity:1;stroke:none"
         id="rect4328"
         y="605.36218"
         x="368"
         ry="1.6367944e-015"
         height="8.9999971"
         width="2" />
      <rect
         style="fill:url(#linearGradient4334);fill-opacity:1;stroke:none"
         id="rect4330"
         y="605.36218"
         x="368"
         ry="2.0005271e-015"
         height="2"
         width="2" />
    </g>
    <g
       id="g4336"
       transform="translate(9,2.4383553e-7)">
      <rect
         style="fill:url(#linearGradient4342);fill-opacity:1;stroke:none"
         id="rect4338"
         y="605.36218"
         x="368"
         ry="1.6367944e-015"
         height="8.9999971"
         width="2" />
      <rect
         style="fill:url(#linearGradient4344);fill-opacity:1;stroke:none"
         id="rect4340"
         y="605.36218"
         x="368"
         ry="2.0005271e-015"
         height="2"
         width="2" />
    </g>
    <g
       id="g4346"
       transform="translate(12,2.4383553e-7)">
      <rect
         style="fill:url(#linearGradient4352);fill-opacity:1;stroke:none"
         id="rect4348"
         y="605.36218"
         x="368"
         ry="1.6367944e-015"
         height="8.9999971"
         width="2" />
      <rect
         style="fill:url(#linearGradient4354);fill-opacity:1;stroke:none"
         id="rect4350"
         y="605.36218"
         x="368"
         ry="2.0005271e-015"
         height="2"
         width="2" />
    </g>
    <g
       id="g4356"
       transform="translate(12,2.4383553e-7)">
      <rect
         style="fill:url(#linearGradient4352);fill-opacity:1;stroke:none"
         id="rect4358"
         y="605.36218"
         x="368"
         ry="1.6367944e-015"
         height="8.9999971"
         width="2" />
      <rect
         style="fill:url(#linearGradient4354);fill-opacity:1;stroke:none"
         id="rect4360"
         y="605.36218"
         x="368"
         ry="2.0005271e-015"
         height="2"
         width="2" />
    </g>
    <rect
       style="fill:url(#linearGradient4370);fill-opacity:1;stroke:none"
       id="rect4362"
       transform="translate(361,404.36218)"
       y="239"
       x="0"
       ry="5.2513836e-015"
       height="4"
       width="28" />
    <g
       id="g4396"
       transform="translate(-6.375,-0.87500262)">
      <rect
         style="fill:url(#linearGradient4400);fill-opacity:1;stroke:none"
         id="rect4390"
         y="628.23718"
         x="386.375"
         ry="2.1005521e-015"
         height="3.9999974"
         width="5" />
      <rect
         style="fill:#b6b6b6;fill-opacity:1;stroke:none"
         id="rect4394"
         y="629.23718"
         x="387.375"
         ry="2.1005521e-015"
         height="2"
         width="3" />
    </g>
    <g
       id="g4402"
       transform="translate(-6.375,5.1249974)">
      <rect
         style="fill:url(#linearGradient4408);fill-opacity:1;stroke:none"
         id="rect4404"
         y="628.23718"
         x="386.375"
         ry="2.1005521e-015"
         height="3.9999974"
         width="5" />
      <rect
         style="fill:#b6b6b6;fill-opacity:1;stroke:none"
         id="rect4406"
         y="629.23718"
         x="387.375"
         ry="2.1005521e-015"
         height="2"
         width="3" />
    </g>
  </g>
</svg>
