<?xml version="1.0" encoding="UTF-8" standalone="no"?>
<svg
   xmlns:dc="http://purl.org/dc/elements/1.1/"
   xmlns:cc="http://creativecommons.org/ns#"
   xmlns:rdf="http://www.w3.org/1999/02/22-rdf-syntax-ns#"
   xmlns:svg="http://www.w3.org/2000/svg"
   xmlns="http://www.w3.org/2000/svg"
   version="1.1"
   id="svg2"
   height="64"
   width="64">
  <defs
     id="defs4">
    <filter
       height="1.8161799"
       y="-0.40808995"
       width="1.5399282"
       x="-0.26996409"
       id="filter4062">
      <feGaussianBlur
         id="feGaussianBlur4064"
         stdDeviation="2.4967033" />
    </filter>
    <filter
       height="1.5579771"
       y="-0.27898855"
       width="1.6195024"
       x="-0.30975119"
       id="filter4066">
      <feGaussianBlur
         id="feGaussianBlur4068"
         stdDeviation="2.4967033" />
    </filter>
    <filter
       height="1.2681492"
       y="-0.13407462"
       width="1.2296508"
       x="-0.1148254"
       id="filter4070">
      <feGaussianBlur
         id="feGaussianBlur4072"
         stdDeviation="2.4967033" />
    </filter>
  </defs>
  <metadata
     id="metadata7">
    <rdf:RDF>
      <cc:Work
         rdf:about="">
        <dc:format>image/svg+xml</dc:format>
        <dc:type
           rdf:resource="http://purl.org/dc/dcmitype/StillImage" />
        <dc:title></dc:title>
      </cc:Work>
    </rdf:RDF>
  </metadata>
  <g
     style="display:inline"
     id="layer2">
    <path
       id="path3796"
       d="m 23.821429,55.071429 c 0.119047,0.238095 0.272963,0.461747 0.357142,0.714285 0.03765,0.112939 0,0.238096 0,0.357143 0,0.357143 0.13264,0.73983 0,1.071429 -0.690249,1.725624 -0.415828,0.386485 -1.071428,0.714285 -0.301169,0.150585 -0.413117,0.563701 -0.714286,0.714286 -0.106479,0.05324 -0.250663,-0.05324 -0.357143,0 -0.150584,0.07529 -0.238095,0.238095 -0.357143,0.357143 -0.238095,0.238095 -0.47619,0.47619 -0.714285,0.714286 -0.119048,0.119047 -0.206558,0.28185 -0.357143,0.357143 -0.10648,0.05324 -0.250664,-0.05324 -0.357143,0 -0.150585,0.07529 -0.206558,0.28185 -0.357143,0.357142 -0.106479,0.05324 -0.250663,-0.05324 -0.357143,0 -0.301169,0.150585 -0.413116,0.563701 -0.714285,0.714286 -0.10648,0.05324 -0.238096,0 -0.357143,0 -0.357143,0 -0.714286,0 -1.071429,0 -0.0183,0 -1.402382,0.01309 -1.428571,0 -1.634503,-0.817251 1.515506,0.148026 -1.071429,-0.714286 -0.112938,-0.03765 -0.250663,0.05324 -0.357143,0 -0.150584,-0.07529 -0.238095,-0.238095 -0.357143,-0.357142 -0.238095,-0.238096 -0.434119,-0.527509 -0.714285,-0.714286 -0.09905,-0.06604 -0.250664,0.05324 -0.357143,0 -0.301169,-0.150585 -0.413117,-0.563701 -0.714286,-0.714286 -0.106479,-0.05324 -0.238095,0 -0.357143,0 -0.238095,0 -0.483299,0.05775 -0.714285,0 -0.258251,-0.06456 -0.461748,-0.272963 -0.714286,-0.357143 -0.112939,-0.03765 -0.258089,0.06604 -0.357143,0 -0.2801659,-0.186777 -0.4341198,-0.527508 -0.7142857,-0.714285 -0.099054,-0.06604 -0.2506634,0.05324 -0.3571429,0 -0.1505846,-0.07529 -0.2065582,-0.281851 -0.3571428,-0.357143 -0.1064794,-0.05324 -0.2506634,0.05324 -0.3571429,0 -0.5255016,-0.262751 -0.3571428,-0.56037 -0.3571428,-1.071429 0,-0.119047 -0.037646,-0.244204 0,-0.357143 C 8.3744819,54.983697 8.9656236,54.570091 9.5357143,54 c 0.8375637,-0.837564 -0.2525381,0.08418 1.0714287,-0.357143 0.159719,-0.05324 0.206558,-0.28185 0.357143,-0.357143 0.106479,-0.05324 0.238095,0 0.357143,0 0.119047,0 0.238095,0 0.357142,0 0.595239,0 1.190477,0 1.785715,0 0.238095,0 0.488408,0.07529 0.714285,0 0.15972,-0.05324 0.238096,-0.238095 0.357143,-0.357143 0.357143,-0.357142 0.714286,-0.714285 1.071429,-1.071428 0.119048,-0.119048 0.21706,-0.263754 0.357143,-0.357143 0.790445,-0.526963 0.810673,-0.144581 1.428571,-1.071429 0.01959,-0.02938 0,-1.339959 0,-1.428571 0,-0.119048 0,-0.238095 0,-0.357143 0,-0.119048 0.05324,-0.250663 0,-0.357143 -0.325163,-0.650326 -0.270921,-0.209354 -0.714286,-0.357143 -0.252538,-0.08418 -0.461747,-0.272963 -0.714285,-0.357142 -0.112939,-0.03765 -0.238095,0 -0.357143,0 -0.357143,0 -0.714286,0 -1.071429,0 -1.071428,0 -2.142857,0 -3.214285,0 -0.595238,0 -1.190477,0 -1.7857147,0 -0.1190476,0 -0.2380952,0 -0.3571429,0 -0.1190476,0 -0.2506634,-0.05324 -0.3571428,0 -0.1505847,0.07529 -0.1974237,0.303903 -0.3571429,0.357142 -0.2258769,0.07529 -0.4761904,0 -0.7142857,0 -0.1190476,0 -0.2506634,0.05324 -0.3571428,0 C 7.2422725,47.853279 7.1110066,47.722013 7.0357143,47.571429 6.7838191,47.067638 7.5809032,46.838194 7.75,46.5 c 0.05324,-0.106479 -0.05324,-0.250663 0,-0.357143 0.075292,-0.150585 0.2637542,-0.21706 0.3571429,-0.357143 0.1476604,-0.22149 0.168912,-0.526055 0.3571428,-0.714285 0.084179,-0.08418 0.2506635,0.05324 0.3571429,0 0.1505846,-0.07529 0.2065582,-0.281851 0.3571428,-0.357143 0.1064795,-0.05324 0.2506635,0.05324 0.3571429,0 C 9.686299,44.638993 9.7527742,44.450531 9.8928572,44.357143 10.114348,44.209482 10.394184,44.159719 10.607143,44 c 0.404061,-0.303046 0.714286,-0.714286 1.071428,-1.071429 0.280349,-0.280348 0.433938,-0.433937 0.714286,-0.714285 0.119048,-0.119048 0.281851,-0.206559 0.357143,-0.357143 0.02576,-0.05151 0,-0.9573 0,-1.071429 0,-0.238095 0,-0.47619 0,-0.714285 0,-0.119048 0.05324,-0.250664 0,-0.357143 C 12.674708,39.563701 12.511905,39.47619 12.392857,39.357143 12.27381,39.238095 12.195433,39.05324 12.035714,39 c -0.225877,-0.07529 -0.488408,0.07529 -0.714285,0 -0.159719,-0.05324 -0.238096,-0.238095 -0.357143,-0.357143 -0.119048,-0.119048 -0.281851,-0.206558 -0.357143,-0.357143 -0.05324,-0.106479 0.03765,-0.244204 0,-0.357143 C 9.5954132,35.905112 10.740242,38.460969 10.25,36.5 10.185437,36.241749 9.9770365,36.038252 9.8928572,35.785714 c -0.037646,-0.112938 0,-0.238095 0,-0.357143 0,-0.238095 0,-0.47619 0,-0.714285 0,-0.119048 0.05324,-0.250664 0,-0.357143 C 9.8175648,34.206558 9.6547619,34.119048 9.5357143,34 9.2976191,33.761905 9.0595238,33.523809 8.8214286,33.285714 8.5833333,33.047619 8.3452381,32.809524 8.1071429,32.571428 7.8690476,32.333333 7.6622312,32.059173 7.3928572,31.857143 7.0448619,31.596146 6.5399017,31.579803 6.3214286,31.142857 c -0.05324,-0.106479 0,-0.238095 0,-0.357143 0,-0.119047 0,-0.238095 0,-0.357143 0,-0.525532 -0.037646,-0.902186 0.3571428,-1.428571 0.1597192,-0.212959 0.4761905,-0.238095 0.7142858,-0.357143 0.2380952,-0.119048 0.4532565,-0.304937 0.7142857,-0.357143 0.3502074,-0.07004 0.7249491,0.08662 1.0714285,0 0.163332,-0.04083 0.2065583,-0.28185 0.3571429,-0.357143 0.1064794,-0.05324 0.2380952,0 0.3571429,0 0.2380948,0 0.4761908,0 0.7142858,0 0.119047,0 0.238095,0 0.357143,0 0.119047,0 0.250663,-0.05324 0.357143,0 0.150584,0.07529 0.238095,0.238096 0.357142,0.357143 0.119048,0.119048 0.281851,0.206558 0.357143,0.357143 0.02576,0.05151 0,0.9573 0,1.071429 0,0.952381 0,1.904762 0,2.857142 0,0.25433 -0.03733,1.316594 0,1.428572 0.05324,0.159719 0.238096,0.238095 0.357143,0.357143 0.238095,0.238095 0.476191,0.47619 0.714286,0.714286 0.238095,0.238095 0.47619,0.47619 0.714286,0.714285 0.119047,0.119048 0.206558,0.281851 0.357142,0.357143 0.160595,0.0803 0.910834,-0.0803 1.071429,0 C 16.132645,36.584179 15.126722,36.5 15.964286,36.5 c 0.119047,0 0.238095,0 0.357143,0 0.119047,0 0.250663,-0.05324 0.357142,0 0.150585,0.07529 0.197424,0.303903 0.357143,0.357143 0.225877,0.07529 0.488409,-0.07529 0.714286,0 0.159719,0.05324 0.410383,0.197424 0.357143,0.357143 -0.10648,0.319438 -0.476191,0.47619 -0.714286,0.714285 -0.119047,0.119048 -0.238095,0.238096 -0.357143,0.357143 -0.119047,0.119048 -0.206558,0.281851 -0.357143,0.357143 -0.492627,0.246314 -0.319454,-0.43252 -0.714285,0.357143 -0.05324,0.106479 0.05324,0.250663 0,0.357143 -0.07529,0.150584 -0.281851,0.206558 -0.357143,0.357143 -0.05324,0.106479 0,0.238095 0,0.357143 0,0.119047 0,0.238095 0,0.357142 0,0.476191 0,0.952381 0,1.428572 0,0.357143 0,0.714286 0,1.071428 0,0.439813 -0.05324,0.661046 0.357143,1.071429 0.08418,0.08418 0.250663,-0.05324 0.357143,0 0.150584,0.07529 0.206558,0.28185 0.357142,0.357143 0.10648,0.05324 0.238096,0 0.357143,0 0.357143,0 0.714286,0 1.071429,0 0.119048,0 0.250663,-0.05324 0.357143,0 0.301169,0.150584 0.413116,0.563701 0.714285,0.714286 0.212959,0.106479 0.501327,-0.10648 0.714286,0 0.150585,0.07529 0.206558,0.28185 0.357143,0.357142 0.380952,0.190477 0.477387,-0.353553 0.714286,0.357143 0.07529,0.225877 0,0.476191 0,0.714286 0,0.119048 0,0.238095 0,0.357143 0,0.119047 0,0.238095 0,0.357143 0,0.119047 0.05324,0.250663 0,0.357143 -0.07529,0.150584 -0.281851,0.206558 -0.357143,0.357142 -0.06782,0.135641 0.06782,1.292931 0,1.428572 -0.232313,0.464625 -0.481973,0.249661 -0.714286,0.714286 -0.106479,0.212958 0.10648,0.501326 0,0.714285 -0.07529,0.150585 -0.303903,0.197424 -0.357143,0.357143 -0.07529,0.225877 0,0.476191 0,0.714286 0,0.119047 0.05324,0.250663 0,0.357143 -0.07529,0.150584 -0.28185,0.206558 -0.357143,0.357143 -0.05324,0.106479 0,0.238095 0,0.357142 0,0.238096 0,0.476191 0,0.714286 0,0.119048 0,0.238095 0,0.357143 0,0.119048 -0.05324,0.250663 0,0.357143 0.325164,0.650326 0.270921,0.209354 0.714286,0.357143 0.252538,0.08418 0.467127,0.258279 0.714286,0.357143 0.349536,0.139814 0.734711,0.188784 1.071428,0.357142 0.356203,0.178102 0.248973,0.543268 0.714286,0.357143 0.494319,-0.197727 0.903418,-0.62676 1.428572,-0.714285 0.262576,-0.04376 0.456035,0.421705 0.714285,0.357142 0.326664,-0.08167 0.476191,-0.47619 0.714286,-0.714285 0.119048,-0.119048 0.238095,-0.238096 0.357143,-0.357143 0.119048,-0.119048 0.28185,-0.206558 0.357143,-0.357143 0.05324,-0.106479 0,-0.238095 0,-0.357143 0,-0.837563 -0.08418,0.168359 0.357143,-0.714286 0.0093,-0.01868 0.0093,-1.052744 0,-1.071428 -0.07529,-0.150585 -0.238096,-0.238095 -0.357143,-0.357143 -0.119048,-0.119048 -0.206558,-0.281851 -0.357143,-0.357143 -0.160595,-0.0803 -0.910834,0.0803 -1.071429,0 -0.08044,-0.04022 -0.633848,-0.674067 -0.714285,-0.714286 -0.10648,-0.05324 -0.250664,0.05324 -0.357143,0 -0.150585,-0.07529 -0.206558,-0.28185 -0.357143,-0.357142 -0.333092,-0.166546 -0.545072,0.31971 -0.714286,-0.357143 -0.115493,-0.461973 0,-0.952381 0,-1.428572 0,-0.119047 0,-0.238095 0,-0.357143 0,-0.238095 -0.07529,-0.488408 0,-0.714285 0.05324,-0.159719 0.281851,-0.206559 0.357143,-0.357143 0.246314,-0.492628 -0.43252,-0.319455 0.357143,-0.714286 0.106479,-0.05324 0.238095,0 0.357143,0 0.119047,0 0.238095,0 0.357143,0 0.47619,0 0.961628,0.09339 1.428571,0 0.261029,-0.05221 0.456035,-0.29258 0.714286,-0.357143 0.230986,-0.05775 0.47619,0 0.714285,0 0.357143,0 0.714286,0 1.071429,0 0.0183,0 1.402383,-0.01309 1.428571,0 0.150585,0.07529 0.238096,0.238095 0.357143,0.357143 0.119048,0.119048 0.281851,0.206558 0.357143,0.357143 0.05324,0.106479 -0.03765,0.244204 0,0.357143 0.862312,2.586934 -0.102965,-0.563074 0.714286,1.071428 0.01309,0.02619 0,1.410271 0,1.428572 0,0.200413 0.04112,1.621221 0,1.785714 -0.06456,0.258251 -0.238095,0.476191 -0.357143,0.714286 -0.119048,0.238095 -0.209482,0.492795 -0.357143,0.714286 -0.09339,0.140082 -0.238095,0.238095 -0.357143,0.357142 -0.238095,0.238096 -0.47619,0.476191 -0.714285,0.714286 -0.251795,0.251795 -0.462491,0.462491 -0.714286,0.714286 -0.119048,0.119047 -0.206558,0.28185 -0.357143,0.357143 -0.106479,0.05324 -0.250663,-0.05324 -0.357143,0 -0.150584,0.07529 -0.206558,0.28185 -0.357143,0.357143 -0.106479,0.05324 -0.238095,0 -0.357143,0 -0.119047,0 -0.238095,0 -0.357142,0 -0.139473,0 -1.071429,-0.168359 -1.071429,0.357142 0,0.168359 0.238095,0.238096 0.357143,0.357143 0.119048,0.119048 0.197424,0.303903 0.357143,0.357143 0.111978,0.03733 1.174241,0 1.428571,0 0.357143,0 0.714286,0 1.071429,0 0.119047,0 0.238095,0 0.357143,0 0.119047,0 0.250663,0.05324 0.357142,0 0.150585,-0.07529 0.197424,-0.303903 0.357143,-0.357143 0.225877,-0.07529 0.488409,0.07529 0.714286,0 0.159719,-0.05324 0.206558,-0.28185 0.357143,-0.357143 0.02619,-0.01309 1.410271,0 1.428571,0 0.114129,0 1.019918,0.02576 1.071429,0 0.150585,-0.07529 0.31631,-0.19381 0.357143,-0.357142 0.08662,-0.34648 0,-0.714286 0,-1.071429 0,-0.119048 0.05324,-0.250663 0,-0.357143 -0.07529,-0.150585 -0.238095,-0.238095 -0.357143,-0.357143 -0.119048,-0.119047 -0.206558,-0.28185 -0.357143,-0.357143 -0.106479,-0.05324 -0.250663,0.05324 -0.357143,0 -0.150584,-0.07529 -0.238095,-0.238095 -0.357143,-0.357142 -0.119047,-0.119048 -0.28185,-0.206559 -0.357143,-0.357143 -0.05324,-0.10648 0,-0.238096 0,-0.357143 0,-0.119048 0,-0.238095 0,-0.357143 0,-0.476191 0,-0.952381 0,-1.428571 0,-0.595239 0,-1.190477 0,-1.785715 0,-0.119047 0,-0.238095 0,-0.357143 0,-0.238095 -0.05775,-0.483299 0,-0.714285 0.159316,-0.637262 0.637945,-0.995088 1.071429,-1.428572 0.119048,-0.119047 0.303903,-0.197423 0.357143,-0.357143 0.07529,-0.225877 -0.07529,-0.488408 0,-0.714285 0.05324,-0.159719 0.303903,-0.197424 0.357143,-0.357143 0.07529,-0.225877 -0.10648,-0.501327 0,-0.714286 1.162803,-2.325606 0.357926,0.711935 1.071428,-1.428571 0.03765,-0.112939 -0.05324,-0.250664 0,-0.357143 0.07529,-0.150585 0.281851,-0.206558 0.357143,-0.357143 0.05324,-0.106479 -0.05324,-0.250663 0,-0.357143 0.07529,-0.150585 0.238095,-0.238095 0.357143,-0.357143 0.119048,-0.119047 0.206558,-0.28185 0.357143,-0.357143 0.106479,-0.05324 0.238095,0 0.357143,0 0.119047,0 0.238095,0 0.357143,0 0.119047,0 0.244204,-0.03765 0.357143,0 0.691468,0.23049 0.948777,0.591635 1.428571,1.071429 0.119048,0.119048 0.31631,0.193811 0.357143,0.357143 0.08662,0.346479 0,0.714286 0,1.071428 0,0.119048 -0.05324,0.250664 0,0.357143 0.07529,0.150585 0.28185,0.206558 0.357143,0.357143 0.05324,0.10648 0,0.238095 0,0.357143 0,0.238095 0,0.47619 0,0.714286 0,1.190476 0,2.380952 0,3.571428 0,0.833334 0,1.666667 0,2.5 0,0.119048 0,0.238095 0,0.357143 0,0.238095 0.07529,0.488409 0,0.714286 -0.05324,0.159719 -0.281851,0.206558 -0.357143,0.357143 -0.05324,0.106479 0,0.238095 0,0.357143 -0.238095,0.238095 -0.527509,0.434119 -0.714286,0.714285 -0.06604,0.09905 0,0.238095 0,0.357143 0,0.119048 0,0.238095 0,0.357143 0,0.47619 0,0.952381 0,1.428571 0,0.990399 0.05324,-0.570101 -0.357143,1.071429 -0.05775,0.230986 0.07529,0.488409 0,0.714286 -0.05324,0.159719 -0.28185,0.206558 -0.357143,0.357143 -0.05324,0.106479 0.05324,0.250663 0,0.357142 -0.07529,0.150585 -0.47619,0.238096 -0.357142,0.357143 0.168358,0.168359 0.47619,0 0.714285,0 0.357143,0 0.714286,0 1.071429,0 1.190476,0 2.380952,0 3.571428,0 0.08861,0 1.399193,0.01959 1.428572,0 0.280166,-0.186777 0.47619,-0.47619 0.714286,-0.714285 0.238095,-0.238096 0.47619,-0.476191 0.714285,-0.714286 C 45.011905,56.738095 45.099415,56.575292 45.25,56.5 c 0.10648,-0.05324 0.238095,0 0.357143,0 0.595238,0 1.190476,0 1.785714,0 0.238095,0 0.488409,-0.07529 0.714286,0 0.159719,0.05324 0.206558,0.281851 0.357143,0.357143 0.106479,0.05324 0.238095,0 0.357143,0 0.119047,0 0.238095,0 0.357143,0 0.238095,0 0.47619,0 0.714285,0 0.119048,0 0.250664,0.05324 0.357143,0 0.150585,-0.07529 0.238095,-0.238095 0.357143,-0.357143 0.119048,-0.119048 0.28185,-0.206558 0.357143,-0.357143 0.05324,-0.106479 0,-0.238095 0,-0.357143 0,-0.119047 0,-0.238095 0,-0.357143 0,-0.595238 0,-1.190476 0,-1.785714 0,-0.47619 0,-0.952381 0,-1.428571 0,-0.119048 0,-0.238096 0,-0.357143 0,-0.119048 0.05324,-0.250664 0,-0.357143 -0.150585,-0.301169 -0.563701,-0.413116 -0.714286,-0.714286 -0.02575,-0.05151 0,-0.957299 0,-1.071428 0,-0.833334 0,-1.666667 0,-2.5 0,-0.952381 0,-1.904762 0,-2.857143 0,-0.238095 0,-0.476191 0,-0.714286 0,-0.119048 -0.03765,-0.244204 0,-0.357143 0.08418,-0.252538 0.209483,-0.492795 0.357143,-0.714285 0.09339,-0.140083 0.238095,-0.238096 0.357143,-0.357143 0.357143,-0.357143 0.714286,-0.714286 1.071428,-1.071429 0.238096,-0.238095 0.476191,-0.47619 0.714286,-0.714286 0.238095,-0.238095 0.43412,-0.527508 0.714286,-0.714285 0.09905,-0.06604 0.250663,0.05324 0.357143,0 0.150584,-0.07529 0.238095,-0.238096 0.357143,-0.357143 0.119047,-0.119048 0.303903,-0.197424 0.357142,-0.357143 0.07529,-0.225877 0,-0.476191 0,-0.714286 0,-0.119047 0.05324,-0.250663 0,-0.357143 -0.07529,-0.150584 -0.238095,-0.238095 -0.357142,-0.357142 C 53.821429,37.214286 53.464286,36.857143 53.107143,36.5 52.988095,36.380952 52.843389,36.28294 52.75,36.142857 52.60234,35.921366 52.540518,35.650062 52.392857,35.428571 52.191905,35.127143 51.451837,34.810612 51.678572,34.357143 51.753862,34.206558 51.916667,34.119048 52.035714,34 c 0.119048,-0.119048 0.238096,-0.238095 0.357143,-0.357143 0.119048,-0.119048 0.193811,-0.31631 0.357143,-0.357143 0.34648,-0.08662 0.724949,0.08662 1.071429,0 0.676853,-0.169213 0.190597,-0.381194 0.357143,-0.714286 0.07529,-0.150584 0.238095,-0.238095 0.357142,-0.357142 0.119048,-0.119048 0.238096,-0.238096 0.357143,-0.357143 C 55.25,31.5 55.607143,31.142857 55.964286,30.785714 c 0.119047,-0.119047 0.28185,-0.206558 0.357143,-0.357143 0.05324,-0.106479 0,-0.238095 0,-0.357143 0.119047,-0.119047 0.28185,-0.206558 0.357143,-0.357142 0.05324,-0.10648 -0.06604,-0.25809 0,-0.357143 0.186777,-0.280166 0.512255,-0.444912 0.714285,-0.714286 0.119048,-0.238095 0.238095,-0.47619 0.357143,-0.714286 0,-0.119047 -0.05324,-0.250663 0,-0.357143 0.07529,-0.150584 0.281851,-0.206558 0.357143,-0.357142 0.05324,-0.10648 -0.05324,-0.250664 0,-0.357143 0.07529,-0.150585 0.303903,-0.197424 0.357143,-0.357143 0.03733,-0.111978 0,-1.174242 0,-1.428572 0,-0.95238 0,-1.904761 0,-2.857142 0,-0.357143 0,-0.714286 0,-1.071429 0,-0.435957 0.138586,-0.823564 -0.357143,-1.071429 -0.106479,-0.05324 -0.238095,0 -0.357143,0 -0.119048,0 -0.238095,0 -0.357143,0 -0.119047,0 -0.238095,0 -0.357143,0 -0.119047,0 -0.250663,-0.05324 -0.357142,0 -0.383917,0.191959 -0.767916,0.410773 -1.071429,0.714286 C 55.418912,20.973945 55.369048,21.261905 55.25,21.5 c -0.119048,0.238095 -0.272963,0.461747 -0.357143,0.714286 -0.03765,0.112938 0,0.238095 0,0.357142 0,0.357143 0.08662,0.72495 0,1.071429 -0.04083,0.163332 -0.31631,0.193811 -0.357143,0.357143 -0.08662,0.346479 0,0.714286 0,1.071428 0,0.119048 0.06604,0.25809 0,0.357143 -0.775202,1.162803 -0.664352,0.207342 -1.071428,1.428572 -0.07529,0.225877 0.106479,0.501327 0,0.714285 -0.07529,0.150585 -0.238095,0.238096 -0.357143,0.357143 -0.119048,0.119048 -0.206558,0.281851 -0.357143,0.357143 -0.106479,0.05324 -0.238095,0 -0.357143,0 -0.357143,0 -0.714285,0 -1.071428,0 -0.238096,0 -0.4833,-0.05775 -0.714286,0 -0.57658,0.144145 -0.708386,0.351243 -1.071429,0.714286 -0.119047,0.119048 -0.21706,0.263754 -0.357142,0.357143 -0.695434,0.463622 -0.655426,0.357143 -1.428572,0.357143 -0.238095,0 -0.47619,0 -0.714286,0 -0.357142,0 -0.714285,0 -1.071428,0 -0.238095,0 -0.488409,0.07529 -0.714286,0 C 45.090281,29.661046 45.011905,29.47619 44.892857,29.357143 44.77381,29.238095 44.611007,29.150585 44.535714,29 c -0.05324,-0.10648 0,-0.238095 0,-0.357143 0,-0.119048 0,-0.238095 0,-0.357143 0,-0.357143 0,-0.714286 0,-1.071428 0,-0.357143 0,-0.714286 0,-1.071429 0,-0.119048 0,-0.238095 0,-0.357143 0,-0.119047 -0.03765,-0.244204 0,-0.357143 0.08418,-0.252538 0.209483,-0.492795 0.357143,-0.714285 0.546992,-0.820488 0.204,0.153143 1.071429,-0.714286 0.08418,-0.08418 -0.05324,-0.250664 0,-0.357143 0.07529,-0.150585 0.238095,-0.238095 0.357143,-0.357143 0.119047,-0.119047 0.357143,-0.188784 0.357143,-0.357143 0,-0.119047 -0.238096,0 -0.357143,0 -0.119048,0 -0.238096,0 -0.357143,0 -0.595238,0 -1.190476,0 -1.785714,0 -0.238096,0 -0.49322,-0.08843 -0.714286,0 -0.398532,0.159413 -0.664223,0.578551 -1.071429,0.714286 -0.446428,0.14881 -1.289682,-0.09921 -1.785714,0 -0.369151,0.07383 -0.706207,0.265838 -1.071429,0.357143 -0.143745,0.03594 -1.374195,0 -1.428571,0 -0.119048,0 -0.244204,-0.03765 -0.357143,0 -0.252538,0.08418 -0.492795,0.209482 -0.714286,0.357143 -1.156599,0.771066 0.148635,-0.04438 -0.357142,0.714285 -0.186778,0.280166 -0.527509,0.43412 -0.714286,0.714286 -0.06604,0.09905 0,0.238095 0,0.357143 0,0.511059 0.168359,0.808678 -0.357143,1.071429 -0.106479,0.05324 -0.238095,0 -0.357143,0 -0.238095,0 -0.488409,0.07529 -0.714286,0 C 34.375995,27.161046 34.297619,26.97619 34.178571,26.857143 34.059524,26.738095 33.940476,26.619048 33.821429,26.5 c -0.119048,-0.119048 -0.281851,-0.206558 -0.357143,-0.357143 -0.05324,-0.106479 0.05324,-0.250663 0,-0.357143 -0.07529,-0.150584 -0.303903,-0.197424 -0.357143,-0.357143 -0.07529,-0.225877 0,-0.47619 0,-0.714285 0,-0.238096 0,-0.476191 0,-0.714286 0,-0.117286 0.03547,-1.018215 0,-1.071429 -0.186777,-0.280166 -0.527509,-0.434119 -0.714286,-0.714285 -0.06604,-0.09905 0,-0.238096 0,-0.357143 0,-0.595238 0,-1.190476 0,-1.785715 0,-0.714285 0,-1.428571 0,-2.142857 0,-0.119047 0,-0.238095 0,-0.357143 0,-0.238095 0.07529,-0.488408 0,-0.714285 C 32.24575,16.415821 31.996032,16.5 31.678571,16.5 c -0.238095,0 -0.483299,-0.05775 -0.714285,0 -0.258251,0.06456 -0.486023,0.220185 -0.714286,0.357143 -1.243064,0.745838 -1.060457,0.703314 -2.142857,1.785714 C 27.75,19 27.392857,19.357143 27.035714,19.714286 c -0.119047,0.119047 -0.263754,0.21706 -0.357143,0.357142 -0.14766,0.221491 -0.29258,0.456036 -0.357142,0.714286 -0.05775,0.230986 0,0.476191 0,0.714286 0,0.714286 0,1.428571 0,2.142857 0,0.476191 0,0.952381 0,1.428571 0,0.119048 0,0.238096 0,0.357143 0,0.119048 -0.06604,0.25809 0,0.357143 1.380499,2.070749 0.171788,0.264466 1.071428,0.714286 0.301169,0.150585 0.413117,0.563701 0.714286,0.714286 0.106479,0.05324 0.250663,-0.05324 0.357143,0 0.150584,0.07529 0.206558,0.28185 0.357143,0.357142 0.106479,0.05324 0.250663,-0.05324 0.357142,0 0.150585,0.07529 0.197424,0.303904 0.357143,0.357143 0.225877,0.07529 0.4833,-0.05775 0.714286,0 0.57658,0.144145 0.708386,0.351243 1.071429,0.714286 0.119047,0.119048 0.206558,0.281851 0.357142,0.357143 0.212959,0.106479 0.501327,-0.10648 0.714286,0 0.150585,0.07529 0.238095,0.238095 0.357143,0.357143 0.119048,0.119047 0.263754,0.21706 0.357143,0.357143 0.435515,0.653272 0.357143,0.766998 0.357143,1.428571 0,0.714286 0,1.428571 0,2.142857 0,0.595238 0,1.190476 0,1.785715 0,0.238095 0,0.47619 0,0.714285 0,0.119048 0.05324,0.250664 0,0.357143 -0.07529,0.150585 -0.238095,0.238095 -0.357143,0.357143 -0.119048,0.119048 -0.206558,0.28185 -0.357143,0.357143 -0.106479,0.05324 -0.238095,0 -0.357143,0 -0.119047,0 -0.238095,0 -0.357143,0 -0.47619,0 -0.952381,0 -1.428571,0 -0.234615,0 -1.344589,0.04199 -1.428572,0 -0.301169,-0.150585 -0.527508,-0.43412 -0.714285,-0.714286 -0.06604,-0.09905 0,-0.238095 0,-0.357143 0,-0.357143 0,-0.714285 0,-1.071428 0,-0.119048 0.03765,-0.244205 0,-0.357143 -0.08418,-0.252538 -0.29258,-0.456035 -0.357143,-0.714286 -0.05775,-0.230986 0,-0.47619 0,-0.714286 0,-0.119047 0,-0.238095 0,-0.357143 0,-0.119047 0.05324,-0.250663 0,-0.357142 -0.07529,-0.150585 -0.303903,-0.197424 -0.357143,-0.357143 -0.07529,-0.225877 0,-0.476191 0,-0.714286 0,-0.119048 0.05324,-0.250663 0,-0.357143 -0.07529,-0.150584 -0.238095,-0.238095 -0.357143,-0.357143 -0.119047,-0.119047 -0.21706,-0.263754 -0.357143,-0.357143 -0.407299,-0.271532 -0.91314,-0.528953 -1.428571,-0.357142 -0.159719,0.05324 -0.238095,0.238095 -0.357143,0.357142 -0.238095,0.238096 -0.47619,0.476191 -0.714286,0.714286 -0.119047,0.119048 -0.263754,0.21706 -0.357143,0.357143 -0.14766,0.221491 -0.209482,0.492795 -0.357142,0.714286 -0.09339,0.140083 -0.238096,0.238095 -0.357143,0.357143 -0.119048,0.119047 -0.238095,0.238095 -0.357143,0.357142 -0.119048,0.119048 -0.197424,0.303904 -0.357143,0.357143 -0.435596,0.145199 -0.862038,-0.271029 -1.071429,0.357143 -0.07529,0.225877 0,0.476191 0,0.714286 0,0.739118 -0.09073,1.471048 0.357143,2.142857 0.06604,0.09905 0.238096,0 0.357143,0 0.119048,0.119048 0.281851,0.206558 0.357143,0.357143 0.209391,0.418782 -0.211944,0.423888 -0.357143,0.714286 -0.05324,0.106479 0.05324,0.250663 0,0.357143 -0.07529,0.150584 -0.238095,0.238095 -0.357143,0.357142 -0.119047,0.119048 -0.238095,0.238096 -0.357143,0.357143 -0.119047,0.119048 -0.206558,0.281851 -0.357142,0.357143 -0.10648,0.05324 -0.250664,-0.05324 -0.357143,0 -0.150585,0.07529 -0.206558,0.281851 -0.357143,0.357143 -0.05151,0.02575 -0.9573,0 -1.071429,0 -0.119047,0 -0.303903,-0.106479 -0.357143,0 -0.106479,0.212959 0,0.47619 0,0.714286 0,0.119047 -0.06604,0.258089 0,0.357143 0.186778,0.280165 0.476191,0.47619 0.714286,0.714285 0.119048,0.119048 0.238095,0.238095 0.357143,0.357143 0.238095,0.238095 0.476191,0.476191 0.714286,0.714286 0.119047,0.119047 0.206558,0.28185 0.357143,0.357143 0.212958,0.106479 0.501326,-0.10648 0.714285,0 0.150585,0.07529 0.197424,0.303903 0.357143,0.357143 0.225877,0.07529 0.476191,0 0.714286,0 0.119048,0 0.250663,0.05324 0.357143,0 0.150584,-0.07529 0.238095,-0.238096 0.357143,-0.357143 0.119047,-0.119048 0.28185,-0.206559 0.357142,-0.357143 0.05324,-0.10648 -0.05324,-0.250664 0,-0.357143 0.11616,-0.232318 0.41871,-0.504931 0.714286,-0.357143 0.46425,0.232125 0.250036,0.482161 0.714286,0.714286 0.106479,0.05324 0.250663,-0.05324 0.357143,0 0.150584,0.07529 0.206558,0.28185 0.357143,0.357143 0.106479,0.05324 0.250663,-0.05324 0.357142,0 0.150585,0.07529 0.238096,0.238095 0.357143,0.357143 0.119048,0.119047 0.281851,0.206558 0.357143,0.357142 C 27.539461,43.22178 27.11828,43.917434 27.035714,44 c -0.08418,0.08418 -0.238095,0 -0.357143,0 -0.119047,0 -0.238095,0 -0.357142,0 -0.595238,0 -1.190477,0 -1.785715,0 -0.238095,0 -0.47619,0 -0.714285,0 -0.119048,0 -0.250664,0.05324 -0.357143,0 -0.30117,-0.150585 -0.394848,-0.607806 -0.714286,-0.714286 -0.225877,-0.07529 -0.47619,0 -0.714286,0 -0.119047,0 -0.250663,0.05324 -0.357143,0 -0.301169,-0.150584 -0.434119,-0.527508 -0.714285,-0.714285 -0.06653,-0.04435 -1.405686,-0.691401 -1.428572,-0.714286 -0.18823,-0.188231 -0.238095,-0.476191 -0.357143,-0.714286 -0.119047,-0.238095 -0.272963,-0.461747 -0.357142,-0.714286 -0.189623,-0.568868 0.620513,-0.626495 -0.714286,-1.071428 -0.159719,-0.05324 -0.238095,0.238095 -0.357143,0.357143 -0.119048,0.119047 -0.28185,0.206558 -0.357143,0.357143 -0.05324,0.106479 0.03765,0.244204 0,0.357142 -0.08418,0.252539 -0.272963,0.461748 -0.357143,0.714286 -0.07298,0.218953 0.07298,0.495333 0,0.714286 -0.203649,0.610948 -0.589669,0.730991 -0.357143,1.428571 0.05324,0.159719 0.238096,0.238095 0.357143,0.357143 0.18537,0.185369 0.528917,0.528916 0.714286,0.714286 0.119048,0.119047 0.281851,0.206558 0.357143,0.357143 0.05324,0.106479 -0.05324,0.250663 0,0.357143 0.150585,0.301169 0.607806,0.394847 0.714286,0.714285 0.07529,0.225877 0,0.476191 0,0.714286 0,0.119048 0,0.238095 0,0.357143 0,0.595238 0,1.190476 0,1.785714 0,0.119048 0.06604,0.258089 0,0.357143 -0.186778,0.280166 -0.527509,0.43412 -0.714286,0.714286 -0.0026,0.0039 -0.0084,1.054704 0,1.071428 0.07529,0.150585 0.238095,0.238095 0.357143,0.357143 0.119047,0.119048 0.238095,0.238095 0.357143,0.357143 0.238095,0.238095 0.47619,0.47619 0.714285,0.714286 0.119048,0.119047 0.21706,0.263754 0.357143,0.357143 0.221491,0.14766 0.492795,0.209482 0.714286,0.357142 0.140083,0.09339 0.238095,0.238096 0.357143,0.357143 0.47619,0.476191 0.952381,0.952381 1.428571,1.428572 0.119048,0.119047 0.193811,0.31631 0.357143,0.357143 0.34648,0.08662 0.714286,0 1.071429,0 z"
       style="fill:#04a300;fill-opacity:1;stroke:none;filter:url(#filter4070)" />
    <path
       id="path3818"
       d="m 19.178571,23.285714 c -1.297305,-0.432435 -0.694966,-0.357143 -1.785714,-0.357143 -0.238095,0 -0.510121,-0.122499 -0.714286,0 -0.433099,0.25986 -0.714285,0.714286 -1.071428,1.071429 -1.362387,1.362386 0.05119,0.193811 -2.142857,1.071428 -0.156317,0.06253 -0.238095,0.238096 -0.357143,0.357143 -0.238095,0.238096 -0.476191,0.476191 -0.714286,0.714286 -0.119047,0.119048 -0.206558,0.281851 -0.357143,0.357143 -0.106479,0.05324 -0.238095,0 -0.357143,0 -0.119047,0 -0.238095,0 -0.357142,0 -0.0183,0 -1.4023829,0.01309 -1.4285718,0 -0.1505847,-0.07529 -0.1974238,-0.303903 -0.3571429,-0.357143 -0.225877,-0.07529 -0.4884087,0.07529 -0.7142857,0 C 8.6617094,26.089617 8.5833333,25.904762 8.4642857,25.785714 8.3452381,25.666667 8.1824352,25.579156 8.1071429,25.428571 c -0.05324,-0.106479 0,-0.238095 0,-0.357143 0,-0.47619 0,-0.95238 0,-1.428571 0,-0.119048 0,-0.238095 0,-0.357143 0,-0.119047 0.05324,-0.250663 0,-0.357143 C 8.0318505,22.777987 7.8252923,22.722013 7.75,22.571428 c -0.025755,-0.05151 0,-0.957299 0,-1.071428 0,-0.357143 0,-0.714286 0,-1.071429 0,-0.119047 0.05324,-0.250663 0,-0.357143 -0.075292,-0.150584 -0.2818505,-0.206558 -0.3571428,-0.357142 -0.05324,-0.10648 0,-0.238096 0,-0.357143 -0.2380953,-0.238095 -0.5275085,-0.43412 -0.7142858,-0.714286 -0.066036,-0.09905 0,-0.238095 0,-0.357143 0,-0.47619 0,-0.952381 0,-1.428571 0,-0.119048 0.037646,-0.244205 0,-0.357143 -0.084179,-0.252538 -0.2925802,-0.456035 -0.3571428,-0.714286 -0.057747,-0.230986 0,-0.47619 0,-0.714286 0,-0.595238 0,-1.190476 0,-1.785714 0,-0.151544 -0.032814,-0.972986 0,-1.071428 0.084179,-0.252539 0.2729635,-0.461748 0.3571428,-0.714286 0.068204,-0.204613 -0.080613,-0.910202 0,-1.071429 0.075292,-0.150584 0.2818506,-0.206558 0.3571429,-0.357142 0.080297,-0.1605954 -0.080297,-0.9108343 0,-1.0714291 0.075292,-0.1505847 0.3039031,-0.1974237 0.3571429,-0.3571429 0.075292,-0.225877 -0.075292,-0.4884087 0,-0.7142857 C 7.4460969,7.7688522 7.6309524,7.6904761 7.75,7.5714284 7.8690476,7.4523808 7.9880953,7.3333332 8.1071429,7.2142856 8.2261905,7.095238 8.3137011,6.9324351 8.4642857,6.8571427 c 0.1064795,-0.05324 0.2380953,0 0.3571429,0 0.1190476,0 0.2380952,0 0.3571428,0 0.5952381,0 1.1904766,0 1.7857146,0 0.238095,0 0.488409,0.075292 0.714285,0 0.15972,-0.05324 0.206559,-0.2818505 0.357143,-0.3571428 0.10648,-0.05324 0.25809,0.066036 0.357143,0 0.238095,-0.2380953 0.476191,-0.4761905 0.714286,-0.7142857 0.119048,0 0.250663,0.05324 0.357143,0 0.150584,-0.075292 0.206558,-0.2818506 0.357143,-0.3571429 0.106479,-0.05324 0.238095,0 0.357142,0 0.357143,0 0.714286,0 1.071429,0 0.119048,0 0.244204,0.037646 0.357143,0 0.252538,-0.084179 0.456035,-0.2925802 0.714286,-0.3571429 0.230986,-0.057746 0.47619,0 0.714285,0 0.357143,0 0.714286,0 1.071429,0 0.238095,0 0.47619,0 0.714286,0 0.119047,0 0.250663,-0.05324 0.357142,0 0.250658,0.1253287 0.820772,0.9461 1.071429,1.0714286 0.106479,0.05324 0.250663,-0.05324 0.357143,0 0.150585,0.075292 0.238095,0.2380953 0.357143,0.3571429 0.119047,0.1190476 0.238095,0.2380952 0.357143,0.3571428 0.357142,0.3571429 0.714285,0.7142857 1.071428,1.0714286 0.119048,0.1190476 0.263754,0.2170599 0.357143,0.3571429 0.14766,0.2214906 0.29258,0.4560351 0.357143,0.7142857 0.05775,0.2309863 0,0.4761905 0,0.7142857 0,0.3571434 -0.08662,0.7249494 0,1.0714284 0.04083,0.163332 0.28185,0.206558 0.357143,0.357143 0.106479,0.212959 -0.10648,0.501327 0,0.714286 0.204717,0.409435 0.745183,0.496788 1.071428,0.714285 0.140083,0.09339 0.238096,0.238096 0.357143,0.357143 0.119048,0.119048 0.281851,0.206559 0.357143,0.357143 0.05324,0.10648 0,0.238095 0,0.357143 0,0.0183 -0.01309,1.402382 0,1.428571 0.07529,0.150585 0.303903,0.197424 0.357143,0.357143 0.07529,0.225877 0,0.476191 0,0.714286 0,0.119048 0,0.238095 0,0.357143 0,0.833333 0,1.666667 0,2.5 0,0.357143 0,0.714286 0,1.071428 0,0.119048 0,0.238096 0,0.357143 0,0.119048 0.05324,0.250664 0,0.357143 -0.07529,0.150585 -0.281851,0.206558 -0.357143,0.357143 -0.05324,0.106479 0,0.238095 0,0.357143 0,0.119048 0,0.238095 0,0.357143 0,0.47619 0,0.952381 0,1.428571 0,0.119048 0.05324,0.250664 0,0.357143 C 24.855169,24.43252 25.028342,23.753686 24.535714,24 c -0.150584,0.07529 -0.238095,0.238095 -0.357143,0.357143 -0.357142,0.357143 -0.714285,0.714285 -1.071428,1.071428 -0.119048,0.119048 -0.206558,0.281851 -0.357143,0.357143 -0.45985,0.229925 -0.365809,-0.240984 -0.714286,-0.357143 -0.225877,-0.07529 -0.488408,0.07529 -0.714285,0 -0.15972,-0.05324 -0.206559,-0.28185 -0.357143,-0.357143 -0.10648,-0.05324 -0.250664,0.05324 -0.357143,0 C 20.456558,24.996136 20.369048,24.833333 20.25,24.714286 19.589344,24.05363 19.986246,24.497226 19.178571,23.285714 z"
       style="fill:#04a300;fill-opacity:1;stroke:none;filter:url(#filter4066)" />
    <path
       id="path3820"
       d="m 52.75,14.714286 c -0.800943,0.147933 -1.385243,0.81889 -2.142857,1.071428 -0.465657,0.155219 -0.972832,0.174847 -1.428571,0.357143 -0.156318,0.06253 -0.197424,0.303903 -0.357143,0.357143 -0.225877,0.07529 -0.488409,-0.07529 -0.714286,0 -0.159719,0.05324 -0.197424,0.303903 -0.357143,0.357143 -0.225877,0.07529 -0.488409,-0.07529 -0.714286,0 -0.159719,0.05324 -0.197423,0.303903 -0.357142,0.357143 -0.225877,0.07529 -0.488409,-0.07529 -0.714286,0 -0.159719,0.05324 -0.21706,0.263754 -0.357143,0.357142 -0.221491,0.147661 -0.492795,0.209483 -0.714286,0.357143 -0.140083,0.09339 -0.206558,0.281851 -0.357143,0.357143 -0.05151,0.02576 -0.957299,0 -1.071428,0 -0.595238,0 -1.190476,0 -1.785714,0 -0.238096,0 -0.476191,0 -0.714286,0 -0.119048,0 -0.244205,0.03765 -0.357143,0 -0.803161,-0.26772 -0.625411,-0.446565 -1.428571,-0.714286 -0.112939,-0.03765 -0.250664,0.05324 -0.357143,0 -0.150585,-0.07529 -0.238096,-0.238095 -0.357143,-0.357142 C 38.226191,16.97619 38.030166,16.686777 37.75,16.5 c -0.09905,-0.06604 -0.250663,0.05324 -0.357143,0 -0.150584,-0.07529 -0.238095,-0.238095 -0.357143,-0.357143 -0.119047,-0.119048 -0.238095,-0.238095 -0.357142,-0.357143 -0.119048,-0.119047 -0.281851,-0.206558 -0.357143,-0.357143 -0.05324,-0.106479 0,-0.238095 0,-0.357143 0,-0.119047 0,-0.238095 0,-0.357142 0,-0.476191 0,-0.952381 0,-1.428572 0,-0.714286 0,-1.428571 0,-2.142857 0,-0.119048 0,-0.238095 0,-0.357143 0,-0.119047 -0.05324,-0.250663 0,-0.357143 0.07529,-0.150584 0.238095,-0.238095 0.357143,-0.357142 0.47619,-0.476191 0.95238,-0.9523815 1.428571,-1.428572 0.238095,-0.2380952 0.527508,-0.4341198 0.714286,-0.7142857 0.06603,-0.099054 -0.05324,-0.2506634 0,-0.3571429 C 38.972013,7.2702591 39.348937,7.1373086 39.535714,6.8571427 39.882686,6.3366852 39.758678,6.113262 40.25,5.7857142 c 0.221491,-0.1476604 0.476191,-0.2380953 0.714286,-0.3571429 0.238095,-0.1190476 0.461747,-0.2729635 0.714286,-0.3571429 0.112938,-0.037646 0.250663,0.05324 0.357142,0 0.150585,-0.075292 0.206559,-0.2818505 0.357143,-0.3571428 0.192698,-0.096349 0.521588,0.096349 0.714286,0 0.279301,-0.1396504 0.434985,-0.5746354 0.714286,-0.7142857 0.161226,-0.080613 0.866815,0.068204 1.071428,0 0.252538,-0.084179 0.461748,-0.2729635 0.714286,-0.3571429 0.112938,-0.037646 0.238095,0 0.357143,0 0.119047,0 0.238095,0 0.357143,0 0.357143,0 0.714285,0 1.071428,0 0.119048,0 0.238095,0 0.357143,0 0.119048,0 0.250664,-0.05324 0.357143,0 0.150585,0.075292 0.197424,0.3039032 0.357143,0.3571429 0.225877,0.075292 0.488409,-0.075292 0.714286,0 0.159719,0.05324 0.206558,0.2818505 0.357142,0.3571428 0.192698,0.096349 0.521588,-0.096349 0.714286,0 0.150585,0.075292 0.206558,0.2818506 0.357143,0.3571429 0.212959,0.1064794 0.501327,-0.1064794 0.714286,0 0.150584,0.075292 0.21706,0.2637542 0.357143,0.3571428 0.22149,0.1476604 0.492795,0.2094825 0.714285,0.3571429 0.140083,0.093389 0.206558,0.2818505 0.357143,0.3571429 0.336718,0.1683587 0.721893,0.2173285 1.071429,0.3571428 0.247159,0.098864 0.461747,0.2729635 0.714285,0.3571429 0.112939,0.037646 0.250664,-0.05324 0.357143,0 0.150585,0.075292 0.206558,0.2818505 0.357143,0.3571428 0.10648,0.05324 0.250664,-0.05324 0.357143,0 0.301169,0.1505847 0.43412,0.5275085 0.714286,0.7142857 1.297305,0.8648704 0.252559,-0.1045839 1.071428,0.7142858 0.119048,0.1190476 0.281851,0.2065582 0.357143,0.3571428 0.05324,0.1064794 -0.06604,0.2580893 0,0.3571429 0.186777,0.2801659 0.527509,0.4341198 0.714286,0.7142857 0.06604,0.099054 0,0.2380952 0,0.3571434 0,0.47619 0,0.95238 0,1.428571 0,0.357143 0,0.714286 0,1.071428 0,0.119048 0,0.238096 0,0.357143 0,0.119048 0.03765,0.244205 0,0.357143 -0.23049,0.691469 -0.591635,0.948778 -1.071429,1.428572 -0.119047,0.119047 -0.238095,0.238095 -0.357143,0.357142 -0.119047,0.119048 -0.206558,0.281851 -0.357142,0.357143 -0.10648,0.05324 -0.238096,0 -0.357143,0 -0.119048,0 -0.238096,0 -0.357143,0 -0.357143,0 -0.714286,0 -1.071429,0 -0.119047,0 -0.238095,0 -0.357143,0 -0.119047,0 -0.24661,0.04421 -0.357142,0 C 53.684253,15.230844 53.226191,14.952381 52.75,14.714286 z"
       style="fill:#04a300;fill-opacity:1;stroke:none;filter:url(#filter4062)" />
  </g>
</svg>
