<?xml version="1.0" encoding="UTF-8" standalone="no"?>
<svg
   xmlns:dc="http://purl.org/dc/elements/1.1/"
   xmlns:cc="http://creativecommons.org/ns#"
   xmlns:rdf="http://www.w3.org/1999/02/22-rdf-syntax-ns#"
   xmlns:svg="http://www.w3.org/2000/svg"
   xmlns="http://www.w3.org/2000/svg"
   xmlns:xlink="http://www.w3.org/1999/xlink"
   height="32"
   width="32"
   version="1.1"
   id="svg6307">
  <metadata
     id="metadata6313">
    <rdf:RDF>
      <cc:Work
         rdf:about="">
        <dc:format>image/svg+xml</dc:format>
        <dc:type
           rdf:resource="http://purl.org/dc/dcmitype/StillImage" />
        <dc:title></dc:title>
      </cc:Work>
    </rdf:RDF>
  </metadata>
  <defs
     id="defs6311">
    <linearGradient
       gradientUnits="userSpaceOnUse"
       y2="13.75"
       x2="-19.25"
       y1="18.25"
       x1="-14.750001"
       id="linearGradient3899"
       xlink:href="#linearGradient3893" />
    <linearGradient
       id="linearGradient3893">
      <stop
         id="stop3895"
         offset="0"
         style="stop-color:#5b3403;stop-opacity:1" />
      <stop
         style="stop-color:#ff8007;stop-opacity:1"
         offset="0.5"
         id="stop3901" />
      <stop
         id="stop3897"
         offset="1"
         style="stop-color:#ffed14;stop-opacity:1" />
    </linearGradient>
  </defs>
  <g
     id="layer15">
    <path
       id="path3817"
       d="M 26,8 24,6 20.999999,9 19,7 l 0,6 6,0 -2,-2 z"
       style="fill:#000000;fill-opacity:1;stroke:none" />
    <path
       id="path3817-7"
       d="M 6,8 8,6 11.000001,9 13,7 l 0,6 -6,0 2,-2 z"
       style="fill:#000000;fill-opacity:1;stroke:none" />
    <path
       id="path3817-7-4"
       d="M 6,24 8,26 11.000001,23 13,25 l 0,-6 -6,0 2,2 z"
       style="fill:#000000;fill-opacity:1;stroke:none" />
    <path
       id="path3817-7-4-0"
       d="M 26,24 24,26 20.999999,23 19,25 l 0,-6 6,0 -2,2 z"
       style="fill:#000000;fill-opacity:1;stroke:none" />
    <path
       transform="translate(32.999996,4.7e-6)"
       d="m -14,16 a 3,3 0 1 1 -6,0 3,3 0 1 1 6,0 z"
       id="path3891"
       style="fill:url(#linearGradient3899);fill-opacity:1;stroke:none" />
  </g>
</svg>
