<?xml version="1.0" encoding="UTF-8" standalone="no"?>
<svg
   xmlns:dc="http://purl.org/dc/elements/1.1/"
   xmlns:cc="http://creativecommons.org/ns#"
   xmlns:rdf="http://www.w3.org/1999/02/22-rdf-syntax-ns#"
   xmlns:svg="http://www.w3.org/2000/svg"
   xmlns="http://www.w3.org/2000/svg"
   height="32"
   width="32"
   version="1.1"
   id="svg8090">
  <metadata
     id="metadata8096">
    <rdf:RDF>
      <cc:Work
         rdf:about="">
        <dc:format>image/svg+xml</dc:format>
        <dc:type
           rdf:resource="http://purl.org/dc/dcmitype/StillImage" />
        <dc:title></dc:title>
      </cc:Work>
    </rdf:RDF>
  </metadata>
  <defs
     id="defs8094" />
  <g
     id="layer24">
    <path
       id="path8638"
       d="M 12 18 C 10.343146 18 9 19.790861 9 22 C 9 24.209139 10.343146 26 12 26 C 13.656854 26 15 24.209139 15 22 C 15 19.790861 13.656854 18 12 18 z M 12 19.34375 C 13.10457 19.34375 14 20.527241 14 22 C 14 23.472759 13.10457 24.65625 12 24.65625 C 10.89543 24.65625 10 23.472759 10 22 C 10 20.527241 10.89543 19.34375 12 19.34375 z "
       style="fill:#000080;fill-opacity:1;stroke:none" />
    <path
       id="path8638-6"
       d="m 19,16 c -1.656854,0 -3,1.790861 -3,4 0,2.209139 1.343146,4 3,4 1.656854,0 3,-1.790861 3,-4 0,-2.209139 -1.343146,-4 -3,-4 z m 0,1.34375 c 1.10457,0 2,1.183491 2,2.65625 0,1.472759 -0.89543,2.65625 -2,2.65625 -1.10457,0 -2,-1.183491 -2,-2.65625 0,-1.472759 0.89543,-2.65625 2,-2.65625 z"
       style="fill:#000080;fill-opacity:1;stroke:none" />
    <path
       id="path8700"
       d="m 13,19 c -8.6666667,8.666667 -4.3333333,4.333333 0,0 z"
       style="fill:#000080;fill-opacity:1;stroke:none" />
    <path
       id="path8702"
       d="m 13,19 c 0,0 0,-4 2,-4 l 0,7 z"
       style="fill:#000080;stroke:none;stroke-width:1px;stroke-linecap:butt;stroke-linejoin:miter;stroke-opacity:1;fill-opacity:1" />
    <path
       id="path8702-8"
       d="m 18,17 c 0,0 0,-2 -2,-2 l 0,5 z"
       style="fill:#000080;fill-opacity:1;stroke:none" />
    <path
       id="path8722"
       d="m 15,16 0,-2 C 15,14 9,7 12,5 L 15.48444,13 18,5 c 0,0 3,0 -2,9 l 0,2 z"
       style="fill:#000000;stroke:none;stroke-width:1px;stroke-linecap:butt;stroke-linejoin:miter;stroke-opacity:1;fill-opacity:1" />
  </g>
</svg>
