<?xml version="1.0" encoding="UTF-8" standalone="no"?>
<svg
   xmlns:dc="http://purl.org/dc/elements/1.1/"
   xmlns:cc="http://creativecommons.org/ns#"
   xmlns:rdf="http://www.w3.org/1999/02/22-rdf-syntax-ns#"
   xmlns:svg="http://www.w3.org/2000/svg"
   xmlns="http://www.w3.org/2000/svg"
   xmlns:xlink="http://www.w3.org/1999/xlink"
   id="svg2"
   height="256"
   width="80"
   version="1.1">
  <defs
     id="defs4">
    <linearGradient
       id="linearGradient4158">
      <stop
         offset="0"
         style="stop-color:#01476d;stop-opacity:1"
         id="stop4160" />
      <stop
         offset="1"
         style="stop-color:#7ad0fe;stop-opacity:1"
         id="stop4162" />
    </linearGradient>
    <linearGradient
       id="linearGradient4109">
      <stop
         offset="0"
         style="stop-color:#016fa9;stop-opacity:1"
         id="stop4111" />
      <stop
         offset="1"
         style="stop-color:#7ad0fe;stop-opacity:1"
         id="stop4113" />
    </linearGradient>
    <linearGradient
       id="linearGradient3274">
      <stop
         offset="0"
         style="stop-color:#7ad0fe;stop-opacity:0"
         id="stop3276" />
      <stop
         offset="1"
         style="stop-color:#016fa9;stop-opacity:0.78930819"
         id="stop3278" />
    </linearGradient>
    <linearGradient
       id="linearGradient3264">
      <stop
         offset="0"
         style="stop-color:#016fa9;stop-opacity:1"
         id="stop3266" />
      <stop
         offset="1"
         style="stop-color:#7ad0fe;stop-opacity:1"
         id="stop3268" />
    </linearGradient>
    <linearGradient
       id="linearGradient4267">
      <stop
         offset="0"
         style="stop-color:#7ad0fe;stop-opacity:1"
         id="stop4269" />
      <stop
         offset="1"
         style="stop-color:#016fa9;stop-opacity:1"
         id="stop4271" />
    </linearGradient>
    <linearGradient
       id="linearGradient4077">
      <stop
         offset="0"
         style="stop-color:#004e88;stop-opacity:1"
         id="stop4079" />
      <stop
         offset="1"
         style="stop-color:#005993;stop-opacity:1"
         id="stop4081" />
    </linearGradient>
    <linearGradient
       id="linearGradient4065">
      <stop
         offset="0"
         style="stop-color:#0081d7;stop-opacity:1"
         id="stop4067" />
      <stop
         offset="1"
         style="stop-color:#00325e;stop-opacity:1"
         id="stop4069" />
    </linearGradient>
    <linearGradient
       id="linearGradient4055">
      <stop
         offset="0"
         style="stop-color:#002d51;stop-opacity:1"
         id="stop4057" />
      <stop
         offset="0.30769232"
         style="stop-color:#016fa9;stop-opacity:1"
         id="stop4059" />
      <stop
         offset="1"
         style="stop-color:#81d4ff;stop-opacity:1"
         id="stop4061" />
    </linearGradient>
    <linearGradient
       id="linearGradient4047">
      <stop
         offset="0"
         style="stop-color:#62b5e0;stop-opacity:1"
         id="stop4049" />
      <stop
         offset="0.5704965"
         style="stop-color:#00508a;stop-opacity:1"
         id="stop4051" />
      <stop
         offset="1"
         style="stop-color:#002d51;stop-opacity:1"
         id="stop4053" />
    </linearGradient>
    <linearGradient
       id="linearGradient4029">
      <stop
         offset="0"
         style="stop-color:#9ef1ff;stop-opacity:1"
         id="stop4031" />
      <stop
         offset="0.5704965"
         style="stop-color:#1e8cc6;stop-opacity:1"
         id="stop4035" />
      <stop
         offset="1"
         style="stop-color:#1d6084;stop-opacity:1"
         id="stop4033" />
    </linearGradient>
    <linearGradient
       id="linearGradient4021">
      <stop
         offset="0"
         style="stop-color:#004367;stop-opacity:1"
         id="stop4023" />
      <stop
         offset="0.30769232"
         style="stop-color:#016fa9;stop-opacity:1"
         id="stop4027" />
      <stop
         offset="1"
         style="stop-color:#81d4ff;stop-opacity:1"
         id="stop4025" />
    </linearGradient>
    <linearGradient
       id="linearGradient3951">
      <stop
         offset="0"
         style="stop-color:#004e88;stop-opacity:1"
         id="stop3953" />
      <stop
         offset="1"
         style="stop-color:#004e88;stop-opacity:0"
         id="stop3955" />
    </linearGradient>
    <clipPath
       id="clipPath3864">
      <rect
         style="fill:#000000;fill-opacity:1;stroke:none"
         id="rect3866"
         y="0"
         x="0"
         height="74"
         width="80" />
    </clipPath>
    <clipPath
       id="clipPath3868">
      <rect
         style="fill:#000000;fill-opacity:1;stroke:none"
         id="rect3870"
         y="0"
         x="0"
         height="74"
         width="80" />
    </clipPath>
    <clipPath
       id="clipPath3872">
      <rect
         style="fill:#000000;fill-opacity:1;stroke:none"
         id="rect3874"
         y="0"
         x="0"
         height="74"
         width="80" />
    </clipPath>
    <clipPath
       id="clipPath3876">
      <rect
         style="fill:#000000;fill-opacity:1;stroke:none"
         id="rect3878"
         y="0"
         x="0"
         height="74"
         width="80" />
    </clipPath>
    <clipPath
       id="clipPath3880">
      <rect
         style="fill:#000000;fill-opacity:1;stroke:none"
         id="rect3882"
         y="0"
         x="0"
         height="74"
         width="80" />
    </clipPath>
    <linearGradient
       gradientUnits="userSpaceOnUse"
       xlink:href="#linearGradient3951"
       id="linearGradient3957"
       y2="175"
       x2="40"
       y1="172"
       x1="40" />
    <linearGradient
       gradientUnits="userSpaceOnUse"
       xlink:href="#linearGradient3951-7"
       id="linearGradient3957-1"
       y2="175"
       x2="40"
       y1="172"
       x1="40" />
    <linearGradient
       id="linearGradient3951-7">
      <stop
         offset="0"
         style="stop-color:#004e88;stop-opacity:1"
         id="stop3953-4" />
      <stop
         offset="1"
         style="stop-color:#004e88;stop-opacity:0"
         id="stop3955-0" />
    </linearGradient>
    <linearGradient
       gradientTransform="translate(-8e-7,-100)"
       gradientUnits="userSpaceOnUse"
       xlink:href="#linearGradient3951-7"
       id="linearGradient3974"
       y2="175"
       x2="40"
       y1="172"
       x1="40" />
    <linearGradient
       gradientUnits="userSpaceOnUse"
       xlink:href="#linearGradient4021"
       id="linearGradient4017"
       y2="182"
       x2="-79"
       y1="182"
       x1="-66" />
    <linearGradient
       gradientUnits="userSpaceOnUse"
       xlink:href="#linearGradient4029"
       id="linearGradient4019"
       y2="180"
       x2="-66"
       y1="180"
       x1="-79" />
    <linearGradient
       gradientUnits="userSpaceOnUse"
       xlink:href="#linearGradient4055"
       id="linearGradient4043"
       y2="182"
       x2="-79"
       y1="182"
       x1="-66" />
    <linearGradient
       gradientUnits="userSpaceOnUse"
       xlink:href="#linearGradient4047"
       id="linearGradient4045"
       y2="180"
       x2="-66"
       y1="180"
       x1="-79" />
    <linearGradient
       gradientTransform="translate(7,0)"
       gradientUnits="userSpaceOnUse"
       xlink:href="#linearGradient4065"
       id="linearGradient4090"
       y2="178"
       x2="-70"
       y1="178"
       x1="-75" />
    <linearGradient
       gradientTransform="matrix(0.6,0,0,1,-22,0)"
       gradientUnits="userSpaceOnUse"
       xlink:href="#linearGradient4077"
       id="linearGradient4092"
       y2="179"
       x2="-73.333336"
       y1="177"
       x1="-73.333336" />
    <linearGradient
       gradientUnits="userSpaceOnUse"
       xlink:href="#linearGradient4055"
       id="linearGradient4125"
       y2="182"
       x2="-79"
       y1="182"
       x1="-66" />
    <linearGradient
       gradientUnits="userSpaceOnUse"
       xlink:href="#linearGradient4047"
       id="linearGradient4127"
       y2="180"
       x2="-66"
       y1="180"
       x1="-79" />
    <linearGradient
       gradientUnits="userSpaceOnUse"
       xlink:href="#linearGradient4021"
       id="linearGradient4129"
       y2="182"
       x2="-79"
       y1="182"
       x1="-66" />
    <linearGradient
       gradientUnits="userSpaceOnUse"
       xlink:href="#linearGradient4029"
       id="linearGradient4131"
       y2="180"
       x2="-66"
       y1="180"
       x1="-79" />
    <linearGradient
       gradientTransform="translate(7,0)"
       gradientUnits="userSpaceOnUse"
       xlink:href="#linearGradient4065"
       id="linearGradient4133"
       y2="178"
       x2="-70"
       y1="178"
       x1="-75" />
    <linearGradient
       gradientTransform="matrix(0.6,0,0,1,-22,0)"
       gradientUnits="userSpaceOnUse"
       xlink:href="#linearGradient4077"
       id="linearGradient4135"
       y2="179"
       x2="-73.333336"
       y1="177"
       x1="-73.333336" />
    <linearGradient
       gradientUnits="userSpaceOnUse"
       xlink:href="#linearGradient4055"
       id="linearGradient4157"
       y2="182"
       x2="-79"
       y1="182"
       x1="-66" />
    <linearGradient
       gradientUnits="userSpaceOnUse"
       xlink:href="#linearGradient4047"
       id="linearGradient4159"
       y2="180"
       x2="-66"
       y1="180"
       x1="-79" />
    <linearGradient
       gradientUnits="userSpaceOnUse"
       xlink:href="#linearGradient4021"
       id="linearGradient4161"
       y2="182"
       x2="-79"
       y1="182"
       x1="-66" />
    <linearGradient
       gradientUnits="userSpaceOnUse"
       xlink:href="#linearGradient4029"
       id="linearGradient4163"
       y2="180"
       x2="-66"
       y1="180"
       x1="-79" />
    <linearGradient
       gradientTransform="translate(7,0)"
       gradientUnits="userSpaceOnUse"
       xlink:href="#linearGradient4065"
       id="linearGradient4165"
       y2="178"
       x2="-70"
       y1="178"
       x1="-75" />
    <linearGradient
       gradientTransform="matrix(0.6,0,0,1,-22,0)"
       gradientUnits="userSpaceOnUse"
       xlink:href="#linearGradient4077"
       id="linearGradient4167"
       y2="179"
       x2="-73.333336"
       y1="177"
       x1="-73.333336" />
    <linearGradient
       gradientUnits="userSpaceOnUse"
       xlink:href="#linearGradient4055"
       id="linearGradient4229"
       y2="182"
       x2="-79"
       y1="182"
       x1="-66" />
    <linearGradient
       gradientUnits="userSpaceOnUse"
       xlink:href="#linearGradient4047"
       id="linearGradient4231"
       y2="180"
       x2="-66"
       y1="180"
       x1="-79" />
    <linearGradient
       gradientUnits="userSpaceOnUse"
       xlink:href="#linearGradient4021"
       id="linearGradient4233"
       y2="182"
       x2="-79"
       y1="182"
       x1="-66" />
    <linearGradient
       gradientUnits="userSpaceOnUse"
       xlink:href="#linearGradient4029"
       id="linearGradient4235"
       y2="180"
       x2="-66"
       y1="180"
       x1="-79" />
    <linearGradient
       gradientTransform="translate(7,0)"
       gradientUnits="userSpaceOnUse"
       xlink:href="#linearGradient4065"
       id="linearGradient4237"
       y2="178"
       x2="-70"
       y1="178"
       x1="-75" />
    <linearGradient
       gradientTransform="matrix(0.6,0,0,1,-22,0)"
       gradientUnits="userSpaceOnUse"
       xlink:href="#linearGradient4077"
       id="linearGradient4239"
       y2="179"
       x2="-73.333336"
       y1="177"
       x1="-73.333336" />
    <linearGradient
       gradientUnits="userSpaceOnUse"
       xlink:href="#linearGradient4055"
       id="linearGradient4241"
       y2="182"
       x2="-79"
       y1="182"
       x1="-66" />
    <linearGradient
       gradientUnits="userSpaceOnUse"
       xlink:href="#linearGradient4047"
       id="linearGradient4243"
       y2="180"
       x2="-66"
       y1="180"
       x1="-79" />
    <linearGradient
       gradientUnits="userSpaceOnUse"
       xlink:href="#linearGradient4021"
       id="linearGradient4245"
       y2="182"
       x2="-79"
       y1="182"
       x1="-66" />
    <linearGradient
       gradientUnits="userSpaceOnUse"
       xlink:href="#linearGradient4029"
       id="linearGradient4247"
       y2="180"
       x2="-66"
       y1="180"
       x1="-79" />
    <linearGradient
       gradientTransform="translate(7,0)"
       gradientUnits="userSpaceOnUse"
       xlink:href="#linearGradient4065"
       id="linearGradient4249"
       y2="178"
       x2="-70"
       y1="178"
       x1="-75" />
    <linearGradient
       gradientTransform="matrix(0.6,0,0,1,-22,0)"
       gradientUnits="userSpaceOnUse"
       xlink:href="#linearGradient4077"
       id="linearGradient4251"
       y2="179"
       x2="-73.333336"
       y1="177"
       x1="-73.333336" />
    <linearGradient
       gradientUnits="userSpaceOnUse"
       xlink:href="#linearGradient4055"
       id="linearGradient4253"
       y2="182"
       x2="-79"
       y1="182"
       x1="-66" />
    <linearGradient
       gradientUnits="userSpaceOnUse"
       xlink:href="#linearGradient4047"
       id="linearGradient4255"
       y2="180"
       x2="-66"
       y1="180"
       x1="-79" />
    <linearGradient
       gradientUnits="userSpaceOnUse"
       xlink:href="#linearGradient4021"
       id="linearGradient4257"
       y2="182"
       x2="-79"
       y1="182"
       x1="-66" />
    <linearGradient
       gradientUnits="userSpaceOnUse"
       xlink:href="#linearGradient4029"
       id="linearGradient4259"
       y2="180"
       x2="-66"
       y1="180"
       x1="-79" />
    <linearGradient
       gradientTransform="translate(7,0)"
       gradientUnits="userSpaceOnUse"
       xlink:href="#linearGradient4065"
       id="linearGradient4261"
       y2="178"
       x2="-70"
       y1="178"
       x1="-75" />
    <linearGradient
       gradientTransform="matrix(0.6,0,0,1,-22,0)"
       gradientUnits="userSpaceOnUse"
       xlink:href="#linearGradient4077"
       id="linearGradient4263"
       y2="179"
       x2="-73.333336"
       y1="177"
       x1="-73.333336" />
    <linearGradient
       gradientUnits="userSpaceOnUse"
       xlink:href="#linearGradient4267"
       id="linearGradient4283"
       y2="243"
       x2="-79"
       y1="241"
       x1="-81" />
    <linearGradient
       gradientUnits="userSpaceOnUse"
       xlink:href="#linearGradient4267"
       id="linearGradient4291"
       y2="243"
       x2="-79"
       y1="241"
       x1="-81" />
    <linearGradient
       gradientUnits="userSpaceOnUse"
       xlink:href="#linearGradient4267"
       id="linearGradient4299"
       y2="243"
       x2="-79"
       y1="241"
       x1="-81" />
    <linearGradient
       gradientUnits="userSpaceOnUse"
       xlink:href="#linearGradient4267"
       id="linearGradient4307"
       y2="243"
       x2="-79"
       y1="241"
       x1="-81" />
    <linearGradient
       gradientUnits="userSpaceOnUse"
       xlink:href="#linearGradient4267"
       id="linearGradient4315"
       y2="243"
       x2="-79"
       y1="241"
       x1="-81" />
    <linearGradient
       gradientUnits="userSpaceOnUse"
       xlink:href="#linearGradient4267"
       id="linearGradient4323"
       y2="243"
       x2="-79"
       y1="241"
       x1="-81" />
    <linearGradient
       gradientUnits="userSpaceOnUse"
       xlink:href="#linearGradient4267"
       id="linearGradient4331"
       y2="243"
       x2="-79"
       y1="241"
       x1="-81" />
    <linearGradient
       gradientUnits="userSpaceOnUse"
       xlink:href="#linearGradient4267"
       id="linearGradient4339"
       y2="243"
       x2="-79"
       y1="241"
       x1="-81" />
    <linearGradient
       gradientUnits="userSpaceOnUse"
       xlink:href="#linearGradient4267"
       id="linearGradient4347"
       y2="243"
       x2="-79"
       y1="241"
       x1="-81" />
    <linearGradient
       gradientUnits="userSpaceOnUse"
       xlink:href="#linearGradient4267"
       id="linearGradient4355"
       y2="243"
       x2="-79"
       y1="241"
       x1="-81" />
    <linearGradient
       gradientUnits="userSpaceOnUse"
       xlink:href="#linearGradient4267"
       id="linearGradient4363"
       y2="243"
       x2="-79"
       y1="241"
       x1="-81" />
    <linearGradient
       gradientUnits="userSpaceOnUse"
       xlink:href="#linearGradient4267"
       id="linearGradient4371"
       y2="243"
       x2="-79"
       y1="241"
       x1="-81" />
    <linearGradient
       gradientUnits="userSpaceOnUse"
       xlink:href="#linearGradient3264"
       id="linearGradient3270"
       y2="123"
       x2="14"
       y1="121"
       x1="14" />
    <linearGradient
       gradientUnits="userSpaceOnUse"
       xlink:href="#linearGradient3274"
       id="linearGradient3280"
       y2="123"
       x2="9"
       y1="123"
       x1="11" />
    <linearGradient
       gradientUnits="userSpaceOnUse"
       xlink:href="#linearGradient3264"
       id="linearGradient4060"
       y2="123"
       x2="14"
       y1="121"
       x1="14" />
    <linearGradient
       gradientUnits="userSpaceOnUse"
       xlink:href="#linearGradient3274"
       id="linearGradient4062"
       y2="123"
       x2="9"
       y1="123"
       x1="11" />
    <linearGradient
       gradientUnits="userSpaceOnUse"
       xlink:href="#linearGradient3264"
       id="linearGradient4070"
       y2="123"
       x2="14"
       y1="121"
       x1="14" />
    <linearGradient
       gradientUnits="userSpaceOnUse"
       xlink:href="#linearGradient3274"
       id="linearGradient4072"
       y2="123"
       x2="9"
       y1="123"
       x1="11" />
    <linearGradient
       gradientUnits="userSpaceOnUse"
       xlink:href="#linearGradient3264"
       id="linearGradient4080"
       y2="123"
       x2="14"
       y1="121"
       x1="14" />
    <linearGradient
       gradientUnits="userSpaceOnUse"
       xlink:href="#linearGradient3274"
       id="linearGradient4082"
       y2="123"
       x2="9"
       y1="123"
       x1="11" />
    <linearGradient
       gradientUnits="userSpaceOnUse"
       xlink:href="#linearGradient3264"
       id="linearGradient4091"
       y2="123"
       x2="14"
       y1="121"
       x1="14" />
    <linearGradient
       gradientUnits="userSpaceOnUse"
       xlink:href="#linearGradient3274"
       id="linearGradient4093"
       y2="123"
       x2="9"
       y1="123"
       x1="11" />
    <linearGradient
       gradientUnits="userSpaceOnUse"
       xlink:href="#linearGradient3264"
       id="linearGradient4101"
       y2="123"
       x2="14"
       y1="121"
       x1="14" />
    <linearGradient
       gradientUnits="userSpaceOnUse"
       xlink:href="#linearGradient3274"
       id="linearGradient4103"
       y2="123"
       x2="9"
       y1="123"
       x1="11" />
    <linearGradient
       gradientTransform="translate(-11,0)"
       gradientUnits="userSpaceOnUse"
       xlink:href="#linearGradient4109"
       id="linearGradient4115"
       y2="133"
       x2="20"
       y1="143"
       x1="29" />
    <linearGradient
       gradientTransform="translate(-11,0)"
       gradientUnits="userSpaceOnUse"
       xlink:href="#linearGradient4109"
       id="linearGradient4134"
       y2="133"
       x2="20"
       y1="143"
       x1="29" />
    <linearGradient
       gradientTransform="translate(-11,0)"
       gradientUnits="userSpaceOnUse"
       xlink:href="#linearGradient4109"
       id="linearGradient4144"
       y2="133"
       x2="20"
       y1="143"
       x1="29" />
    <linearGradient
       gradientTransform="translate(-11,0)"
       gradientUnits="userSpaceOnUse"
       xlink:href="#linearGradient4109"
       id="linearGradient4154"
       y2="133"
       x2="20"
       y1="143"
       x1="29" />
    <linearGradient
       gradientUnits="userSpaceOnUse"
       xlink:href="#linearGradient4158"
       id="linearGradient4164"
       y2="9"
       x2="5"
       y1="71"
       x1="75" />
    <linearGradient
       gradientTransform="matrix(1,0,0,1.3968254,-1.9e-7,71.428556)"
       gradientUnits="userSpaceOnUse"
       xlink:href="#linearGradient4158"
       id="linearGradient4170"
       y2="9"
       x2="5"
       y1="71"
       x1="75" />
    <linearGradient
       gradientTransform="translate(-9.5135498e-8,175)"
       gradientUnits="userSpaceOnUse"
       xlink:href="#linearGradient4158"
       id="linearGradient4180"
       y2="9"
       x2="5"
       y1="71"
       x1="75" />
  </defs>
  <metadata
     id="metadata7">
    <rdf:RDF>
      <cc:Work
         rdf:about="">
        <dc:format>image/svg+xml</dc:format>
        <dc:type
           rdf:resource="http://purl.org/dc/dcmitype/StillImage" />
        <dc:title></dc:title>
      </cc:Work>
    </rdf:RDF>
  </metadata>
  <g
     style="display:inline"
     id="layer3">
    <rect
       style="fill:#000000;fill-opacity:0;stroke:none"
       id="rect4002"
       y="185"
       x="-83"
       height="62"
       width="67" />
  </g>
  <g
     id="g3819">
    <rect
       style="fill:none;stroke:none;display:inline"
       id="rect4006"
       y="231"
       x="86"
       height="15"
       width="7" />
    <rect
       style="fill:#ffff00;fill-opacity:1;fill-rule:evenodd;stroke:none"
       id="rect3786"
       y="0"
       x="0"
       height="256"
       width="80" />
    <path
       style="fill:#000000;fill-opacity:1;stroke:none"
       id="path3788"
       d="m 1,256 -1,-1 0,-7 8,8 z" />
    <path
       style="fill:#000000;fill-opacity:1;stroke:none"
       id="path3790"
       d="M 17,256 0,239 0,231 25,256 z" />
    <path
       style="fill:#000000;fill-opacity:1;stroke:none"
       id="path3792"
       d="M 33,256 0,223 0,215 41,256 z" />
    <path
       style="fill:#000000;fill-opacity:1;stroke:none"
       id="path3794"
       d="m 57,256 -8,0 -49,-49 0,-8 z" />
    <path
       style="fill:#000000;fill-opacity:1;stroke:none"
       id="path3796"
       d="m 73,256 -8,0 -65,-65 0,-8 z" />
    <path
       style="fill:#000000;fill-opacity:1;stroke:none"
       id="path3798"
       d="M 80,255 0,175 0,167 80,247 z" />
    <path
       style="fill:#000000;fill-opacity:1;stroke:none"
       id="path3800"
       d="M 80,239 0,159 0,151 80,231 z" />
    <path
       style="fill:#000000;fill-opacity:1;stroke:none"
       id="path3802"
       d="M 80,223 0,143 0,135 80,215 z" />
    <path
       style="fill:#000000;fill-opacity:1;stroke:none"
       id="path3804"
       d="M 80,207 0,127 0,119 80,199 z" />
    <path
       style="fill:#000000;fill-opacity:1;stroke:none"
       id="path3806"
       d="M 80,191 0,111 0,103 80,183 z" />
    <path
       style="fill:#000000;fill-opacity:1;stroke:none"
       id="path3808"
       d="M 80,175 0,95 0,87 80,167 z" />
    <path
       style="fill:#000000;fill-opacity:1;stroke:none"
       id="path3810"
       d="M 80,159 0,79 0,71 80,151 z" />
    <path
       style="fill:#000000;fill-opacity:1;stroke:none"
       id="path3812"
       d="M 80,143 0,63 0,55 80,135 z" />
    <path
       style="fill:#000000;fill-opacity:1;stroke:none"
       id="path3814"
       d="M 80,127 0,47 0,39 80,119 z" />
    <path
       style="fill:#000000;fill-opacity:1;stroke:none"
       id="path3816"
       d="M 80,111 0,31 0,23 80,103 z" />
    <path
       style="fill:#000000;fill-opacity:1;stroke:none"
       id="path3818"
       d="M 80,95 0,15 0,7 80,87 z" />
    <path
       style="fill:#000000;fill-opacity:1;stroke:none"
       id="path3822"
       clip-path="url(#clipPath3876)"
       d="M 80,63 0,-17 0,-25 80,55 z" />
    <path
       style="fill:#000000;fill-opacity:1;stroke:none"
       id="path3824"
       clip-path="url(#clipPath3872)"
       d="M 80,47 0,-33 0,-41 80,39 z" />
    <path
       style="fill:#000000;fill-opacity:1;stroke:none"
       id="path3826"
       clip-path="url(#clipPath3868)"
       d="M 80,31 0,-49 0,-57 80,23 z" />
    <path
       style="fill:#000000;fill-opacity:1;stroke:none"
       id="path3828"
       clip-path="url(#clipPath3864)"
       d="M 80,15 0,-65 0,-73 80,7 z" />
    <path
       style="fill:#000000;fill-opacity:1;stroke:none"
       id="path3884"
       d="M 80,79 1,0 9,0 80,71 z" />
  </g>
  <rect
     style="fill:#016fa9;fill-opacity:1;stroke:none"
     id="rect3886"
     y="8"
     x="4"
     height="240"
     width="72" />
  <rect
     style="fill:url(#linearGradient4180);fill-opacity:1;stroke:none"
     id="rect4178"
     y="184"
     x="5"
     height="63"
     width="70" />
  <rect
     style="fill:#000000;fill-opacity:0;stroke:none"
     id="rect4000"
     y="185"
     x="-83"
     height="62"
     width="67" />
  <rect
     style="fill:#0aa6fe;fill-opacity:1;stroke:none"
     id="rect3867"
     y="186"
     x="7"
     height="59"
     width="66" />
  <rect
     style="fill:url(#linearGradient4170);fill-opacity:1;stroke:none"
     id="rect4168"
     y="84"
     x="5"
     height="88"
     width="70" />
  <rect
     style="fill:#0aa6fe;fill-opacity:1;stroke:none"
     id="rect3937"
     y="86"
     x="7"
     height="84"
     width="66" />
  <path
     style="fill:url(#linearGradient3957);fill-opacity:1;stroke:none"
     id="path3949"
     d="m 6,172 68,0 -3,3 -62,0 z" />
  <path
     style="fill:url(#linearGradient3974);fill-opacity:1;stroke:none"
     id="path3949-9"
     d="M 5.9999992,72 74,72 71,75 8.999999,75 z" />
  <g
     id="g4094">
    <g
       id="g4037"
       transform="matrix(1,0,0,-1,90,356)">
      <rect
         style="fill:url(#linearGradient4043);fill-opacity:1;stroke:none"
         id="rect4039"
         y="180"
         x="-79"
         height="4"
         width="13" />
      <rect
         style="fill:url(#linearGradient4045);fill-opacity:1;stroke:none"
         id="rect4041"
         y="179"
         x="-79"
         height="1"
         width="13" />
    </g>
    <g
       id="g4013"
       transform="translate(90,0)">
      <rect
         style="fill:url(#linearGradient4017);fill-opacity:1;stroke:none"
         id="rect3993"
         y="180"
         x="-79"
         height="4"
         width="13" />
      <rect
         style="fill:url(#linearGradient4019);fill-opacity:1;stroke:none"
         id="rect4003"
         y="179"
         x="-79"
         height="1"
         width="13" />
    </g>
    <g
       id="g4086"
       transform="translate(83,0)">
      <rect
         style="fill:url(#linearGradient4090);fill-opacity:1;stroke:none"
         id="rect4063"
         y="177"
         x="-68"
         height="2"
         width="5" />
      <rect
         style="fill:url(#linearGradient4092);fill-opacity:1;stroke:none"
         id="rect4073"
         y="177"
         x="-67"
         height="2"
         width="3" />
    </g>
  </g>
  <g
     id="g4105"
     transform="translate(23,0)">
    <g
       id="g4107"
       transform="matrix(1,0,0,-1,90,356)">
      <rect
         style="fill:url(#linearGradient4125);fill-opacity:1;stroke:none"
         id="rect4109"
         y="180"
         x="-79"
         height="4"
         width="13" />
      <rect
         style="fill:url(#linearGradient4127);fill-opacity:1;stroke:none"
         id="rect4111"
         y="179"
         x="-79"
         height="1"
         width="13" />
    </g>
    <g
       id="g4113"
       transform="translate(90,0)">
      <rect
         style="fill:url(#linearGradient4129);fill-opacity:1;stroke:none"
         id="rect4115"
         y="180"
         x="-79"
         height="4"
         width="13" />
      <rect
         style="fill:url(#linearGradient4131);fill-opacity:1;stroke:none"
         id="rect4117"
         y="179"
         x="-79"
         height="1"
         width="13" />
    </g>
    <g
       id="g4119"
       transform="translate(83,0)">
      <rect
         style="fill:url(#linearGradient4133);fill-opacity:1;stroke:none"
         id="rect4121"
         y="177"
         x="-68"
         height="2"
         width="5" />
      <rect
         style="fill:url(#linearGradient4135);fill-opacity:1;stroke:none"
         id="rect4123"
         y="177"
         x="-67"
         height="2"
         width="3" />
    </g>
  </g>
  <g
     id="g4137"
     transform="translate(45,0)">
    <g
       id="g4139"
       transform="matrix(1,0,0,-1,90,356)">
      <rect
         style="fill:url(#linearGradient4157);fill-opacity:1;stroke:none"
         id="rect4141"
         y="180"
         x="-79"
         height="4"
         width="13" />
      <rect
         style="fill:url(#linearGradient4159);fill-opacity:1;stroke:none"
         id="rect4143"
         y="179"
         x="-79"
         height="1"
         width="13" />
    </g>
    <g
       id="g4145"
       transform="translate(90,0)">
      <rect
         style="fill:url(#linearGradient4161);fill-opacity:1;stroke:none"
         id="rect4147"
         y="180"
         x="-79"
         height="4"
         width="13" />
      <rect
         style="fill:url(#linearGradient4163);fill-opacity:1;stroke:none"
         id="rect4149"
         y="179"
         x="-79"
         height="1"
         width="13" />
    </g>
    <g
       id="g4151"
       transform="translate(83,0)">
      <rect
         style="fill:url(#linearGradient4165);fill-opacity:1;stroke:none"
         id="rect4153"
         y="177"
         x="-68"
         height="2"
         width="5" />
      <rect
         style="fill:url(#linearGradient4167);fill-opacity:1;stroke:none"
         id="rect4155"
         y="177"
         x="-67"
         height="2"
         width="3" />
    </g>
  </g>
  <g
     id="g4169"
     transform="translate(1e-7,-100)">
    <g
       id="g4171"
       transform="matrix(1,0,0,-1,90,356)">
      <rect
         style="fill:url(#linearGradient4229);fill-opacity:1;stroke:none"
         id="rect4173"
         y="180"
         x="-79"
         height="4"
         width="13" />
      <rect
         style="fill:url(#linearGradient4231);fill-opacity:1;stroke:none"
         id="rect4175"
         y="179"
         x="-79"
         height="1"
         width="13" />
    </g>
    <g
       id="g4177"
       transform="translate(90,0)">
      <rect
         style="fill:url(#linearGradient4233);fill-opacity:1;stroke:none"
         id="rect4179"
         y="180"
         x="-79"
         height="4"
         width="13" />
      <rect
         style="fill:url(#linearGradient4235);fill-opacity:1;stroke:none"
         id="rect4181"
         y="179"
         x="-79"
         height="1"
         width="13" />
    </g>
    <g
       id="g4183"
       transform="translate(83,0)">
      <rect
         style="fill:url(#linearGradient4237);fill-opacity:1;stroke:none"
         id="rect4185"
         y="177"
         x="-68"
         height="2"
         width="5" />
      <rect
         style="fill:url(#linearGradient4239);fill-opacity:1;stroke:none"
         id="rect4187"
         y="177"
         x="-67"
         height="2"
         width="3" />
    </g>
  </g>
  <g
     id="g4189"
     transform="translate(23,-100)">
    <g
       id="g4191"
       transform="matrix(1,0,0,-1,90,356)">
      <rect
         style="fill:url(#linearGradient4241);fill-opacity:1;stroke:none"
         id="rect4193"
         y="180"
         x="-79"
         height="4"
         width="13" />
      <rect
         style="fill:url(#linearGradient4243);fill-opacity:1;stroke:none"
         id="rect4195"
         y="179"
         x="-79"
         height="1"
         width="13" />
    </g>
    <g
       id="g4197"
       transform="translate(90,0)">
      <rect
         style="fill:url(#linearGradient4245);fill-opacity:1;stroke:none"
         id="rect4199"
         y="180"
         x="-79"
         height="4"
         width="13" />
      <rect
         style="fill:url(#linearGradient4247);fill-opacity:1;stroke:none"
         id="rect4201"
         y="179"
         x="-79"
         height="1"
         width="13" />
    </g>
    <g
       id="g4203"
       transform="translate(83,0)">
      <rect
         style="fill:url(#linearGradient4249);fill-opacity:1;stroke:none"
         id="rect4205"
         y="177"
         x="-68"
         height="2"
         width="5" />
      <rect
         style="fill:url(#linearGradient4251);fill-opacity:1;stroke:none"
         id="rect4207"
         y="177"
         x="-67"
         height="2"
         width="3" />
    </g>
  </g>
  <rect
     style="fill:url(#linearGradient4164);fill-opacity:1;stroke:none"
     id="rect4156"
     y="9"
     x="5"
     height="63"
     width="70" />
  <g
     id="g4209"
     transform="translate(45,-100)">
    <g
       id="g4211"
       transform="matrix(1,0,0,-1,90,356)">
      <rect
         style="fill:url(#linearGradient4253);fill-opacity:1;stroke:none"
         id="rect4213"
         y="180"
         x="-79"
         height="4"
         width="13" />
      <rect
         style="fill:url(#linearGradient4255);fill-opacity:1;stroke:none"
         id="rect4215"
         y="179"
         x="-79"
         height="1"
         width="13" />
    </g>
    <g
       id="g4217"
       transform="translate(90,0)">
      <rect
         style="fill:url(#linearGradient4257);fill-opacity:1;stroke:none"
         id="rect4219"
         y="180"
         x="-79"
         height="4"
         width="13" />
      <rect
         style="fill:url(#linearGradient4259);fill-opacity:1;stroke:none"
         id="rect4221"
         y="179"
         x="-79"
         height="1"
         width="13" />
    </g>
    <g
       id="g4223"
       transform="translate(83,0)">
      <rect
         style="fill:url(#linearGradient4261);fill-opacity:1;stroke:none"
         id="rect4225"
         y="177"
         x="-68"
         height="2"
         width="5" />
      <rect
         style="fill:url(#linearGradient4263);fill-opacity:1;stroke:none"
         id="rect4227"
         y="177"
         x="-67"
         height="2"
         width="3" />
    </g>
  </g>
  <g
     id="g4279"
     transform="translate(85,0)">
    <path
       style="fill:url(#linearGradient4283);fill-opacity:1;stroke:none"
       id="path4265"
       transform="translate(5,0)"
       d="m -78,242 a 2,2 0 1 1 -4,0 2,2 0 1 1 4,0 z" />
    <path
       style="fill:#0090e2;fill-opacity:1;stroke:none"
       id="path4275"
       transform="matrix(0.5,0,0,0.5,-35,121)"
       d="m -78,242 a 2,2 0 1 1 -4,0 2,2 0 1 1 4,0 z" />
  </g>
  <g
     id="g4285"
     transform="translate(145,0)">
    <path
       style="fill:url(#linearGradient4291);fill-opacity:1;stroke:none"
       id="path4287"
       transform="translate(5,0)"
       d="m -78,242 a 2,2 0 1 1 -4,0 2,2 0 1 1 4,0 z" />
    <path
       style="fill:#0090e2;fill-opacity:1;stroke:none"
       id="path4289"
       transform="matrix(0.5,0,0,0.5,-35,121)"
       d="m -78,242 a 2,2 0 1 1 -4,0 2,2 0 1 1 4,0 z" />
  </g>
  <g
     id="g4293"
     transform="translate(145,-53)">
    <path
       style="fill:url(#linearGradient4299);fill-opacity:1;stroke:none"
       id="path4295"
       transform="translate(5,0)"
       d="m -78,242 a 2,2 0 1 1 -4,0 2,2 0 1 1 4,0 z" />
    <path
       style="fill:#0090e2;fill-opacity:1;stroke:none"
       id="path4297"
       transform="matrix(0.5,0,0,0.5,-35,121)"
       d="m -78,242 a 2,2 0 1 1 -4,0 2,2 0 1 1 4,0 z" />
  </g>
  <g
     id="g4301"
     transform="translate(85,-53)">
    <path
       style="fill:url(#linearGradient4307);fill-opacity:1;stroke:none"
       id="path4303"
       transform="translate(5,0)"
       d="m -78,242 a 2,2 0 1 1 -4,0 2,2 0 1 1 4,0 z" />
    <path
       style="fill:#0090e2;fill-opacity:1;stroke:none"
       id="path4305"
       transform="matrix(0.5,0,0,0.5,-35,121)"
       d="m -78,242 a 2,2 0 1 1 -4,0 2,2 0 1 1 4,0 z" />
  </g>
  <g
     id="g4309"
     transform="translate(85,-75)">
    <path
       style="fill:url(#linearGradient4315);fill-opacity:1;stroke:none"
       id="path4311"
       transform="translate(5,0)"
       d="m -78,242 a 2,2 0 1 1 -4,0 2,2 0 1 1 4,0 z" />
    <path
       style="fill:#0090e2;fill-opacity:1;stroke:none"
       id="path4313"
       transform="matrix(0.5,0,0,0.5,-35,121)"
       d="m -78,242 a 2,2 0 1 1 -4,0 2,2 0 1 1 4,0 z" />
  </g>
  <g
     id="g4317"
     transform="translate(145,-75)">
    <path
       style="fill:url(#linearGradient4323);fill-opacity:1;stroke:none"
       id="path4319"
       transform="translate(5,0)"
       d="m -78,242 a 2,2 0 1 1 -4,0 2,2 0 1 1 4,0 z" />
    <path
       style="fill:#0090e2;fill-opacity:1;stroke:none"
       id="path4321"
       transform="matrix(0.5,0,0,0.5,-35,121)"
       d="m -78,242 a 2,2 0 1 1 -4,0 2,2 0 1 1 4,0 z" />
  </g>
  <g
     id="g4325"
     transform="translate(145,-153)">
    <path
       style="fill:url(#linearGradient4331);fill-opacity:1;stroke:none"
       id="path4327"
       transform="translate(5,0)"
       d="m -78,242 a 2,2 0 1 1 -4,0 2,2 0 1 1 4,0 z" />
    <path
       style="fill:#0090e2;fill-opacity:1;stroke:none"
       id="path4329"
       transform="matrix(0.5,0,0,0.5,-35,121)"
       d="m -78,242 a 2,2 0 1 1 -4,0 2,2 0 1 1 4,0 z" />
  </g>
  <g
     id="g4333"
     transform="translate(85,-153)">
    <path
       style="fill:url(#linearGradient4339);fill-opacity:1;stroke:none"
       id="path4335"
       transform="translate(5,0)"
       d="m -78,242 a 2,2 0 1 1 -4,0 2,2 0 1 1 4,0 z" />
    <path
       style="fill:#0090e2;fill-opacity:1;stroke:none"
       id="path4337"
       transform="matrix(0.5,0,0,0.5,-35,121)"
       d="m -78,242 a 2,2 0 1 1 -4,0 2,2 0 1 1 4,0 z" />
  </g>
  <rect
     style="fill:#0aa6fe;fill-opacity:1;stroke:none"
     id="rect4166"
     y="11"
     x="7"
     height="59"
     width="66" />
  <g
     id="g4341"
     transform="translate(85,-175)">
    <path
       style="fill:url(#linearGradient4347);fill-opacity:1;stroke:none"
       id="path4343"
       transform="translate(5,0)"
       d="m -78,242 a 2,2 0 1 1 -4,0 2,2 0 1 1 4,0 z" />
    <path
       style="fill:#0090e2;fill-opacity:1;stroke:none"
       id="path4345"
       transform="matrix(0.5,0,0,0.5,-35,121)"
       d="m -78,242 a 2,2 0 1 1 -4,0 2,2 0 1 1 4,0 z" />
  </g>
  <g
     id="g4349"
     transform="translate(85,-228)">
    <path
       style="fill:url(#linearGradient4355);fill-opacity:1;stroke:none"
       id="path4351"
       transform="translate(5,0)"
       d="m -78,242 a 2,2 0 1 1 -4,0 2,2 0 1 1 4,0 z" />
    <path
       style="fill:#0090e2;fill-opacity:1;stroke:none"
       id="path4353"
       transform="matrix(0.5,0,0,0.5,-35,121)"
       d="m -78,242 a 2,2 0 1 1 -4,0 2,2 0 1 1 4,0 z" />
  </g>
  <g
     id="g4357"
     transform="translate(145,-228)">
    <path
       style="fill:url(#linearGradient4363);fill-opacity:1;stroke:none"
       id="path4359"
       transform="translate(5,0)"
       d="m -78,242 a 2,2 0 1 1 -4,0 2,2 0 1 1 4,0 z" />
    <path
       style="fill:#0090e2;fill-opacity:1;stroke:none"
       id="path4361"
       transform="matrix(0.5,0,0,0.5,-35,121)"
       d="m -78,242 a 2,2 0 1 1 -4,0 2,2 0 1 1 4,0 z" />
  </g>
  <g
     id="g4365"
     transform="translate(145,-175)">
    <path
       style="fill:url(#linearGradient4371);fill-opacity:1;stroke:none"
       id="path4367"
       transform="translate(5,0)"
       d="m -78,242 a 2,2 0 1 1 -4,0 2,2 0 1 1 4,0 z" />
    <path
       style="fill:#0090e2;fill-opacity:1;stroke:none"
       id="path4369"
       transform="matrix(0.5,0,0,0.5,-35,121)"
       d="m -78,242 a 2,2 0 1 1 -4,0 2,2 0 1 1 4,0 z" />
  </g>
  <g
     id="g4381"
     transform="translate(68,-1)">
    <path
       style="fill:#016fa9;fill-opacity:1;stroke:none"
       id="path4373"
       d="m -36,198 0,19 -8,0 16.503306,16.53049 L -11,217 l -8,0 0,-19 z" />
    <path
       style="fill:#0090e2;fill-opacity:1;stroke:none"
       id="path4379"
       d="M -41.375,218 -27.515449,232.04266 -13.5,218 l -6.5,0 0,-19 -15,0 0,19 z" />
  </g>
  <g
     id="g4385"
     transform="translate(68,-175)">
    <path
       style="fill:#016fa9;fill-opacity:1;stroke:none"
       id="path4387"
       d="m -36,198 0,19 -8,0 16.503306,16.53049 L -11,217 l -8,0 0,-19 z" />
    <path
       style="fill:#0090e2;fill-opacity:1;stroke:none"
       id="path4389"
       d="M -41.25,218 -27.515449,232.10516 -13.5625,218 -20,218 l 0,-19 -15,0 0,19 z" />
  </g>
  <g
     id="g4050">
    <rect
       style="fill:url(#linearGradient3270);fill-opacity:1;stroke:none"
       id="rect3262"
       y="121"
       x="9"
       height="2"
       width="9" />
    <rect
       style="fill:url(#linearGradient3280);fill-opacity:1;stroke:none"
       id="rect3272"
       y="121"
       x="9"
       height="2"
       width="2" />
  </g>
  <g
     id="g4054"
     transform="translate(0,3)">
    <rect
       style="fill:url(#linearGradient4060);fill-opacity:1;stroke:none"
       id="rect4056"
       y="121"
       x="9"
       height="2"
       width="9" />
    <rect
       style="fill:url(#linearGradient4062);fill-opacity:1;stroke:none"
       id="rect4058"
       y="121"
       x="9"
       height="2"
       width="2" />
  </g>
  <g
     id="g4064"
     transform="translate(0,6)">
    <rect
       style="fill:url(#linearGradient4070);fill-opacity:1;stroke:none"
       id="rect4066"
       y="121"
       x="9"
       height="2"
       width="9" />
    <rect
       style="fill:url(#linearGradient4072);fill-opacity:1;stroke:none"
       id="rect4068"
       y="121"
       x="9"
       height="2"
       width="2" />
  </g>
  <g
     id="g4074"
     transform="translate(53,0)">
    <rect
       style="fill:url(#linearGradient4080);fill-opacity:1;stroke:none"
       id="rect4076"
       y="121"
       x="9"
       height="2"
       width="9" />
    <rect
       style="fill:url(#linearGradient4082);fill-opacity:1;stroke:none"
       id="rect4078"
       y="121"
       x="9"
       height="2"
       width="2" />
  </g>
  <g
     id="g4084"
     transform="translate(53,3)">
    <rect
       style="fill:url(#linearGradient4091);fill-opacity:1;stroke:none"
       id="rect4086"
       y="121"
       x="9"
       height="2"
       width="9" />
    <rect
       style="fill:url(#linearGradient4093);fill-opacity:1;stroke:none"
       id="rect4088"
       y="121"
       x="9"
       height="2"
       width="2" />
  </g>
  <g
     id="g4095"
     transform="translate(53,6)">
    <rect
       style="fill:url(#linearGradient4101);fill-opacity:1;stroke:none"
       id="rect4097"
       y="121"
       x="9"
       height="2"
       width="9" />
    <rect
       style="fill:url(#linearGradient4103);fill-opacity:1;stroke:none"
       id="rect4099"
       y="121"
       x="9"
       height="2"
       width="2" />
  </g>
  <g
     id="g4120">
    <rect
       style="opacity:0.7893082;fill:#7ad0fe;fill-opacity:0;stroke:none"
       id="rect4105"
       y="133"
       x="9"
       height="10"
       width="9" />
    <rect
       style="opacity:0.7893082;fill:url(#linearGradient4115);fill-opacity:1;stroke:none"
       id="rect4107"
       y="133"
       x="9"
       height="10"
       width="9" />
    <rect
       style="opacity:0.7893082;fill:#0185cb;fill-opacity:1;stroke:none"
       id="rect4118"
       y="134"
       x="10"
       height="8"
       width="7" />
  </g>
  <g
     id="g4125"
     transform="translate(0,12)">
    <rect
       style="opacity:0.7893082;fill:#7ad0fe;fill-opacity:0;stroke:none"
       id="rect4127"
       y="133"
       x="9"
       height="10"
       width="9" />
    <rect
       style="opacity:0.7893082;fill:url(#linearGradient4134);fill-opacity:1;stroke:none"
       id="rect4129"
       y="133"
       x="9"
       height="10"
       width="9" />
    <rect
       style="opacity:0.7893082;fill:#0185cb;fill-opacity:1;stroke:none"
       id="rect4131"
       y="134"
       x="10"
       height="8"
       width="7" />
  </g>
  <g
     id="g4136"
     transform="translate(53,0)">
    <rect
       style="opacity:0.7893082;fill:#7ad0fe;fill-opacity:0;stroke:none"
       id="rect4138"
       y="133"
       x="9"
       height="10"
       width="9" />
    <rect
       style="opacity:0.7893082;fill:url(#linearGradient4144);fill-opacity:1;stroke:none"
       id="rect4140"
       y="133"
       x="9"
       height="10"
       width="9" />
    <rect
       style="opacity:0.7893082;fill:#0185cb;fill-opacity:1;stroke:none"
       id="rect4142"
       y="134"
       x="10"
       height="8"
       width="7" />
  </g>
  <g
     id="g4146"
     transform="translate(53,12)">
    <rect
       style="opacity:0.7893082;fill:#7ad0fe;fill-opacity:0;stroke:none"
       id="rect4148"
       y="133"
       x="9"
       height="10"
       width="9" />
    <rect
       style="opacity:0.7893082;fill:url(#linearGradient4154);fill-opacity:1;stroke:none"
       id="rect4150"
       y="133"
       x="9"
       height="10"
       width="9" />
    <rect
       style="opacity:0.7893082;fill:#0185cb;fill-opacity:1;stroke:none"
       id="rect4152"
       y="134"
       x="10"
       height="8"
       width="7" />
  </g>
</svg>
