<?xml version="1.0" encoding="UTF-8" standalone="no"?>
<svg
   xmlns:dc="http://purl.org/dc/elements/1.1/"
   xmlns:cc="http://creativecommons.org/ns#"
   xmlns:rdf="http://www.w3.org/1999/02/22-rdf-syntax-ns#"
   xmlns:svg="http://www.w3.org/2000/svg"
   xmlns="http://www.w3.org/2000/svg"
   xmlns:xlink="http://www.w3.org/1999/xlink"
   version="1.1"
   id="svg2"
   height="120"
   width="120">
  <defs
     id="defs4">
    <linearGradient
       id="linearGradient4090">
      <stop
         id="stop4092"
         offset="0"
         style="stop-color:#019cef;stop-opacity:1" />
      <stop
         id="stop4094"
         offset="1"
         style="stop-color:#38b9fe;stop-opacity:1" />
    </linearGradient>
    <linearGradient
       id="linearGradient4080">
      <stop
         id="stop4082"
         offset="0"
         style="stop-color:#0186cd;stop-opacity:1" />
      <stop
         id="stop4084"
         offset="1"
         style="stop-color:#7ad0fe;stop-opacity:1" />
    </linearGradient>
    <linearGradient
       id="linearGradient4066">
      <stop
         id="stop4068"
         offset="0"
         style="stop-color:#e6e6e6;stop-opacity:1" />
      <stop
         id="stop4070"
         offset="1"
         style="stop-color:#919191;stop-opacity:1" />
    </linearGradient>
    <linearGradient
       id="linearGradient4046">
      <stop
         id="stop4048"
         offset="0"
         style="stop-color:#666666;stop-opacity:1" />
      <stop
         id="stop4050"
         offset="1"
         style="stop-color:#bebebe;stop-opacity:1" />
    </linearGradient>
    <linearGradient
       id="linearGradient3816">
      <stop
         id="stop3818"
         offset="0"
         style="stop-color:#d9d9d9;stop-opacity:1" />
      <stop
         id="stop3820"
         offset="1"
         style="stop-color:#808080;stop-opacity:1" />
    </linearGradient>
    <linearGradient
       id="linearGradient3790">
      <stop
         id="stop3792"
         offset="0"
         style="stop-color:#666666;stop-opacity:1" />
      <stop
         id="stop3794"
         offset="1"
         style="stop-color:#d9d9d9;stop-opacity:1" />
    </linearGradient>
    <linearGradient
       id="linearGradient3774">
      <stop
         id="stop3776"
         offset="0"
         style="stop-color:#666666;stop-opacity:1" />
      <stop
         id="stop3778"
         offset="1"
         style="stop-color:#bebebe;stop-opacity:1" />
    </linearGradient>
    <linearGradient
       gradientUnits="userSpaceOnUse"
       y2="47.961224"
       x2="-81.681633"
       y1="-34.538776"
       x1="-159.89592"
       id="linearGradient3780"
       xlink:href="#linearGradient3774" />
    <linearGradient
       gradientUnits="userSpaceOnUse"
       y2="16.88722"
       x2="-110.05148"
       y1="45.822853"
       x1="-82.371796"
       id="linearGradient3796"
       xlink:href="#linearGradient3790" />
    <linearGradient
       gradientUnits="userSpaceOnUse"
       y2="109"
       x2="-79"
       y1="111"
       x1="-77"
       id="linearGradient3822"
       xlink:href="#linearGradient3816" />
    <linearGradient
       y2="109"
       x2="-79"
       y1="111"
       x1="-77"
       gradientUnits="userSpaceOnUse"
       id="linearGradient3866"
       xlink:href="#linearGradient3816" />
    <linearGradient
       y2="109"
       x2="-79"
       y1="111"
       x1="-77"
       gradientUnits="userSpaceOnUse"
       id="linearGradient3874"
       xlink:href="#linearGradient3816" />
    <linearGradient
       y2="109"
       x2="-79"
       y1="111"
       x1="-77"
       gradientUnits="userSpaceOnUse"
       id="linearGradient3882"
       xlink:href="#linearGradient3816" />
    <linearGradient
       y2="109"
       x2="-79"
       y1="111"
       x1="-77"
       gradientUnits="userSpaceOnUse"
       id="linearGradient3890"
       xlink:href="#linearGradient3816" />
    <linearGradient
       y2="109"
       x2="-79"
       y1="111"
       x1="-77"
       gradientUnits="userSpaceOnUse"
       id="linearGradient3898"
       xlink:href="#linearGradient3816" />
    <linearGradient
       y2="109"
       x2="-79"
       y1="111"
       x1="-77"
       gradientUnits="userSpaceOnUse"
       id="linearGradient3906"
       xlink:href="#linearGradient3816" />
    <linearGradient
       y2="109"
       x2="-79"
       y1="111"
       x1="-77"
       gradientUnits="userSpaceOnUse"
       id="linearGradient3914"
       xlink:href="#linearGradient3816" />
    <linearGradient
       y2="109"
       x2="-79"
       y1="111"
       x1="-77"
       gradientUnits="userSpaceOnUse"
       id="linearGradient3922"
       xlink:href="#linearGradient3816" />
    <linearGradient
       y2="109"
       x2="-79"
       y1="111"
       x1="-77"
       gradientUnits="userSpaceOnUse"
       id="linearGradient3930"
       xlink:href="#linearGradient3816" />
    <linearGradient
       y2="109"
       x2="-79"
       y1="111"
       x1="-77"
       gradientUnits="userSpaceOnUse"
       id="linearGradient3938"
       xlink:href="#linearGradient3816" />
    <linearGradient
       y2="109"
       x2="-79"
       y1="111"
       x1="-77"
       gradientUnits="userSpaceOnUse"
       id="linearGradient3946"
       xlink:href="#linearGradient3816" />
    <linearGradient
       y2="109"
       x2="-79"
       y1="111"
       x1="-77"
       gradientUnits="userSpaceOnUse"
       id="linearGradient3954"
       xlink:href="#linearGradient3816" />
    <linearGradient
       y2="109"
       x2="-79"
       y1="111"
       x1="-77"
       gradientUnits="userSpaceOnUse"
       id="linearGradient3962"
       xlink:href="#linearGradient3816" />
    <linearGradient
       y2="109"
       x2="-79"
       y1="111"
       x1="-77"
       gradientUnits="userSpaceOnUse"
       id="linearGradient3970"
       xlink:href="#linearGradient3816" />
    <linearGradient
       y2="109"
       x2="-79"
       y1="111"
       x1="-77"
       gradientUnits="userSpaceOnUse"
       id="linearGradient3978"
       xlink:href="#linearGradient3816" />
    <linearGradient
       y2="109"
       x2="-79"
       y1="111"
       x1="-77"
       gradientUnits="userSpaceOnUse"
       id="linearGradient3986"
       xlink:href="#linearGradient3816" />
    <linearGradient
       y2="109"
       x2="-79"
       y1="111"
       x1="-77"
       gradientUnits="userSpaceOnUse"
       id="linearGradient3994"
       xlink:href="#linearGradient3816" />
    <linearGradient
       y2="109"
       x2="-79"
       y1="111"
       x1="-77"
       gradientUnits="userSpaceOnUse"
       id="linearGradient4002"
       xlink:href="#linearGradient3816" />
    <linearGradient
       y2="109"
       x2="-79"
       y1="111"
       x1="-77"
       gradientUnits="userSpaceOnUse"
       id="linearGradient4010"
       xlink:href="#linearGradient3816" />
    <linearGradient
       y2="109"
       x2="-79"
       y1="111"
       x1="-77"
       gradientUnits="userSpaceOnUse"
       id="linearGradient4018"
       xlink:href="#linearGradient3816" />
    <linearGradient
       y2="109"
       x2="-79"
       y1="111"
       x1="-77"
       gradientUnits="userSpaceOnUse"
       id="linearGradient4026"
       xlink:href="#linearGradient3816" />
    <linearGradient
       y2="109"
       x2="-79"
       y1="111"
       x1="-77"
       gradientUnits="userSpaceOnUse"
       id="linearGradient4034"
       xlink:href="#linearGradient3816" />
    <linearGradient
       y2="109"
       x2="-79"
       y1="111"
       x1="-77"
       gradientUnits="userSpaceOnUse"
       id="linearGradient4042"
       xlink:href="#linearGradient3816" />
    <linearGradient
       gradientUnits="userSpaceOnUse"
       y2="77"
       x2="-45"
       y1="40"
       x1="-84"
       id="linearGradient4052"
       xlink:href="#linearGradient4046" />
    <linearGradient
       gradientUnits="userSpaceOnUse"
       y2="39.745651"
       x2="-83.127777"
       y1="77.143578"
       x1="-45.99229"
       id="linearGradient4072"
       xlink:href="#linearGradient4066" />
    <linearGradient
       gradientUnits="userSpaceOnUse"
       y2="50"
       x2="-75"
       y1="52"
       x1="-73"
       id="linearGradient4086"
       xlink:href="#linearGradient4080" />
    <linearGradient
       gradientUnits="userSpaceOnUse"
       y2="50.625"
       x2="-74.464287"
       y1="51.473213"
       x1="-73.616074"
       id="linearGradient4096"
       xlink:href="#linearGradient4090" />
    <linearGradient
       y2="50"
       x2="-75"
       y1="52"
       x1="-73"
       gradientUnits="userSpaceOnUse"
       id="linearGradient4102"
       xlink:href="#linearGradient4080" />
    <linearGradient
       y2="50.625"
       x2="-74.464287"
       y1="51.473213"
       x1="-73.616074"
       gradientUnits="userSpaceOnUse"
       id="linearGradient4104"
       xlink:href="#linearGradient4090" />
    <linearGradient
       y2="50"
       x2="-75"
       y1="52"
       x1="-73"
       gradientUnits="userSpaceOnUse"
       id="linearGradient4110"
       xlink:href="#linearGradient4080" />
    <linearGradient
       y2="50.625"
       x2="-74.464287"
       y1="51.473213"
       x1="-73.616074"
       gradientUnits="userSpaceOnUse"
       id="linearGradient4112"
       xlink:href="#linearGradient4090" />
    <linearGradient
       y2="50"
       x2="-75"
       y1="52"
       x1="-73"
       gradientUnits="userSpaceOnUse"
       id="linearGradient4118"
       xlink:href="#linearGradient4080" />
    <linearGradient
       y2="50.625"
       x2="-74.464287"
       y1="51.473213"
       x1="-73.616074"
       gradientUnits="userSpaceOnUse"
       id="linearGradient4120"
       xlink:href="#linearGradient4090" />
  </defs>
  <metadata
     id="metadata7">
    <rdf:RDF>
      <cc:Work
         rdf:about="">
        <dc:format>image/svg+xml</dc:format>
        <dc:type
           rdf:resource="http://purl.org/dc/dcmitype/StillImage" />
        <dc:title></dc:title>
      </cc:Work>
    </rdf:RDF>
  </metadata>
  <g
     style="display:inline"
     transform="translate(-631.42859,-689.50507)"
     id="layer1">
    <rect
       y="689.50507"
       x="631.42859"
       height="120"
       width="120"
       id="rect3766"
       style="fill:#ffff00;fill-opacity:1;stroke:none" />
    <path
       transform="matrix(1.0159689,0,0,1.0159689,813.34486,744.42522)"
       d="m -96.89592,61.104079 -46.4386,-0.09545 -32.76956,-32.904546 0.0954,-46.438603 32.90455,-32.769556 46.438603,0.09545 32.769556,32.904546 -0.09545,46.438603 z"
       id="path3768"
       style="fill:url(#linearGradient3780);fill-opacity:1;stroke:none" />
    <path
       style="fill:#808080;fill-opacity:1;stroke:none"
       id="path3802"
       d="m -96.89592,61.104079 -46.4386,-0.09545 -32.76956,-32.904546 0.0954,-46.438603 32.90455,-32.769556 46.438603,0.09545 32.769556,32.904546 -0.09545,46.438603 z"
       transform="matrix(0.99814491,0,0,0.99814485,811.20598,744.51434)" />
    <path
       style="fill:url(#linearGradient3796);fill-opacity:1;stroke:none"
       id="path3786"
       d="m -96.89592,61.104079 -46.4386,-0.09545 -32.76956,-32.904546 0.0954,-46.438603 32.90455,-32.769556 46.438603,0.09545 32.769556,32.904546 -0.09545,46.438603 z"
       transform="matrix(0.98032084,0,0,0.9803209,809.06709,744.60347)" />
    <path
       transform="matrix(0.96216675,0,0,0.96216681,806.8886,744.69423)"
       d="m -96.89592,61.104079 -46.4386,-0.09545 -32.76956,-32.904546 0.0954,-46.438603 32.90455,-32.769556 46.438603,0.09545 32.769556,32.904546 -0.09545,46.438603 z"
       id="path3798"
       style="fill:#c0c0c0;fill-opacity:1;stroke:none" />
    <g
       transform="translate(125,0)"
       id="g3856">
      <circle
         r="2"
         cy="110"
         cx="-78"
         style="fill:url(#linearGradient3822);fill-opacity:1;stroke:none"
         id="path3814"
         transform="translate(631.42859,689.50507)" />
      <circle
         r="2"
         cy="110"
         cx="-78"
         transform="matrix(0.5,0,0,0.5,592.42859,744.50507)"
         id="path3824"
         style="fill:#b7b7b7;fill-opacity:1;stroke:none" />
    </g>
    <g
       transform="translate(118,0)"
       id="g3860">
      <circle
         r="2"
         cy="110"
         cx="-78"
         transform="translate(631.42859,689.50507)"
         id="path3862"
         style="fill:url(#linearGradient3866);fill-opacity:1;stroke:none" />
      <circle
         r="2"
         cy="110"
         cx="-78"
         style="fill:#b7b7b7;fill-opacity:1;stroke:none"
         id="path3864"
         transform="matrix(0.5,0,0,0.5,592.42859,744.50507)" />
    </g>
    <g
       id="g3868"
       transform="translate(113,-5)">
      <circle
         r="2"
         cy="110"
         cx="-78"
         style="fill:url(#linearGradient3874);fill-opacity:1;stroke:none"
         id="path3870"
         transform="translate(631.42859,689.50507)" />
      <circle
         r="2"
         cy="110"
         cx="-78"
         transform="matrix(0.5,0,0,0.5,592.42859,744.50507)"
         id="path3872"
         style="fill:#b7b7b7;fill-opacity:1;stroke:none" />
    </g>
    <g
       transform="translate(151,0)"
       id="g3876">
      <circle
         r="2"
         cy="110"
         cx="-78"
         transform="translate(631.42859,689.50507)"
         id="path3878"
         style="fill:url(#linearGradient3882);fill-opacity:1;stroke:none" />
      <circle
         r="2"
         cy="110"
         cx="-78"
         style="fill:#b7b7b7;fill-opacity:1;stroke:none"
         id="path3880"
         transform="matrix(0.5,0,0,0.5,592.42859,744.50507)" />
    </g>
    <g
       id="g3884"
       transform="translate(158,0)">
      <circle
         r="2"
         cy="110"
         cx="-78"
         style="fill:url(#linearGradient3890);fill-opacity:1;stroke:none"
         id="path3886"
         transform="translate(631.42859,689.50507)" />
      <circle
         r="2"
         cy="110"
         cx="-78"
         transform="matrix(0.5,0,0,0.5,592.42859,744.50507)"
         id="path3888"
         style="fill:#b7b7b7;fill-opacity:1;stroke:none" />
    </g>
    <g
       transform="translate(163,-5)"
       id="g3892">
      <circle
         r="2"
         cy="110"
         cx="-78"
         transform="translate(631.42859,689.50507)"
         id="path3894"
         style="fill:url(#linearGradient3898);fill-opacity:1;stroke:none" />
      <circle
         r="2"
         cy="110"
         cx="-78"
         style="fill:#b7b7b7;fill-opacity:1;stroke:none"
         id="path3896"
         transform="matrix(0.5,0,0,0.5,592.42859,744.50507)" />
    </g>
    <g
       id="g3900"
       transform="translate(183,-25)">
      <circle
         r="2"
         cy="110"
         cx="-78"
         style="fill:url(#linearGradient3906);fill-opacity:1;stroke:none"
         id="path3902"
         transform="translate(631.42859,689.50507)" />
      <circle
         r="2"
         cy="110"
         cx="-78"
         transform="matrix(0.5,0,0,0.5,592.42859,744.50507)"
         id="path3904"
         style="fill:#b7b7b7;fill-opacity:1;stroke:none" />
    </g>
    <g
       transform="translate(188,-30)"
       id="g3908">
      <circle
         r="2"
         cy="110"
         cx="-78"
         transform="translate(631.42859,689.50507)"
         id="path3910"
         style="fill:url(#linearGradient3914);fill-opacity:1;stroke:none" />
      <circle
         r="2"
         cy="110"
         cx="-78"
         style="fill:#b7b7b7;fill-opacity:1;stroke:none"
         id="path3912"
         transform="matrix(0.5,0,0,0.5,592.42859,744.50507)" />
    </g>
    <g
       id="g3916"
       transform="translate(188,-37)">
      <circle
         r="2"
         cy="110"
         cx="-78"
         style="fill:url(#linearGradient3922);fill-opacity:1;stroke:none"
         id="path3918"
         transform="translate(631.42859,689.50507)" />
      <circle
         r="2"
         cy="110"
         cx="-78"
         transform="matrix(0.5,0,0,0.5,592.42859,744.50507)"
         id="path3920"
         style="fill:#b7b7b7;fill-opacity:1;stroke:none" />
    </g>
    <g
       transform="translate(188,-63)"
       id="g3924">
      <circle
         r="2"
         cy="110"
         cx="-78"
         transform="translate(631.42859,689.50507)"
         id="path3926"
         style="fill:url(#linearGradient3930);fill-opacity:1;stroke:none" />
      <circle
         r="2"
         cy="110"
         cx="-78"
         style="fill:#b7b7b7;fill-opacity:1;stroke:none"
         id="path3928"
         transform="matrix(0.5,0,0,0.5,592.42859,744.50507)" />
    </g>
    <g
       id="g3932"
       transform="translate(188,-70)">
      <circle
         r="2"
         cy="110"
         cx="-78"
         style="fill:url(#linearGradient3938);fill-opacity:1;stroke:none"
         id="path3934"
         transform="translate(631.42859,689.50507)" />
      <circle
         r="2"
         cy="110"
         cx="-78"
         transform="matrix(0.5,0,0,0.5,592.42859,744.50507)"
         id="path3936"
         style="fill:#b7b7b7;fill-opacity:1;stroke:none" />
    </g>
    <g
       transform="translate(183,-75)"
       id="g3940">
      <circle
         r="2"
         cy="110"
         cx="-78"
         transform="translate(631.42859,689.50507)"
         id="path3942"
         style="fill:url(#linearGradient3946);fill-opacity:1;stroke:none" />
      <circle
         r="2"
         cy="110"
         cx="-78"
         style="fill:#b7b7b7;fill-opacity:1;stroke:none"
         id="path3944"
         transform="matrix(0.5,0,0,0.5,592.42859,744.50507)" />
    </g>
    <g
       id="g3948"
       transform="translate(162.6015,-96.515218)">
      <circle
         r="2"
         cy="110"
         cx="-78"
         style="fill:url(#linearGradient3954);fill-opacity:1;stroke:none"
         id="path3950"
         transform="translate(631.42859,689.50507)" />
      <circle
         r="2"
         cy="110"
         cx="-78"
         transform="matrix(0.5,0,0,0.5,592.42859,744.50507)"
         id="path3952"
         style="fill:#b7b7b7;fill-opacity:1;stroke:none" />
    </g>
    <g
       transform="translate(157.6015,-101.51522)"
       id="g3956">
      <circle
         r="2"
         cy="110"
         cx="-78"
         transform="translate(631.42859,689.50507)"
         id="path3958"
         style="fill:url(#linearGradient3962);fill-opacity:1;stroke:none" />
      <circle
         r="2"
         cy="110"
         cx="-78"
         style="fill:#b7b7b7;fill-opacity:1;stroke:none"
         id="path3960"
         transform="matrix(0.5,0,0,0.5,592.42859,744.50507)" />
    </g>
    <g
       id="g3964"
       transform="translate(150.6015,-101.51522)">
      <circle
         r="2"
         cy="110"
         cx="-78"
         style="fill:url(#linearGradient3970);fill-opacity:1;stroke:none"
         id="path3966"
         transform="translate(631.42859,689.50507)" />
      <circle
         r="2"
         cy="110"
         cx="-78"
         transform="matrix(0.5,0,0,0.5,592.42859,744.50507)"
         id="path3968"
         style="fill:#b7b7b7;fill-opacity:1;stroke:none" />
    </g>
    <g
       transform="translate(124.6015,-101.51522)"
       id="g3972">
      <circle
         r="2"
         cy="110"
         cx="-78"
         transform="translate(631.42859,689.50507)"
         id="path3974"
         style="fill:url(#linearGradient3978);fill-opacity:1;stroke:none" />
      <circle
         r="2"
         cy="110"
         cx="-78"
         style="fill:#b7b7b7;fill-opacity:1;stroke:none"
         id="path3976"
         transform="matrix(0.5,0,0,0.5,592.42859,744.50507)" />
    </g>
    <g
       id="g3980"
       transform="translate(117.6015,-101.51522)">
      <circle
         r="2"
         cy="110"
         cx="-78"
         style="fill:url(#linearGradient3986);fill-opacity:1;stroke:none"
         id="path3982"
         transform="translate(631.42859,689.50507)" />
      <circle
         r="2"
         cy="110"
         cx="-78"
         transform="matrix(0.5,0,0,0.5,592.42859,744.50507)"
         id="path3984"
         style="fill:#b7b7b7;fill-opacity:1;stroke:none" />
    </g>
    <g
       transform="translate(112.6015,-96.515218)"
       id="g3988">
      <circle
         r="2"
         cy="110"
         cx="-78"
         transform="translate(631.42859,689.50507)"
         id="path3990"
         style="fill:url(#linearGradient3994);fill-opacity:1;stroke:none" />
      <circle
         r="2"
         cy="110"
         cx="-78"
         style="fill:#b7b7b7;fill-opacity:1;stroke:none"
         id="path3992"
         transform="matrix(0.5,0,0,0.5,592.42859,744.50507)" />
    </g>
    <g
       id="g3996"
       transform="translate(93.000004,-76)">
      <circle
         r="2"
         cy="110"
         cx="-78"
         style="fill:url(#linearGradient4002);fill-opacity:1;stroke:none"
         id="path3998"
         transform="translate(631.42859,689.50507)" />
      <circle
         r="2"
         cy="110"
         cx="-78"
         transform="matrix(0.5,0,0,0.5,592.42859,744.50507)"
         id="path4000"
         style="fill:#b7b7b7;fill-opacity:1;stroke:none" />
    </g>
    <g
       transform="translate(88.000004,-70)"
       id="g4004">
      <circle
         r="2"
         cy="110"
         cx="-78"
         transform="translate(631.42859,689.50507)"
         id="path4006"
         style="fill:url(#linearGradient4010);fill-opacity:1;stroke:none" />
      <circle
         r="2"
         cy="110"
         cx="-78"
         style="fill:#b7b7b7;fill-opacity:1;stroke:none"
         id="path4008"
         transform="matrix(0.5,0,0,0.5,592.42859,744.50507)" />
    </g>
    <g
       id="g4012"
       transform="translate(88.000004,-63)">
      <circle
         r="2"
         cy="110"
         cx="-78"
         style="fill:url(#linearGradient4018);fill-opacity:1;stroke:none"
         id="path4014"
         transform="translate(631.42859,689.50507)" />
      <circle
         r="2"
         cy="110"
         cx="-78"
         transform="matrix(0.5,0,0,0.5,592.42859,744.50507)"
         id="path4016"
         style="fill:#b7b7b7;fill-opacity:1;stroke:none" />
    </g>
    <g
       transform="translate(88.000004,-37)"
       id="g4020">
      <circle
         r="2"
         cy="110"
         cx="-78"
         transform="translate(631.42859,689.50507)"
         id="path4022"
         style="fill:url(#linearGradient4026);fill-opacity:1;stroke:none" />
      <circle
         r="2"
         cy="110"
         cx="-78"
         style="fill:#b7b7b7;fill-opacity:1;stroke:none"
         id="path4024"
         transform="matrix(0.5,0,0,0.5,592.42859,744.50507)" />
    </g>
    <g
       id="g4028"
       transform="translate(88.000004,-30)">
      <circle
         r="2"
         cy="110"
         cx="-78"
         style="fill:url(#linearGradient4034);fill-opacity:1;stroke:none"
         id="path4030"
         transform="translate(631.42859,689.50507)" />
      <circle
         r="2"
         cy="110"
         cx="-78"
         transform="matrix(0.5,0,0,0.5,592.42859,744.50507)"
         id="path4032"
         style="fill:#b7b7b7;fill-opacity:1;stroke:none" />
    </g>
    <g
       transform="translate(93.000004,-25)"
       id="g4036">
      <circle
         r="2"
         cy="110"
         cx="-78"
         transform="translate(631.42859,689.50507)"
         id="path4038"
         style="fill:url(#linearGradient4042);fill-opacity:1;stroke:none" />
      <circle
         r="2"
         cy="110"
         cx="-78"
         style="fill:#b7b7b7;fill-opacity:1;stroke:none"
         id="path4040"
         transform="matrix(0.5,0,0,0.5,592.42859,744.50507)" />
    </g>
    <circle
       r="26.5"
       cy="59.5"
       cx="-65.5"
       transform="translate(756.4286,689.50508)"
       id="path4044"
       style="fill:url(#linearGradient4052);fill-opacity:1;stroke:none" />
    <circle
       r="26.5"
       cy="59.5"
       cx="-65.5"
       style="fill:url(#linearGradient4072);fill-opacity:1;stroke:none"
       id="path4060"
       transform="matrix(0.96226415,0,0,0.96226415,753.9569,691.75036)" />
    <circle
       r="26.5"
       cy="59.5"
       cx="-65.5"
       transform="matrix(0.73584895,0,0,0.73584895,739.1267,705.22206)"
       id="path4074"
       style="fill:#808080;fill-opacity:1;stroke:none" />
    <circle
       r="26.5"
       cy="59.5"
       cx="-65.5"
       style="fill:#0aa6fe;fill-opacity:1;stroke:none"
       id="path4076"
       transform="matrix(0.62264137,0,0,0.62264137,731.7116,711.95791)" />
    <g
       transform="translate(-0.08928857,0.10713)"
       id="g4126">
      <circle
         r="2"
         cy="51"
         cx="-74"
         style="fill:url(#linearGradient4086);fill-opacity:1;stroke:none"
         id="path4078"
         transform="translate(756.07145,688.77294)" />
      <circle
         r="1"
         cy="51"
         cx="-74"
         style="fill:url(#linearGradient4096);fill-opacity:1;stroke:none"
         id="path4088"
         transform="translate(756.07145,688.77294)" />
      <circle
         r="2"
         cy="51"
         cx="-74"
         transform="translate(774.07145,688.77294)"
         id="path4098"
         style="fill:url(#linearGradient4102);fill-opacity:1;stroke:none" />
      <circle
         r="1"
         cy="51"
         cx="-74"
         transform="translate(774.07145,688.77294)"
         id="path4100"
         style="fill:url(#linearGradient4104);fill-opacity:1;stroke:none" />
      <circle
         r="2"
         cy="51"
         cx="-74"
         style="fill:url(#linearGradient4110);fill-opacity:1;stroke:none"
         id="path4106"
         transform="translate(774.07145,706.77294)" />
      <circle
         r="1"
         cy="51"
         cx="-74"
         style="fill:url(#linearGradient4112);fill-opacity:1;stroke:none"
         id="path4108"
         transform="translate(774.07145,706.77294)" />
      <circle
         r="2"
         cy="51"
         cx="-74"
         transform="translate(756.07145,706.77294)"
         id="path4114"
         style="fill:url(#linearGradient4118);fill-opacity:1;stroke:none" />
      <circle
         r="1"
         cy="51"
         cx="-74"
         transform="translate(756.07145,706.77294)"
         id="path4116"
         style="fill:url(#linearGradient4120);fill-opacity:1;stroke:none" />
    </g>
  </g>
</svg>
