<?xml version="1.0" encoding="UTF-8" standalone="no"?>
<svg
   xmlns:dc="http://purl.org/dc/elements/1.1/"
   xmlns:cc="http://creativecommons.org/ns#"
   xmlns:rdf="http://www.w3.org/1999/02/22-rdf-syntax-ns#"
   xmlns:svg="http://www.w3.org/2000/svg"
   xmlns="http://www.w3.org/2000/svg"
   version="1.1"
   id="svg2"
   height="16"
   width="96">
  <defs
     id="defs4" />
  <metadata
     id="metadata7">
    <rdf:RDF>
      <cc:Work
         rdf:about="">
        <dc:format>image/svg+xml</dc:format>
        <dc:type
           rdf:resource="http://purl.org/dc/dcmitype/StillImage" />
        <dc:title></dc:title>
      </cc:Work>
    </rdf:RDF>
  </metadata>
  <g
     transform="translate(-749.14288,-778.64789)"
     id="layer1">
    <rect
       y="778.64789"
       x="749.14288"
       height="16"
       width="96"
       id="rect2998"
       style="fill:#eaea00;fill-opacity:1;stroke:none" />
    <path
       id="path3000"
       d="m 749.14288,793.64789 15,-15 -8,0 -7,7 z"
       style="fill:#000000;fill-opacity:1;stroke:none" />
    <path
       style="fill:#000000;fill-opacity:1;stroke:none"
       d="m 764.14288,794.64789 16,-16 -8,0 -16,16 z"
       id="path3770" />
    <path
       id="path3772"
       d="m 780.14288,794.64789 16,-16 -8,0 -16,16 z"
       style="fill:#000000;fill-opacity:1;stroke:none" />
    <path
       style="fill:#000000;fill-opacity:1;stroke:none"
       d="m 796.14288,794.64789 16,-16 -8,0 -16,16 z"
       id="path3774" />
    <path
       id="path3776"
       d="m 812.14288,794.64789 16,-16 -8,0 -16,16 z"
       style="fill:#000000;fill-opacity:1;stroke:none" />
    <path
       style="fill:#000000;fill-opacity:1;stroke:none"
       d="m 828.14288,794.64789 16,-16 -8,0 -16,16 z"
       id="path3778" />
    <path
       id="path3780"
       d="m 844.14288,794.64789 1,-1 0,-8 -9,9 z"
       style="fill:#000000;fill-opacity:1;stroke:none" />
  </g>
</svg>
