<?xml version="1.0" encoding="UTF-8" standalone="no"?>
<svg
   xmlns:dc="http://purl.org/dc/elements/1.1/"
   xmlns:cc="http://creativecommons.org/ns#"
   xmlns:rdf="http://www.w3.org/1999/02/22-rdf-syntax-ns#"
   xmlns:svg="http://www.w3.org/2000/svg"
   xmlns="http://www.w3.org/2000/svg"
   version="1.1"
   id="svg2"
   height="64"
   width="64">
  <defs
     id="defs4" />
  <metadata
     id="metadata7">
    <rdf:RDF>
      <cc:Work
         rdf:about="">
        <dc:format>image/svg+xml</dc:format>
        <dc:type
           rdf:resource="http://purl.org/dc/dcmitype/StillImage" />
        <dc:title></dc:title>
      </cc:Work>
    </rdf:RDF>
  </metadata>
  <g
     transform="translate(-825.14288,-774.64789)"
     id="layer1">
    <path
       id="path2998"
       d="m 869.64288,813.14789 -6,19 5,0 0.9375,-3.5 8.125,0 0.9375,3.5 5,0 -6,-19 -8,0 z m 3,4 2,0 2.28125,8.5 -6.5625,0 2.28125,-8.5 z"
       style="fill:#000000;fill-opacity:1;stroke:#000000;stroke-width:1px;stroke-linecap:butt;stroke-linejoin:miter;stroke-opacity:1" />
    <path
       style="fill:#000000;fill-opacity:1;stroke:#000000;stroke-width:0.70476192px;stroke-linecap:butt;stroke-linejoin:miter;stroke-opacity:1"
       d="m 838.49204,815.96816 -4.22857,13.39048 3.52381,0 0.66071,-2.46667 5.7262,0 0.66071,2.46667 3.52381,0 -4.22857,-13.39048 -5.6381,0 z m 2.11429,2.81905 1.40952,0 1.60774,5.99048 -4.625,0 1.60774,-5.99048 z"
       id="path3775" />
    <path
       id="path3777"
       d="m 871.37383,784.85503 -3.62857,11.49048 3.02381,0 0.56697,-2.11667 4.91368,0 0.56697,2.11667 3.02381,0 -3.62857,-11.49048 -4.8381,0 z m 1.81429,2.41905 1.20952,0 1.37961,5.14047 -3.96874,0 1.37961,-5.14047 z"
       style="fill:#000000;fill-opacity:1;stroke:#000000;stroke-width:0.60476154px;stroke-linecap:butt;stroke-linejoin:miter;stroke-opacity:1" />
    <path
       style="fill:#000000;fill-opacity:1;stroke:#000000;stroke-width:0.40476164px;stroke-linecap:butt;stroke-linejoin:miter;stroke-opacity:1"
       d="m 840.27383,786.85027 -2.42857,7.69048 2.02381,0 0.37946,-1.41667 3.28869,0 0.37947,1.41667 2.02381,0 -2.42857,-7.69048 -3.2381,0 z m 1.21429,1.61905 0.80952,0 0.92336,3.44047 -2.65624,0 0.92336,-3.44047 z"
       id="path3781" />
  </g>
</svg>
