<?xml version="1.0" encoding="UTF-8" standalone="no"?>
<!-- Created with Inkscape (http://www.inkscape.org/) -->

<svg
   xmlns:dc="http://purl.org/dc/elements/1.1/"
   xmlns:cc="http://creativecommons.org/ns#"
   xmlns:rdf="http://www.w3.org/1999/02/22-rdf-syntax-ns#"
   xmlns:svg="http://www.w3.org/2000/svg"
   xmlns="http://www.w3.org/2000/svg"
   xmlns:xlink="http://www.w3.org/1999/xlink"
   xmlns:sodipodi="http://sodipodi.sourceforge.net/DTD/sodipodi-0.dtd"
   xmlns:inkscape="http://www.inkscape.org/namespaces/inkscape"
   width="120"
   height="120"
   id="svg2"
   version="1.1"
   inkscape:version="0.48.4 r9939"
   sodipodi:docname="convert01.svg"
   inkscape:export-filename="C:\Documents and Settings\Administrator\Pulpit\convert01.png"
   inkscape:export-xdpi="360"
   inkscape:export-ydpi="360">
  <defs
     id="defs4">
    <linearGradient
       inkscape:collect="always"
       id="linearGradient4090">
      <stop
         style="stop-color:#019cef;stop-opacity:1"
         offset="0"
         id="stop4092" />
      <stop
         style="stop-color:#38b9fe;stop-opacity:1"
         offset="1"
         id="stop4094" />
    </linearGradient>
    <linearGradient
       inkscape:collect="always"
       id="linearGradient4080">
      <stop
         style="stop-color:#0186cd;stop-opacity:1"
         offset="0"
         id="stop4082" />
      <stop
         style="stop-color:#7ad0fe;stop-opacity:1"
         offset="1"
         id="stop4084" />
    </linearGradient>
    <linearGradient
       inkscape:collect="always"
       id="linearGradient4066">
      <stop
         style="stop-color:#e6e6e6;stop-opacity:1"
         offset="0"
         id="stop4068" />
      <stop
         style="stop-color:#919191;stop-opacity:1"
         offset="1"
         id="stop4070" />
    </linearGradient>
    <linearGradient
       inkscape:collect="always"
       id="linearGradient4046">
      <stop
         style="stop-color:#666666;stop-opacity:1"
         offset="0"
         id="stop4048" />
      <stop
         style="stop-color:#bebebe;stop-opacity:1"
         offset="1"
         id="stop4050" />
    </linearGradient>
    <linearGradient
       inkscape:collect="always"
       id="linearGradient3816">
      <stop
         style="stop-color:#d9d9d9;stop-opacity:1"
         offset="0"
         id="stop3818" />
      <stop
         style="stop-color:#808080;stop-opacity:1"
         offset="1"
         id="stop3820" />
    </linearGradient>
    <linearGradient
       inkscape:collect="always"
       id="linearGradient3790">
      <stop
         style="stop-color:#666666;stop-opacity:1"
         offset="0"
         id="stop3792" />
      <stop
         style="stop-color:#d9d9d9;stop-opacity:1"
         offset="1"
         id="stop3794" />
    </linearGradient>
    <linearGradient
       inkscape:collect="always"
       id="linearGradient3774">
      <stop
         style="stop-color:#666666;stop-opacity:1"
         offset="0"
         id="stop3776" />
      <stop
         style="stop-color:#bebebe;stop-opacity:1"
         offset="1"
         id="stop3778" />
    </linearGradient>
    <linearGradient
       inkscape:collect="always"
       xlink:href="#linearGradient3774"
       id="linearGradient3780"
       x1="-159.89592"
       y1="-34.538776"
       x2="-81.681633"
       y2="47.961224"
       gradientUnits="userSpaceOnUse" />
    <linearGradient
       inkscape:collect="always"
       xlink:href="#linearGradient3790"
       id="linearGradient3796"
       x1="-82.371796"
       y1="45.822853"
       x2="-110.05148"
       y2="16.88722"
       gradientUnits="userSpaceOnUse" />
    <linearGradient
       inkscape:collect="always"
       xlink:href="#linearGradient3816"
       id="linearGradient3822"
       x1="-77"
       y1="111"
       x2="-79"
       y2="109"
       gradientUnits="userSpaceOnUse" />
    <linearGradient
       inkscape:collect="always"
       xlink:href="#linearGradient3816"
       id="linearGradient3866"
       gradientUnits="userSpaceOnUse"
       x1="-77"
       y1="111"
       x2="-79"
       y2="109" />
    <linearGradient
       inkscape:collect="always"
       xlink:href="#linearGradient3816"
       id="linearGradient3874"
       gradientUnits="userSpaceOnUse"
       x1="-77"
       y1="111"
       x2="-79"
       y2="109" />
    <linearGradient
       inkscape:collect="always"
       xlink:href="#linearGradient3816"
       id="linearGradient3882"
       gradientUnits="userSpaceOnUse"
       x1="-77"
       y1="111"
       x2="-79"
       y2="109" />
    <linearGradient
       inkscape:collect="always"
       xlink:href="#linearGradient3816"
       id="linearGradient3890"
       gradientUnits="userSpaceOnUse"
       x1="-77"
       y1="111"
       x2="-79"
       y2="109" />
    <linearGradient
       inkscape:collect="always"
       xlink:href="#linearGradient3816"
       id="linearGradient3898"
       gradientUnits="userSpaceOnUse"
       x1="-77"
       y1="111"
       x2="-79"
       y2="109" />
    <linearGradient
       inkscape:collect="always"
       xlink:href="#linearGradient3816"
       id="linearGradient3906"
       gradientUnits="userSpaceOnUse"
       x1="-77"
       y1="111"
       x2="-79"
       y2="109" />
    <linearGradient
       inkscape:collect="always"
       xlink:href="#linearGradient3816"
       id="linearGradient3914"
       gradientUnits="userSpaceOnUse"
       x1="-77"
       y1="111"
       x2="-79"
       y2="109" />
    <linearGradient
       inkscape:collect="always"
       xlink:href="#linearGradient3816"
       id="linearGradient3922"
       gradientUnits="userSpaceOnUse"
       x1="-77"
       y1="111"
       x2="-79"
       y2="109" />
    <linearGradient
       inkscape:collect="always"
       xlink:href="#linearGradient3816"
       id="linearGradient3930"
       gradientUnits="userSpaceOnUse"
       x1="-77"
       y1="111"
       x2="-79"
       y2="109" />
    <linearGradient
       inkscape:collect="always"
       xlink:href="#linearGradient3816"
       id="linearGradient3938"
       gradientUnits="userSpaceOnUse"
       x1="-77"
       y1="111"
       x2="-79"
       y2="109" />
    <linearGradient
       inkscape:collect="always"
       xlink:href="#linearGradient3816"
       id="linearGradient3946"
       gradientUnits="userSpaceOnUse"
       x1="-77"
       y1="111"
       x2="-79"
       y2="109" />
    <linearGradient
       inkscape:collect="always"
       xlink:href="#linearGradient3816"
       id="linearGradient3954"
       gradientUnits="userSpaceOnUse"
       x1="-77"
       y1="111"
       x2="-79"
       y2="109" />
    <linearGradient
       inkscape:collect="always"
       xlink:href="#linearGradient3816"
       id="linearGradient3962"
       gradientUnits="userSpaceOnUse"
       x1="-77"
       y1="111"
       x2="-79"
       y2="109" />
    <linearGradient
       inkscape:collect="always"
       xlink:href="#linearGradient3816"
       id="linearGradient3970"
       gradientUnits="userSpaceOnUse"
       x1="-77"
       y1="111"
       x2="-79"
       y2="109" />
    <linearGradient
       inkscape:collect="always"
       xlink:href="#linearGradient3816"
       id="linearGradient3978"
       gradientUnits="userSpaceOnUse"
       x1="-77"
       y1="111"
       x2="-79"
       y2="109" />
    <linearGradient
       inkscape:collect="always"
       xlink:href="#linearGradient3816"
       id="linearGradient3986"
       gradientUnits="userSpaceOnUse"
       x1="-77"
       y1="111"
       x2="-79"
       y2="109" />
    <linearGradient
       inkscape:collect="always"
       xlink:href="#linearGradient3816"
       id="linearGradient3994"
       gradientUnits="userSpaceOnUse"
       x1="-77"
       y1="111"
       x2="-79"
       y2="109" />
    <linearGradient
       inkscape:collect="always"
       xlink:href="#linearGradient3816"
       id="linearGradient4002"
       gradientUnits="userSpaceOnUse"
       x1="-77"
       y1="111"
       x2="-79"
       y2="109" />
    <linearGradient
       inkscape:collect="always"
       xlink:href="#linearGradient3816"
       id="linearGradient4010"
       gradientUnits="userSpaceOnUse"
       x1="-77"
       y1="111"
       x2="-79"
       y2="109" />
    <linearGradient
       inkscape:collect="always"
       xlink:href="#linearGradient3816"
       id="linearGradient4018"
       gradientUnits="userSpaceOnUse"
       x1="-77"
       y1="111"
       x2="-79"
       y2="109" />
    <linearGradient
       inkscape:collect="always"
       xlink:href="#linearGradient3816"
       id="linearGradient4026"
       gradientUnits="userSpaceOnUse"
       x1="-77"
       y1="111"
       x2="-79"
       y2="109" />
    <linearGradient
       inkscape:collect="always"
       xlink:href="#linearGradient3816"
       id="linearGradient4034"
       gradientUnits="userSpaceOnUse"
       x1="-77"
       y1="111"
       x2="-79"
       y2="109" />
    <linearGradient
       inkscape:collect="always"
       xlink:href="#linearGradient3816"
       id="linearGradient4042"
       gradientUnits="userSpaceOnUse"
       x1="-77"
       y1="111"
       x2="-79"
       y2="109" />
    <linearGradient
       inkscape:collect="always"
       xlink:href="#linearGradient4046"
       id="linearGradient4052"
       x1="-84"
       y1="40"
       x2="-45"
       y2="77"
       gradientUnits="userSpaceOnUse" />
    <linearGradient
       inkscape:collect="always"
       xlink:href="#linearGradient4066"
       id="linearGradient4072"
       x1="-45.99229"
       y1="77.143578"
       x2="-83.127777"
       y2="39.745651"
       gradientUnits="userSpaceOnUse" />
    <linearGradient
       inkscape:collect="always"
       xlink:href="#linearGradient4080"
       id="linearGradient4086"
       x1="-73"
       y1="52"
       x2="-75"
       y2="50"
       gradientUnits="userSpaceOnUse" />
    <linearGradient
       inkscape:collect="always"
       xlink:href="#linearGradient4090"
       id="linearGradient4096"
       x1="-73.616074"
       y1="51.473213"
       x2="-74.464287"
       y2="50.625"
       gradientUnits="userSpaceOnUse" />
    <linearGradient
       inkscape:collect="always"
       xlink:href="#linearGradient4080"
       id="linearGradient4102"
       gradientUnits="userSpaceOnUse"
       x1="-73"
       y1="52"
       x2="-75"
       y2="50" />
    <linearGradient
       inkscape:collect="always"
       xlink:href="#linearGradient4090"
       id="linearGradient4104"
       gradientUnits="userSpaceOnUse"
       x1="-73.616074"
       y1="51.473213"
       x2="-74.464287"
       y2="50.625" />
    <linearGradient
       inkscape:collect="always"
       xlink:href="#linearGradient4080"
       id="linearGradient4110"
       gradientUnits="userSpaceOnUse"
       x1="-73"
       y1="52"
       x2="-75"
       y2="50" />
    <linearGradient
       inkscape:collect="always"
       xlink:href="#linearGradient4090"
       id="linearGradient4112"
       gradientUnits="userSpaceOnUse"
       x1="-73.616074"
       y1="51.473213"
       x2="-74.464287"
       y2="50.625" />
    <linearGradient
       inkscape:collect="always"
       xlink:href="#linearGradient4080"
       id="linearGradient4118"
       gradientUnits="userSpaceOnUse"
       x1="-73"
       y1="52"
       x2="-75"
       y2="50" />
    <linearGradient
       inkscape:collect="always"
       xlink:href="#linearGradient4090"
       id="linearGradient4120"
       gradientUnits="userSpaceOnUse"
       x1="-73.616074"
       y1="51.473213"
       x2="-74.464287"
       y2="50.625" />
  </defs>
  <sodipodi:namedview
     id="base"
     pagecolor="#ffffff"
     bordercolor="#666666"
     borderopacity="1.0"
     inkscape:pageopacity="0.0"
     inkscape:pageshadow="2"
     inkscape:zoom="1"
     inkscape:cx="21.729969"
     inkscape:cy="62.370381"
     inkscape:document-units="px"
     inkscape:current-layer="layer1"
     showgrid="false"
     fit-margin-top="0"
     fit-margin-left="0"
     fit-margin-right="0"
     fit-margin-bottom="0"
     inkscape:snap-bbox="true"
     inkscape:window-width="1280"
     inkscape:window-height="977"
     inkscape:window-x="-4"
     inkscape:window-y="-4"
     inkscape:window-maximized="1">
    <inkscape:grid
       type="xygrid"
       id="grid3764"
       empspacing="5"
       visible="true"
       enabled="true"
       snapvisiblegridlinesonly="true" />
  </sodipodi:namedview>
  <metadata
     id="metadata7">
    <rdf:RDF>
      <cc:Work
         rdf:about="">
        <dc:format>image/svg+xml</dc:format>
        <dc:type
           rdf:resource="http://purl.org/dc/dcmitype/StillImage" />
        <dc:title></dc:title>
      </cc:Work>
    </rdf:RDF>
  </metadata>
  <g
     inkscape:label="Layer 1"
     inkscape:groupmode="layer"
     id="layer1"
     transform="translate(-631.42859,-689.50507)">
    <rect
       style="fill:#ffff00;fill-opacity:1;stroke:none"
       id="rect3766"
       width="120"
       height="120"
       x="631.42859"
       y="689.50507" />
    <path
       sodipodi:type="star"
       style="fill:url(#linearGradient3780);fill-opacity:1;stroke:none"
       id="path3768"
       sodipodi:sides="8"
       sodipodi:cx="-120"
       sodipodi:cy="5"
       sodipodi:r1="60.675087"
       sodipodi:r2="30.51639"
       sodipodi:arg1="1.1801527"
       sodipodi:arg2="1.5728517"
       inkscape:flatsided="true"
       inkscape:rounded="0"
       inkscape:randomized="0"
       d="m -96.89592,61.104079 -46.4386,-0.09545 -32.76956,-32.904546 0.0954,-46.438603 32.90455,-32.769556 46.438603,0.09545 32.769556,32.904546 -0.09545,46.438603 z"
       transform="matrix(1.0159689,0,0,1.0159689,813.34486,744.42522)"
       inkscape:transform-center-x="-0.33708888"
       inkscape:transform-center-y="-5.5996894" />
    <path
       inkscape:transform-center-y="-5.5014552"
       inkscape:transform-center-x="-0.33117561"
       transform="matrix(0.99814491,0,0,0.99814485,811.20598,744.51434)"
       d="m -96.89592,61.104079 -46.4386,-0.09545 -32.76956,-32.904546 0.0954,-46.438603 32.90455,-32.769556 46.438603,0.09545 32.769556,32.904546 -0.09545,46.438603 z"
       inkscape:randomized="0"
       inkscape:rounded="0"
       inkscape:flatsided="true"
       sodipodi:arg2="1.5728517"
       sodipodi:arg1="1.1801527"
       sodipodi:r2="30.51639"
       sodipodi:r1="60.675087"
       sodipodi:cy="5"
       sodipodi:cx="-120"
       sodipodi:sides="8"
       id="path3802"
       style="fill:#808080;fill-opacity:1;stroke:none"
       sodipodi:type="star" />
    <path
       inkscape:transform-center-y="-5.4031918"
       inkscape:transform-center-x="-0.32524936"
       transform="matrix(0.98032084,0,0,0.9803209,809.06709,744.60347)"
       d="m -96.89592,61.104079 -46.4386,-0.09545 -32.76956,-32.904546 0.0954,-46.438603 32.90455,-32.769556 46.438603,0.09545 32.769556,32.904546 -0.09545,46.438603 z"
       inkscape:randomized="0"
       inkscape:rounded="0"
       inkscape:flatsided="true"
       sodipodi:arg2="1.5728517"
       sodipodi:arg1="1.1801527"
       sodipodi:r2="30.51639"
       sodipodi:r1="60.675087"
       sodipodi:cy="5"
       sodipodi:cx="-120"
       sodipodi:sides="8"
       id="path3786"
       style="fill:url(#linearGradient3796);fill-opacity:1;stroke:none"
       sodipodi:type="star" />
    <path
       sodipodi:type="star"
       style="fill:#c0c0c0;fill-opacity:1;stroke:none"
       id="path3798"
       sodipodi:sides="8"
       sodipodi:cx="-120"
       sodipodi:cy="5"
       sodipodi:r1="60.675087"
       sodipodi:r2="30.51639"
       sodipodi:arg1="1.1801527"
       sodipodi:arg2="1.5728517"
       inkscape:flatsided="true"
       inkscape:rounded="0"
       inkscape:randomized="0"
       d="m -96.89592,61.104079 -46.4386,-0.09545 -32.76956,-32.904546 0.0954,-46.438603 32.90455,-32.769556 46.438603,0.09545 32.769556,32.904546 -0.09545,46.438603 z"
       transform="matrix(0.96216675,0,0,0.96216681,806.8886,744.69423)"
       inkscape:transform-center-x="-0.31922505"
       inkscape:transform-center-y="-5.3031376" />
    <g
       id="g3856"
       transform="translate(125,0)">
      <path
         transform="translate(631.42859,689.50507)"
         d="m -76,110 c 0,1.10457 -0.895431,2 -2,2 -1.104569,0 -2,-0.89543 -2,-2 0,-1.10457 0.895431,-2 2,-2 1.104569,0 2,0.89543 2,2 z"
         sodipodi:ry="2"
         sodipodi:rx="2"
         sodipodi:cy="110"
         sodipodi:cx="-78"
         id="path3814"
         style="fill:url(#linearGradient3822);fill-opacity:1;stroke:none"
         sodipodi:type="arc" />
      <path
         sodipodi:type="arc"
         style="fill:#b7b7b7;fill-opacity:1;stroke:none"
         id="path3824"
         sodipodi:cx="-78"
         sodipodi:cy="110"
         sodipodi:rx="2"
         sodipodi:ry="2"
         d="m -76,110 c 0,1.10457 -0.895431,2 -2,2 -1.104569,0 -2,-0.89543 -2,-2 0,-1.10457 0.895431,-2 2,-2 1.104569,0 2,0.89543 2,2 z"
         transform="matrix(0.5,0,0,0.5,592.42859,744.50507)" />
    </g>
    <g
       id="g3860"
       transform="translate(118,0)">
      <path
         sodipodi:type="arc"
         style="fill:url(#linearGradient3866);fill-opacity:1;stroke:none"
         id="path3862"
         sodipodi:cx="-78"
         sodipodi:cy="110"
         sodipodi:rx="2"
         sodipodi:ry="2"
         d="m -76,110 c 0,1.10457 -0.895431,2 -2,2 -1.104569,0 -2,-0.89543 -2,-2 0,-1.10457 0.895431,-2 2,-2 1.104569,0 2,0.89543 2,2 z"
         transform="translate(631.42859,689.50507)" />
      <path
         transform="matrix(0.5,0,0,0.5,592.42859,744.50507)"
         d="m -76,110 c 0,1.10457 -0.895431,2 -2,2 -1.104569,0 -2,-0.89543 -2,-2 0,-1.10457 0.895431,-2 2,-2 1.104569,0 2,0.89543 2,2 z"
         sodipodi:ry="2"
         sodipodi:rx="2"
         sodipodi:cy="110"
         sodipodi:cx="-78"
         id="path3864"
         style="fill:#b7b7b7;fill-opacity:1;stroke:none"
         sodipodi:type="arc" />
    </g>
    <g
       transform="translate(113,-5)"
       id="g3868">
      <path
         transform="translate(631.42859,689.50507)"
         d="m -76,110 c 0,1.10457 -0.895431,2 -2,2 -1.104569,0 -2,-0.89543 -2,-2 0,-1.10457 0.895431,-2 2,-2 1.104569,0 2,0.89543 2,2 z"
         sodipodi:ry="2"
         sodipodi:rx="2"
         sodipodi:cy="110"
         sodipodi:cx="-78"
         id="path3870"
         style="fill:url(#linearGradient3874);fill-opacity:1;stroke:none"
         sodipodi:type="arc" />
      <path
         sodipodi:type="arc"
         style="fill:#b7b7b7;fill-opacity:1;stroke:none"
         id="path3872"
         sodipodi:cx="-78"
         sodipodi:cy="110"
         sodipodi:rx="2"
         sodipodi:ry="2"
         d="m -76,110 c 0,1.10457 -0.895431,2 -2,2 -1.104569,0 -2,-0.89543 -2,-2 0,-1.10457 0.895431,-2 2,-2 1.104569,0 2,0.89543 2,2 z"
         transform="matrix(0.5,0,0,0.5,592.42859,744.50507)" />
    </g>
    <g
       id="g3876"
       transform="translate(151,0)">
      <path
         sodipodi:type="arc"
         style="fill:url(#linearGradient3882);fill-opacity:1;stroke:none"
         id="path3878"
         sodipodi:cx="-78"
         sodipodi:cy="110"
         sodipodi:rx="2"
         sodipodi:ry="2"
         d="m -76,110 c 0,1.10457 -0.895431,2 -2,2 -1.104569,0 -2,-0.89543 -2,-2 0,-1.10457 0.895431,-2 2,-2 1.104569,0 2,0.89543 2,2 z"
         transform="translate(631.42859,689.50507)" />
      <path
         transform="matrix(0.5,0,0,0.5,592.42859,744.50507)"
         d="m -76,110 c 0,1.10457 -0.895431,2 -2,2 -1.104569,0 -2,-0.89543 -2,-2 0,-1.10457 0.895431,-2 2,-2 1.104569,0 2,0.89543 2,2 z"
         sodipodi:ry="2"
         sodipodi:rx="2"
         sodipodi:cy="110"
         sodipodi:cx="-78"
         id="path3880"
         style="fill:#b7b7b7;fill-opacity:1;stroke:none"
         sodipodi:type="arc" />
    </g>
    <g
       transform="translate(158,0)"
       id="g3884">
      <path
         transform="translate(631.42859,689.50507)"
         d="m -76,110 c 0,1.10457 -0.895431,2 -2,2 -1.104569,0 -2,-0.89543 -2,-2 0,-1.10457 0.895431,-2 2,-2 1.104569,0 2,0.89543 2,2 z"
         sodipodi:ry="2"
         sodipodi:rx="2"
         sodipodi:cy="110"
         sodipodi:cx="-78"
         id="path3886"
         style="fill:url(#linearGradient3890);fill-opacity:1;stroke:none"
         sodipodi:type="arc" />
      <path
         sodipodi:type="arc"
         style="fill:#b7b7b7;fill-opacity:1;stroke:none"
         id="path3888"
         sodipodi:cx="-78"
         sodipodi:cy="110"
         sodipodi:rx="2"
         sodipodi:ry="2"
         d="m -76,110 c 0,1.10457 -0.895431,2 -2,2 -1.104569,0 -2,-0.89543 -2,-2 0,-1.10457 0.895431,-2 2,-2 1.104569,0 2,0.89543 2,2 z"
         transform="matrix(0.5,0,0,0.5,592.42859,744.50507)" />
    </g>
    <g
       id="g3892"
       transform="translate(163,-5)">
      <path
         sodipodi:type="arc"
         style="fill:url(#linearGradient3898);fill-opacity:1;stroke:none"
         id="path3894"
         sodipodi:cx="-78"
         sodipodi:cy="110"
         sodipodi:rx="2"
         sodipodi:ry="2"
         d="m -76,110 c 0,1.10457 -0.895431,2 -2,2 -1.104569,0 -2,-0.89543 -2,-2 0,-1.10457 0.895431,-2 2,-2 1.104569,0 2,0.89543 2,2 z"
         transform="translate(631.42859,689.50507)" />
      <path
         transform="matrix(0.5,0,0,0.5,592.42859,744.50507)"
         d="m -76,110 c 0,1.10457 -0.895431,2 -2,2 -1.104569,0 -2,-0.89543 -2,-2 0,-1.10457 0.895431,-2 2,-2 1.104569,0 2,0.89543 2,2 z"
         sodipodi:ry="2"
         sodipodi:rx="2"
         sodipodi:cy="110"
         sodipodi:cx="-78"
         id="path3896"
         style="fill:#b7b7b7;fill-opacity:1;stroke:none"
         sodipodi:type="arc" />
    </g>
    <g
       transform="translate(183,-25)"
       id="g3900">
      <path
         transform="translate(631.42859,689.50507)"
         d="m -76,110 c 0,1.10457 -0.895431,2 -2,2 -1.104569,0 -2,-0.89543 -2,-2 0,-1.10457 0.895431,-2 2,-2 1.104569,0 2,0.89543 2,2 z"
         sodipodi:ry="2"
         sodipodi:rx="2"
         sodipodi:cy="110"
         sodipodi:cx="-78"
         id="path3902"
         style="fill:url(#linearGradient3906);fill-opacity:1;stroke:none"
         sodipodi:type="arc" />
      <path
         sodipodi:type="arc"
         style="fill:#b7b7b7;fill-opacity:1;stroke:none"
         id="path3904"
         sodipodi:cx="-78"
         sodipodi:cy="110"
         sodipodi:rx="2"
         sodipodi:ry="2"
         d="m -76,110 c 0,1.10457 -0.895431,2 -2,2 -1.104569,0 -2,-0.89543 -2,-2 0,-1.10457 0.895431,-2 2,-2 1.104569,0 2,0.89543 2,2 z"
         transform="matrix(0.5,0,0,0.5,592.42859,744.50507)" />
    </g>
    <g
       id="g3908"
       transform="translate(188,-30)">
      <path
         sodipodi:type="arc"
         style="fill:url(#linearGradient3914);fill-opacity:1;stroke:none"
         id="path3910"
         sodipodi:cx="-78"
         sodipodi:cy="110"
         sodipodi:rx="2"
         sodipodi:ry="2"
         d="m -76,110 c 0,1.10457 -0.895431,2 -2,2 -1.104569,0 -2,-0.89543 -2,-2 0,-1.10457 0.895431,-2 2,-2 1.104569,0 2,0.89543 2,2 z"
         transform="translate(631.42859,689.50507)" />
      <path
         transform="matrix(0.5,0,0,0.5,592.42859,744.50507)"
         d="m -76,110 c 0,1.10457 -0.895431,2 -2,2 -1.104569,0 -2,-0.89543 -2,-2 0,-1.10457 0.895431,-2 2,-2 1.104569,0 2,0.89543 2,2 z"
         sodipodi:ry="2"
         sodipodi:rx="2"
         sodipodi:cy="110"
         sodipodi:cx="-78"
         id="path3912"
         style="fill:#b7b7b7;fill-opacity:1;stroke:none"
         sodipodi:type="arc" />
    </g>
    <g
       transform="translate(188,-37)"
       id="g3916">
      <path
         transform="translate(631.42859,689.50507)"
         d="m -76,110 c 0,1.10457 -0.895431,2 -2,2 -1.104569,0 -2,-0.89543 -2,-2 0,-1.10457 0.895431,-2 2,-2 1.104569,0 2,0.89543 2,2 z"
         sodipodi:ry="2"
         sodipodi:rx="2"
         sodipodi:cy="110"
         sodipodi:cx="-78"
         id="path3918"
         style="fill:url(#linearGradient3922);fill-opacity:1;stroke:none"
         sodipodi:type="arc" />
      <path
         sodipodi:type="arc"
         style="fill:#b7b7b7;fill-opacity:1;stroke:none"
         id="path3920"
         sodipodi:cx="-78"
         sodipodi:cy="110"
         sodipodi:rx="2"
         sodipodi:ry="2"
         d="m -76,110 c 0,1.10457 -0.895431,2 -2,2 -1.104569,0 -2,-0.89543 -2,-2 0,-1.10457 0.895431,-2 2,-2 1.104569,0 2,0.89543 2,2 z"
         transform="matrix(0.5,0,0,0.5,592.42859,744.50507)" />
    </g>
    <g
       id="g3924"
       transform="translate(188,-63)">
      <path
         sodipodi:type="arc"
         style="fill:url(#linearGradient3930);fill-opacity:1;stroke:none"
         id="path3926"
         sodipodi:cx="-78"
         sodipodi:cy="110"
         sodipodi:rx="2"
         sodipodi:ry="2"
         d="m -76,110 c 0,1.10457 -0.895431,2 -2,2 -1.104569,0 -2,-0.89543 -2,-2 0,-1.10457 0.895431,-2 2,-2 1.104569,0 2,0.89543 2,2 z"
         transform="translate(631.42859,689.50507)" />
      <path
         transform="matrix(0.5,0,0,0.5,592.42859,744.50507)"
         d="m -76,110 c 0,1.10457 -0.895431,2 -2,2 -1.104569,0 -2,-0.89543 -2,-2 0,-1.10457 0.895431,-2 2,-2 1.104569,0 2,0.89543 2,2 z"
         sodipodi:ry="2"
         sodipodi:rx="2"
         sodipodi:cy="110"
         sodipodi:cx="-78"
         id="path3928"
         style="fill:#b7b7b7;fill-opacity:1;stroke:none"
         sodipodi:type="arc" />
    </g>
    <g
       transform="translate(188,-70)"
       id="g3932">
      <path
         transform="translate(631.42859,689.50507)"
         d="m -76,110 c 0,1.10457 -0.895431,2 -2,2 -1.104569,0 -2,-0.89543 -2,-2 0,-1.10457 0.895431,-2 2,-2 1.104569,0 2,0.89543 2,2 z"
         sodipodi:ry="2"
         sodipodi:rx="2"
         sodipodi:cy="110"
         sodipodi:cx="-78"
         id="path3934"
         style="fill:url(#linearGradient3938);fill-opacity:1;stroke:none"
         sodipodi:type="arc" />
      <path
         sodipodi:type="arc"
         style="fill:#b7b7b7;fill-opacity:1;stroke:none"
         id="path3936"
         sodipodi:cx="-78"
         sodipodi:cy="110"
         sodipodi:rx="2"
         sodipodi:ry="2"
         d="m -76,110 c 0,1.10457 -0.895431,2 -2,2 -1.104569,0 -2,-0.89543 -2,-2 0,-1.10457 0.895431,-2 2,-2 1.104569,0 2,0.89543 2,2 z"
         transform="matrix(0.5,0,0,0.5,592.42859,744.50507)" />
    </g>
    <g
       id="g3940"
       transform="translate(183,-75)">
      <path
         sodipodi:type="arc"
         style="fill:url(#linearGradient3946);fill-opacity:1;stroke:none"
         id="path3942"
         sodipodi:cx="-78"
         sodipodi:cy="110"
         sodipodi:rx="2"
         sodipodi:ry="2"
         d="m -76,110 c 0,1.10457 -0.895431,2 -2,2 -1.104569,0 -2,-0.89543 -2,-2 0,-1.10457 0.895431,-2 2,-2 1.104569,0 2,0.89543 2,2 z"
         transform="translate(631.42859,689.50507)" />
      <path
         transform="matrix(0.5,0,0,0.5,592.42859,744.50507)"
         d="m -76,110 c 0,1.10457 -0.895431,2 -2,2 -1.104569,0 -2,-0.89543 -2,-2 0,-1.10457 0.895431,-2 2,-2 1.104569,0 2,0.89543 2,2 z"
         sodipodi:ry="2"
         sodipodi:rx="2"
         sodipodi:cy="110"
         sodipodi:cx="-78"
         id="path3944"
         style="fill:#b7b7b7;fill-opacity:1;stroke:none"
         sodipodi:type="arc" />
    </g>
    <g
       transform="translate(162.6015,-96.515218)"
       id="g3948">
      <path
         transform="translate(631.42859,689.50507)"
         d="m -76,110 c 0,1.10457 -0.895431,2 -2,2 -1.104569,0 -2,-0.89543 -2,-2 0,-1.10457 0.895431,-2 2,-2 1.104569,0 2,0.89543 2,2 z"
         sodipodi:ry="2"
         sodipodi:rx="2"
         sodipodi:cy="110"
         sodipodi:cx="-78"
         id="path3950"
         style="fill:url(#linearGradient3954);fill-opacity:1;stroke:none"
         sodipodi:type="arc" />
      <path
         sodipodi:type="arc"
         style="fill:#b7b7b7;fill-opacity:1;stroke:none"
         id="path3952"
         sodipodi:cx="-78"
         sodipodi:cy="110"
         sodipodi:rx="2"
         sodipodi:ry="2"
         d="m -76,110 c 0,1.10457 -0.895431,2 -2,2 -1.104569,0 -2,-0.89543 -2,-2 0,-1.10457 0.895431,-2 2,-2 1.104569,0 2,0.89543 2,2 z"
         transform="matrix(0.5,0,0,0.5,592.42859,744.50507)" />
    </g>
    <g
       id="g3956"
       transform="translate(157.6015,-101.51522)">
      <path
         sodipodi:type="arc"
         style="fill:url(#linearGradient3962);fill-opacity:1;stroke:none"
         id="path3958"
         sodipodi:cx="-78"
         sodipodi:cy="110"
         sodipodi:rx="2"
         sodipodi:ry="2"
         d="m -76,110 c 0,1.10457 -0.895431,2 -2,2 -1.104569,0 -2,-0.89543 -2,-2 0,-1.10457 0.895431,-2 2,-2 1.104569,0 2,0.89543 2,2 z"
         transform="translate(631.42859,689.50507)" />
      <path
         transform="matrix(0.5,0,0,0.5,592.42859,744.50507)"
         d="m -76,110 c 0,1.10457 -0.895431,2 -2,2 -1.104569,0 -2,-0.89543 -2,-2 0,-1.10457 0.895431,-2 2,-2 1.104569,0 2,0.89543 2,2 z"
         sodipodi:ry="2"
         sodipodi:rx="2"
         sodipodi:cy="110"
         sodipodi:cx="-78"
         id="path3960"
         style="fill:#b7b7b7;fill-opacity:1;stroke:none"
         sodipodi:type="arc" />
    </g>
    <g
       transform="translate(150.6015,-101.51522)"
       id="g3964">
      <path
         transform="translate(631.42859,689.50507)"
         d="m -76,110 c 0,1.10457 -0.895431,2 -2,2 -1.104569,0 -2,-0.89543 -2,-2 0,-1.10457 0.895431,-2 2,-2 1.104569,0 2,0.89543 2,2 z"
         sodipodi:ry="2"
         sodipodi:rx="2"
         sodipodi:cy="110"
         sodipodi:cx="-78"
         id="path3966"
         style="fill:url(#linearGradient3970);fill-opacity:1;stroke:none"
         sodipodi:type="arc" />
      <path
         sodipodi:type="arc"
         style="fill:#b7b7b7;fill-opacity:1;stroke:none"
         id="path3968"
         sodipodi:cx="-78"
         sodipodi:cy="110"
         sodipodi:rx="2"
         sodipodi:ry="2"
         d="m -76,110 c 0,1.10457 -0.895431,2 -2,2 -1.104569,0 -2,-0.89543 -2,-2 0,-1.10457 0.895431,-2 2,-2 1.104569,0 2,0.89543 2,2 z"
         transform="matrix(0.5,0,0,0.5,592.42859,744.50507)" />
    </g>
    <g
       id="g3972"
       transform="translate(124.6015,-101.51522)">
      <path
         sodipodi:type="arc"
         style="fill:url(#linearGradient3978);fill-opacity:1;stroke:none"
         id="path3974"
         sodipodi:cx="-78"
         sodipodi:cy="110"
         sodipodi:rx="2"
         sodipodi:ry="2"
         d="m -76,110 c 0,1.10457 -0.895431,2 -2,2 -1.104569,0 -2,-0.89543 -2,-2 0,-1.10457 0.895431,-2 2,-2 1.104569,0 2,0.89543 2,2 z"
         transform="translate(631.42859,689.50507)" />
      <path
         transform="matrix(0.5,0,0,0.5,592.42859,744.50507)"
         d="m -76,110 c 0,1.10457 -0.895431,2 -2,2 -1.104569,0 -2,-0.89543 -2,-2 0,-1.10457 0.895431,-2 2,-2 1.104569,0 2,0.89543 2,2 z"
         sodipodi:ry="2"
         sodipodi:rx="2"
         sodipodi:cy="110"
         sodipodi:cx="-78"
         id="path3976"
         style="fill:#b7b7b7;fill-opacity:1;stroke:none"
         sodipodi:type="arc" />
    </g>
    <g
       transform="translate(117.6015,-101.51522)"
       id="g3980">
      <path
         transform="translate(631.42859,689.50507)"
         d="m -76,110 c 0,1.10457 -0.895431,2 -2,2 -1.104569,0 -2,-0.89543 -2,-2 0,-1.10457 0.895431,-2 2,-2 1.104569,0 2,0.89543 2,2 z"
         sodipodi:ry="2"
         sodipodi:rx="2"
         sodipodi:cy="110"
         sodipodi:cx="-78"
         id="path3982"
         style="fill:url(#linearGradient3986);fill-opacity:1;stroke:none"
         sodipodi:type="arc" />
      <path
         sodipodi:type="arc"
         style="fill:#b7b7b7;fill-opacity:1;stroke:none"
         id="path3984"
         sodipodi:cx="-78"
         sodipodi:cy="110"
         sodipodi:rx="2"
         sodipodi:ry="2"
         d="m -76,110 c 0,1.10457 -0.895431,2 -2,2 -1.104569,0 -2,-0.89543 -2,-2 0,-1.10457 0.895431,-2 2,-2 1.104569,0 2,0.89543 2,2 z"
         transform="matrix(0.5,0,0,0.5,592.42859,744.50507)" />
    </g>
    <g
       id="g3988"
       transform="translate(112.6015,-96.515218)">
      <path
         sodipodi:type="arc"
         style="fill:url(#linearGradient3994);fill-opacity:1;stroke:none"
         id="path3990"
         sodipodi:cx="-78"
         sodipodi:cy="110"
         sodipodi:rx="2"
         sodipodi:ry="2"
         d="m -76,110 c 0,1.10457 -0.895431,2 -2,2 -1.104569,0 -2,-0.89543 -2,-2 0,-1.10457 0.895431,-2 2,-2 1.104569,0 2,0.89543 2,2 z"
         transform="translate(631.42859,689.50507)" />
      <path
         transform="matrix(0.5,0,0,0.5,592.42859,744.50507)"
         d="m -76,110 c 0,1.10457 -0.895431,2 -2,2 -1.104569,0 -2,-0.89543 -2,-2 0,-1.10457 0.895431,-2 2,-2 1.104569,0 2,0.89543 2,2 z"
         sodipodi:ry="2"
         sodipodi:rx="2"
         sodipodi:cy="110"
         sodipodi:cx="-78"
         id="path3992"
         style="fill:#b7b7b7;fill-opacity:1;stroke:none"
         sodipodi:type="arc" />
    </g>
    <g
       transform="translate(93.000004,-76)"
       id="g3996">
      <path
         transform="translate(631.42859,689.50507)"
         d="m -76,110 c 0,1.10457 -0.895431,2 -2,2 -1.104569,0 -2,-0.89543 -2,-2 0,-1.10457 0.895431,-2 2,-2 1.104569,0 2,0.89543 2,2 z"
         sodipodi:ry="2"
         sodipodi:rx="2"
         sodipodi:cy="110"
         sodipodi:cx="-78"
         id="path3998"
         style="fill:url(#linearGradient4002);fill-opacity:1;stroke:none"
         sodipodi:type="arc" />
      <path
         sodipodi:type="arc"
         style="fill:#b7b7b7;fill-opacity:1;stroke:none"
         id="path4000"
         sodipodi:cx="-78"
         sodipodi:cy="110"
         sodipodi:rx="2"
         sodipodi:ry="2"
         d="m -76,110 c 0,1.10457 -0.895431,2 -2,2 -1.104569,0 -2,-0.89543 -2,-2 0,-1.10457 0.895431,-2 2,-2 1.104569,0 2,0.89543 2,2 z"
         transform="matrix(0.5,0,0,0.5,592.42859,744.50507)" />
    </g>
    <g
       id="g4004"
       transform="translate(88.000004,-70)">
      <path
         sodipodi:type="arc"
         style="fill:url(#linearGradient4010);fill-opacity:1;stroke:none"
         id="path4006"
         sodipodi:cx="-78"
         sodipodi:cy="110"
         sodipodi:rx="2"
         sodipodi:ry="2"
         d="m -76,110 c 0,1.10457 -0.895431,2 -2,2 -1.104569,0 -2,-0.89543 -2,-2 0,-1.10457 0.895431,-2 2,-2 1.104569,0 2,0.89543 2,2 z"
         transform="translate(631.42859,689.50507)" />
      <path
         transform="matrix(0.5,0,0,0.5,592.42859,744.50507)"
         d="m -76,110 c 0,1.10457 -0.895431,2 -2,2 -1.104569,0 -2,-0.89543 -2,-2 0,-1.10457 0.895431,-2 2,-2 1.104569,0 2,0.89543 2,2 z"
         sodipodi:ry="2"
         sodipodi:rx="2"
         sodipodi:cy="110"
         sodipodi:cx="-78"
         id="path4008"
         style="fill:#b7b7b7;fill-opacity:1;stroke:none"
         sodipodi:type="arc" />
    </g>
    <g
       transform="translate(88.000004,-63)"
       id="g4012">
      <path
         transform="translate(631.42859,689.50507)"
         d="m -76,110 c 0,1.10457 -0.895431,2 -2,2 -1.104569,0 -2,-0.89543 -2,-2 0,-1.10457 0.895431,-2 2,-2 1.104569,0 2,0.89543 2,2 z"
         sodipodi:ry="2"
         sodipodi:rx="2"
         sodipodi:cy="110"
         sodipodi:cx="-78"
         id="path4014"
         style="fill:url(#linearGradient4018);fill-opacity:1;stroke:none"
         sodipodi:type="arc" />
      <path
         sodipodi:type="arc"
         style="fill:#b7b7b7;fill-opacity:1;stroke:none"
         id="path4016"
         sodipodi:cx="-78"
         sodipodi:cy="110"
         sodipodi:rx="2"
         sodipodi:ry="2"
         d="m -76,110 c 0,1.10457 -0.895431,2 -2,2 -1.104569,0 -2,-0.89543 -2,-2 0,-1.10457 0.895431,-2 2,-2 1.104569,0 2,0.89543 2,2 z"
         transform="matrix(0.5,0,0,0.5,592.42859,744.50507)" />
    </g>
    <g
       id="g4020"
       transform="translate(88.000004,-37)">
      <path
         sodipodi:type="arc"
         style="fill:url(#linearGradient4026);fill-opacity:1;stroke:none"
         id="path4022"
         sodipodi:cx="-78"
         sodipodi:cy="110"
         sodipodi:rx="2"
         sodipodi:ry="2"
         d="m -76,110 c 0,1.10457 -0.895431,2 -2,2 -1.104569,0 -2,-0.89543 -2,-2 0,-1.10457 0.895431,-2 2,-2 1.104569,0 2,0.89543 2,2 z"
         transform="translate(631.42859,689.50507)" />
      <path
         transform="matrix(0.5,0,0,0.5,592.42859,744.50507)"
         d="m -76,110 c 0,1.10457 -0.895431,2 -2,2 -1.104569,0 -2,-0.89543 -2,-2 0,-1.10457 0.895431,-2 2,-2 1.104569,0 2,0.89543 2,2 z"
         sodipodi:ry="2"
         sodipodi:rx="2"
         sodipodi:cy="110"
         sodipodi:cx="-78"
         id="path4024"
         style="fill:#b7b7b7;fill-opacity:1;stroke:none"
         sodipodi:type="arc" />
    </g>
    <g
       transform="translate(88.000004,-30)"
       id="g4028">
      <path
         transform="translate(631.42859,689.50507)"
         d="m -76,110 c 0,1.10457 -0.895431,2 -2,2 -1.104569,0 -2,-0.89543 -2,-2 0,-1.10457 0.895431,-2 2,-2 1.104569,0 2,0.89543 2,2 z"
         sodipodi:ry="2"
         sodipodi:rx="2"
         sodipodi:cy="110"
         sodipodi:cx="-78"
         id="path4030"
         style="fill:url(#linearGradient4034);fill-opacity:1;stroke:none"
         sodipodi:type="arc" />
      <path
         sodipodi:type="arc"
         style="fill:#b7b7b7;fill-opacity:1;stroke:none"
         id="path4032"
         sodipodi:cx="-78"
         sodipodi:cy="110"
         sodipodi:rx="2"
         sodipodi:ry="2"
         d="m -76,110 c 0,1.10457 -0.895431,2 -2,2 -1.104569,0 -2,-0.89543 -2,-2 0,-1.10457 0.895431,-2 2,-2 1.104569,0 2,0.89543 2,2 z"
         transform="matrix(0.5,0,0,0.5,592.42859,744.50507)" />
    </g>
    <g
       id="g4036"
       transform="translate(93.000004,-25)">
      <path
         sodipodi:type="arc"
         style="fill:url(#linearGradient4042);fill-opacity:1;stroke:none"
         id="path4038"
         sodipodi:cx="-78"
         sodipodi:cy="110"
         sodipodi:rx="2"
         sodipodi:ry="2"
         d="m -76,110 c 0,1.10457 -0.895431,2 -2,2 -1.104569,0 -2,-0.89543 -2,-2 0,-1.10457 0.895431,-2 2,-2 1.104569,0 2,0.89543 2,2 z"
         transform="translate(631.42859,689.50507)" />
      <path
         transform="matrix(0.5,0,0,0.5,592.42859,744.50507)"
         d="m -76,110 c 0,1.10457 -0.895431,2 -2,2 -1.104569,0 -2,-0.89543 -2,-2 0,-1.10457 0.895431,-2 2,-2 1.104569,0 2,0.89543 2,2 z"
         sodipodi:ry="2"
         sodipodi:rx="2"
         sodipodi:cy="110"
         sodipodi:cx="-78"
         id="path4040"
         style="fill:#b7b7b7;fill-opacity:1;stroke:none"
         sodipodi:type="arc" />
    </g>
    <path
       sodipodi:type="arc"
       style="fill:url(#linearGradient4052);fill-opacity:1;stroke:none"
       id="path4044"
       sodipodi:cx="-65.5"
       sodipodi:cy="59.5"
       sodipodi:rx="26.5"
       sodipodi:ry="26.5"
       d="M -39,59.5 C -39,74.135546 -50.864454,86 -65.5,86 -80.135546,86 -92,74.135546 -92,59.5 -92,44.864454 -80.135546,33 -65.5,33 -50.864454,33 -39,44.864454 -39,59.5 z"
       transform="translate(756.4286,689.50508)" />
    <path
       transform="matrix(0.96226415,0,0,0.96226415,753.9569,691.75036)"
       d="M -39,59.5 C -39,74.135546 -50.864454,86 -65.5,86 -80.135546,86 -92,74.135546 -92,59.5 -92,44.864454 -80.135546,33 -65.5,33 -50.864454,33 -39,44.864454 -39,59.5 z"
       sodipodi:ry="26.5"
       sodipodi:rx="26.5"
       sodipodi:cy="59.5"
       sodipodi:cx="-65.5"
       id="path4060"
       style="fill:url(#linearGradient4072);fill-opacity:1;stroke:none"
       sodipodi:type="arc" />
    <path
       sodipodi:type="arc"
       style="fill:#808080;fill-opacity:1;stroke:none"
       id="path4074"
       sodipodi:cx="-65.5"
       sodipodi:cy="59.5"
       sodipodi:rx="26.5"
       sodipodi:ry="26.5"
       d="M -39,59.5 C -39,74.135546 -50.864454,86 -65.5,86 -80.135546,86 -92,74.135546 -92,59.5 -92,44.864454 -80.135546,33 -65.5,33 -50.864454,33 -39,44.864454 -39,59.5 z"
       transform="matrix(0.73584895,0,0,0.73584895,739.1267,705.22206)" />
    <path
       transform="matrix(0.62264137,0,0,0.62264137,731.7116,711.95791)"
       d="M -39,59.5 C -39,74.135546 -50.864454,86 -65.5,86 -80.135546,86 -92,74.135546 -92,59.5 -92,44.864454 -80.135546,33 -65.5,33 -50.864454,33 -39,44.864454 -39,59.5 z"
       sodipodi:ry="26.5"
       sodipodi:rx="26.5"
       sodipodi:cy="59.5"
       sodipodi:cx="-65.5"
       id="path4076"
       style="fill:#0aa6fe;fill-opacity:1;stroke:none"
       sodipodi:type="arc" />
    <g
       id="g4126"
       transform="translate(-0.08928857,0.10713)">
      <path
         transform="translate(756.07145,688.77294)"
         d="m -72,51 c 0,1.104569 -0.895431,2 -2,2 -1.104569,0 -2,-0.895431 -2,-2 0,-1.104569 0.895431,-2 2,-2 1.104569,0 2,0.895431 2,2 z"
         sodipodi:ry="2"
         sodipodi:rx="2"
         sodipodi:cy="51"
         sodipodi:cx="-74"
         id="path4078"
         style="fill:url(#linearGradient4086);fill-opacity:1;stroke:none"
         sodipodi:type="arc" />
      <path
         transform="translate(756.07145,688.77294)"
         d="m -73,51 c 0,0.552285 -0.447715,1 -1,1 -0.552285,0 -1,-0.447715 -1,-1 0,-0.552285 0.447715,-1 1,-1 0.552285,0 1,0.447715 1,1 z"
         sodipodi:ry="1"
         sodipodi:rx="1"
         sodipodi:cy="51"
         sodipodi:cx="-74"
         id="path4088"
         style="fill:url(#linearGradient4096);fill-opacity:1;stroke:none"
         sodipodi:type="arc" />
      <path
         sodipodi:type="arc"
         style="fill:url(#linearGradient4102);fill-opacity:1;stroke:none"
         id="path4098"
         sodipodi:cx="-74"
         sodipodi:cy="51"
         sodipodi:rx="2"
         sodipodi:ry="2"
         d="m -72,51 c 0,1.104569 -0.895431,2 -2,2 -1.104569,0 -2,-0.895431 -2,-2 0,-1.104569 0.895431,-2 2,-2 1.104569,0 2,0.895431 2,2 z"
         transform="translate(774.07145,688.77294)" />
      <path
         sodipodi:type="arc"
         style="fill:url(#linearGradient4104);fill-opacity:1;stroke:none"
         id="path4100"
         sodipodi:cx="-74"
         sodipodi:cy="51"
         sodipodi:rx="1"
         sodipodi:ry="1"
         d="m -73,51 c 0,0.552285 -0.447715,1 -1,1 -0.552285,0 -1,-0.447715 -1,-1 0,-0.552285 0.447715,-1 1,-1 0.552285,0 1,0.447715 1,1 z"
         transform="translate(774.07145,688.77294)" />
      <path
         transform="translate(774.07145,706.77294)"
         d="m -72,51 c 0,1.104569 -0.895431,2 -2,2 -1.104569,0 -2,-0.895431 -2,-2 0,-1.104569 0.895431,-2 2,-2 1.104569,0 2,0.895431 2,2 z"
         sodipodi:ry="2"
         sodipodi:rx="2"
         sodipodi:cy="51"
         sodipodi:cx="-74"
         id="path4106"
         style="fill:url(#linearGradient4110);fill-opacity:1;stroke:none"
         sodipodi:type="arc" />
      <path
         transform="translate(774.07145,706.77294)"
         d="m -73,51 c 0,0.552285 -0.447715,1 -1,1 -0.552285,0 -1,-0.447715 -1,-1 0,-0.552285 0.447715,-1 1,-1 0.552285,0 1,0.447715 1,1 z"
         sodipodi:ry="1"
         sodipodi:rx="1"
         sodipodi:cy="51"
         sodipodi:cx="-74"
         id="path4108"
         style="fill:url(#linearGradient4112);fill-opacity:1;stroke:none"
         sodipodi:type="arc" />
      <path
         sodipodi:type="arc"
         style="fill:url(#linearGradient4118);fill-opacity:1;stroke:none"
         id="path4114"
         sodipodi:cx="-74"
         sodipodi:cy="51"
         sodipodi:rx="2"
         sodipodi:ry="2"
         d="m -72,51 c 0,1.104569 -0.895431,2 -2,2 -1.104569,0 -2,-0.895431 -2,-2 0,-1.104569 0.895431,-2 2,-2 1.104569,0 2,0.895431 2,2 z"
         transform="translate(756.07145,706.77294)" />
      <path
         sodipodi:type="arc"
         style="fill:url(#linearGradient4120);fill-opacity:1;stroke:none"
         id="path4116"
         sodipodi:cx="-74"
         sodipodi:cy="51"
         sodipodi:rx="1"
         sodipodi:ry="1"
         d="m -73,51 c 0,0.552285 -0.447715,1 -1,1 -0.552285,0 -1,-0.447715 -1,-1 0,-0.552285 0.447715,-1 1,-1 0.552285,0 1,0.447715 1,1 z"
         transform="translate(756.07145,706.77294)" />
    </g>
  </g>
</svg>
