<?xml version="1.0" encoding="UTF-8" standalone="no"?>
<!-- Created with Inkscape (http://www.inkscape.org/) -->

<svg
   xmlns:dc="http://purl.org/dc/elements/1.1/"
   xmlns:cc="http://creativecommons.org/ns#"
   xmlns:rdf="http://www.w3.org/1999/02/22-rdf-syntax-ns#"
   xmlns:svg="http://www.w3.org/2000/svg"
   xmlns="http://www.w3.org/2000/svg"
   xmlns:xlink="http://www.w3.org/1999/xlink"
   xmlns:sodipodi="http://sodipodi.sourceforge.net/DTD/sodipodi-0.dtd"
   xmlns:inkscape="http://www.inkscape.org/namespaces/inkscape"
   width="64"
   height="48"
   id="svg2"
   version="1.1"
   inkscape:version="0.48.4 r9939"
   sodipodi:docname="convert14.svg"
   inkscape:export-filename="C:\Documents and Settings\Administrator\Pulpit\convert14.png"
   inkscape:export-xdpi="360"
   inkscape:export-ydpi="360">
  <defs
     id="defs4">
    <linearGradient
       inkscape:collect="always"
       id="linearGradient4630">
      <stop
         style="stop-color:#000000;stop-opacity:0.2"
         offset="0"
         id="stop4632" />
      <stop
         style="stop-color:#000000;stop-opacity:0;"
         offset="1"
         id="stop4634" />
    </linearGradient>
    <linearGradient
       inkscape:collect="always"
       id="linearGradient4618">
      <stop
         style="stop-color:#019cef;stop-opacity:1"
         offset="0"
         id="stop4620" />
      <stop
         style="stop-color:#7ad0fe;stop-opacity:1"
         offset="1"
         id="stop4622" />
    </linearGradient>
    <linearGradient
       inkscape:collect="always"
       id="linearGradient4544">
      <stop
         style="stop-color:#01679e;stop-opacity:1"
         offset="0"
         id="stop4546" />
      <stop
         style="stop-color:#0183c9;stop-opacity:1"
         offset="1"
         id="stop4548" />
    </linearGradient>
    <clipPath
       clipPathUnits="userSpaceOnUse"
       id="clipPath4289">
      <rect
         style="fill:#7ad0fe;fill-opacity:1;fill-rule:evenodd;stroke:none"
         id="rect4291"
         width="2"
         height="15"
         x="683.57141"
         y="751.36218" />
    </clipPath>
    <clipPath
       clipPathUnits="userSpaceOnUse"
       id="clipPath4434">
      <rect
         style="fill:#0388ce;fill-opacity:1;fill-rule:evenodd;stroke:none"
         id="rect4436"
         width="7"
         height="2"
         x="50"
         y="73" />
    </clipPath>
    <clipPath
       clipPathUnits="userSpaceOnUse"
       id="clipPath4444">
      <rect
         style="fill:#0373af;fill-opacity:1;fill-rule:evenodd;stroke:none"
         id="rect4446"
         width="3"
         height="1"
         x="72.999992"
         y="73.999985" />
    </clipPath>
    <linearGradient
       inkscape:collect="always"
       xlink:href="#linearGradient4544"
       id="linearGradient4550"
       x1="2.99999"
       y1="-45.000019"
       x2="0.99998999"
       y2="-47.000019"
       gradientUnits="userSpaceOnUse" />
    <linearGradient
       inkscape:collect="always"
       xlink:href="#linearGradient4544"
       id="linearGradient4554"
       gradientUnits="userSpaceOnUse"
       x1="2.99999"
       y1="-45.000019"
       x2="0.99998999"
       y2="-47.000019" />
    <linearGradient
       inkscape:collect="always"
       xlink:href="#linearGradient4544"
       id="linearGradient4558"
       gradientUnits="userSpaceOnUse"
       x1="2.99999"
       y1="-45.000019"
       x2="0.99998999"
       y2="-47.000019" />
    <linearGradient
       inkscape:collect="always"
       xlink:href="#linearGradient4544"
       id="linearGradient4562"
       gradientUnits="userSpaceOnUse"
       x1="2.99999"
       y1="-45.000019"
       x2="0.99998999"
       y2="-47.000019" />
    <linearGradient
       inkscape:collect="always"
       xlink:href="#linearGradient4544"
       id="linearGradient4566"
       gradientUnits="userSpaceOnUse"
       x1="2.99999"
       y1="-45.000019"
       x2="0.99998999"
       y2="-47.000019" />
    <linearGradient
       inkscape:collect="always"
       xlink:href="#linearGradient4544"
       id="linearGradient4570"
       gradientUnits="userSpaceOnUse"
       x1="2.99999"
       y1="-45.000019"
       x2="0.99998999"
       y2="-47.000019" />
    <linearGradient
       inkscape:collect="always"
       xlink:href="#linearGradient4544"
       id="linearGradient4574"
       gradientUnits="userSpaceOnUse"
       x1="2.99999"
       y1="-45.000019"
       x2="0.99998999"
       y2="-47.000019" />
    <linearGradient
       inkscape:collect="always"
       xlink:href="#linearGradient4544"
       id="linearGradient4578"
       gradientUnits="userSpaceOnUse"
       x1="2.99999"
       y1="-45.000019"
       x2="0.99998999"
       y2="-47.000019" />
    <linearGradient
       inkscape:collect="always"
       xlink:href="#linearGradient4544"
       id="linearGradient4582"
       gradientUnits="userSpaceOnUse"
       x1="2.99999"
       y1="-45.000019"
       x2="0.99998999"
       y2="-47.000019" />
    <linearGradient
       inkscape:collect="always"
       xlink:href="#linearGradient4544"
       id="linearGradient4586"
       gradientUnits="userSpaceOnUse"
       x1="2.99999"
       y1="-45.000019"
       x2="0.99998999"
       y2="-47.000019" />
    <linearGradient
       inkscape:collect="always"
       xlink:href="#linearGradient4544"
       id="linearGradient4590"
       gradientUnits="userSpaceOnUse"
       x1="2.99999"
       y1="-45.000019"
       x2="0.99998999"
       y2="-47.000019" />
    <linearGradient
       inkscape:collect="always"
       xlink:href="#linearGradient4544"
       id="linearGradient4594"
       gradientUnits="userSpaceOnUse"
       x1="2.99999"
       y1="-45.000019"
       x2="0.99998999"
       y2="-47.000019" />
    <linearGradient
       inkscape:collect="always"
       xlink:href="#linearGradient4544"
       id="linearGradient4598"
       gradientUnits="userSpaceOnUse"
       x1="2.99999"
       y1="-45.000019"
       x2="0.99998999"
       y2="-47.000019" />
    <linearGradient
       inkscape:collect="always"
       xlink:href="#linearGradient4544"
       id="linearGradient4602"
       gradientUnits="userSpaceOnUse"
       x1="2.99999"
       y1="-45.000019"
       x2="0.99998999"
       y2="-47.000019" />
    <linearGradient
       inkscape:collect="always"
       xlink:href="#linearGradient4544"
       id="linearGradient4606"
       gradientUnits="userSpaceOnUse"
       x1="2.99999"
       y1="-45.000019"
       x2="0.99998999"
       y2="-47.000019" />
    <linearGradient
       inkscape:collect="always"
       xlink:href="#linearGradient4544"
       id="linearGradient4610"
       gradientUnits="userSpaceOnUse"
       x1="2.99999"
       y1="-45.000019"
       x2="0.99998999"
       y2="-47.000019" />
    <linearGradient
       inkscape:collect="always"
       xlink:href="#linearGradient4544"
       id="linearGradient4614"
       gradientUnits="userSpaceOnUse"
       x1="2.99999"
       y1="-45.000019"
       x2="0.99998999"
       y2="-47.000019" />
    <linearGradient
       inkscape:collect="always"
       xlink:href="#linearGradient4618"
       id="linearGradient4624"
       x1="56.999989"
       y1="-20.000019"
       x2="6.99999"
       y2="-20.000019"
       gradientUnits="userSpaceOnUse"
       gradientTransform="translate(541.57139,674.36214)" />
    <linearGradient
       inkscape:collect="always"
       xlink:href="#linearGradient4630"
       id="linearGradient4636"
       x1="31.99999"
       y1="5.99998"
       x2="31.99999"
       y2="7.99998"
       gradientUnits="userSpaceOnUse" />
    <filter
       inkscape:collect="always"
       id="filter4672">
      <feGaussianBlur
         inkscape:collect="always"
         stdDeviation="0.69985937"
         id="feGaussianBlur4674" />
    </filter>
  </defs>
  <sodipodi:namedview
     id="base"
     pagecolor="#ffffff"
     bordercolor="#666666"
     borderopacity="1.0"
     inkscape:pageopacity="0.0"
     inkscape:pageshadow="2"
     inkscape:zoom="1"
     inkscape:cx="9.1100532"
     inkscape:cy="43.81925"
     inkscape:document-units="px"
     inkscape:current-layer="layer1"
     showgrid="false"
     fit-margin-top="0"
     fit-margin-left="0"
     fit-margin-right="0"
     fit-margin-bottom="0"
     inkscape:snap-bbox="true"
     inkscape:window-width="1280"
     inkscape:window-height="977"
     inkscape:window-x="-4"
     inkscape:window-y="-4"
     inkscape:window-maximized="1"
     showguides="true"
     inkscape:guide-bbox="true"
     inkscape:bbox-paths="false"
     inkscape:bbox-nodes="false">
    <inkscape:grid
       type="xygrid"
       id="grid2996"
       empspacing="5"
       visible="true"
       enabled="true"
       snapvisiblegridlinesonly="true"
       originx="158.99999px"
       originy="-166.99998px" />
  </sodipodi:namedview>
  <metadata
     id="metadata7">
    <rdf:RDF>
      <cc:Work
         rdf:about="">
        <dc:format>image/svg+xml</dc:format>
        <dc:type
           rdf:resource="http://purl.org/dc/dcmitype/StillImage" />
        <dc:title></dc:title>
      </cc:Work>
    </rdf:RDF>
  </metadata>
  <g
     inkscape:label="Layer 1"
     inkscape:groupmode="layer"
     id="layer1"
     transform="translate(-541.57141,-625.36218)">
    <rect
       style="fill:#38b9fe;fill-opacity:1;fill-rule:evenodd;stroke:none"
       id="rect4530"
       width="64"
       height="48"
       x="541.57141"
       y="625.36218" />
    <rect
       style="fill:url(#linearGradient4624);fill-opacity:1;fill-rule:evenodd;stroke:none"
       id="rect4616"
       width="52"
       height="43"
       x="547.57141"
       y="630.36218" />
    <rect
       style="fill:#0191de;fill-opacity:1;fill-rule:evenodd;stroke:none"
       id="rect4540"
       width="64"
       height="6"
       x="-9.9999997e-006"
       y="-1.9999999e-005"
       transform="translate(541.57141,625.36218)" />
    <path
       sodipodi:type="arc"
       style="fill:url(#linearGradient4550);fill-opacity:1;fill-rule:evenodd;stroke:none"
       id="path4542"
       sodipodi:cx="1.99999"
       sodipodi:cy="-46.000019"
       sodipodi:rx="1"
       sodipodi:ry="1"
       d="m 2.99999,-46.000019 c 0,0.552285 -0.4477153,1 -1,1 -0.5522848,0 -1.00000001,-0.447715 -1.00000001,-1 0,-0.552285 0.44771521,-1 1.00000001,-1 0.5522847,0 1,0.447715 1,1 z"
       transform="translate(541.57141,674.36218)" />
    <path
       transform="translate(545.57141,674.36218)"
       d="m 2.99999,-46.000019 c 0,0.552285 -0.4477153,1 -1,1 -0.5522848,0 -1.00000001,-0.447715 -1.00000001,-1 0,-0.552285 0.44771521,-1 1.00000001,-1 0.5522847,0 1,0.447715 1,1 z"
       sodipodi:ry="1"
       sodipodi:rx="1"
       sodipodi:cy="-46.000019"
       sodipodi:cx="1.99999"
       id="path4552"
       style="fill:url(#linearGradient4554);fill-opacity:1;fill-rule:evenodd;stroke:none"
       sodipodi:type="arc" />
    <path
       sodipodi:type="arc"
       style="fill:url(#linearGradient4558);fill-opacity:1;fill-rule:evenodd;stroke:none"
       id="path4556"
       sodipodi:cx="1.99999"
       sodipodi:cy="-46.000019"
       sodipodi:rx="1"
       sodipodi:ry="1"
       d="m 2.99999,-46.000019 c 0,0.552285 -0.4477153,1 -1,1 -0.5522848,0 -1.00000001,-0.447715 -1.00000001,-1 0,-0.552285 0.44771521,-1 1.00000001,-1 0.5522847,0 1,0.447715 1,1 z"
       transform="translate(549.57141,674.36218)" />
    <path
       transform="translate(553.57141,674.36218)"
       d="m 2.99999,-46.000019 c 0,0.552285 -0.4477153,1 -1,1 -0.5522848,0 -1.00000001,-0.447715 -1.00000001,-1 0,-0.552285 0.44771521,-1 1.00000001,-1 0.5522847,0 1,0.447715 1,1 z"
       sodipodi:ry="1"
       sodipodi:rx="1"
       sodipodi:cy="-46.000019"
       sodipodi:cx="1.99999"
       id="path4560"
       style="fill:url(#linearGradient4562);fill-opacity:1;fill-rule:evenodd;stroke:none"
       sodipodi:type="arc" />
    <path
       sodipodi:type="arc"
       style="fill:url(#linearGradient4566);fill-opacity:1;fill-rule:evenodd;stroke:none"
       id="path4564"
       sodipodi:cx="1.99999"
       sodipodi:cy="-46.000019"
       sodipodi:rx="1"
       sodipodi:ry="1"
       d="m 2.99999,-46.000019 c 0,0.552285 -0.4477153,1 -1,1 -0.5522848,0 -1.00000001,-0.447715 -1.00000001,-1 0,-0.552285 0.44771521,-1 1.00000001,-1 0.5522847,0 1,0.447715 1,1 z"
       transform="translate(557.57141,674.36218)" />
    <path
       transform="translate(561.57141,674.36218)"
       d="m 2.99999,-46.000019 c 0,0.552285 -0.4477153,1 -1,1 -0.5522848,0 -1.00000001,-0.447715 -1.00000001,-1 0,-0.552285 0.44771521,-1 1.00000001,-1 0.5522847,0 1,0.447715 1,1 z"
       sodipodi:ry="1"
       sodipodi:rx="1"
       sodipodi:cy="-46.000019"
       sodipodi:cx="1.99999"
       id="path4568"
       style="fill:url(#linearGradient4570);fill-opacity:1;fill-rule:evenodd;stroke:none"
       sodipodi:type="arc" />
    <path
       sodipodi:type="arc"
       style="fill:url(#linearGradient4574);fill-opacity:1;fill-rule:evenodd;stroke:none"
       id="path4572"
       sodipodi:cx="1.99999"
       sodipodi:cy="-46.000019"
       sodipodi:rx="1"
       sodipodi:ry="1"
       d="m 2.99999,-46.000019 c 0,0.552285 -0.4477153,1 -1,1 -0.5522848,0 -1.00000001,-0.447715 -1.00000001,-1 0,-0.552285 0.44771521,-1 1.00000001,-1 0.5522847,0 1,0.447715 1,1 z"
       transform="translate(565.57141,674.36218)" />
    <path
       transform="translate(569.57141,674.36218)"
       d="m 2.99999,-46.000019 c 0,0.552285 -0.4477153,1 -1,1 -0.5522848,0 -1.00000001,-0.447715 -1.00000001,-1 0,-0.552285 0.44771521,-1 1.00000001,-1 0.5522847,0 1,0.447715 1,1 z"
       sodipodi:ry="1"
       sodipodi:rx="1"
       sodipodi:cy="-46.000019"
       sodipodi:cx="1.99999"
       id="path4576"
       style="fill:url(#linearGradient4578);fill-opacity:1;fill-rule:evenodd;stroke:none"
       sodipodi:type="arc" />
    <path
       sodipodi:type="arc"
       style="fill:url(#linearGradient4582);fill-opacity:1;fill-rule:evenodd;stroke:none"
       id="path4580"
       sodipodi:cx="1.99999"
       sodipodi:cy="-46.000019"
       sodipodi:rx="1"
       sodipodi:ry="1"
       d="m 2.99999,-46.000019 c 0,0.552285 -0.4477153,1 -1,1 -0.5522848,0 -1.00000001,-0.447715 -1.00000001,-1 0,-0.552285 0.44771521,-1 1.00000001,-1 0.5522847,0 1,0.447715 1,1 z"
       transform="translate(573.57141,674.36218)" />
    <path
       transform="translate(577.57141,674.36218)"
       d="m 2.99999,-46.000019 c 0,0.552285 -0.4477153,1 -1,1 -0.5522848,0 -1.00000001,-0.447715 -1.00000001,-1 0,-0.552285 0.44771521,-1 1.00000001,-1 0.5522847,0 1,0.447715 1,1 z"
       sodipodi:ry="1"
       sodipodi:rx="1"
       sodipodi:cy="-46.000019"
       sodipodi:cx="1.99999"
       id="path4584"
       style="fill:url(#linearGradient4586);fill-opacity:1;fill-rule:evenodd;stroke:none"
       sodipodi:type="arc" />
    <path
       sodipodi:type="arc"
       style="fill:url(#linearGradient4590);fill-opacity:1;fill-rule:evenodd;stroke:none"
       id="path4588"
       sodipodi:cx="1.99999"
       sodipodi:cy="-46.000019"
       sodipodi:rx="1"
       sodipodi:ry="1"
       d="m 2.99999,-46.000019 c 0,0.552285 -0.4477153,1 -1,1 -0.5522848,0 -1.00000001,-0.447715 -1.00000001,-1 0,-0.552285 0.44771521,-1 1.00000001,-1 0.5522847,0 1,0.447715 1,1 z"
       transform="translate(581.57141,674.36218)" />
    <path
       transform="translate(585.57141,674.36218)"
       d="m 2.99999,-46.000019 c 0,0.552285 -0.4477153,1 -1,1 -0.5522848,0 -1.00000001,-0.447715 -1.00000001,-1 0,-0.552285 0.44771521,-1 1.00000001,-1 0.5522847,0 1,0.447715 1,1 z"
       sodipodi:ry="1"
       sodipodi:rx="1"
       sodipodi:cy="-46.000019"
       sodipodi:cx="1.99999"
       id="path4592"
       style="fill:url(#linearGradient4594);fill-opacity:1;fill-rule:evenodd;stroke:none"
       sodipodi:type="arc" />
    <path
       sodipodi:type="arc"
       style="fill:url(#linearGradient4598);fill-opacity:1;fill-rule:evenodd;stroke:none"
       id="path4596"
       sodipodi:cx="1.99999"
       sodipodi:cy="-46.000019"
       sodipodi:rx="1"
       sodipodi:ry="1"
       d="m 2.99999,-46.000019 c 0,0.552285 -0.4477153,1 -1,1 -0.5522848,0 -1.00000001,-0.447715 -1.00000001,-1 0,-0.552285 0.44771521,-1 1.00000001,-1 0.5522847,0 1,0.447715 1,1 z"
       transform="translate(589.57141,674.36218)" />
    <path
       transform="translate(593.57141,674.36218)"
       d="m 2.99999,-46.000019 c 0,0.552285 -0.4477153,1 -1,1 -0.5522848,0 -1.00000001,-0.447715 -1.00000001,-1 0,-0.552285 0.44771521,-1 1.00000001,-1 0.5522847,0 1,0.447715 1,1 z"
       sodipodi:ry="1"
       sodipodi:rx="1"
       sodipodi:cy="-46.000019"
       sodipodi:cx="1.99999"
       id="path4600"
       style="fill:url(#linearGradient4602);fill-opacity:1;fill-rule:evenodd;stroke:none"
       sodipodi:type="arc" />
    <path
       sodipodi:type="arc"
       style="fill:url(#linearGradient4606);fill-opacity:1;fill-rule:evenodd;stroke:none"
       id="path4604"
       sodipodi:cx="1.99999"
       sodipodi:cy="-46.000019"
       sodipodi:rx="1"
       sodipodi:ry="1"
       d="m 2.99999,-46.000019 c 0,0.552285 -0.4477153,1 -1,1 -0.5522848,0 -1.00000001,-0.447715 -1.00000001,-1 0,-0.552285 0.44771521,-1 1.00000001,-1 0.5522847,0 1,0.447715 1,1 z"
       transform="translate(597.57141,674.36218)" />
    <path
       transform="translate(601.57141,674.36218)"
       d="m 2.99999,-46.000019 c 0,0.552285 -0.4477153,1 -1,1 -0.5522848,0 -1.00000001,-0.447715 -1.00000001,-1 0,-0.552285 0.44771521,-1 1.00000001,-1 0.5522847,0 1,0.447715 1,1 z"
       sodipodi:ry="1"
       sodipodi:rx="1"
       sodipodi:cy="-46.000019"
       sodipodi:cx="1.99999"
       id="path4608"
       style="fill:url(#linearGradient4610);fill-opacity:1;fill-rule:evenodd;stroke:none"
       sodipodi:type="arc" />
    <path
       sodipodi:type="arc"
       style="fill:url(#linearGradient4614);fill-opacity:1;fill-rule:evenodd;stroke:none"
       id="path4612"
       sodipodi:cx="1.99999"
       sodipodi:cy="-46.000019"
       sodipodi:rx="1"
       sodipodi:ry="1"
       d="m 2.99999,-46.000019 c 0,0.552285 -0.4477153,1 -1,1 -0.5522848,0 -1.00000001,-0.447715 -1.00000001,-1 0,-0.552285 0.44771521,-1 1.00000001,-1 0.5522847,0 1,0.447715 1,1 z"
       transform="translate(601.57141,674.36218)" />
    <rect
       style="fill:#0aa6fe;fill-opacity:1;fill-rule:evenodd;stroke:none"
       id="rect4626"
       width="50"
       height="42"
       x="548.57141"
       y="631.36218" />
    <rect
       style="fill:url(#linearGradient4636);fill-opacity:1;fill-rule:evenodd;stroke:none"
       id="rect4628"
       width="64"
       height="2"
       x="-9.9999997e-006"
       y="5.99998"
       transform="translate(541.57141,625.36218)" />
    <path
       inkscape:connector-curvature="0"
       id="path4650"
       d="m 570.54024,663.36216 -12.96884,-12.47159 12.88384,-12.54832 0.085,7.01991 18,0 0,11 -18,0 z"
       style="fill:#5d5d5d;fill-opacity:1;stroke:none;filter:url(#filter4672)" />
    <path
       style="fill:#ff8401;fill-opacity:1;stroke:none"
       d="m 569.57139,662.38205 -12.96884,-12.47159 12.88384,-12.54832 0.085,7.01991 18,0 0,11 -18,0 z"
       id="path4644"
       inkscape:connector-curvature="0" />
  </g>
</svg>
