<?xml version="1.0" encoding="UTF-8" standalone="no"?>
<!-- Created with Inkscape (http://www.inkscape.org/) -->

<svg
   xmlns:dc="http://purl.org/dc/elements/1.1/"
   xmlns:cc="http://creativecommons.org/ns#"
   xmlns:rdf="http://www.w3.org/1999/02/22-rdf-syntax-ns#"
   xmlns:svg="http://www.w3.org/2000/svg"
   xmlns="http://www.w3.org/2000/svg"
   xmlns:xlink="http://www.w3.org/1999/xlink"
   xmlns:sodipodi="http://sodipodi.sourceforge.net/DTD/sodipodi-0.dtd"
   xmlns:inkscape="http://www.inkscape.org/namespaces/inkscape"
   version="1.1"
   width="128"
   height="56"
   id="svg2"
   inkscape:version="0.48.4 r9939"
   sodipodi:docname="convert12.svg"
   inkscape:export-filename="C:\Documents and Settings\Administrator\Pulpit\convert12.png"
   inkscape:export-xdpi="360"
   inkscape:export-ydpi="360">
  <sodipodi:namedview
     pagecolor="#ffffff"
     bordercolor="#666666"
     borderopacity="1"
     objecttolerance="10"
     gridtolerance="10"
     guidetolerance="10"
     inkscape:pageopacity="0"
     inkscape:pageshadow="2"
     inkscape:window-width="1280"
     inkscape:window-height="977"
     id="namedview151"
     showgrid="false"
     inkscape:zoom="1"
     inkscape:cx="64"
     inkscape:cy="21.769396"
     inkscape:window-x="-4"
     inkscape:window-y="-4"
     inkscape:window-maximized="1"
     inkscape:current-layer="layer1" />
  <defs
     id="defs4">
    <linearGradient
       id="linearGradient4412">
      <stop
         id="stop4414"
         style="stop-color:#03a6ce;stop-opacity:1"
         offset="0" />
      <stop
         id="stop4416"
         style="stop-color:#3abbce;stop-opacity:1"
         offset="1" />
    </linearGradient>
    <linearGradient
       id="linearGradient4404">
      <stop
         id="stop4406"
         style="stop-color:#7ad0fe;stop-opacity:1"
         offset="0" />
      <stop
         id="stop4408"
         style="stop-color:#0186cd;stop-opacity:1"
         offset="1" />
    </linearGradient>
    <linearGradient
       id="linearGradient4299">
      <stop
         id="stop4301"
         style="stop-color:#7ad0fe;stop-opacity:1"
         offset="0" />
      <stop
         id="stop4303"
         style="stop-color:#0186cd;stop-opacity:1"
         offset="1" />
    </linearGradient>
    <linearGradient
       id="linearGradient4227">
      <stop
         id="stop4229"
         style="stop-color:#ff7979;stop-opacity:1"
         offset="0" />
      <stop
         id="stop4231"
         style="stop-color:#ff0000;stop-opacity:1"
         offset="1" />
    </linearGradient>
    <linearGradient
       id="linearGradient4215">
      <stop
         id="stop4217"
         style="stop-color:#0186cd;stop-opacity:1"
         offset="0" />
      <stop
         id="stop4219"
         style="stop-color:#7ad0fe;stop-opacity:1"
         offset="1" />
    </linearGradient>
    <linearGradient
       id="linearGradient4203">
      <stop
         id="stop4205"
         style="stop-color:#019cef;stop-opacity:1"
         offset="0" />
      <stop
         id="stop4207"
         style="stop-color:#7ad0fe;stop-opacity:1"
         offset="1" />
    </linearGradient>
    <linearGradient
       id="linearGradient4193">
      <stop
         id="stop4195"
         style="stop-color:#4d4d4d;stop-opacity:1"
         offset="0" />
      <stop
         id="stop4197"
         style="stop-color:#0aa6fe;stop-opacity:1"
         offset="1" />
    </linearGradient>
    <linearGradient
       id="linearGradient4185">
      <stop
         id="stop4187"
         style="stop-color:#ff8401;stop-opacity:1"
         offset="0" />
      <stop
         id="stop4189"
         style="stop-color:#da7100;stop-opacity:1"
         offset="1" />
    </linearGradient>
    <linearGradient
       id="linearGradient4149">
      <stop
         id="stop4151"
         style="stop-color:#000000;stop-opacity:1"
         offset="0" />
      <stop
         id="stop4153"
         style="stop-color:#808080;stop-opacity:1"
         offset="1" />
    </linearGradient>
    <linearGradient
       id="linearGradient4135">
      <stop
         id="stop4137"
         style="stop-color:#000000;stop-opacity:1"
         offset="0" />
      <stop
         id="stop4139"
         style="stop-color:#808080;stop-opacity:1"
         offset="1" />
    </linearGradient>
    <linearGradient
       id="linearGradient4123">
      <stop
         id="stop4125"
         style="stop-color:#000000;stop-opacity:1"
         offset="0" />
      <stop
         id="stop4127"
         style="stop-color:#808080;stop-opacity:1"
         offset="1" />
    </linearGradient>
    <linearGradient
       x1="660.57141"
       y1="782.36218"
       x2="660.57141"
       y2="781.36218"
       id="linearGradient4129"
       xlink:href="#linearGradient4123"
       gradientUnits="userSpaceOnUse"
       gradientTransform="translate(-14.000011,-57.000035)" />
    <linearGradient
       x1="5.9999952"
       y1="96.999985"
       x2="3.999995"
       y2="94.999985"
       id="linearGradient4141"
       xlink:href="#linearGradient4135"
       gradientUnits="userSpaceOnUse" />
    <linearGradient
       x1="81.999992"
       y1="110.99998"
       x2="55.999996"
       y2="92.999985"
       id="linearGradient4155"
       xlink:href="#linearGradient4149"
       gradientUnits="userSpaceOnUse"
       gradientTransform="translate(642.57137,632.3621)" />
    <linearGradient
       x1="5.9999952"
       y1="96.999985"
       x2="3.999995"
       y2="94.999985"
       id="linearGradient4163"
       xlink:href="#linearGradient4135"
       gradientUnits="userSpaceOnUse" />
    <linearGradient
       x1="5.9999952"
       y1="96.999985"
       x2="3.999995"
       y2="94.999985"
       id="linearGradient4169"
       xlink:href="#linearGradient4135"
       gradientUnits="userSpaceOnUse" />
    <linearGradient
       x1="656.57141"
       y1="788.36218"
       x2="662.57141"
       y2="781.36218"
       id="linearGradient4179"
       xlink:href="#linearGradient4123"
       gradientUnits="userSpaceOnUse"
       gradientTransform="translate(-1427.1428,-57.000033)" />
    <linearGradient
       x1="5.9999952"
       y1="96.999985"
       x2="3.999995"
       y2="94.999985"
       id="linearGradient4181"
       xlink:href="#linearGradient4135"
       gradientUnits="userSpaceOnUse" />
    <linearGradient
       x1="103.99999"
       y1="84.353539"
       x2="103.99999"
       y2="85.204491"
       id="linearGradient4191"
       xlink:href="#linearGradient4185"
       gradientUnits="userSpaceOnUse"
       gradientTransform="translate(642.57138,632.36212)" />
    <linearGradient
       x1="62.999996"
       y1="24.999985"
       x2="62.999996"
       y2="21.999985"
       id="linearGradient4199"
       xlink:href="#linearGradient4193"
       gradientUnits="userSpaceOnUse" />
    <linearGradient
       x1="679.57141"
       y1="760.36218"
       x2="677.57141"
       y2="757.36218"
       id="linearGradient4209"
       xlink:href="#linearGradient4203"
       gradientUnits="userSpaceOnUse"
       gradientTransform="translate(-19.000006,-57.000065)" />
    <linearGradient
       x1="18.999994"
       y1="70.999985"
       x2="14.999995"
       y2="66.999985"
       id="linearGradient4221"
       xlink:href="#linearGradient4215"
       gradientUnits="userSpaceOnUse" />
    <linearGradient
       x1="-10.187505"
       y1="68.374985"
       x2="-9.0000048"
       y2="69.999985"
       id="linearGradient4233"
       xlink:href="#linearGradient4227"
       gradientUnits="userSpaceOnUse" />
    <filter
       x="-0.30600017"
       y="-0.040799998"
       width="1.6120003"
       height="1.0816"
       color-interpolation-filters="sRGB"
       id="filter4283">
      <feGaussianBlur
         id="feGaussianBlur4285"
         stdDeviation="0.25499998" />
    </filter>
    <clipPath
       id="clipPath4289">
      <rect
         width="2"
         height="15"
         x="683.57141"
         y="751.36218"
         id="rect4291"
         style="fill:#7ad0fe;fill-opacity:1;fill-rule:evenodd;stroke:none" />
    </clipPath>
    <linearGradient
       x1="682.57141"
       y1="763.36218"
       x2="683.19641"
       y2="764.86218"
       id="linearGradient4305"
       xlink:href="#linearGradient4299"
       gradientUnits="userSpaceOnUse"
       gradientTransform="translate(-5.9999898,-57.000009)" />
    <linearGradient
       x1="18.999994"
       y1="70.999985"
       x2="14.999995"
       y2="66.999985"
       id="linearGradient4373"
       xlink:href="#linearGradient4215"
       gradientUnits="userSpaceOnUse" />
    <linearGradient
       x1="-10.187505"
       y1="68.374985"
       x2="-9.0000048"
       y2="69.999985"
       id="linearGradient4375"
       xlink:href="#linearGradient4227"
       gradientUnits="userSpaceOnUse" />
    <linearGradient
       x1="679.57141"
       y1="760.36218"
       x2="677.57141"
       y2="757.36218"
       id="linearGradient4388"
       xlink:href="#linearGradient4203"
       gradientUnits="userSpaceOnUse"
       gradientTransform="translate(37.999916,-6.0001725)" />
    <linearGradient
       x1="682.57141"
       y1="763.36218"
       x2="683.19641"
       y2="764.86218"
       id="linearGradient4394"
       xlink:href="#linearGradient4299"
       gradientUnits="userSpaceOnUse"
       gradientTransform="translate(-1398.1429,-9.8871875e-5)" />
    <linearGradient
       x1="679.57141"
       y1="760.36218"
       x2="677.57141"
       y2="757.36218"
       id="linearGradient4402"
       xlink:href="#linearGradient4404"
       gradientUnits="userSpaceOnUse"
       gradientTransform="translate(37.999916,-6.0001725)" />
    <linearGradient
       x1="709.57141"
       y1="747.36218"
       x2="716.57141"
       y2="754.36218"
       id="linearGradient4418"
       xlink:href="#linearGradient4412"
       gradientUnits="userSpaceOnUse" />
    <clipPath
       id="clipPath4434">
      <rect
         width="7"
         height="2"
         x="50"
         y="73"
         id="rect4436"
         style="fill:#0388ce;fill-opacity:1;fill-rule:evenodd;stroke:none" />
    </clipPath>
    <clipPath
       id="clipPath4444">
      <rect
         width="3"
         height="1"
         x="72.999992"
         y="73.999985"
         id="rect4446"
         style="fill:#0373af;fill-opacity:1;fill-rule:evenodd;stroke:none" />
    </clipPath>
    <linearGradient
       x1="679.57141"
       y1="760.36218"
       x2="677.57141"
       y2="757.36218"
       id="linearGradient4470"
       xlink:href="#linearGradient4404"
       gradientUnits="userSpaceOnUse"
       gradientTransform="translate(37.999916,-6.0001725)" />
    <linearGradient
       x1="709.57141"
       y1="747.36218"
       x2="716.57141"
       y2="754.36218"
       id="linearGradient4472"
       xlink:href="#linearGradient4412"
       gradientUnits="userSpaceOnUse" />
  </defs>
  <metadata
     id="metadata7">
    <rdf:RDF>
      <cc:Work
         rdf:about="">
        <dc:format>image/svg+xml</dc:format>
        <dc:type
           rdf:resource="http://purl.org/dc/dcmitype/StillImage" />
        <dc:title></dc:title>
      </cc:Work>
    </rdf:RDF>
  </metadata>
  <g
     transform="translate(-642.57141,-689.36218)"
     id="layer1">
    <rect
       width="128"
       height="56"
       x="-4.9999999e-006"
       y="-1.5e-005"
       transform="translate(642.57141,689.36218)"
       id="rect4117"
       style="fill:url(#linearGradient4199);fill-opacity:1;fill-rule:evenodd;stroke:none" />
    <rect
       width="128"
       height="32"
       x="642.57141"
       y="713.36218"
       id="rect4119"
       style="fill:#4d4d4d;fill-opacity:1;fill-rule:evenodd;stroke:none" />
    <rect
       width="11"
       height="10"
       x="641.57141"
       y="723.36218"
       id="rect4121"
       style="fill:url(#linearGradient4129);fill-opacity:1;fill-rule:evenodd;stroke:none" />
    <rect
       width="9"
       height="8"
       x="642.57141"
       y="724.36218"
       id="rect4131"
       style="fill:#4d4d4d;fill-opacity:1;fill-rule:evenodd;stroke:none" />
    <rect
       width="34"
       height="22"
       x="689.57141"
       y="723.36218"
       id="rect4147"
       style="fill:url(#linearGradient4155);fill-opacity:1;fill-rule:evenodd;stroke:none" />
    <rect
       width="32"
       height="21"
       x="690.57141"
       y="724.36218"
       id="rect4157"
       style="fill:#4d4d4d;fill-opacity:1;fill-rule:evenodd;stroke:none" />
    <path
       d="m 6.9999952,95.999985 a 2,2 0 1 1 -4,0 2,2 0 1 1 4,0 z"
       transform="translate(688.57139,631.36214)"
       id="path4133"
       style="fill:url(#linearGradient4141);fill-opacity:1;fill-rule:evenodd;stroke:none" />
    <path
       d="m 19.999994,95.999985 a 1,1 0 1 1 -2,0 1,1 0 1 1 2,0 z"
       transform="translate(674.57139,631.36214)"
       id="path4143"
       style="fill:#4d4d4d;fill-opacity:1;fill-rule:evenodd;stroke:none" />
    <path
       d="m 6.9999952,95.999985 a 2,2 0 1 1 -4,0 2,2 0 1 1 4,0 z"
       transform="translate(714.57139,631.36214)"
       id="path4159"
       style="fill:url(#linearGradient4163);fill-opacity:1;fill-rule:evenodd;stroke:none" />
    <path
       d="m 19.999994,95.999985 a 1,1 0 1 1 -2,0 1,1 0 1 1 2,0 z"
       transform="translate(700.57139,631.36214)"
       id="path4161"
       style="fill:#4d4d4d;fill-opacity:1;fill-rule:evenodd;stroke:none" />
    <path
       d="m 6.9999952,95.999985 a 2,2 0 1 1 -4,0 2,2 0 1 1 4,0 z"
       transform="translate(642.57139,632.36214)"
       id="path4165"
       style="fill:url(#linearGradient4169);fill-opacity:1;fill-rule:evenodd;stroke:none" />
    <path
       d="m 19.999994,95.999985 a 1,1 0 1 1 -2,0 1,1 0 1 1 2,0 z"
       transform="translate(628.57139,632.36214)"
       id="path4167"
       style="fill:#4d4d4d;fill-opacity:1;fill-rule:evenodd;stroke:none" />
    <rect
       width="11"
       height="10"
       x="-771.57141"
       y="723.36218"
       transform="scale(-1,1)"
       id="rect4171"
       style="fill:url(#linearGradient4179);fill-opacity:1;fill-rule:evenodd;stroke:none" />
    <rect
       width="9"
       height="8"
       x="-770.57141"
       y="724.36218"
       transform="scale(-1,1)"
       id="rect4173"
       style="fill:#4d4d4d;fill-opacity:1;fill-rule:evenodd;stroke:none" />
    <path
       d="m 6.9999952,95.999985 a 2,2 0 1 1 -4,0 2,2 0 1 1 4,0 z"
       transform="translate(760.57139,632.36214)"
       id="path4175"
       style="fill:url(#linearGradient4181);fill-opacity:1;fill-rule:evenodd;stroke:none" />
    <path
       d="m 19.999994,95.999985 a 1,1 0 1 1 -2,0 1,1 0 1 1 2,0 z"
       transform="translate(746.57139,632.36214)"
       id="path4177"
       style="fill:#4d4d4d;fill-opacity:1;fill-rule:evenodd;stroke:none" />
    <rect
       width="128"
       height="2"
       x="642.57141"
       y="716.36218"
       id="rect4183"
       style="fill:url(#linearGradient4191);fill-opacity:1;fill-rule:evenodd;stroke:none" />
    <rect
       width="17"
       height="13"
       x="651.57147"
       y="695.36224"
       id="rect4201"
       style="fill:url(#linearGradient4209);fill-opacity:1;fill-rule:evenodd;stroke:none" />
    <rect
       width="15"
       height="11"
       x="652.57147"
       y="696.36224"
       id="rect4211"
       style="fill:#38b9fe;fill-opacity:1;fill-rule:evenodd;stroke:none" />
    <path
       d="m 20.999994,68.999985 a 4,4 0 1 1 -8,0 4,4 0 1 1 8,0 z"
       transform="translate(642.57141,632.36218)"
       id="path4213"
       style="fill:url(#linearGradient4221);fill-opacity:1;fill-rule:evenodd;stroke:none" />
    <path
       d="m -7.0000048,69.499985 a 2.5,2.5 0 1 1 -5.0000002,0 2.5,2.5 0 1 1 5.0000002,0 z"
       transform="matrix(1.2,0,0,1.2000001,670.97141,617.96218)"
       id="path4223"
       style="fill:#38b9fe;fill-opacity:1;fill-rule:evenodd;stroke:none" />
    <path
       d="m -8.0000048,68.999985 a 2,2 0 1 1 -4.0000002,0 2,2 0 1 1 4.0000002,0 z"
       transform="translate(669.57141,632.36218)"
       id="path4225"
       style="fill:url(#linearGradient4233);fill-opacity:1;fill-rule:evenodd;stroke:none" />
    <g
       transform="translate(-6.9999898,-57.000009)"
       id="g4293">
      <rect
         width="2"
         height="15"
         x="683.57141"
         y="751.36218"
         id="rect4235"
         style="fill:#0186cd;fill-opacity:1;fill-rule:evenodd;stroke:none" />
      <rect
         width="1.9999988"
         height="15"
         x="684.57141"
         y="752.36218"
         clip-path="url(#clipPath4289)"
         id="rect4237"
         style="fill:#7ad0fe;fill-opacity:1;fill-rule:evenodd;stroke:none;filter:url(#filter4283)" />
    </g>
    <rect
       width="2"
       height="1"
       x="673.57147"
       y="707.36224"
       id="rect4309"
       style="fill:#0075b2;fill-opacity:1;fill-rule:evenodd;stroke:none" />
    <rect
       width="2"
       height="1"
       x="679.57147"
       y="707.36224"
       id="rect4311"
       style="fill:#0075b2;fill-opacity:1;fill-rule:evenodd;stroke:none" />
    <rect
       width="6"
       height="3"
       x="674.57147"
       y="705.36224"
       id="rect4297"
       style="fill:url(#linearGradient4305);fill-opacity:1;fill-rule:evenodd;stroke:none" />
    <rect
       width="4"
       height="1"
       x="675.57147"
       y="706.36224"
       id="rect4307"
       style="fill:#ff0000;fill-opacity:1;fill-rule:evenodd;stroke:none" />
    <rect
       width="2"
       height="1"
       x="679.57147"
       y="704.36224"
       id="rect4313"
       style="fill:#0075b2;fill-opacity:1;fill-rule:evenodd;stroke:none" />
    <rect
       width="2"
       height="1"
       x="673.57147"
       y="704.36224"
       id="rect4315"
       style="fill:#0075b2;fill-opacity:1;fill-rule:evenodd;stroke:none" />
    <rect
       width="2"
       height="1"
       x="673.57147"
       y="701.36224"
       id="rect4317"
       style="fill:#0075b2;fill-opacity:1;fill-rule:evenodd;stroke:none" />
    <rect
       width="2"
       height="1"
       x="679.57147"
       y="701.36224"
       id="rect4319"
       style="fill:#0075b2;fill-opacity:1;fill-rule:evenodd;stroke:none" />
    <rect
       width="2"
       height="1"
       x="679.57147"
       y="698.36224"
       id="rect4321"
       style="fill:#0075b2;fill-opacity:1;fill-rule:evenodd;stroke:none" />
    <rect
       width="2"
       height="1"
       x="673.57147"
       y="698.36224"
       id="rect4323"
       style="fill:#0075b2;fill-opacity:1;fill-rule:evenodd;stroke:none" />
    <rect
       width="2"
       height="1"
       x="673.57147"
       y="695.36224"
       id="rect4325"
       style="fill:#0075b2;fill-opacity:1;fill-rule:evenodd;stroke:none" />
    <rect
       width="2"
       height="1"
       x="679.57147"
       y="695.36224"
       id="rect4327"
       style="fill:#0075b2;fill-opacity:1;fill-rule:evenodd;stroke:none" />
    <g
       transform="translate(16.999994,-51.000018)"
       id="g4384">
      <rect
         width="17"
         height="13"
         x="708.57141"
         y="746.36218"
         id="rect4331"
         style="fill:url(#linearGradient4388);fill-opacity:1;fill-rule:evenodd;stroke:none" />
      <rect
         width="15"
         height="11"
         x="709.57141"
         y="747.36218"
         id="rect4333"
         style="fill:#38b9fe;fill-opacity:1;fill-rule:evenodd;stroke:none" />
    </g>
    <g
       transform="translate(0.99991928,-56.99991)"
       id="g4379">
      <path
         d="m 20.999994,68.999985 a 4,4 0 1 1 -8,0 4,4 0 1 1 8,0 z"
         transform="matrix(-1,0,0,1,749.57148,689.36209)"
         id="path4335"
         style="fill:url(#linearGradient4373);fill-opacity:1;fill-rule:evenodd;stroke:none" />
      <path
         d="m -7.0000048,69.499985 a 2.5,2.5 0 1 1 -5.0000002,0 2.5,2.5 0 1 1 5.0000002,0 z"
         transform="matrix(-1.2,0,0,1.2000001,721.17148,674.96209)"
         id="path4337"
         style="fill:#38b9fe;fill-opacity:1;fill-rule:evenodd;stroke:none" />
      <path
         d="m -8.0000048,68.999985 a 2,2 0 1 1 -4.0000002,0 2,2 0 1 1 4.0000002,0 z"
         transform="matrix(-1,0,0,1,722.57148,689.36209)"
         id="path4339"
         style="fill:url(#linearGradient4375);fill-opacity:1;fill-rule:evenodd;stroke:none" />
    </g>
    <g
       transform="translate(30.000078,-57.000099)"
       id="g4341">
      <rect
         width="2"
         height="15"
         x="683.57141"
         y="751.36218"
         id="rect4343"
         style="fill:#0186cd;fill-opacity:1;fill-rule:evenodd;stroke:none" />
      <rect
         width="1.9999988"
         height="15"
         x="684.57141"
         y="752.36218"
         clip-path="url(#clipPath4289)"
         id="rect4345"
         style="fill:#7ad0fe;fill-opacity:1;fill-rule:evenodd;stroke:none;filter:url(#filter4283)" />
    </g>
    <rect
       width="2"
       height="1"
       x="-718.57141"
       y="707.36218"
       transform="scale(-1,1)"
       id="rect4347"
       style="fill:#0075b2;fill-opacity:1;fill-rule:evenodd;stroke:none" />
    <rect
       width="2"
       height="1"
       x="-712.57141"
       y="707.36218"
       transform="scale(-1,1)"
       id="rect4349"
       style="fill:#0075b2;fill-opacity:1;fill-rule:evenodd;stroke:none" />
    <rect
       width="2"
       height="1"
       x="-712.57141"
       y="704.36218"
       transform="scale(-1,1)"
       id="rect4355"
       style="fill:#0075b2;fill-opacity:1;fill-rule:evenodd;stroke:none" />
    <rect
       width="2"
       height="1"
       x="-718.57141"
       y="704.36218"
       transform="scale(-1,1)"
       id="rect4357"
       style="fill:#0075b2;fill-opacity:1;fill-rule:evenodd;stroke:none" />
    <rect
       width="2"
       height="1"
       x="-718.57141"
       y="701.36218"
       transform="scale(-1,1)"
       id="rect4359"
       style="fill:#0075b2;fill-opacity:1;fill-rule:evenodd;stroke:none" />
    <rect
       width="2"
       height="1"
       x="-712.57141"
       y="701.36218"
       transform="scale(-1,1)"
       id="rect4361"
       style="fill:#0075b2;fill-opacity:1;fill-rule:evenodd;stroke:none" />
    <rect
       width="2"
       height="1"
       x="-712.57141"
       y="698.36218"
       transform="scale(-1,1)"
       id="rect4363"
       style="fill:#0075b2;fill-opacity:1;fill-rule:evenodd;stroke:none" />
    <rect
       width="2"
       height="1"
       x="-718.57141"
       y="698.36218"
       transform="scale(-1,1)"
       id="rect4365"
       style="fill:#0075b2;fill-opacity:1;fill-rule:evenodd;stroke:none" />
    <rect
       width="2"
       height="1"
       x="-718.57141"
       y="695.36218"
       transform="scale(-1,1)"
       id="rect4367"
       style="fill:#0075b2;fill-opacity:1;fill-rule:evenodd;stroke:none" />
    <rect
       width="2"
       height="1"
       x="-712.57141"
       y="695.36218"
       transform="scale(-1,1)"
       id="rect4369"
       style="fill:#0075b2;fill-opacity:1;fill-rule:evenodd;stroke:none" />
    <g
       transform="matrix(-1,0,0,1,1429.1428,-65.000018)"
       id="g4390">
      <rect
         width="6"
         height="3"
         x="-717.57141"
         y="762.36218"
         transform="scale(-1,1)"
         id="rect4351"
         style="fill:url(#linearGradient4394);fill-opacity:1;fill-rule:evenodd;stroke:none" />
      <rect
         width="4"
         height="1"
         x="-716.57141"
         y="763.36218"
         transform="scale(-1,1)"
         id="rect4353"
         style="fill:#ff0000;fill-opacity:1;fill-rule:evenodd;stroke:none" />
    </g>
    <g
       transform="translate(-22.000005,-51.000002)"
       id="g4396">
      <rect
         width="19"
         height="13"
         x="708.57141"
         y="746.36218"
         id="rect4398"
         style="fill:url(#linearGradient4402);fill-opacity:1;fill-rule:evenodd;stroke:none" />
      <rect
         width="17"
         height="11"
         x="709.57141"
         y="747.36218"
         id="rect4400"
         style="fill:url(#linearGradient4418);fill-opacity:1;fill-rule:evenodd;stroke:none" />
    </g>
    <rect
       width="1"
       height="3"
       x="695.57141"
       y="697.36218"
       id="rect4420"
       style="fill:#0388ce;fill-opacity:1;fill-rule:evenodd;stroke:none" />
    <rect
       width="1"
       height="3"
       x="263.23886"
       y="946.97101"
       transform="matrix(0.87329858,-0.48718538,0.48718538,0.87329858,0,0)"
       id="rect4422"
       style="fill:#0388ce;fill-opacity:1;fill-rule:evenodd;stroke:none" />
    <rect
       width="1.0000041"
       height="2.0028334"
       x="-21.800285"
       y="983.11554"
       transform="matrix(0.70319103,-0.71100096,0.71585088,0.69825319,0,0)"
       id="rect4424"
       style="fill:#0388ce;fill-opacity:1;fill-rule:evenodd;stroke:none" />
    <rect
       width="1"
       height="3"
       x="-952.51758"
       y="268.73941"
       transform="matrix(-0.87329858,-0.48718538,-0.48718538,0.87329858,0,0)"
       id="rect4426"
       style="fill:#0388ce;fill-opacity:1;fill-rule:evenodd;stroke:none" />
    <rect
       width="1.0000041"
       height="2.0028334"
       x="-993.89185"
       y="-6.7229328"
       transform="matrix(-0.70319103,-0.71100096,-0.71585088,0.69825319,0,0)"
       id="rect4428"
       style="fill:#ce0202;fill-opacity:1;fill-rule:evenodd;stroke:none" />
    <path
       d="m 55.999996,74.999985 a 2.5,2 0 1 1 -5,0 2.5,2 0 1 1 5,0 z"
       transform="translate(642.57141,632.36216)"
       clip-path="url(#clipPath4434)"
       id="path4430"
       style="fill:#0388ce;fill-opacity:1;fill-rule:evenodd;stroke:none" />
    <rect
       width="1"
       height="8"
       x="990.68671"
       y="-48.899471"
       transform="matrix(0.67151943,0.74098695,-0.74098695,0.67151943,0,0)"
       id="rect4438"
       style="fill:#0373af;fill-opacity:1;fill-rule:evenodd;stroke:none" />
    <path
       d="m 75.999992,74.999985 a 1.5,1 0 1 1 -3,0 1.5,1 0 1 1 3,0 z"
       transform="translate(621.57141,632.36221)"
       clip-path="url(#clipPath4444)"
       id="path4440"
       style="fill:#0373af;fill-opacity:1;fill-rule:evenodd;stroke:none" />
    <g
       transform="translate(35.999909,-51.000126)"
       id="g4448">
      <rect
         width="19"
         height="13"
         x="708.57141"
         y="746.36218"
         id="rect4450"
         style="fill:url(#linearGradient4470);fill-opacity:1;fill-rule:evenodd;stroke:none" />
      <rect
         width="17"
         height="11"
         x="709.57141"
         y="747.36218"
         id="rect4452"
         style="fill:url(#linearGradient4472);fill-opacity:1;fill-rule:evenodd;stroke:none" />
    </g>
    <rect
       width="1"
       height="3"
       x="753.57135"
       y="697.36206"
       id="rect4454"
       style="fill:#0388ce;fill-opacity:1;fill-rule:evenodd;stroke:none" />
    <rect
       width="1"
       height="3"
       x="313.89017"
       y="975.2276"
       transform="matrix(0.87329858,-0.48718538,0.48718538,0.87329858,0,0)"
       id="rect4456"
       style="fill:#0388ce;fill-opacity:1;fill-rule:evenodd;stroke:none" />
    <rect
       width="1.0000041"
       height="2.0028334"
       x="18.699398"
       y="1024.3544"
       transform="matrix(0.70319103,-0.71100096,0.71585088,0.69825319,0,0)"
       id="rect4458"
       style="fill:#0388ce;fill-opacity:1;fill-rule:evenodd;stroke:none" />
    <rect
       width="1"
       height="3"
       x="-1003.1688"
       y="240.48259"
       transform="matrix(-0.87329858,-0.48718538,-0.48718538,0.87329858,0,0)"
       id="rect4460"
       style="fill:#0388ce;fill-opacity:1;fill-rule:evenodd;stroke:none" />
    <rect
       width="1.0000041"
       height="2.0028334"
       x="-1034.3914"
       y="-47.962002"
       transform="matrix(-0.70319103,-0.71100096,-0.71585088,0.69825319,0,0)"
       id="rect4462"
       style="fill:#ce0202;fill-opacity:1;fill-rule:evenodd;stroke:none" />
    <path
       d="m 55.999996,74.999985 a 2.5,2 0 1 1 -5,0 2.5,2 0 1 1 5,0 z"
       transform="translate(700.57132,632.36204)"
       clip-path="url(#clipPath4434)"
       id="path4464"
       style="fill:#0388ce;fill-opacity:1;fill-rule:evenodd;stroke:none" />
    <rect
       width="1"
       height="8"
       x="307.29468"
       y="978.91272"
       transform="matrix(0.87017017,-0.49275134,0.49275134,0.87017017,0,0)"
       id="rect4466"
       style="fill:#0373af;fill-opacity:1;fill-rule:evenodd;stroke:none" />
    <path
       d="m 75.999992,74.999985 a 1.5,1 0 1 1 -3,0 1.5,1 0 1 1 3,0 z"
       transform="translate(679.57132,632.36209)"
       clip-path="url(#clipPath4444)"
       id="path4468"
       style="fill:#0373af;fill-opacity:1;fill-rule:evenodd;stroke:none" />
  </g>
</svg>
