<?xml version="1.0" encoding="UTF-8" standalone="no"?>
<svg
   xmlns:dc="http://purl.org/dc/elements/1.1/"
   xmlns:cc="http://creativecommons.org/ns#"
   xmlns:rdf="http://www.w3.org/1999/02/22-rdf-syntax-ns#"
   xmlns:svg="http://www.w3.org/2000/svg"
   xmlns="http://www.w3.org/2000/svg"
   xmlns:xlink="http://www.w3.org/1999/xlink"
   version="1.1"
   id="svg2"
   height="48"
   width="64">
  <defs
     id="defs4">
    <linearGradient
       id="linearGradient4630">
      <stop
         id="stop4632"
         offset="0"
         style="stop-color:#000000;stop-opacity:0.2" />
      <stop
         id="stop4634"
         offset="1"
         style="stop-color:#000000;stop-opacity:0;" />
    </linearGradient>
    <linearGradient
       id="linearGradient4618">
      <stop
         id="stop4620"
         offset="0"
         style="stop-color:#019cef;stop-opacity:1" />
      <stop
         id="stop4622"
         offset="1"
         style="stop-color:#7ad0fe;stop-opacity:1" />
    </linearGradient>
    <linearGradient
       id="linearGradient4544">
      <stop
         id="stop4546"
         offset="0"
         style="stop-color:#01679e;stop-opacity:1" />
      <stop
         id="stop4548"
         offset="1"
         style="stop-color:#0183c9;stop-opacity:1" />
    </linearGradient>
    <clipPath
       id="clipPath4289"
       clipPathUnits="userSpaceOnUse">
      <rect
         y="751.36218"
         x="683.57141"
         height="15"
         width="2"
         id="rect4291"
         style="fill:#7ad0fe;fill-opacity:1;fill-rule:evenodd;stroke:none" />
    </clipPath>
    <clipPath
       id="clipPath4434"
       clipPathUnits="userSpaceOnUse">
      <rect
         y="73"
         x="50"
         height="2"
         width="7"
         id="rect4436"
         style="fill:#0388ce;fill-opacity:1;fill-rule:evenodd;stroke:none" />
    </clipPath>
    <clipPath
       id="clipPath4444"
       clipPathUnits="userSpaceOnUse">
      <rect
         y="73.999985"
         x="72.999992"
         height="1"
         width="3"
         id="rect4446"
         style="fill:#0373af;fill-opacity:1;fill-rule:evenodd;stroke:none" />
    </clipPath>
    <linearGradient
       gradientUnits="userSpaceOnUse"
       y2="-47.000019"
       x2="0.99998999"
       y1="-45.000019"
       x1="2.99999"
       id="linearGradient4550"
       xlink:href="#linearGradient4544" />
    <linearGradient
       y2="-47.000019"
       x2="0.99998999"
       y1="-45.000019"
       x1="2.99999"
       gradientUnits="userSpaceOnUse"
       id="linearGradient4554"
       xlink:href="#linearGradient4544" />
    <linearGradient
       y2="-47.000019"
       x2="0.99998999"
       y1="-45.000019"
       x1="2.99999"
       gradientUnits="userSpaceOnUse"
       id="linearGradient4558"
       xlink:href="#linearGradient4544" />
    <linearGradient
       y2="-47.000019"
       x2="0.99998999"
       y1="-45.000019"
       x1="2.99999"
       gradientUnits="userSpaceOnUse"
       id="linearGradient4562"
       xlink:href="#linearGradient4544" />
    <linearGradient
       y2="-47.000019"
       x2="0.99998999"
       y1="-45.000019"
       x1="2.99999"
       gradientUnits="userSpaceOnUse"
       id="linearGradient4566"
       xlink:href="#linearGradient4544" />
    <linearGradient
       y2="-47.000019"
       x2="0.99998999"
       y1="-45.000019"
       x1="2.99999"
       gradientUnits="userSpaceOnUse"
       id="linearGradient4570"
       xlink:href="#linearGradient4544" />
    <linearGradient
       y2="-47.000019"
       x2="0.99998999"
       y1="-45.000019"
       x1="2.99999"
       gradientUnits="userSpaceOnUse"
       id="linearGradient4574"
       xlink:href="#linearGradient4544" />
    <linearGradient
       y2="-47.000019"
       x2="0.99998999"
       y1="-45.000019"
       x1="2.99999"
       gradientUnits="userSpaceOnUse"
       id="linearGradient4578"
       xlink:href="#linearGradient4544" />
    <linearGradient
       y2="-47.000019"
       x2="0.99998999"
       y1="-45.000019"
       x1="2.99999"
       gradientUnits="userSpaceOnUse"
       id="linearGradient4582"
       xlink:href="#linearGradient4544" />
    <linearGradient
       y2="-47.000019"
       x2="0.99998999"
       y1="-45.000019"
       x1="2.99999"
       gradientUnits="userSpaceOnUse"
       id="linearGradient4586"
       xlink:href="#linearGradient4544" />
    <linearGradient
       y2="-47.000019"
       x2="0.99998999"
       y1="-45.000019"
       x1="2.99999"
       gradientUnits="userSpaceOnUse"
       id="linearGradient4590"
       xlink:href="#linearGradient4544" />
    <linearGradient
       y2="-47.000019"
       x2="0.99998999"
       y1="-45.000019"
       x1="2.99999"
       gradientUnits="userSpaceOnUse"
       id="linearGradient4594"
       xlink:href="#linearGradient4544" />
    <linearGradient
       y2="-47.000019"
       x2="0.99998999"
       y1="-45.000019"
       x1="2.99999"
       gradientUnits="userSpaceOnUse"
       id="linearGradient4598"
       xlink:href="#linearGradient4544" />
    <linearGradient
       y2="-47.000019"
       x2="0.99998999"
       y1="-45.000019"
       x1="2.99999"
       gradientUnits="userSpaceOnUse"
       id="linearGradient4602"
       xlink:href="#linearGradient4544" />
    <linearGradient
       y2="-47.000019"
       x2="0.99998999"
       y1="-45.000019"
       x1="2.99999"
       gradientUnits="userSpaceOnUse"
       id="linearGradient4606"
       xlink:href="#linearGradient4544" />
    <linearGradient
       y2="-47.000019"
       x2="0.99998999"
       y1="-45.000019"
       x1="2.99999"
       gradientUnits="userSpaceOnUse"
       id="linearGradient4610"
       xlink:href="#linearGradient4544" />
    <linearGradient
       y2="-47.000019"
       x2="0.99998999"
       y1="-45.000019"
       x1="2.99999"
       gradientUnits="userSpaceOnUse"
       id="linearGradient4614"
       xlink:href="#linearGradient4544" />
    <linearGradient
       gradientTransform="translate(541.57139,674.36214)"
       gradientUnits="userSpaceOnUse"
       y2="-20.000019"
       x2="6.99999"
       y1="-20.000019"
       x1="56.999989"
       id="linearGradient4624"
       xlink:href="#linearGradient4618" />
    <linearGradient
       gradientUnits="userSpaceOnUse"
       y2="7.99998"
       x2="31.99999"
       y1="5.99998"
       x1="31.99999"
       id="linearGradient4636"
       xlink:href="#linearGradient4630" />
    <filter
       id="filter4672">
      <feGaussianBlur
         id="feGaussianBlur4674"
         stdDeviation="0.69985937" />
    </filter>
  </defs>
  <metadata
     id="metadata7">
    <rdf:RDF>
      <cc:Work
         rdf:about="">
        <dc:format>image/svg+xml</dc:format>
        <dc:type
           rdf:resource="http://purl.org/dc/dcmitype/StillImage" />
        <dc:title></dc:title>
      </cc:Work>
    </rdf:RDF>
  </metadata>
  <g
     transform="translate(-541.57141,-625.36218)"
     id="layer1">
    <rect
       y="625.36218"
       x="541.57141"
       height="48"
       width="64"
       id="rect4530"
       style="fill:#38b9fe;fill-opacity:1;fill-rule:evenodd;stroke:none" />
    <rect
       y="630.36218"
       x="547.57141"
       height="43"
       width="52"
       id="rect4616"
       style="fill:url(#linearGradient4624);fill-opacity:1;fill-rule:evenodd;stroke:none" />
    <rect
       transform="translate(541.57141,625.36218)"
       y="-1.9999999e-005"
       x="-9.9999997e-006"
       height="6"
       width="64"
       id="rect4540"
       style="fill:#0191de;fill-opacity:1;fill-rule:evenodd;stroke:none" />
    <path
       transform="translate(541.57141,674.36218)"
       d="m 2.99999,-46.000019 a 1,1 0 0 1 -1,1 1,1 0 0 1 -1.00000001,-1 1,1 0 0 1 1.00000001,-1 1,1 0 0 1 1,1 z"
       id="path4542"
       style="fill:url(#linearGradient4550);fill-opacity:1;fill-rule:evenodd;stroke:none" />
    <path
       style="fill:url(#linearGradient4554);fill-opacity:1;fill-rule:evenodd;stroke:none"
       id="path4552"
       d="m 2.99999,-46.000019 a 1,1 0 0 1 -1,1 1,1 0 0 1 -1.00000001,-1 1,1 0 0 1 1.00000001,-1 1,1 0 0 1 1,1 z"
       transform="translate(545.57141,674.36218)" />
    <path
       transform="translate(549.57141,674.36218)"
       d="m 2.99999,-46.000019 a 1,1 0 0 1 -1,1 1,1 0 0 1 -1.00000001,-1 1,1 0 0 1 1.00000001,-1 1,1 0 0 1 1,1 z"
       id="path4556"
       style="fill:url(#linearGradient4558);fill-opacity:1;fill-rule:evenodd;stroke:none" />
    <path
       style="fill:url(#linearGradient4562);fill-opacity:1;fill-rule:evenodd;stroke:none"
       id="path4560"
       d="m 2.99999,-46.000019 a 1,1 0 0 1 -1,1 1,1 0 0 1 -1.00000001,-1 1,1 0 0 1 1.00000001,-1 1,1 0 0 1 1,1 z"
       transform="translate(553.57141,674.36218)" />
    <path
       transform="translate(557.57141,674.36218)"
       d="m 2.99999,-46.000019 a 1,1 0 0 1 -1,1 1,1 0 0 1 -1.00000001,-1 1,1 0 0 1 1.00000001,-1 1,1 0 0 1 1,1 z"
       id="path4564"
       style="fill:url(#linearGradient4566);fill-opacity:1;fill-rule:evenodd;stroke:none" />
    <path
       style="fill:url(#linearGradient4570);fill-opacity:1;fill-rule:evenodd;stroke:none"
       id="path4568"
       d="m 2.99999,-46.000019 a 1,1 0 0 1 -1,1 1,1 0 0 1 -1.00000001,-1 1,1 0 0 1 1.00000001,-1 1,1 0 0 1 1,1 z"
       transform="translate(561.57141,674.36218)" />
    <path
       transform="translate(565.57141,674.36218)"
       d="m 2.99999,-46.000019 a 1,1 0 0 1 -1,1 1,1 0 0 1 -1.00000001,-1 1,1 0 0 1 1.00000001,-1 1,1 0 0 1 1,1 z"
       id="path4572"
       style="fill:url(#linearGradient4574);fill-opacity:1;fill-rule:evenodd;stroke:none" />
    <path
       style="fill:url(#linearGradient4578);fill-opacity:1;fill-rule:evenodd;stroke:none"
       id="path4576"
       d="m 2.99999,-46.000019 a 1,1 0 0 1 -1,1 1,1 0 0 1 -1.00000001,-1 1,1 0 0 1 1.00000001,-1 1,1 0 0 1 1,1 z"
       transform="translate(569.57141,674.36218)" />
    <path
       transform="translate(573.57141,674.36218)"
       d="m 2.99999,-46.000019 a 1,1 0 0 1 -1,1 1,1 0 0 1 -1.00000001,-1 1,1 0 0 1 1.00000001,-1 1,1 0 0 1 1,1 z"
       id="path4580"
       style="fill:url(#linearGradient4582);fill-opacity:1;fill-rule:evenodd;stroke:none" />
    <path
       style="fill:url(#linearGradient4586);fill-opacity:1;fill-rule:evenodd;stroke:none"
       id="path4584"
       d="m 2.99999,-46.000019 a 1,1 0 0 1 -1,1 1,1 0 0 1 -1.00000001,-1 1,1 0 0 1 1.00000001,-1 1,1 0 0 1 1,1 z"
       transform="translate(577.57141,674.36218)" />
    <path
       transform="translate(581.57141,674.36218)"
       d="m 2.99999,-46.000019 a 1,1 0 0 1 -1,1 1,1 0 0 1 -1.00000001,-1 1,1 0 0 1 1.00000001,-1 1,1 0 0 1 1,1 z"
       id="path4588"
       style="fill:url(#linearGradient4590);fill-opacity:1;fill-rule:evenodd;stroke:none" />
    <path
       style="fill:url(#linearGradient4594);fill-opacity:1;fill-rule:evenodd;stroke:none"
       id="path4592"
       d="m 2.99999,-46.000019 a 1,1 0 0 1 -1,1 1,1 0 0 1 -1.00000001,-1 1,1 0 0 1 1.00000001,-1 1,1 0 0 1 1,1 z"
       transform="translate(585.57141,674.36218)" />
    <path
       transform="translate(589.57141,674.36218)"
       d="m 2.99999,-46.000019 a 1,1 0 0 1 -1,1 1,1 0 0 1 -1.00000001,-1 1,1 0 0 1 1.00000001,-1 1,1 0 0 1 1,1 z"
       id="path4596"
       style="fill:url(#linearGradient4598);fill-opacity:1;fill-rule:evenodd;stroke:none" />
    <path
       style="fill:url(#linearGradient4602);fill-opacity:1;fill-rule:evenodd;stroke:none"
       id="path4600"
       d="m 2.99999,-46.000019 a 1,1 0 0 1 -1,1 1,1 0 0 1 -1.00000001,-1 1,1 0 0 1 1.00000001,-1 1,1 0 0 1 1,1 z"
       transform="translate(593.57141,674.36218)" />
    <path
       transform="translate(597.57141,674.36218)"
       d="m 2.99999,-46.000019 a 1,1 0 0 1 -1,1 1,1 0 0 1 -1.00000001,-1 1,1 0 0 1 1.00000001,-1 1,1 0 0 1 1,1 z"
       id="path4604"
       style="fill:url(#linearGradient4606);fill-opacity:1;fill-rule:evenodd;stroke:none" />
    <path
       style="fill:url(#linearGradient4610);fill-opacity:1;fill-rule:evenodd;stroke:none"
       id="path4608"
       d="m 2.99999,-46.000019 a 1,1 0 0 1 -1,1 1,1 0 0 1 -1.00000001,-1 1,1 0 0 1 1.00000001,-1 1,1 0 0 1 1,1 z"
       transform="translate(601.57141,674.36218)" />
    <path
       transform="translate(601.57141,674.36218)"
       d="m 2.99999,-46.000019 a 1,1 0 0 1 -1,1 1,1 0 0 1 -1.00000001,-1 1,1 0 0 1 1.00000001,-1 1,1 0 0 1 1,1 z"
       id="path4612"
       style="fill:url(#linearGradient4614);fill-opacity:1;fill-rule:evenodd;stroke:none" />
    <rect
       y="631.36218"
       x="548.57141"
       height="42"
       width="50"
       id="rect4626"
       style="fill:#0aa6fe;fill-opacity:1;fill-rule:evenodd;stroke:none" />
    <rect
       transform="translate(541.57141,625.36218)"
       y="5.99998"
       x="-9.9999997e-006"
       height="2"
       width="64"
       id="rect4628"
       style="fill:url(#linearGradient4636);fill-opacity:1;fill-rule:evenodd;stroke:none" />
    <path
       style="fill:#5d5d5d;fill-opacity:1;stroke:none;filter:url(#filter4672)"
       d="m 570.54024,663.36216 -12.96884,-12.47159 12.88384,-12.54832 0.085,7.01991 18,0 0,11 -18,0 z"
       id="path4650" />
    <path
       id="path4644"
       d="m 569.57139,662.38205 -12.96884,-12.47159 12.88384,-12.54832 0.085,7.01991 18,0 0,11 -18,0 z"
       style="fill:#ff8401;fill-opacity:1;stroke:none" />
  </g>
</svg>
