<?xml version="1.0" encoding="UTF-8" standalone="no"?>
<svg
   xmlns:dc="http://purl.org/dc/elements/1.1/"
   xmlns:cc="http://creativecommons.org/ns#"
   xmlns:rdf="http://www.w3.org/1999/02/22-rdf-syntax-ns#"
   xmlns:svg="http://www.w3.org/2000/svg"
   xmlns="http://www.w3.org/2000/svg"
   xmlns:xlink="http://www.w3.org/1999/xlink"
   id="svg2"
   height="56"
   width="128"
   version="1.1">
  <defs
     id="defs4">
    <linearGradient
       id="linearGradient4412">
      <stop
         offset="0"
         style="stop-color:#03a6ce;stop-opacity:1"
         id="stop4414" />
      <stop
         offset="1"
         style="stop-color:#3abbce;stop-opacity:1"
         id="stop4416" />
    </linearGradient>
    <linearGradient
       id="linearGradient4404">
      <stop
         offset="0"
         style="stop-color:#7ad0fe;stop-opacity:1"
         id="stop4406" />
      <stop
         offset="1"
         style="stop-color:#0186cd;stop-opacity:1"
         id="stop4408" />
    </linearGradient>
    <linearGradient
       id="linearGradient4299">
      <stop
         offset="0"
         style="stop-color:#7ad0fe;stop-opacity:1"
         id="stop4301" />
      <stop
         offset="1"
         style="stop-color:#0186cd;stop-opacity:1"
         id="stop4303" />
    </linearGradient>
    <linearGradient
       id="linearGradient4227">
      <stop
         offset="0"
         style="stop-color:#ff7979;stop-opacity:1"
         id="stop4229" />
      <stop
         offset="1"
         style="stop-color:#ff0000;stop-opacity:1"
         id="stop4231" />
    </linearGradient>
    <linearGradient
       id="linearGradient4215">
      <stop
         offset="0"
         style="stop-color:#0186cd;stop-opacity:1"
         id="stop4217" />
      <stop
         offset="1"
         style="stop-color:#7ad0fe;stop-opacity:1"
         id="stop4219" />
    </linearGradient>
    <linearGradient
       id="linearGradient4203">
      <stop
         offset="0"
         style="stop-color:#019cef;stop-opacity:1"
         id="stop4205" />
      <stop
         offset="1"
         style="stop-color:#7ad0fe;stop-opacity:1"
         id="stop4207" />
    </linearGradient>
    <linearGradient
       id="linearGradient4193">
      <stop
         offset="0"
         style="stop-color:#4d4d4d;stop-opacity:1"
         id="stop4195" />
      <stop
         offset="1"
         style="stop-color:#0aa6fe;stop-opacity:1"
         id="stop4197" />
    </linearGradient>
    <linearGradient
       id="linearGradient4185">
      <stop
         offset="0"
         style="stop-color:#ff8401;stop-opacity:1"
         id="stop4187" />
      <stop
         offset="1"
         style="stop-color:#da7100;stop-opacity:1"
         id="stop4189" />
    </linearGradient>
    <linearGradient
       id="linearGradient4149">
      <stop
         offset="0"
         style="stop-color:#000000;stop-opacity:1"
         id="stop4151" />
      <stop
         offset="1"
         style="stop-color:#808080;stop-opacity:1"
         id="stop4153" />
    </linearGradient>
    <linearGradient
       id="linearGradient4135">
      <stop
         offset="0"
         style="stop-color:#000000;stop-opacity:1"
         id="stop4137" />
      <stop
         offset="1"
         style="stop-color:#808080;stop-opacity:1"
         id="stop4139" />
    </linearGradient>
    <linearGradient
       id="linearGradient4123">
      <stop
         offset="0"
         style="stop-color:#000000;stop-opacity:1"
         id="stop4125" />
      <stop
         offset="1"
         style="stop-color:#808080;stop-opacity:1"
         id="stop4127" />
    </linearGradient>
    <linearGradient
       gradientTransform="translate(-14.000011,-57.000035)"
       gradientUnits="userSpaceOnUse"
       xlink:href="#linearGradient4123"
       id="linearGradient4129"
       y2="781.36218"
       x2="660.57141"
       y1="782.36218"
       x1="660.57141" />
    <linearGradient
       gradientUnits="userSpaceOnUse"
       xlink:href="#linearGradient4135"
       id="linearGradient4141"
       y2="94.999985"
       x2="3.999995"
       y1="96.999985"
       x1="5.9999952" />
    <linearGradient
       gradientTransform="translate(642.57137,632.3621)"
       gradientUnits="userSpaceOnUse"
       xlink:href="#linearGradient4149"
       id="linearGradient4155"
       y2="92.999985"
       x2="55.999996"
       y1="110.99998"
       x1="81.999992" />
    <linearGradient
       gradientUnits="userSpaceOnUse"
       xlink:href="#linearGradient4135"
       id="linearGradient4163"
       y2="94.999985"
       x2="3.999995"
       y1="96.999985"
       x1="5.9999952" />
    <linearGradient
       gradientUnits="userSpaceOnUse"
       xlink:href="#linearGradient4135"
       id="linearGradient4169"
       y2="94.999985"
       x2="3.999995"
       y1="96.999985"
       x1="5.9999952" />
    <linearGradient
       gradientTransform="translate(-1427.1428,-57.000033)"
       gradientUnits="userSpaceOnUse"
       xlink:href="#linearGradient4123"
       id="linearGradient4179"
       y2="781.36218"
       x2="662.57141"
       y1="788.36218"
       x1="656.57141" />
    <linearGradient
       gradientUnits="userSpaceOnUse"
       xlink:href="#linearGradient4135"
       id="linearGradient4181"
       y2="94.999985"
       x2="3.999995"
       y1="96.999985"
       x1="5.9999952" />
    <linearGradient
       gradientTransform="translate(642.57138,632.36212)"
       gradientUnits="userSpaceOnUse"
       xlink:href="#linearGradient4185"
       id="linearGradient4191"
       y2="85.204491"
       x2="103.99999"
       y1="84.353539"
       x1="103.99999" />
    <linearGradient
       gradientUnits="userSpaceOnUse"
       xlink:href="#linearGradient4193"
       id="linearGradient4199"
       y2="21.999985"
       x2="62.999996"
       y1="24.999985"
       x1="62.999996" />
    <linearGradient
       gradientTransform="translate(-19.000006,-57.000065)"
       gradientUnits="userSpaceOnUse"
       xlink:href="#linearGradient4203"
       id="linearGradient4209"
       y2="757.36218"
       x2="677.57141"
       y1="760.36218"
       x1="679.57141" />
    <linearGradient
       gradientUnits="userSpaceOnUse"
       xlink:href="#linearGradient4215"
       id="linearGradient4221"
       y2="66.999985"
       x2="14.999995"
       y1="70.999985"
       x1="18.999994" />
    <linearGradient
       gradientUnits="userSpaceOnUse"
       xlink:href="#linearGradient4227"
       id="linearGradient4233"
       y2="69.999985"
       x2="-9.0000048"
       y1="68.374985"
       x1="-10.187505" />
    <filter
       id="filter4283"
       color-interpolation-filters="sRGB"
       height="1.0816"
       width="1.6120003"
       y="-0.040799998"
       x="-0.30600017">
      <feGaussianBlur
         stdDeviation="0.25499998"
         id="feGaussianBlur4285" />
    </filter>
    <clipPath
       id="clipPath4289">
      <rect
         style="fill:#7ad0fe;fill-opacity:1;fill-rule:evenodd;stroke:none"
         id="rect4291"
         y="751.36218"
         x="683.57141"
         height="15"
         width="2" />
    </clipPath>
    <linearGradient
       gradientTransform="translate(-5.9999898,-57.000009)"
       gradientUnits="userSpaceOnUse"
       xlink:href="#linearGradient4299"
       id="linearGradient4305"
       y2="764.86218"
       x2="683.19641"
       y1="763.36218"
       x1="682.57141" />
    <linearGradient
       gradientUnits="userSpaceOnUse"
       xlink:href="#linearGradient4215"
       id="linearGradient4373"
       y2="66.999985"
       x2="14.999995"
       y1="70.999985"
       x1="18.999994" />
    <linearGradient
       gradientUnits="userSpaceOnUse"
       xlink:href="#linearGradient4227"
       id="linearGradient4375"
       y2="69.999985"
       x2="-9.0000048"
       y1="68.374985"
       x1="-10.187505" />
    <linearGradient
       gradientTransform="translate(37.999916,-6.0001725)"
       gradientUnits="userSpaceOnUse"
       xlink:href="#linearGradient4203"
       id="linearGradient4388"
       y2="757.36218"
       x2="677.57141"
       y1="760.36218"
       x1="679.57141" />
    <linearGradient
       gradientTransform="translate(-1398.1429,-9.8871875e-5)"
       gradientUnits="userSpaceOnUse"
       xlink:href="#linearGradient4299"
       id="linearGradient4394"
       y2="764.86218"
       x2="683.19641"
       y1="763.36218"
       x1="682.57141" />
    <linearGradient
       gradientTransform="translate(37.999916,-6.0001725)"
       gradientUnits="userSpaceOnUse"
       xlink:href="#linearGradient4404"
       id="linearGradient4402"
       y2="757.36218"
       x2="677.57141"
       y1="760.36218"
       x1="679.57141" />
    <linearGradient
       gradientUnits="userSpaceOnUse"
       xlink:href="#linearGradient4412"
       id="linearGradient4418"
       y2="754.36218"
       x2="716.57141"
       y1="747.36218"
       x1="709.57141" />
    <clipPath
       id="clipPath4434">
      <rect
         style="fill:#0388ce;fill-opacity:1;fill-rule:evenodd;stroke:none"
         id="rect4436"
         y="73"
         x="50"
         height="2"
         width="7" />
    </clipPath>
    <clipPath
       id="clipPath4444">
      <rect
         style="fill:#0373af;fill-opacity:1;fill-rule:evenodd;stroke:none"
         id="rect4446"
         y="73.999985"
         x="72.999992"
         height="1"
         width="3" />
    </clipPath>
    <linearGradient
       gradientTransform="translate(37.999916,-6.0001725)"
       gradientUnits="userSpaceOnUse"
       xlink:href="#linearGradient4404"
       id="linearGradient4470"
       y2="757.36218"
       x2="677.57141"
       y1="760.36218"
       x1="679.57141" />
    <linearGradient
       gradientUnits="userSpaceOnUse"
       xlink:href="#linearGradient4412"
       id="linearGradient4472"
       y2="754.36218"
       x2="716.57141"
       y1="747.36218"
       x1="709.57141" />
  </defs>
  <metadata
     id="metadata7">
    <rdf:RDF>
      <cc:Work
         rdf:about="">
        <dc:format>image/svg+xml</dc:format>
        <dc:type
           rdf:resource="http://purl.org/dc/dcmitype/StillImage" />
        <dc:title></dc:title>
      </cc:Work>
    </rdf:RDF>
  </metadata>
  <g
     id="layer1"
     transform="translate(-642.57141,-689.36218)">
    <rect
       transform="translate(642.57141,689.36218)"
       style="fill:url(#linearGradient4199);fill-opacity:1;fill-rule:evenodd;stroke:none"
       id="rect4117"
       y="-1.5e-005"
       x="-4.9999999e-006"
       height="56"
       width="128" />
    <rect
       style="fill:#4d4d4d;fill-opacity:1;fill-rule:evenodd;stroke:none"
       id="rect4119"
       y="713.36218"
       x="642.57141"
       height="32"
       width="128" />
    <rect
       style="fill:url(#linearGradient4129);fill-opacity:1;fill-rule:evenodd;stroke:none"
       id="rect4121"
       y="723.36218"
       x="641.57141"
       height="10"
       width="11" />
    <rect
       style="fill:#4d4d4d;fill-opacity:1;fill-rule:evenodd;stroke:none"
       id="rect4131"
       y="724.36218"
       x="642.57141"
       height="8"
       width="9" />
    <rect
       style="fill:url(#linearGradient4155);fill-opacity:1;fill-rule:evenodd;stroke:none"
       id="rect4147"
       y="723.36218"
       x="689.57141"
       height="22"
       width="34" />
    <rect
       style="fill:#4d4d4d;fill-opacity:1;fill-rule:evenodd;stroke:none"
       id="rect4157"
       y="724.36218"
       x="690.57141"
       height="21"
       width="32" />
    <path
       style="fill:url(#linearGradient4141);fill-opacity:1;fill-rule:evenodd;stroke:none"
       id="path4133"
       transform="translate(688.57139,631.36214)"
       d="m 6.9999952,95.999985 a 2,2 0 1 1 -4,0 2,2 0 1 1 4,0 z" />
    <path
       style="fill:#4d4d4d;fill-opacity:1;fill-rule:evenodd;stroke:none"
       id="path4143"
       transform="translate(674.57139,631.36214)"
       d="m 19.999994,95.999985 a 1,1 0 1 1 -2,0 1,1 0 1 1 2,0 z" />
    <path
       style="fill:url(#linearGradient4163);fill-opacity:1;fill-rule:evenodd;stroke:none"
       id="path4159"
       transform="translate(714.57139,631.36214)"
       d="m 6.9999952,95.999985 a 2,2 0 1 1 -4,0 2,2 0 1 1 4,0 z" />
    <path
       style="fill:#4d4d4d;fill-opacity:1;fill-rule:evenodd;stroke:none"
       id="path4161"
       transform="translate(700.57139,631.36214)"
       d="m 19.999994,95.999985 a 1,1 0 1 1 -2,0 1,1 0 1 1 2,0 z" />
    <path
       style="fill:url(#linearGradient4169);fill-opacity:1;fill-rule:evenodd;stroke:none"
       id="path4165"
       transform="translate(642.57139,632.36214)"
       d="m 6.9999952,95.999985 a 2,2 0 1 1 -4,0 2,2 0 1 1 4,0 z" />
    <path
       style="fill:#4d4d4d;fill-opacity:1;fill-rule:evenodd;stroke:none"
       id="path4167"
       transform="translate(628.57139,632.36214)"
       d="m 19.999994,95.999985 a 1,1 0 1 1 -2,0 1,1 0 1 1 2,0 z" />
    <rect
       style="fill:url(#linearGradient4179);fill-opacity:1;fill-rule:evenodd;stroke:none"
       id="rect4171"
       transform="scale(-1,1)"
       y="723.36218"
       x="-771.57141"
       height="10"
       width="11" />
    <rect
       style="fill:#4d4d4d;fill-opacity:1;fill-rule:evenodd;stroke:none"
       id="rect4173"
       transform="scale(-1,1)"
       y="724.36218"
       x="-770.57141"
       height="8"
       width="9" />
    <path
       style="fill:url(#linearGradient4181);fill-opacity:1;fill-rule:evenodd;stroke:none"
       id="path4175"
       transform="translate(760.57139,632.36214)"
       d="m 6.9999952,95.999985 a 2,2 0 1 1 -4,0 2,2 0 1 1 4,0 z" />
    <path
       style="fill:#4d4d4d;fill-opacity:1;fill-rule:evenodd;stroke:none"
       id="path4177"
       transform="translate(746.57139,632.36214)"
       d="m 19.999994,95.999985 a 1,1 0 1 1 -2,0 1,1 0 1 1 2,0 z" />
    <rect
       style="fill:url(#linearGradient4191);fill-opacity:1;fill-rule:evenodd;stroke:none"
       id="rect4183"
       y="716.36218"
       x="642.57141"
       height="2"
       width="128" />
    <rect
       style="fill:url(#linearGradient4209);fill-opacity:1;fill-rule:evenodd;stroke:none"
       id="rect4201"
       y="695.36224"
       x="651.57147"
       height="13"
       width="17" />
    <rect
       style="fill:#38b9fe;fill-opacity:1;fill-rule:evenodd;stroke:none"
       id="rect4211"
       y="696.36224"
       x="652.57147"
       height="11"
       width="15" />
    <path
       style="fill:url(#linearGradient4221);fill-opacity:1;fill-rule:evenodd;stroke:none"
       id="path4213"
       transform="translate(642.57141,632.36218)"
       d="m 20.999994,68.999985 a 4,4 0 1 1 -8,0 4,4 0 1 1 8,0 z" />
    <path
       style="fill:#38b9fe;fill-opacity:1;fill-rule:evenodd;stroke:none"
       id="path4223"
       transform="matrix(1.2,0,0,1.2000001,670.97141,617.96218)"
       d="m -7.0000048,69.499985 a 2.5,2.5 0 1 1 -5.0000002,0 2.5,2.5 0 1 1 5.0000002,0 z" />
    <path
       style="fill:url(#linearGradient4233);fill-opacity:1;fill-rule:evenodd;stroke:none"
       id="path4225"
       transform="translate(669.57141,632.36218)"
       d="m -8.0000048,68.999985 a 2,2 0 1 1 -4.0000002,0 2,2 0 1 1 4.0000002,0 z" />
    <g
       id="g4293"
       transform="translate(-6.9999898,-57.000009)">
      <rect
         style="fill:#0186cd;fill-opacity:1;fill-rule:evenodd;stroke:none"
         id="rect4235"
         y="751.36218"
         x="683.57141"
         height="15"
         width="2" />
      <rect
         style="fill:#7ad0fe;fill-opacity:1;fill-rule:evenodd;stroke:none;filter:url(#filter4283)"
         id="rect4237"
         clip-path="url(#clipPath4289)"
         y="752.36218"
         x="684.57141"
         height="15"
         width="1.9999988" />
    </g>
    <rect
       style="fill:#0075b2;fill-opacity:1;fill-rule:evenodd;stroke:none"
       id="rect4309"
       y="707.36224"
       x="673.57147"
       height="1"
       width="2" />
    <rect
       style="fill:#0075b2;fill-opacity:1;fill-rule:evenodd;stroke:none"
       id="rect4311"
       y="707.36224"
       x="679.57147"
       height="1"
       width="2" />
    <rect
       style="fill:url(#linearGradient4305);fill-opacity:1;fill-rule:evenodd;stroke:none"
       id="rect4297"
       y="705.36224"
       x="674.57147"
       height="3"
       width="6" />
    <rect
       style="fill:#ff0000;fill-opacity:1;fill-rule:evenodd;stroke:none"
       id="rect4307"
       y="706.36224"
       x="675.57147"
       height="1"
       width="4" />
    <rect
       style="fill:#0075b2;fill-opacity:1;fill-rule:evenodd;stroke:none"
       id="rect4313"
       y="704.36224"
       x="679.57147"
       height="1"
       width="2" />
    <rect
       style="fill:#0075b2;fill-opacity:1;fill-rule:evenodd;stroke:none"
       id="rect4315"
       y="704.36224"
       x="673.57147"
       height="1"
       width="2" />
    <rect
       style="fill:#0075b2;fill-opacity:1;fill-rule:evenodd;stroke:none"
       id="rect4317"
       y="701.36224"
       x="673.57147"
       height="1"
       width="2" />
    <rect
       style="fill:#0075b2;fill-opacity:1;fill-rule:evenodd;stroke:none"
       id="rect4319"
       y="701.36224"
       x="679.57147"
       height="1"
       width="2" />
    <rect
       style="fill:#0075b2;fill-opacity:1;fill-rule:evenodd;stroke:none"
       id="rect4321"
       y="698.36224"
       x="679.57147"
       height="1"
       width="2" />
    <rect
       style="fill:#0075b2;fill-opacity:1;fill-rule:evenodd;stroke:none"
       id="rect4323"
       y="698.36224"
       x="673.57147"
       height="1"
       width="2" />
    <rect
       style="fill:#0075b2;fill-opacity:1;fill-rule:evenodd;stroke:none"
       id="rect4325"
       y="695.36224"
       x="673.57147"
       height="1"
       width="2" />
    <rect
       style="fill:#0075b2;fill-opacity:1;fill-rule:evenodd;stroke:none"
       id="rect4327"
       y="695.36224"
       x="679.57147"
       height="1"
       width="2" />
    <g
       id="g4384"
       transform="translate(16.999994,-51.000018)">
      <rect
         style="fill:url(#linearGradient4388);fill-opacity:1;fill-rule:evenodd;stroke:none"
         id="rect4331"
         y="746.36218"
         x="708.57141"
         height="13"
         width="17" />
      <rect
         style="fill:#38b9fe;fill-opacity:1;fill-rule:evenodd;stroke:none"
         id="rect4333"
         y="747.36218"
         x="709.57141"
         height="11"
         width="15" />
    </g>
    <g
       id="g4379"
       transform="translate(0.99991928,-56.99991)">
      <path
         style="fill:url(#linearGradient4373);fill-opacity:1;fill-rule:evenodd;stroke:none"
         id="path4335"
         transform="matrix(-1,0,0,1,749.57148,689.36209)"
         d="m 20.999994,68.999985 a 4,4 0 1 1 -8,0 4,4 0 1 1 8,0 z" />
      <path
         style="fill:#38b9fe;fill-opacity:1;fill-rule:evenodd;stroke:none"
         id="path4337"
         transform="matrix(-1.2,0,0,1.2000001,721.17148,674.96209)"
         d="m -7.0000048,69.499985 a 2.5,2.5 0 1 1 -5.0000002,0 2.5,2.5 0 1 1 5.0000002,0 z" />
      <path
         style="fill:url(#linearGradient4375);fill-opacity:1;fill-rule:evenodd;stroke:none"
         id="path4339"
         transform="matrix(-1,0,0,1,722.57148,689.36209)"
         d="m -8.0000048,68.999985 a 2,2 0 1 1 -4.0000002,0 2,2 0 1 1 4.0000002,0 z" />
    </g>
    <g
       id="g4341"
       transform="translate(30.000078,-57.000099)">
      <rect
         style="fill:#0186cd;fill-opacity:1;fill-rule:evenodd;stroke:none"
         id="rect4343"
         y="751.36218"
         x="683.57141"
         height="15"
         width="2" />
      <rect
         style="fill:#7ad0fe;fill-opacity:1;fill-rule:evenodd;stroke:none;filter:url(#filter4283)"
         id="rect4345"
         clip-path="url(#clipPath4289)"
         y="752.36218"
         x="684.57141"
         height="15"
         width="1.9999988" />
    </g>
    <rect
       style="fill:#0075b2;fill-opacity:1;fill-rule:evenodd;stroke:none"
       id="rect4347"
       transform="scale(-1,1)"
       y="707.36218"
       x="-718.57141"
       height="1"
       width="2" />
    <rect
       style="fill:#0075b2;fill-opacity:1;fill-rule:evenodd;stroke:none"
       id="rect4349"
       transform="scale(-1,1)"
       y="707.36218"
       x="-712.57141"
       height="1"
       width="2" />
    <rect
       style="fill:#0075b2;fill-opacity:1;fill-rule:evenodd;stroke:none"
       id="rect4355"
       transform="scale(-1,1)"
       y="704.36218"
       x="-712.57141"
       height="1"
       width="2" />
    <rect
       style="fill:#0075b2;fill-opacity:1;fill-rule:evenodd;stroke:none"
       id="rect4357"
       transform="scale(-1,1)"
       y="704.36218"
       x="-718.57141"
       height="1"
       width="2" />
    <rect
       style="fill:#0075b2;fill-opacity:1;fill-rule:evenodd;stroke:none"
       id="rect4359"
       transform="scale(-1,1)"
       y="701.36218"
       x="-718.57141"
       height="1"
       width="2" />
    <rect
       style="fill:#0075b2;fill-opacity:1;fill-rule:evenodd;stroke:none"
       id="rect4361"
       transform="scale(-1,1)"
       y="701.36218"
       x="-712.57141"
       height="1"
       width="2" />
    <rect
       style="fill:#0075b2;fill-opacity:1;fill-rule:evenodd;stroke:none"
       id="rect4363"
       transform="scale(-1,1)"
       y="698.36218"
       x="-712.57141"
       height="1"
       width="2" />
    <rect
       style="fill:#0075b2;fill-opacity:1;fill-rule:evenodd;stroke:none"
       id="rect4365"
       transform="scale(-1,1)"
       y="698.36218"
       x="-718.57141"
       height="1"
       width="2" />
    <rect
       style="fill:#0075b2;fill-opacity:1;fill-rule:evenodd;stroke:none"
       id="rect4367"
       transform="scale(-1,1)"
       y="695.36218"
       x="-718.57141"
       height="1"
       width="2" />
    <rect
       style="fill:#0075b2;fill-opacity:1;fill-rule:evenodd;stroke:none"
       id="rect4369"
       transform="scale(-1,1)"
       y="695.36218"
       x="-712.57141"
       height="1"
       width="2" />
    <g
       id="g4390"
       transform="matrix(-1,0,0,1,1429.1428,-65.000018)">
      <rect
         style="fill:url(#linearGradient4394);fill-opacity:1;fill-rule:evenodd;stroke:none"
         id="rect4351"
         transform="scale(-1,1)"
         y="762.36218"
         x="-717.57141"
         height="3"
         width="6" />
      <rect
         style="fill:#ff0000;fill-opacity:1;fill-rule:evenodd;stroke:none"
         id="rect4353"
         transform="scale(-1,1)"
         y="763.36218"
         x="-716.57141"
         height="1"
         width="4" />
    </g>
    <g
       id="g4396"
       transform="translate(-22.000005,-51.000002)">
      <rect
         style="fill:url(#linearGradient4402);fill-opacity:1;fill-rule:evenodd;stroke:none"
         id="rect4398"
         y="746.36218"
         x="708.57141"
         height="13"
         width="19" />
      <rect
         style="fill:url(#linearGradient4418);fill-opacity:1;fill-rule:evenodd;stroke:none"
         id="rect4400"
         y="747.36218"
         x="709.57141"
         height="11"
         width="17" />
    </g>
    <rect
       style="fill:#0388ce;fill-opacity:1;fill-rule:evenodd;stroke:none"
       id="rect4420"
       y="697.36218"
       x="695.57141"
       height="3"
       width="1" />
    <rect
       style="fill:#0388ce;fill-opacity:1;fill-rule:evenodd;stroke:none"
       id="rect4422"
       transform="matrix(0.87329858,-0.48718538,0.48718538,0.87329858,0,0)"
       y="946.97101"
       x="263.23886"
       height="3"
       width="1" />
    <rect
       style="fill:#0388ce;fill-opacity:1;fill-rule:evenodd;stroke:none"
       id="rect4424"
       transform="matrix(0.70319103,-0.71100096,0.71585088,0.69825319,0,0)"
       y="983.11554"
       x="-21.800285"
       height="2.0028334"
       width="1.0000041" />
    <rect
       style="fill:#0388ce;fill-opacity:1;fill-rule:evenodd;stroke:none"
       id="rect4426"
       transform="matrix(-0.87329858,-0.48718538,-0.48718538,0.87329858,0,0)"
       y="268.73941"
       x="-952.51758"
       height="3"
       width="1" />
    <rect
       style="fill:#ce0202;fill-opacity:1;fill-rule:evenodd;stroke:none"
       id="rect4428"
       transform="matrix(-0.70319103,-0.71100096,-0.71585088,0.69825319,0,0)"
       y="-6.7229328"
       x="-993.89185"
       height="2.0028334"
       width="1.0000041" />
    <path
       style="fill:#0388ce;fill-opacity:1;fill-rule:evenodd;stroke:none"
       id="path4430"
       clip-path="url(#clipPath4434)"
       transform="translate(642.57141,632.36216)"
       d="m 55.999996,74.999985 a 2.5,2 0 1 1 -5,0 2.5,2 0 1 1 5,0 z" />
    <rect
       style="fill:#0373af;fill-opacity:1;fill-rule:evenodd;stroke:none"
       id="rect4438"
       transform="matrix(0.67151943,0.74098695,-0.74098695,0.67151943,0,0)"
       y="-48.899471"
       x="990.68671"
       height="8"
       width="1" />
    <path
       style="fill:#0373af;fill-opacity:1;fill-rule:evenodd;stroke:none"
       id="path4440"
       clip-path="url(#clipPath4444)"
       transform="translate(621.57141,632.36221)"
       d="m 75.999992,74.999985 a 1.5,1 0 1 1 -3,0 1.5,1 0 1 1 3,0 z" />
    <g
       id="g4448"
       transform="translate(35.999909,-51.000126)">
      <rect
         style="fill:url(#linearGradient4470);fill-opacity:1;fill-rule:evenodd;stroke:none"
         id="rect4450"
         y="746.36218"
         x="708.57141"
         height="13"
         width="19" />
      <rect
         style="fill:url(#linearGradient4472);fill-opacity:1;fill-rule:evenodd;stroke:none"
         id="rect4452"
         y="747.36218"
         x="709.57141"
         height="11"
         width="17" />
    </g>
    <rect
       style="fill:#0388ce;fill-opacity:1;fill-rule:evenodd;stroke:none"
       id="rect4454"
       y="697.36206"
       x="753.57135"
       height="3"
       width="1" />
    <rect
       style="fill:#0388ce;fill-opacity:1;fill-rule:evenodd;stroke:none"
       id="rect4456"
       transform="matrix(0.87329858,-0.48718538,0.48718538,0.87329858,0,0)"
       y="975.2276"
       x="313.89017"
       height="3"
       width="1" />
    <rect
       style="fill:#0388ce;fill-opacity:1;fill-rule:evenodd;stroke:none"
       id="rect4458"
       transform="matrix(0.70319103,-0.71100096,0.71585088,0.69825319,0,0)"
       y="1024.3544"
       x="18.699398"
       height="2.0028334"
       width="1.0000041" />
    <rect
       style="fill:#0388ce;fill-opacity:1;fill-rule:evenodd;stroke:none"
       id="rect4460"
       transform="matrix(-0.87329858,-0.48718538,-0.48718538,0.87329858,0,0)"
       y="240.48259"
       x="-1003.1688"
       height="3"
       width="1" />
    <rect
       style="fill:#ce0202;fill-opacity:1;fill-rule:evenodd;stroke:none"
       id="rect4462"
       transform="matrix(-0.70319103,-0.71100096,-0.71585088,0.69825319,0,0)"
       y="-47.962002"
       x="-1034.3914"
       height="2.0028334"
       width="1.0000041" />
    <path
       style="fill:#0388ce;fill-opacity:1;fill-rule:evenodd;stroke:none"
       id="path4464"
       clip-path="url(#clipPath4434)"
       transform="translate(700.57132,632.36204)"
       d="m 55.999996,74.999985 a 2.5,2 0 1 1 -5,0 2.5,2 0 1 1 5,0 z" />
    <rect
       style="fill:#0373af;fill-opacity:1;fill-rule:evenodd;stroke:none"
       id="rect4466"
       transform="matrix(0.87017017,-0.49275134,0.49275134,0.87017017,0,0)"
       y="978.91272"
       x="307.29468"
       height="8"
       width="1" />
    <path
       style="fill:#0373af;fill-opacity:1;fill-rule:evenodd;stroke:none"
       id="path4468"
       clip-path="url(#clipPath4444)"
       transform="translate(679.57132,632.36209)"
       d="m 75.999992,74.999985 a 1.5,1 0 1 1 -3,0 1.5,1 0 1 1 3,0 z" />
  </g>
</svg>
