<?xml version="1.0" encoding="UTF-8" standalone="no"?>
<svg
   xmlns:dc="http://purl.org/dc/elements/1.1/"
   xmlns:cc="http://creativecommons.org/ns#"
   xmlns:rdf="http://www.w3.org/1999/02/22-rdf-syntax-ns#"
   xmlns:svg="http://www.w3.org/2000/svg"
   xmlns="http://www.w3.org/2000/svg"
   xmlns:xlink="http://www.w3.org/1999/xlink"
   version="1.1"
   id="svg2"
   height="20"
   width="40">
  <defs
     id="defs4">
    <linearGradient
       id="linearGradient3028">
      <stop
         id="stop3030"
         offset="0"
         style="stop-color:#c0c0c0;stop-opacity:1" />
      <stop
         id="stop3032"
         offset="1"
         style="stop-color:#cfcfcf;stop-opacity:1" />
    </linearGradient>
    <linearGradient
       id="linearGradient3018">
      <stop
         style="stop-color:#1b1b1b;stop-opacity:1"
         offset="0"
         id="stop3020" />
      <stop
         style="stop-color:#656565;stop-opacity:1"
         offset="1"
         id="stop3022" />
    </linearGradient>
    <linearGradient
       id="linearGradient3006">
      <stop
         id="stop3008"
         offset="0"
         style="stop-color:#858585;stop-opacity:1" />
      <stop
         id="stop3010"
         offset="1"
         style="stop-color:#bbbbbb;stop-opacity:1" />
    </linearGradient>
    <linearGradient
       gradientUnits="userSpaceOnUse"
       y2="3.99997"
       x2="-21.06249"
       y1="15.49997"
       x1="-21.24999"
       id="linearGradient3012"
       xlink:href="#linearGradient3006" />
    <linearGradient
       y2="3.99997"
       x2="-21.06249"
       y1="15.49997"
       x1="-21.24999"
       gradientUnits="userSpaceOnUse"
       id="linearGradient3016"
       xlink:href="#linearGradient3018" />
    <linearGradient
       y2="3.99997"
       x2="-21.06249"
       y1="15.49997"
       x1="-21.24999"
       gradientUnits="userSpaceOnUse"
       id="linearGradient3026"
       xlink:href="#linearGradient3028" />
    <filter
       height="1.36"
       y="-0.18"
       width="1.36"
       x="-0.18"
       id="filter3846">
      <feGaussianBlur
         id="feGaussianBlur3848"
         stdDeviation="1.2" />
    </filter>
  </defs>
  <metadata
     id="metadata7">
    <rdf:RDF>
      <cc:Work
         rdf:about="">
        <dc:format>image/svg+xml</dc:format>
        <dc:type
           rdf:resource="http://purl.org/dc/dcmitype/StillImage" />
        <dc:title></dc:title>
      </cc:Work>
    </rdf:RDF>
  </metadata>
  <g
     transform="translate(-245.71426,-576.64789)"
     id="layer1">
    <rect
       transform="translate(245.71426,576.64789)"
       y="0"
       x="0"
       height="20"
       width="40"
       id="rect2998"
       style="fill:#0aa6fe;fill-opacity:1;stroke:none" />
    <path
       transform="translate(286.71425,576.64792)"
       d="m -13,10 a 8,8 0 0 1 -8,8 8,8 0 0 1 -8,-8 8,8 0 0 1 8,-8 8,8 0 0 1 8,8 z"
       id="path3000"
       style="fill:url(#linearGradient3012);fill-opacity:1;stroke:none" />
    <path
       style="fill:url(#linearGradient3016);fill-opacity:1;stroke:none"
       id="path3014"
       d="m -13,10 a 8,8 0 0 1 -8,8 8,8 0 0 1 -8,-8 8,8 0 0 1 8,-8 8,8 0 0 1 8,8 z"
       transform="matrix(0.75000125,0,0,0.75000125,281.46428,579.14791)" />
    <path
       transform="matrix(0.37500078,0,0,0.37500078,273.58927,582.89791)"
       d="m -13,10 a 8,8 0 0 1 -8,8 8,8 0 0 1 -8,-8 8,8 0 0 1 8,-8 8,8 0 0 1 8,8 z"
       id="path3024"
       style="fill:url(#linearGradient3026);fill-opacity:1;stroke:none" />
    <path
       style="fill:#efefef;fill-opacity:1;stroke:none;filter:url(#filter3846)"
       id="path3034"
       d="m -13,10 a 8,8 0 0 1 -8,8 8,8 0 0 1 -8,-8 8,8 0 0 1 8,-8 8,8 0 0 1 8,8 z"
       transform="matrix(0.12500017,0,0,0.12500017,267.33926,584.39789)" />
  </g>
</svg>
