<?xml version="1.0" encoding="UTF-8" standalone="no"?>
<svg
   xmlns:dc="http://purl.org/dc/elements/1.1/"
   xmlns:cc="http://creativecommons.org/ns#"
   xmlns:rdf="http://www.w3.org/1999/02/22-rdf-syntax-ns#"
   xmlns:svg="http://www.w3.org/2000/svg"
   xmlns="http://www.w3.org/2000/svg"
   xmlns:xlink="http://www.w3.org/1999/xlink"
   version="1.1"
   id="svg2"
   height="38"
   width="128">
  <defs
     id="defs4">
    <linearGradient
       id="linearGradient4098">
      <stop
         id="stop4100"
         offset="0"
         style="stop-color:#ded9df;stop-opacity:1;" />
      <stop
         id="stop4102"
         offset="1"
         style="stop-color:#000000;stop-opacity:1" />
    </linearGradient>
    <linearGradient
       id="linearGradient4086">
      <stop
         id="stop4088"
         offset="0"
         style="stop-color:#ffffff;stop-opacity:1" />
      <stop
         style="stop-color:#f34545;stop-opacity:1"
         offset="0.77820683"
         id="stop4096" />
      <stop
         id="stop4090"
         offset="1"
         style="stop-color:#821c1c;stop-opacity:1" />
    </linearGradient>
    <linearGradient
       id="linearGradient3256">
      <stop
         offset="0"
         style="stop-color:#0186cd;stop-opacity:1"
         id="stop3258" />
      <stop
         offset="1"
         style="stop-color:#7ad0fe;stop-opacity:1"
         id="stop3260" />
    </linearGradient>
    <linearGradient
       id="linearGradient3250">
      <stop
         offset="0"
         style="stop-color:#019cef;stop-opacity:1"
         id="stop3252" />
      <stop
         offset="1"
         style="stop-color:#7ad0fe;stop-opacity:1"
         id="stop3254" />
    </linearGradient>
    <linearGradient
       id="linearGradient3196">
      <stop
         offset="0"
         style="stop-color:#019cef;stop-opacity:1"
         id="stop3198" />
      <stop
         offset="1"
         style="stop-color:#7ad0fe;stop-opacity:1"
         id="stop3200" />
    </linearGradient>
    <linearGradient
       id="linearGradient3190">
      <stop
         offset="0"
         style="stop-color:#019cef;stop-opacity:1"
         id="stop3192" />
      <stop
         offset="1"
         style="stop-color:#7ad0fe;stop-opacity:1"
         id="stop3194" />
    </linearGradient>
    <clipPath
       id="clipPath4289"
       clipPathUnits="userSpaceOnUse">
      <rect
         y="751.36218"
         x="683.57141"
         height="15"
         width="2"
         id="rect4291"
         style="fill:#7ad0fe;fill-opacity:1;fill-rule:evenodd;stroke:none" />
    </clipPath>
    <clipPath
       id="clipPath4434"
       clipPathUnits="userSpaceOnUse">
      <rect
         y="73"
         x="50"
         height="2"
         width="7"
         id="rect4436"
         style="fill:#0388ce;fill-opacity:1;fill-rule:evenodd;stroke:none" />
    </clipPath>
    <clipPath
       id="clipPath4444"
       clipPathUnits="userSpaceOnUse">
      <rect
         y="73.999985"
         x="72.999992"
         height="1"
         width="3"
         id="rect4446"
         style="fill:#0373af;fill-opacity:1;fill-rule:evenodd;stroke:none" />
    </clipPath>
    <linearGradient
       x1="709.57141"
       y1="747.36218"
       x2="716.57141"
       y2="754.36218"
       id="linearGradient4472"
       xlink:href="#linearGradient4412"
       gradientUnits="userSpaceOnUse" />
    <linearGradient
       x1="679.57141"
       y1="760.36218"
       x2="677.57141"
       y2="757.36218"
       id="linearGradient4470"
       xlink:href="#linearGradient4404"
       gradientUnits="userSpaceOnUse"
       gradientTransform="translate(37.999916,-6.0001725)" />
    <clipPath
       id="clipPath4444-6">
      <rect
         width="3"
         height="1"
         x="72.999992"
         y="73.999985"
         id="rect4446-0"
         style="fill:#0373af;fill-opacity:1;fill-rule:evenodd;stroke:none" />
    </clipPath>
    <clipPath
       id="clipPath4434-1">
      <rect
         width="7"
         height="2"
         x="50"
         y="73"
         id="rect4436-2"
         style="fill:#0388ce;fill-opacity:1;fill-rule:evenodd;stroke:none" />
    </clipPath>
    <linearGradient
       x1="709.57141"
       y1="747.36218"
       x2="716.57141"
       y2="754.36218"
       id="linearGradient4418"
       xlink:href="#linearGradient4412"
       gradientUnits="userSpaceOnUse" />
    <linearGradient
       x1="679.57141"
       y1="760.36218"
       x2="677.57141"
       y2="757.36218"
       id="linearGradient4402"
       xlink:href="#linearGradient4404"
       gradientUnits="userSpaceOnUse"
       gradientTransform="translate(37.999916,-6.0001725)" />
    <linearGradient
       x1="682.57141"
       y1="763.36218"
       x2="683.19641"
       y2="764.86218"
       id="linearGradient4394"
       xlink:href="#linearGradient4299"
       gradientUnits="userSpaceOnUse"
       gradientTransform="translate(-1398.1429,-9.8871875e-5)" />
    <linearGradient
       x1="679.57141"
       y1="760.36218"
       x2="677.57141"
       y2="757.36218"
       id="linearGradient4388"
       xlink:href="#linearGradient4203"
       gradientUnits="userSpaceOnUse"
       gradientTransform="translate(37.999916,-6.0001725)" />
    <linearGradient
       x1="-10.187505"
       y1="68.374985"
       x2="-9.0000048"
       y2="69.999985"
       id="linearGradient4375"
       xlink:href="#linearGradient4227"
       gradientUnits="userSpaceOnUse" />
    <linearGradient
       x1="18.999994"
       y1="70.999985"
       x2="14.999995"
       y2="66.999985"
       id="linearGradient4373"
       xlink:href="#linearGradient4215"
       gradientUnits="userSpaceOnUse" />
    <linearGradient
       x1="682.57141"
       y1="763.36218"
       x2="683.19641"
       y2="764.86218"
       id="linearGradient4305"
       xlink:href="#linearGradient4299"
       gradientUnits="userSpaceOnUse"
       gradientTransform="translate(-5.9999898,-57.000009)" />
    <clipPath
       id="clipPath4289-7">
      <rect
         width="2"
         height="15"
         x="683.57141"
         y="751.36218"
         id="rect4291-7"
         style="fill:#7ad0fe;fill-opacity:1;fill-rule:evenodd;stroke:none" />
    </clipPath>
    <filter
       x="-0.30600017"
       y="-0.040799998"
       width="1.6120003"
       height="1.0816"
       color-interpolation-filters="sRGB"
       id="filter4283-8">
      <feGaussianBlur
         id="feGaussianBlur4285-2"
         stdDeviation="0.25499998" />
    </filter>
    <linearGradient
       x1="-10.187505"
       y1="68.374985"
       x2="-9.0000048"
       y2="69.999985"
       id="linearGradient4233"
       xlink:href="#linearGradient4227"
       gradientUnits="userSpaceOnUse" />
    <linearGradient
       x1="18.999994"
       y1="70.999985"
       x2="14.999995"
       y2="66.999985"
       id="linearGradient4221"
       xlink:href="#linearGradient4215"
       gradientUnits="userSpaceOnUse" />
    <linearGradient
       x1="679.57141"
       y1="760.36218"
       x2="677.57141"
       y2="757.36218"
       id="linearGradient4209"
       xlink:href="#linearGradient4203"
       gradientUnits="userSpaceOnUse"
       gradientTransform="translate(-19.000006,-57.000065)" />
    <linearGradient
       x1="62.999996"
       y1="24.999985"
       x2="62.999996"
       y2="21.999985"
       id="linearGradient4199"
       xlink:href="#linearGradient4193"
       gradientUnits="userSpaceOnUse" />
    <linearGradient
       x1="103.99999"
       y1="84.353539"
       x2="103.99999"
       y2="85.204491"
       id="linearGradient4191"
       xlink:href="#linearGradient4185"
       gradientUnits="userSpaceOnUse"
       gradientTransform="translate(642.57138,632.36212)" />
    <linearGradient
       x1="5.9999952"
       y1="96.999985"
       x2="3.999995"
       y2="94.999985"
       id="linearGradient4181"
       xlink:href="#linearGradient4135"
       gradientUnits="userSpaceOnUse" />
    <linearGradient
       x1="656.57141"
       y1="788.36218"
       x2="662.57141"
       y2="781.36218"
       id="linearGradient4179"
       xlink:href="#linearGradient4123"
       gradientUnits="userSpaceOnUse"
       gradientTransform="translate(-1427.1428,-57.000033)" />
    <linearGradient
       x1="5.9999952"
       y1="96.999985"
       x2="3.999995"
       y2="94.999985"
       id="linearGradient4169"
       xlink:href="#linearGradient4135"
       gradientUnits="userSpaceOnUse" />
    <linearGradient
       x1="5.9999952"
       y1="96.999985"
       x2="3.999995"
       y2="94.999985"
       id="linearGradient4163"
       xlink:href="#linearGradient4135"
       gradientUnits="userSpaceOnUse" />
    <linearGradient
       x1="81.999992"
       y1="110.99998"
       x2="55.999996"
       y2="92.999985"
       id="linearGradient4155"
       xlink:href="#linearGradient4149"
       gradientUnits="userSpaceOnUse"
       gradientTransform="translate(642.57137,632.3621)" />
    <linearGradient
       x1="5.9999952"
       y1="96.999985"
       x2="3.999995"
       y2="94.999985"
       id="linearGradient4141"
       xlink:href="#linearGradient4135"
       gradientUnits="userSpaceOnUse" />
    <linearGradient
       x1="660.57141"
       y1="782.36218"
       x2="660.57141"
       y2="781.36218"
       id="linearGradient4129"
       xlink:href="#linearGradient4123"
       gradientUnits="userSpaceOnUse"
       gradientTransform="translate(-14.000011,-57.000035)" />
    <linearGradient
       id="linearGradient4123">
      <stop
         id="stop4125"
         style="stop-color:#000000;stop-opacity:1"
         offset="0" />
      <stop
         id="stop4127"
         style="stop-color:#808080;stop-opacity:1"
         offset="1" />
    </linearGradient>
    <linearGradient
       id="linearGradient4135">
      <stop
         id="stop4137"
         style="stop-color:#000000;stop-opacity:1"
         offset="0" />
      <stop
         id="stop4139"
         style="stop-color:#808080;stop-opacity:1"
         offset="1" />
    </linearGradient>
    <linearGradient
       id="linearGradient4149">
      <stop
         id="stop4151"
         style="stop-color:#000000;stop-opacity:1"
         offset="0" />
      <stop
         id="stop4153"
         style="stop-color:#808080;stop-opacity:1"
         offset="1" />
    </linearGradient>
    <linearGradient
       id="linearGradient4185">
      <stop
         id="stop4187"
         style="stop-color:#ff8401;stop-opacity:1"
         offset="0" />
      <stop
         id="stop4189"
         style="stop-color:#da7100;stop-opacity:1"
         offset="1" />
    </linearGradient>
    <linearGradient
       id="linearGradient4193">
      <stop
         id="stop4195"
         style="stop-color:#4d4d4d;stop-opacity:1"
         offset="0" />
      <stop
         id="stop4197"
         style="stop-color:#0aa6fe;stop-opacity:1"
         offset="1" />
    </linearGradient>
    <linearGradient
       id="linearGradient4203">
      <stop
         id="stop4205"
         style="stop-color:#019cef;stop-opacity:1"
         offset="0" />
      <stop
         id="stop4207"
         style="stop-color:#7ad0fe;stop-opacity:1"
         offset="1" />
    </linearGradient>
    <linearGradient
       id="linearGradient4215">
      <stop
         id="stop4217"
         style="stop-color:#0186cd;stop-opacity:1"
         offset="0" />
      <stop
         id="stop4219"
         style="stop-color:#7ad0fe;stop-opacity:1"
         offset="1" />
    </linearGradient>
    <linearGradient
       id="linearGradient4227">
      <stop
         id="stop4229"
         style="stop-color:#ff7979;stop-opacity:1"
         offset="0" />
      <stop
         id="stop4231"
         style="stop-color:#ff0000;stop-opacity:1"
         offset="1" />
    </linearGradient>
    <linearGradient
       id="linearGradient4299">
      <stop
         id="stop4301"
         style="stop-color:#7ad0fe;stop-opacity:1"
         offset="0" />
      <stop
         id="stop4303"
         style="stop-color:#0186cd;stop-opacity:1"
         offset="1" />
    </linearGradient>
    <linearGradient
       id="linearGradient4404">
      <stop
         id="stop4406"
         style="stop-color:#7ad0fe;stop-opacity:1"
         offset="0" />
      <stop
         id="stop4408"
         style="stop-color:#0186cd;stop-opacity:1"
         offset="1" />
    </linearGradient>
    <linearGradient
       id="linearGradient4412">
      <stop
         id="stop4414"
         style="stop-color:#03a6ce;stop-opacity:1"
         offset="0" />
      <stop
         id="stop4416"
         style="stop-color:#3abbce;stop-opacity:1"
         offset="1" />
    </linearGradient>
    <linearGradient
       gradientTransform="matrix(1.0000004,0,0,1.0002659,591.5714,425.33965)"
       y2="94.999985"
       x2="3.999995"
       y1="96.999985"
       x1="5.9999952"
       gradientUnits="userSpaceOnUse"
       id="linearGradient5074"
       xlink:href="#linearGradient3256" />
    <linearGradient
       y2="92.999985"
       x2="55.999996"
       y1="110.99998"
       x1="81.999992"
       gradientTransform="matrix(1.1176467,0,0,1.1818144,510.04197,449.817)"
       gradientUnits="userSpaceOnUse"
       id="linearGradient5082"
       xlink:href="#linearGradient3250" />
    <linearGradient
       y2="42.736881"
       x2="62.999985"
       y1="45.684254"
       x1="62.999985"
       gradientTransform="matrix(0.99999944,0,0,0.67857102,517.57145,554.36215)"
       gradientUnits="userSpaceOnUse"
       id="linearGradient5165"
       xlink:href="#linearGradient4193" />
    <linearGradient
       y2="85.204491"
       x2="103.99999"
       y1="84.353539"
       x1="103.99999"
       gradientTransform="matrix(0.99999941,0,0,0.99999592,517.57142,504.36241)"
       gradientUnits="userSpaceOnUse"
       id="linearGradient5167"
       xlink:href="#linearGradient4185" />
    <linearGradient
       y2="781.36218"
       x2="662.57141"
       y1="788.36218"
       x1="656.57141"
       gradientTransform="translate(-1183.1428,-215)"
       gradientUnits="userSpaceOnUse"
       id="linearGradient3186"
       xlink:href="#linearGradient3190" />
    <linearGradient
       y2="94.999985"
       x2="3.999995"
       y1="96.999985"
       x1="5.9999952"
       gradientTransform="translate(517.5714,474.36217)"
       gradientUnits="userSpaceOnUse"
       id="linearGradient3188"
       xlink:href="#linearGradient3196" />
    <linearGradient
       y2="781.36218"
       x2="662.57141"
       y1="788.36218"
       x1="656.57141"
       gradientTransform="translate(-1302.1428,-215)"
       gradientUnits="userSpaceOnUse"
       id="linearGradient3210"
       xlink:href="#linearGradient3190" />
    <linearGradient
       y2="94.999985"
       x2="3.999995"
       y1="96.999985"
       x1="5.9999952"
       gradientTransform="translate(635.5714,474.36217)"
       gradientUnits="userSpaceOnUse"
       id="linearGradient3212"
       xlink:href="#linearGradient3196" />
    <linearGradient
       y2="94.999985"
       x2="3.999995"
       y1="96.999985"
       x1="5.9999952"
       gradientTransform="matrix(1.0000004,0,0,1.0002659,591.5714,425.33965)"
       gradientUnits="userSpaceOnUse"
       id="linearGradient3268"
       xlink:href="#linearGradient3256" />
    <linearGradient
       y2="94.999985"
       x2="3.999995"
       y1="96.999985"
       x1="5.9999952"
       gradientTransform="matrix(1.0000004,0,0,1.0002659,591.5714,425.33965)"
       gradientUnits="userSpaceOnUse"
       id="linearGradient3276"
       xlink:href="#linearGradient3256" />
    <linearGradient
       y2="94.999985"
       x2="3.999995"
       y1="96.999985"
       x1="5.9999952"
       gradientTransform="matrix(1.0000004,0,0,1.0002659,591.5714,425.33965)"
       gradientUnits="userSpaceOnUse"
       id="linearGradient3284"
       xlink:href="#linearGradient3256" />
    <filter
       height="1.48"
       y="-0.24"
       width="1.48"
       x="-0.24"
       id="filter4070">
      <feGaussianBlur
         id="feGaussianBlur4072"
         stdDeviation="1.5" />
    </filter>
    <radialGradient
       gradientTransform="matrix(0.46927252,-0.92112212,1.00153,0.5102369,57.767892,47.90293)"
       gradientUnits="userSpaceOnUse"
       r="7.5"
       fy="-23.500019"
       fx="64.499992"
       cy="-23.500019"
       cx="64.499992"
       id="radialGradient4094"
       xlink:href="#linearGradient4086" />
    <linearGradient
       gradientUnits="userSpaceOnUse"
       y2="1.2992809"
       x2="67.10334"
       y1="-26.749914"
       x1="62.137688"
       id="linearGradient4104"
       xlink:href="#linearGradient4098" />
    <filter
       height="1.5047188"
       y="-0.25235939"
       width="1.4575894"
       x="-0.2287947"
       id="filter4150">
      <feGaussianBlur
         id="feGaussianBlur4152"
         stdDeviation="1.6206375" />
    </filter>
  </defs>
  <metadata
     id="metadata7">
    <rdf:RDF>
      <cc:Work
         rdf:about="">
        <dc:format>image/svg+xml</dc:format>
        <dc:type
           rdf:resource="http://purl.org/dc/dcmitype/StillImage" />
        <dc:title></dc:title>
      </cc:Work>
    </rdf:RDF>
  </metadata>
  <g
     transform="translate(-517.57141,-554.36218)"
     id="layer1">
    <rect
       width="127.99993"
       height="37.999977"
       x="517.57141"
       y="554.36218"
       id="rect5159"
       style="fill:url(#linearGradient5165);fill-opacity:1;fill-rule:evenodd;stroke:none" />
    <rect
       width="127.99993"
       height="7.0000238"
       x="517.57147"
       y="585.36218"
       id="rect5161"
       style="fill:#4d4d4d;fill-opacity:1;fill-rule:evenodd;stroke:none" />
    <rect
       width="127.99993"
       height="1.999992"
       x="517.57147"
       y="588.36218"
       id="rect5163"
       style="fill:url(#linearGradient5167);fill-opacity:1;fill-rule:evenodd;stroke:none" />
    <rect
       style="fill:url(#linearGradient5082);fill-opacity:1;fill-rule:evenodd;stroke:none"
       id="rect4147"
       y="557.36224"
       x="562.57141"
       height="25.999916"
       width="37.999989" />
    <rect
       style="fill:#0aa6fe;fill-opacity:1;fill-rule:evenodd;stroke:none"
       id="rect4157"
       y="558.36218"
       x="563.57141"
       height="23.999977"
       width="35.999989" />
    <g
       transform="translate(-30.000004,39.999424)"
       id="g3214">
      <path
         d="m 598.5714,521.36517 a 2.0000009,2.0005318 0 0 1 -4,0 2.0000009,2.0005318 0 1 1 4,0 z"
         id="path4159"
         style="fill:url(#linearGradient5074);fill-opacity:1;fill-rule:evenodd;stroke:none" />
      <path
         d="m 597.57139,521.36517 a 1.0000033,1.0002689 0 0 1 -2,0 1.0000033,1.0002689 0 1 1 2,0 z"
         id="path4161"
         style="fill:#38b9fe;fill-opacity:1;fill-rule:evenodd;stroke:none" />
    </g>
    <rect
       width="11"
       height="10"
       x="-527.57141"
       y="565.36224"
       transform="scale(-1,1)"
       id="rect3178"
       style="fill:url(#linearGradient3186);fill-opacity:1;fill-rule:evenodd;stroke:none" />
    <rect
       width="9"
       height="8"
       x="-526.57141"
       y="566.36224"
       transform="scale(-1,1)"
       id="rect3180"
       style="fill:#38b9fe;fill-opacity:1;fill-rule:evenodd;stroke:none" />
    <path
       d="m 524.5714,570.36216 a 2,2 0 0 1 -4,0 2,2 0 1 1 4,0 z"
       id="path3182"
       style="fill:url(#linearGradient3188);fill-opacity:1;fill-rule:evenodd;stroke:none" />
    <path
       d="m 523.57139,570.36216 a 1,1 0 0 1 -2,0 1,1 0 1 1 2,0 z"
       id="path3184"
       style="fill:#38b9fe;fill-opacity:1;fill-rule:evenodd;stroke:none" />
    <rect
       style="fill:url(#linearGradient3210);fill-opacity:1;fill-rule:evenodd;stroke:none"
       id="rect3202"
       transform="scale(-1,1)"
       y="565.36224"
       x="-646.57141"
       height="10"
       width="11" />
    <rect
       style="fill:#38b9fe;fill-opacity:1;fill-rule:evenodd;stroke:none"
       id="rect3204"
       transform="scale(-1,1)"
       y="566.36224"
       x="-645.57141"
       height="8"
       width="9" />
    <path
       style="fill:url(#linearGradient3212);fill-opacity:1;fill-rule:evenodd;stroke:none"
       id="path3206"
       d="m 642.5714,570.36216 a 2,2 0 0 1 -4,0 2,2 0 1 1 4,0 z" />
    <path
       style="fill:#38b9fe;fill-opacity:1;fill-rule:evenodd;stroke:none"
       id="path3208"
       d="m 641.57139,570.36216 a 1,1 0 0 1 -2,0 1,1 0 1 1 2,0 z" />
    <g
       id="g3262"
       transform="translate(-6.5e-6,39.99836)">
      <path
         style="fill:url(#linearGradient3268);fill-opacity:1;fill-rule:evenodd;stroke:none"
         id="path3264"
         d="m 598.5714,521.36517 a 2.0000009,2.0005318 0 0 1 -4,0 2.0000009,2.0005318 0 1 1 4,0 z" />
      <path
         style="fill:#38b9fe;fill-opacity:1;fill-rule:evenodd;stroke:none"
         id="path3266"
         d="m 597.57139,521.36517 a 1.0000033,1.0002689 0 0 1 -2,0 1.0000033,1.0002689 0 1 1 2,0 z" />
    </g>
    <g
       transform="translate(-6.5e-6,57.999423)"
       id="g3270">
      <path
         d="m 598.5714,521.36517 a 2.0000009,2.0005318 0 0 1 -4,0 2.0000009,2.0005318 0 1 1 4,0 z"
         id="path3272"
         style="fill:url(#linearGradient3276);fill-opacity:1;fill-rule:evenodd;stroke:none" />
      <path
         d="m 597.57139,521.36517 a 1.0000033,1.0002689 0 0 1 -2,0 1.0000033,1.0002689 0 1 1 2,0 z"
         id="path3274"
         style="fill:#38b9fe;fill-opacity:1;fill-rule:evenodd;stroke:none" />
    </g>
    <g
       id="g3278"
       transform="translate(-30.000006,57.999423)">
      <path
         style="fill:url(#linearGradient3284);fill-opacity:1;fill-rule:evenodd;stroke:none"
         id="path3280"
         d="m 598.5714,521.36517 a 2.0000009,2.0005318 0 0 1 -4,0 2.0000009,2.0005318 0 1 1 4,0 z" />
      <path
         style="fill:#38b9fe;fill-opacity:1;fill-rule:evenodd;stroke:none"
         id="path3282"
         d="m 597.57139,521.36517 a 1.0000033,1.0002689 0 0 1 -2,0 1.0000033,1.0002689 0 1 1 2,0 z" />
    </g>
    <path
       style="fill:#000000;fill-opacity:1;fill-rule:evenodd;stroke:none;filter:url(#filter4070)"
       id="path4056"
       d="m 71.999992,-23.500019 a 7.5,7.5 0 0 1 -7.5,7.5 7.5,7.5 0 0 1 -7.5,-7.5 7.5,7.5 0 0 1 7.5,-7.5 7.5,7.5 0 0 1 7.5,7.5 z"
       transform="translate(518.5714,595.36218)" />
    <path
       transform="translate(517.5714,594.36218)"
       d="m 71.999992,-23.500019 a 7.5,7.5 0 0 1 -7.5,7.5 7.5,7.5 0 0 1 -7.5,-7.5 7.5,7.5 0 0 1 7.5,-7.5 7.5,7.5 0 0 1 7.5,7.5 z"
       id="path3286"
       style="fill:url(#linearGradient4104);fill-opacity:1;fill-rule:evenodd;stroke:none" />
    <path
       style="fill:url(#radialGradient4094);fill-opacity:1;fill-rule:evenodd;stroke:none"
       id="path4074"
       d="m 71.999992,-23.500019 a 7.5,7.5 0 0 1 -7.5,7.5 7.5,7.5 0 0 1 -7.5,-7.5 7.5,7.5 0 0 1 7.5,-7.5 7.5,7.5 0 0 1 7.5,7.5 z"
       transform="matrix(0.73333321,0,0,0.73333321,534.77141,588.09551)" />
    <g
       transform="translate(-2.4662813e-5,41.999953)"
       id="g4158">
      <g
         transform="translate(0.06709728,2.1276584)"
         id="g4140"
         style="fill:#000000;fill-opacity:1;filter:url(#filter4150)">
        <path
           style="fill:#000000;fill-opacity:1;fill-rule:evenodd;stroke:none"
           d="m 619.1916,519.82684 c -0.36318,-0.0254 -0.73937,0.0473 -1.09375,0.1875 -0.39541,0.15426 -0.75197,0.40379 -1.03125,0.75 -0.0731,0.0896 -0.1282,0.18347 -0.1875,0.28125 -0.008,0.013 -0.0236,0.0181 -0.0312,0.0312 l -0.0312,0.0625 c -0.0182,0.0333 -0.0459,0.0597 -0.0625,0.0937 l -5.8125,10.09375 -0.0937,0.15625 c -0.007,0.012 -0.0245,0.0191 -0.0312,0.0312 -0.0641,0.11538 -0.1108,0.2492 -0.15625,0.375 -0.0305,0.0836 -0.0414,0.16498 -0.0625,0.25 -0.0153,0.0623 -0.0207,0.12343 -0.0312,0.1875 -0.0122,0.073 -0.0257,0.14551 -0.0312,0.21875 -0.005,0.064 -0.0312,0.12225 -0.0312,0.1875 0,0.0213 -5.3e-4,0.0413 0,0.0625 0.003,0.14715 0.0337,0.294 0.0625,0.4375 0.0191,0.0955 0.0324,0.18865 0.0625,0.28125 0.0323,0.0979 0.0814,0.18918 0.125,0.28125 0.0405,0.0857 0.0747,0.16903 0.125,0.25 0.0266,0.0433 0.0646,0.0835 0.0937,0.125 0.0262,0.0367 0.0342,0.0896 0.0625,0.125 0.0938,0.11892 0.1989,0.21256 0.3125,0.3125 0.11323,0.0996 0.24487,0.17202 0.375,0.25 0.013,0.008 0.0181,0.0236 0.0312,0.0312 0.012,0.007 0.0191,0.0245 0.0312,0.0312 0.11538,0.0641 0.2492,0.1108 0.375,0.15625 0.0212,0.008 0.0412,0.0241 0.0625,0.0312 0.0923,0.0305 0.18451,0.0428 0.28125,0.0625 0.0637,0.0131 0.12345,0.0232 0.1875,0.0312 0.10419,0.0131 0.20463,0.0312 0.3125,0.0312 0.0601,1.5e-4 0.12774,0.004 0.1875,0 l 11.625,0 0.1875,0 c 0.0607,-1.5e-4 0.12663,-0.0266 0.1875,-0.0312 0.0418,-0.003 0.0838,0.005 0.125,0 0.064,-0.008 0.12377,-0.0181 0.1875,-0.0312 0.0967,-0.0197 0.18899,-0.032 0.28125,-0.0625 0.0213,-0.007 0.0413,-0.0235 0.0625,-0.0312 0.1258,-0.0455 0.25962,-0.0922 0.375,-0.15625 0.0119,-0.007 0.0195,-0.0244 0.0312,-0.0312 0.0552,-0.0319 0.10445,-0.0585 0.15625,-0.0937 0.0886,-0.0598 0.17,-0.11712 0.25,-0.1875 0.1136,-0.0999 0.21871,-0.19358 0.3125,-0.3125 0.0145,-0.0184 0.0172,-0.0437 0.0312,-0.0625 0.0232,-0.0306 0.0409,-0.0623 0.0625,-0.0937 0.0648,-0.0961 0.13632,-0.2074 0.1875,-0.3125 0.021,-0.043 0.044,-0.0809 0.0625,-0.125 0.0424,-0.10059 0.0646,-0.20561 0.0937,-0.3125 0.0138,-0.0514 0.0208,-0.10401 0.0312,-0.15625 0.0288,-0.1435 0.0593,-0.29035 0.0625,-0.4375 4.3e-4,-0.02 5e-5,-0.0425 0,-0.0625 0,-0.10787 -0.0181,-0.2083 -0.0312,-0.3125 -0.008,-0.064 -0.0181,-0.12377 -0.0312,-0.1875 -0.0197,-0.0967 -0.032,-0.18899 -0.0625,-0.28125 -0.007,-0.0213 -0.0235,-0.0413 -0.0312,-0.0625 -0.0455,-0.1258 -0.0922,-0.25962 -0.15625,-0.375 -0.007,-0.0119 -0.0244,-0.0195 -0.0312,-0.0312 l -0.0937,-0.15625 -5.875,-10.1875 c -0.0182,-0.0333 -0.0428,-0.0612 -0.0625,-0.0937 -0.0608,-0.10106 -0.1155,-0.192 -0.1875,-0.28125 -0.0842,-0.10334 -0.17931,-0.19103 -0.28125,-0.28125 -0.12801,-0.11543 -0.25995,-0.22724 -0.40625,-0.3125 -0.10944,-0.0632 -0.2298,-0.11116 -0.34375,-0.15625 -0.0762,-0.0297 -0.14011,-0.0717 -0.21875,-0.0937 -0.12626,-0.0366 -0.24691,-0.0465 -0.375,-0.0625 -0.0428,-0.005 -0.0819,-0.0282 -0.125,-0.0312 z"
           id="path4142" />
        <path
           id="path4144"
           d="m 619.14148,521.64075 c -0.28678,-0.0198 -0.58383,0.0367 -0.86368,0.14598 -0.31224,0.1201 -0.59379,0.31439 -0.81432,0.58397 -0.0577,0.0698 -0.10121,0.14285 -0.14805,0.21898 -0.006,0.0103 -0.0186,0.0141 -0.0246,0.0242 l -0.0246,0.0486 c -0.0144,0.0259 -0.0363,0.0465 -0.0494,0.0729 l -4.58986,7.85927 -0.0739,0.12168 c -0.005,0.01 -0.0194,0.0149 -0.0246,0.0242 -0.0506,0.0898 -0.0876,0.19403 -0.1234,0.29199 -0.024,0.0652 -0.0327,0.12845 -0.0494,0.19465 -0.0121,0.0485 -0.0165,0.0961 -0.0246,0.146 -0.01,0.0568 -0.0203,0.1133 -0.0246,0.17032 -0.004,0.0497 -0.0246,0.0952 -0.0246,0.146 0,0.0166 -4.2e-4,0.0321 0,0.0486 0.003,0.11457 0.0266,0.2289 0.0493,0.34064 0.0151,0.0743 0.0256,0.1469 0.0494,0.21899 0.0255,0.0762 0.0642,0.14731 0.0987,0.219 0.0319,0.0668 0.059,0.1316 0.0987,0.19465 0.0211,0.0337 0.051,0.0651 0.0739,0.0974 0.0207,0.0286 0.027,0.0698 0.0493,0.0973 0.074,0.0925 0.15707,0.1655 0.24677,0.24333 0.0895,0.0776 0.19336,0.13393 0.29612,0.19465 0.0104,0.006 0.0144,0.0183 0.0246,0.0242 0.01,0.005 0.015,0.0191 0.0246,0.0242 0.091,0.0498 0.1968,0.0864 0.29613,0.12166 0.0168,0.006 0.0325,0.0188 0.0494,0.0242 0.073,0.0237 0.14571,0.0333 0.22209,0.0486 0.0503,0.0102 0.0975,0.018 0.14806,0.0242 0.0821,0.0102 0.16158,0.0242 0.24677,0.0242 0.0475,1.3e-4 0.10089,0.004 0.14807,0 l 9.17969,0 0.14803,0 c 0.048,-10e-5 0.10008,-0.0208 0.14807,-0.0242 0.0331,-0.003 0.0661,0.004 0.0987,0 0.0505,-0.006 0.0978,-0.0142 0.14806,-0.0242 0.0763,-0.0153 0.14924,-0.0248 0.2221,-0.0486 0.0169,-0.005 0.0325,-0.0182 0.0494,-0.0242 0.0993,-0.0353 0.20501,-0.0718 0.29611,-0.12166 0.01,-0.005 0.0153,-0.0189 0.0246,-0.0242 0.0435,-0.0247 0.0824,-0.0455 0.12338,-0.0729 0.07,-0.0466 0.13424,-0.0913 0.19742,-0.14599 0.0897,-0.0779 0.1727,-0.15072 0.24676,-0.24331 0.0114,-0.0144 0.0136,-0.0342 0.0246,-0.0486 0.0182,-0.0238 0.0324,-0.0486 0.0494,-0.0729 0.0512,-0.0748 0.10764,-0.16147 0.14805,-0.24331 0.0166,-0.0335 0.0348,-0.063 0.0494,-0.0973 0.0335,-0.0784 0.051,-0.16009 0.074,-0.24332 0.0109,-0.04 0.0165,-0.081 0.0246,-0.12167 0.0228,-0.11172 0.0468,-0.22607 0.0495,-0.34064 3.4e-4,-0.0157 5e-5,-0.0331 0,-0.0486 0,-0.084 -0.0143,-0.16219 -0.0246,-0.24334 -0.006,-0.0498 -0.0143,-0.0963 -0.0246,-0.14599 -0.0156,-0.0752 -0.0252,-0.14714 -0.0493,-0.21898 -0.005,-0.0166 -0.0185,-0.0321 -0.0246,-0.0486 -0.0361,-0.0979 -0.0729,-0.20215 -0.12339,-0.29199 -0.005,-0.01 -0.0193,-0.0151 -0.0246,-0.0242 l -0.074,-0.12168 -4.6392,-7.93225 c -0.0144,-0.0259 -0.0339,-0.0476 -0.0493,-0.0729 -0.0481,-0.0787 -0.0911,-0.14949 -0.14807,-0.21898 -0.0664,-0.0806 -0.14159,-0.14874 -0.22208,-0.21899 -0.10109,-0.0899 -0.20527,-0.17694 -0.32081,-0.24331 -0.0864,-0.0492 -0.18144,-0.0867 -0.27144,-0.12166 -0.0601,-0.0232 -0.11063,-0.0558 -0.17273,-0.0729 -0.0996,-0.0285 -0.19496,-0.0362 -0.29612,-0.0487 -0.0339,-0.004 -0.0648,-0.022 -0.0987,-0.0242 z"
           style="fill:#000000;fill-opacity:1;fill-rule:evenodd;stroke:none" />
        <rect
           style="fill:#000000;fill-opacity:1;fill-rule:evenodd;stroke:none"
           id="rect4146"
           width="3.0000017"
           height="6.9999776"
           x="617.57141"
           y="522.56348"
           rx="2.7941992"
           ry="4.7416534" />
        <path
           style="fill:#000000;fill-opacity:1;fill-rule:evenodd;stroke:none"
           id="path4148"
           d="m 101.99999,-21.500019 a 1.5,1.5 0 0 1 -1.5,1.5 1.5,1.5 0 0 1 -1.499998,-1.5 1.5,1.5 0 0 1 1.499998,-1.5 1.5,1.5 0 0 1 1.5,1.5 z"
           transform="translate(518.57141,553.36218)" />
      </g>
      <g
         id="g4134"
         transform="translate(-0.93290272,1.1276584)">
        <path
           id="rect4121"
           d="m 619.1916,519.82684 c -0.36318,-0.0254 -0.73937,0.0473 -1.09375,0.1875 -0.39541,0.15426 -0.75197,0.40379 -1.03125,0.75 -0.0731,0.0896 -0.1282,0.18347 -0.1875,0.28125 -0.008,0.013 -0.0236,0.0181 -0.0312,0.0312 l -0.0312,0.0625 c -0.0182,0.0333 -0.0459,0.0597 -0.0625,0.0937 l -5.8125,10.09375 -0.0937,0.15625 c -0.007,0.012 -0.0245,0.0191 -0.0312,0.0312 -0.0641,0.11538 -0.1108,0.2492 -0.15625,0.375 -0.0305,0.0836 -0.0414,0.16498 -0.0625,0.25 -0.0153,0.0623 -0.0207,0.12343 -0.0312,0.1875 -0.0122,0.073 -0.0257,0.14551 -0.0312,0.21875 -0.005,0.064 -0.0312,0.12225 -0.0312,0.1875 0,0.0213 -5.3e-4,0.0413 0,0.0625 0.003,0.14715 0.0337,0.294 0.0625,0.4375 0.0191,0.0955 0.0324,0.18865 0.0625,0.28125 0.0323,0.0979 0.0814,0.18918 0.125,0.28125 0.0405,0.0857 0.0747,0.16903 0.125,0.25 0.0266,0.0433 0.0646,0.0835 0.0937,0.125 0.0262,0.0367 0.0342,0.0896 0.0625,0.125 0.0938,0.11892 0.1989,0.21256 0.3125,0.3125 0.11323,0.0996 0.24487,0.17202 0.375,0.25 0.013,0.008 0.0181,0.0236 0.0312,0.0312 0.012,0.007 0.0191,0.0245 0.0312,0.0312 0.11538,0.0641 0.2492,0.1108 0.375,0.15625 0.0212,0.008 0.0412,0.0241 0.0625,0.0312 0.0923,0.0305 0.18451,0.0428 0.28125,0.0625 0.0637,0.0131 0.12345,0.0232 0.1875,0.0312 0.10419,0.0131 0.20463,0.0312 0.3125,0.0312 0.0601,1.5e-4 0.12774,0.004 0.1875,0 l 11.625,0 0.1875,0 c 0.0607,-1.5e-4 0.12663,-0.0266 0.1875,-0.0312 0.0418,-0.003 0.0838,0.005 0.125,0 0.064,-0.008 0.12377,-0.0181 0.1875,-0.0312 0.0967,-0.0197 0.18899,-0.032 0.28125,-0.0625 0.0213,-0.007 0.0413,-0.0235 0.0625,-0.0312 0.1258,-0.0455 0.25962,-0.0922 0.375,-0.15625 0.0119,-0.007 0.0195,-0.0244 0.0312,-0.0312 0.0552,-0.0319 0.10445,-0.0585 0.15625,-0.0937 0.0886,-0.0598 0.17,-0.11712 0.25,-0.1875 0.1136,-0.0999 0.21871,-0.19358 0.3125,-0.3125 0.0145,-0.0184 0.0172,-0.0437 0.0312,-0.0625 0.0232,-0.0306 0.0409,-0.0623 0.0625,-0.0937 0.0648,-0.0961 0.13632,-0.2074 0.1875,-0.3125 0.021,-0.043 0.044,-0.0809 0.0625,-0.125 0.0424,-0.10059 0.0646,-0.20561 0.0937,-0.3125 0.0138,-0.0514 0.0208,-0.10401 0.0312,-0.15625 0.0288,-0.1435 0.0593,-0.29035 0.0625,-0.4375 4.3e-4,-0.02 5e-5,-0.0425 0,-0.0625 0,-0.10787 -0.0181,-0.2083 -0.0312,-0.3125 -0.008,-0.064 -0.0181,-0.12377 -0.0312,-0.1875 -0.0197,-0.0967 -0.032,-0.18899 -0.0625,-0.28125 -0.007,-0.0213 -0.0235,-0.0413 -0.0312,-0.0625 -0.0455,-0.1258 -0.0922,-0.25962 -0.15625,-0.375 -0.007,-0.0119 -0.0244,-0.0195 -0.0312,-0.0312 l -0.0937,-0.15625 -5.875,-10.1875 c -0.0182,-0.0333 -0.0428,-0.0612 -0.0625,-0.0937 -0.0608,-0.10106 -0.1155,-0.192 -0.1875,-0.28125 -0.0842,-0.10334 -0.17931,-0.19103 -0.28125,-0.28125 -0.12801,-0.11543 -0.25995,-0.22724 -0.40625,-0.3125 -0.10944,-0.0632 -0.2298,-0.11116 -0.34375,-0.15625 -0.0762,-0.0297 -0.14011,-0.0717 -0.21875,-0.0937 -0.12626,-0.0366 -0.24691,-0.0465 -0.375,-0.0625 -0.0428,-0.005 -0.0819,-0.0282 -0.125,-0.0312 z"
           style="fill:#ff0000;fill-opacity:1;fill-rule:evenodd;stroke:none" />
        <path
           style="fill:#ffffff;fill-opacity:1;fill-rule:evenodd;stroke:none"
           d="m 619.14148,521.64075 c -0.28678,-0.0198 -0.58383,0.0367 -0.86368,0.14598 -0.31224,0.1201 -0.59379,0.31439 -0.81432,0.58397 -0.0577,0.0698 -0.10121,0.14285 -0.14805,0.21898 -0.006,0.0103 -0.0186,0.0141 -0.0246,0.0242 l -0.0246,0.0486 c -0.0144,0.0259 -0.0363,0.0465 -0.0494,0.0729 l -4.58986,7.85927 -0.0739,0.12168 c -0.005,0.01 -0.0194,0.0149 -0.0246,0.0242 -0.0506,0.0898 -0.0876,0.19403 -0.1234,0.29199 -0.024,0.0652 -0.0327,0.12845 -0.0494,0.19465 -0.0121,0.0485 -0.0165,0.0961 -0.0246,0.146 -0.01,0.0568 -0.0203,0.1133 -0.0246,0.17032 -0.004,0.0497 -0.0246,0.0952 -0.0246,0.146 0,0.0166 -4.2e-4,0.0321 0,0.0486 0.003,0.11457 0.0266,0.2289 0.0493,0.34064 0.0151,0.0743 0.0256,0.1469 0.0494,0.21899 0.0255,0.0762 0.0642,0.14731 0.0987,0.219 0.0319,0.0668 0.059,0.1316 0.0987,0.19465 0.0211,0.0337 0.051,0.0651 0.0739,0.0974 0.0207,0.0286 0.027,0.0698 0.0493,0.0973 0.074,0.0925 0.15707,0.1655 0.24677,0.24333 0.0895,0.0776 0.19336,0.13393 0.29612,0.19465 0.0104,0.006 0.0144,0.0183 0.0246,0.0242 0.01,0.005 0.015,0.0191 0.0246,0.0242 0.091,0.0498 0.1968,0.0864 0.29613,0.12166 0.0168,0.006 0.0325,0.0188 0.0494,0.0242 0.073,0.0237 0.14571,0.0333 0.22209,0.0486 0.0503,0.0102 0.0975,0.018 0.14806,0.0242 0.0821,0.0102 0.16158,0.0242 0.24677,0.0242 0.0475,1.3e-4 0.10089,0.004 0.14807,0 l 9.17969,0 0.14803,0 c 0.048,-10e-5 0.10008,-0.0208 0.14807,-0.0242 0.0331,-0.003 0.0661,0.004 0.0987,0 0.0505,-0.006 0.0978,-0.0142 0.14806,-0.0242 0.0763,-0.0153 0.14924,-0.0248 0.2221,-0.0486 0.0169,-0.005 0.0325,-0.0182 0.0494,-0.0242 0.0993,-0.0353 0.20501,-0.0718 0.29611,-0.12166 0.01,-0.005 0.0153,-0.0189 0.0246,-0.0242 0.0435,-0.0247 0.0824,-0.0455 0.12338,-0.0729 0.07,-0.0466 0.13424,-0.0913 0.19742,-0.14599 0.0897,-0.0779 0.1727,-0.15072 0.24676,-0.24331 0.0114,-0.0144 0.0136,-0.0342 0.0246,-0.0486 0.0182,-0.0238 0.0324,-0.0486 0.0494,-0.0729 0.0512,-0.0748 0.10764,-0.16147 0.14805,-0.24331 0.0166,-0.0335 0.0348,-0.063 0.0494,-0.0973 0.0335,-0.0784 0.051,-0.16009 0.074,-0.24332 0.0109,-0.04 0.0165,-0.081 0.0246,-0.12167 0.0228,-0.11172 0.0468,-0.22607 0.0495,-0.34064 3.4e-4,-0.0157 5e-5,-0.0331 0,-0.0486 0,-0.084 -0.0143,-0.16219 -0.0246,-0.24334 -0.006,-0.0498 -0.0143,-0.0963 -0.0246,-0.14599 -0.0156,-0.0752 -0.0252,-0.14714 -0.0493,-0.21898 -0.005,-0.0166 -0.0185,-0.0321 -0.0246,-0.0486 -0.0361,-0.0979 -0.0729,-0.20215 -0.12339,-0.29199 -0.005,-0.01 -0.0193,-0.0151 -0.0246,-0.0242 l -0.074,-0.12168 -4.6392,-7.93225 c -0.0144,-0.0259 -0.0339,-0.0476 -0.0493,-0.0729 -0.0481,-0.0787 -0.0911,-0.14949 -0.14807,-0.21898 -0.0664,-0.0806 -0.14159,-0.14874 -0.22208,-0.21899 -0.10109,-0.0899 -0.20527,-0.17694 -0.32081,-0.24331 -0.0864,-0.0492 -0.18144,-0.0867 -0.27144,-0.12166 -0.0601,-0.0232 -0.11063,-0.0558 -0.17273,-0.0729 -0.0996,-0.0285 -0.19496,-0.0362 -0.29612,-0.0487 -0.0339,-0.004 -0.0648,-0.022 -0.0987,-0.0242 z"
           id="path4128" />
        <rect
           ry="4.7416534"
           rx="2.7941992"
           y="522.56348"
           x="617.57141"
           height="6.9999776"
           width="3.0000017"
           id="rect4130"
           style="fill:#000000;fill-opacity:1;fill-rule:evenodd;stroke:none" />
        <path
           transform="translate(518.57141,553.36218)"
           d="m 101.99999,-21.500019 a 1.5,1.5 0 0 1 -1.5,1.5 1.5,1.5 0 0 1 -1.499998,-1.5 1.5,1.5 0 0 1 1.499998,-1.5 1.5,1.5 0 0 1 1.5,1.5 z"
           id="path4132"
           style="fill:#000000;fill-opacity:1;fill-rule:evenodd;stroke:none" />
      </g>
    </g>
    <g
       transform="translate(-74.889554,42.110423)"
       id="g4170">
      <g
         style="fill:#000000;fill-opacity:1;filter:url(#filter4150)"
         id="g4172"
         transform="translate(0.06709728,2.1276584)">
        <path
           id="path4174"
           d="m 619.1916,519.82684 c -0.36318,-0.0254 -0.73937,0.0473 -1.09375,0.1875 -0.39541,0.15426 -0.75197,0.40379 -1.03125,0.75 -0.0731,0.0896 -0.1282,0.18347 -0.1875,0.28125 -0.008,0.013 -0.0236,0.0181 -0.0312,0.0312 l -0.0312,0.0625 c -0.0182,0.0333 -0.0459,0.0597 -0.0625,0.0937 l -5.8125,10.09375 -0.0937,0.15625 c -0.007,0.012 -0.0245,0.0191 -0.0312,0.0312 -0.0641,0.11538 -0.1108,0.2492 -0.15625,0.375 -0.0305,0.0836 -0.0414,0.16498 -0.0625,0.25 -0.0153,0.0623 -0.0207,0.12343 -0.0312,0.1875 -0.0122,0.073 -0.0257,0.14551 -0.0312,0.21875 -0.005,0.064 -0.0312,0.12225 -0.0312,0.1875 0,0.0213 -5.3e-4,0.0413 0,0.0625 0.003,0.14715 0.0337,0.294 0.0625,0.4375 0.0191,0.0955 0.0324,0.18865 0.0625,0.28125 0.0323,0.0979 0.0814,0.18918 0.125,0.28125 0.0405,0.0857 0.0747,0.16903 0.125,0.25 0.0266,0.0433 0.0646,0.0835 0.0937,0.125 0.0262,0.0367 0.0342,0.0896 0.0625,0.125 0.0938,0.11892 0.1989,0.21256 0.3125,0.3125 0.11323,0.0996 0.24487,0.17202 0.375,0.25 0.013,0.008 0.0181,0.0236 0.0312,0.0312 0.012,0.007 0.0191,0.0245 0.0312,0.0312 0.11538,0.0641 0.2492,0.1108 0.375,0.15625 0.0212,0.008 0.0412,0.0241 0.0625,0.0312 0.0923,0.0305 0.18451,0.0428 0.28125,0.0625 0.0637,0.0131 0.12345,0.0232 0.1875,0.0312 0.10419,0.0131 0.20463,0.0312 0.3125,0.0312 0.0601,1.5e-4 0.12774,0.004 0.1875,0 l 11.625,0 0.1875,0 c 0.0607,-1.5e-4 0.12663,-0.0266 0.1875,-0.0312 0.0418,-0.003 0.0838,0.005 0.125,0 0.064,-0.008 0.12377,-0.0181 0.1875,-0.0312 0.0967,-0.0197 0.18899,-0.032 0.28125,-0.0625 0.0213,-0.007 0.0413,-0.0235 0.0625,-0.0312 0.1258,-0.0455 0.25962,-0.0922 0.375,-0.15625 0.0119,-0.007 0.0195,-0.0244 0.0312,-0.0312 0.0552,-0.0319 0.10445,-0.0585 0.15625,-0.0937 0.0886,-0.0598 0.17,-0.11712 0.25,-0.1875 0.1136,-0.0999 0.21871,-0.19358 0.3125,-0.3125 0.0145,-0.0184 0.0172,-0.0437 0.0312,-0.0625 0.0232,-0.0306 0.0409,-0.0623 0.0625,-0.0937 0.0648,-0.0961 0.13632,-0.2074 0.1875,-0.3125 0.021,-0.043 0.044,-0.0809 0.0625,-0.125 0.0424,-0.10059 0.0646,-0.20561 0.0937,-0.3125 0.0138,-0.0514 0.0208,-0.10401 0.0312,-0.15625 0.0288,-0.1435 0.0593,-0.29035 0.0625,-0.4375 4.3e-4,-0.02 5e-5,-0.0425 0,-0.0625 0,-0.10787 -0.0181,-0.2083 -0.0312,-0.3125 -0.008,-0.064 -0.0181,-0.12377 -0.0312,-0.1875 -0.0197,-0.0967 -0.032,-0.18899 -0.0625,-0.28125 -0.007,-0.0213 -0.0235,-0.0413 -0.0312,-0.0625 -0.0455,-0.1258 -0.0922,-0.25962 -0.15625,-0.375 -0.007,-0.0119 -0.0244,-0.0195 -0.0312,-0.0312 l -0.0937,-0.15625 -5.875,-10.1875 c -0.0182,-0.0333 -0.0428,-0.0612 -0.0625,-0.0937 -0.0608,-0.10106 -0.1155,-0.192 -0.1875,-0.28125 -0.0842,-0.10334 -0.17931,-0.19103 -0.28125,-0.28125 -0.12801,-0.11543 -0.25995,-0.22724 -0.40625,-0.3125 -0.10944,-0.0632 -0.2298,-0.11116 -0.34375,-0.15625 -0.0762,-0.0297 -0.14011,-0.0717 -0.21875,-0.0937 -0.12626,-0.0366 -0.24691,-0.0465 -0.375,-0.0625 -0.0428,-0.005 -0.0819,-0.0282 -0.125,-0.0312 z"
           style="fill:#000000;fill-opacity:1;fill-rule:evenodd;stroke:none" />
        <path
           style="fill:#000000;fill-opacity:1;fill-rule:evenodd;stroke:none"
           d="m 619.14148,521.64075 c -0.28678,-0.0198 -0.58383,0.0367 -0.86368,0.14598 -0.31224,0.1201 -0.59379,0.31439 -0.81432,0.58397 -0.0577,0.0698 -0.10121,0.14285 -0.14805,0.21898 -0.006,0.0103 -0.0186,0.0141 -0.0246,0.0242 l -0.0246,0.0486 c -0.0144,0.0259 -0.0363,0.0465 -0.0494,0.0729 l -4.58986,7.85927 -0.0739,0.12168 c -0.005,0.01 -0.0194,0.0149 -0.0246,0.0242 -0.0506,0.0898 -0.0876,0.19403 -0.1234,0.29199 -0.024,0.0652 -0.0327,0.12845 -0.0494,0.19465 -0.0121,0.0485 -0.0165,0.0961 -0.0246,0.146 -0.01,0.0568 -0.0203,0.1133 -0.0246,0.17032 -0.004,0.0497 -0.0246,0.0952 -0.0246,0.146 0,0.0166 -4.2e-4,0.0321 0,0.0486 0.003,0.11457 0.0266,0.2289 0.0493,0.34064 0.0151,0.0743 0.0256,0.1469 0.0494,0.21899 0.0255,0.0762 0.0642,0.14731 0.0987,0.219 0.0319,0.0668 0.059,0.1316 0.0987,0.19465 0.0211,0.0337 0.051,0.0651 0.0739,0.0974 0.0207,0.0286 0.027,0.0698 0.0493,0.0973 0.074,0.0925 0.15707,0.1655 0.24677,0.24333 0.0895,0.0776 0.19336,0.13393 0.29612,0.19465 0.0104,0.006 0.0144,0.0183 0.0246,0.0242 0.01,0.005 0.015,0.0191 0.0246,0.0242 0.091,0.0498 0.1968,0.0864 0.29613,0.12166 0.0168,0.006 0.0325,0.0188 0.0494,0.0242 0.073,0.0237 0.14571,0.0333 0.22209,0.0486 0.0503,0.0102 0.0975,0.018 0.14806,0.0242 0.0821,0.0102 0.16158,0.0242 0.24677,0.0242 0.0475,1.3e-4 0.10089,0.004 0.14807,0 l 9.17969,0 0.14803,0 c 0.048,-10e-5 0.10008,-0.0208 0.14807,-0.0242 0.0331,-0.003 0.0661,0.004 0.0987,0 0.0505,-0.006 0.0978,-0.0142 0.14806,-0.0242 0.0763,-0.0153 0.14924,-0.0248 0.2221,-0.0486 0.0169,-0.005 0.0325,-0.0182 0.0494,-0.0242 0.0993,-0.0353 0.20501,-0.0718 0.29611,-0.12166 0.01,-0.005 0.0153,-0.0189 0.0246,-0.0242 0.0435,-0.0247 0.0824,-0.0455 0.12338,-0.0729 0.07,-0.0466 0.13424,-0.0913 0.19742,-0.14599 0.0897,-0.0779 0.1727,-0.15072 0.24676,-0.24331 0.0114,-0.0144 0.0136,-0.0342 0.0246,-0.0486 0.0182,-0.0238 0.0324,-0.0486 0.0494,-0.0729 0.0512,-0.0748 0.10764,-0.16147 0.14805,-0.24331 0.0166,-0.0335 0.0348,-0.063 0.0494,-0.0973 0.0335,-0.0784 0.051,-0.16009 0.074,-0.24332 0.0109,-0.04 0.0165,-0.081 0.0246,-0.12167 0.0228,-0.11172 0.0468,-0.22607 0.0495,-0.34064 3.4e-4,-0.0157 5e-5,-0.0331 0,-0.0486 0,-0.084 -0.0143,-0.16219 -0.0246,-0.24334 -0.006,-0.0498 -0.0143,-0.0963 -0.0246,-0.14599 -0.0156,-0.0752 -0.0252,-0.14714 -0.0493,-0.21898 -0.005,-0.0166 -0.0185,-0.0321 -0.0246,-0.0486 -0.0361,-0.0979 -0.0729,-0.20215 -0.12339,-0.29199 -0.005,-0.01 -0.0193,-0.0151 -0.0246,-0.0242 l -0.074,-0.12168 -4.6392,-7.93225 c -0.0144,-0.0259 -0.0339,-0.0476 -0.0493,-0.0729 -0.0481,-0.0787 -0.0911,-0.14949 -0.14807,-0.21898 -0.0664,-0.0806 -0.14159,-0.14874 -0.22208,-0.21899 -0.10109,-0.0899 -0.20527,-0.17694 -0.32081,-0.24331 -0.0864,-0.0492 -0.18144,-0.0867 -0.27144,-0.12166 -0.0601,-0.0232 -0.11063,-0.0558 -0.17273,-0.0729 -0.0996,-0.0285 -0.19496,-0.0362 -0.29612,-0.0487 -0.0339,-0.004 -0.0648,-0.022 -0.0987,-0.0242 z"
           id="path4176" />
        <rect
           ry="4.7416534"
           rx="2.7941992"
           y="522.56348"
           x="617.57141"
           height="6.9999776"
           width="3.0000017"
           id="rect4178"
           style="fill:#000000;fill-opacity:1;fill-rule:evenodd;stroke:none" />
        <path
           transform="translate(518.57141,553.36218)"
           d="m 101.99999,-21.500019 a 1.5,1.5 0 0 1 -1.5,1.5 1.5,1.5 0 0 1 -1.499998,-1.5 1.5,1.5 0 0 1 1.499998,-1.5 1.5,1.5 0 0 1 1.5,1.5 z"
           id="path4180"
           style="fill:#000000;fill-opacity:1;fill-rule:evenodd;stroke:none" />
      </g>
      <g
         transform="translate(-0.93290272,1.1276584)"
         id="g4182">
        <path
           style="fill:#ff0000;fill-opacity:1;fill-rule:evenodd;stroke:none"
           d="m 619.1916,519.82684 c -0.36318,-0.0254 -0.73937,0.0473 -1.09375,0.1875 -0.39541,0.15426 -0.75197,0.40379 -1.03125,0.75 -0.0731,0.0896 -0.1282,0.18347 -0.1875,0.28125 -0.008,0.013 -0.0236,0.0181 -0.0312,0.0312 l -0.0312,0.0625 c -0.0182,0.0333 -0.0459,0.0597 -0.0625,0.0937 l -5.8125,10.09375 -0.0937,0.15625 c -0.007,0.012 -0.0245,0.0191 -0.0312,0.0312 -0.0641,0.11538 -0.1108,0.2492 -0.15625,0.375 -0.0305,0.0836 -0.0414,0.16498 -0.0625,0.25 -0.0153,0.0623 -0.0207,0.12343 -0.0312,0.1875 -0.0122,0.073 -0.0257,0.14551 -0.0312,0.21875 -0.005,0.064 -0.0312,0.12225 -0.0312,0.1875 0,0.0213 -5.3e-4,0.0413 0,0.0625 0.003,0.14715 0.0337,0.294 0.0625,0.4375 0.0191,0.0955 0.0324,0.18865 0.0625,0.28125 0.0323,0.0979 0.0814,0.18918 0.125,0.28125 0.0405,0.0857 0.0747,0.16903 0.125,0.25 0.0266,0.0433 0.0646,0.0835 0.0937,0.125 0.0262,0.0367 0.0342,0.0896 0.0625,0.125 0.0938,0.11892 0.1989,0.21256 0.3125,0.3125 0.11323,0.0996 0.24487,0.17202 0.375,0.25 0.013,0.008 0.0181,0.0236 0.0312,0.0312 0.012,0.007 0.0191,0.0245 0.0312,0.0312 0.11538,0.0641 0.2492,0.1108 0.375,0.15625 0.0212,0.008 0.0412,0.0241 0.0625,0.0312 0.0923,0.0305 0.18451,0.0428 0.28125,0.0625 0.0637,0.0131 0.12345,0.0232 0.1875,0.0312 0.10419,0.0131 0.20463,0.0312 0.3125,0.0312 0.0601,1.5e-4 0.12774,0.004 0.1875,0 l 11.625,0 0.1875,0 c 0.0607,-1.5e-4 0.12663,-0.0266 0.1875,-0.0312 0.0418,-0.003 0.0838,0.005 0.125,0 0.064,-0.008 0.12377,-0.0181 0.1875,-0.0312 0.0967,-0.0197 0.18899,-0.032 0.28125,-0.0625 0.0213,-0.007 0.0413,-0.0235 0.0625,-0.0312 0.1258,-0.0455 0.25962,-0.0922 0.375,-0.15625 0.0119,-0.007 0.0195,-0.0244 0.0312,-0.0312 0.0552,-0.0319 0.10445,-0.0585 0.15625,-0.0937 0.0886,-0.0598 0.17,-0.11712 0.25,-0.1875 0.1136,-0.0999 0.21871,-0.19358 0.3125,-0.3125 0.0145,-0.0184 0.0172,-0.0437 0.0312,-0.0625 0.0232,-0.0306 0.0409,-0.0623 0.0625,-0.0937 0.0648,-0.0961 0.13632,-0.2074 0.1875,-0.3125 0.021,-0.043 0.044,-0.0809 0.0625,-0.125 0.0424,-0.10059 0.0646,-0.20561 0.0937,-0.3125 0.0138,-0.0514 0.0208,-0.10401 0.0312,-0.15625 0.0288,-0.1435 0.0593,-0.29035 0.0625,-0.4375 4.3e-4,-0.02 5e-5,-0.0425 0,-0.0625 0,-0.10787 -0.0181,-0.2083 -0.0312,-0.3125 -0.008,-0.064 -0.0181,-0.12377 -0.0312,-0.1875 -0.0197,-0.0967 -0.032,-0.18899 -0.0625,-0.28125 -0.007,-0.0213 -0.0235,-0.0413 -0.0312,-0.0625 -0.0455,-0.1258 -0.0922,-0.25962 -0.15625,-0.375 -0.007,-0.0119 -0.0244,-0.0195 -0.0312,-0.0312 l -0.0937,-0.15625 -5.875,-10.1875 c -0.0182,-0.0333 -0.0428,-0.0612 -0.0625,-0.0937 -0.0608,-0.10106 -0.1155,-0.192 -0.1875,-0.28125 -0.0842,-0.10334 -0.17931,-0.19103 -0.28125,-0.28125 -0.12801,-0.11543 -0.25995,-0.22724 -0.40625,-0.3125 -0.10944,-0.0632 -0.2298,-0.11116 -0.34375,-0.15625 -0.0762,-0.0297 -0.14011,-0.0717 -0.21875,-0.0937 -0.12626,-0.0366 -0.24691,-0.0465 -0.375,-0.0625 -0.0428,-0.005 -0.0819,-0.0282 -0.125,-0.0312 z"
           id="path4184" />
        <path
           id="path4186"
           d="m 619.14148,521.64075 c -0.28678,-0.0198 -0.58383,0.0367 -0.86368,0.14598 -0.31224,0.1201 -0.59379,0.31439 -0.81432,0.58397 -0.0577,0.0698 -0.10121,0.14285 -0.14805,0.21898 -0.006,0.0103 -0.0186,0.0141 -0.0246,0.0242 l -0.0246,0.0486 c -0.0144,0.0259 -0.0363,0.0465 -0.0494,0.0729 l -4.58986,7.85927 -0.0739,0.12168 c -0.005,0.01 -0.0194,0.0149 -0.0246,0.0242 -0.0506,0.0898 -0.0876,0.19403 -0.1234,0.29199 -0.024,0.0652 -0.0327,0.12845 -0.0494,0.19465 -0.0121,0.0485 -0.0165,0.0961 -0.0246,0.146 -0.01,0.0568 -0.0203,0.1133 -0.0246,0.17032 -0.004,0.0497 -0.0246,0.0952 -0.0246,0.146 0,0.0166 -4.2e-4,0.0321 0,0.0486 0.003,0.11457 0.0266,0.2289 0.0493,0.34064 0.0151,0.0743 0.0256,0.1469 0.0494,0.21899 0.0255,0.0762 0.0642,0.14731 0.0987,0.219 0.0319,0.0668 0.059,0.1316 0.0987,0.19465 0.0211,0.0337 0.051,0.0651 0.0739,0.0974 0.0207,0.0286 0.027,0.0698 0.0493,0.0973 0.074,0.0925 0.15707,0.1655 0.24677,0.24333 0.0895,0.0776 0.19336,0.13393 0.29612,0.19465 0.0104,0.006 0.0144,0.0183 0.0246,0.0242 0.01,0.005 0.015,0.0191 0.0246,0.0242 0.091,0.0498 0.1968,0.0864 0.29613,0.12166 0.0168,0.006 0.0325,0.0188 0.0494,0.0242 0.073,0.0237 0.14571,0.0333 0.22209,0.0486 0.0503,0.0102 0.0975,0.018 0.14806,0.0242 0.0821,0.0102 0.16158,0.0242 0.24677,0.0242 0.0475,1.3e-4 0.10089,0.004 0.14807,0 l 9.17969,0 0.14803,0 c 0.048,-10e-5 0.10008,-0.0208 0.14807,-0.0242 0.0331,-0.003 0.0661,0.004 0.0987,0 0.0505,-0.006 0.0978,-0.0142 0.14806,-0.0242 0.0763,-0.0153 0.14924,-0.0248 0.2221,-0.0486 0.0169,-0.005 0.0325,-0.0182 0.0494,-0.0242 0.0993,-0.0353 0.20501,-0.0718 0.29611,-0.12166 0.01,-0.005 0.0153,-0.0189 0.0246,-0.0242 0.0435,-0.0247 0.0824,-0.0455 0.12338,-0.0729 0.07,-0.0466 0.13424,-0.0913 0.19742,-0.14599 0.0897,-0.0779 0.1727,-0.15072 0.24676,-0.24331 0.0114,-0.0144 0.0136,-0.0342 0.0246,-0.0486 0.0182,-0.0238 0.0324,-0.0486 0.0494,-0.0729 0.0512,-0.0748 0.10764,-0.16147 0.14805,-0.24331 0.0166,-0.0335 0.0348,-0.063 0.0494,-0.0973 0.0335,-0.0784 0.051,-0.16009 0.074,-0.24332 0.0109,-0.04 0.0165,-0.081 0.0246,-0.12167 0.0228,-0.11172 0.0468,-0.22607 0.0495,-0.34064 3.4e-4,-0.0157 5e-5,-0.0331 0,-0.0486 0,-0.084 -0.0143,-0.16219 -0.0246,-0.24334 -0.006,-0.0498 -0.0143,-0.0963 -0.0246,-0.14599 -0.0156,-0.0752 -0.0252,-0.14714 -0.0493,-0.21898 -0.005,-0.0166 -0.0185,-0.0321 -0.0246,-0.0486 -0.0361,-0.0979 -0.0729,-0.20215 -0.12339,-0.29199 -0.005,-0.01 -0.0193,-0.0151 -0.0246,-0.0242 l -0.074,-0.12168 -4.6392,-7.93225 c -0.0144,-0.0259 -0.0339,-0.0476 -0.0493,-0.0729 -0.0481,-0.0787 -0.0911,-0.14949 -0.14807,-0.21898 -0.0664,-0.0806 -0.14159,-0.14874 -0.22208,-0.21899 -0.10109,-0.0899 -0.20527,-0.17694 -0.32081,-0.24331 -0.0864,-0.0492 -0.18144,-0.0867 -0.27144,-0.12166 -0.0601,-0.0232 -0.11063,-0.0558 -0.17273,-0.0729 -0.0996,-0.0285 -0.19496,-0.0362 -0.29612,-0.0487 -0.0339,-0.004 -0.0648,-0.022 -0.0987,-0.0242 z"
           style="fill:#ffffff;fill-opacity:1;fill-rule:evenodd;stroke:none" />
        <rect
           style="fill:#000000;fill-opacity:1;fill-rule:evenodd;stroke:none"
           id="rect4188"
           width="3.0000017"
           height="6.9999776"
           x="617.57141"
           y="522.56348"
           rx="2.7941992"
           ry="4.7416534" />
        <path
           style="fill:#000000;fill-opacity:1;fill-rule:evenodd;stroke:none"
           id="path4190"
           d="m 101.99999,-21.500019 a 1.5,1.5 0 0 1 -1.5,1.5 1.5,1.5 0 0 1 -1.499998,-1.5 1.5,1.5 0 0 1 1.499998,-1.5 1.5,1.5 0 0 1 1.5,1.5 z"
           transform="translate(518.57141,553.36218)" />
      </g>
    </g>
  </g>
</svg>
