<?xml version="1.0" encoding="UTF-8" standalone="no"?>
<svg
   xmlns:dc="http://purl.org/dc/elements/1.1/"
   xmlns:cc="http://creativecommons.org/ns#"
   xmlns:rdf="http://www.w3.org/1999/02/22-rdf-syntax-ns#"
   xmlns:svg="http://www.w3.org/2000/svg"
   xmlns="http://www.w3.org/2000/svg"
   xmlns:xlink="http://www.w3.org/1999/xlink"
   width="64"
   height="64"
   viewBox="0 0 64.000001 64.000001"
   id="svg7238"
   version="1.1">
  <defs
     id="defs7240">
    <linearGradient
       id="linearGradient4823">
      <stop
         id="stop4825"
         offset="0"
         style="stop-color:#ffffff;stop-opacity:1;" />
      <stop
         style="stop-color:#fff14d;stop-opacity:1;"
         offset="0.45594248"
         id="stop4827" />
      <stop
         id="stop4829"
         offset="1"
         style="stop-color:#ffed19;stop-opacity:0" />
    </linearGradient>
    <linearGradient
       id="linearGradient4350">
      <stop
         style="stop-color:#ffc36e;stop-opacity:1"
         offset="0"
         id="stop4352" />
      <stop
         style="stop-color:#ff0800;stop-opacity:1"
         offset="1"
         id="stop4354" />
    </linearGradient>
    <radialGradient
       xlink:href="#linearGradient4350"
       id="radialGradient4356"
       cx="22.142857"
       cy="5.071429"
       fx="22.142857"
       fy="5.071429"
       r="22.202366"
       gradientTransform="matrix(1,0,0,0.80231788,0,1.0025309)"
       gradientUnits="userSpaceOnUse" />
    <filter
       style="color-interpolation-filters:sRGB"
       id="filter4410"
       x="-0.15669875"
       width="1.3133975"
       y="-0.18963315"
       height="1.3792663">
      <feGaussianBlur
         stdDeviation="3.3857316"
         id="feGaussianBlur4412" />
    </filter>
    <filter
       style="color-interpolation-filters:sRGB"
       id="filter4798"
       x="-0.056694499"
       width="1.113389"
       y="-0.058775573"
       height="1.1175511">
      <feGaussianBlur
         stdDeviation="0.76029869"
         id="feGaussianBlur4800" />
    </filter>
    <filter
       style="color-interpolation-filters:sRGB"
       id="filter4802"
       x="-0.053505284"
       width="1.1070106"
       y="-0.059355647"
       height="1.1187113">
      <feGaussianBlur
         stdDeviation="0.76029869"
         id="feGaussianBlur4804" />
    </filter>
    <filter
       style="color-interpolation-filters:sRGB"
       id="filter4806"
       x="-0.080773204"
       width="1.1615464"
       y="-0.065787524"
       height="1.131575">
      <feGaussianBlur
         stdDeviation="0.76029869"
         id="feGaussianBlur4808" />
    </filter>
    <radialGradient
       xlink:href="#linearGradient4823"
       id="radialGradient4821"
       cx="35.129459"
       cy="32.772636"
       fx="35.129459"
       fy="32.772636"
       r="24.027082"
       gradientTransform="matrix(1.1827734,0.00121876,-0.00136763,1.3272387,-6.459165,-11.114539)"
       gradientUnits="userSpaceOnUse" />
    <filter
       style="color-interpolation-filters:sRGB"
       id="filter5007"
       x="-0.075697349"
       width="1.1513947"
       y="-0.094348332"
       height="1.1886967">
      <feGaussianBlur
         stdDeviation="1.4005502"
         id="feGaussianBlur5009" />
    </filter>
    <radialGradient
       xlink:href="#linearGradient4350"
       id="radialGradient5057"
       gradientUnits="userSpaceOnUse"
       gradientTransform="matrix(1,0,0,1.166298,10.825735,18.126271)"
       cx="19.133167"
       cy="11.530684"
       fx="19.133167"
       fy="11.530684"
       r="22.202366" />
    <radialGradient
       xlink:href="#linearGradient4350"
       id="radialGradient5111"
       gradientUnits="userSpaceOnUse"
       gradientTransform="matrix(1,0,0,0.80231788,0,1.0025309)"
       cx="22.142857"
       cy="5.071429"
       fx="22.142857"
       fy="5.071429"
       r="22.202366" />
    <radialGradient
       xlink:href="#linearGradient4350"
       id="radialGradient5113"
       gradientUnits="userSpaceOnUse"
       gradientTransform="matrix(1,0,0,0.80231788,0,1.0025309)"
       cx="22.142857"
       cy="5.071429"
       fx="22.142857"
       fy="5.071429"
       r="22.202366" />
    <radialGradient
       xlink:href="#linearGradient4350"
       id="radialGradient5115"
       gradientUnits="userSpaceOnUse"
       gradientTransform="matrix(1,0,0,0.80231788,0,1.0025309)"
       cx="22.142857"
       cy="5.071429"
       fx="22.142857"
       fy="5.071429"
       r="22.202366" />
    <radialGradient
       xlink:href="#linearGradient4823"
       id="radialGradient5117"
       gradientUnits="userSpaceOnUse"
       gradientTransform="matrix(1.1827734,0.00121876,-0.00136763,1.3272387,-6.459165,-11.114539)"
       cx="35.129459"
       cy="32.772636"
       fx="35.129459"
       fy="32.772636"
       r="24.027082" />
    <radialGradient
       xlink:href="#linearGradient4823"
       id="radialGradient5119"
       gradientUnits="userSpaceOnUse"
       gradientTransform="matrix(1.1827734,0.00121876,-0.00136763,1.3272387,-6.459165,-11.114539)"
       cx="35.129459"
       cy="32.772636"
       fx="35.129459"
       fy="32.772636"
       r="24.027082" />
    <radialGradient
       xlink:href="#linearGradient4823"
       id="radialGradient5121"
       gradientUnits="userSpaceOnUse"
       gradientTransform="matrix(1.1827734,0.00121876,-0.00136763,1.3272387,-6.459165,-11.114539)"
       cx="35.129459"
       cy="32.772636"
       fx="35.129459"
       fy="32.772636"
       r="24.027082" />
  </defs>
  <metadata
     id="metadata7243">
    <rdf:RDF>
      <cc:Work
         rdf:about="">
        <dc:format>image/svg+xml</dc:format>
        <dc:type
           rdf:resource="http://purl.org/dc/dcmitype/StillImage" />
        <dc:title></dc:title>
      </cc:Work>
    </rdf:RDF>
  </metadata>
  <g
     id="layer1">
    <g
       id="g5088"
       transform="translate(-1.2381736,1.4939194)">
      <path
         style="fill:url(#radialGradient5057);fill-opacity:1;fill-rule:evenodd;stroke:none;stroke-width:1px;stroke-linecap:butt;stroke-linejoin:miter;stroke-opacity:1;filter:url(#filter4410)"
         d="m 39.350948,29.395296 -2.182687,-7.262832 a 0.21346937,0.24297118 60.02688 0 1 0.08065,-0.237923 c 1.201303,-1.017756 2.789058,-1.614 4.418356,-1.620017 1.627495,-0.006 3.277988,0.577685 4.569748,1.655561 1.32074,1.104193 2.225106,2.679895 2.606454,4.37665 0.381373,1.695896 0.249357,3.486873 -0.28068,5.140873 -1.131145,3.28389 -3.733336,5.807408 -6.573957,7.518318 -1.6327,1.019041 -3.635584,1.944692 -5.857295,2.012282 -2.148661,0.06835 -4.171313,-0.664952 -5.877117,-1.581657 -1.640029,-0.880844 -3.241729,-2.069618 -4.572693,-2.937219 -2.261919,-1.537189 -5.404394,-3.258199 -7.743672,-5.658093 -3.400381,-3.531143 -5.126807,-8.421849 -5.150912,-13.227567 -0.01278,-1.690972 0.18452,-3.406587 0.608914,-5.073267 0.971749,-2.336187 2.389001,-4.4334261 4.224393,-6.0741745 1.605234,-1.037925 3.334623,-1.6959401 5.028368,-1.9897829 -1.185816,1.2466337 -2.048422,2.6648521 -2.573154,4.1026703 -0.988629,1.6371911 -1.529597,3.4800651 -1.703488,5.3231931 -0.362237,1.206881 -0.566097,2.481153 -0.610419,3.763957 -0.114942,3.684662 1.087689,7.413784 3.481795,10.088248 1.828276,2.075479 4.113708,3.402676 6.812527,5.438712 1.516628,1.186144 2.650551,2.219771 4.032649,3.124672 1.316972,0.862972 2.694397,1.454769 4.053075,1.534484 1.438362,0.08113 2.954956,-0.407188 4.499845,-1.202004 2.559429,-1.376385 4.777992,-3.393787 5.799615,-5.945504 0.546863,-1.26405 0.790517,-2.672724 0.621683,-4.038131 -0.168482,-1.364774 -0.765024,-2.701435 -1.740902,-3.694811 -0.95346,-0.973139 -2.282768,-1.618036 -3.693233,-1.753702 -1.363376,-0.131137 -2.798265,0.216697 -3.986242,0.995521 l 1.708381,7.221543 z"
         id="path5051" />
      <g
         style="fill:url(#radialGradient4356);fill-opacity:1;filter:url(#filter4410)"
         transform="translate(9.6890693,24.675385)"
         id="g4345">
        <path
           style="fill:url(#radialGradient5111);fill-opacity:1;fill-rule:evenodd;stroke:none;stroke-width:1px;stroke-linecap:butt;stroke-linejoin:miter;stroke-opacity:1"
           d="M 25.235161,7.7324959 C 24.16067,7.0304619 23.20533,6.1854538 22.384989,5.2327589 21.910135,5.5807025 21.290137,5.7337262 20.757715,5.6617773 20.112583,5.5745973 19.469157,5.1443131 19.142169,4.5813973 18.850653,4.0795494 18.714796,3.3374954 18.870414,2.553046 c 0.155059,-0.7816346 0.590442,-1.61500022 1.281363,-2.35343909 0.74609,-0.79740262 1.75904,-1.46264051 2.954088,-1.94408751 1.196231,-0.4819235 2.547478,-0.7750715 4.023738,-0.9247382 1.65299,-0.167584 3.228121,-0.1315789 4.679752,0.1629331 1.450978,0.2943794 2.757397,0.8493725 3.795729,1.62878343 1.369976,1.02835629 2.484078,2.60989767 3.235982,4.51254347 0.753973,1.9078834 1.137586,4.0619341 1.335359,6.4305828 0.336599,4.031311 0.101192,8.111696 -0.696782,12.077551 a 3.759595,3.759595 90 0 0 7.37145,1.483218 C 47.788654,18.966811 48.06502,14.176466 47.669541,9.4399773 47.440568,6.6976586 46.964997,3.733431 45.834,0.87151417 44.700935,-1.9956377 42.850824,-4.8404411 40.119055,-6.8910108 c -2.071507,-1.5549503 -4.454771,-2.5055543 -6.814638,-2.9843324 -2.359212,-0.4786448 -4.717579,-0.4993468 -6.93324,-0.2747188 -1.974247,0.2001541 -4.05439,0.6170261 -6.075105,1.4311079 -2.021896,0.8145575 -4.011431,2.0461739 -5.634888,3.7812842 -1.498051,1.6010809 -2.697859,3.6665669 -3.166234,6.0275835 -0.467815,2.3582009 -0.172387,4.9997414 1.145379,7.2682952 1.492761,2.5698062 4.165298,4.3570372 7.110432,4.7550292 2.512437,0.339518 5.077814,-0.349659 7.077895,-1.814855 -0.377105,-1.27795 -0.911762,-2.4779183 -1.593495,-3.5658871 z"
           id="path4165-4" />
        <path
           style="fill:url(#radialGradient5113);fill-opacity:1;fill-rule:evenodd;stroke:none;stroke-width:1px;stroke-linecap:butt;stroke-linejoin:miter;stroke-opacity:1"
           d="M 23.88236,6.8246159 C 22.752929,6.3834041 21.663616,5.8243529 20.629929,5.1573025 21.001516,4.2208767 21.572739,3.363394 22.306691,2.6568074 23.21073,1.7864745 24.339138,1.166913 25.55871,0.87125898 c 1.219572,-0.29565397 2.506429,-0.26161135 3.708664,0.0981093 1.202235,0.35972062 2.296307,1.03807592 3.153067,1.95498912 1.603816,1.7164196 2.183872,4.0574594 1.880888,6.1561219 -0.303853,2.1046647 -1.441425,3.9047227 -2.890721,5.1411657 -1.710903,1.459628 -3.796204,2.132393 -5.695004,2.312657 -1.894922,0.179895 -3.685912,-0.102409 -5.210115,-0.482917 -2.040261,-0.50934 -4.143055,-1.330592 -6.050575,-2.632342 C 12.547144,12.117121 10.820826,10.3081 9.7277326,8.0382367 8.4347892,5.3533745 8.2417347,2.4820747 8.2988582,0.12959431 8.3443545,-1.7440372 8.5559468,-3.7871785 9.1829644,-5.8171034 9.8109863,-7.8502779 10.88389,-9.9241825 12.560768,-11.616449 c 1.595373,-1.610013 3.536088,-2.671831 5.437328,-3.336517 1.897099,-0.663238 3.813385,-0.96047 5.567522,-1.114532 2.706468,-0.237703 5.438691,-0.171064 8.130353,0.198301 a 3.6202825,3.6202825 90 0 1 -0.984366,7.17334 c -2.155536,-0.2957946 -4.345109,-0.3491987 -6.512503,-0.1588412 -1.42858,0.1254691 -2.692608,0.3454738 -3.811478,0.7366379 -1.114728,0.389716 -2.030205,0.9385624 -2.683672,1.5980267 -0.68561,0.6919015 -1.240376,1.6660701 -1.602934,2.8398244 -0.363562,1.1770045 -0.527746,2.503749 -0.563728,3.98556448 -0.04648,1.91415102 0.155182,3.43097482 0.713983,4.59135382 0.454677,0.9441597 1.246241,1.8327924 2.28502,2.5416877 1.03903,0.7090662 2.302133,1.2333244 3.722938,1.5880205 1.082293,0.2701883 1.992521,0.3737353 2.772064,0.2997291 0.775666,-0.073638 1.347082,-0.3288572 1.679959,-0.6128457 0.283972,-0.2422653 0.402109,-0.5171253 0.423807,-0.6674178 0.02256,-0.1562925 -0.05339,-0.2298671 -0.0051,-0.1781525 0.0193,0.020657 0.03476,0.030244 0.06185,0.038348 0.02709,0.0081 0.04527,0.00859 0.07275,0.00192 0.02748,-0.00666 0.04342,-0.015416 0.06379,-0.035024 0.01875,-0.018056 0.02613,-0.031284 0.03162,-0.045096 C 26.240112,7.3782059 25.075433,7.0407689 23.88236,6.8246159 Z"
           id="path4171-7" />
        <path
           style="fill:url(#radialGradient5115);fill-opacity:1;fill-rule:evenodd;stroke:none;stroke-width:1px;stroke-linecap:butt;stroke-linejoin:miter;stroke-opacity:1"
           d="m 28.525217,8.0746159 -3.2077,-6.9878299 a 0.79500044,1.6156219 45.870068 0 1 0.493222,-1.37982094 c 1.208496,-1.39136196 3.010843,-2.45773986 5.117712,-2.79584246 2.096804,-0.3364874 4.448804,0.041654 6.53442,1.2630802 2.179828,1.30103469 3.91863,3.3988924 4.892023,5.8883815 0.974558,2.4822272 1.192156,5.2546665 0.702806,7.9236187 -0.485505,2.666085 -1.633794,5.172541 -3.210814,7.328049 -1.573654,2.155329 -3.536633,3.943268 -5.647287,5.365793 -2.338644,1.510943 -4.836384,2.610092 -6.561234,3.427255 -1.25549,0.503657 -2.878103,1.091135 -4.708702,1.524453 C 20.967298,29.462626 18.73937,29.141425 16.456521,28.408271 10.892669,26.814026 7.0318066,23.121368 4.6599312,19.691166 2.6092711,16.546643 1.4507819,13.221603 0.7094639,10.257693 -0.34634861,6.6897254 -1.0305868,3.0466561 -1.145319,-0.59497539 -1.6843563,-5.8399556 -0.98968803,-11.014496 0.71140311,-15.621542 0.599958,-10.707351 1.632316,-5.9575056 3.5528982,-1.8272228 c 1.547324,2.72629342 3.5081804,5.1768614 5.6452136,7.3616161 1.9475672,1.7970733 3.8184032,3.1039999 5.6923942,3.7808166 2.038471,0.8077861 3.710357,0.6858671 4.274835,-0.1456793 0.250453,-0.4000981 0.536434,-0.7531118 1.115189,-1.2524615 0.641377,0.1435134 1.534544,0.1738402 2.702967,0.1248626 1.577375,0.041591 3.059755,0.1500381 3.79591,0.2129694 0.764277,0.1177308 1.549415,0.1363594 2.216568,0.063029 0.668754,-0.063398 1.365445,-0.2935573 1.920036,-0.611497 C 31.479892,7.3988731 31.989239,6.8431404 32.28857,6.2399317 32.603458,5.6388404 32.667633,4.7943819 32.444707,4.0464574 32.24566,3.2996558 31.618146,2.5287294 30.709519,2.0560225 29.949889,1.6608301 28.954553,1.4949023 27.921347,1.6620264 l 0.60387,6.4125895 z"
           id="path4177-0" />
      </g>
      <g
         style="fill:url(#radialGradient4821);fill-opacity:1;filter:url(#filter5007)"
         id="g4810">
        <path
           style="fill:url(#radialGradient5117);fill-opacity:1;fill-rule:evenodd;stroke:none;stroke-width:1px;stroke-linecap:butt;stroke-linejoin:miter;stroke-opacity:1;filter:url(#filter4798)"
           d="m 34.92423,32.407881 c -1.074491,-0.702034 -2.029831,-1.547042 -2.850172,-2.499737 -0.410692,0.429929 -1.047445,0.701206 -1.666635,0.720291 -0.749975,0.02312 -1.599815,-0.379025 -2.130014,-1.049942 -0.485039,-0.598686 -0.766219,-1.520714 -0.686114,-2.542128 0.08266,-1.017547 0.523085,-2.095892 1.275725,-3.072533 0.820169,-1.046776 1.958679,-1.925292 3.300056,-2.591399 1.341199,-0.665536 2.843386,-1.103281 4.447166,-1.382688 1.788165,-0.297366 3.59911,-0.385314 5.356077,-0.146583 1.755824,0.238335 3.478623,0.814246 4.956656,1.779473 1.937967,1.309662 3.436259,3.299165 4.455003,5.560776 1.018068,2.260603 1.556474,4.736609 1.884708,7.273612 0.478443,4.341703 0.34228,8.76756 -0.412249,13.103146 0.981002,-4.289851 1.356621,-8.734724 1.102981,-13.16082 -0.09946,-2.574048 -0.418339,-5.216154 -1.286192,-7.725434 C 51.803529,24.16566 50.340552,21.728954 48.1753,19.959622 46.544229,18.590709 44.575878,17.660581 42.521592,17.12598 40.468386,16.591455 38.34449,16.446997 36.264676,16.541745 c -1.847266,0.07173 -3.77539,0.341371 -5.651677,0.973157 -1.876022,0.632034 -3.739088,1.646101 -5.28892,3.133973 -1.435156,1.366518 -2.632272,3.179746 -3.171872,5.308491 -0.53716,2.124154 -0.399389,4.579886 0.731021,6.754517 1.293363,2.452664 3.751858,4.286322 6.595963,4.785467 2.420854,0.424865 4.979107,-0.134684 7.038534,-1.523582 -0.377105,-1.27795 -0.911762,-2.477918 -1.593495,-3.565887 z"
           id="path4165" />
        <path
           style="fill:url(#radialGradient5119);fill-opacity:1;fill-rule:evenodd;stroke:none;stroke-width:1px;stroke-linecap:butt;stroke-linejoin:miter;stroke-opacity:1;filter:url(#filter4806)"
           d="m 33.571429,31.500001 c -1.129431,-0.441212 -2.218744,-1.000263 -3.252431,-1.667313 0.428812,-0.91408 1.048085,-1.723289 1.805302,-2.366977 0.933351,-0.793415 2.055486,-1.311713 3.221096,-1.516397 1.166653,-0.204867 2.355754,-0.08768 3.426635,0.311771 1.07186,0.399819 2.004524,1.078873 2.700099,1.934223 1.349982,1.555433 1.761225,3.615304 1.428246,5.40319 -0.335898,1.795738 -1.38309,3.292053 -2.664118,4.286477 -1.504885,1.183981 -3.319967,1.690283 -4.978956,1.772376 -1.658399,0.0813 -3.237635,-0.240382 -4.629596,-0.665643 -1.871955,-0.545876 -3.721911,-1.362409 -5.346602,-2.56356 -1.625594,-1.201495 -3.013134,-2.795293 -3.840447,-4.68915 -0.993826,-2.238351 -1.106633,-4.683764 -0.978159,-6.87393 0.118625,-1.742002 0.390816,-3.516656 0.993376,-5.208671 0.603004,-1.693719 1.54569,-3.297265 2.877567,-4.532804 1.26558,-1.169036 2.818544,-1.944627 4.397341,-2.416054 1.579157,-0.471459 3.216582,-0.656866 4.820612,-0.72137 2.460685,-0.139492 4.928268,-0.0015 7.341463,0.406689 -2.434003,-0.256959 -4.888216,-0.239024 -7.301393,0.04955 -1.578719,0.215541 -3.121543,0.546343 -4.558388,1.1298 -1.437222,0.583695 -2.740347,1.417329 -3.723659,2.51849 -1.030352,1.14808 -1.715854,2.593705 -2.103171,4.106365 -0.387966,1.514475 -0.491657,3.110587 -0.454459,4.723592 0.0271,2.077789 0.304549,4.017852 1.1647,5.626066 0.720007,1.319278 1.85125,2.42491 3.171754,3.233343 1.321219,0.809271 2.83844,1.339038 4.426911,1.656803 1.216102,0.223748 2.33495,0.291293 3.352584,0.117003 1.01745,-0.175594 1.855137,-0.589705 2.396006,-1.153126 0.449699,-0.489107 0.663298,-1.058065 0.65041,-1.522105 -0.01965,-0.463797 -0.239983,-0.825087 -0.45771,-0.931086 -0.139732,-0.03506 -0.289981,-0.03646 -0.391119,0.01758 -0.09658,0.05161 -0.191526,0.127688 -0.209283,0.215587 -0.01631,0.08071 -0.02699,0.180415 0.03287,0.234127 0.04421,0.03967 0.09526,0.08506 0.160157,0.08842 -1.119882,-0.449677 -2.284561,-0.787114 -3.477634,-1.003267 z"
           id="path4171" />
        <path
           style="fill:url(#radialGradient5121);fill-opacity:1;fill-rule:evenodd;stroke:none;stroke-width:1px;stroke-linecap:butt;stroke-linejoin:miter;stroke-opacity:1;filter:url(#filter4802)"
           d="m 38.214286,32.750001 c -0.815933,0.457519 -1.946771,0.558954 -2.982563,0.106049 -1.0255,-0.448405 -1.922372,-1.427395 -2.243767,-2.704251 -0.318368,-1.264829 -0.06269,-2.764634 0.857163,-3.953694 0.911759,-1.178597 2.420215,-1.996822 4.110386,-2.017057 0.988301,-0.100698 2.000135,0.05583 2.933687,0.417354 0.932997,0.359753 1.774487,0.907074 2.492858,1.555666 1.259234,1.407531 1.953284,3.068844 2.386863,4.460929 0.713416,3.100391 0.540194,6.662839 -1.006942,9.91181 -0.985428,2.059688 -2.429235,3.813446 -4.107879,5.206061 -1.194672,0.71728 -2.458521,1.26894 -3.740871,1.657265 -3.442495,1.059137 -7.018161,0.956443 -10.165577,0.01831 -3.820337,-1.067905 -7.028909,-3.350112 -9.369561,-6.058094 -2.043334,-2.422318 -3.431369,-5.189295 -4.495046,-7.812671 -1.355978,-3.165841 -2.392478,-6.451745 -2.9587875,-9.809861 -0.5066032,-3.136537 -0.5939512,-6.295807 -0.2813924,-9.37067 0.3566382,3.070423 1.1118359,6.05026 2.2186099,8.843614 1.160272,2.992373 2.730871,5.801313 4.54121,8.404425 1.580118,2.172209 3.234188,4.034531 5.147812,5.401615 2.107002,1.553248 4.466978,2.43141 6.701867,2.513334 1.858317,0.0084 3.565554,-0.519895 4.834423,-1.410263 0.449308,-0.326838 0.841691,-0.698074 1.158184,-1.093383 0.693868,-0.350739 1.278113,-0.811661 1.707352,-1.329005 0.709485,-0.844545 1.161364,-2.150793 1.135916,-3.65962 0.08872,-0.604123 0.139522,-1.278696 0.155502,-1.497728 0.09581,-0.209064 0.17302,-0.460961 0.208909,-0.672965 0.04275,-0.215231 0.01926,-0.470984 -0.051,-0.681072 -0.118041,-0.245193 -0.536179,-0.36317 -0.921311,-0.283016 -0.399717,0.08319 -0.823198,0.485975 -0.989266,1.037856 -0.166024,0.551737 -0.03547,1.30045 0.448189,1.886854 0.479613,0.581494 1.331951,0.990614 2.275035,0.932211 z"
           id="path4177" />
      </g>
    </g>
  </g>
</svg>
