<?xml version="1.0" encoding="UTF-8" standalone="no"?>
<svg
   xmlns:dc="http://purl.org/dc/elements/1.1/"
   xmlns:cc="http://creativecommons.org/ns#"
   xmlns:rdf="http://www.w3.org/1999/02/22-rdf-syntax-ns#"
   xmlns:svg="http://www.w3.org/2000/svg"
   xmlns="http://www.w3.org/2000/svg"
   xmlns:xlink="http://www.w3.org/1999/xlink"
   width="64"
   height="64"
   viewBox="0 0 64.000001 64.000001"
   id="svg4229"
   version="1.1">
  <defs
     id="defs4231">
    <linearGradient
       id="linearGradient4865">
      <stop
         style="stop-color:#a1ffff;stop-opacity:1"
         offset="0"
         id="stop4867" />
      <stop
         id="stop4877"
         offset="0.19530614"
         style="stop-color:#006464;stop-opacity:1" />
      <stop
         id="stop4873"
         offset="0.51616895"
         style="stop-color:#006464;stop-opacity:1" />
      <stop
         style="stop-color:#006464;stop-opacity:1"
         offset="0.80634058"
         id="stop4875" />
      <stop
         style="stop-color:#a1ffff;stop-opacity:1"
         offset="1"
         id="stop4869" />
    </linearGradient>
    <linearGradient
       xlink:href="#linearGradient4865"
       id="linearGradient4871"
       x1="70.378563"
       y1="-83.637802"
       x2="70.692039"
       y2="-147.6378"
       gradientUnits="userSpaceOnUse"
       gradientTransform="translate(0,-1.0101525)" />
    <filter
       style="color-interpolation-filters:sRGB"
       id="filter4879"
       x="-0.024254946"
       width="1.0485099"
       y="-0.023750358"
       height="1.0475007">
      <feGaussianBlur
         stdDeviation="0.59553716"
         id="feGaussianBlur4881" />
    </filter>
    <linearGradient
       xlink:href="#linearGradient4865"
       id="linearGradient4885"
       gradientUnits="userSpaceOnUse"
       gradientTransform="translate(0,-1.0101525)"
       x1="70.378563"
       y1="-83.637802"
       x2="70.692039"
       y2="-147.6378" />
    <linearGradient
       xlink:href="#linearGradient4865"
       id="linearGradient4889"
       gradientUnits="userSpaceOnUse"
       gradientTransform="translate(0,-1.0101525)"
       x1="70.378563"
       y1="-83.637802"
       x2="70.692039"
       y2="-147.6378" />
    <linearGradient
       xlink:href="#linearGradient4865"
       id="linearGradient4893"
       gradientUnits="userSpaceOnUse"
       gradientTransform="translate(0,-1.0101525)"
       x1="70.378563"
       y1="-83.637802"
       x2="70.692039"
       y2="-147.6378" />
  </defs>
  <metadata
     id="metadata4234">
    <rdf:RDF>
      <cc:Work
         rdf:about="">
        <dc:format>image/svg+xml</dc:format>
        <dc:type
           rdf:resource="http://purl.org/dc/dcmitype/StillImage" />
        <dc:title></dc:title>
      </cc:Work>
    </rdf:RDF>
  </metadata>
  <g
     id="layer1"
     transform="translate(-40,147.6378)">
    <path
       style="opacity:1;fill:url(#linearGradient4871);fill-opacity:1;stroke:#ffb94d;stroke-width:0.2;stroke-linecap:round;stroke-linejoin:round;stroke-miterlimit:4;stroke-dasharray:none;stroke-opacity:0;filter:url(#filter4879)"
       d="m 71.786272,-145.89823 c -4.105845,-8e-5 -8.015551,1.01823 -11.566711,2.53539 -10.523512,4.49594 -17.898366,14.94076 -17.898133,27.10803 -2.19e-4,11.67696 6.79223,21.767487 16.641548,26.535793 3.876775,1.876845 8.227145,4.00056 12.823296,4.000473 3.938574,-1.86e-4 7.696623,-1.844577 11.130794,-3.246954 10.754221,-4.39159 18.332334,-14.955532 18.332104,-27.289312 2.4e-4,-12.69109 -8.023327,-23.50833 -19.274663,-27.65536 -3.174976,-1.17023 -6.606977,-1.98789 -10.188235,-1.98806 z m -0.178571,4.4548 c 3.386871,-5e-5 6.804571,-0.79608 9.784253,0.35733 9.953313,3.85286 17.011663,13.51781 17.011501,24.83129 1.44e-4,10.19702 -5.733832,19.054806 -14.153372,23.524823 -3.718343,1.974105 -8.496191,2.020992 -12.999525,2.020928 -3.740875,5.4e-5 -6.765795,0.299803 -9.995668,-1.093089 -9.46242,-4.080695 -16.08596,-13.493182 -16.085806,-24.452662 -1.63e-4,-11.33608 7.086419,-21.01704 17.07119,-24.85431 2.963234,-1.13881 6.003157,-0.33436 9.367427,-0.33431 z"
       id="path4792" />
    <path
       id="path4883"
       d="m 71.786272,-145.89823 c -4.105845,-8e-5 -8.015551,1.01823 -11.566711,2.53539 -10.523512,4.49594 -17.898366,14.94076 -17.898133,27.10803 -2.19e-4,11.67696 6.79223,21.767487 16.641548,26.535793 3.876775,1.876845 8.227145,4.00056 12.823296,4.000473 3.938574,-1.86e-4 7.696623,-1.844577 11.130794,-3.246954 10.754221,-4.39159 18.332334,-14.955532 18.332104,-27.289312 2.4e-4,-12.69109 -8.023327,-23.50833 -19.274663,-27.65536 -3.174976,-1.17023 -6.606977,-1.98789 -10.188235,-1.98806 z m -0.178571,4.4548 c 3.386871,-5e-5 6.804571,-0.79608 9.784253,0.35733 9.953313,3.85286 17.011663,13.51781 17.011501,24.83129 1.44e-4,10.19702 -5.733832,19.054806 -14.153372,23.524823 -3.718343,1.974105 -8.496191,2.020992 -12.999525,2.020928 -3.740875,5.4e-5 -6.765795,0.299803 -9.995668,-1.093089 -9.46242,-4.080695 -16.08596,-13.493182 -16.085806,-24.452662 -1.63e-4,-11.33608 7.086419,-21.01704 17.07119,-24.85431 2.963234,-1.13881 6.003157,-0.33436 9.367427,-0.33431 z"
       style="opacity:1;fill:url(#linearGradient4885);fill-opacity:1;stroke:#ffb94d;stroke-width:0.2;stroke-linecap:round;stroke-linejoin:round;stroke-miterlimit:4;stroke-dasharray:none;stroke-opacity:0;filter:url(#filter4879)"
       transform="matrix(0.75162127,0,0,0.75162127,17.829942,-28.76434)" />
    <path
       transform="matrix(0.49003521,0,0,0.49003521,36.607975,-59.058199)"
       style="opacity:1;fill:url(#linearGradient4889);fill-opacity:1;stroke:#ffb94d;stroke-width:0.2;stroke-linecap:round;stroke-linejoin:round;stroke-miterlimit:4;stroke-dasharray:none;stroke-opacity:0;filter:url(#filter4879)"
       d="m 71.786272,-145.89823 c -4.105845,-8e-5 -8.015551,1.01823 -11.566711,2.53539 -10.523512,4.49594 -17.898366,14.94076 -17.898133,27.10803 -2.19e-4,11.67696 6.79223,21.767487 16.641548,26.535793 3.876775,1.876845 8.227145,4.00056 12.823296,4.000473 3.938574,-1.86e-4 7.696623,-1.844577 11.130794,-3.246954 10.754221,-4.39159 18.332334,-14.955532 18.332104,-27.289312 2.4e-4,-12.69109 -8.023327,-23.50833 -19.274663,-27.65536 -3.174976,-1.17023 -6.606977,-1.98789 -10.188235,-1.98806 z m -0.178571,4.4548 c 3.386871,-5e-5 6.804571,-0.79608 9.784253,0.35733 9.953313,3.85286 17.011663,13.51781 17.011501,24.83129 1.44e-4,10.19702 -5.733832,19.054806 -14.153372,23.524823 -3.718343,1.974105 -8.496191,2.020992 -12.999525,2.020928 -3.740875,5.4e-5 -6.765795,0.299803 -9.995668,-1.093089 -9.46242,-4.080695 -16.08596,-13.493182 -16.085806,-24.452662 -1.63e-4,-11.33608 7.086419,-21.01704 17.07119,-24.85431 2.963234,-1.13881 6.003157,-0.33436 9.367427,-0.33431 z"
       id="path4887" />
    <path
       id="path4891"
       d="m 71.786272,-145.89823 c -4.105845,-8e-5 -8.015551,1.01823 -11.566711,2.53539 -10.523512,4.49594 -17.898366,14.94076 -17.898133,27.10803 -2.19e-4,11.67696 6.79223,21.767487 16.641548,26.535793 3.876775,1.876845 8.227145,4.00056 12.823296,4.000473 3.938574,-1.86e-4 7.696623,-1.844577 11.130794,-3.246954 10.754221,-4.39159 18.332334,-14.955532 18.332104,-27.289312 2.4e-4,-12.69109 -8.023327,-23.50833 -19.274663,-27.65536 -3.174976,-1.17023 -6.606977,-1.98789 -10.188235,-1.98806 z m -0.178571,4.4548 c 3.386871,-5e-5 6.804571,-0.79608 9.784253,0.35733 9.953313,3.85286 17.011663,13.51781 17.011501,24.83129 1.44e-4,10.19702 -5.733832,19.054806 -14.153372,23.524823 -3.718343,1.974105 -8.496191,2.020992 -12.999525,2.020928 -3.740875,5.4e-5 -6.765795,0.299803 -9.995668,-1.093089 -9.46242,-4.080695 -16.08596,-13.493182 -16.085806,-24.452662 -1.63e-4,-11.33608 7.086419,-21.01704 17.07119,-24.85431 2.963234,-1.13881 6.003157,-0.33436 9.367427,-0.33431 z"
       style="opacity:1;fill:url(#linearGradient4893);fill-opacity:1;stroke:#ffb94d;stroke-width:0.2;stroke-linecap:round;stroke-linejoin:round;stroke-miterlimit:4;stroke-dasharray:none;stroke-opacity:0;filter:url(#filter4879)"
       transform="matrix(0.23662372,0,0,0.23662372,54.799195,-88.405375)" />
  </g>
</svg>
