<?xml version="1.0" encoding="UTF-8" standalone="no"?>
<svg
   xmlns:dc="http://purl.org/dc/elements/1.1/"
   xmlns:cc="http://creativecommons.org/ns#"
   xmlns:rdf="http://www.w3.org/1999/02/22-rdf-syntax-ns#"
   xmlns:svg="http://www.w3.org/2000/svg"
   xmlns="http://www.w3.org/2000/svg"
   xmlns:xlink="http://www.w3.org/1999/xlink"
   id="svg3339"
   height="64"
   width="128"
   version="1.1">
  <defs
     id="defs3341">
    <linearGradient
       id="linearGradient4546">
      <stop
         offset="0"
         style="stop-color:#000000;stop-opacity:1"
         id="stop4548" />
      <stop
         offset="1"
         style="stop-color:#4d4d4d;stop-opacity:1"
         id="stop4550" />
    </linearGradient>
    <linearGradient
       id="linearGradient4730">
      <stop
         offset="0"
         style="stop-color:#0aa6fe;stop-opacity:1"
         id="stop4732" />
      <stop
         offset="1"
         style="stop-color:#0185ca;stop-opacity:1"
         id="stop4734" />
    </linearGradient>
    <linearGradient
       gradientUnits="userSpaceOnUse"
       xlink:href="#linearGradient3966"
       id="linearGradient3307"
       y2="7.1309834"
       x2="61.505901"
       y1="12.354779"
       x1="66.442741" />
    <linearGradient
       id="linearGradient3966">
      <stop
         offset="0"
         style="stop-color:#000000;stop-opacity:1"
         id="stop3968" />
      <stop
         offset="1"
         style="stop-color:#c0c0c0;stop-opacity:1"
         id="stop3970" />
    </linearGradient>
    <linearGradient
       gradientUnits="userSpaceOnUse"
       xlink:href="#linearGradient4504"
       id="linearGradient3309"
       y2="9.2383251"
       x2="104.26487"
       y1="12.469592"
       x1="107.47256" />
    <linearGradient
       id="linearGradient4504">
      <stop
         offset="0"
         style="stop-color:#000000;stop-opacity:1"
         id="stop4506" />
      <stop
         offset="0.48503938"
         style="stop-color:#4d4d4d;stop-opacity:1"
         id="stop4512" />
      <stop
         offset="1"
         style="stop-color:#4d4d4d;stop-opacity:1"
         id="stop4508" />
    </linearGradient>
    <linearGradient
       gradientUnits="userSpaceOnUse"
       xlink:href="#linearGradient3966-8"
       id="linearGradient3311"
       y2="7.1309834"
       x2="61.505901"
       y1="12.354779"
       x1="66.442741" />
    <linearGradient
       id="linearGradient3966-8">
      <stop
         offset="0"
         style="stop-color:#000000;stop-opacity:1"
         id="stop3968-2" />
      <stop
         offset="1"
         style="stop-color:#c0c0c0;stop-opacity:1"
         id="stop3970-4" />
    </linearGradient>
    <linearGradient
       gradientUnits="userSpaceOnUse"
       xlink:href="#linearGradient4504-4"
       id="linearGradient3313"
       y2="9.2383251"
       x2="104.26487"
       y1="12.469592"
       x1="107.47256" />
    <linearGradient
       id="linearGradient4504-4">
      <stop
         offset="0"
         style="stop-color:#000000;stop-opacity:1"
         id="stop4506-0" />
      <stop
         offset="0.48503938"
         style="stop-color:#4d4d4d;stop-opacity:1"
         id="stop4512-9" />
      <stop
         offset="1"
         style="stop-color:#4d4d4d;stop-opacity:1"
         id="stop4508-4" />
    </linearGradient>
    <linearGradient
       id="linearGradient4746">
      <stop
         offset="0"
         style="stop-color:#000000;stop-opacity:1"
         id="stop4748" />
      <stop
         offset="0.7110768"
         style="stop-color:#4d4d4d;stop-opacity:1"
         id="stop4754" />
      <stop
         offset="1"
         style="stop-color:#4d4d4d;stop-opacity:1"
         id="stop4750" />
    </linearGradient>
    <linearGradient
       id="linearGradient4746-8">
      <stop
         offset="0"
         style="stop-color:#000000;stop-opacity:1"
         id="stop4748-5" />
      <stop
         offset="0.7110768"
         style="stop-color:#4d4d4d;stop-opacity:1"
         id="stop4754-7" />
      <stop
         offset="1"
         style="stop-color:#4d4d4d;stop-opacity:1"
         id="stop4750-6" />
    </linearGradient>
    <linearGradient
       id="linearGradient4801">
      <stop
         offset="0"
         style="stop-color:#2199d8;stop-opacity:1"
         id="stop4803" />
      <stop
         offset="0.35319826"
         style="stop-color:#71ccfe;stop-opacity:1"
         id="stop4809" />
      <stop
         offset="1"
         style="stop-color:#0171ad;stop-opacity:1"
         id="stop4805" />
    </linearGradient>
    <linearGradient
       id="linearGradient4842">
      <stop
         offset="0"
         style="stop-color:#0171ad;stop-opacity:1"
         id="stop4844" />
      <stop
         offset="1"
         style="stop-color:#5abdf3;stop-opacity:0.35526314"
         id="stop4846" />
    </linearGradient>
    <linearGradient
       gradientTransform="matrix(1.0227562,0,0,1,-37.371083,5.0073085)"
       gradientUnits="userSpaceOnUse"
       xlink:href="#linearGradient4801-8"
       id="linearGradient3323"
       y2="457.3923"
       x2="429.505"
       y1="456.15793"
       x1="427.26376" />
    <linearGradient
       id="linearGradient4801-8">
      <stop
         offset="0"
         style="stop-color:#2199d8;stop-opacity:1"
         id="stop4803-2" />
      <stop
         offset="0.35319826"
         style="stop-color:#71ccfe;stop-opacity:1"
         id="stop4809-62" />
      <stop
         offset="1"
         style="stop-color:#0171ad;stop-opacity:1"
         id="stop4805-7" />
    </linearGradient>
    <linearGradient
       gradientTransform="translate(382.81794,429.40424)"
       gradientUnits="userSpaceOnUse"
       xlink:href="#linearGradient4842-7"
       id="linearGradient3325"
       y2="36.515732"
       x2="15.341677"
       y1="37.367477"
       x1="15.280433" />
    <linearGradient
       id="linearGradient4842-7">
      <stop
         offset="0"
         style="stop-color:#0171ad;stop-opacity:1"
         id="stop4844-8" />
      <stop
         offset="1"
         style="stop-color:#5abdf3;stop-opacity:0.35526314"
         id="stop4846-2" />
    </linearGradient>
    <linearGradient
       id="linearGradient4801-0">
      <stop
         offset="0"
         style="stop-color:#2199d8;stop-opacity:1"
         id="stop4803-5" />
      <stop
         offset="0.35319826"
         style="stop-color:#71ccfe;stop-opacity:1"
         id="stop4809-5" />
      <stop
         offset="1"
         style="stop-color:#0171ad;stop-opacity:1"
         id="stop4805-2" />
    </linearGradient>
    <linearGradient
       id="linearGradient4842-6">
      <stop
         offset="0"
         style="stop-color:#0171ad;stop-opacity:1"
         id="stop4844-7" />
      <stop
         offset="1"
         style="stop-color:#5abdf3;stop-opacity:0.35526314"
         id="stop4846-8" />
    </linearGradient>
    <linearGradient
       id="linearGradient4801-0-8">
      <stop
         offset="0"
         style="stop-color:#2199d8;stop-opacity:1"
         id="stop4803-5-9" />
      <stop
         offset="0.35319826"
         style="stop-color:#71ccfe;stop-opacity:1"
         id="stop4809-5-0" />
      <stop
         offset="1"
         style="stop-color:#0171ad;stop-opacity:1"
         id="stop4805-2-0" />
    </linearGradient>
    <linearGradient
       id="linearGradient4842-6-6">
      <stop
         offset="0"
         style="stop-color:#0171ad;stop-opacity:1"
         id="stop4844-7-0" />
      <stop
         offset="1"
         style="stop-color:#5abdf3;stop-opacity:0.35526314"
         id="stop4846-8-9" />
    </linearGradient>
    <linearGradient
       id="linearGradient4801-0-8-5">
      <stop
         offset="0"
         style="stop-color:#2199d8;stop-opacity:1"
         id="stop4803-5-9-5" />
      <stop
         offset="0.35319826"
         style="stop-color:#71ccfe;stop-opacity:1"
         id="stop4809-5-0-2" />
      <stop
         offset="1"
         style="stop-color:#0171ad;stop-opacity:1"
         id="stop4805-2-0-1" />
    </linearGradient>
    <linearGradient
       id="linearGradient4842-6-6-8">
      <stop
         offset="0"
         style="stop-color:#0171ad;stop-opacity:1"
         id="stop4844-7-0-6" />
      <stop
         offset="1"
         style="stop-color:#5abdf3;stop-opacity:0.35526314"
         id="stop4846-8-9-4" />
    </linearGradient>
    <linearGradient
       gradientTransform="matrix(0.99985361,0,0,0.9998171,245.41227,150.94977)"
       gradientUnits="userSpaceOnUse"
       xlink:href="#linearGradient4842-6-6-8"
       id="linearGradient3716"
       y2="38.940128"
       x2="13.751146"
       y1="40.081398"
       x1="13.670406" />
    <linearGradient
       gradientTransform="matrix(1.0226065,0,0,0.9998171,-174.71526,-273.36956)"
       gradientUnits="userSpaceOnUse"
       xlink:href="#linearGradient4801-0-8-5"
       id="linearGradient3719"
       y2="457.54697"
       x2="429.68866"
       y1="456.15793"
       x1="427.22055" />
    <linearGradient
       gradientTransform="matrix(0.99985361,0,0,0.9998171,241.40936,148.93378)"
       gradientUnits="userSpaceOnUse"
       xlink:href="#linearGradient4842-6-6"
       id="linearGradient3722"
       y2="38.940128"
       x2="13.751146"
       y1="40.081398"
       x1="13.670406" />
    <linearGradient
       gradientTransform="matrix(1.0226065,0,0,0.9998171,-178.71816,-275.38557)"
       gradientUnits="userSpaceOnUse"
       xlink:href="#linearGradient4801-0-8"
       id="linearGradient3725"
       y2="457.54697"
       x2="429.68866"
       y1="456.15793"
       x1="427.22055" />
    <linearGradient
       gradientTransform="matrix(0.99985361,0,0,0.9998171,237.38989,146.93515)"
       gradientUnits="userSpaceOnUse"
       xlink:href="#linearGradient4842-6"
       id="linearGradient3728"
       y2="38.940128"
       x2="13.751146"
       y1="40.081398"
       x1="13.670406" />
    <linearGradient
       gradientTransform="matrix(1.0226065,0,0,0.9998171,-182.73763,-277.38417)"
       gradientUnits="userSpaceOnUse"
       xlink:href="#linearGradient4801-0"
       id="linearGradient3731"
       y2="457.54697"
       x2="429.68866"
       y1="456.15793"
       x1="427.22055" />
    <linearGradient
       gradientTransform="matrix(0.99985361,0,0,0.9998171,158.31599,132.54907)"
       gradientUnits="userSpaceOnUse"
       xlink:href="#linearGradient4842"
       id="linearGradient3737"
       y2="36.515732"
       x2="15.341677"
       y1="37.367477"
       x1="15.280433" />
    <linearGradient
       gradientTransform="matrix(1.0226065,0,0,0.9998171,-261.81152,-291.77024)"
       gradientUnits="userSpaceOnUse"
       xlink:href="#linearGradient4801"
       id="linearGradient3740"
       y2="457.3923"
       x2="429.505"
       y1="456.15793"
       x1="427.26376" />
    <linearGradient
       gradientTransform="matrix(0.99985361,0,0,0.9998171,156.00072,132.22092)"
       gradientUnits="userSpaceOnUse"
       xlink:href="#linearGradient4730"
       id="linearGradient3765"
       y2="64.044197"
       x2="56.922092"
       y1="16.314486"
       x1="58.247921" />
    <linearGradient
       gradientUnits="userSpaceOnUse"
       xlink:href="#linearGradient4546"
       id="linearGradient4552"
       y2="48.000004"
       x2="119"
       y1="64.000008"
       x1="119" />
    <clipPath
       id="clipPath4556">
      <rect
         style="fill:#000000;fill-opacity:1;fill-rule:nonzero;stroke:none"
         id="rect4558"
         y="39.000004"
         x="104"
         height="24.999969"
         width="23.999762" />
    </clipPath>
  </defs>
  <metadata
     id="metadata3344">
    <rdf:RDF>
      <cc:Work
         rdf:about="">
        <dc:format>image/svg+xml</dc:format>
        <dc:type
           rdf:resource="http://purl.org/dc/dcmitype/StillImage" />
        <dc:title></dc:title>
      </cc:Work>
    </rdf:RDF>
  </metadata>
  <g
     id="layer1"
     transform="translate(-156.00003,-132.21935)">
    <path
       style="color:#000000;fill:#808080;fill-opacity:1;stroke:none;stroke-width:2.27125978;marker:none;visibility:visible;display:inline;overflow:visible;enable-background:accumulate"
       id="path5225"
       d="m 156.00132,132.21935 127.99561,0.001 0.003,63.99808 -111.48288,-0.009 L 156.00003,185.18 z" />
    <path
       style="color:#000000;fill:url(#linearGradient3765);fill-opacity:1;stroke:none;stroke-width:2.27125978;marker:none;visibility:visible;display:inline;overflow:visible;enable-background:accumulate"
       id="path4728"
       d="m 175.97356,148.13474 -19.96258,33.09271 -0.01,3.95867 16.51423,11.02163 88.48444,0.0116 15,-24 -8.67904,-0.004 -46.3255,-23.99305 z" />
    <path
       style="color:#000000;fill:#0191de;fill-opacity:1;stroke:none;stroke-width:2.27125978;marker:none;visibility:visible;display:inline;overflow:visible;enable-background:accumulate"
       id="path5205-9"
       d="m 202.00709,196.21204 -0.004,-8.99319 24.00174,-0.003 0,8.9932 z" />
    <path
       style="color:#000000;fill:#4d4d4d;fill-opacity:1;stroke:none;stroke-width:2.27125978;marker:none;visibility:visible;display:inline;overflow:visible;enable-background:accumulate"
       id="path4742"
       d="m 245.96689,132.22214 38.03049,-0.001 0,27.99598 -37.98571,-0.0195 z" />
    <path
       style="color:#000000;fill:#4d4d4d;fill-opacity:1;stroke:none;stroke-width:2.27125978;marker:none;visibility:visible;display:inline;overflow:visible;enable-background:accumulate"
       id="path4740"
       d="m 245.9969,161.17196 -15.05402,-28.95104 -19.96583,0 -5.95851,15.97053 15.97267,0.0343 z" />
    <path
       style="color:#000000;fill:#808080;fill-opacity:1;fill-rule:nonzero;stroke:url(#linearGradient3307);stroke-width:0.70866144;stroke-opacity:1;marker:none;visibility:visible;display:inline;overflow:visible;enable-background:accumulate"
       id="path3196"
       transform="matrix(0.99985361,0,0,0.9998171,156.00072,132.22092)"
       d="m 68.854526,10.922797 a 3.8890875,3.8448933 0 1 1 -7.778175,0 3.8890875,3.8448933 0 1 1 7.778175,0 z" />
    <path
       style="color:#000000;fill:url(#linearGradient3309);fill-opacity:1;fill-rule:nonzero;stroke:none;stroke-width:0.70866144;marker:none;visibility:visible;display:inline;overflow:visible;enable-background:accumulate"
       id="path4502"
       transform="matrix(0.99985361,0,0,0.9998171,115.01662,132.11045)"
       d="m 107.96119,10.868142 a 1.9555922,1.9666407 0 1 1 -9.3e-4,-0.01224" />
    <path
       style="color:#000000;fill:#808080;fill-opacity:1;fill-rule:nonzero;stroke:none;stroke-width:0.70866144;marker:none;visibility:visible;display:inline;overflow:visible;enable-background:accumulate"
       id="path4590-7-6"
       transform="matrix(0.99985361,0,0,0.9998171,150.98358,145.20958)"
       d="m 57.004959,1.5011511 a 0.50270873,0.49994659 0 1 1 -1.005417,0 0.50270873,0.49994659 0 1 1 1.005417,0 z" />
    <path
       style="color:#000000;fill:#808080;fill-opacity:1;fill-rule:nonzero;stroke:url(#linearGradient3311);stroke-width:0.70866144;stroke-opacity:1;marker:none;visibility:visible;display:inline;overflow:visible;enable-background:accumulate"
       id="path3196-5"
       transform="matrix(0.99985361,0,0,0.9998171,197.0328,132.35883)"
       d="m 68.854526,10.922797 a 3.8890875,3.8448933 0 1 1 -7.778175,0 3.8890875,3.8448933 0 1 1 7.778175,0 z" />
    <path
       style="color:#000000;fill:url(#linearGradient3313);fill-opacity:1;fill-rule:nonzero;stroke:none;stroke-width:0.70866144;marker:none;visibility:visible;display:inline;overflow:visible;enable-background:accumulate"
       id="path4502-5"
       transform="matrix(0.99985361,0,0,0.9998171,156.04871,132.24836)"
       d="m 107.96119,10.868142 a 1.9555922,1.9666407 0 1 1 -9.3e-4,-0.01224" />
    <path
       style="color:#000000;fill:#808080;fill-opacity:1;fill-rule:nonzero;stroke:none;stroke-width:0.70866144;marker:none;visibility:visible;display:inline;overflow:visible;enable-background:accumulate"
       id="path4590-7"
       transform="matrix(0.99985361,0,0,0.9998171,155.99597,132.2287)"
       d="m 57.004959,1.5011511 a 0.50270873,0.49994659 0 1 1 -1.005417,0 0.50270873,0.49994659 0 1 1 1.005417,0 z" />
    <path
       style="color:#000000;fill:#808080;fill-opacity:1;fill-rule:nonzero;stroke:none;stroke-width:0.70866144;marker:none;visibility:visible;display:inline;overflow:visible;enable-background:accumulate"
       id="path4590-7-1"
       transform="matrix(0.99985361,0,0,0.9998171,172.98037,132.21976)"
       d="m 57.004959,1.5011511 a 0.50270873,0.49994659 0 1 1 -1.005417,0 0.50270873,0.49994659 0 1 1 1.005417,0 z" />
    <path
       style="color:#000000;fill:#808080;fill-opacity:1;fill-rule:nonzero;stroke:none;stroke-width:0.70866144;marker:none;visibility:visible;display:inline;overflow:visible;enable-background:accumulate"
       id="path4590-7-4"
       transform="matrix(0.99985361,0,0,0.9998171,184.99423,155.21947)"
       d="m 57.004959,1.5011511 a 0.50270873,0.49994659 0 1 1 -1.005417,0 0.50270873,0.49994659 0 1 1 1.005417,0 z" />
    <path
       style="color:#000000;fill:#808080;fill-opacity:1;fill-rule:nonzero;stroke:none;stroke-width:0.70866144;marker:none;visibility:visible;display:inline;overflow:visible;enable-background:accumulate"
       id="path4590-7-4-2"
       transform="matrix(0.99985361,0,0,0.9998171,191.99622,147.22109)"
       d="m 57.004959,1.5011511 a 0.50270873,0.49994659 0 1 1 -1.005417,0 0.50270873,0.49994659 0 1 1 1.005417,0 z" />
    <path
       style="color:#000000;fill:#808080;fill-opacity:1;fill-rule:nonzero;stroke:none;stroke-width:0.70866144;marker:none;visibility:visible;display:inline;overflow:visible;enable-background:accumulate"
       id="path4590-7-4-3"
       transform="matrix(0.99985361,0,0,0.9998171,196.99247,132.22758)"
       d="m 57.004959,1.5011511 a 0.50270873,0.49994659 0 1 1 -1.005417,0 0.50270873,0.49994659 0 1 1 1.005417,0 z" />
    <path
       style="color:#000000;fill:#808080;fill-opacity:1;fill-rule:nonzero;stroke:none;stroke-width:0.70866144;marker:none;visibility:visible;display:inline;overflow:visible;enable-background:accumulate"
       id="path4590-7-4-22"
       transform="matrix(0.99985361,0,0,0.9998171,211.99028,132.22759)"
       d="m 57.004959,1.5011511 a 0.50270873,0.49994659 0 1 1 -1.005417,0 0.50270873,0.49994659 0 1 1 1.005417,0 z" />
    <path
       style="color:#000000;fill:#808080;fill-opacity:1;fill-rule:nonzero;stroke:none;stroke-width:0.70866144;marker:none;visibility:visible;display:inline;overflow:visible;enable-background:accumulate"
       id="path4590-7-4-22-1"
       transform="matrix(0.99985361,0,0,0.9998171,223.98852,155.22337)"
       d="m 57.004959,1.5011511 a 0.50270873,0.49994659 0 1 1 -1.005417,0 0.50270873,0.49994659 0 1 1 1.005417,0 z" />
    <path
       style="color:#000000;fill:#0aa6fe;fill-opacity:1;stroke:none;stroke-width:0.45354331;marker:none;visibility:visible;display:inline;overflow:visible;enable-background:accumulate"
       id="path4795"
       d="m 200.99413,196.20921 0.004,-9.99817 25.9962,0.004 0.004,0.99982 -25.00024,0.004 0.004,8.99054 z" />
    <path
       style="color:#000000;fill:#0173af;fill-opacity:1;stroke:none;stroke-width:2.27125978;marker:none;visibility:visible;display:inline;overflow:visible;enable-background:accumulate"
       id="path4797"
       d="m 226.99424,187.21476 -0.99986,0.004 0.004,8.98664 0.99594,0.008 z" />
    <path
       style="color:#000000;fill:none;stroke:none;stroke-width:2.27125978;marker:none;visibility:visible;display:inline;overflow:visible;enable-background:accumulate"
       id="path4811"
       d="m 175.89624,158.97691 1.64599,2.00494 -0.6352,-1.35872 z" />
    <path
       style="color:#000000;fill:url(#linearGradient3740);fill-opacity:1;stroke:none;stroke-width:2.27125978;marker:none;visibility:visible;display:inline;overflow:visible;enable-background:accumulate"
       id="path4799"
       d="m 173.00204,168.48564 c 0.33721,1.73807 1.56042,1.99717 1.95399,1.47292 1.90517,-2.59169 4.16398,-6.7088 5.06665,-8.63351 0.0407,-0.8659 -1.41543,-2.33884 -1.71313,-1.98914 -1.23189,1.44066 -5.29913,8.24967 -5.30751,9.14973 z" />
    <path
       style="color:#000000;fill:url(#linearGradient3737);fill-opacity:1;stroke:none;stroke-width:2.27125978;marker:none;visibility:visible;display:inline;overflow:visible;enable-background:accumulate"
       id="path4832"
       d="m 174.88961,169.9861 c -0.0975,-0.0698 -0.13683,-0.1223 -1.88767,-1.51404 0.28209,1.63315 1.44546,2.06308 1.88767,1.51404 z" />
    <g
       id="g5041"
       transform="matrix(0.99985361,0,0,0.9998171,-219.44856,-296.76568)">
      <path
         style="color:#000000;fill:url(#linearGradient3323);fill-opacity:1;stroke:none;stroke-width:2.27125978;marker:none;visibility:visible;display:inline;overflow:visible;enable-background:accumulate"
         id="path4799-9"
         d="m 397.50614,465.34738 c 0.33726,1.73839 1.56065,1.99753 1.95428,1.47319 1.90544,-2.59216 4.16459,-6.71003 5.06739,-8.63509 0.0407,-0.86606 -1.41564,-2.33926 -1.71338,-1.9895 -1.23208,1.44092 -5.29991,8.25117 -5.30829,9.1514 z" />
      <path
         style="color:#000000;fill:url(#linearGradient3325);fill-opacity:1;stroke:none;stroke-width:2.27125978;marker:none;visibility:visible;display:inline;overflow:visible;enable-background:accumulate"
         id="path4832-2"
         d="m 399.39399,466.84812 c -0.0975,-0.0698 -0.13685,-0.12232 -1.88796,-1.51432 0.28214,1.63345 1.44568,2.06346 1.88796,1.51432 z" />
    </g>
    <path
       style="color:#000000;fill:url(#linearGradient3731);fill-opacity:1;stroke:none;stroke-width:2.27125978;marker:none;visibility:visible;display:inline;overflow:visible;enable-background:accumulate"
       id="path4799-7"
       d="m 250.35263,185.22463 c 0.33721,1.73807 2.03544,2.30647 2.42902,1.78222 1.90516,-2.59168 7.29025,-11.76811 8.19292,-13.69283 0.0406,-0.8659 -2.38757,-2.30568 -2.68527,-1.95598 -1.23189,1.44065 -7.92829,12.96652 -7.93667,13.86659 z" />
    <path
       style="color:#000000;fill:url(#linearGradient3728);fill-opacity:1;stroke:none;stroke-width:2.27125978;marker:none;visibility:visible;display:inline;overflow:visible;enable-background:accumulate"
       id="path4832-8"
       d="m 252.71523,187.03439 c -0.0975,-0.0698 -0.61186,-0.43162 -2.36271,-1.82334 0.2821,1.63315 1.92049,2.37238 2.36271,1.82334 z" />
    <path
       style="color:#000000;fill:url(#linearGradient3725);fill-opacity:1;stroke:none;stroke-width:2.27125978;marker:none;visibility:visible;display:inline;overflow:visible;enable-background:accumulate"
       id="path4799-7-0"
       d="m 254.37209,187.22326 c 0.33722,1.73807 2.03544,2.30647 2.42902,1.78222 1.90515,-2.59168 7.29025,-11.76812 8.19292,-13.69282 0.0406,-0.86591 -2.38757,-2.30568 -2.68526,-1.956 -1.2319,1.44067 -7.9283,12.96654 -7.93668,13.8666 z" />
    <path
       style="color:#000000;fill:url(#linearGradient3722);fill-opacity:1;stroke:none;stroke-width:2.27125978;marker:none;visibility:visible;display:inline;overflow:visible;enable-background:accumulate"
       id="path4832-8-7"
       d="m 256.73469,189.03303 c -0.0975,-0.0698 -0.61185,-0.43162 -2.36271,-1.82335 0.2821,1.63315 1.92049,2.37239 2.36271,1.82335 z" />
    <path
       style="color:#000000;fill:url(#linearGradient3719);fill-opacity:1;stroke:none;stroke-width:2.27125978;marker:none;visibility:visible;display:inline;overflow:visible;enable-background:accumulate"
       id="path4799-7-0-6"
       d="m 258.375,189.23924 c 0.33721,1.73807 2.03544,2.30647 2.42901,1.78223 1.90516,-2.59169 7.29025,-11.76812 8.19292,-13.69283 0.0407,-0.8659 -2.38756,-2.30569 -2.68525,-1.95599 -1.23191,1.44065 -7.92831,12.96653 -7.93668,13.86659 z" />
    <path
       style="color:#000000;fill:url(#linearGradient3716);fill-opacity:1;stroke:none;stroke-width:2.27125978;marker:none;visibility:visible;display:inline;overflow:visible;enable-background:accumulate"
       id="path4832-8-7-8"
       d="m 260.73759,191.04901 c -0.0975,-0.0698 -0.61186,-0.43162 -2.3627,-1.82335 0.28209,1.63316 1.92049,2.37239 2.3627,1.82335 z" />
    <path
       style="color:#000000;fill:#4d4d4d;fill-opacity:1;stroke:none;stroke-width:2.27125978;marker:none;visibility:visible;display:inline;overflow:visible;enable-background:accumulate"
       id="path5227"
       d="m 156.00242,185.1856 16.51932,11.02752 -16.51992,0.006 z" />
    <path
       style="fill:url(#linearGradient4552);fill-opacity:1;stroke:none"
       id="path3776"
       clip-path="url(#clipPath4556)"
       transform="translate(156.00003,132.21935)"
       d="m 105,64.000005 15,-24 10.95536,3.642857 L 120,64.000005 z" />
    <path
       style="fill:#ff8401;fill-opacity:1;stroke:none"
       id="path4560"
       d="m 279.55806,173.39792 1.61218,0.54499 -13.17021,22.27644 -2,0 z" />
  </g>
</svg>
