<?xml version="1.0" encoding="UTF-8" standalone="no"?>
<svg
   xmlns:dc="http://purl.org/dc/elements/1.1/"
   xmlns:cc="http://creativecommons.org/ns#"
   xmlns:rdf="http://www.w3.org/1999/02/22-rdf-syntax-ns#"
   xmlns:svg="http://www.w3.org/2000/svg"
   xmlns="http://www.w3.org/2000/svg"
   xmlns:xlink="http://www.w3.org/1999/xlink"
   height="58"
   width="64"
   version="1.1"
   id="svg2985">
  <metadata
     id="metadata2991">
    <rdf:RDF>
      <cc:Work
         rdf:about="">
        <dc:format>image/svg+xml</dc:format>
        <dc:type
           rdf:resource="http://purl.org/dc/dcmitype/StillImage" />
        <dc:title></dc:title>
      </cc:Work>
    </rdf:RDF>
  </metadata>
  <defs
     id="defs2989">
    <linearGradient
       id="linearGradient4095">
      <stop
         id="stop4097"
         offset="0"
         style="stop-color:#ff8401;stop-opacity:1" />
      <stop
         id="stop4099"
         offset="1"
         style="stop-color:#da7100;stop-opacity:1" />
    </linearGradient>
    <linearGradient
       id="linearGradient4085">
      <stop
         id="stop4087"
         offset="0"
         style="stop-color:#4d4d4d;stop-opacity:1" />
      <stop
         id="stop4089"
         offset="1"
         style="stop-color:#000000;stop-opacity:1" />
    </linearGradient>
    <linearGradient
       id="linearGradient4075">
      <stop
         id="stop4077"
         offset="0"
         style="stop-color:#0aa6fe;stop-opacity:1" />
      <stop
         id="stop4079"
         offset="1"
         style="stop-color:#0186cd;stop-opacity:1" />
    </linearGradient>
    <linearGradient
       id="linearGradient4043">
      <stop
         id="stop4045"
         offset="0"
         style="stop-color:#0186cd;stop-opacity:1" />
      <stop
         id="stop4047"
         offset="1"
         style="stop-color:#0186cd;stop-opacity:1" />
    </linearGradient>
    <linearGradient
       id="linearGradient4029">
      <stop
         id="stop4031"
         offset="0"
         style="stop-color:#019cef;stop-opacity:1" />
      <stop
         id="stop4033"
         offset="1"
         style="stop-color:#019cef;stop-opacity:1" />
    </linearGradient>
    <linearGradient
       id="linearGradient4017">
      <stop
         id="stop4019"
         offset="0"
         style="stop-color:#7ad0fe;stop-opacity:1" />
      <stop
         id="stop4021"
         offset="1"
         style="stop-color:#7ad0fe;stop-opacity:1" />
    </linearGradient>
    <linearGradient
       id="linearGradient4005">
      <stop
         id="stop4007"
         offset="0"
         style="stop-color:#38b9fe;stop-opacity:1" />
      <stop
         style="stop-color:#56d7ff;stop-opacity:1"
         offset="0.46666667"
         id="stop4013" />
      <stop
         id="stop4009"
         offset="1"
         style="stop-color:#38b9fe;stop-opacity:1" />
    </linearGradient>
    <linearGradient
       id="linearGradient3910">
      <stop
         id="stop3912"
         offset="0"
         style="stop-color:#00e6e6;stop-opacity:1" />
      <stop
         id="stop3914"
         offset="1"
         style="stop-color:#80ffff;stop-opacity:1" />
    </linearGradient>
    <linearGradient
       id="linearGradient3900">
      <stop
         id="stop3902"
         offset="0"
         style="stop-color:#f9d83e;stop-opacity:1" />
      <stop
         id="stop3904"
         offset="1"
         style="stop-color:#fcefb4;stop-opacity:1" />
    </linearGradient>
    <linearGradient
       id="linearGradient3817">
      <stop
         id="stop3819"
         offset="0"
         style="stop-color:#000000;stop-opacity:1" />
      <stop
         id="stop3821"
         offset="1"
         style="stop-color:#4d4d4d;stop-opacity:1" />
    </linearGradient>
    <linearGradient
       gradientUnits="userSpaceOnUse"
       y2="54"
       x2="10"
       y1="53.957031"
       x1="10"
       id="linearGradient3823"
       xlink:href="#linearGradient3817" />
    <linearGradient
       gradientUnits="userSpaceOnUse"
       y2="54"
       x2="10"
       y1="49"
       x1="10"
       id="linearGradient3906"
       xlink:href="#linearGradient3900" />
    <linearGradient
       gradientUnits="userSpaceOnUse"
       y2="50.447575"
       x2="10"
       y1="49"
       x1="10"
       id="linearGradient3916"
       xlink:href="#linearGradient3910" />
    <linearGradient
       gradientTransform="translate(44.022097,0.02209709)"
       gradientUnits="userSpaceOnUse"
       y2="54"
       x2="10"
       y1="53.957031"
       x1="10"
       id="linearGradient3823-4"
       xlink:href="#linearGradient3817-5" />
    <linearGradient
       id="linearGradient3817-5">
      <stop
         id="stop3819-5"
         offset="0"
         style="stop-color:#000000;stop-opacity:1" />
      <stop
         id="stop3821-1"
         offset="1"
         style="stop-color:#4d4d4d;stop-opacity:1" />
    </linearGradient>
    <linearGradient
       gradientTransform="translate(44.022097,0.02209709)"
       gradientUnits="userSpaceOnUse"
       y2="54"
       x2="10"
       y1="49"
       x1="10"
       id="linearGradient3906-7"
       xlink:href="#linearGradient3900-1" />
    <linearGradient
       id="linearGradient3900-1">
      <stop
         id="stop3902-1"
         offset="0"
         style="stop-color:#f9d83e;stop-opacity:1" />
      <stop
         id="stop3904-5"
         offset="1"
         style="stop-color:#fcefb4;stop-opacity:1" />
    </linearGradient>
    <linearGradient
       gradientUnits="userSpaceOnUse"
       y2="50.447575"
       x2="10"
       y1="49"
       x1="10"
       id="linearGradient3916-2"
       xlink:href="#linearGradient3910-7" />
    <linearGradient
       id="linearGradient3910-7">
      <stop
         id="stop3912-6"
         offset="0"
         style="stop-color:#00e6e6;stop-opacity:1" />
      <stop
         id="stop3914-1"
         offset="1"
         style="stop-color:#80ffff;stop-opacity:1" />
    </linearGradient>
    <linearGradient
       gradientTransform="translate(44.022097,0.02209709)"
       xlink:href="#linearGradient3910-7"
       id="linearGradient3950"
       gradientUnits="userSpaceOnUse"
       x1="10"
       y1="49"
       x2="10"
       y2="50.447575" />
    <linearGradient
       gradientUnits="userSpaceOnUse"
       y2="52"
       x2="32"
       y1="37"
       x1="32"
       id="linearGradient4011"
       xlink:href="#linearGradient4005" />
    <radialGradient
       gradientUnits="userSpaceOnUse"
       gradientTransform="matrix(-8.4482424e-8,1.6111111,-1.8333333,-9.6135168e-8,40.045701,-8.1666655)"
       r="18"
       fy="13.66129"
       fx="15"
       cy="13.66129"
       cx="15"
       id="radialGradient4025"
       xlink:href="#linearGradient4017" />
    <linearGradient
       gradientUnits="userSpaceOnUse"
       y2="46"
       x2="49"
       y1="16"
       x1="49"
       id="linearGradient4035"
       xlink:href="#linearGradient4029" />
    <linearGradient
       gradientUnits="userSpaceOnUse"
       y2="53"
       x2="32"
       y1="10"
       x1="32"
       id="linearGradient4049"
       xlink:href="#linearGradient4043" />
    <linearGradient
       gradientUnits="userSpaceOnUse"
       y2="31.419846"
       x2="7"
       y1="30.685011"
       x1="7"
       id="linearGradient4081"
       xlink:href="#linearGradient4075" />
    <linearGradient
       gradientUnits="userSpaceOnUse"
       y2="58"
       x2="35"
       y1="43"
       x1="35"
       id="linearGradient4091"
       xlink:href="#linearGradient4085" />
    <linearGradient
       gradientUnits="userSpaceOnUse"
       y2="36.353554"
       x2="5"
       y1="35.574524"
       x1="5"
       id="linearGradient4101"
       xlink:href="#linearGradient4095" />
  </defs>
  <path
     id="path4073"
     d="M 18,6 17,6 17,0 0,0 0,32 9,32 9,10 55,10 55,32 64,32 64,0 47,0 47,6 24,6 24,0 18,0 z"
     style="color:#000000;fill:url(#linearGradient4081);fill-opacity:1;stroke:none;stroke-width:1;marker:none;visibility:visible;display:inline;overflow:visible;enable-background:accumulate" />
  <path
     id="path4083"
     d="m 0,32 64,0 0,26 -64,0 z"
     style="color:#000000;fill:url(#linearGradient4091);stroke:none;stroke-width:1;stroke-linecap:butt;stroke-linejoin:miter;stroke-miterlimit:4;stroke-opacity:1;stroke-dasharray:none;stroke-dashoffset:0;marker:none;visibility:visible;display:inline;overflow:visible;enable-background:accumulate;fill-opacity:1" />
  <path
     id="path3908"
     d="m 1,48 18,0 0,8 -18,0 z"
     style="color:#000000;fill:url(#linearGradient3916);stroke:none;stroke-width:1;stroke-linecap:butt;stroke-linejoin:miter;stroke-miterlimit:4;stroke-opacity:1;stroke-dasharray:none;stroke-dashoffset:0;marker:none;visibility:visible;display:inline;overflow:visible;enable-background:accumulate;fill-opacity:1" />
  <path
     id="path3898"
     d="m 2,49 16,0 0,4 -1,0 0,1 -14,0 0,-1 -1,0 z"
     style="color:#000000;fill:url(#linearGradient3906);stroke:none;stroke-width:1;stroke-linecap:butt;stroke-linejoin:miter;stroke-miterlimit:4;stroke-opacity:1;stroke-dasharray:none;stroke-dashoffset:0;marker:none;visibility:visible;display:inline;overflow:visible;enable-background:accumulate;fill-opacity:1" />
  <path
     id="path3815"
     d="m 2,53 1,0 0,1 5,0 0,-1 1,0 0,-4 2,0 0,4 1,0 0,1 5,0 0,-1 1,0 0,2 -16,0 0,-2 1,0 0,1 5,0 0,-1 1,0 0,-4 2,0 0,4 1,0 0,1 5,0 0,-1 1,0 0,2 -16,0 z"
     style="color:#000000;fill:url(#linearGradient3823);stroke:none;stroke-width:1;stroke-linecap:butt;stroke-linejoin:miter;stroke-miterlimit:4;stroke-opacity:1;stroke-dasharray:none;stroke-dashoffset:0;marker:none;visibility:visible;display:inline;overflow:visible;enable-background:accumulate;fill-opacity:1" />
  <path
     id="path3825"
     d="m 3,52 1,0 0,-2 -1,0 z"
     style="color:#000000;fill:#d5d3b7;stroke:none;stroke-width:1;stroke-linecap:butt;stroke-linejoin:miter;stroke-miterlimit:4;stroke-opacity:1;stroke-dasharray:none;stroke-dashoffset:0;marker:none;visibility:visible;display:inline;overflow:visible;enable-background:accumulate;fill-opacity:1" />
  <path
     id="path3825-7"
     d="m 5.0132232,50.994583 1,0 0,-2 -1,0 z"
     style="color:#000000;fill:#d5d3b7;fill-opacity:1;stroke:none;stroke-width:1;marker:none;visibility:visible;display:inline;overflow:visible;enable-background:accumulate" />
  <path
     id="path3825-4"
     d="m 6.9964367,52.000748 1,0 0,-0.994583 -1,0 z"
     style="color:#000000;fill:#d5d3b7;fill-opacity:1;stroke:none;stroke-width:1;marker:none;visibility:visible;display:inline;overflow:visible;enable-background:accumulate" />
  <path
     id="path3825-0"
     d="m 12.00572,52.000135 1,0 0,-2 -1,0 z"
     style="color:#000000;fill:#d5d3b7;fill-opacity:1;stroke:none;stroke-width:1;marker:none;visibility:visible;display:inline;overflow:visible;enable-background:accumulate" />
  <path
     id="path3825-9"
     d="m 16.005203,50.989806 1,0 0,-2 -1,0 z"
     style="color:#000000;fill:#d5d3b7;fill-opacity:1;stroke:none;stroke-width:1;marker:none;visibility:visible;display:inline;overflow:visible;enable-background:accumulate" />
  <path
     id="path3825-4-8"
     d="m 14.006844,51.006379 1,0 0,-0.994583 -1,0 z"
     style="color:#000000;fill:#d5d3b7;fill-opacity:1;stroke:none;stroke-width:1;marker:none;visibility:visible;display:inline;overflow:visible;enable-background:accumulate" />
  <path
     id="path3825-4-2"
     d="m 13.996437,52.995117 1,0 0,-0.994583 -1,0 z"
     style="color:#000000;fill:#d5d3b7;fill-opacity:1;stroke:none;stroke-width:1;marker:none;visibility:visible;display:inline;overflow:visible;enable-background:accumulate" />
  <path
     id="path3908-4"
     d="m 45.022097,48.022097 18,0 0,8 -18,0 z"
     style="color:#000000;fill:url(#linearGradient3950);fill-opacity:1;stroke:none;stroke-width:1;marker:none;visibility:visible;display:inline;overflow:visible;enable-background:accumulate" />
  <path
     id="path3898-2"
     d="m 46.022097,49.022097 16,0 0,4 -1,0 0,1 -14,0 0,-1 -1,0 z"
     style="color:#000000;fill:url(#linearGradient3906-7);fill-opacity:1;stroke:none;stroke-width:1;marker:none;visibility:visible;display:inline;overflow:visible;enable-background:accumulate" />
  <path
     id="path4093"
     d="m 0,35 64,0 0,2 -64,0 z"
     style="color:#000000;fill:url(#linearGradient4101);stroke:none;stroke-width:1;stroke-linecap:butt;stroke-linejoin:miter;stroke-miterlimit:4;stroke-opacity:1;stroke-dasharray:none;stroke-dashoffset:0;marker:none;visibility:visible;display:inline;overflow:visible;enable-background:accumulate;fill-opacity:1" />
  <path
     id="path3815-3"
     d="m 46.022097,53.022097 1,0 0,1 5,0 0,-1 1,0 0,-4 2,0 0,4 1,0 0,1 5,0 0,-1 1,0 0,2 -16,0 0,-2 1,0 0,1 5,0 0,-1 1,0 0,-4 2,0 0,4 1,0 0,1 5,0 0,-1 1,0 0,2 -16,0 z"
     style="color:#000000;fill:url(#linearGradient3823-4);fill-opacity:1;stroke:none;stroke-width:1;marker:none;visibility:visible;display:inline;overflow:visible;enable-background:accumulate" />
  <path
     id="path3825-2"
     d="m 47.022097,52.022097 1,0 0,-2 -1,0 z"
     style="color:#000000;fill:#d5d3b7;fill-opacity:1;stroke:none;stroke-width:1;marker:none;visibility:visible;display:inline;overflow:visible;enable-background:accumulate" />
  <path
     id="path3825-7-2"
     d="m 49.03532,51.01668 1,0 0,-2 -1,0 z"
     style="color:#000000;fill:#d5d3b7;fill-opacity:1;stroke:none;stroke-width:1;marker:none;visibility:visible;display:inline;overflow:visible;enable-background:accumulate" />
  <path
     id="path3825-4-1"
     d="m 51.018534,52.022845 1,0 0,-0.994583 -1,0 z"
     style="color:#000000;fill:#d5d3b7;fill-opacity:1;stroke:none;stroke-width:1;marker:none;visibility:visible;display:inline;overflow:visible;enable-background:accumulate" />
  <path
     id="path3825-0-6"
     d="m 56.027817,52.022232 1,0 0,-2 -1,0 z"
     style="color:#000000;fill:#d5d3b7;fill-opacity:1;stroke:none;stroke-width:1;marker:none;visibility:visible;display:inline;overflow:visible;enable-background:accumulate" />
  <path
     id="path3825-9-8"
     d="m 60.0273,51.011903 1,0 0,-2 -1,0 z"
     style="color:#000000;fill:#d5d3b7;fill-opacity:1;stroke:none;stroke-width:1;marker:none;visibility:visible;display:inline;overflow:visible;enable-background:accumulate" />
  <path
     id="path3825-4-8-5"
     d="m 58.028941,51.028476 1,0 0,-0.994583 -1,0 z"
     style="color:#000000;fill:#d5d3b7;fill-opacity:1;stroke:none;stroke-width:1;marker:none;visibility:visible;display:inline;overflow:visible;enable-background:accumulate" />
  <path
     id="path3825-4-2-7"
     d="m 58.018534,53.017214 1,0 0,-0.994583 -1,0 z"
     style="color:#000000;fill:#d5d3b7;fill-opacity:1;stroke:none;stroke-width:1;marker:none;visibility:visible;display:inline;overflow:visible;enable-background:accumulate" />
  <path
     id="path4041"
     d="m 21,53 0,-6 -12,0 0,-37 46,0 0,37 -12,0 0,6 z"
     style="color:#000000;fill:url(#linearGradient4049);fill-opacity:1;stroke:none;stroke-width:1;marker:none;visibility:visible;display:inline;overflow:visible;enable-background:accumulate" />
  <path
     id="path4003"
     d="m 15,16 34,0 0,30 -7,0 0,6 -20,0 0,-6 -7,0 z"
     style="color:#000000;fill:url(#linearGradient4011);stroke:none;stroke-width:1;stroke-linecap:butt;stroke-linejoin:miter;stroke-miterlimit:4;stroke-opacity:1;stroke-dasharray:none;stroke-dashoffset:0;marker:none;visibility:visible;display:inline;overflow:visible;enable-background:accumulate;fill-opacity:1" />
  <path
     id="path4015"
     d="m 15,46 0,-30 35,0 0,-1 -36,0 0,31 z"
     style="color:#000000;fill:url(#radialGradient4025);stroke:none;stroke-width:1;stroke-linecap:butt;stroke-linejoin:miter;stroke-miterlimit:4;stroke-opacity:1;stroke-dasharray:none;stroke-dashoffset:0;marker:none;visibility:visible;display:inline;overflow:visible;enable-background:accumulate;fill-opacity:1" />
  <path
     id="path4027"
     d="m 49,16 0,30 1,0 0,-30 z"
     style="color:#000000;fill:url(#linearGradient4035);stroke:none;stroke-width:1;stroke-linecap:butt;stroke-linejoin:miter;stroke-miterlimit:4;stroke-opacity:1;stroke-dasharray:none;stroke-dashoffset:0;marker:none;visibility:visible;display:inline;overflow:visible;enable-background:accumulate;fill-opacity:1" />
  <path
     id="path4039"
     d="m 14,46 0,-31 36,0 0,31 4,0 0,-35 -44,0 0,35 z"
     style="color:#000000;fill:#0aa6fe;stroke:none;stroke-width:1;stroke-linecap:butt;stroke-linejoin:miter;stroke-miterlimit:4;stroke-opacity:1;stroke-dasharray:none;stroke-dashoffset:0;marker:none;visibility:visible;display:inline;overflow:visible;enable-background:accumulate;fill-opacity:1" />
  <path
     id="path4051"
     d="m 45,0 0,6 -6,0 0,-6 z"
     style="color:#000000;fill:#808080;stroke:none;stroke-width:1;stroke-linecap:butt;stroke-linejoin:miter;stroke-miterlimit:4;stroke-opacity:1;stroke-dasharray:none;stroke-dashoffset:0;marker:none;visibility:visible;display:inline;overflow:visible;enable-background:accumulate;fill-opacity:1" />
  <path
     id="path4051-6"
     d="m 31.000014,-0.00222426 0,5.99999996 -6,0 0,-5.99999996 z"
     style="color:#000000;fill:#4d4d4d;fill-opacity:1;stroke:none;stroke-width:1;marker:none;visibility:visible;display:inline;overflow:visible;enable-background:accumulate" />
  <path
     id="path4103"
     d="m 17,6 1,0 0,-6 -1,0 z"
     style="color:#000000;fill:#ffffff;stroke:none;stroke-width:1;stroke-linecap:butt;stroke-linejoin:miter;stroke-miterlimit:4;stroke-opacity:1;stroke-dasharray:none;stroke-dashoffset:0;marker:none;visibility:visible;display:inline;overflow:visible;enable-background:accumulate;fill-opacity:1" />
  <path
     id="path4105"
     d="m 25,0 0,6 -1,0 0,-6 z"
     style="color:#000000;fill:#ffffff;stroke:none;stroke-width:1;stroke-linecap:butt;stroke-linejoin:miter;stroke-miterlimit:4;stroke-opacity:1;stroke-dasharray:none;stroke-dashoffset:0;marker:none;visibility:visible;display:inline;overflow:visible;enable-background:accumulate;fill-opacity:1" />
  <path
     id="path4107"
     d="m 31,0 8,0 0,6 -8,0 z"
     style="color:#000000;fill:#ffffff;stroke:none;stroke-width:1;stroke-linecap:butt;stroke-linejoin:miter;stroke-miterlimit:4;stroke-opacity:1;stroke-dasharray:none;stroke-dashoffset:0;marker:none;visibility:visible;display:inline;overflow:visible;enable-background:accumulate;fill-opacity:1" />
  <path
     id="path4109"
     d="m 45,0 2,0 0,6 -2,0 z"
     style="color:#000000;fill:#ffffff;stroke:none;stroke-width:1;stroke-linecap:butt;stroke-linejoin:miter;stroke-miterlimit:4;stroke-opacity:1;stroke-dasharray:none;stroke-dashoffset:0;marker:none;visibility:visible;display:inline;overflow:visible;enable-background:accumulate;fill-opacity:1" />
</svg>
