<?xml version="1.0" encoding="UTF-8" standalone="no"?>
<svg
   xmlns:dc="http://purl.org/dc/elements/1.1/"
   xmlns:cc="http://creativecommons.org/ns#"
   xmlns:rdf="http://www.w3.org/1999/02/22-rdf-syntax-ns#"
   xmlns:svg="http://www.w3.org/2000/svg"
   xmlns="http://www.w3.org/2000/svg"
   id="svg2"
   height="64"
   width="64"
   version="1.1">
  <defs
     id="defs4">
    <linearGradient
       id="linearGradient4803">
      <stop
         offset="0"
         style="stop-color:#ffffff;stop-opacity:1"
         id="stop4805" />
      <stop
         offset="1"
         style="stop-color:#ffffff;stop-opacity:0"
         id="stop4807" />
    </linearGradient>
    <clipPath
       id="clipPath5298">
      <rect
         style="fill:none;stroke:#c3f024;stroke-opacity:1"
         id="rect5300"
         y="-4.0820314e-006"
         x="1.1328125e-006"
         height="64"
         width="64" />
    </clipPath>
    <clipPath
       id="clipPath5592">
      <rect
         style="fill:none;stroke:#5f7a06;stroke-opacity:1"
         id="rect5594"
         y="0"
         x="0"
         height="64"
         width="64" />
    </clipPath>
    <filter
       id="filter5620"
       color-interpolation-filters="sRGB"
       height="1.0374298"
       width="1.9424376"
       y="-0.018714886"
       x="-0.47121879">
      <feGaussianBlur
         stdDeviation="0.49906364"
         id="feGaussianBlur5622" />
    </filter>
    <filter
       id="filter5768"
       color-interpolation-filters="sRGB"
       height="1.3091516"
       width="2.972183"
       y="-0.15457585"
       x="-0.98609149">
      <feGaussianBlur
         stdDeviation="3.9513228"
         id="feGaussianBlur5770" />
    </filter>
    <filter
       id="filter5772"
       color-interpolation-filters="sRGB"
       height="2.346272"
       width="1.3035041"
       y="-0.67313594"
       x="-0.15175202">
      <feGaussianBlur
         stdDeviation="0.65468759"
         id="feGaussianBlur5774" />
    </filter>
    <filter
       id="filter5776"
       color-interpolation-filters="sRGB"
       height="2.7776666"
       width="1.6221834"
       y="-0.88883334"
       x="-0.31109172">
      <feGaussianBlur
         stdDeviation="0.65468759"
         id="feGaussianBlur5778" />
    </filter>
    <filter
       id="filter5780"
       color-interpolation-filters="sRGB"
       height="3.2416897"
       width="1.2304384"
       y="-1.1208448"
       x="-0.11521913">
      <feGaussianBlur
         stdDeviation="0.65468759"
         id="feGaussianBlur5782" />
    </filter>
    <filter
       id="filter5784"
       color-interpolation-filters="sRGB"
       height="4.0113692"
       width="1.3190684"
       y="-1.5056845"
       x="-0.15953419">
      <feGaussianBlur
         stdDeviation="0.65468759"
         id="feGaussianBlur5786" />
    </filter>
    <filter
       id="filter5788"
       color-interpolation-filters="sRGB"
       height="2.3310115"
       width="1.3770808"
       y="-0.66550571"
       x="-0.1885404">
      <feGaussianBlur
         stdDeviation="0.65468759"
         id="feGaussianBlur5790" />
    </filter>
    <filter
       id="filter5792"
       color-interpolation-filters="sRGB"
       height="2.2541692"
       width="1.2183099"
       y="-0.62708461"
       x="-0.10915497">
      <feGaussianBlur
         stdDeviation="0.65468759"
         id="feGaussianBlur5794" />
    </filter>
    <filter
       id="filter5796"
       color-interpolation-filters="sRGB"
       height="2.7675662"
       width="1.3555332"
       y="-0.88378316"
       x="-0.17776667">
      <feGaussianBlur
         stdDeviation="0.65468759"
         id="feGaussianBlur5798" />
    </filter>
  </defs>
  <metadata
     id="metadata7">
    <rdf:RDF>
      <cc:Work
         rdf:about="">
        <dc:format>image/svg+xml</dc:format>
        <dc:type
           rdf:resource="http://purl.org/dc/dcmitype/StillImage" />
        <dc:title></dc:title>
      </cc:Work>
    </rdf:RDF>
  </metadata>
  <g
     id="layer2">
    <rect
       style="fill:#87aa0d;fill-opacity:1;fill-rule:evenodd;stroke:none"
       id="rect3786"
       y="0"
       x="0"
       height="64"
       width="64" />
    <path
       style="fill:none;stroke:none"
       id="path4636"
       d="m 23.356412,64 -9.794624,0 0,-64 9.794624,0 z" />
    <path
       style="fill:#455706;fill-opacity:1;stroke:none"
       id="path3790-0"
       d="M 16.575517,64 0,64 0,0 21.096113,0 c 0,0 1.506865,6.0000003 -2.260298,10 -3.767163,4 6.780895,16 -2.260298,26 -9.0411912,10 11.301491,4 0,28 z" />
    <path
       style="fill:#455706;fill-opacity:1;stroke:none"
       id="path4924"
       d="M 16.575517,64 0,64 0,0 21.096113,0 c 0,0 1.506865,6.0000003 -2.260298,10 -3.767163,4 6.780895,16 -2.260298,26 -9.0411912,10 11.301491,4 0,28 z" />
    <path
       style="fill:none;stroke:#455706;stroke-width:19.45000076;stroke-linecap:round;stroke-linejoin:round;stroke-miterlimit:4;stroke-opacity:1;stroke-dasharray:none;filter:url(#filter5768)"
       id="path4976"
       clip-path="url(#clipPath5298)"
       transform="scale(0.75343266,1)"
       d="m 28.022771,1.3251765 c 0,0 2.010379,5.7515297 -3.015568,9.5858825 -5.025946,3.834353 9.046705,15.337412 -3.015567,24.923294 -12.0622699,9.585882 15.077839,3.834353 0,26.840471" />
    <path
       style="fill:none;stroke:#607a06;stroke-width:4;stroke-linecap:round;stroke-linejoin:round;stroke-miterlimit:4;stroke-opacity:1;stroke-dasharray:none;filter:url(#filter5772)"
       id="path5316"
       d="m 6.8185297,7.7995104 c 0,0 3.2829963,-2.7779197 10.3540643,-2.2728434" />
    <path
       style="fill:none;stroke:#617b06;stroke-width:4;stroke-linecap:round;stroke-linejoin:round;stroke-miterlimit:4;stroke-opacity:1;stroke-dasharray:none;filter:url(#filter5776)"
       id="path5318"
       d="m 13.63706,15.512678 c 2.020305,0 5.050762,-1.767767 5.050762,-1.767767" />
    <path
       style="fill:none;stroke:#617b06;stroke-width:4;stroke-linecap:round;stroke-linejoin:round;stroke-miterlimit:4;stroke-opacity:1;stroke-dasharray:none;filter:url(#filter5780)"
       id="path5320"
       d="M 5.9346462,22.710015 C 8.7125657,24.73032 19.571706,23.972706 19.571706,23.972706" />
    <path
       style="fill:none;stroke:#617b06;stroke-width:4;stroke-linecap:round;stroke-linejoin:round;stroke-miterlimit:4;stroke-opacity:1;stroke-dasharray:none;filter:url(#filter5784)"
       id="path5322"
       d="m 9.217642,33.064078 c 9.091373,0.252538 9.848987,-1.010152 9.848987,-1.010152" />
    <path
       style="fill:none;stroke:#617b06;stroke-width:4;stroke-linecap:round;stroke-linejoin:round;stroke-miterlimit:4;stroke-opacity:1;stroke-dasharray:none;filter:url(#filter5788)"
       id="path5324"
       d="m 9.3439111,40.008877 c 0,0 5.8083779,3.788072 8.3337589,1.767767" />
    <path
       style="fill:none;stroke:#617b06;stroke-width:4;stroke-linecap:round;stroke-linejoin:round;stroke-miterlimit:4;stroke-opacity:1;stroke-dasharray:none;filter:url(#filter5792)"
       id="path5326"
       d="m 4.6719555,49.984133 c 0,0 8.8388345,2.525381 14.3946735,-1.767767" />
    <path
       style="fill:none;stroke:#617b06;stroke-width:4;stroke-linecap:round;stroke-linejoin:round;stroke-miterlimit:4;stroke-opacity:1;stroke-dasharray:none;filter:url(#filter5796)"
       id="path5328"
       d="m 7.9549513,57.939085 c 0,0 8.0812207,-0.252538 8.8388347,1.767767" />
    <path
       style="fill:#000000;fill-opacity:0;stroke:#5f7a06;stroke-width:6.69999981;stroke-linecap:round;stroke-linejoin:round;stroke-miterlimit:4;stroke-opacity:1;stroke-dasharray:none;filter:url(#filter5620)"
       id="path5330"
       clip-path="url(#clipPath5592)"
       transform="matrix(1,0,-0.00394591,1,0.12626907,0)"
       d="m 44.067905,64 c 0,0 0.505076,-25.380083 -1.767767,-43.31029 C 40.027295,2.7595018 43.815367,0 43.815367,0" />
  </g>
</svg>
