<?xml version="1.0" encoding="UTF-8" standalone="no"?>
<svg
   xmlns:dc="http://purl.org/dc/elements/1.1/"
   xmlns:cc="http://creativecommons.org/ns#"
   xmlns:rdf="http://www.w3.org/1999/02/22-rdf-syntax-ns#"
   xmlns:svg="http://www.w3.org/2000/svg"
   xmlns="http://www.w3.org/2000/svg"
   xmlns:xlink="http://www.w3.org/1999/xlink"
   version="1.1"
   id="svg3447"
   height="32"
   width="32">
  <defs
     id="defs3449">
    <mask
       id="mask4325"
       maskUnits="userSpaceOnUse">
      <path
         style="fill:#ffffff;fill-opacity:1;fill-rule:evenodd;stroke:none;display:inline"
         id="path4327"
         d="m 156,80 a 11,11 0 1 1 -22,0 11,11 0 1 1 22,0 z"
         transform="translate(24.5,-0.5)" />
    </mask>
    <mask
       id="mask4639"
       maskUnits="userSpaceOnUse">
      <path
         id="path4641"
         d="m 8,198 0,12 c 0,4.41828 3.58172,8 8,8 4.41828,0 8,-3.58172 8,-8 l 0,-12 -16,0 z"
         style="fill:#ffffff;fill-opacity:1;fill-rule:evenodd;stroke:none" />
    </mask>
  </defs>
  <metadata
     id="metadata3452">
    <rdf:RDF>
      <cc:Work
         rdf:about="">
        <dc:format>image/svg+xml</dc:format>
        <dc:type
           rdf:resource="http://purl.org/dc/dcmitype/StillImage" />
        <dc:title></dc:title>
      </cc:Work>
    </rdf:RDF>
  </metadata>
  <g
     transform="translate(0,-1020.3622)"
     id="layer1">
    <use
       height="256"
       width="256"
       transform="translate(-32.000001,988.36226)"
       id="use5978"
       xlink:href="#g5944"
       y="0"
       x="0"
       style="display:inline" />
    <rect
       y="1025.3622"
       x="10"
       height="12"
       width="12"
       id="rect4668"
       style="fill:#000000;fill-opacity:1;fill-rule:evenodd;stroke:none;display:inline" />
    <path
       id="rect4663"
       d="m 14,1027.3622 0,7 1,0 1,0 3,0 0,-2 -3,0 0,-5 -2,0 z"
       style="fill:#ffffff;fill-opacity:1;fill-rule:evenodd;stroke:none;display:inline" />
    <use
       height="256"
       width="256"
       transform="translate(-224,988.3622)"
       id="use5992"
       xlink:href="#use5976"
       y="0"
       x="0"
       style="display:inline" />
    <g
       id="g3256"
       style="display:inline"
       transform="translate(-96.00002,988.3622)">
      <g
         id="g3250">
        <path
           id="path3095-1"
           d="M 104.58152,50.369054 101.5,58.5 h -1 L 100,60 h 4 v -1.5 h -1 l 3.42533,-8.130946 z"
           style="fill:#000000;fill-opacity:1;stroke:none" />
        <rect
           y="50"
           x="101"
           height="3"
           width="22"
           id="rect3794-8-4"
           style="fill:#000000;fill-opacity:1;stroke:none" />
        <path
           transform="matrix(0.73438809,0,0,1.1306644,29.38134,-4.0265486)"
           d="M 108.41497,54.858495 112.5,47.78301 l 4.08503,7.075485 z"
           id="path3095"
           style="fill:#000000;fill-opacity:1;stroke:none" />
        <use
           height="256"
           width="256"
           transform="matrix(-1,0,0,1,224,0)"
           id="use3984"
           xlink:href="#path3095-1"
           y="0"
           x="0" />
      </g>
    </g>
  </g>
</svg>
