<?xml version="1.0" encoding="UTF-8" standalone="no"?>
<svg
   xmlns:dc="http://purl.org/dc/elements/1.1/"
   xmlns:cc="http://creativecommons.org/ns#"
   xmlns:rdf="http://www.w3.org/1999/02/22-rdf-syntax-ns#"
   xmlns:svg="http://www.w3.org/2000/svg"
   xmlns="http://www.w3.org/2000/svg"
   xmlns:xlink="http://www.w3.org/1999/xlink"
   id="svg2"
   height="64"
   width="64"
   version="1.1">
  <defs
     id="defs4">
    <linearGradient
       id="linearGradient3842">
      <stop
         offset="0"
         style="stop-color:#5c5c5c;stop-opacity:1"
         id="stop3844" />
      <stop
         offset="1"
         style="stop-color:#ffffff;stop-opacity:1"
         id="stop3846" />
    </linearGradient>
    <linearGradient
       id="linearGradient3852">
      <stop
         offset="0"
         style="stop-color:#a48d4d;stop-opacity:1"
         id="stop3854" />
      <stop
         offset="1"
         style="stop-color:#e0c870;stop-opacity:1"
         id="stop3856" />
    </linearGradient>
    <linearGradient
       gradientTransform="translate(10,-8)"
       gradientUnits="userSpaceOnUse"
       xlink:href="#linearGradient3842"
       id="linearGradient3873"
       y2="70.539734"
       x2="52.331123"
       y1="25.344385"
       x1="8.9702139" />
    <linearGradient
       gradientTransform="translate(13.50321,-16.897379)"
       gradientUnits="userSpaceOnUse"
       xlink:href="#linearGradient3852"
       id="linearGradient3875"
       y2="37.923798"
       x2="19.400696"
       y1="77.14241"
       x1="20.026524" />
    <filter
       id="filter4761"
       color-interpolation-filters="sRGB"
       height="1.3399529"
       width="1.2222769"
       y="-0.16997647"
       x="-0.11113846">
      <feGaussianBlur
         stdDeviation="1.204"
         id="feGaussianBlur4763" />
    </filter>
    <filter
       id="filter4761-7"
       color-interpolation-filters="sRGB"
       height="1.3399529"
       width="1.2222769"
       y="-0.16997647"
       x="-0.11113846">
      <feGaussianBlur
         stdDeviation="1.204"
         id="feGaussianBlur4763-6" />
    </filter>
    <linearGradient
       gradientTransform="translate(13.50321,-16.897379)"
       gradientUnits="userSpaceOnUse"
       xlink:href="#linearGradient3852-7"
       id="linearGradient3858"
       y2="37.923798"
       x2="19.400696"
       y1="77.14241"
       x1="20.026524" />
    <linearGradient
       id="linearGradient3852-7">
      <stop
         offset="0"
         style="stop-color:#a48d4d;stop-opacity:1"
         id="stop3854-6" />
      <stop
         offset="1"
         style="stop-color:#e0c870;stop-opacity:1"
         id="stop3856-4" />
    </linearGradient>
    <linearGradient
       gradientTransform="translate(10,-8)"
       gradientUnits="userSpaceOnUse"
       xlink:href="#linearGradient3842-1"
       id="linearGradient3848"
       y2="70.539734"
       x2="52.331123"
       y1="25.344385"
       x1="8.9702139" />
    <linearGradient
       id="linearGradient3842-1">
      <stop
         offset="0"
         style="stop-color:#5c5c5c;stop-opacity:1"
         id="stop3844-7" />
      <stop
         offset="1"
         style="stop-color:#ffffff;stop-opacity:1"
         id="stop3846-3" />
    </linearGradient>
    <linearGradient
       gradientUnits="userSpaceOnUse"
       xlink:href="#linearGradient3003"
       id="linearGradient3009"
       y2="0"
       x2="0"
       y1="64"
       x1="64" />
    <linearGradient
       id="linearGradient3003">
      <stop
         offset="0"
         style="stop-color:#4f3e1b;stop-opacity:1"
         id="stop3005" />
      <stop
         offset="1"
         style="stop-color:#c2ab5f;stop-opacity:1"
         id="stop3007" />
    </linearGradient>
    <linearGradient
       gradientUnits="userSpaceOnUse"
       xlink:href="#linearGradient3003"
       id="linearGradient3048"
       y2="0"
       x2="0"
       y1="64"
       x1="64" />
  </defs>
  <metadata
     id="metadata7">
    <rdf:RDF>
      <cc:Work
         rdf:about="">
        <dc:format>image/svg+xml</dc:format>
        <dc:type
           rdf:resource="http://purl.org/dc/dcmitype/StillImage" />
        <dc:title></dc:title>
      </cc:Work>
    </rdf:RDF>
  </metadata>
  <g
     id="layer3">
    <rect
       style="fill:url(#linearGradient3048);fill-opacity:1;stroke:none"
       id="rect3001"
       y="0"
       x="0"
       height="64"
       width="64" />
    <rect
       style="fill:url(#linearGradient3848);fill-opacity:1;stroke:none"
       id="rect3840"
       y="2"
       x="2"
       height="60"
       width="60" />
    <rect
       style="fill:url(#linearGradient3858);fill-opacity:1;stroke:none"
       id="rect3850"
       y="4"
       x="4"
       height="56"
       width="56" />
    <rect
       style="opacity:0.36398465;fill:#000000;fill-opacity:1;stroke:none;filter:url(#filter4761)"
       id="rect3877-2"
       y="14.1104"
       x="20.110399"
       height="17"
       width="26" />
    <rect
       style="fill:#404040;fill-opacity:1;stroke:none"
       id="rect3877"
       y="14"
       x="20"
       height="15"
       width="24" />
    <rect
       style="opacity:0.36398465;fill:#000000;fill-opacity:1;stroke:none;filter:url(#filter4761-7)"
       id="rect3877-2-1"
       y="32.319172"
       x="20.115469"
       height="17"
       width="26" />
    <rect
       style="fill:#5b5b5b;fill-opacity:1;stroke:none"
       id="rect3883"
       y="32"
       x="20"
       height="15"
       width="24" />
    <g
       id="g4072"
       transform="matrix(0.05773116,0,0,0.0646235,21.05739,15.005338)">
      <g
         id="layer1-5">
        <rect
           style="fill:none;stroke:#000000;stroke-width:1;stroke-linecap:butt;stroke-linejoin:miter;stroke-miterlimit:4;stroke-opacity:1;stroke-dasharray:none;stroke-dashoffset:0"
           id="rect8764"
           y="1"
           x="0"
           height="199"
           width="379" />
      </g>
      <g
         id="layer4">
        <rect
           style="fill:#bf0a30;fill-opacity:1;fill-rule:evenodd;stroke:none"
           id="rect8767"
           y="184"
           x="0"
           height="16"
           width="379" />
        <rect
           style="fill:#ffffff;fill-opacity:1;fill-rule:evenodd;stroke:none"
           id="rect8769"
           y="168"
           x="0"
           height="16"
           width="379" />
        <rect
           style="fill:#bf0a30;fill-opacity:1;fill-rule:evenodd;stroke:none"
           id="rect8771"
           y="152"
           x="0"
           height="16"
           width="379" />
        <rect
           style="fill:#ffffff;fill-opacity:1;fill-rule:evenodd;stroke:none"
           id="rect8773"
           y="136"
           x="0"
           height="16"
           width="379" />
        <rect
           style="fill:#bf0a30;fill-opacity:1;fill-rule:evenodd;stroke:none"
           id="rect8775"
           y="121"
           x="0"
           height="15"
           width="379" />
        <rect
           style="fill:#ffffff;fill-opacity:1;fill-rule:evenodd;stroke:none"
           id="rect8777"
           y="106"
           x="0"
           height="15"
           width="379" />
        <rect
           style="fill:#bf0a30;fill-opacity:1;fill-rule:evenodd;stroke:none"
           id="rect8779"
           y="91"
           x="0"
           height="15"
           width="379" />
        <rect
           style="fill:#ffffff;fill-opacity:1;fill-rule:evenodd;stroke:none"
           id="rect8781"
           y="76"
           x="0"
           height="15"
           width="379" />
        <rect
           style="fill:#bf0a30;fill-opacity:1;fill-rule:evenodd;stroke:none"
           id="rect8783"
           y="61"
           x="0"
           height="15"
           width="379" />
        <rect
           style="fill:#ffffff;fill-opacity:1;fill-rule:evenodd;stroke:none"
           id="rect8785"
           y="46"
           x="0"
           height="15"
           width="379" />
        <rect
           style="fill:#bf0a30;fill-opacity:1;fill-rule:evenodd;stroke:none"
           id="rect8787"
           y="31"
           x="0"
           height="15"
           width="379" />
        <rect
           style="fill:#ffffff;fill-opacity:1;fill-rule:evenodd;stroke:none"
           id="rect8791"
           y="16"
           x="0"
           height="15"
           width="379" />
        <rect
           style="fill:#bf0a30;fill-opacity:1;fill-rule:evenodd;stroke:none"
           id="rect8793"
           y="1"
           x="0"
           height="15"
           width="379" />
      </g>
      <g
         id="layer5">
        <rect
           style="fill:#002868;fill-opacity:1;fill-rule:evenodd;stroke:none"
           id="rect8796"
           y="1"
           x="0"
           height="105"
           width="152" />
      </g>
      <g
         id="layer6">
        <path
           style="fill:#ffffff;fill-opacity:1;fill-rule:evenodd;stroke:none"
           id="path8825"
           transform="matrix(1.0486689,0.08995095,-0.08593013,1.0977379,-86.263355,-76.410922)"
           d="m 100.33333,146.66667 4.13886,-0.77244 1.27511,-4.01259 2.01361,3.69759 4.21023,-0.0273 -2.89438,3.05767 1.32696,3.99575 -3.80244,-1.80785 -3.39013,2.49677 0.54435,-4.17499 z" />
        <path
           style="fill:#ffffff;fill-opacity:1;fill-rule:evenodd;stroke:none"
           id="path8827"
           transform="matrix(1.0486689,0.08995095,-0.08593013,1.0977379,-61.263355,-76.410922)"
           d="m 100.33333,146.66667 4.13886,-0.77244 1.27511,-4.01259 2.01361,3.69759 4.21023,-0.0273 -2.89438,3.05767 1.32696,3.99575 -3.80244,-1.80785 -3.39013,2.49677 0.54435,-4.17499 z" />
        <path
           style="fill:#ffffff;fill-opacity:1;fill-rule:evenodd;stroke:none"
           id="path8829"
           transform="matrix(1.0486689,0.08995095,-0.08593013,1.0977379,-35.263355,-76.410922)"
           d="m 100.33333,146.66667 4.13886,-0.77244 1.27511,-4.01259 2.01361,3.69759 4.21023,-0.0273 -2.89438,3.05767 1.32696,3.99575 -3.80244,-1.80785 -3.39013,2.49677 0.54435,-4.17499 z" />
        <path
           style="fill:#ffffff;fill-opacity:1;fill-rule:evenodd;stroke:none"
           id="path8831"
           transform="matrix(1.0486689,0.08995095,-0.08593013,1.0977379,-10.263355,-76.410922)"
           d="m 100.33333,146.66667 4.13886,-0.77244 1.27511,-4.01259 2.01361,3.69759 4.21023,-0.0273 -2.89438,3.05767 1.32696,3.99575 -3.80244,-1.80785 -3.39013,2.49677 0.54435,-4.17499 z" />
        <path
           style="fill:#ffffff;fill-opacity:1;fill-rule:evenodd;stroke:none"
           id="path8833"
           transform="matrix(1.0486689,0.08995095,-0.08593013,1.0977379,14.736645,-76.410922)"
           d="m 100.33333,146.66667 4.13886,-0.77244 1.27511,-4.01259 2.01361,3.69759 4.21023,-0.0273 -2.89438,3.05767 1.32696,3.99575 -3.80244,-1.80785 -3.39013,2.49677 0.54435,-4.17499 z" />
        <path
           style="fill:#ffffff;fill-opacity:1;fill-rule:evenodd;stroke:none"
           id="path8835"
           transform="matrix(1.0486689,0.08995095,-0.08593013,1.0977379,40.736644,-76.410922)"
           d="m 100.33333,146.66667 4.13886,-0.77244 1.27511,-4.01259 2.01361,3.69759 4.21023,-0.0273 -2.89438,3.05767 1.32696,3.99575 -3.80244,-1.80785 -3.39013,2.49677 0.54435,-4.17499 z" />
        <path
           style="fill:#ffffff;fill-opacity:1;fill-rule:evenodd;stroke:none"
           id="path8837"
           transform="matrix(1.0486689,0.08995095,-0.08593013,1.0977379,-73.263353,-86.410922)"
           d="m 100.33333,146.66667 4.13886,-0.77244 1.27511,-4.01259 2.01361,3.69759 4.21023,-0.0273 -2.89438,3.05767 1.32696,3.99575 -3.80244,-1.80785 -3.39013,2.49677 0.54435,-4.17499 z" />
        <path
           style="fill:#ffffff;fill-opacity:1;fill-rule:evenodd;stroke:none"
           id="path8839"
           transform="matrix(1.0486689,0.08995095,-0.08593013,1.0977379,-86.263353,-97.410922)"
           d="m 100.33333,146.66667 4.13886,-0.77244 1.27511,-4.01259 2.01361,3.69759 4.21023,-0.0273 -2.89438,3.05767 1.32696,3.99575 -3.80244,-1.80785 -3.39013,2.49677 0.54435,-4.17499 z" />
        <path
           style="fill:#ffffff;fill-opacity:1;fill-rule:evenodd;stroke:none"
           id="path8841"
           transform="matrix(1.0486689,0.08995095,-0.08593013,1.0977379,-73.263356,-107.41092)"
           d="m 100.33333,146.66667 4.13886,-0.77244 1.27511,-4.01259 2.01361,3.69759 4.21023,-0.0273 -2.89438,3.05767 1.32696,3.99575 -3.80244,-1.80785 -3.39013,2.49677 0.54435,-4.17499 z" />
        <path
           style="fill:#ffffff;fill-opacity:1;fill-rule:evenodd;stroke:none"
           id="path8843"
           transform="matrix(1.0486689,0.08995095,-0.08593013,1.0977379,-86.263356,-118.41092)"
           d="m 100.33333,146.66667 4.13886,-0.77244 1.27511,-4.01259 2.01361,3.69759 4.21023,-0.0273 -2.89438,3.05767 1.32696,3.99575 -3.80244,-1.80785 -3.39013,2.49677 0.54435,-4.17499 z" />
        <path
           style="fill:#ffffff;fill-opacity:1;fill-rule:evenodd;stroke:none"
           id="path8845"
           transform="matrix(1.0486689,0.08995095,-0.08593013,1.0977379,-73.263356,-128.41092)"
           d="m 100.33333,146.66667 4.13886,-0.77244 1.27511,-4.01259 2.01361,3.69759 4.21023,-0.0273 -2.89438,3.05767 1.32696,3.99575 -3.80244,-1.80785 -3.39013,2.49677 0.54435,-4.17499 z" />
        <path
           style="fill:#ffffff;fill-opacity:1;fill-rule:evenodd;stroke:none"
           id="path8847"
           transform="matrix(1.0486689,0.08995095,-0.08593013,1.0977379,-86.263356,-139.41092)"
           d="m 100.33333,146.66667 4.13886,-0.77244 1.27511,-4.01259 2.01361,3.69759 4.21023,-0.0273 -2.89438,3.05767 1.32696,3.99575 -3.80244,-1.80785 -3.39013,2.49677 0.54435,-4.17499 z" />
        <path
           style="fill:#ffffff;fill-opacity:1;fill-rule:evenodd;stroke:none"
           id="path8849"
           transform="matrix(1.0486689,0.08995095,-0.08593013,1.0977379,-73.263356,-149.41092)"
           d="m 100.33333,146.66667 4.13886,-0.77244 1.27511,-4.01259 2.01361,3.69759 4.21023,-0.0273 -2.89438,3.05767 1.32696,3.99575 -3.80244,-1.80785 -3.39013,2.49677 0.54435,-4.17499 z" />
        <path
           style="fill:#ffffff;fill-opacity:1;fill-rule:evenodd;stroke:none"
           id="path8851"
           transform="matrix(1.0486689,0.08995095,-0.08593013,1.0977379,-86.263356,-160.41092)"
           d="m 100.33333,146.66667 4.13886,-0.77244 1.27511,-4.01259 2.01361,3.69759 4.21023,-0.0273 -2.89438,3.05767 1.32696,3.99575 -3.80244,-1.80785 -3.39013,2.49677 0.54435,-4.17499 z" />
        <path
           style="fill:#ffffff;fill-opacity:1;fill-rule:evenodd;stroke:none"
           id="path8853"
           transform="matrix(1.0486689,0.08995095,-0.08593013,1.0977379,-48.263355,-86.410922)"
           d="m 100.33333,146.66667 4.13886,-0.77244 1.27511,-4.01259 2.01361,3.69759 4.21023,-0.0273 -2.89438,3.05767 1.32696,3.99575 -3.80244,-1.80785 -3.39013,2.49677 0.54435,-4.17499 z" />
        <path
           style="fill:#ffffff;fill-opacity:1;fill-rule:evenodd;stroke:none"
           id="path8855"
           transform="matrix(1.0486689,0.08995095,-0.08593013,1.0977379,-61.263355,-97.410922)"
           d="m 100.33333,146.66667 4.13886,-0.77244 1.27511,-4.01259 2.01361,3.69759 4.21023,-0.0273 -2.89438,3.05767 1.32696,3.99575 -3.80244,-1.80785 -3.39013,2.49677 0.54435,-4.17499 z" />
        <path
           style="fill:#ffffff;fill-opacity:1;fill-rule:evenodd;stroke:none"
           id="path8857"
           transform="matrix(1.0486689,0.08995095,-0.08593013,1.0977379,-48.263355,-107.41092)"
           d="m 100.33333,146.66667 4.13886,-0.77244 1.27511,-4.01259 2.01361,3.69759 4.21023,-0.0273 -2.89438,3.05767 1.32696,3.99575 -3.80244,-1.80785 -3.39013,2.49677 0.54435,-4.17499 z" />
        <path
           style="fill:#ffffff;fill-opacity:1;fill-rule:evenodd;stroke:none"
           id="path8859"
           transform="matrix(1.0486689,0.08995095,-0.08593013,1.0977379,-61.263355,-118.41092)"
           d="m 100.33333,146.66667 4.13886,-0.77244 1.27511,-4.01259 2.01361,3.69759 4.21023,-0.0273 -2.89438,3.05767 1.32696,3.99575 -3.80244,-1.80785 -3.39013,2.49677 0.54435,-4.17499 z" />
        <path
           style="fill:#ffffff;fill-opacity:1;fill-rule:evenodd;stroke:none"
           id="path8861"
           transform="matrix(1.0486689,0.08995095,-0.08593013,1.0977379,-48.263355,-128.41092)"
           d="m 100.33333,146.66667 4.13886,-0.77244 1.27511,-4.01259 2.01361,3.69759 4.21023,-0.0273 -2.89438,3.05767 1.32696,3.99575 -3.80244,-1.80785 -3.39013,2.49677 0.54435,-4.17499 z" />
        <path
           style="fill:#ffffff;fill-opacity:1;fill-rule:evenodd;stroke:none"
           id="path8863"
           transform="matrix(1.0486689,0.08995095,-0.08593013,1.0977379,-61.263355,-139.41092)"
           d="m 100.33333,146.66667 4.13886,-0.77244 1.27511,-4.01259 2.01361,3.69759 4.21023,-0.0273 -2.89438,3.05767 1.32696,3.99575 -3.80244,-1.80785 -3.39013,2.49677 0.54435,-4.17499 z" />
        <path
           style="fill:#ffffff;fill-opacity:1;fill-rule:evenodd;stroke:none"
           id="path8865"
           transform="matrix(1.0486689,0.08995095,-0.08593013,1.0977379,-48.263355,-149.41092)"
           d="m 100.33333,146.66667 4.13886,-0.77244 1.27511,-4.01259 2.01361,3.69759 4.21023,-0.0273 -2.89438,3.05767 1.32696,3.99575 -3.80244,-1.80785 -3.39013,2.49677 0.54435,-4.17499 z" />
        <path
           style="fill:#ffffff;fill-opacity:1;fill-rule:evenodd;stroke:none"
           id="path8867"
           transform="matrix(1.0486689,0.08995095,-0.08593013,1.0977379,-61.263356,-160.41092)"
           d="m 100.33333,146.66667 4.13886,-0.77244 1.27511,-4.01259 2.01361,3.69759 4.21023,-0.0273 -2.89438,3.05767 1.32696,3.99575 -3.80244,-1.80785 -3.39013,2.49677 0.54435,-4.17499 z" />
        <path
           style="fill:#ffffff;fill-opacity:1;fill-rule:evenodd;stroke:none"
           id="path8869"
           transform="matrix(1.0486689,0.08995095,-0.08593013,1.0977379,-23.263355,-86.410922)"
           d="m 100.33333,146.66667 4.13886,-0.77244 1.27511,-4.01259 2.01361,3.69759 4.21023,-0.0273 -2.89438,3.05767 1.32696,3.99575 -3.80244,-1.80785 -3.39013,2.49677 0.54435,-4.17499 z" />
        <path
           style="fill:#ffffff;fill-opacity:1;fill-rule:evenodd;stroke:none"
           id="path8871"
           transform="matrix(1.0486689,0.08995095,-0.08593013,1.0977379,-35.263355,-97.410922)"
           d="m 100.33333,146.66667 4.13886,-0.77244 1.27511,-4.01259 2.01361,3.69759 4.21023,-0.0273 -2.89438,3.05767 1.32696,3.99575 -3.80244,-1.80785 -3.39013,2.49677 0.54435,-4.17499 z" />
        <path
           style="fill:#ffffff;fill-opacity:1;fill-rule:evenodd;stroke:none"
           id="path8873"
           transform="matrix(1.0486689,0.08995095,-0.08593013,1.0977379,14.736647,-97.410922)"
           d="m 100.33333,146.66667 4.13886,-0.77244 1.27511,-4.01259 2.01361,3.69759 4.21023,-0.0273 -2.89438,3.05767 1.32696,3.99575 -3.80244,-1.80785 -3.39013,2.49677 0.54435,-4.17499 z" />
        <path
           style="fill:#ffffff;fill-opacity:1;fill-rule:evenodd;stroke:none"
           id="path8875"
           transform="matrix(1.0486689,0.08995095,-0.08593013,1.0977379,-10.263355,-97.410922)"
           d="m 100.33333,146.66667 4.13886,-0.77244 1.27511,-4.01259 2.01361,3.69759 4.21023,-0.0273 -2.89438,3.05767 1.32696,3.99575 -3.80244,-1.80785 -3.39013,2.49677 0.54435,-4.17499 z" />
        <path
           style="fill:#ffffff;fill-opacity:1;fill-rule:evenodd;stroke:none"
           id="path8877"
           transform="matrix(1.0486689,0.08995095,-0.08593013,1.0977379,27.736645,-86.410922)"
           d="m 100.33333,146.66667 4.13886,-0.77244 1.27511,-4.01259 2.01361,3.69759 4.21023,-0.0273 -2.89438,3.05767 1.32696,3.99575 -3.80244,-1.80785 -3.39013,2.49677 0.54435,-4.17499 z" />
        <path
           style="fill:#ffffff;fill-opacity:1;fill-rule:evenodd;stroke:none"
           id="path8879"
           transform="matrix(1.0486689,0.08995095,-0.08593013,1.0977379,2.7366446,-86.410922)"
           d="m 100.33333,146.66667 4.13886,-0.77244 1.27511,-4.01259 2.01361,3.69759 4.21023,-0.0273 -2.89438,3.05767 1.32696,3.99575 -3.80244,-1.80785 -3.39013,2.49677 0.54435,-4.17499 z" />
        <path
           style="fill:#ffffff;fill-opacity:1;fill-rule:evenodd;stroke:none"
           id="path8881"
           transform="matrix(1.0486689,0.08995095,-0.08593013,1.0977379,-35.263355,-160.41092)"
           d="m 100.33333,146.66667 4.13886,-0.77244 1.27511,-4.01259 2.01361,3.69759 4.21023,-0.0273 -2.89438,3.05767 1.32696,3.99575 -3.80244,-1.80785 -3.39013,2.49677 0.54435,-4.17499 z" />
        <path
           style="fill:#ffffff;fill-opacity:1;fill-rule:evenodd;stroke:none"
           id="path8883"
           transform="matrix(1.0486689,0.08995095,-0.08593013,1.0977379,-23.263355,-149.41092)"
           d="m 100.33333,146.66667 4.13886,-0.77244 1.27511,-4.01259 2.01361,3.69759 4.21023,-0.0273 -2.89438,3.05767 1.32696,3.99575 -3.80244,-1.80785 -3.39013,2.49677 0.54435,-4.17499 z" />
        <path
           style="fill:#ffffff;fill-opacity:1;fill-rule:evenodd;stroke:none"
           id="path8885"
           transform="matrix(1.0486689,0.08995095,-0.08593013,1.0977379,-35.263355,-139.41092)"
           d="m 100.33333,146.66667 4.13886,-0.77244 1.27511,-4.01259 2.01361,3.69759 4.21023,-0.0273 -2.89438,3.05767 1.32696,3.99575 -3.80244,-1.80785 -3.39013,2.49677 0.54435,-4.17499 z" />
        <path
           style="fill:#ffffff;fill-opacity:1;fill-rule:evenodd;stroke:none"
           id="path8887"
           transform="matrix(1.0486689,0.08995095,-0.08593013,1.0977379,-23.263355,-128.41092)"
           d="m 100.33333,146.66667 4.13886,-0.77244 1.27511,-4.01259 2.01361,3.69759 4.21023,-0.0273 -2.89438,3.05767 1.32696,3.99575 -3.80244,-1.80785 -3.39013,2.49677 0.54435,-4.17499 z" />
        <path
           style="fill:#ffffff;fill-opacity:1;fill-rule:evenodd;stroke:none"
           id="path8889"
           transform="matrix(1.0486689,0.08995095,-0.08593013,1.0977379,-35.263355,-118.41092)"
           d="m 100.33333,146.66667 4.13886,-0.77244 1.27511,-4.01259 2.01361,3.69759 4.21023,-0.0273 -2.89438,3.05767 1.32696,3.99575 -3.80244,-1.80785 -3.39013,2.49677 0.54435,-4.17499 z" />
        <path
           style="fill:#ffffff;fill-opacity:1;fill-rule:evenodd;stroke:none"
           id="path8891"
           transform="matrix(1.0486689,0.08995095,-0.08593013,1.0977379,-23.263355,-107.41092)"
           d="m 100.33333,146.66667 4.13886,-0.77244 1.27511,-4.01259 2.01361,3.69759 4.21023,-0.0273 -2.89438,3.05767 1.32696,3.99575 -3.80244,-1.80785 -3.39013,2.49677 0.54435,-4.17499 z" />
        <path
           style="fill:#ffffff;fill-opacity:1;fill-rule:evenodd;stroke:none"
           id="path8893"
           transform="matrix(1.0486689,0.08995095,-0.08593013,1.0977379,40.736647,-97.410922)"
           d="m 100.33333,146.66667 4.13886,-0.77244 1.27511,-4.01259 2.01361,3.69759 4.21023,-0.0273 -2.89438,3.05767 1.32696,3.99575 -3.80244,-1.80785 -3.39013,2.49677 0.54435,-4.17499 z" />
        <path
           style="fill:#ffffff;fill-opacity:1;fill-rule:evenodd;stroke:none"
           id="path8895"
           transform="matrix(1.0486689,0.08995095,-0.08593013,1.0977379,-10.263354,-118.41092)"
           d="m 100.33333,146.66667 4.13886,-0.77244 1.27511,-4.01259 2.01361,3.69759 4.21023,-0.0273 -2.89438,3.05767 1.32696,3.99575 -3.80244,-1.80785 -3.39013,2.49677 0.54435,-4.17499 z" />
        <path
           style="fill:#ffffff;fill-opacity:1;fill-rule:evenodd;stroke:none"
           id="path8897"
           transform="matrix(1.0486689,0.08995095,-0.08593013,1.0977379,-10.263355,-160.41092)"
           d="m 100.33333,146.66667 4.13886,-0.77244 1.27511,-4.01259 2.01361,3.69759 4.21023,-0.0273 -2.89438,3.05767 1.32696,3.99575 -3.80244,-1.80785 -3.39013,2.49677 0.54435,-4.17499 z" />
        <path
           style="fill:#ffffff;fill-opacity:1;fill-rule:evenodd;stroke:none"
           id="path8899"
           transform="matrix(1.0486689,0.08995095,-0.08593013,1.0977379,-10.263356,-139.41092)"
           d="m 100.33333,146.66667 4.13886,-0.77244 1.27511,-4.01259 2.01361,3.69759 4.21023,-0.0273 -2.89438,3.05767 1.32696,3.99575 -3.80244,-1.80785 -3.39013,2.49677 0.54435,-4.17499 z" />
        <path
           style="fill:#ffffff;fill-opacity:1;fill-rule:evenodd;stroke:none"
           id="path8901"
           transform="matrix(1.0486689,0.08995095,-0.08593013,1.0977379,27.736647,-107.41092)"
           d="m 100.33333,146.66667 4.13886,-0.77244 1.27511,-4.01259 2.01361,3.69759 4.21023,-0.0273 -2.89438,3.05767 1.32696,3.99575 -3.80244,-1.80785 -3.39013,2.49677 0.54435,-4.17499 z" />
        <path
           style="fill:#ffffff;fill-opacity:1;fill-rule:evenodd;stroke:none"
           id="path8903"
           transform="matrix(1.0486689,0.08995095,-0.08593013,1.0977379,2.7366468,-107.41092)"
           d="m 100.33333,146.66667 4.13886,-0.77244 1.27511,-4.01259 2.01361,3.69759 4.21023,-0.0273 -2.89438,3.05767 1.32696,3.99575 -3.80244,-1.80785 -3.39013,2.49677 0.54435,-4.17499 z" />
        <path
           style="fill:#ffffff;fill-opacity:1;fill-rule:evenodd;stroke:none"
           id="path8905"
           transform="matrix(1.0486689,0.08995095,-0.08593013,1.0977379,2.7366443,-149.41092)"
           d="m 100.33333,146.66667 4.13886,-0.77244 1.27511,-4.01259 2.01361,3.69759 4.21023,-0.0273 -2.89438,3.05767 1.32696,3.99575 -3.80244,-1.80785 -3.39013,2.49677 0.54435,-4.17499 z" />
        <path
           style="fill:#ffffff;fill-opacity:1;fill-rule:evenodd;stroke:none"
           id="path8907"
           transform="matrix(1.0486689,0.08995095,-0.08593013,1.0977379,2.7366465,-128.41092)"
           d="m 100.33333,146.66667 4.13886,-0.77244 1.27511,-4.01259 2.01361,3.69759 4.21023,-0.0273 -2.89438,3.05767 1.32696,3.99575 -3.80244,-1.80785 -3.39013,2.49677 0.54435,-4.17499 z" />
        <path
           style="fill:#ffffff;fill-opacity:1;fill-rule:evenodd;stroke:none"
           id="path8909"
           transform="matrix(1.0486689,0.08995095,-0.08593013,1.0977379,40.736647,-118.41092)"
           d="m 100.33333,146.66667 4.13886,-0.77244 1.27511,-4.01259 2.01361,3.69759 4.21023,-0.0273 -2.89438,3.05767 1.32696,3.99575 -3.80244,-1.80785 -3.39013,2.49677 0.54435,-4.17499 z" />
        <path
           style="fill:#ffffff;fill-opacity:1;fill-rule:evenodd;stroke:none"
           id="path8911"
           transform="matrix(1.0486689,0.08995095,-0.08593013,1.0977379,14.736644,-118.41092)"
           d="m 100.33333,146.66667 4.13886,-0.77244 1.27511,-4.01259 2.01361,3.69759 4.21023,-0.0273 -2.89438,3.05767 1.32696,3.99575 -3.80244,-1.80785 -3.39013,2.49677 0.54435,-4.17499 z" />
        <path
           style="fill:#ffffff;fill-opacity:1;fill-rule:evenodd;stroke:none"
           id="path8913"
           transform="matrix(1.0486689,0.08995095,-0.08593013,1.0977379,14.736644,-160.41092)"
           d="m 100.33333,146.66667 4.13886,-0.77244 1.27511,-4.01259 2.01361,3.69759 4.21023,-0.0273 -2.89438,3.05767 1.32696,3.99575 -3.80244,-1.80785 -3.39013,2.49677 0.54435,-4.17499 z" />
        <path
           style="fill:#ffffff;fill-opacity:1;fill-rule:evenodd;stroke:none"
           id="path8915"
           transform="matrix(1.0486689,0.08995095,-0.08593013,1.0977379,14.736644,-139.41092)"
           d="m 100.33333,146.66667 4.13886,-0.77244 1.27511,-4.01259 2.01361,3.69759 4.21023,-0.0273 -2.89438,3.05767 1.32696,3.99575 -3.80244,-1.80785 -3.39013,2.49677 0.54435,-4.17499 z" />
        <path
           style="fill:#ffffff;fill-opacity:1;fill-rule:evenodd;stroke:none"
           id="path8917"
           transform="matrix(1.0486689,0.08995095,-0.08593013,1.0977379,40.736644,-160.41092)"
           d="m 100.33333,146.66667 4.13886,-0.77244 1.27511,-4.01259 2.01361,3.69759 4.21023,-0.0273 -2.89438,3.05767 1.32696,3.99575 -3.80244,-1.80785 -3.39013,2.49677 0.54435,-4.17499 z" />
        <path
           style="fill:#ffffff;fill-opacity:1;fill-rule:evenodd;stroke:none"
           id="path8919"
           transform="matrix(1.0486689,0.08995095,-0.08593013,1.0977379,27.736644,-149.41092)"
           d="m 100.33333,146.66667 4.13886,-0.77244 1.27511,-4.01259 2.01361,3.69759 4.21023,-0.0273 -2.89438,3.05767 1.32696,3.99575 -3.80244,-1.80785 -3.39013,2.49677 0.54435,-4.17499 z" />
        <path
           style="fill:#ffffff;fill-opacity:1;fill-rule:evenodd;stroke:none"
           id="path8921"
           transform="matrix(1.0486689,0.08995095,-0.08593013,1.0977379,40.736644,-139.41092)"
           d="m 100.33333,146.66667 4.13886,-0.77244 1.27511,-4.01259 2.01361,3.69759 4.21023,-0.0273 -2.89438,3.05767 1.32696,3.99575 -3.80244,-1.80785 -3.39013,2.49677 0.54435,-4.17499 z" />
        <path
           style="fill:#ffffff;fill-opacity:1;fill-rule:evenodd;stroke:none"
           id="path8923"
           transform="matrix(1.0486689,0.08995095,-0.08593013,1.0977379,27.736644,-128.41092)"
           d="m 100.33333,146.66667 4.13886,-0.77244 1.27511,-4.01259 2.01361,3.69759 4.21023,-0.0273 -2.89438,3.05767 1.32696,3.99575 -3.80244,-1.80785 -3.39013,2.49677 0.54435,-4.17499 z" />
      </g>
    </g>
    <rect
       style="fill:#777676;fill-opacity:1;stroke:none"
       id="rect4163"
       y="33"
       x="21"
       height="13"
       width="22" />
    <text
       style="font-size:1px;font-style:normal;font-weight:normal;line-height:125%;letter-spacing:0px;word-spacing:0px;fill:#000000;fill-opacity:1;stroke:none;font-family:Sans"
       xml:space="preserve"
       id="text4231"
       y="35.05761"
       x="22.573193"><tspan
         id="tspan4233"
         y="35.05761"
         x="22.573193" /></text>
    <text
       style="font-size:4px;font-style:normal;font-weight:normal;line-height:125%;letter-spacing:0px;word-spacing:0px;fill:#000000;fill-opacity:1;stroke:none;font-family:Sans"
       xml:space="preserve"
       id="text4235"
       y="34.589287"
       x="21.355551"><tspan
         id="tspan4321"
         y="34.589287"
         x="21.355551" /></text>
    <text
       style="font-size:3px;font-style:normal;font-weight:normal;line-height:125%;letter-spacing:0px;word-spacing:0px;fill:#000000;fill-opacity:1;stroke:none;font-family:Sans"
       xml:space="preserve"
       id="text3174"
       y="37.727055"
       x="21.683376"><tspan
         id="tspan3178"
         y="37.727055"
         x="21.683376" /></text>
    <text
       style="font-size:2px;font-style:normal;font-weight:normal;line-height:125%;letter-spacing:0px;word-spacing:0px;fill:#000000;fill-opacity:1;stroke:none;font-family:Sans"
       xml:space="preserve"
       id="text3182"
       y="35.244938"
       x="21.683376"><tspan
         id="tspan3184"
         y="35.244938"
         x="21.683376">There will be Easter</tspan><tspan
         id="tspan3186"
         y="37.744938"
         x="21.683376">Egg soon.</tspan><tspan
         id="tspan3188"
         y="40.244938"
         x="21.683376" /><tspan
         id="tspan3190"
         y="42.744938"
         x="21.683376" /></text>
    <text
       style="font-size:2px;font-style:normal;font-weight:normal;line-height:125%;letter-spacing:0px;word-spacing:0px;fill:#000000;fill-opacity:1;stroke:none;font-family:Sans"
       xml:space="preserve"
       id="text3192"
       y="44.986069"
       x="32.876308"><tspan
         id="tspan3194"
         y="44.986069"
         x="32.876308">~ Simbax</tspan></text>
  </g>
</svg>
