<?xml version="1.0" encoding="UTF-8" standalone="no"?>
<svg
   xmlns:dc="http://purl.org/dc/elements/1.1/"
   xmlns:cc="http://creativecommons.org/ns#"
   xmlns:rdf="http://www.w3.org/1999/02/22-rdf-syntax-ns#"
   xmlns:svg="http://www.w3.org/2000/svg"
   xmlns="http://www.w3.org/2000/svg"
   xmlns:xlink="http://www.w3.org/1999/xlink"
   id="svg2"
   height="16"
   width="16"
   version="1.1">
  <defs
     id="defs4">
    <linearGradient
       id="linearGradient3790">
      <stop
         offset="0"
         style="stop-color:#6d4e33;stop-opacity:1"
         id="stop3792" />
      <stop
         offset="1"
         style="stop-color:#6d4e33;stop-opacity:1"
         id="stop3794" />
    </linearGradient>
    <linearGradient
       gradientUnits="userSpaceOnUse"
       xlink:href="#linearGradient3790"
       id="linearGradient3796"
       y2="3"
       x2="-17"
       y1="13"
       x1="-7" />
    <linearGradient
       gradientUnits="userSpaceOnUse"
       xlink:href="#linearGradient3790-4"
       id="linearGradient3796-7"
       y2="3"
       x2="-17"
       y1="13"
       x1="-7" />
    <linearGradient
       id="linearGradient3790-4">
      <stop
         offset="0"
         style="stop-color:#6d4e33;stop-opacity:1"
         id="stop3792-0" />
      <stop
         offset="1"
         style="stop-color:#6d4e33;stop-opacity:1"
         id="stop3794-9" />
    </linearGradient>
    <filter
       id="filter4088"
       color-interpolation-filters="sRGB"
       height="1.4770482"
       width="1.4829886"
       y="-0.23852409"
       x="-0.24149428">
      <feGaussianBlur
         stdDeviation="0.61341477"
         id="feGaussianBlur4090" />
    </filter>
    <filter
       id="filter3794"
       color-interpolation-filters="sRGB">
      <feGaussianBlur
         stdDeviation="0.49"
         id="feGaussianBlur3796" />
    </filter>
    <filter
       id="filter3826"
       color-interpolation-filters="sRGB">
      <feGaussianBlur
         stdDeviation="0.28"
         id="feGaussianBlur3828" />
    </filter>
  </defs>
  <metadata
     id="metadata7">
    <rdf:RDF>
      <cc:Work
         rdf:about="">
        <dc:format>image/svg+xml</dc:format>
        <dc:type
           rdf:resource="http://purl.org/dc/dcmitype/StillImage" />
        <dc:title></dc:title>
      </cc:Work>
    </rdf:RDF>
  </metadata>
  <g
     id="layer3">
    <rect
       style="fill:#e0c870;fill-opacity:1;stroke:none"
       id="rect3786"
       y="-1.2988281e-006"
       x="2.4755859e-006"
       height="16"
       width="16" />
    <path
       style="fill:url(#linearGradient3796);fill-opacity:1;stroke:none"
       id="path3788"
       transform="translate(20,0)"
       d="M -5,8 A 7,7 0 1 1 -19,8 7,7 0 1 1 -5,8 z" />
    <path
       style="fill:#80642a;fill-opacity:1;stroke:none;filter:url(#filter3826)"
       id="path3788-4"
       transform="matrix(0.92857144,0,0,0.92857143,19.642857,1.0714286)"
       d="M -5,8 A 7,7 0 1 1 -19,8 7,7 0 1 1 -5,8 z" />
    <path
       style="fill:#b38d60;fill-opacity:1;stroke:none;filter:url(#filter3794)"
       id="path3788-4-8"
       transform="matrix(0.71428569,0,0,0.71428571,17.571428,3.2857143)"
       d="M -5,8 A 7,7 0 1 1 -19,8 7,7 0 1 1 -5,8 z" />
    <path
       style="fill:#ffffff;fill-opacity:1;stroke:none;filter:url(#filter4088)"
       id="path3850"
       d="m 7.5682108,12.873731 c 1.0288253,0.07626 5.2040162,0.734604 5.5580582,-4.926713 0,0 -3.5580582,4.926713 -5.5580582,4.926713 z" />
  </g>
</svg>
