<?xml version="1.0" encoding="UTF-8" standalone="no"?>
<svg
   xmlns:dc="http://purl.org/dc/elements/1.1/"
   xmlns:cc="http://creativecommons.org/ns#"
   xmlns:rdf="http://www.w3.org/1999/02/22-rdf-syntax-ns#"
   xmlns:svg="http://www.w3.org/2000/svg"
   xmlns="http://www.w3.org/2000/svg"
   id="svg2"
   height="16"
   width="16"
   version="1.1">
  <defs
     id="defs4">
    <filter
       id="filter3936"
       color-interpolation-filters="sRGB"
       height="1.6038069"
       width="1.6009998"
       y="-0.3019034"
       x="-0.30049989">
      <feGaussianBlur
         stdDeviation="0.73516181"
         id="feGaussianBlur3938" />
    </filter>
    <filter
       id="filter3972"
       color-interpolation-filters="sRGB">
      <feGaussianBlur
         stdDeviation="0.090002281"
         id="feGaussianBlur3974" />
    </filter>
    <filter
       id="filter3992"
       color-interpolation-filters="sRGB">
      <feGaussianBlur
         stdDeviation="0.27500443"
         id="feGaussianBlur3994" />
    </filter>
    <filter
       id="filter4032"
       color-interpolation-filters="sRGB">
      <feGaussianBlur
         stdDeviation="0.19500215"
         id="feGaussianBlur4034" />
    </filter>
  </defs>
  <metadata
     id="metadata7">
    <rdf:RDF>
      <cc:Work
         rdf:about="">
        <dc:format>image/svg+xml</dc:format>
        <dc:type
           rdf:resource="http://purl.org/dc/dcmitype/StillImage" />
        <dc:title></dc:title>
      </cc:Work>
    </rdf:RDF>
  </metadata>
  <g
     id="layer3">
    <rect
       style="fill:#a1aaab;fill-opacity:1;stroke:none"
       id="rect3786"
       y="0"
       x="0"
       height="16"
       width="16" />
    <path
       style="fill:#545454;fill-opacity:1;stroke:none"
       id="path3788"
       transform="translate(21,0)"
       d="M -6,8 A 7,7 0 1 1 -20,8 7,7 0 1 1 -6,8 z" />
    <path
       style="fill:#666666;fill-opacity:1;stroke:none;filter:url(#filter4032)"
       id="path3790"
       transform="matrix(1.029139,0,0,1.038852,21.58278,-0.03885202)"
       d="m -7,7.5 a 6.5,6.5 0 1 1 -13,0 6.5,6.5 0 1 1 13,0 z" />
    <path
       style="fill:#939393;fill-opacity:1;stroke:none;filter:url(#filter3992)"
       id="path3792"
       transform="matrix(1.0285189,0,0,1.027904,22.577837,0.98672481)"
       d="m -9,6.5 a 5.5,5.5 0 1 1 -11,0 5.5,5.5 0 1 1 11,0 z" />
    <path
       style="fill:#545454;fill-opacity:1;stroke:none"
       id="path3794"
       transform="translate(21,0)"
       d="m -11,8 a 2,2 0 1 1 -4,0 2,2 0 1 1 4,0 z" />
    <path
       style="fill:#666666;fill-opacity:1;stroke:none;filter:url(#filter3972)"
       id="path3796"
       transform="matrix(1.2441171,0,0,1.2430056,-2.4400838,-2.4325433)"
       d="m 10,8.5 a 1.5,1.5 0 1 1 -3,0 1.5,1.5 0 1 1 3,0 z" />
    <path
       style="fill:#ffffff;fill-opacity:1;stroke:none;filter:url(#filter3936)"
       id="path3798"
       d="m 2.9041888,9.6865466 c 0,0 0.3156727,-7.0079333 6.1871837,-6.4397225 C 6.9141258,3.3067027 4.577992,5.7568615 2.9041888,9.6865466 z" />
  </g>
</svg>
