<?xml version="1.0" encoding="UTF-8" standalone="no"?>
<svg
   xmlns:dc="http://purl.org/dc/elements/1.1/"
   xmlns:cc="http://creativecommons.org/ns#"
   xmlns:rdf="http://www.w3.org/1999/02/22-rdf-syntax-ns#"
   xmlns:svg="http://www.w3.org/2000/svg"
   xmlns="http://www.w3.org/2000/svg"
   xmlns:xlink="http://www.w3.org/1999/xlink"
   id="svg2"
   height="64"
   width="64"
   version="1.1">
  <defs
     id="defs4">
    <linearGradient
       id="linearGradient3809">
      <stop
         offset="0"
         style="stop-color:#edeee4;stop-opacity:1"
         id="stop3811" />
      <stop
         offset="1"
         style="stop-color:#d4d7bd;stop-opacity:1"
         id="stop3813" />
    </linearGradient>
    <linearGradient
       id="linearGradient3799">
      <stop
         offset="0"
         style="stop-color:#c6cbcc;stop-opacity:1"
         id="stop3801" />
      <stop
         offset="1"
         style="stop-color:#879495;stop-opacity:1"
         id="stop3803" />
    </linearGradient>
    <linearGradient
       id="linearGradient3789">
      <stop
         offset="0"
         style="stop-color:#919c9d;stop-opacity:1"
         id="stop3791" />
      <stop
         offset="1"
         style="stop-color:#c4cbcc;stop-opacity:1"
         id="stop3793" />
    </linearGradient>
    <linearGradient
       gradientUnits="userSpaceOnUse"
       xlink:href="#linearGradient3789"
       id="linearGradient3795"
       y2="561.36218"
       x2="343"
       y1="561.36218"
       x1="348" />
    <linearGradient
       gradientUnits="userSpaceOnUse"
       xlink:href="#linearGradient3799"
       id="linearGradient3805"
       y2="541.84601"
       x2="368.1651"
       y1="541.69885"
       x1="343" />
    <radialGradient
       gradientTransform="matrix(1.2632822,0.01193445,-0.00408734,0.39584823,8.0341922,0.96815232)"
       gradientUnits="userSpaceOnUse"
       xlink:href="#linearGradient3809"
       id="radialGradient3815"
       fy="1"
       fx="-30.5"
       r="28.5"
       cy="1"
       cx="-30.5" />
    <radialGradient
       gradientTransform="matrix(1.2632822,0.01193445,-0.00408734,0.39584823,8.0341922,0.96815232)"
       gradientUnits="userSpaceOnUse"
       xlink:href="#linearGradient3809"
       id="radialGradient3819"
       fy="1"
       fx="-30.5"
       r="28.5"
       cy="1"
       cx="-30.5" />
    <radialGradient
       gradientTransform="matrix(-0.01364242,1.415131,-0.43642521,-0.00457865,344.91691,575.60244)"
       gradientUnits="userSpaceOnUse"
       xlink:href="#linearGradient3809"
       id="radialGradient3824"
       fy="1"
       fx="-30.5"
       r="28.5"
       cy="1"
       cx="-30.5" />
  </defs>
  <metadata
     id="metadata7">
    <rdf:RDF>
      <cc:Work
         rdf:about="">
        <dc:format>image/svg+xml</dc:format>
        <dc:type
           rdf:resource="http://purl.org/dc/dcmitype/StillImage" />
        <dc:title></dc:title>
      </cc:Work>
    </rdf:RDF>
  </metadata>
  <g
     id="layer1"
     transform="translate(-343,-500.36218)">
    <rect
       style="fill:#f2f3e9;fill-opacity:1;stroke:none"
       id="rect3017"
       transform="translate(343,500.36218)"
       y="0"
       x="0"
       height="64"
       width="64" />
    <path
       style="fill:url(#radialGradient3815);fill-opacity:1;stroke:none"
       id="path3807"
       transform="matrix(1,0,0,1.0454545,409,499.81673)"
       d="M -2,1 A 28.5,11 0 1 1 -59,1 28.5,11 0 1 1 -2,1 z" />
    <path
       style="fill:url(#radialGradient3819);fill-opacity:1;stroke:none"
       id="path3817"
       transform="matrix(1,0,0,1.0454545,409,563.91827)"
       d="M -2,1 C -2,7.0751322 -14.759885,12 -30.5,12 -46.240115,12 -57.597813,6.9252302 -59,1 -60.537069,-5.4952008 -48.554129,-10.632401 -30.5,-10 -14.770428,-9.4490234 -2,-5.0751322 -2,1 z" />
    <path
       style="fill:url(#radialGradient3824);fill-opacity:1;stroke:none"
       id="path3822"
       d="m 344.89658,564.36218 c -6.80994,0 -12.3305,-14.29367 -12.3305,-31.92581 0,-17.63213 5.68858,-30.35507 12.3305,-31.92581 7.28082,-1.72183 13.03939,11.70151 12.33049,31.92581 -0.61762,17.62033 -5.52054,31.92581 -12.33049,31.92581 z" />
    <path
       style="fill:url(#linearGradient3795);fill-opacity:1;stroke:none"
       id="path3019"
       d="m 343,564.36218 18,0 0,-5 -8,0 c 0,0 -5,0 -5,-5 0,-6 0,-44 0,-44 0,0 0,-5 5,-5 5,0 8,0 8,0 l 0,-5 -18,0 z" />
    <path
       style="fill:url(#linearGradient3805);fill-opacity:1;stroke:none"
       id="path3797"
       d="m 359,564.36218 -16,0 0,-62 16,0 0,3 -6,0 c 0,0 -7,0 -7,7 l 0,40 c 0.0895,0.13432 -1.20021,8.97312 8,9 l 5,0 z" />
  </g>
</svg>
