<?xml version="1.0" encoding="UTF-8" standalone="no"?>
<svg
   xmlns:dc="http://purl.org/dc/elements/1.1/"
   xmlns:cc="http://creativecommons.org/ns#"
   xmlns:rdf="http://www.w3.org/1999/02/22-rdf-syntax-ns#"
   xmlns:svg="http://www.w3.org/2000/svg"
   xmlns="http://www.w3.org/2000/svg"
   xmlns:xlink="http://www.w3.org/1999/xlink"
   id="svg2"
   height="128"
   width="32"
   version="1.1">
  <defs
     id="defs4">
    <linearGradient
       id="linearGradient3851">
      <stop
         offset="0"
         style="stop-color:#3c4643;stop-opacity:1"
         id="stop3853" />
      <stop
         offset="1"
         style="stop-color:#aebab7;stop-opacity:1"
         id="stop3855" />
    </linearGradient>
    <linearGradient
       id="linearGradient3831">
      <stop
         offset="0"
         style="stop-color:#3c4643;stop-opacity:1"
         id="stop3833" />
      <stop
         offset="1"
         style="stop-color:#aebab7;stop-opacity:1"
         id="stop3835" />
    </linearGradient>
    <linearGradient
       gradientUnits="userSpaceOnUse"
       xlink:href="#linearGradient3831"
       id="linearGradient3837"
       y2="830.93359"
       x2="904.28571"
       y1="849.93359"
       x1="916.28571" />
    <linearGradient
       gradientTransform="translate(932.28571,736.93359)"
       gradientUnits="userSpaceOnUse"
       xlink:href="#linearGradient3851"
       id="linearGradient3857"
       y2="21"
       x2="-13"
       y1="33"
       x1="-2" />
    <linearGradient
       gradientTransform="translate(919.28571,736.93359)"
       gradientUnits="userSpaceOnUse"
       xlink:href="#linearGradient3851"
       id="linearGradient3865"
       y2="21"
       x2="-13"
       y1="33"
       x1="-2" />
  </defs>
  <metadata
     id="metadata7">
    <rdf:RDF>
      <cc:Work
         rdf:about="">
        <dc:format>image/svg+xml</dc:format>
        <dc:type
           rdf:resource="http://purl.org/dc/dcmitype/StillImage" />
        <dc:title></dc:title>
      </cc:Work>
    </rdf:RDF>
  </metadata>
  <g
     id="layer1"
     transform="translate(-898.28571,-736.93359)">
    <rect
       style="fill:#929e9b;fill-opacity:1;stroke:none"
       id="rect2998"
       transform="translate(898.28571,736.93359)"
       y="0"
       x="0"
       height="128"
       width="32" />
    <g
       id="g3772">
      <path
         style="fill:#3c4643;fill-opacity:1;stroke:none"
         id="path3000"
         d="m 898.28571,857.93359 4,0 0,3 3,0 0,4 -7,0 z" />
      <path
         style="fill:#74807d;fill-opacity:1;stroke:none"
         id="path3770"
         transform="translate(898.28571,736.93359)"
         d="m 0,122 3,0 0,3 3,0 0,3 -6,0 z" />
    </g>
    <g
       id="g3776"
       transform="matrix(-1,0,0,1,1828.5714,0)">
      <path
         style="fill:#3c4643;fill-opacity:1;stroke:none"
         id="path3778"
         d="m 898.28571,857.93359 4,0 0,3 3,0 0,4 -7,0 z" />
      <path
         style="fill:#74807d;fill-opacity:1;stroke:none"
         id="path3780"
         transform="translate(898.28571,736.93359)"
         d="m 0,122 3,0 0,3 3,0 0,3 -6,0 z" />
    </g>
    <g
       id="g3782"
       transform="matrix(-1,0,0,-1,1828.5714,1601.8672)">
      <path
         style="fill:#3c4643;fill-opacity:1;stroke:none"
         id="path3784"
         d="m 898.28571,857.93359 4,0 0,3 3,0 0,4 -7,0 z" />
      <path
         style="fill:#74807d;fill-opacity:1;stroke:none"
         id="path3786"
         transform="translate(898.28571,736.93359)"
         d="m 0,122 3,0 0,3 3,0 0,3 -6,0 z" />
    </g>
    <g
       id="g3788"
       transform="matrix(1,0,0,-1,-2e-5,1601.8672)">
      <path
         style="fill:#3c4643;fill-opacity:1;stroke:none"
         id="path3790"
         d="m 898.28571,857.93359 4,0 0,3 3,0 0,4 -7,0 z" />
      <path
         style="fill:#74807d;fill-opacity:1;stroke:none"
         id="path3792"
         transform="translate(898.28571,736.93359)"
         d="m 0,122 3,0 0,3 3,0 0,3 -6,0 z" />
    </g>
    <path
       style="fill:#75817e;fill-opacity:1;stroke:none"
       id="path3794"
       transform="translate(932.28571,736.93359)"
       d="m -22,2 a 1,1 0 1 1 -0.03407,-0.2588191" />
    <path
       style="fill:#75817e;fill-opacity:1;stroke:none"
       id="path3796"
       transform="translate(942.28571,736.93359)"
       d="m -22,2 a 1,1 0 1 1 -0.03407,-0.2588191" />
    <path
       style="fill:#75817e;fill-opacity:1;stroke:none"
       id="path3798"
       transform="translate(924.28571,745.93359)"
       d="m -22,2 a 1,1 0 1 1 -0.03407,-0.2588191" />
    <path
       style="fill:#75817e;fill-opacity:1;stroke:none"
       id="path3800"
       transform="translate(950.28571,745.93359)"
       d="m -22,2 a 1,1 0 1 1 -0.03407,-0.2588191" />
    <path
       style="fill:#75817e;fill-opacity:1;stroke:none"
       id="path3802"
       transform="translate(950.28571,851.93359)"
       d="m -22,2 a 1,1 0 1 1 -0.03407,-0.2588191" />
    <path
       style="fill:#75817e;fill-opacity:1;stroke:none"
       id="path3804"
       transform="translate(942.28571,859.93359)"
       d="m -22,2 a 1,1 0 1 1 -0.03407,-0.2588191" />
    <path
       style="fill:#75817e;fill-opacity:1;stroke:none"
       id="path3806"
       transform="translate(932.28571,859.93359)"
       d="m -22,2 a 1,1 0 1 1 -0.03407,-0.2588191" />
    <path
       style="fill:#75817e;fill-opacity:1;stroke:none"
       id="path3808"
       transform="translate(924.28571,851.93359)"
       d="m -22,2 a 1,1 0 1 1 -0.03407,-0.2588191" />
    <rect
       style="fill:url(#linearGradient3837);fill-opacity:1;stroke:none"
       id="rect3829"
       y="830.93359"
       x="904.28571"
       height="19"
       width="12" />
    <rect
       style="fill:#929e9b;fill-opacity:1;stroke:none"
       id="rect3839"
       transform="translate(898.28571,736.93359)"
       y="95"
       x="7"
       height="17"
       width="10" />
    <path
       style="fill:#3c4643;fill-opacity:1;stroke:none"
       id="path3841"
       transform="translate(932.28571,737.93359)"
       d="m -18,109.5 a 0.5,0.5 0 1 1 -0.01704,-0.12941" />
    <path
       style="fill:#3c4643;fill-opacity:1;stroke:none"
       id="path3843"
       transform="translate(925.28571,737.93359)"
       d="m -18,109.5 a 0.5,0.5 0 1 1 -0.01704,-0.12941" />
    <path
       style="fill:#3c4643;fill-opacity:1;stroke:none"
       id="path3845"
       transform="translate(925.28571,723.93359)"
       d="m -18,109.5 a 0.5,0.5 0 1 1 -0.01704,-0.12941" />
    <path
       style="fill:#3c4643;fill-opacity:1;stroke:none"
       id="path3847"
       transform="translate(932.28571,723.93359)"
       d="m -18,109.5 a 0.5,0.5 0 1 1 -0.01704,-0.12941" />
    <rect
       style="fill:url(#linearGradient3857);fill-opacity:1;stroke:none"
       id="rect3849"
       y="757.93359"
       x="919.28571"
       height="12"
       width="11" />
    <rect
       style="fill:#929e9b;fill-opacity:1;stroke:none"
       id="rect3859"
       y="758.93359"
       x="920.28571"
       height="10"
       width="9" />
    <rect
       style="fill:url(#linearGradient3865);fill-opacity:1;stroke:none"
       id="rect3861"
       y="757.93359"
       x="906.28571"
       height="12"
       width="11" />
    <rect
       style="fill:#929e9b;fill-opacity:1;stroke:none"
       id="rect3863"
       y="758.93359"
       x="907.28571"
       height="10"
       width="9" />
    <rect
       style="fill:#7d8986;fill-opacity:1;stroke:none"
       id="rect3867"
       y="782.93359"
       x="904.28571"
       height="42"
       width="19" />
    <rect
       style="fill:#c6cac9;fill-opacity:1;stroke:none"
       id="rect3869"
       transform="translate(898.28571,736.93359)"
       y="47"
       x="7"
       height="40"
       width="17" />
  </g>
</svg>
