<?xml version="1.0" encoding="UTF-8" standalone="no"?>
<svg
   xmlns:dc="http://purl.org/dc/elements/1.1/"
   xmlns:cc="http://creativecommons.org/ns#"
   xmlns:rdf="http://www.w3.org/1999/02/22-rdf-syntax-ns#"
   xmlns:svg="http://www.w3.org/2000/svg"
   xmlns="http://www.w3.org/2000/svg"
   xmlns:xlink="http://www.w3.org/1999/xlink"
   version="1.1"
   id="svg3387"
   height="32"
   width="32">
  <defs
     id="defs3389" />
  <metadata
     id="metadata3392">
    <rdf:RDF>
      <cc:Work
         rdf:about="">
        <dc:format>image/svg+xml</dc:format>
        <dc:type
           rdf:resource="http://purl.org/dc/dcmitype/StillImage" />
        <dc:title></dc:title>
      </cc:Work>
    </rdf:RDF>
  </metadata>
  <g
     transform="translate(-367,-512.36223)"
     id="layer1">
    <path
       id="rect6342"
       d="m 383,516.36223 c -1.65685,0 -3,1.34315 -3,3 0,0.88447 0.39109,1.66968 1,2.21875 l 0,1.0625 c -3.4508,0.94334 -6,4.25784 -6,8.21875 0,0 0.0285,0.90347 0.0625,0.9375 0.034,0.034 0.1875,0.0625 0.1875,0.0625 l 0,1.5 c 0,0.13807 0.11193,0.25 0.25,0.25 0.13807,0 0.25,-0.11193 0.25,-0.25 l 0,0.25 c 0,0.13807 0.11193,0.25 0.25,0.25 0.13807,0 0.25,-0.11193 0.25,-0.25 0,0.13807 0.11193,0.25 0.25,0.25 0.13807,0 0.25,-0.11193 0.25,-0.25 0,0.13807 0.11193,0.25 0.25,0.25 0.13807,0 0.25,-0.11193 0.25,-0.25 l 0,-0.5 c 0,0.13807 0.11193,0.25 0.25,0.25 0.13807,0 0.25,-0.11193 0.25,-0.25 l 0,-1.25 c 0,0 0.13748,-0.007 0.1875,-0.0937 -0.0738,-1.13828 0.19846,-2.30636 0.5625,-2.90625 1.5,0 0.5,6.95143 0.5,9.5 -0.554,0 -0.99163,0.52288 -1.1875,0.71875 -0.19587,0.19587 -0.3125,0.78125 -0.3125,0.78125 -0.13287,0.13287 -0.0894,0.35014 0,0.5 l 4,0 c 0,0 0.2259,-0.0384 0.34375,-0.15625 0.11785,-0.1179 0.15625,-0.3438 0.15625,-0.3438 l 0,-0.5 c 0,0 -0.5,-6 1,-6 z"
       style="fill:#000000;fill-opacity:1;fill-rule:evenodd;stroke:none;display:inline" />
    <use
       height="256"
       width="256"
       transform="matrix(-1,0,0,1,766,0)"
       id="use6520"
       xlink:href="#rect6342"
       y="0"
       x="0"
       style="display:inline" />
  </g>
</svg>
