<?xml version="1.0" encoding="UTF-8" standalone="no"?>
<svg
   xmlns:dc="http://purl.org/dc/elements/1.1/"
   xmlns:cc="http://creativecommons.org/ns#"
   xmlns:rdf="http://www.w3.org/1999/02/22-rdf-syntax-ns#"
   xmlns:svg="http://www.w3.org/2000/svg"
   xmlns="http://www.w3.org/2000/svg"
   version="1.1"
   id="svg2"
   height="32"
   width="32">
  <defs
     id="defs4" />
  <metadata
     id="metadata7">
    <rdf:RDF>
      <cc:Work
         rdf:about="">
        <dc:format>image/svg+xml</dc:format>
        <dc:type
           rdf:resource="http://purl.org/dc/dcmitype/StillImage" />
        <dc:title></dc:title>
      </cc:Work>
    </rdf:RDF>
  </metadata>
  <g
     id="layer3">
    <path
       id="path3794"
       d="M 1,16 8,16 1,8.9999996 Z"
       style="fill:#ffffff;fill-opacity:0;stroke:none" />
    <rect
       transform="matrix(0.73784257,0.67497285,-0.69805176,0.71604731,0,0)"
       y="-5.3574367"
       x="10.128078"
       height="13.197725"
       width="3.7776411"
       id="rect3796"
       style="fill:#ffffff;fill-opacity:1;stroke:none" />
    <path
       id="path3794-7"
       d="m 16,0.99999956 -7,0 7,7.00000004 z"
       style="fill:#ffffff;fill-opacity:0;stroke:none" />
    <path
       id="path3759"
       d="m 1,15.996655 4.9999997,0 c 1.224467,0.05199 2.079273,-0.496975 2,-2 L 2.9999999,8.9966533 C 1.9076119,8.8986733 1.1413189,9.3162273 1,10.996654 Z"
       style="fill:#ffffff;fill-opacity:1;stroke:none" />
    <path
       id="path3759-1"
       d="m 16,0.98661428 -5,0 C 9.775533,0.93462428 8.920727,1.4835893 9,2.9866143 l 5,5.000002 c 1.092388,0.09798 1.858681,-0.319574 2,-2.000001 z"
       style="fill:#ffffff;fill-opacity:1;stroke:none" />
  </g>
  <path
     id="path3786"
     d="M 2,15 7,15 2,10 z"
     style="fill:#000000;stroke:none;stroke-width:1px;stroke-linecap:butt;stroke-linejoin:miter;stroke-opacity:1;fill-opacity:1" />
  <path
     id="path3788"
     d="m 3,13 10,-10.0000007 1,1 L 4,14 z"
     style="fill:#000000;fill-opacity:1;stroke:none" />
  <path
     id="path3786-7"
     d="m 15,2 -5,0 5,5 z"
     style="fill:#000000;fill-opacity:1;stroke:none" />
</svg>
