<?xml version="1.0" encoding="UTF-8" standalone="no"?>
<svg
   xmlns:dc="http://purl.org/dc/elements/1.1/"
   xmlns:cc="http://creativecommons.org/ns#"
   xmlns:rdf="http://www.w3.org/1999/02/22-rdf-syntax-ns#"
   xmlns:svg="http://www.w3.org/2000/svg"
   xmlns="http://www.w3.org/2000/svg"
   width="32"
   height="32"
   id="svg2"
   version="1.1">
  <defs
     id="defs4" />
  <metadata
     id="metadata7">
    <rdf:RDF>
      <cc:Work
         rdf:about="">
        <dc:format>image/svg+xml</dc:format>
        <dc:type
           rdf:resource="http://purl.org/dc/dcmitype/StillImage" />
        <dc:title></dc:title>
      </cc:Work>
    </rdf:RDF>
  </metadata>
  <g
     id="layer3"
     style="display:inline">
    <rect
       style="fill:#000000;fill-opacity:1;stroke:none"
       id="rect3853"
       width="32"
       height="32"
       x="0"
       y="0" />
    <g
       id="layer3-1">
      <path
         style="fill:#ffffff;fill-opacity:1;stroke:#000000;stroke-width:1px;stroke-linecap:round;stroke-linejoin:round;stroke-opacity:1"
         d="m 5.3055201,22.621192 8.9470179,5e-6 C 14.249737,22.629596 17.52526,21.424221 18,16 18.348756,12.015233 18,11.3125 18,11.3125 17.9929,10.363097 16.836842,7.7239306 14.939883,9.2031727 L 15.28649,12.189403 C 15.141982,11.434234 15.22048,5.9992185 11.598455,8.1041228 l 0.48999,3.5161162 c 0.0014,0.0048 -0.114562,-6.7978093 -3.4737271,-4.6764329 L 8.5682108,11 8.5134153,3.4 C 8.3750758,1.5106184 5.4889446,0.47046418 4.8737309,3.4 L 5,15 C 4.99751,15.0348 4.8487685,9.8015688 2,10.684327 c 0.063585,-0.07948 -1.1566862,1.274776 0.1161165,3.631346 2.4748055,4.776017 2.0049058,5.517623 3.1894036,8.305519 z"
         id="path3797" />
    </g>
  </g>
</svg>
