<?xml version="1.0" encoding="UTF-8" standalone="no"?>
<svg
   xmlns:dc="http://purl.org/dc/elements/1.1/"
   xmlns:cc="http://creativecommons.org/ns#"
   xmlns:rdf="http://www.w3.org/1999/02/22-rdf-syntax-ns#"
   xmlns:svg="http://www.w3.org/2000/svg"
   xmlns="http://www.w3.org/2000/svg"
   xmlns:xlink="http://www.w3.org/1999/xlink"
   width="64"
   height="64"
   viewBox="0 0 64.000001 64.000001"
   id="svg7238"
   version="1.1">
  <defs
     id="defs7240">
    <linearGradient
       id="linearGradient4823">
      <stop
         id="stop4825"
         offset="0"
         style="stop-color:#ffffff;stop-opacity:1;" />
      <stop
         style="stop-color:#fff14d;stop-opacity:1;"
         offset="0.45594248"
         id="stop4827" />
      <stop
         id="stop4829"
         offset="1"
         style="stop-color:#ffed19;stop-opacity:0" />
    </linearGradient>
    <linearGradient
       id="linearGradient4350">
      <stop
         style="stop-color:#ffc36e;stop-opacity:1"
         offset="0"
         id="stop4352" />
      <stop
         style="stop-color:#ff0800;stop-opacity:1"
         offset="1"
         id="stop4354" />
    </linearGradient>
    <radialGradient
       xlink:href="#linearGradient4350"
       id="radialGradient4356"
       cx="22.142857"
       cy="5.071429"
       fx="22.142857"
       fy="5.071429"
       r="22.202366"
       gradientTransform="matrix(1,0,0,0.80231788,0,1.0025309)"
       gradientUnits="userSpaceOnUse" />
    <filter
       style="color-interpolation-filters:sRGB"
       id="filter4410"
       x="-0.15669875"
       width="1.3133975"
       y="-0.18963315"
       height="1.3792663">
      <feGaussianBlur
         stdDeviation="3.3857316"
         id="feGaussianBlur4412" />
    </filter>
    <filter
       style="color-interpolation-filters:sRGB"
       id="filter4798"
       x="-0.056694499"
       width="1.113389"
       y="-0.058775573"
       height="1.1175511">
      <feGaussianBlur
         stdDeviation="0.76029869"
         id="feGaussianBlur4800" />
    </filter>
    <filter
       style="color-interpolation-filters:sRGB"
       id="filter4802"
       x="-0.053505284"
       width="1.1070106"
       y="-0.059355647"
       height="1.1187113">
      <feGaussianBlur
         stdDeviation="0.76029869"
         id="feGaussianBlur4804" />
    </filter>
    <filter
       style="color-interpolation-filters:sRGB"
       id="filter4806"
       x="-0.080773204"
       width="1.1615464"
       y="-0.065787524"
       height="1.131575">
      <feGaussianBlur
         stdDeviation="0.76029869"
         id="feGaussianBlur4808" />
    </filter>
    <radialGradient
       xlink:href="#linearGradient4823"
       id="radialGradient4821"
       cx="35.129459"
       cy="32.772636"
       fx="35.129459"
       fy="32.772636"
       r="24.027082"
       gradientTransform="matrix(1.1827734,0.00121876,-0.00136763,1.3272387,-6.459165,-11.114539)"
       gradientUnits="userSpaceOnUse" />
    <filter
       style="color-interpolation-filters:sRGB"
       id="filter5007"
       x="-0.075697349"
       width="1.1513947"
       y="-0.094348332"
       height="1.1886967">
      <feGaussianBlur
         stdDeviation="1.4005502"
         id="feGaussianBlur5009" />
    </filter>
    <radialGradient
       xlink:href="#linearGradient4350"
       id="radialGradient5057"
       gradientUnits="userSpaceOnUse"
       gradientTransform="matrix(1,0,0,1.166298,10.825735,18.126271)"
       cx="19.133167"
       cy="11.530684"
       fx="19.133167"
       fy="11.530684"
       r="22.202366" />
    <radialGradient
       xlink:href="#linearGradient4350"
       id="radialGradient5111"
       gradientUnits="userSpaceOnUse"
       gradientTransform="matrix(1,0,0,0.80231788,0,1.0025309)"
       cx="22.142857"
       cy="5.071429"
       fx="22.142857"
       fy="5.071429"
       r="22.202366" />
    <radialGradient
       xlink:href="#linearGradient4350"
       id="radialGradient5113"
       gradientUnits="userSpaceOnUse"
       gradientTransform="matrix(1,0,0,0.80231788,0,1.0025309)"
       cx="22.142857"
       cy="5.071429"
       fx="22.142857"
       fy="5.071429"
       r="22.202366" />
    <radialGradient
       xlink:href="#linearGradient4350"
       id="radialGradient5115"
       gradientUnits="userSpaceOnUse"
       gradientTransform="matrix(1,0,0,0.80231788,0,1.0025309)"
       cx="22.142857"
       cy="5.071429"
       fx="22.142857"
       fy="5.071429"
       r="22.202366" />
    <radialGradient
       xlink:href="#linearGradient4823"
       id="radialGradient5117"
       gradientUnits="userSpaceOnUse"
       gradientTransform="matrix(1.1827734,0.00121876,-0.00136763,1.3272387,-6.459165,-11.114539)"
       cx="35.129459"
       cy="32.772636"
       fx="35.129459"
       fy="32.772636"
       r="24.027082" />
    <radialGradient
       xlink:href="#linearGradient4823"
       id="radialGradient5119"
       gradientUnits="userSpaceOnUse"
       gradientTransform="matrix(1.1827734,0.00121876,-0.00136763,1.3272387,-6.459165,-11.114539)"
       cx="35.129459"
       cy="32.772636"
       fx="35.129459"
       fy="32.772636"
       r="24.027082" />
    <radialGradient
       xlink:href="#linearGradient4823"
       id="radialGradient5121"
       gradientUnits="userSpaceOnUse"
       gradientTransform="matrix(1.1827734,0.00121876,-0.00136763,1.3272387,-6.459165,-11.114539)"
       cx="35.129459"
       cy="32.772636"
       fx="35.129459"
       fy="32.772636"
       r="24.027082" />
  </defs>
  <metadata
     id="metadata7243">
    <rdf:RDF>
      <cc:Work
         rdf:about="">
        <dc:format>image/svg+xml</dc:format>
        <dc:type
           rdf:resource="http://purl.org/dc/dcmitype/StillImage" />
        <dc:title></dc:title>
      </cc:Work>
    </rdf:RDF>
  </metadata>
  <g
     id="layer1">
    <g
       id="g5088"
       transform="matrix(0.97577892,-0.21875899,-0.21875899,-0.97577892,7.3908267,68.321476)">
      <path
         style="fill:url(#radialGradient5057);fill-opacity:1;fill-rule:evenodd;stroke:none;stroke-width:1px;stroke-linecap:butt;stroke-linejoin:miter;stroke-opacity:1;filter:url(#filter4410)"
         d="m 39.350948,29.395296 -2.027389,-7.304497 a 0.06436862,0.06681189 62.657993 0 1 0.0233,-0.06875 c 1.204431,-0.952703 2.75584,-1.47044 4.306731,-1.426236 1.55039,0.04419 3.086587,0.649983 4.258125,1.690452 1.198342,1.064935 1.992851,2.555373 2.298728,4.134239 0.305853,1.578642 0.134061,3.233216 -0.401914,4.748821 -1.092584,3.024301 -3.557633,5.366449 -6.298659,6.959144 -1.600016,0.940031 -3.432943,1.708783 -5.374688,1.724207 -1.869142,0.01572 -3.659722,-0.667293 -5.228626,-1.564886 -1.551294,-0.88747 -2.980753,-2.024937 -4.380693,-3.003862 -2.41879,-1.710749 -5.253486,-3.29934 -7.412628,-5.5801 -3.043093,-3.226884 -4.582358,-7.703991 -4.557497,-12.111459 0.006,-1.238585 0.135391,-2.485133 0.393343,-3.70458 0.644531,-2.495923 1.827596,-4.8284184 3.56382,-6.6935385 1.212556,-1.1830824 2.626717,-2.1178296 4.135912,-2.7578049 -1.370591,0.9001367 -2.547977,2.042352 -3.46561,3.3346483 -1.472676,1.8633149 -2.383652,4.1062521 -2.78779,6.4312421 -0.249881,1.115436 -0.383059,2.261537 -0.402261,3.405231 -0.065,4.083568 1.322841,8.224977 4.075207,11.204353 2.013325,2.18848 4.596703,3.660358 7.143569,5.516705 1.450996,1.069213 2.750481,2.165368 4.224652,3.058031 1.456642,0.882102 3.060601,1.524154 4.701568,1.551256 1.715475,0.02741 3.407732,-0.614703 4.982452,-1.490079 2.659807,-1.49606 5.013946,-3.691911 6.074913,-6.504678 0.540842,-1.402948 0.744884,-2.947019 0.500448,-4.430182 -0.244381,-1.482959 -0.949922,-2.904293 -2.048627,-3.937223 -1.073799,-1.010201 -2.517164,-1.633688 -4.004854,-1.718811 -1.473076,-0.08429 -2.980071,0.360402 -4.18151,1.243209 l 1.889975,7.295146 z"
         id="path5051" />
      <g
         style="fill:url(#radialGradient4356);fill-opacity:1;filter:url(#filter4410)"
         transform="translate(9.6890693,24.675385)"
         id="g4345">
        <path
           style="fill:url(#radialGradient5111);fill-opacity:1;fill-rule:evenodd;stroke:none;stroke-width:1px;stroke-linecap:butt;stroke-linejoin:miter;stroke-opacity:1"
           d="m 25.235161,7.7324959 c -0.162254,1.9972792 -1.527239,4.2880001 -4.038554,5.6436261 -0.486251,0.0088 -0.97787,-0.01845 -1.469892,-0.08494 C 16.723711,12.885367 14.001367,11.059296 12.486635,8.4347387 11.15222,6.122616 10.86355,3.441085 11.339051,1.0555705 c 0.476081,-2.3884227 1.684286,-4.4720256 3.179249,-6.0912071 1.625817,-1.7609093 3.624752,-3.0332579 5.684607,-3.8729145 2.059551,-0.8395328 4.194648,-1.2605359 6.241946,-1.4201469 4.559877,-0.355497 9.393058,0.5687992 13.485926,3.1018655 2.826085,1.749058 5.318191,4.2972485 6.829019,7.4882991 1.509521,3.1882901 1.986887,7.0082396 0.935558,10.5965814 -0.516492,1.762864 -1.383841,3.416982 -2.540168,4.844344 A 3.9309503,3.9309503 90 0 1 39.046332,10.753516 C 39.547484,10.134899 39.926763,9.4115777 40.15061,8.6475536 40.602126,7.1064621 40.431811,5.2683882 39.654079,3.6257253 38.877654,1.9858228 37.51229,0.52216074 35.793355,-0.54168392 33.317675,-2.073877 30.197456,-2.7355013 27.055927,-2.490582 c -1.416504,0.1104333 -2.727632,0.3903873 -3.885366,0.8623134 -1.157431,0.4718023 -2.144879,1.13407891 -2.875903,1.92584503 -0.676241,0.73243087 -1.095791,1.54437257 -1.245385,2.29486007 -0.150173,0.753395 -0.01888,1.4524513 0.246592,1.9124346 0.297856,0.5160912 0.893191,0.9154246 1.4837,0.9952231 0.08628,0.01166 0.178038,0.01718 0.274383,0.015443 0.52659,1.3043956 2.177364,2.3528076 4.181213,2.2169587 z"
           id="path4165-4" />
        <path
           style="fill:url(#radialGradient5113);fill-opacity:1;fill-rule:evenodd;stroke:none;stroke-width:1px;stroke-linecap:butt;stroke-linejoin:miter;stroke-opacity:1"
           d="m 21.796899,6.234349 c 0.271636,-0.9597145 0.798899,-1.8391046 1.517446,-2.5308615 0.718548,-0.6917569 1.617329,-1.1852399 2.586668,-1.4202312 0.969339,-0.2349913 1.994325,-0.2078761 2.949883,0.078036 0.955559,0.2859126 1.826991,0.8262247 2.50796,1.5550041 1.272297,1.3616256 1.7512,3.2476744 1.504485,4.9565797 -0.247234,1.7124985 -1.180247,3.2065095 -2.395708,4.2434605 -1.434387,1.223724 -3.215912,1.812704 -4.889343,1.971572 -1.671109,0.158647 -3.285365,-0.08779 -4.720894,-0.446159 -1.915961,-0.478308 -3.850262,-1.239965 -5.58351,-2.422787 C 13.540489,11.036038 12.001738,9.4117026 11.03675,7.4078559 9.8911199,5.0288965 9.6963384,2.4293855 9.7513263,0.1648608 c 0.043587,-1.7950076 0.2456666,-3.6943963 0.8198187,-5.5531732 0.574753,-1.8607218 1.543687,-3.7139535 3.021658,-5.2054866 1.406369,-1.419275 3.141359,-2.378161 4.884777,-2.987671 1.740939,-0.608643 3.526343,-0.890379 5.215153,-1.038703 2.598297,-0.228203 5.221632,-0.164219 7.805714,0.190383 a 2.1673863,2.1673863 90 0 1 -0.589318,4.294526 c -2.263116,-0.310557 -4.561577,-0.366617 -6.837142,-0.166759 -1.493906,0.131207 -2.888817,0.3667078 -4.163847,0.8124662 -1.27255,0.4448917 -2.393752,1.0966714 -3.236223,1.9468734 -0.884518,0.8926357 -1.543254,2.0874785 -1.95908,3.4336843 -0.416427,1.3481515 -0.590124,2.8186486 -0.628015,4.37908493 -0.04862,2.00210617 0.151319,3.79072077 0.857434,5.25700407 0.582782,1.2101763 1.561914,2.2834946 2.775065,3.111387 1.213302,0.8279947 2.644897,1.4118481 4.190003,1.7975751 1.170967,0.292325 2.257929,0.431741 3.261285,0.336487 1.001035,-0.09503 1.876228,-0.434037 2.48562,-0.9539305 0.517807,-0.4417578 0.840505,-1.0226652 0.91882,-1.5651225 0.07883,-0.54605 -0.09828,-1.0746156 -0.381472,-1.3776959 C 28.035088,6.7083137 27.82791,6.5798575 27.608319,6.5141538 27.388728,6.44845 27.145043,6.4420035 26.922286,6.4960053 26.699528,6.5500073 26.485848,6.6673301 26.320723,6.8262984 26.155598,6.9852667 26.030244,7.1943368 25.967821,7.4148828 Z"
           id="path4171-7" />
        <path
           style="fill:url(#radialGradient5115);fill-opacity:1;fill-rule:evenodd;stroke:none;stroke-width:1px;stroke-linecap:butt;stroke-linejoin:miter;stroke-opacity:1"
           d="M 28.525217,8.0746159 25.633091,1.0021198 a 0.69365789,1.1790581 50.138563 0 1 0.368044,-1.02962758 c 1.212568,-1.26157732 2.945213,-2.17226822 4.899534,-2.40849152 1.94703,-0.235342 4.078189,0.1957224 5.925407,1.35538 1.933746,1.23287503 3.439261,3.167621 4.25142,5.4195049 0.812821,2.2468651 0.938339,4.7318449 0.439446,7.1042224 -0.496384,2.370359 -1.583141,4.58346 -3.047016,6.475731 -1.461649,1.89205 -3.269106,3.448894 -5.211935,4.676886 -2.174245,1.325288 -4.46523,2.243062 -6.21032,2.965318 -1.119821,0.403149 -2.466734,0.850446 -3.932542,1.197211 -1.916477,-0.06233 -4.08355,-0.270427 -6.297492,-0.914724 C 11.928723,24.560531 8.3427437,21.400675 6.0237809,18.307932 4.0044063,15.492513 2.7354892,12.436252 1.8410967,9.628024 0.63940793,6.2440622 -0.21154313,2.760753 -0.51899361,-0.75924789 -1.2420532,-5.8555611 -0.77792348,-10.973616 0.71140311,-15.621542 0.3878733,-10.748285 1.1903331,-5.9418462 2.9265728,-1.6629503 c 1.3582011,2.8478317 3.1451555,5.4583486 5.1399077,7.8270141 1.7853266,1.9635909 3.5640645,3.5176221 5.4601735,4.5343782 2.116718,1.204711 4.012818,1.496663 5.277571,1.03583 0.486699,-0.219849 1.270785,-0.626282 2.060873,-1.044652 0.759003,0.04111 1.645053,-0.0032 2.709093,-0.101431 1.811193,-0.07401 2.992213,-0.105547 4.146824,-0.248968 0.945136,-0.0765 1.859727,-0.289575 2.65192,-0.6258779 0.79271,-0.3316259 1.529311,-0.8451568 2.083833,-1.463815 0.558797,-0.6144543 0.967149,-1.4370073 1.1092,-2.2858977 C 33.714555,5.1155562 33.555576,4.1267413 33.081503,3.3012796 32.638577,2.4953372 31.801182,1.7720777 30.737302,1.4031444 29.813829,1.082902 28.698233,1.0454945 27.606783,1.3662179 l 0.918434,6.708398 z"
           id="path4177-0" />
      </g>
      <g
         style="fill:url(#radialGradient4821);fill-opacity:1;filter:url(#filter5007)"
         id="g4810">
        <path
           style="fill:url(#radialGradient5117);fill-opacity:1;fill-rule:evenodd;stroke:none;stroke-width:1px;stroke-linecap:butt;stroke-linejoin:miter;stroke-opacity:1;filter:url(#filter4798)"
           d="m 34.92423,32.407881 c -1.592882,0.977148 -3.466077,1.022721 -4.813851,0.418685 -1.360145,-0.609581 -2.223153,-1.829872 -2.372524,-2.934655 -0.0029,-0.02872 -0.0053,-0.05742 -0.0074,-0.08608 -0.513956,-0.742126 -0.765224,-1.78048 -0.644816,-2.869787 0.125521,-1.120202 0.635538,-2.268174 1.452012,-3.28041 0.887992,-1.087395 2.093893,-1.979294 3.484964,-2.641843 1.39091,-0.662165 2.93277,-1.084747 4.559151,-1.344614 1.815402,-0.278553 3.655199,-0.344845 5.439829,-0.07864 1.783707,0.265913 3.529063,0.874689 5.021459,1.877479 1.958847,1.352408 3.45436,3.383468 4.45881,5.668021 1.003942,2.283728 1.522258,4.775167 1.829063,7.315619 0.457542,4.349549 0.299118,8.777174 -0.476467,13.108508 0.959947,-4.294103 1.313302,-8.737208 1.038763,-13.155458 -0.120574,-2.570572 -0.460177,-5.197299 -1.341837,-7.683428 -0.881497,-2.485296 -2.348245,-4.880484 -4.492124,-6.607051 -1.616955,-1.33142 -3.56225,-2.228536 -5.5889,-2.735632 -2.025769,-0.507014 -4.120358,-0.629887 -6.173164,-0.51629 -1.824502,0.09083 -3.713279,0.376514 -5.539691,1.011232 -1.826211,0.634876 -3.622127,1.636992 -5.104016,3.083531 -1.371813,1.329726 -2.498351,3.075716 -2.995582,5.100609 -0.481615,1.96482 -0.350425,4.202238 0.63636,6.186276 0.04225,0.05203 0.08509,0.103539 0.128537,0.154511 1.661272,2.038205 4.132436,3.014889 6.353452,2.900751 2.245526,-0.115399 4.15187,-1.334603 5.147995,-2.891339 z"
           id="path4165" />
        <path
           style="fill:url(#radialGradient5119);fill-opacity:1;fill-rule:evenodd;stroke:none;stroke-width:1px;stroke-linecap:butt;stroke-linejoin:miter;stroke-opacity:1;filter:url(#filter4806)"
           d="m 33.571429,31.500001 c 0.248889,-0.567368 0.643882,-1.04364 1.111841,-1.376214 0.468549,-0.332992 1.009511,-0.523218 1.537477,-0.563654 0.528605,-0.04049 1.04587,0.06656 1.478873,0.285093 0.433487,0.218777 0.78744,0.54766 1.020177,0.921851 0.480143,0.638856 0.625313,1.523309 0.426891,2.289499 -0.196624,0.767081 -0.716916,1.463731 -1.388651,1.923553 -0.780593,0.554707 -1.803985,0.835919 -2.86404,0.850358 -0.715259,0.01055 -1.454382,-0.09163 -2.213763,-0.274718 -0.377704,-0.03626 -0.762518,-0.09209 -1.153972,-0.163408 -1.584904,-0.314899 -3.097996,-0.841097 -4.415397,-1.645451 -1.31667,-0.803488 -2.444734,-1.903058 -3.163383,-3.215118 -0.858539,-1.600349 -1.137923,-3.534046 -1.167035,-5.610444 -0.03915,-1.611379 0.06243,-3.205279 0.447711,-4.717516 0.384611,-1.510378 1.066905,-2.954059 2.093477,-4.101029 0.979778,-1.100331 2.279778,-1.934655 3.715226,-2.519773 1.435062,-0.584872 2.976704,-0.917469 4.555105,-1.134913 2.412582,-0.290437 4.866627,-0.310325 7.300891,-0.05526 -2.412935,-0.410092 -4.880684,-0.550026 -7.341965,-0.412401 -1.604349,0.06263 -3.242953,0.246188 -4.823893,0.716256 -1.580573,0.470039 -3.136659,1.244868 -4.405777,2.414773 -1.335646,1.236623 -2.281565,2.842172 -2.887261,4.538142 -0.605245,1.694227 -0.879549,3.471138 -1.000122,5.214738 -0.13037,2.191616 -0.01973,4.643274 0.975822,6.889555 0.828647,1.901033 2.219415,3.500983 3.84882,4.707379 1.628475,1.206047 3.482625,2.02619 5.358115,2.574911 0.46056,0.141302 0.937842,0.270026 1.428151,0.376695 1.027328,0.111415 2.102037,0.128168 3.186294,-0.03218 1.611782,-0.237584 3.250364,-0.888113 4.510922,-2.075144 1.061429,-1.016124 1.797055,-2.399918 1.925877,-3.885029 0.129987,-1.48695 -0.386576,-3.020744 -1.459065,-4.044777 -0.60424,-0.522681 -1.32986,-0.861335 -2.071041,-0.99479 -0.742108,-0.133622 -1.493593,-0.05906 -2.157044,0.188908 -0.664293,0.248284 -1.235468,0.66941 -1.650754,1.18687 -0.415817,0.518122 -0.673232,1.130369 -0.758507,1.743232 z"
           id="path4171" />
        <path
           style="fill:url(#radialGradient5121);fill-opacity:1;fill-rule:evenodd;stroke:none;stroke-width:1px;stroke-linecap:butt;stroke-linejoin:miter;stroke-opacity:1;filter:url(#filter4802)"
           d="m 38.214286,32.750001 c -0.836804,0.391698 -1.921878,0.407251 -2.86497,-0.06651 -0.936569,-0.470486 -1.703831,-1.412913 -1.945339,-2.568398 -0.239896,-1.147773 0.04776,-2.462377 0.879119,-3.469076 0.826058,-1.000274 2.14965,-1.65442 3.580355,-1.634781 0.836822,-0.0477 1.68219,0.122634 2.454579,0.461185 0.772025,0.337552 1.460709,0.831063 2.04382,1.408959 1.048364,1.230469 1.616471,2.686848 1.964317,3.96844 0.601311,2.834535 0.377302,6.024668 -1.028378,8.872684 -0.960447,1.93917 -2.390353,3.570593 -4.054853,4.831918 -0.942113,0.556607 -1.934863,1.002805 -2.94785,1.33655 -3.09056,1.030185 -6.365996,1.032802 -9.304366,0.243169 -3.562191,-0.909305 -6.637735,-2.963343 -8.938613,-5.485463 -2.019707,-2.251932 -3.456066,-4.872609 -4.600496,-7.423182 -1.429694,-3.07497 -2.55184,-6.283756 -3.214417,-9.582822 -0.6035467,-3.081097 -0.7988019,-6.211384 -0.5943369,-9.285528 0.2485237,3.071141 0.8958559,6.079962 1.9056649,8.928756 1.064647,3.051428 2.548317,5.937475 4.285581,8.631464 1.494624,2.2467 3.109852,4.251946 5.042362,5.791104 2.142736,1.74132 4.643819,2.843231 7.132815,3.085965 2.06655,0.161352 4.075643,-0.27052 5.695634,-1.185401 0.51496,-0.296605 0.99021,-0.643544 1.41047,-1.028634 0.943322,-0.539677 1.738852,-1.25544 2.301113,-2.088612 0.844591,-1.243523 1.258382,-2.92604 1.11448,-4.698746 0.01018,-0.819063 -0.07935,-1.489675 -0.267044,-1.990217 -0.03577,-0.289195 -0.118725,-0.576032 -0.24013,-0.819672 -0.119236,-0.244556 -0.307545,-0.473795 -0.53011,-0.637241 -0.391605,-0.190554 -0.966411,-0.173983 -1.451342,0.09926 -0.483809,0.272611 -0.884112,0.846475 -0.96731,1.522474 -0.08272,0.672144 0.170612,1.459347 0.746618,2.022707 0.572097,0.559535 1.47063,0.884974 2.392627,0.75965 z"
           id="path4177" />
      </g>
    </g>
  </g>
</svg>
