<?xml version="1.0" encoding="UTF-8" standalone="no"?>
<svg
   xmlns:dc="http://purl.org/dc/elements/1.1/"
   xmlns:cc="http://creativecommons.org/ns#"
   xmlns:rdf="http://www.w3.org/1999/02/22-rdf-syntax-ns#"
   xmlns:svg="http://www.w3.org/2000/svg"
   xmlns="http://www.w3.org/2000/svg"
   version="1.1"
   id="svg5741"
   height="32"
   width="32">
  <defs
     id="defs5743" />
  <metadata
     id="metadata5746">
    <rdf:RDF>
      <cc:Work
         rdf:about="">
        <dc:format>image/svg+xml</dc:format>
        <dc:type
           rdf:resource="http://purl.org/dc/dcmitype/StillImage" />
        <dc:title></dc:title>
      </cc:Work>
    </rdf:RDF>
  </metadata>
  <g
     id="layer11">
    <path
       style="display:inline;fill:#ffffff;fill-opacity:1;stroke:none"
       d="M 19,1 9.4735113,11 C 9.4735113,11 2.933622,4.244219 2e-6,1 Z"
       id="path3788-7-2" />
    <path
       style="display:inline;fill:#ffffff;fill-opacity:1;stroke:none"
       d="M 19,9 9.4735116,19 C 9.4735116,19 2.933622,12.244219 2e-6,9 Z"
       id="path3788-7-4-4" />
    <path
       style="display:inline;fill:#ffffff;fill-opacity:1;stroke:none"
       d="M 19,1 9.4735113,11 C 9.4735113,11 2.933622,4.244219 2e-6,1 Z"
       id="path3788-7" />
    <path
       style="display:inline;fill:#ffffff;fill-opacity:1;stroke:none"
       d="M 19,9 9.4735116,19 C 9.4735116,19 2.933622,12.244219 2e-6,9 Z"
       id="path3788-7-4" />
    <g
       transform="matrix(0,-1,-1,0,728.94532,772.2021)"
       id="g5661">
      <path
         style="fill:#000000;fill-opacity:1;stroke:none"
         d="m 762.2021,726.94532 -8,-7.45536 8,-7.54464 z"
         id="path4440" />
      <path
         style="fill:#000000;fill-opacity:1;stroke:none"
         d="m 770.2021,726.94532 -8,-7.45536 8,-7.54464 z"
         id="path4440-9" />
    </g>
  </g>
</svg>
