<?xml version="1.0" encoding="UTF-8" standalone="no"?>
<svg
   xmlns:dc="http://purl.org/dc/elements/1.1/"
   xmlns:cc="http://creativecommons.org/ns#"
   xmlns:rdf="http://www.w3.org/1999/02/22-rdf-syntax-ns#"
   xmlns:svg="http://www.w3.org/2000/svg"
   xmlns="http://www.w3.org/2000/svg"
   enable-background="new"
   style="enable-background:new"
   version="1.1"
   id="svg2"
   height="64"
   width="64">
  <defs
     id="defs4">
    <clipPath
       id="clipPath4759"
       clipPathUnits="userSpaceOnUse">
      <path
         id="path4761"
         d="m 53,54 0,13 -13,0 0,-13 z"
         style="fill:none;stroke:#000000;stroke-width:1px;stroke-linecap:butt;stroke-linejoin:miter;stroke-opacity:1" />
    </clipPath>
    <clipPath
       id="clipPath4820"
       clipPathUnits="userSpaceOnUse">
      <path
         id="path4822"
         d="m -71,63 52,0 0,-52 -53,0 0,52 z"
         style="fill:none;stroke:#000000;stroke-width:1px;stroke-linecap:butt;stroke-linejoin:miter;stroke-opacity:1" />
    </clipPath>
    <clipPath
       id="clipPath4886"
       clipPathUnits="userSpaceOnUse">
      <path
         id="path4888"
         d="m 9.3749996,60 42.6838234,0 c 0,0 1.853686,-5.544714 7.941177,-7.941176 L 60,9.375 l -51.6176474,0 0,50.625 z"
         style="fill:none;stroke:#000000;stroke-width:0.99264705px;stroke-linecap:butt;stroke-linejoin:miter;stroke-opacity:1" />
    </clipPath>
  </defs>
  <metadata
     id="metadata7">
    <rdf:RDF>
      <cc:Work
         rdf:about="">
        <dc:format>image/svg+xml</dc:format>
        <dc:type
           rdf:resource="http://purl.org/dc/dcmitype/StillImage" />
        <dc:title></dc:title>
      </cc:Work>
    </rdf:RDF>
  </metadata>
  <g
     transform="translate(11,-3)"
     style="display:inline"
     id="layer4">
    <rect
       transform="translate(-11,3)"
       y="0"
       x="0"
       height="64"
       width="64"
       id="rect4959"
       style="fill:#000000;fill-opacity:1" />
    <g
       style="fill:#ffffff;fill-opacity:1"
       transform="translate(65,0)"
       id="g5003">
      <rect
         style="fill:#ffffff;fill-opacity:1"
         id="rect4961"
         width="1"
         height="6"
         x="-64"
         y="27"
         transform="translate(-11,3)" />
      <rect
         style="fill:#ffffff;fill-opacity:1"
         id="rect4963"
         width="1"
         height="2"
         x="-64"
         y="23"
         transform="translate(-11,3)" />
      <rect
         style="fill:#ffffff;fill-opacity:1"
         id="rect4965"
         width="1"
         height="2"
         x="-64"
         y="19"
         transform="translate(-11,3)" />
      <rect
         style="fill:#ffffff;fill-opacity:1"
         id="rect4967"
         width="1"
         height="2"
         x="-64"
         y="15"
         transform="translate(-11,3)" />
      <rect
         style="fill:#ffffff;fill-opacity:1"
         id="rect4969"
         width="1"
         height="2"
         x="-64"
         y="11"
         transform="translate(-11,3)" />
      <rect
         style="fill:#ffffff;fill-opacity:1"
         id="rect4971"
         width="1"
         height="8"
         x="-64"
         y="1"
         transform="translate(-11,3)" />
      <rect
         style="fill:#ffffff;fill-opacity:1"
         id="rect4973"
         width="8"
         height="1"
         x="-64"
         y="1"
         transform="translate(-11,3)" />
      <rect
         style="fill:#ffffff;fill-opacity:1"
         id="rect4975"
         width="2"
         height="1"
         x="-54"
         y="1"
         transform="translate(-11,3)" />
      <rect
         style="fill:#ffffff;fill-opacity:1"
         id="rect4977"
         width="2"
         height="1"
         x="-50"
         y="1"
         transform="translate(-11,3)" />
      <rect
         style="fill:#ffffff;fill-opacity:1"
         id="rect4979"
         width="2"
         height="1"
         x="-46"
         y="1"
         transform="translate(-11,3)" />
      <rect
         style="fill:#ffffff;fill-opacity:1"
         id="rect4981"
         width="2"
         height="1"
         x="-42"
         y="1"
         transform="translate(-11,3)" />
      <rect
         style="fill:#ffffff;fill-opacity:1"
         id="rect4983"
         width="6"
         height="1"
         x="-38"
         y="1"
         transform="translate(-11,3)" />
      <rect
         style="fill:#ffffff;fill-opacity:1"
         id="rect4985"
         width="5"
         height="33"
         x="-59"
         y="18"
         transform="translate(-11,3)" />
      <rect
         style="fill:#ffffff;fill-opacity:1"
         id="rect4987"
         width="5"
         height="7"
         x="-59"
         y="56"
         transform="translate(-11,3)" />
      <rect
         style="fill:#ffffff;fill-opacity:1"
         id="rect4989"
         width="7"
         height="5"
         x="-9"
         y="6"
         transform="translate(-11,3)" />
      <rect
         style="fill:#ffffff;fill-opacity:1"
         id="rect4991"
         width="1"
         height="21"
         x="-38"
         y="17"
         transform="translate(-11,3)" />
      <rect
         style="fill:#ffffff;fill-opacity:1"
         id="rect4993"
         width="21"
         height="1"
         x="-48"
         y="27"
         transform="translate(-11,3)" />
      <rect
         style="fill:#ffffff;fill-opacity:1"
         id="rect4995"
         width="2"
         height="12"
         x="-24"
         y="41"
         transform="translate(-11,3)" />
      <rect
         style="fill:#ffffff;fill-opacity:1"
         id="rect4997"
         width="12"
         height="2"
         x="-24"
         y="41"
         transform="translate(-11,3)" />
      <rect
         style="fill:#ffffff;fill-opacity:1"
         id="rect4999"
         width="33"
         height="5"
         x="-47"
         y="6"
         transform="translate(-11,3)" />
      <rect
         style="fill:#ffffff;fill-opacity:1"
         id="rect5001"
         width="5"
         height="17"
         x="-34.632305"
         y="47.360226"
         transform="matrix(0.70710678,0.70710678,-0.70710678,0.70710678,0,0)" />
    </g>
  </g>
</svg>
