<?xml version="1.0" encoding="UTF-8" standalone="no"?>
<svg
   xmlns:dc="http://purl.org/dc/elements/1.1/"
   xmlns:cc="http://creativecommons.org/ns#"
   xmlns:rdf="http://www.w3.org/1999/02/22-rdf-syntax-ns#"
   xmlns:svg="http://www.w3.org/2000/svg"
   xmlns="http://www.w3.org/2000/svg"
   version="1.1"
   id="svg2"
   height="32"
   width="32">
  <defs
     id="defs4" />
  <metadata
     id="metadata7">
    <rdf:RDF>
      <cc:Work
         rdf:about="">
        <dc:format>image/svg+xml</dc:format>
        <dc:type
           rdf:resource="http://purl.org/dc/dcmitype/StillImage" />
        <dc:title></dc:title>
      </cc:Work>
    </rdf:RDF>
  </metadata>
  <path
     style="display:inline;fill:#ffffff;fill-opacity:0;stroke:none"
     d="M 16,16 9,16 16,9.0000004 Z"
     id="path3794" />
  <rect
     style="display:inline;fill:#ffffff;fill-opacity:1;stroke:none"
     id="rect3796"
     width="3.7776411"
     height="13.197725"
     x="-2.0508292"
     y="6.1229081"
     transform="matrix(-0.73784257,0.67497285,0.69805176,0.71604731,0,0)" />
  <path
     style="display:inline;fill:#ffffff;fill-opacity:0;stroke:none"
     d="m 1,1.0000004 7,0 -7,7 z"
     id="path3794-7" />
  <path
     style="display:inline;fill:#ffffff;fill-opacity:1;stroke:none"
     d="m 16,15.99665 -5,0 c -1.22447,0.052 -2.07927,-0.49697 -2,-2 l 5,-4.9999996 c 1.09239,-0.098 1.85868,0.31958 2,1.9999996 z"
     id="path3759" />
  <path
     style="display:inline;fill:#ffffff;fill-opacity:1;stroke:none"
     d="m 1,0.98661043 5,0 c 1.22447,-0.052 2.07927,0.49697997 2,1.99999997 l -5,5.00001 c -1.09239,0.098 -1.85868,-0.31958 -2,-2 z"
     id="path3759-1" />
  <g
     style="display:inline"
     id="layer3" />
  <path
     id="path3786"
     d="m 15,15 -5,0 5,-5 z"
     style="fill:#000000;fill-opacity:1;stroke:none" />
  <path
     id="path3788"
     d="M 14,13 4,2.9999993 l -1,1 L 13,14 z"
     style="fill:#000000;fill-opacity:1;stroke:none" />
  <path
     id="path3786-7"
     d="M 2,2 7,2 2,7 z"
     style="fill:#000000;fill-opacity:1;stroke:none" />
</svg>
