<?xml version="1.0" encoding="UTF-8" standalone="no"?>
<svg
   xmlns:dc="http://purl.org/dc/elements/1.1/"
   xmlns:cc="http://creativecommons.org/ns#"
   xmlns:rdf="http://www.w3.org/1999/02/22-rdf-syntax-ns#"
   xmlns:svg="http://www.w3.org/2000/svg"
   xmlns="http://www.w3.org/2000/svg"
   xmlns:xlink="http://www.w3.org/1999/xlink"
   width="32"
   height="32"
   id="svg2"
   version="1.1">
  <defs
     id="defs4">
    <linearGradient
       id="linearGradient3897">
      <stop
         style="stop-color:#000000;stop-opacity:1"
         offset="0"
         id="stop3899" />
      <stop
         style="stop-color:#c0c0c0;stop-opacity:1"
         offset="1"
         id="stop3901" />
    </linearGradient>
    <linearGradient
       id="linearGradient3834">
      <stop
         style="stop-color:#ffffff;stop-opacity:1;"
         offset="0"
         id="stop3836" />
      <stop
         style="stop-color:#ffffff;stop-opacity:0;"
         offset="1"
         id="stop3838" />
    </linearGradient>
    <linearGradient
       xlink:href="#linearGradient3788-4"
       id="linearGradient3794-7"
       x1="17.894035"
       y1="21.505075"
       x2="3.9368656"
       y2="21.631346"
       gradientUnits="userSpaceOnUse" />
    <linearGradient
       id="linearGradient3788-4">
      <stop
         style="stop-color:#000000;stop-opacity:1;"
         offset="0"
         id="stop3790-0" />
      <stop
         style="stop-color:#000000;stop-opacity:0;"
         offset="1"
         id="stop3792-9" />
    </linearGradient>
    <linearGradient
       xlink:href="#linearGradient3834"
       id="linearGradient3840"
       x1="5.749681"
       y1="21.368656"
       x2="14.071068"
       y2="21.505075"
       gradientUnits="userSpaceOnUse" />
    <linearGradient
       gradientTransform="translate(1.1116211e-6,-18.999999)"
       xlink:href="#linearGradient3834-8"
       id="linearGradient3840-8"
       x1="5.749681"
       y1="21.368656"
       x2="14.071068"
       y2="21.505075"
       gradientUnits="userSpaceOnUse" />
    <linearGradient
       id="linearGradient3834-8">
      <stop
         style="stop-color:#ffffff;stop-opacity:1;"
         offset="0"
         id="stop3836-2" />
      <stop
         style="stop-color:#ffffff;stop-opacity:0;"
         offset="1"
         id="stop3838-4" />
    </linearGradient>
    <linearGradient
       xlink:href="#linearGradient3897"
       id="linearGradient3903"
       x1="11.651786"
       y1="17.178572"
       x2="5.625"
       y2="17.446428"
       gradientUnits="userSpaceOnUse" />
    <linearGradient
       xlink:href="#linearGradient3897-1"
       id="linearGradient3903-7"
       x1="11.651786"
       y1="17.178572"
       x2="5.625"
       y2="17.446428"
       gradientUnits="userSpaceOnUse" />
    <linearGradient
       id="linearGradient3897-1">
      <stop
         style="stop-color:#000000;stop-opacity:1"
         offset="0"
         id="stop3899-1" />
      <stop
         style="stop-color:#c0c0c0;stop-opacity:1"
         offset="1"
         id="stop3901-5" />
    </linearGradient>
    <linearGradient
       gradientTransform="matrix(0.71428574,0,0,-0.71035939,2.1428562,20.207189)"
       y2="17.446428"
       x2="5.625"
       y1="17.178572"
       x1="11.651786"
       gradientUnits="userSpaceOnUse"
       id="linearGradient3920"
       xlink:href="#linearGradient3897-1" />
  </defs>
  <metadata
     id="metadata7">
    <rdf:RDF>
      <cc:Work
         rdf:about="">
        <dc:format>image/svg+xml</dc:format>
        <dc:type
           rdf:resource="http://purl.org/dc/dcmitype/StillImage" />
        <dc:title></dc:title>
      </cc:Work>
    </rdf:RDF>
  </metadata>
  <g
     id="layer3"
     style="display:inline">
    <path
       style="fill:#ffffff;fill-opacity:1;stroke:none"
       d="M 2.4306796,20.288544 2.4622468,16.121665 6.376588,11.986353 2.5885159,7.9773096 2.4938141,3.5263249 l 10.0383909,0.031567 0.06314,4.1037448 -3.8196397,4.3247163 3.6302357,3.977475 -0.03157,4.545687 z"
       id="path4004" />
    <rect
       style="fill:#000000;fill-opacity:1;stroke:none"
       id="rect3830"
       width="13"
       height="3"
       x="1"
       y="20" />
    <rect
       style="fill:url(#linearGradient3840);fill-opacity:1;stroke:none"
       id="rect3832"
       width="9"
       height="1"
       x="3"
       y="21" />
    <rect
       style="fill:#000000;fill-opacity:1;stroke:none"
       id="rect3830-5"
       width="13"
       height="3"
       x="1.0000005"
       y="1" />
    <rect
       style="fill:url(#linearGradient3840-8);fill-opacity:1;stroke:none"
       id="rect3832-5"
       width="9"
       height="1"
       x="3"
       y="2" />
    <path
       style="fill:#000000;fill-opacity:1;stroke:none"
       d="M 2,21 2,16 6,12 2,8 2,3 l 1,0 0,5 4,4 -4,4 0,5 z"
       id="path3875" />
    <path
       style="fill:#000000;fill-opacity:1;stroke:none"
       d="m 13,21 0,-5 -4,-4 4,-4 0,-5 -1,0 0,5 -4,4 4,4 0,5 z"
       id="path3875-1" />
    <path
       style="fill:url(#linearGradient3903);fill-opacity:1;stroke:none"
       d="M 4,20 7.5982143,15.776786 11,20 z"
       id="path3895" />
    <path
       style="fill:url(#linearGradient3920);fill-opacity:1;stroke:none"
       d="M 4.9999992,6 7.5701527,9 10,6 Z"
       id="path3895-2" />
    <path
       style="fill:#808080;fill-opacity:1;stroke:none"
       id="path3939"
       d="m 7.8571428,15.102678 a 0.55803573,0.55803573 0 1 1 -1.1160715,0 0.55803573,0.55803573 0 1 1 1.1160715,0 z"
       transform="matrix(0.89599997,0,0,0.89599997,0.96000028,0.9680007)" />
    <path
       style="fill:#808080;fill-opacity:1;stroke:none"
       id="path3939-7"
       d="m 7.8571428,15.102678 a 0.55803573,0.55803573 0 1 1 -1.1160715,0 0.55803573,0.55803573 0 1 1 1.1160715,0 z"
       transform="matrix(0.89599997,0,0,0.89599997,0.96000028,-3.0319993)" />
    <path
       style="fill:#c0c0c0;fill-opacity:1;stroke:none"
       id="path3939-7-6"
       d="m 7.8571428,15.102678 a 0.55803573,0.55803573 0 1 1 -1.1160715,0 0.55803573,0.55803573 0 1 1 1.1160715,0 z"
       transform="matrix(0.89599997,0,0,0.89599997,0.96000028,-1.0319993)" />
  </g>
</svg>
