<?xml version="1.0" encoding="UTF-8" standalone="no"?>
<svg
   xmlns:dc="http://purl.org/dc/elements/1.1/"
   xmlns:cc="http://creativecommons.org/ns#"
   xmlns:rdf="http://www.w3.org/1999/02/22-rdf-syntax-ns#"
   xmlns:svg="http://www.w3.org/2000/svg"
   xmlns="http://www.w3.org/2000/svg"
   xml:space="preserve"
   enable-background="new -16 -16 64 64"
   viewBox="-16 -16 64 64"
   height="64px"
   width="64px"
   y="0px"
   x="0px"
   id="Layer_1"
   version="1.1"><metadata
   id="metadata1076"><rdf:RDF><cc:Work
       rdf:about=""><dc:format>image/svg+xml</dc:format><dc:type
         rdf:resource="http://purl.org/dc/dcmitype/StillImage" /><dc:title></dc:title></cc:Work></rdf:RDF></metadata><defs
   id="defs1074" />
<filter
   id="AI_GaussianBlur_1">
	<feGaussianBlur
   id="feGaussianBlur4"
   stdDeviation="1" />
</filter>


<g
   style="filter:url(#AI_GaussianBlur_1)"
   transform="matrix(1.0002055,0,0,0.99982992,0.2460159,2.2505315)"
   id="g14">
	<g
   id="g16">
		<g
   id="g18">
			<g
   id="g20">
				<path
   style="opacity:0.3;fill:#646464"
   id="path22"
   d="m 1,-9.4 c 0.2,-1 -0.9,-0.8 -1.9,-1 -1.2,0 -3,-0.6 -3.6,-1 -0.6,-0.4 -2.9,0.7 -3.8,1.3 -0.9,0.6 -0.9,1.8 -0.5,2.8 0.3,1.1 3.9,2 7.1,1.4 3.5,-0.5 2.4,-2.4 2.7,-3.5 z"
   enable-background="new    " />
			</g>
		</g>
	</g>
	<g
   id="g24">
		<g
   id="g26">
			<g
   id="g28">
				<path
   style="opacity:0.3;fill:#646464"
   id="path30"
   d="m -5.6,-12.9 c -1.1,0.6 0.1,1.3 0.6,2.4 0.9,1 1.8,3 1.9,3.8 0.1,0.8 2.8,2 4.1,2.2 1.2,0.2 2.2,-0.7 2.8,-1.8 0.8,-1.1 -1.3,-4.8 -4.2,-7.1 -3.2,-2.5 -4,-0.2 -5.2,0.5 z"
   enable-background="new    " />
			</g>
		</g>
	</g>
	<g
   id="g32">
		<g
   id="g34">
			<g
   id="g36">
				<path
   style="opacity:0.3;fill:#646464"
   id="path38"
   d="m -0.5,-16.9 c -1.5,-0.1 -0.8,1.5 -0.9,3 0.3,1.6 -0.1,4.3 -0.4,5.3 -0.3,1 1.7,3.9 2.9,5 1.2,1.1 2.8,0.7 4.1,-0.1 C 6.8,-4.4 7,-9.6 5.4,-14 3.6,-18.8 1.2,-16.8 -0.5,-16.9 Z"
   enable-background="new    " />
			</g>
		</g>
	</g>
	<g
   id="g40">
		<g
   id="g42">
			<g
   id="g44">
				<path
   style="opacity:0.3;fill:#646464"
   id="path46"
   d="m -2,-13 c -1,1.1 0.6,1.6 1.7,2.6 1.5,0.8 3.3,2.9 3.8,3.8 0.5,0.9 4.2,1.2 5.7,1 1.5,-0.2 2.4,-1.7 2.6,-3.2 0.5,-1.6 -3.5,-5.2 -7.8,-6.7 -4.9,-1.9 -4.9,1.3 -6,2.5 z"
   enable-background="new    " />
			</g>
		</g>
	</g>
	<g
   id="g48">
		<g
   id="g50">
			<g
   id="g52">
				<path
   style="opacity:0.3;fill:#646464"
   id="path54"
   d="m 2.5,-13.4 c -1.2,-0.2 -0.8,1.1 -1.1,2.3 0.1,1.3 -0.5,3.5 -0.9,4.2 -0.4,0.7 1,3.4 1.8,4.4 0.8,1 2.1,1 3.3,0.5 1.3,-0.4 2.1,-4.6 1.3,-8.3 -0.9,-4.2 -3,-2.8 -4.4,-3.1 z"
   enable-background="new    " />
			</g>
		</g>
	</g>
	<g
   id="g56">
		<g
   id="g58">
			<g
   id="g60">
				<path
   style="opacity:0.3;fill:#646464"
   id="path62"
   d="m 0.7,-9 c -1,0 -0.5,1 -0.4,2 0.3,1.1 0.2,2.9 0,3.6 -0.2,0.7 1.4,2.5 2.2,3.2 C 3.3,0.5 4.4,0.2 5.2,-0.5 6.1,-1 6,-4.6 4.7,-7.4 3.3,-10.5 1.8,-9.1 0.7,-9 Z"
   enable-background="new    " />
			</g>
		</g>
	</g>
	<g
   id="g64">
		<g
   id="g66">
			<g
   id="g68">
				<path
   style="opacity:0.3;fill:#646464"
   id="path70"
   d="M 5.3,-4.1 C 5.2,-5 4.3,-4.4 3.4,-4.2 c -0.9,0.4 -2.5,0.6 -3.2,0.5 -0.7,-0.1 -2.1,1.6 -2.6,2.4 -0.5,0.8 -0.1,1.8 0.6,2.4 0.7,0.9 3.9,0.3 6.2,-1.3 2.7,-1.7 1.2,-2.9 0.9,-3.9 z"
   enable-background="new    " />
			</g>
		</g>
	</g>
	<g
   id="g72">
		<g
   id="g74">
			<g
   id="g76">
				<path
   style="opacity:0.3;fill:#646464"
   id="path78"
   d="m -0.5,-3.1 c -1,-0.1 -0.6,0.9 -0.6,1.9 0.2,1.1 -0.1,2.8 -0.4,3.4 -0.3,0.6 1.1,2.6 1.8,3.3 C 1,6.2 2.1,6 3,5.5 4,5.1 4.2,1.6 3.3,-1.2 2.2,-4.3 0.6,-3.1 -0.5,-3.1 Z"
   enable-background="new    " />
			</g>
		</g>
	</g>
	<g
   id="g80">
		<g
   id="g82">
			<g
   id="g84">
				<path
   style="opacity:0.3;fill:#646464"
   id="path86"
   d="m -3.3,3.5 c -0.6,1 0.7,1.1 1.7,1.7 1.2,0.4 2.9,1.6 3.5,2.2 C 2.5,8 5.2,7.6 6.3,7.2 7.4,6.8 7.8,5.6 7.7,4.4 7.8,3.1 4.3,1.1 0.8,0.6 -3.1,0.1 -2.6,2.4 -3.3,3.5 Z"
   enable-background="new    " />
			</g>
		</g>
	</g>
	<g
   id="g88">
		<g
   id="g90">
			<g
   id="g92">
				<path
   style="opacity:0.3;fill:#646464"
   id="path94"
   d="M -2.7,6.2 C -3.4,7.3 -2,7.5 -0.8,8.2 0.5,8.6 2.4,10 3,10.7 3.6,11.4 6.7,11.1 8,10.6 9.3,10.2 9.7,8.8 9.7,7.5 9.8,6.1 6,3.6 2,3 -2.5,2.3 -2,5 -2.7,6.2 Z"
   enable-background="new    " />
			</g>
		</g>
	</g>
	<g
   id="g96">
		<g
   id="g98">
			<g
   id="g100">
				<path
   style="opacity:0.3;fill:#646464"
   id="path102"
   d="m 2.9,4.6 c -1,0.1 -0.4,1 -0.3,2 0.3,1 0.3,2.8 0.2,3.5 -0.1,0.7 1.4,2.4 2.3,3 C 6,13.7 7,13.4 7.7,12.7 8.6,12.1 8.4,8.7 6.9,6 5.4,3 4,4.5 2.9,4.6 Z"
   enable-background="new    " />
			</g>
		</g>
	</g>
	<g
   id="g104">
		<g
   id="g106">
			<g
   id="g108">
				<path
   style="opacity:0.3;fill:#646464"
   id="path110"
   d="M 6.1,0.9 C 4.7,0.7 5.2,2.2 5.1,3.5 5.3,5 4.7,7.4 4.3,8.3 3.9,9.2 5.6,12 6.5,13.1 7.4,14.2 9,14 10.3,13.3 11.7,12.8 12.3,8 11.2,4 9.9,-0.5 7.6,1.1 6.1,0.9 Z"
   enable-background="new    " />
			</g>
		</g>
	</g>
	<g
   id="g112">
		<g
   id="g114">
			<g
   id="g116">
				<path
   style="opacity:0.3;fill:#646464"
   id="path118"
   d="m 8.8,-2.2 c -1.6,-0.3 -1.1,1.4 -1.4,3 0.1,1.8 -0.8,4.6 -1.3,5.6 -0.5,1 1.2,4.5 2.3,5.8 1.1,1.3 2.8,1.2 4.4,0.6 1.8,-0.5 2.9,-6.1 1.8,-11 -1.1,-5.5 -4,-3.7 -5.8,-4 z"
   enable-background="new    " />
			</g>
		</g>
	</g>
	<g
   id="g120">
		<g
   id="g122">
			<g
   id="g124">
				<path
   style="opacity:0.3;fill:#646464"
   id="path126"
   d="M 8.1,0.2 C 7.2,0.8 8.3,1.4 8.9,2.3 9.8,3.1 10.7,4.8 11,5.6 11.3,6.4 13.7,7.1 14.9,7.3 16,7.4 16.8,6.5 17.2,5.5 17.8,4.4 15.6,1.3 12.8,-0.6 9.6,-2.7 9.1,-0.5 8.1,0.2 Z"
   enable-background="new    " />
			</g>
		</g>
	</g>
	<g
   id="g128">
		<g
   id="g130">
			<g
   id="g132">
				<path
   style="opacity:0.3;fill:#646464"
   id="path134"
   d="M 15.2,-3.5 C 14.5,-3.9 14.4,-3 14,-2.2 13.7,-1.3 12.8,0 12.3,0.4 c -0.5,0.4 -0.2,2.5 0.1,3.3 0.3,0.8 1.2,1.1 2.1,1.1 1,0.1 2.6,-2.5 2.9,-5.2 0.4,-2.9 -1.3,-2.6 -2.2,-3.1 z"
   enable-background="new    " />
			</g>
		</g>
	</g>
	<g
   id="g136">
		<g
   id="g138">
			<g
   id="g140">
				<path
   style="opacity:0.3;fill:#646464"
   id="path142"
   d="m 11.2,-5.6 c -1.3,0.3 -0.3,1.4 0,2.7 0.7,1.3 1,3.6 1,4.6 0,1 2.4,2.9 3.7,3.5 1.3,0.6 2.5,-0.1 3.4,-1.1 1.1,-1 0,-5.5 -2.5,-8.7 -2.6,-3.7 -4.1,-1.4 -5.6,-1 z"
   enable-background="new    " />
			</g>
		</g>
	</g>
	<g
   id="g144">
		<g
   id="g146">
			<g
   id="g148">
				<path
   style="opacity:0.3;fill:#646464"
   id="path150"
   d="m 18,-3.2 c -0.6,-1.2 -1.5,0 -2.6,0.6 -1.1,1 -3.3,1.9 -4.2,2 -0.9,0.1 -2.2,3.1 -2.5,4.5 -0.3,1.3 0.7,2.4 1.9,3 1.2,0.9 5.3,-1.3 7.8,-4.4 2.9,-3.5 0.3,-4.4 -0.4,-5.7 z"
   enable-background="new    " />
			</g>
		</g>
	</g>
	<g
   id="g152">
		<g
   id="g154">
			<g
   id="g156">
				<path
   style="opacity:0.3;fill:#646464"
   id="path158"
   d="m 15,0.2 c -0.8,-0.5 -0.9,0.6 -1.4,1.5 -0.3,1 -1.3,2.5 -1.8,2.9 -0.5,0.5 -0.1,2.8 0.2,3.7 0.4,0.9 1.4,1.2 2.4,1.1 1.1,0 2.7,-2.9 3,-5.9 C 17.9,0.3 15.9,0.7 15,0.2 Z"
   enable-background="new    " />
			</g>
		</g>
	</g>
	<g
   id="g160">
		<g
   id="g162">
			<g
   id="g164">
				<path
   style="opacity:0.3;fill:#646464"
   id="path166"
   d="m 10.1,2.6 c -1.4,0.5 -0.2,1.7 0.3,3.1 0.9,1.4 1.6,4.1 1.6,5.1 0,1.1 3.1,3 4.6,3.6 C 18.1,15 19.5,14 20.4,12.8 21.6,11.6 19.8,6.5 16.6,3.1 13.2,-0.8 11.7,2 10.1,2.6 Z"
   enable-background="new    " />
			</g>
		</g>
	</g>
	<g
   id="g168">
		<g
   id="g170">
			<g
   id="g172">
				<path
   style="opacity:0.3;fill:#646464"
   id="path174"
   d="m 9.8,10 c -0.7,1 0.7,1.2 1.7,1.9 1.3,0.5 3,1.9 3.6,2.6 0.6,0.7 3.5,0.5 4.8,0.1 1.3,-0.4 1.7,-1.6 1.7,-2.9 0.2,-1.4 -3.4,-3.8 -7.2,-4.5 -4.2,-1 -3.8,1.6 -4.6,2.8 z"
   enable-background="new    " />
			</g>
		</g>
	</g>
	<g
   id="g176">
		<g
   id="g178">
			<g
   id="g180">
				<path
   style="opacity:0.3;fill:#646464"
   id="path182"
   d="M 20.3,11.5 C 20.2,10.4 19.2,11 18.1,11.1 17,11.5 15,11.4 14.2,11.3 c -0.8,-0.2 -2.7,1.6 -3.4,2.5 -0.7,0.9 -0.3,2.1 0.4,3 0.6,1.1 4.5,0.8 7.5,-0.8 3.4,-1.7 1.8,-3.3 1.6,-4.5 z"
   enable-background="new    " />
			</g>
		</g>
	</g>
	<g
   id="g184">
		<g
   id="g186">
			<g
   id="g188">
				<path
   style="opacity:0.3;fill:#646464"
   id="path190"
   d="m 11.5,8.9 c -1.5,-0.3 -1,1.3 -1.3,2.8 0.1,1.6 -0.6,4.2 -1.1,5.1 -0.5,0.9 1.2,4.1 2.1,5.3 0.9,1.2 2.6,1.1 4,0.5 1.6,-0.5 2.5,-5.6 1.5,-10 C 15.8,7.5 13.2,9.1 11.5,8.9 Z"
   enable-background="new    " />
			</g>
		</g>
	</g>
	<g
   id="g192">
		<g
   id="g194">
			<g
   id="g196">
				<path
   style="opacity:0.3;fill:#646464"
   id="path198"
   d="m 10.2,10.4 c -1.3,-0.6 -1.2,1 -1.7,2.3 -0.2,1.5 -1.3,3.8 -1.9,4.6 -0.6,0.8 0.4,4 1.1,5.3 0.7,1.3 2.2,1.5 3.7,1.1 1.6,-0.2 3.3,-4.8 3.2,-9.1 -0.2,-4.8 -2.9,-3.7 -4.4,-4.2 z"
   enable-background="new    " />
			</g>
		</g>
	</g>
	<g
   id="g200">
		<g
   id="g202">
			<g
   id="g204">
				<path
   style="opacity:0.3;fill:#646464"
   id="path206"
   d="m 12.6,11.7 c -0.5,-1.4 -1.6,-0.2 -3,0.3 -1.4,0.9 -3.9,1.5 -5,1.5 -1,0 -3,3 -3.5,4.4 -0.6,1.4 0.3,2.8 1.6,3.7 1.2,1.2 6.1,-0.5 9.4,-3.6 3.8,-3.2 1.1,-4.7 0.5,-6.3 z"
   enable-background="new    " />
			</g>
		</g>
	</g>
	<g
   id="g208">
		<g
   id="g210">
			<g
   id="g212">
				<path
   style="opacity:0.3;fill:#646464"
   id="path214"
   d="m -1.8,12 c -1.2,0.9 0.4,1.6 1.3,2.8 1.3,1 2.7,3.2 3.1,4.2 0.4,1 3.8,1.8 5.4,1.8 1.6,0 2.5,-1.2 3,-2.7 0.7,-1.5 -2.6,-5.5 -6.6,-7.7 -4.5,-2.5 -5,0.5 -6.2,1.6 z"
   enable-background="new    " />
			</g>
		</g>
	</g>
	<g
   id="g216">
		<g
   id="g218">
			<g
   id="g220">
				<path
   style="opacity:0.3;fill:#646464"
   id="path222"
   d="m -3.8,11.7 c -0.8,0.9 0.5,1.3 1.3,2.1 1.2,0.7 2.6,2.3 3,3.1 0.4,0.8 3.3,1 4.6,0.9 C 6.4,17.7 7,16.5 7.2,15.3 7.6,14 4.5,11.1 1,9.7 c -3.8,-1.5 -3.9,1 -4.8,2 z"
   enable-background="new    " />
			</g>
		</g>
	</g>
	<g
   id="g224">
		<g
   id="g226">
			<g
   id="g228">
				<path
   style="opacity:0.3;fill:#646464"
   id="path230"
   d="m -4.4,14.1 c -1,1 0.5,1.4 1.4,2.4 1.3,0.8 2.8,2.6 3.2,3.5 0.4,0.9 3.6,1.2 5,1.1 C 6.6,21 7.4,19.7 7.6,18.4 8.1,16.9 4.8,13.6 1,12 c -4.3,-1.8 -4.4,1 -5.4,2.1 z"
   enable-background="new    " />
			</g>
		</g>
	</g>
	<g
   id="g232">
		<g
   id="g234">
			<g
   id="g236">
				<path
   style="opacity:0.3;fill:#646464"
   id="path238"
   d="m -4,17.2 c -0.9,1 0.6,1.5 1.6,2.4 1.3,0.7 3,2.6 3.5,3.4 0.5,0.8 3.8,1.1 5.2,0.9 C 7.7,23.7 8.5,22.4 8.7,21 9.1,19.5 5.5,16.2 1.5,14.8 -2.9,13.2 -2.9,16 -4,17.2 Z"
   enable-background="new    " />
			</g>
		</g>
	</g>
	<g
   id="g240">
		<g
   id="g242">
			<g
   id="g244">
				<path
   style="opacity:0.3;fill:#646464"
   id="path246"
   d="M 5.1,16.5 C 4.1,15.9 4,17.2 3.4,18.1 3,19.3 1.7,21 1.1,21.5 c -0.6,0.5 -0.3,3.3 0,4.4 0.3,1.1 1.6,1.5 2.8,1.5 1.3,0.1 3.5,-3.3 4,-6.8 0.7,-3.9 -1.6,-3.5 -2.8,-4.1 z"
   enable-background="new    " />
			</g>
		</g>
	</g>
	<g
   id="g248">
		<g
   id="g250">
			<g
   id="g252">
				<path
   style="opacity:0.3;fill:#646464"
   id="path254"
   d="M 5.3,20.5 C 4.6,20 4.5,21 4,21.8 3.7,22.7 2.7,24 2.3,24.4 c -0.4,0.4 -0.2,2.5 0,3.4 0.3,0.9 1.2,1.2 2.1,1.1 1,0.1 2.6,-2.5 3,-5.2 C 8,20.7 6.2,21 5.3,20.5 Z"
   enable-background="new    " />
			</g>
		</g>
	</g>
	<g
   id="g256">
		<g
   id="g258">
			<g
   id="g260">
				<path
   style="opacity:0.3;fill:#646464"
   id="path262"
   d="m 6.2,21.4 c -0.9,-1 -1.5,0.4 -2.6,1.4 -0.8,1.2 -2.9,2.8 -3.8,3.2 -0.9,0.4 -1.5,3.7 -1.4,5.2 0,1.5 1.3,2.3 2.7,2.7 1.5,0.6 5.1,-2.7 6.9,-6.7 2.2,-4.4 -0.7,-4.7 -1.8,-5.8 z"
   enable-background="new    " />
			</g>
		</g>
	</g>
	<g
   id="g264">
		<g
   id="g266">
			<g
   id="g268">
				<path
   style="opacity:0.3;fill:#646464"
   id="path270"
   d="m -3,30.7 c -0.4,1 0.8,0.8 1.8,1.2 1.1,0.1 2.8,0.9 3.4,1.4 0.6,0.4 3,-0.3 3.9,-0.9 C 7,31.8 7.2,30.7 6.9,29.7 6.8,28.5 3.3,27.3 0.1,27.5 -3.5,27.6 -2.6,29.6 -3,30.7 Z"
   enable-background="new    " />
			</g>
		</g>
	</g>
	<g
   id="g272">
		<g
   id="g274">
			<g
   id="g276">
				<path
   style="opacity:0.3;fill:#646464"
   id="path278"
   d="m 1.6,28.2 c -1,0.2 -0.3,1.1 -0.1,2.1 0.5,1 0.7,2.8 0.6,3.5 -0.1,0.7 1.7,2.2 2.6,2.7 0.9,0.5 1.9,0 2.6,-0.7 0.9,-0.7 0.2,-4.1 -1.6,-6.7 -1.8,-2.8 -3,-1.2 -4.1,-0.9 z"
   enable-background="new    " />
			</g>
		</g>
	</g>
	<g
   id="g280">
		<g
   id="g282">
			<g
   id="g284">
				<path
   style="opacity:0.3;fill:#646464"
   id="path286"
   d="m 0.9,32.5 c -0.4,1.2 1,1 2.3,1.3 1.4,0 3.5,0.9 4.3,1.4 0.8,0.5 3.6,-0.6 4.7,-1.4 1.1,-0.8 1.2,-2.1 0.7,-3.4 C 12.6,29 8.4,27.8 4.5,28.3 0.2,28.8 1.3,31.1 0.9,32.5 Z"
   enable-background="new    " />
			</g>
		</g>
	</g>
	<g
   id="g288">
		<g
   id="g290">
			<g
   id="g292">
				<path
   style="opacity:0.3;fill:#646464"
   id="path294"
   d="m 2.9,30.6 c -0.5,1.4 1.1,1.1 2.5,1.6 1.6,0.1 3.9,1.2 4.7,1.8 0.8,0.6 4,-0.5 5.3,-1.3 1.3,-0.8 1.4,-2.3 1,-3.7 -0.2,-1.6 -4.9,-3.2 -9.3,-2.9 -4.9,0.2 -3.8,3 -4.2,4.5 z"
   enable-background="new    " />
			</g>
		</g>
	</g>
	<g
   id="g296">
		<g
   id="g298">
			<g
   id="g300">
				<path
   style="opacity:0.3;fill:#646464"
   id="path302"
   d="m 11.8,22 c -1.3,-0.4 -1,1.1 -1.4,2.4 -0.1,1.5 -1,3.7 -1.6,4.5 -0.5,0.8 0.6,3.8 1.3,5 0.7,1.2 2.2,1.3 3.5,0.9 1.5,-0.2 2.9,-4.7 2.5,-8.8 -0.3,-4.7 -2.8,-3.6 -4.3,-4 z"
   enable-background="new    " />
			</g>
		</g>
	</g>
	<g
   id="g304">
		<g
   id="g306">
			<g
   id="g308">
				<path
   style="opacity:0.3;fill:#646464"
   id="path310"
   d="M 19.1,24.8 C 19,23.9 18.1,24.5 17.2,24.6 16.3,25 14.6,25 14,24.9 c -0.6,-0.1 -2.2,1.4 -2.7,2.2 -0.5,0.8 -0.2,1.7 0.5,2.5 0.6,0.9 3.8,0.5 6.2,-0.9 2.7,-1.6 1.3,-2.9 1.1,-3.9 z"
   enable-background="new    " />
			</g>
		</g>
	</g>
	<g
   id="g312">
		<g
   id="g314">
			<g
   id="g316">
				<path
   style="opacity:0.3;fill:#646464"
   id="path318"
   d="m 14.1,24.4 c -0.6,0.7 0.4,0.9 1.1,1.4 0.9,0.4 2,1.5 2.3,2 0.3,0.5 2.4,0.6 3.3,0.4 0.9,-0.2 1.3,-1 1.4,-1.9 0.2,-1 -2.1,-2.9 -4.7,-3.6 -2.9,-0.9 -2.8,0.9 -3.4,1.7 z"
   enable-background="new    " />
			</g>
		</g>
	</g>
	<g
   id="g320">
		<g
   id="g322">
			<g
   id="g324">
				<path
   style="opacity:0.3;fill:#646464"
   id="path326"
   d="m 18,19.2 c -0.9,-0.2 -0.6,0.8 -0.9,1.6 0,1 -0.5,2.5 -0.9,3 -0.3,0.5 0.5,2.5 1.1,3.2 0.5,0.8 1.5,0.7 2.4,0.4 1,-0.2 1.7,-3.2 1.3,-5.9 -0.4,-3 -2,-2.1 -3,-2.3 z"
   enable-background="new    " />
			</g>
		</g>
	</g>
	<g
   id="g328">
		<g
   id="g330">
			<g
   id="g332">
				<path
   style="opacity:0.3;fill:#646464"
   id="path334"
   d="m 13,16.2 c -1.3,0.7 0.1,1.7 0.8,2.9 1.1,1.2 2.2,3.6 2.4,4.6 0.2,1 3.5,2.4 5,2.7 1.5,0.3 2.7,-0.8 3.4,-2.2 0.9,-1.4 -1.6,-5.9 -5.2,-8.7 -4,-3.1 -5,-0.2 -6.4,0.7 z"
   enable-background="new    " />
			</g>
		</g>
	</g>
	<g
   id="g336">
		<g
   id="g338">
			<g
   id="g340">
				<path
   style="opacity:0.3;fill:#646464"
   id="path342"
   d="m 15.7,16.3 c -0.6,0.7 0.4,1 1.1,1.7 0.9,0.5 2.2,1.8 2.5,2.4 0.3,0.6 2.7,0.7 3.7,0.6 1,-0.1 1.5,-1.1 1.6,-2.1 0.3,-1.1 -2.3,-3.3 -5.2,-4.2 -3,-1.3 -3,0.7 -3.7,1.6 z"
   enable-background="new    " />
			</g>
		</g>
	</g>
	<g
   id="g344">
		<g
   id="g346">
			<g
   id="g348">
				<path
   style="opacity:0.3;fill:#646464"
   id="path350"
   d="m 24.4,9.7 c -0.6,-1.2 -1.5,0 -2.7,0.6 -1.1,1 -3.4,1.8 -4.4,2 -0.9,0.2 -2.3,3.1 -2.7,4.5 -0.4,1.4 0.6,2.5 1.9,3.2 1.2,0.9 5.5,-1.2 8.2,-4.4 3,-3.6 0.4,-4.6 -0.3,-5.9 z"
   enable-background="new    " />
			</g>
		</g>
	</g>
	<g
   id="g352">
		<g
   id="g354">
			<g
   id="g356">
				<path
   style="opacity:0.3;fill:#646464"
   id="path358"
   d="M 25,8 C 24.8,6.7 23.6,7.6 22.3,7.8 21,8.4 18.6,8.6 17.7,8.5 16.8,8.4 14.7,10.8 14,12 c -0.7,1.2 -0.1,2.5 0.9,3.5 0.9,1.2 5.4,0.3 8.8,-1.9 C 27.5,11.1 25.3,9.4 25,8 Z"
   enable-background="new    " />
			</g>
		</g>
	</g>
	<g
   id="g360">
		<g
   id="g362">
			<g
   id="g364">
				<path
   style="opacity:0.3;fill:#646464"
   id="path366"
   d="m 18.4,6.7 c -1.2,0.5 -0.1,1.5 0.3,2.7 0.8,1.2 1.5,3.5 1.5,4.4 0,0.9 2.8,2.5 4.1,3 1.3,0.5 2.5,-0.4 3.2,-1.5 C 28.5,14.2 26.8,9.9 24,7 21,3.7 19.8,6.2 18.4,6.7 Z"
   enable-background="new    " />
			</g>
		</g>
	</g>
	<g
   id="g368">
		<g
   id="g370">
			<g
   id="g372">
				<path
   style="opacity:0.3;fill:#646464"
   id="path374"
   d="m 22.1,9.2 c -0.6,0.6 0.3,0.9 0.9,1.5 0.8,0.5 1.8,1.7 2,2.2 0.3,0.5 2.3,0.8 3.2,0.7 0.9,-0.1 1.4,-0.9 1.5,-1.7 0.3,-0.9 -1.8,-3 -4.2,-4 -2.6,-1.2 -2.7,0.6 -3.4,1.3 z"
   enable-background="new    " />
			</g>
		</g>
	</g>
	<g
   id="g376">
		<g
   id="g378">
			<g
   id="g380">
				<path
   style="opacity:0.3;fill:#646464"
   id="path382"
   d="M 30.9,3.7 C 30,2.8 29.6,4.1 28.7,5 28,6.1 26.3,7.5 25.5,7.9 c -0.8,0.4 -1.2,3.3 -1.1,4.6 0.1,1.3 1.2,2 2.5,2.2 1.3,0.5 4.4,-2.6 5.8,-6 1.7,-3.9 -0.8,-4.1 -1.8,-5 z"
   enable-background="new    " />
			</g>
		</g>
	</g>
	<g
   id="g384">
		<g
   id="g386">
			<g
   id="g388">
				<path
   style="opacity:0.3;fill:#646464"
   id="path390"
   d="M 34.4,1.8 C 33.6,0.8 33,2.1 31.9,3 31,4.1 29,5.4 28.1,5.8 c -0.9,0.4 -1.6,3.5 -1.7,4.9 0,1.4 1.1,2.3 2.5,2.7 1.4,0.6 5.1,-2.3 7,-5.9 C 38.1,3.4 35.4,3 34.4,1.8 Z"
   enable-background="new    " />
			</g>
		</g>
	</g>
	<g
   id="g392">
		<g
   id="g394">
			<g
   id="g396">
				<path
   style="opacity:0.3;fill:#646464"
   id="path398"
   d="M 35.3,-0.5 C 34.4,-1.4 34,0 33.1,0.9 c -0.7,1.2 -2.4,2.7 -3.2,3.2 -0.8,0.5 -1,3.5 -0.9,4.8 0.1,1.3 1.4,2 2.7,2.2 1.4,0.4 4.4,-2.9 5.7,-6.5 1.5,-4.2 -1.1,-4.2 -2.1,-5.1 z"
   enable-background="new    " />
			</g>
		</g>
	</g>
	<g
   id="g400">
		<g
   id="g402">
			<g
   id="g404">
				<path
   style="opacity:0.3;fill:#646464"
   id="path406"
   d="m 28.7,1.7 c -0.5,1 0.7,1 1.7,1.6 1.2,0.3 2.9,1.4 3.4,2 0.5,0.6 3.2,0.1 4.3,-0.3 1.1,-0.4 1.4,-1.6 1.3,-2.8 0,-1.3 -3.4,-3.1 -6.9,-3.4 -3.8,-0.5 -3.2,1.8 -3.8,2.9 z"
   enable-background="new    " />
			</g>
		</g>
	</g>
	<g
   id="g408">
		<g
   id="g410">
			<g
   id="g412">
				<path
   style="opacity:0.3;fill:#646464"
   id="path414"
   d="m 37.5,-5.1 c -0.6,-0.8 -1.1,0.2 -2,0.8 -0.7,0.9 -2.3,1.8 -3,2.1 -0.7,0.2 -1.3,2.6 -1.4,3.7 0,1 0.9,1.7 1.9,2.1 1,0.5 3.9,-1.7 5.5,-4.4 1.8,-3 -0.3,-3.4 -1,-4.3 z"
   enable-background="new    " />
			</g>
		</g>
	</g>
	<g
   id="g416">
		<g
   id="g418">
			<g
   id="g420">
				<path
   style="opacity:0.3;fill:#646464"
   id="path422"
   d="m 29.3,-6.2 c -0.9,0.4 0,1.2 0.4,2.1 0.7,0.9 1.3,2.7 1.5,3.4 0.2,0.7 2.3,1.9 3.4,2.2 1.1,0.3 1.9,-0.4 2.5,-1.4 0.7,-0.9 -0.8,-4.2 -3.2,-6.4 -2.7,-2.5 -3.5,-0.5 -4.6,0.1 z"
   enable-background="new    " />
			</g>
		</g>
	</g>
	<g
   id="g424">
		<g
   id="g426">
			<g
   id="g428">
				<path
   style="opacity:0.3;fill:#646464"
   id="path430"
   d="m 27.8,-8 c -0.9,0.2 -0.2,1 0,1.8 0.5,0.9 0.7,2.5 0.7,3.1 0,0.6 1.7,1.9 2.5,2.3 0.8,0.4 1.7,-0.1 2.3,-0.8 0.8,-0.7 0,-3.7 -1.7,-5.9 -1.8,-2.4 -2.8,-0.8 -3.8,-0.5 z"
   enable-background="new    " />
			</g>
		</g>
	</g>
	<g
   id="g432">
		<g
   id="g434">
			<g
   id="g436">
				<path
   style="opacity:0.3;fill:#646464"
   id="path438"
   d="m 34.6,-9.6 c -0.1,-1.4 -1.5,-0.6 -2.9,-0.4 -1.5,0.5 -4.1,0.5 -5.1,0.3 -1,-0.2 -3.5,2.1 -4.3,3.4 -0.8,1.3 -0.3,2.7 0.6,3.8 0.8,1.4 5.8,0.9 9.7,-1.2 4.4,-2.3 2.2,-4.3 2,-5.9 z"
   enable-background="new    " />
			</g>
		</g>
	</g>
	<g
   id="g440">
		<g
   id="g442">
			<g
   id="g444">
				<path
   style="opacity:0.3;fill:#646464"
   id="path446"
   d="m 34,-11.6 c -0.6,-0.8 -1.1,0.2 -2,0.9 -0.7,0.9 -2.3,1.9 -3,2.2 -0.7,0.3 -1.3,2.7 -1.3,3.8 0,1.1 0.9,1.8 1.9,2.1 1.1,0.5 3.9,-1.8 5.5,-4.6 1.7,-3.2 -0.4,-3.5 -1.1,-4.4 z"
   enable-background="new    " />
			</g>
		</g>
	</g>
	<g
   id="g448">
		<g
   id="g450">
			<g
   id="g452">
				<path
   style="opacity:0.3;fill:#646464"
   id="path454"
   d="m 27.6,-11 c -1.1,1.1 0.5,1.7 1.6,2.8 1.5,1 3.2,3.2 3.7,4.2 0.5,1 4.2,1.5 5.9,1.4 1.6,-0.1 2.6,-1.5 2.9,-3.1 0.6,-1.7 -3.2,-5.6 -7.6,-7.5 -5,-2.3 -5.2,1 -6.5,2.2 z"
   enable-background="new    " />
			</g>
		</g>
	</g>
	<g
   id="g456">
		<g
   id="g458">
			<g
   id="g460">
				<path
   style="opacity:0.3;fill:#646464"
   id="path462"
   d="m 43,-13.4 c -0.5,-1.4 -1.7,-0.2 -3.1,0.3 -1.4,0.9 -4,1.6 -5.1,1.7 -1.1,0.1 -3,3.1 -3.5,4.6 -0.5,1.5 0.5,2.9 1.7,3.8 1.2,1.2 6.2,-0.7 9.6,-3.9 3.8,-3.5 1.1,-4.9 0.4,-6.5 z"
   enable-background="new    " />
			</g>
		</g>
	</g>
	<g
   id="g464">
		<g
   id="g466">
			<g
   id="g468">
				<path
   style="opacity:0.3;fill:#646464"
   id="path470"
   d="m 32,-6.8 c -0.5,1.3 1.1,1.2 2.4,1.7 1.6,0.1 3.9,1.2 4.7,1.9 0.8,0.7 4,-0.4 5.4,-1.1 1.3,-0.7 1.5,-2.3 1.1,-3.7 -0.2,-1.6 -4.8,-3.3 -9.2,-3.1 -4.9,0 -3.9,2.8 -4.4,4.3 z"
   enable-background="new    " />
			</g>
		</g>
	</g>
	<g
   id="g472">
		<g
   id="g474">
			<g
   id="g476">
				<path
   style="opacity:0.3;fill:#646464"
   id="path478"
   d="m 31.2,-6.3 c -1,1.1 0.6,1.5 1.7,2.5 1.4,0.7 3.3,2.7 3.8,3.5 0.6,0.9 4.1,1.1 5.6,0.8 1.5,-0.2 2.2,-1.7 2.4,-3.2 0.4,-1.6 -3.5,-5 -7.8,-6.4 -4.7,-1.5 -4.6,1.5 -5.7,2.8 z"
   enable-background="new    " />
			</g>
		</g>
	</g>
	<g
   id="g480">
		<g
   id="g482">
			<g
   id="g484">
				<path
   style="opacity:0.3;fill:#646464"
   id="path486"
   d="m 40.7,-6.9 c -0.9,-1 -1.5,0.4 -2.5,1.3 -0.9,1.2 -2.9,2.6 -3.7,3 -0.9,0.4 -1.5,3.6 -1.5,5 0,1.4 1.2,2.3 2.6,2.6 1.4,0.6 5,-2.5 6.8,-6.3 2.1,-4.1 -0.7,-4.5 -1.7,-5.6 z"
   enable-background="new    " />
			</g>
		</g>
	</g>
	<g
   id="g488">
		<g
   id="g490">
			<g
   id="g492">
				<path
   style="opacity:0.3;fill:#646464"
   id="path494"
   d="m 36.2,-1.9 c -0.9,0 -0.5,0.9 -0.5,1.8 0.2,1 0.1,2.6 -0.1,3.3 -0.2,0.6 1.2,2.4 1.9,3 0.7,0.6 1.7,0.4 2.5,-0.2 0.9,-0.5 0.9,-3.7 -0.2,-6.3 -1.1,-2.9 -2.6,-1.6 -3.6,-1.6 z"
   enable-background="new    " />
			</g>
		</g>
	</g>
	<g
   id="g496">
		<g
   id="g498">
			<g
   id="g500">
				<path
   style="opacity:0.3;fill:#646464"
   id="path502"
   d="M 37.5,-0.4 C 36.7,-1 36.5,0.1 36,0.8 35.6,1.8 34.4,3 33.9,3.4 33.4,3.8 33.4,6.1 33.6,7 c 0.2,0.9 1.2,1.4 2.2,1.4 1,0.2 3.1,-2.5 3.7,-5.3 0.9,-3 -1.1,-2.9 -2,-3.5 z"
   enable-background="new    " />
			</g>
		</g>
	</g>
	<g
   id="g504">
		<g
   id="g506">
			<g
   id="g508">
				<path
   style="opacity:0.3;fill:#646464"
   id="path510"
   d="m 29.7,2.9 c -0.6,0.5 0.2,0.9 0.8,1.5 0.7,0.5 1.6,1.7 1.9,2.3 0.2,0.5 2.2,0.9 3.1,0.9 0.9,0 1.4,-0.8 1.6,-1.6 C 37.5,5.1 35.5,2.9 33.2,1.8 30.6,0.6 30.4,2.3 29.7,2.9 Z"
   enable-background="new    " />
			</g>
		</g>
	</g>
	<g
   id="g512">
		<g
   id="g514">
			<g
   id="g516">
				<path
   style="opacity:0.3;fill:#646464"
   id="path518"
   d="m 37,-3.4 c -0.8,-1.2 -1.6,0.2 -2.8,1.1 -1,1.2 -3.3,2.5 -4.3,2.8 -1,0.3 -1.9,3.5 -2.1,5 -0.2,1.5 1,2.5 2.4,3.1 1.4,0.8 5.6,-2.1 7.9,-5.9 C 40.9,-1.5 38,-2.2 37,-3.4 Z"
   enable-background="new    " />
			</g>
		</g>
	</g>
	<g
   id="g520">
		<g
   id="g522">
			<g
   id="g524">
				<path
   style="opacity:0.3;fill:#646464"
   id="path526"
   d="m 39.4,-2.8 c 0,-1.2 -1.2,-0.6 -2.3,-0.6 -1.2,0.3 -3.3,0.1 -4.1,-0.1 -0.8,-0.2 -3,1.5 -3.8,2.5 -0.8,1 -0.5,2.2 0.2,3.2 0.6,1.2 4.7,1.1 8,-0.3 3.7,-1.6 2.1,-3.4 2,-4.7 z"
   enable-background="new    " />
			</g>
		</g>
	</g>
	<g
   id="g528">
		<g
   id="g530">
			<g
   id="g532">
				<path
   style="opacity:0.3;fill:#646464"
   id="path534"
   d="M 39.5,0.9 C 39.7,0.1 38.8,0.3 37.9,0.1 37,0.1 35.5,-0.4 34.9,-0.7 34.3,-1 32.5,-0.2 31.7,0.4 30.9,1 31,1.8 31.3,2.6 c 0.2,0.9 3.2,1.7 5.8,1.2 3,-0.3 2.1,-1.9 2.4,-2.9 z"
   enable-background="new    " />
			</g>
		</g>
	</g>
	<g
   id="g536">
		<g
   id="g538">
			<g
   id="g540">
				<path
   style="opacity:0.3;fill:#646464"
   id="path542"
   d="m 31.7,3.4 c -0.6,0.8 0.5,1 1.3,1.6 1,0.4 2.3,1.7 2.7,2.2 0.4,0.6 2.8,0.5 3.8,0.3 C 40.5,7.3 41,6.3 41,5.2 41.2,4.1 38.4,2 35.4,1.2 32.2,0.4 32.3,2.5 31.7,3.4 Z"
   enable-background="new    " />
			</g>
		</g>
	</g>
	<g
   id="g544">
		<g
   id="g546">
			<g
   id="g548">
				<path
   style="opacity:0.3;fill:#646464"
   id="path550"
   d="M 38.4,3.5 C 37.7,3 37.6,4 37.2,4.6 36.9,5.5 35.9,6.6 35.5,7 35,7.4 35.2,9.4 35.4,10.2 c 0.2,0.8 1.1,1.1 2,1.1 0.9,0.1 2.5,-2.3 3,-4.8 0.5,-2.8 -1.2,-2.5 -2,-3 z"
   enable-background="new    " />
			</g>
		</g>
	</g>
	<g
   id="g552">
		<g
   id="g554">
			<g
   id="g556">
				<path
   style="opacity:0.3;fill:#646464"
   id="path558"
   d="M 40.1,5.9 C 39.4,5.4 39.2,6.4 38.7,7.1 38.4,8 37.4,9.2 36.9,9.6 36.4,10 36.6,12.1 36.8,13 c 0.2,0.9 1.2,1.2 2.1,1.2 1,0.1 2.7,-2.5 3.2,-5.1 0.7,-2.9 -1.1,-2.6 -2,-3.2 z"
   enable-background="new    " />
			</g>
		</g>
	</g>
	<g
   id="g560">
		<g
   id="g562">
			<g
   id="g564">
				<path
   style="opacity:0.3;fill:#646464"
   id="path566"
   d="m 44,11.2 c 0,-1.1 -1.1,-0.6 -2.2,-0.6 -1.2,0.2 -3.2,0 -3.9,-0.3 -0.7,-0.3 -2.9,1.3 -3.7,2.2 -0.8,0.9 -0.5,2.1 0.1,3 0.5,1.1 4.4,1.3 7.6,0.1 3.6,-1.4 2.1,-3.1 2.1,-4.4 z"
   enable-background="new    " />
			</g>
		</g>
	</g>
	<g
   id="g568">
		<g
   id="g570">
			<g
   id="g572">
				<path
   style="opacity:0.3;fill:#646464"
   id="path574"
   d="m 33.8,14.6 c -0.6,0.7 0.4,1 1.1,1.6 0.9,0.5 2,1.8 2.4,2.4 0.4,0.6 2.6,0.8 3.6,0.7 1,-0.1 1.5,-1 1.6,-2 0.3,-1 -2.1,-3.3 -4.9,-4.3 -3.1,-1.2 -3.1,0.8 -3.8,1.6 z"
   enable-background="new    " />
			</g>
		</g>
	</g>
	<g
   id="g576">
		<g
   id="g578">
			<g
   id="g580">
				<path
   style="opacity:0.3;fill:#646464"
   id="path582"
   d="m 36.4,11.8 c -1.5,-0.5 -1.2,1.2 -1.6,2.7 -0.1,1.7 -1.2,4.2 -1.8,5.1 -0.6,0.9 0.7,4.3 1.6,5.7 0.9,1.4 2.5,1.4 4,1 1.7,-0.3 3.3,-5.4 2.8,-10.1 -0.5,-5.2 -3.3,-3.9 -5,-4.4 z"
   enable-background="new    " />
			</g>
		</g>
	</g>
	<g
   id="g584">
		<g
   id="g586">
			<g
   id="g588">
				<path
   style="opacity:0.3;fill:#646464"
   id="path590"
   d="m 40.5,13 c -0.6,-1.5 -1.8,-0.1 -3.3,0.5 -1.4,1.1 -4.3,2 -5.4,2.1 -1.2,0.1 -3,3.6 -3.6,5.2 -0.5,1.6 0.6,3.1 2,4 1.4,1.2 6.7,-1.1 10.2,-4.7 4,-4.1 0.9,-5.5 0.1,-7.1 z"
   enable-background="new    " />
			</g>
		</g>
	</g>
	<g
   id="g592">
		<g
   id="g594">
			<g
   id="g596">
				<path
   style="opacity:0.3;fill:#646464"
   id="path598"
   d="m 26.9,11.6 c -1.4,0.6 -0.1,1.8 0.5,3.2 1,1.4 1.9,4.1 2,5.2 0.1,1.1 3.4,2.9 5,3.4 1.6,0.5 2.9,-0.6 3.8,-1.9 1.1,-1.3 -1,-6.4 -4.6,-9.8 -3.7,-3.8 -5,-0.8 -6.7,-0.1 z"
   enable-background="new    " />
			</g>
		</g>
	</g>
	<g
   id="g600">
		<g
   id="g602">
			<g
   id="g604">
				<path
   style="opacity:0.3;fill:#646464"
   id="path606"
   d="m 31.7,10.1 c -0.8,-0.7 -1.2,0.4 -1.9,1.2 -0.6,1 -2.1,2.4 -2.7,2.7 -0.7,0.4 -0.9,3 -0.8,4.1 0.1,1.1 1.2,1.7 2.3,1.9 1.2,0.3 3.8,-2.5 4.9,-5.6 1.4,-3.5 -0.9,-3.5 -1.8,-4.3 z"
   enable-background="new    " />
			</g>
		</g>
	</g>
	<g
   id="g608">
		<g
   id="g610">
			<g
   id="g612">
				<path
   style="opacity:0.3;fill:#646464"
   id="path614"
   d="m 32.5,10.2 c -0.4,-1.5 -1.7,-0.3 -3.1,0.1 -1.4,0.8 -4.1,1.3 -5.2,1.3 -1.1,0 -3.2,2.9 -3.9,4.4 -0.7,1.5 0.2,2.9 1.4,3.9 1.1,1.3 6.3,-0.2 9.9,-3.1 4.1,-3.3 1.4,-5 0.9,-6.6 z"
   enable-background="new    " />
			</g>
		</g>
	</g>
	<g
   id="g616">
		<g
   id="g618">
			<g
   id="g620">
				<path
   style="opacity:0.3;fill:#646464"
   id="path622"
   d="m 29.1,12.4 c 0,-1.2 -1.3,-0.6 -2.5,-0.6 -1.3,0.4 -3.5,0.2 -4.4,0 -0.8,-0.2 -3.1,1.6 -3.9,2.6 -0.8,1 -0.5,2.3 0.3,3.3 0.6,1.2 5,1.1 8.4,-0.5 3.9,-1.6 2.2,-3.4 2.1,-4.8 z"
   enable-background="new    " />
			</g>
		</g>
	</g>
	<g
   id="g624">
		<g
   id="g626">
			<g
   id="g628">
				<path
   style="opacity:0.3;fill:#646464"
   id="path630"
   d="m 27.6,15 c -0.1,-1.2 -1.3,-0.5 -2.5,-0.4 -1.2,0.4 -3.4,0.4 -4.3,0.3 -0.8,-0.2 -2.9,1.8 -3.7,2.9 -0.7,1 -0.3,2.3 0.5,3.2 0.7,1.1 4.9,0.7 8.2,-1 3.8,-1.9 2,-3.6 1.8,-5 z"
   enable-background="new    " />
			</g>
		</g>
	</g>
	<g
   id="g632">
		<g
   id="g634">
			<g
   id="g636">
				<path
   style="opacity:0.3;fill:#646464"
   id="path638"
   d="m 21.4,15.1 c -0.9,0 -0.5,0.9 -0.5,1.8 0.2,1 0.1,2.6 -0.1,3.2 -0.2,0.6 1.1,2.4 1.9,3 0.8,0.6 1.7,0.4 2.5,-0.1 0.9,-0.5 1,-3.7 -0.1,-6.3 -1.2,-2.8 -2.6,-1.6 -3.7,-1.6 z"
   enable-background="new    " />
			</g>
		</g>
	</g>
	<g
   id="g640">
		<g
   id="g642">
			<g
   id="g644">
				<path
   style="opacity:0.3;fill:#646464"
   id="path646"
   d="m 18.4,17.8 c -0.8,1.4 1,1.5 2.5,2.3 1.7,0.5 4.2,2.1 5,3 0.8,0.8 4.7,0.2 6.3,-0.4 1.6,-0.6 2.1,-2.3 1.9,-4 0.1,-1.8 -4.9,-4.6 -9.9,-5.1 -5.7,-0.7 -5,2.6 -5.8,4.2 z"
   enable-background="new    " />
			</g>
		</g>
	</g>
	<g
   id="g648">
		<g
   id="g650">
			<g
   id="g652">
				<path
   style="opacity:0.3;fill:#646464"
   id="path654"
   d="m 32.3,14.9 c -0.4,-0.8 -1,0 -1.8,0.3 -0.8,0.6 -2.3,1.1 -2.9,1.2 -0.6,0.1 -1.6,2 -1.9,2.9 -0.3,0.9 0.4,1.7 1.1,2.1 0.8,0.6 3.6,-0.7 5.5,-2.7 2.1,-2.2 0.4,-2.9 0,-3.8 z"
   enable-background="new    " />
			</g>
		</g>
	</g>
	<g
   id="g656">
		<g
   id="g658">
			<g
   id="g660">
				<path
   style="opacity:0.3;fill:#646464"
   id="path662"
   d="m 25.4,18.9 c -0.6,1.1 0.8,1.2 2,1.7 1.3,0.3 3.3,1.6 3.9,2.2 0.6,0.6 3.6,0.1 4.9,-0.4 1.3,-0.5 1.6,-1.8 1.4,-3.1 0,-1.4 -3.9,-3.5 -7.8,-3.8 -4.5,-0.4 -3.8,2.1 -4.4,3.4 z"
   enable-background="new    " />
			</g>
		</g>
	</g>
	<g
   id="g664">
		<g
   id="g666">
			<g
   id="g668">
				<path
   style="opacity:0.3;fill:#646464"
   id="path670"
   d="m 33.5,16.9 c -1,-0.6 -1,0.7 -1.6,1.6 -0.3,1.2 -1.5,2.8 -2.1,3.3 -0.6,0.5 -0.2,3.2 0.2,4.3 0.4,1.1 1.6,1.4 2.7,1.4 1.2,0.1 3.2,-3.3 3.6,-6.7 0.5,-3.7 -1.7,-3.3 -2.8,-3.9 z"
   enable-background="new    " />
			</g>
		</g>
	</g>
	<g
   id="g672">
		<g
   id="g674">
			<g
   id="g676">
				<path
   style="opacity:0.3;fill:#646464"
   id="path678"
   d="m 38.9,20.4 c -0.5,-1.3 -1.6,-0.1 -2.8,0.4 -1.2,0.9 -3.6,1.6 -4.6,1.7 -1,0.1 -2.7,3 -3.1,4.3 -0.5,1.4 0.4,2.6 1.6,3.4 1.2,1 5.7,-0.8 8.7,-3.8 3.4,-3.3 0.8,-4.6 0.2,-6 z"
   enable-background="new    " />
			</g>
		</g>
	</g>
	<g
   id="g680">
		<g
   id="g682">
			<g
   id="g684">
				<path
   style="opacity:0.3;fill:#646464"
   id="path686"
   d="m 27.9,18.8 c -1.4,0.3 -0.3,1.6 0,3 0.7,1.4 1.1,3.9 1.1,4.9 -0.1,1 2.6,3.1 4,3.8 1.3,0.7 2.7,-0.1 3.7,-1.2 1.2,-1 0,-5.9 -2.6,-9.4 -3,-4 -4.6,-1.6 -6.2,-1.1 z"
   enable-background="new    " />
			</g>
		</g>
	</g>
	<g
   id="g688">
		<g
   id="g690">
			<g
   id="g692">
				<path
   style="opacity:0.3;fill:#646464"
   id="path694"
   d="m 31.8,17.2 c -1.1,-1.1 -1.7,0.6 -2.8,1.7 -0.9,1.5 -3.1,3.3 -4.1,3.9 -1,0.5 -1.4,4.3 -1.3,5.9 0.1,1.6 1.6,2.5 3.3,2.8 1.7,0.5 5.6,-3.4 7.4,-7.9 2.1,-5.1 -1.2,-5.2 -2.5,-6.4 z"
   enable-background="new    " />
			</g>
		</g>
	</g>
	<g
   id="g696">
		<g
   id="g698">
			<g
   id="g700">
				<path
   style="opacity:0.3;fill:#646464"
   id="path702"
   d="m 29.8,22.5 c -0.1,-0.9 -1,-0.4 -1.9,-0.3 -1,0.3 -2.7,0.3 -3.3,0.2 -0.7,-0.1 -2.3,1.4 -2.8,2.2 -0.6,0.8 -0.2,1.8 0.4,2.5 0.6,0.9 3.8,0.6 6.4,-0.8 2.8,-1.5 1.4,-2.8 1.2,-3.8 z"
   enable-background="new    " />
			</g>
		</g>
	</g>
	<g
   id="g704">
		<g
   id="g706">
			<g
   id="g708">
				<path
   style="opacity:0.3;fill:#646464"
   id="path710"
   d="m 16.5,24.9 c -0.8,1.4 0.9,1.5 2.3,2.4 1.7,0.5 3.9,2.3 4.7,3.1 0.7,0.8 4.5,0.4 6.1,-0.1 1.6,-0.5 2.1,-2.2 2,-3.8 0.2,-1.8 -4.6,-4.7 -9.4,-5.5 -5.4,-0.9 -4.8,2.3 -5.7,3.9 z"
   enable-background="new    " />
			</g>
		</g>
	</g>
	<g
   id="g712">
		<g
   id="g714">
			<g
   id="g716">
				<path
   style="opacity:0.3;fill:#646464"
   id="path718"
   d="M 25.1,23.1 C 24,22.5 24,23.9 23.4,25 c -0.3,1.3 -1.6,3.2 -2.2,3.9 -0.6,0.6 -0.1,3.6 0.4,4.8 0.5,1.2 1.8,1.6 3.1,1.4 1.4,0 3.5,-3.8 3.9,-7.7 0.3,-4.3 -2.2,-3.7 -3.5,-4.3 z"
   enable-background="new    " />
			</g>
		</g>
	</g>
	<g
   id="g720">
		<g
   id="g722">
			<g
   id="g724">
				<path
   style="opacity:0.3;fill:#646464"
   id="path726"
   d="m 26.6,25.2 c -1.2,-0.9 -1.5,0.8 -2.3,2 -0.6,1.5 -2.3,3.6 -3.2,4.2 -0.8,0.7 -0.6,4.2 -0.2,5.7 0.4,1.5 1.9,2.1 3.5,2.1 1.7,0.2 4.6,-4 5.6,-8.5 1,-4.9 -2,-4.5 -3.4,-5.5 z"
   enable-background="new    " />
			</g>
		</g>
	</g>
	<g
   id="g728">
		<g
   id="g730">
			<g
   id="g732">
				<path
   style="opacity:0.3;fill:#646464"
   id="path734"
   d="m 20.2,32.1 c -1,1.2 0.7,1.6 1.9,2.6 1.5,0.8 3.5,2.8 4.1,3.7 0.6,0.9 4.3,1.1 5.9,0.8 1.6,-0.3 2.4,-1.8 2.5,-3.4 0.4,-1.7 -3.8,-5.2 -8.3,-6.6 -5.1,-1.7 -5,1.5 -6.1,2.9 z"
   enable-background="new    " />
			</g>
		</g>
	</g>
	<g
   id="g736">
		<g
   id="g738">
			<g
   id="g740">
				<path
   style="opacity:0.3;fill:#646464"
   id="path742"
   d="m 35.2,32 c -0.4,-1.3 -1.5,-0.3 -2.8,0 -1.3,0.7 -3.8,1.1 -4.7,1.1 -1,0 -2.9,2.6 -3.6,3.9 -0.7,1.3 0.1,2.6 1.2,3.5 1,1.1 5.7,-0.1 9,-2.7 C 38,35 35.7,33.5 35.2,32 Z"
   enable-background="new    " />
			</g>
		</g>
	</g>
	<g
   id="g744">
		<g
   id="g746">
			<g
   id="g748">
				<path
   style="opacity:0.3;fill:#646464"
   id="path750"
   d="m 27.3,34.6 c -0.8,0.9 0.5,1.3 1.5,2.1 1.2,0.6 2.7,2.2 3.2,2.9 0.5,0.7 3.4,0.9 4.7,0.7 1.3,-0.2 1.9,-1.4 2,-2.7 0.3,-1.3 -2.9,-4.1 -6.5,-5.3 -4,-1.3 -4,1.2 -4.9,2.3 z"
   enable-background="new    " />
			</g>
		</g>
	</g>
	<g
   id="g752">
		<g
   id="g754">
			<g
   id="g756">
				<path
   style="opacity:0.3;fill:#646464"
   id="path758"
   d="m 31,35.4 c -0.5,0.9 0.7,1 1.6,1.5 1.1,0.3 2.7,1.4 3.2,2 0.5,0.6 3,0.2 4.1,-0.2 1,-0.4 1.4,-1.5 1.3,-2.6 0.1,-1.2 -3.1,-3.1 -6.4,-3.5 -3.7,-0.4 -3.2,1.8 -3.8,2.8 z"
   enable-background="new    " />
			</g>
		</g>
	</g>
	<g
   id="g760">
		<g
   id="g762">
			<g
   id="g764">
				<path
   style="opacity:0.3;fill:#646464"
   id="path766"
   d="m 42.4,31.3 c -0.6,-1.1 -1.4,0 -2.5,0.6 -1,0.9 -3.1,1.7 -4,1.9 -0.9,0.2 -2.1,2.8 -2.4,4.1 -0.3,1.3 0.6,2.3 1.7,2.9 1.1,0.8 5,-1.1 7.5,-4.1 2.8,-3.2 0.4,-4.1 -0.3,-5.4 z"
   enable-background="new    " />
			</g>
		</g>
	</g>
	<g
   id="g768">
		<g
   id="g770">
			<g
   id="g772">
				<path
   style="opacity:0.3;fill:#646464"
   id="path774"
   d="m 35.5,30.5 c -1.4,-0.5 -1.2,1.2 -1.7,2.6 -0.1,1.6 -1.3,4.1 -1.9,5 -0.6,0.9 0.6,4.3 1.4,5.6 0.8,1.4 2.5,1.5 4,1.1 1.7,-0.2 3.4,-5.2 3,-9.9 -0.4,-5.1 -3.2,-3.9 -4.8,-4.4 z"
   enable-background="new    " />
			</g>
		</g>
	</g>
	<g
   id="g776">
		<g
   id="g778">
			<g
   id="g780">
				<path
   style="opacity:0.3;fill:#646464"
   id="path782"
   d="m 26.4,38.2 c -0.9,1.2 0.8,1.5 2,2.3 1.5,0.6 3.6,2.3 4.2,3.2 0.7,0.8 4.2,0.6 5.7,0.2 1.5,-0.4 2.1,-1.9 2.1,-3.5 0.2,-1.7 -4.1,-4.7 -8.6,-5.6 -4.9,-1.1 -4.5,2 -5.4,3.4 z"
   enable-background="new    " />
			</g>
		</g>
	</g>
	<g
   id="g784">
		<g
   id="g786">
			<g
   id="g788">
				<path
   style="opacity:0.3;fill:#646464"
   id="path790"
   d="m 29.9,35.9 c -0.9,-0.2 -0.7,0.8 -0.9,1.7 0,1 -0.5,2.6 -0.9,3.1 -0.3,0.6 0.6,2.6 1.1,3.3 0.6,0.8 1.6,0.8 2.5,0.4 1,-0.2 1.8,-3.4 1.3,-6.2 -0.4,-3 -2.1,-2.1 -3.1,-2.3 z"
   enable-background="new    " />
			</g>
		</g>
	</g>
	<g
   id="g792">
		<g
   id="g794">
			<g
   id="g796">
				<path
   style="opacity:0.3;fill:#646464"
   id="path798"
   d="m 25.1,35.7 c -0.9,0.2 -0.3,1 -0.2,1.9 0.4,0.9 0.5,2.6 0.4,3.3 -0.1,0.7 1.6,2.2 2.4,2.7 0.8,0.5 1.8,0.1 2.5,-0.6 0.9,-0.6 0.3,-3.9 -1.2,-6.3 -1.6,-2.7 -2.8,-1.2 -3.9,-1 z"
   enable-background="new    " />
			</g>
		</g>
	</g>
	<g
   id="g800">
		<g
   id="g802">
			<g
   id="g804">
				<path
   style="opacity:0.3;fill:#646464"
   id="path806"
   d="m 21.8,32.1 c -1.4,0 -0.7,1.4 -0.6,2.8 0.4,1.5 0.3,4 0,4.9 -0.3,1 1.9,3.5 3,4.4 1.1,0.9 2.6,0.5 3.8,-0.4 1.4,-0.7 1.2,-5.6 -0.6,-9.5 -1.9,-4.3 -4,-2.3 -5.6,-2.2 z"
   enable-background="new    " />
			</g>
		</g>
	</g>
	<g
   id="g808">
		<g
   id="g810">
			<g
   id="g812">
				<path
   style="opacity:0.3;fill:#646464"
   id="path814"
   d="m 17.9,30.5 c -1.5,0.2 -0.5,1.6 -0.3,3.2 0.7,1.5 0.8,4.3 0.7,5.4 -0.1,1.1 2.5,3.6 3.9,4.4 1.4,0.8 2.9,0.2 4.1,-0.9 1.4,-1 0.5,-6.3 -2,-10.3 -2.7,-4.6 -4.7,-2.2 -6.4,-1.8 z"
   enable-background="new    " />
			</g>
		</g>
	</g>
	<g
   id="g816">
		<g
   id="g818">
			<g
   id="g820">
				<path
   style="opacity:0.3;fill:#646464"
   id="path822"
   d="m 22.7,30.9 c -0.5,-1 -1.3,0 -2.3,0.5 -0.9,0.8 -2.9,1.5 -3.7,1.7 -0.8,0.1 -2,2.6 -2.2,3.8 -0.2,1.2 0.5,2.1 1.6,2.7 1,0.8 4.6,-1 6.9,-3.7 2.5,-3 0.3,-3.9 -0.3,-5 z"
   enable-background="new    " />
			</g>
		</g>
	</g>
	<g
   id="g824">
		<g
   id="g826">
			<g
   id="g828">
				<path
   style="opacity:0.3;fill:#646464"
   id="path830"
   d="m 22.6,31.5 c 0.2,-1.3 -1.2,-0.8 -2.5,-1 -1.4,0.2 -3.7,-0.3 -4.6,-0.7 C 14.7,29.4 12,31 11,32 c -1,1 -0.8,2.3 -0.2,3.5 0.5,1.4 5,1.9 8.9,0.8 4.3,-1.1 2.8,-3.3 2.9,-4.8 z"
   enable-background="new    " />
			</g>
		</g>
	</g>
	<g
   id="g832">
		<g
   id="g834">
			<g
   id="g836">
				<path
   style="opacity:0.3;fill:#646464"
   id="path838"
   d="m 11,28.5 c -1,0.2 -0.3,1.1 -0.1,2 0.5,1 0.7,2.8 0.6,3.5 -0.1,0.7 1.8,2.2 2.7,2.7 0.9,0.5 1.9,0 2.6,-0.7 0.9,-0.7 0.1,-4.1 -1.6,-6.6 -1.9,-2.9 -3.1,-1.2 -4.2,-0.9 z"
   enable-background="new    " />
			</g>
		</g>
	</g>
	<g
   id="g840">
		<g
   id="g842">
			<g
   id="g844">
				<path
   style="opacity:0.3;fill:#646464"
   id="path846"
   d="m 5.2,28 c -1.4,0.6 -0.1,1.7 0.6,3.2 1,1.3 1.9,4 2.1,5.1 0.1,1.1 3.4,2.8 5,3.3 1.6,0.5 2.9,-0.6 3.7,-2 C 17.7,36.3 15.5,31.3 12,28 8.1,24.3 6.8,27.2 5.2,28 Z"
   enable-background="new    " />
			</g>
		</g>
	</g>
	<g
   id="g848">
		<g
   id="g850">
			<g
   id="g852">
				<path
   style="opacity:0.3;fill:#646464"
   id="path854"
   d="m 3.3,31.3 c -0.8,0.6 0.2,1.1 0.8,2 0.9,0.7 1.9,2.3 2.1,3 0.2,0.7 2.7,1.3 3.8,1.4 1.1,0.1 1.8,-0.8 2.1,-1.8 0.5,-1 -1.7,-4 -4.5,-5.6 -3,-1.9 -3.4,0.2 -4.3,1 z"
   enable-background="new    " />
			</g>
		</g>
	</g>
	<g
   id="g856">
		<g
   id="g858">
			<g
   id="g860">
				<path
   style="opacity:0.3;fill:#646464"
   id="path862"
   d="m 0.7,28.6 c -1.6,0.3 -0.5,1.7 -0.3,3.3 0.7,1.6 0.9,4.6 0.8,5.7 -0.1,1.1 2.7,3.8 4.2,4.6 1.5,0.8 3.1,0.2 4.3,-1 1.5,-1.1 0.5,-6.7 -2.2,-10.9 -3,-4.7 -5,-2 -6.8,-1.7 z"
   enable-background="new    " />
			</g>
		</g>
	</g>
	<g
   id="g864">
		<g
   id="g866">
			<g
   id="g868">
				<path
   style="opacity:0.3;fill:#646464"
   id="path870"
   d="m -4.8,38.4 c -0.4,1.5 1.3,1.2 2.8,1.6 1.7,0 4.3,1 5.2,1.6 0.9,0.6 4.3,-0.8 5.7,-1.7 C 10.3,39 10.3,37.3 9.8,35.8 9.4,34 4.2,32.6 -0.5,33.2 c -5.3,0.6 -3.9,3.5 -4.3,5.2 z"
   enable-background="new    " />
			</g>
		</g>
	</g>
	<g
   id="g872">
		<g
   id="g874">
			<g
   id="g876">
				<path
   style="opacity:0.3;fill:#646464"
   id="path878"
   d="m 1.8,33.1 c -1.1,-0.8 -1.3,0.7 -2.1,1.7 -0.6,1.3 -2.2,3.1 -2.9,3.6 -0.7,0.5 -0.7,3.7 -0.4,5 0.3,1.3 1.6,1.9 3,1.9 C 0.8,45.6 3.6,42 4.5,38 5.7,33.7 3,33.9 1.8,33.1 Z"
   enable-background="new    " />
			</g>
		</g>
	</g>
	<g
   id="g880">
		<g
   id="g882">
			<g
   id="g884">
				<path
   style="opacity:0.3;fill:#646464"
   id="path886"
   d="m 0.5,34.4 c -0.4,-0.9 -1.1,0 -1.9,0.4 -0.8,0.7 -2.4,1.3 -3.1,1.4 -0.7,0.1 -1.7,2.1 -1.9,3.1 -0.3,1 0.4,1.8 1.3,2.3 0.8,0.7 3.9,-0.8 5.8,-3 2.1,-2.5 0.2,-3.3 -0.2,-4.2 z"
   enable-background="new    " />
			</g>
		</g>
	</g>
	<g
   id="g888">
		<g
   id="g890">
			<g
   id="g892">
				<path
   style="opacity:0.3;fill:#646464"
   id="path894"
   d="m -4.7,31.5 c -0.9,-0.5 -1,0.6 -1.5,1.5 -0.3,1.1 -1.5,2.5 -2,3 -0.5,0.5 -0.3,2.9 0,3.9 0.3,1 1.4,1.4 2.4,1.3 1.1,0.1 3,-2.9 3.5,-6 0.7,-3.5 -1.4,-3.1 -2.4,-3.7 z"
   enable-background="new    " />
			</g>
		</g>
	</g>
	<g
   id="g896">
		<g
   id="g898">
			<g
   id="g900">
				<path
   style="opacity:0.3;fill:#646464"
   id="path902"
   d="m -4.1,27.3 c -1,-1 -1.5,0.5 -2.6,1.5 -0.8,1.3 -2.8,3 -3.7,3.4 -0.9,0.5 -1.4,3.9 -1.3,5.4 0.1,1.5 1.4,2.3 2.9,2.6 1.5,0.5 5.1,-3 6.8,-7.1 2,-4.5 -0.9,-4.7 -2.1,-5.8 z"
   enable-background="new    " />
			</g>
		</g>
	</g>
	<g
   id="g904">
		<g
   id="g906">
			<g
   id="g908">
				<path
   style="opacity:0.3;fill:#646464"
   id="path910"
   d="m -0.7,28.9 c 0.2,-1.5 -1.4,-0.9 -2.8,-1.2 -1.6,0.2 -4.2,-0.5 -5.1,-0.9 -0.9,-0.4 -4,1.3 -5.2,2.3 -1.2,1 -1,2.6 -0.3,4 0.5,1.6 5.6,2.3 10,1.2 4.9,-1.3 3.2,-3.8 3.4,-5.4 z"
   enable-background="new    " />
			</g>
		</g>
	</g>
	<g
   id="g912">
		<g
   id="g914">
			<g
   id="g916">
				<path
   style="opacity:0.3;fill:#646464"
   id="path918"
   d="m -11.8,30.4 c -0.5,1.4 1.1,1.2 2.5,1.7 1.6,0.2 3.9,1.3 4.7,1.9 0.8,0.6 4.1,-0.5 5.4,-1.2 C 2.1,32.1 2.3,30.5 1.9,29 1.7,27.4 -3,25.7 -7.5,25.9 c -4.9,0.2 -3.8,3 -4.3,4.5 z"
   enable-background="new    " />
			</g>
		</g>
	</g>
	<g
   id="g920">
		<g
   id="g922">
			<g
   id="g924">
				<path
   style="opacity:0.3;fill:#646464"
   id="path926"
   d="m -7.7,27.4 c -0.9,1 0.5,1.4 1.5,2.3 1.3,0.7 2.8,2.5 3.3,3.3 0.5,0.8 3.6,1.1 5,0.9 1.4,-0.2 2.1,-1.4 2.3,-2.8 0.4,-1.4 -3,-4.6 -6.8,-6 -4.3,-1.6 -4.3,1.2 -5.3,2.3 z"
   enable-background="new    " />
			</g>
		</g>
	</g>
	<g
   id="g928">
		<g
   id="g930">
			<g
   id="g932">
				<path
   style="opacity:0.3;fill:#646464"
   id="path934"
   d="M 2,23.9 C 1.5,23.1 0.9,24 0.1,24.5 c -0.7,0.8 -2.3,1.5 -2.9,1.7 -0.6,0.2 -1.4,2.3 -1.6,3.3 -0.1,1 0.6,1.7 1.5,2.1 C -2,32.2 0.8,30.4 2.5,28 4.4,25.3 2.6,24.8 2,23.9 Z"
   enable-background="new    " />
			</g>
		</g>
	</g>
	<g
   id="g936">
		<g
   id="g938">
			<g
   id="g940">
				<path
   style="opacity:0.3;fill:#646464"
   id="path942"
   d="M 3.2,20.6 C 2.8,19.4 1.8,20.4 0.6,20.8 -0.6,21.5 -2.9,22 -3.8,22 c -0.9,0 -2.6,2.5 -3.1,3.8 -0.5,1.3 0.2,2.4 1.3,3.2 1,1 5.3,-0.4 8.2,-2.9 3.4,-2.8 1.1,-4.2 0.6,-5.5 z"
   enable-background="new    " />
			</g>
		</g>
	</g>
	<g
   id="g944">
		<g
   id="g946">
			<g
   id="g948">
				<path
   style="opacity:0.3;fill:#646464"
   id="path950"
   d="m -0.3,14.7 c -1.2,-0.9 -1.5,0.7 -2.4,1.9 -0.7,1.5 -2.5,3.4 -3.4,4 -0.9,0.6 -0.9,4.1 -0.6,5.7 0.3,1.5 1.8,2.2 3.3,2.3 1.6,0.3 4.9,-3.7 6.1,-8.1 1.4,-5 -1.7,-4.8 -3,-5.8 z"
   enable-background="new    " />
			</g>
		</g>
	</g>
	<g
   id="g952">
		<g
   id="g954">
			<g
   id="g956">
				<path
   style="opacity:0.3;fill:#646464"
   id="path958"
   d="M 1.2,15.8 C 1,14.7 0,15.4 -1,15.6 -2.1,16 -4.1,16.1 -4.9,16 c -0.8,-0.1 -2.6,1.8 -3.2,2.8 -0.6,1 -0.1,2.1 0.6,2.9 0.7,1 4.5,0.4 7.4,-1.4 3.3,-1.9 1.5,-3.3 1.3,-4.5 z"
   enable-background="new    " />
			</g>
		</g>
	</g>
	<g
   id="g960">
		<g
   id="g962">
			<g
   id="g964">
				<path
   style="opacity:0.3;fill:#646464"
   id="path966"
   d="m 3.3,14 c 0.3,-1.6 -1.4,-1.1 -3.1,-1.4 -1.8,0.1 -4.6,-0.8 -5.6,-1.3 -1,-0.5 -4.5,1.2 -5.9,2.3 -1.4,1.1 -1.3,2.8 -0.6,4.4 0.5,1.8 6.1,2.9 11,1.9 C 4.8,18.7 3,15.8 3.3,14 Z"
   enable-background="new    " />
			</g>
		</g>
	</g>
	<g
   id="g968">
		<g
   id="g970">
			<g
   id="g972">
				<path
   style="opacity:0.3;fill:#646464"
   id="path974"
   d="m -11.3,8.5 c -1.3,0.9 0.2,1.7 1.1,3 1.3,1.1 2.6,3.6 2.9,4.7 0.3,1.1 3.9,2.2 5.5,2.4 1.6,0.2 2.8,-1.1 3.4,-2.6 0.9,-1.5 -2.2,-6.1 -6.2,-8.7 -4.5,-3 -5.3,0.1 -6.7,1.2 z"
   enable-background="new    " />
			</g>
		</g>
	</g>
	<g
   id="g976">
		<g
   id="g978">
			<g
   id="g980">
				<path
   style="opacity:0.3;fill:#646464"
   id="path982"
   d="m -8.4,3.6 c -1.4,0.2 -0.5,1.5 -0.3,2.9 0.6,1.4 0.7,4 0.6,5 -0.1,1 2.3,3.3 3.6,4.1 1.3,0.8 2.7,0.2 3.8,-0.8 C 0.6,13.9 -0.2,9 -2.5,5.3 -5,1 -6.9,3.3 -8.4,3.6 Z"
   enable-background="new    " />
			</g>
		</g>
	</g>
	<g
   id="g984">
		<g
   id="g986">
			<g
   id="g988">
				<path
   style="opacity:0.3;fill:#646464"
   id="path990"
   d="M 2.9,2 C 2.2,0.6 1.1,1.9 -0.4,2.5 c -1.4,1 -4.2,1.9 -5.3,2 -1.1,0.1 -3,3.5 -3.5,5.1 -0.5,1.6 0.5,3 1.9,3.9 1.4,1.2 6.5,-1 10,-4.5 C 6.6,5.1 3.6,3.7 2.9,2 Z"
   enable-background="new    " />
			</g>
		</g>
	</g>
	<g
   id="g992">
		<g
   id="g994">
			<g
   id="g996">
				<path
   style="opacity:0.3;fill:#646464"
   id="path998"
   d="m 3.5,-1.1 c -1.1,-1.2 -1.8,0.5 -3,1.6 -1,1.5 -3.3,3.3 -4.4,3.8 -1,0.5 -1.7,4.4 -1.6,6.1 0.1,1.7 1.6,2.7 3.2,3 1.7,0.6 5.9,-3.3 8,-7.8 C 8.1,0.5 4.8,0.2 3.5,-1.1 Z"
   enable-background="new    " />
			</g>
		</g>
	</g>
	<g
   id="g1000">
		<g
   id="g1002">
			<g
   id="g1004">
				<path
   style="opacity:0.3;fill:#646464"
   id="path1006"
   d="m -7.2,1.2 c -1.3,1 0.4,1.8 1.4,3.1 1.4,1.1 3,3.6 3.4,4.7 0.4,1.1 4.2,2.1 6,2.1 1.8,0 2.8,-1.3 3.3,-3 C 7.7,6.4 4.2,1.9 -0.3,-0.6 -5.2,-3.4 -5.8,0 -7.2,1.2 Z"
   enable-background="new    " />
			</g>
		</g>
	</g>
	<g
   id="g1008">
		<g
   id="g1010">
			<g
   id="g1012">
				<path
   style="opacity:0.3;fill:#646464"
   id="path1014"
   d="m -5.7,-3 c -1.6,-0.1 -0.9,1.5 -1,3.1 0.2,1.7 -0.3,4.5 -0.7,5.5 -0.4,1 1.7,4.2 2.8,5.4 1.1,1.2 2.9,0.9 4.3,0.1 C 1.3,10.4 1.8,4.9 0.3,0.4 -1.4,-4.9 -4,-2.9 -5.7,-3 Z"
   enable-background="new    " />
			</g>
		</g>
	</g>
	<g
   id="g1016">
		<g
   id="g1018">
			<g
   id="g1020">
				<path
   style="opacity:0.3;fill:#646464"
   id="path1022"
   d="M 0.8,-1.4 C 0.6,-3 -0.9,-1.9 -2.5,-1.7 -4.2,-1 -7.1,-0.9 -8.2,-1 c -1.1,-0.1 -3.8,2.6 -4.7,4 -0.9,1.4 -0.2,3.1 0.9,4.3 1,1.5 6.6,0.6 10.9,-2 4.8,-2.8 2.2,-4.9 1.9,-6.7 z"
   enable-background="new    " />
			</g>
		</g>
	</g>
	<g
   id="g1024">
		<g
   id="g1026">
			<g
   id="g1028">
				<path
   style="opacity:0.3;fill:#646464"
   id="path1030"
   d="m -11.6,-3 c -0.9,0.5 0.1,1.2 0.6,2.1 0.8,0.8 1.6,2.5 1.7,3.2 0.2,0.8 2.5,1.7 3.5,1.9 1,0.2 1.9,-0.6 2.3,-1.6 0.6,-1 -1.2,-4.1 -3.7,-6 -2.8,-2.2 -3.4,-0.2 -4.4,0.4 z"
   enable-background="new    " />
			</g>
		</g>
	</g>
	<g
   id="g1032">
		<g
   id="g1034">
			<g
   id="g1036">
				<path
   style="opacity:0.3;fill:#646464"
   id="path1038"
   d="m -10.1,-7.2 c -0.9,-0.2 -0.7,0.8 -0.9,1.8 0,1.1 -0.6,2.7 -0.9,3.3 -0.3,0.6 0.6,2.7 1.2,3.5 0.6,0.8 1.7,0.8 2.6,0.4 C -7,1.6 -6.2,-1.8 -6.7,-4.7 -7.3,-8 -9.1,-7 -10.1,-7.2 Z"
   enable-background="new    " />
			</g>
		</g>
	</g>
	<g
   id="g1040">
		<g
   id="g1042">
			<g
   id="g1044">
				<path
   style="opacity:0.3;fill:#646464"
   id="path1046"
   d="m -13.9,-4.9 c -0.8,1.1 0.7,1.3 1.8,2.1 1.4,0.5 3.2,2.1 3.8,2.9 0.6,0.8 3.8,0.6 5.1,0.3 1.3,-0.3 1.9,-1.7 1.9,-3.1 0.2,-1.5 -3.6,-4.2 -7.6,-5 -4.5,-1.2 -4.1,1.5 -5,2.8 z"
   enable-background="new    " />
			</g>
		</g>
	</g>
	<g
   id="g1048">
		<g
   id="g1050">
			<g
   id="g1052">
				<path
   style="opacity:0.3;fill:#646464"
   id="path1054"
   d="m -5.3,-9.7 c -1.2,-0.3 -0.9,1 -1.2,2.2 0,1.3 -0.8,3.4 -1.2,4.1 -0.4,0.7 0.7,3.4 1.4,4.4 0.7,1 2.1,1 3.2,0.6 1.3,-0.3 2.4,-4.4 1.8,-8.1 -0.5,-4.1 -2.7,-2.9 -4,-3.2 z"
   enable-background="new    " />
			</g>
		</g>
	</g>
	<g
   id="g1056">
		<g
   id="g1058">
			<g
   id="g1060">
				<path
   style="opacity:0.3;fill:#646464"
   id="path1062"
   d="m -6.7,-7.5 c -0.6,0.5 0.2,0.9 0.7,1.6 0.7,0.6 1.5,1.8 1.7,2.4 0.2,0.6 2.1,1 3,1.1 0.9,0 1.4,-0.7 1.7,-1.5 C 0.8,-4.8 -1,-7.1 -3.2,-8.3 -5.7,-9.7 -6,-8 -6.7,-7.5 Z"
   enable-background="new    " />
			</g>
		</g>
	</g>
	<g
   id="g1064">
		<g
   id="g1066">
			<g
   id="g1068">
				<path
   style="opacity:0.3;fill:#646464"
   id="path1070"
   d="m -1.6,-15.3 c -1.1,-1 -1.6,0.6 -2.6,1.6 -0.8,1.4 -2.9,3.2 -3.8,3.7 -1,0.5 -1.3,4.1 -1.2,5.7 0.1,1.6 1.6,2.3 3.1,2.6 1.6,0.5 5.3,-3.3 6.9,-7.6 2,-4.8 -1.1,-4.9 -2.4,-6 z"
   enable-background="new    " />
			</g>
		</g>
	</g>
</g>
</svg>