<?xml version="1.0" encoding="UTF-8" standalone="no"?>
<svg
   xmlns:dc="http://purl.org/dc/elements/1.1/"
   xmlns:cc="http://creativecommons.org/ns#"
   xmlns:rdf="http://www.w3.org/1999/02/22-rdf-syntax-ns#"
   xmlns:svg="http://www.w3.org/2000/svg"
   xmlns="http://www.w3.org/2000/svg"
   xmlns:xlink="http://www.w3.org/1999/xlink"
   id="svg2"
   height="68"
   width="64"
   version="1.1">
  <defs
     id="defs4">
    <linearGradient
       id="linearGradient3873">
      <stop
         offset="0"
         style="stop-color:#d5d8be;stop-opacity:1"
         id="stop3875" />
      <stop
         offset="1"
         style="stop-color:#eceddb;stop-opacity:1"
         id="stop3877" />
    </linearGradient>
    <linearGradient
       id="linearGradient3002">
      <stop
         offset="0"
         style="stop-color:#d5d8bd;stop-opacity:1"
         id="stop3004" />
      <stop
         offset="1"
         style="stop-color:#f2f3e9;stop-opacity:0"
         id="stop3006" />
    </linearGradient>
    <linearGradient
       gradientTransform="translate(919.71429,749.79077)"
       gradientUnits="userSpaceOnUse"
       xlink:href="#linearGradient3002"
       id="linearGradient3008"
       y2="65"
       x2="-39"
       y1="68"
       x1="-39" />
    <radialGradient
       gradientTransform="matrix(-0.01364242,1.415131,-0.43642521,-0.00457865,344.91691,575.60244)"
       gradientUnits="userSpaceOnUse"
       xlink:href="#linearGradient3809"
       id="radialGradient3824"
       fy="1"
       fx="-30.5"
       r="28.5"
       cy="1"
       cx="-30.5" />
    <radialGradient
       gradientTransform="matrix(1.2632822,0.01193445,-0.00408734,0.39584823,8.0341922,0.96815232)"
       gradientUnits="userSpaceOnUse"
       xlink:href="#linearGradient3809"
       id="radialGradient3819"
       fy="1"
       fx="-30.5"
       r="28.5"
       cy="1"
       cx="-30.5" />
    <radialGradient
       gradientTransform="matrix(1.2632822,0.01193445,-0.00408734,0.39584823,8.0341922,0.96815232)"
       gradientUnits="userSpaceOnUse"
       xlink:href="#linearGradient3809"
       id="radialGradient3815"
       fy="1"
       fx="-30.5"
       r="28.5"
       cy="1"
       cx="-30.5" />
    <linearGradient
       gradientUnits="userSpaceOnUse"
       xlink:href="#linearGradient3799"
       id="linearGradient3805"
       y2="541.84601"
       x2="368.1651"
       y1="541.69885"
       x1="343" />
    <linearGradient
       gradientUnits="userSpaceOnUse"
       xlink:href="#linearGradient3789"
       id="linearGradient3795"
       y2="561.36218"
       x2="343"
       y1="561.36218"
       x1="348" />
    <linearGradient
       id="linearGradient3789">
      <stop
         offset="0"
         style="stop-color:#919c9d;stop-opacity:1"
         id="stop3791" />
      <stop
         offset="1"
         style="stop-color:#c4cbcc;stop-opacity:1"
         id="stop3793" />
    </linearGradient>
    <linearGradient
       id="linearGradient3799">
      <stop
         offset="0"
         style="stop-color:#c6cbcc;stop-opacity:1"
         id="stop3801" />
      <stop
         offset="1"
         style="stop-color:#879495;stop-opacity:1"
         id="stop3803" />
    </linearGradient>
    <linearGradient
       id="linearGradient3809">
      <stop
         offset="0"
         style="stop-color:#edeee4;stop-opacity:1"
         id="stop3811" />
      <stop
         offset="1"
         style="stop-color:#d4d7bd;stop-opacity:1"
         id="stop3813" />
    </linearGradient>
    <linearGradient
       gradientTransform="translate(525.29601,168.8205)"
       gradientUnits="userSpaceOnUse"
       xlink:href="#linearGradient3799"
       id="linearGradient3847"
       y2="541.84601"
       x2="368.1651"
       y1="541.69885"
       x1="343" />
    <linearGradient
       gradientTransform="translate(525.29601,168.8205)"
       gradientUnits="userSpaceOnUse"
       xlink:href="#linearGradient3789"
       id="linearGradient3850"
       y2="561.36218"
       x2="343"
       y1="561.36218"
       x1="348" />
    <radialGradient
       gradientTransform="matrix(-0.01364242,1.415131,-0.43642521,-0.00457865,870.21292,744.42294)"
       gradientUnits="userSpaceOnUse"
       xlink:href="#linearGradient3809"
       id="radialGradient3853"
       fy="1"
       fx="-30.5"
       r="28.5"
       cy="1"
       cx="-30.5" />
    <radialGradient
       gradientTransform="matrix(1.4144438,0.10200533,-0.03015547,0.40544348,863.07509,817.9965)"
       gradientUnits="userSpaceOnUse"
       xlink:href="#linearGradient3809"
       id="radialGradient3856"
       fy="1"
       fx="-30.5"
       r="28.5"
       cy="1"
       cx="-30.5" />
    <clipPath
       id="clipPath3863">
      <rect
         style="fill:#d5d8bd;fill-opacity:1;stroke:none"
         id="rect3865"
         y="799.79077"
         x="784.71429"
         height="14"
         width="72" />
    </clipPath>
    <radialGradient
       gradientTransform="matrix(1.4144438,0.10200533,-0.03015547,0.40544348,863.07509,817.9965)"
       gradientUnits="userSpaceOnUse"
       xlink:href="#linearGradient3809"
       id="radialGradient3869"
       fy="1"
       fx="-30.5"
       r="28.5"
       cy="1"
       cx="-30.5" />
    <linearGradient
       gradientUnits="userSpaceOnUse"
       xlink:href="#linearGradient3873"
       id="linearGradient3879"
       y2="784.79077"
       x2="863.71429"
       y1="784.79077"
       x1="858.71429" />
    <linearGradient
       gradientTransform="matrix(1,0,0,0.94117647,8.000004,45.987691)"
       gradientUnits="userSpaceOnUse"
       xlink:href="#linearGradient3873"
       id="linearGradient3883"
       y2="784.79077"
       x2="863.71429"
       y1="784.79077"
       x1="858.71429" />
    <linearGradient
       gradientTransform="matrix(1,0,0,0.88235294,16.000004,91.975383)"
       gradientUnits="userSpaceOnUse"
       xlink:href="#linearGradient3873"
       id="linearGradient3887"
       y2="784.79077"
       x2="863.71429"
       y1="784.79077"
       x1="858.71429" />
    <linearGradient
       gradientTransform="matrix(1,0,0,0.85294118,24.000004,115.46923)"
       gradientUnits="userSpaceOnUse"
       xlink:href="#linearGradient3873"
       id="linearGradient3891"
       y2="784.79077"
       x2="863.71429"
       y1="784.79077"
       x1="858.71429" />
    <linearGradient
       gradientTransform="matrix(1,0,0,0.85294118,32.000004,115.46923)"
       gradientUnits="userSpaceOnUse"
       xlink:href="#linearGradient3873"
       id="linearGradient3895"
       y2="784.79077"
       x2="863.71429"
       y1="784.79077"
       x1="858.71429" />
    <linearGradient
       gradientTransform="matrix(1,0,0,0.97058824,40.000004,23.493846)"
       gradientUnits="userSpaceOnUse"
       xlink:href="#linearGradient3873"
       id="linearGradient3899"
       y2="784.79077"
       x2="863.71429"
       y1="784.79077"
       x1="858.71429" />
    <linearGradient
       gradientTransform="matrix(1,0,0,1.1470588,48.000004,-114.46923)"
       gradientUnits="userSpaceOnUse"
       xlink:href="#linearGradient3873"
       id="linearGradient3903"
       y2="784.79077"
       x2="863.71429"
       y1="784.79077"
       x1="858.71429" />
  </defs>
  <metadata
     id="metadata7">
    <rdf:RDF>
      <cc:Work
         rdf:about="">
        <dc:format>image/svg+xml</dc:format>
        <dc:type
           rdf:resource="http://purl.org/dc/dcmitype/StillImage" />
        <dc:title></dc:title>
      </cc:Work>
    </rdf:RDF>
  </metadata>
  <g
     id="layer1"
     transform="translate(-853.71429,-749.79077)">
    <rect
       style="fill:#f2f3e9;fill-opacity:1;stroke:none"
       id="rect2998"
       y="749.96936"
       x="853.625"
       height="68"
       width="64" />
    <rect
       style="fill:url(#linearGradient3008);fill-opacity:1;stroke:none"
       id="rect3000"
       y="814.79077"
       x="853.71429"
       height="3"
       width="64" />
    <path
       style="fill:url(#radialGradient3856);fill-opacity:1;stroke:none"
       id="path3817"
       clip-path="url(#clipPath3863)"
       transform="translate(66,-1.484375e-6)"
       d="m 851.89629,815.29077 c 0,6.35128 -14.32326,11.5 -31.99188,11.5 -17.66864,0 -34.19581,-5.5006 -31.99189,-11.5 3.68762,-10.03823 10.04598,-12.48257 22.85131,-14.55513 22.45006,-3.63357 41.13246,8.20386 41.13246,14.55513 z" />
    <path
       style="fill:url(#radialGradient3869);fill-opacity:1;stroke:none"
       id="path3867"
       clip-path="url(#clipPath3863)"
       transform="matrix(-1,0,0,-1,1705.4286,1563.5815)"
       d="m 851.89629,815.29077 c 0,6.35128 -14.32326,11.5 -31.99188,11.5 -17.66864,0 -34.19581,-5.5006 -31.99189,-11.5 3.68762,-10.03823 10.04598,-12.48257 22.85131,-14.55513 22.45006,-3.63357 41.13246,8.20386 41.13246,14.55513 z" />
    <path
       style="fill:url(#linearGradient3879);fill-opacity:1;stroke:none"
       id="path3871"
       d="m 862.71429,798.79077 -2,0 c 0,0 -2,0 -2,-2 0,-2 0,-30 0,-30 0,0 0,-2 2,-2 2,0 3,0 3,0 l 0,34 z" />
    <path
       style="fill:url(#linearGradient3883);fill-opacity:1;stroke:none"
       id="path3881"
       d="m 870.71429,797.79077 -2,0 c 0,0 -2,0 -2,-1.88235 0,-1.88236 0,-28.2353 0,-28.2353 0,0 0,-1.88235 2,-1.88235 2,0 3,0 3,0 l 0,32 z" />
    <path
       style="fill:url(#linearGradient3887);fill-opacity:1;stroke:none"
       id="path3885"
       d="m 878.71429,796.79077 -2,0 c 0,0 -2,0 -2,-1.7647 0,-1.76472 0,-26.4706 0,-26.4706 0,0 0,-1.7647 2,-1.7647 2,0 3,0 3,0 l 0,30 z" />
    <path
       style="fill:url(#linearGradient3891);fill-opacity:1;stroke:none"
       id="path3889"
       d="m 886.71429,796.79077 -2,0 c 0,0 -2,0 -2,-1.70588 0,-1.70589 0,-25.58824 0,-25.58824 0,0 0,-1.70588 2,-1.70588 2,0 3,0 3,0 l 0,29 z" />
    <path
       style="fill:url(#linearGradient3895);fill-opacity:1;stroke:none"
       id="path3893"
       d="m 894.71429,796.79077 -2,0 c 0,0 -2,0 -2,-1.70588 0,-1.70589 0,-25.58824 0,-25.58824 0,0 0,-1.70588 2,-1.70588 2,0 3,0 3,0 l 0,29 z" />
    <path
       style="fill:url(#linearGradient3899);fill-opacity:1;stroke:none"
       id="path3897"
       d="m 902.71429,798.79077 -2,0 c 0,0 -2,0 -2,-1.94118 0,-1.94117 0,-29.11764 0,-29.11764 0,0 0,-1.94118 2,-1.94118 2,0 3,0 3,0 l 0,33 z" />
    <path
       style="fill:url(#linearGradient3903);fill-opacity:1;stroke:none"
       id="path3901"
       d="m 910.71429,801.79077 -2,0 c 0,0 -2,0 -2,-2.29412 0,-2.29411 0,-34.41176 0,-34.41176 0,0 0,-2.29412 2,-2.29412 2,0 3,0 3,0 l 0,39 z" />
  </g>
</svg>
