<?xml version="1.0" encoding="UTF-8" standalone="no"?>
<svg
   xmlns:dc="http://purl.org/dc/elements/1.1/"
   xmlns:cc="http://creativecommons.org/ns#"
   xmlns:rdf="http://www.w3.org/1999/02/22-rdf-syntax-ns#"
   xmlns:svg="http://www.w3.org/2000/svg"
   xmlns="http://www.w3.org/2000/svg"
   xmlns:xlink="http://www.w3.org/1999/xlink"
   id="svg2"
   height="60"
   width="120"
   version="1.1">
  <metadata
     id="metadata73">
    <rdf:RDF>
      <cc:Work
         rdf:about="">
        <dc:format>image/svg+xml</dc:format>
        <dc:type
           rdf:resource="http://purl.org/dc/dcmitype/StillImage" />
        <dc:title></dc:title>
      </cc:Work>
    </rdf:RDF>
  </metadata>
  <defs
     id="defs4">
    <polygon
       style="fill:#ffffff"
       id="pt"
       transform="scale(0.0616,0.0616)"
       points="0.16245985,0 -0.16245985,0 0,-0.5 " />
    <g
       id="star">
      <use
         xlink:href="#pt"
         height="650"
         width="1235"
         y="0"
         x="0"
         id="use8"
         transform="matrix(-0.80901699,-0.58778525,0.58778525,-0.80901699,0,0)" />
      <use
         xlink:href="#pt"
         height="650"
         width="1235"
         y="0"
         x="0"
         id="use10"
         transform="matrix(0.30901699,-0.95105652,0.95105652,0.30901699,0,0)" />
      <use
         xlink:href="#pt"
         height="650"
         width="1235"
         y="0"
         x="0"
         id="use12" />
      <use
         xlink:href="#pt"
         height="650"
         width="1235"
         y="0"
         x="0"
         id="use14"
         transform="matrix(0.30901699,0.95105652,-0.95105652,0.30901699,0,0)" />
      <use
         xlink:href="#pt"
         height="650"
         width="1235"
         y="0"
         x="0"
         id="use16"
         transform="matrix(-0.80901699,0.58778525,-0.58778525,-0.80901699,0,0)" />
    </g>
    <g
       id="s5">
      <use
         xlink:href="#star"
         height="650"
         width="1235"
         y="0"
         x="-0.252"
         id="use19" />
      <use
         xlink:href="#star"
         height="650"
         width="1235"
         y="0"
         x="-0.126"
         id="use21" />
      <use
         xlink:href="#star"
         height="650"
         width="1235"
         y="0"
         x="0"
         id="use23" />
      <use
         xlink:href="#star"
         height="650"
         width="1235"
         y="0"
         x="0.126"
         id="use25" />
      <use
         xlink:href="#star"
         height="650"
         width="1235"
         y="0"
         x="0.252"
         id="use27" />
    </g>
    <g
       id="s6">
      <use
         xlink:href="#s5"
         height="650"
         width="1235"
         y="0"
         x="-0.063000001"
         id="use30" />
      <use
         xlink:href="#star"
         height="650"
         width="1235"
         y="0"
         x="0.315"
         id="use32" />
    </g>
    <g
       id="x4">
      <use
         xlink:href="#s6"
         height="650"
         width="1235"
         y="0"
         x="0"
         id="use35" />
      <use
         xlink:href="#s5"
         height="650"
         width="1235"
         y="0.054000001"
         x="0"
         id="use37" />
      <use
         xlink:href="#s6"
         height="650"
         width="1235"
         y="0.108"
         x="0"
         id="use39" />
      <use
         xlink:href="#s5"
         height="650"
         width="1235"
         y="0.162"
         x="0"
         id="use41" />
    </g>
    <g
       id="u">
      <use
         xlink:href="#x4"
         height="650"
         width="1235"
         y="-0.21600001"
         x="0"
         id="use44" />
      <use
         xlink:href="#x4"
         height="650"
         width="1235"
         y="0"
         x="0"
         id="use46" />
      <use
         xlink:href="#s6"
         height="650"
         width="1235"
         y="0.21600001"
         x="0"
         id="use48" />
    </g>
    <rect
       style="fill:#b22234"
       id="stripe"
       y="0"
       x="0"
       height="50"
       width="1235" />
  </defs>
  <rect
     style="fill:#ffffff"
     id="rect51"
     y="0.0044403323"
     x="0.0049803318"
     height="59.996796"
     width="119.9954" />
  <use
     xlink:href="#stripe"
     height="650"
     width="1235"
     y="0"
     x="0"
     id="use53"
     transform="matrix(0.09716227,0,0,0.09230276,0.00497809,0.0044231)" />
  <use
     xlink:href="#stripe"
     height="650"
     width="1235"
     y="100"
     x="0"
     id="use55"
     transform="matrix(0.09716227,0,0,0.09230276,0.00497809,0.0044231)" />
  <use
     xlink:href="#stripe"
     height="650"
     width="1235"
     y="200"
     x="0"
     id="use57"
     transform="matrix(0.09716227,0,0,0.09230276,0.00497809,0.0044231)" />
  <use
     xlink:href="#stripe"
     height="650"
     width="1235"
     y="300"
     x="0"
     id="use59"
     transform="matrix(0.09716227,0,0,0.09230276,0.00497809,0.0044231)" />
  <use
     xlink:href="#stripe"
     height="650"
     width="1235"
     y="400"
     x="0"
     id="use61"
     transform="matrix(0.09716227,0,0,0.09230276,0.00497809,0.0044231)" />
  <use
     xlink:href="#stripe"
     height="650"
     width="1235"
     y="500"
     x="0"
     id="use63"
     transform="matrix(0.09716227,0,0,0.09230276,0.00497809,0.0044231)" />
  <use
     xlink:href="#stripe"
     height="650"
     width="1235"
     y="600"
     x="0"
     id="use65"
     transform="matrix(0.09716227,0,0,0.09230276,0.00497809,0.0044231)" />
  <rect
     style="fill:#3c3b6e"
     id="rect67"
     y="0.0044403323"
     x="0.0049803318"
     height="32.305965"
     width="47.998161" />
  <use
     xlink:href="#u"
     height="650"
     width="1235"
     y="0"
     x="0"
     id="use69"
     transform="matrix(63.155476,0,0,59.996794,24.00406,16.157402)" />
</svg>
