<?xml version="1.0" encoding="UTF-8" standalone="no"?>
<svg
   xmlns:dc="http://purl.org/dc/elements/1.1/"
   xmlns:cc="http://creativecommons.org/ns#"
   xmlns:rdf="http://www.w3.org/1999/02/22-rdf-syntax-ns#"
   xmlns:svg="http://www.w3.org/2000/svg"
   xmlns="http://www.w3.org/2000/svg"
   xmlns:xlink="http://www.w3.org/1999/xlink"
   version="1.1"
   id="svg3447"
   height="32"
   width="32">
  <defs
     id="defs3449">
    <mask
       id="mask4325"
       maskUnits="userSpaceOnUse">
      <path
         style="fill:#ffffff;fill-opacity:1;fill-rule:evenodd;stroke:none;display:inline"
         id="path4327"
         d="m 156,80 a 11,11 0 1 1 -22,0 11,11 0 1 1 22,0 z"
         transform="translate(24.5,-0.5)" />
    </mask>
    <mask
       id="mask4639"
       maskUnits="userSpaceOnUse">
      <path
         id="path4641"
         d="m 8,198 0,12 c 0,4.41828 3.58172,8 8,8 4.41828,0 8,-3.58172 8,-8 l 0,-12 -16,0 z"
         style="fill:#ffffff;fill-opacity:1;fill-rule:evenodd;stroke:none" />
    </mask>
  </defs>
  <metadata
     id="metadata3452">
    <rdf:RDF>
      <cc:Work
         rdf:about="">
        <dc:format>image/svg+xml</dc:format>
        <dc:type
           rdf:resource="http://purl.org/dc/dcmitype/StillImage" />
        <dc:title></dc:title>
      </cc:Work>
    </rdf:RDF>
  </metadata>
  <g
     transform="translate(0,-1020.3622)"
     id="layer1">
    <use
       height="256"
       width="256"
       transform="translate(-32.000001,988.36226)"
       id="use5978"
       xlink:href="#g5944"
       y="0"
       x="0"
       style="display:inline" />
    <rect
       y="1025.3622"
       x="10"
       height="12"
       width="12"
       id="rect4668"
       style="fill:#000000;fill-opacity:1;fill-rule:evenodd;stroke:none;display:inline" />
    <path
       id="rect4663"
       d="m 14,1027.3622 0,7 1,0 1,0 3,0 0,-2 -3,0 0,-5 -2,0 z"
       style="fill:#ffffff;fill-opacity:1;fill-rule:evenodd;stroke:none;display:inline" />
    <use
       height="256"
       width="256"
       transform="translate(-224,988.3622)"
       id="use5992"
       xlink:href="#use5976"
       y="0"
       x="0"
       style="display:inline" />
    <g
       id="g5960"
       style="display:inline"
       transform="translate(-192,956.3622)">
      <rect
         style="fill:#000000;fill-opacity:1;stroke:none"
         id="rect3794-8-4-3"
         width="22"
         height="3"
         x="197"
         y="82" />
      <path
         style="fill:#000000;fill-opacity:1;stroke:none"
         d="m 203,84 h 2 v 4 l -4,3.5 -2,0.5 1.5,-1 2.5,-3 z"
         id="path4114" />
      <path
         style="fill:#000000;fill-opacity:1;stroke:none"
         d="m 207,84 0.5,2 2,3 -1.5,2 -1,1 2,-0.5 2.5,-2.5 -2.5,-3.5 V 84 Z"
         id="path4116" />
      <path
         style="fill:#000000;fill-opacity:1;stroke:none"
         d="m 211,85 4,4 0.5,2 -0.5,1.5 1.5,-1.5 0.5,-2.5 -3.5,-4 z"
         id="path4118" />
    </g>
  </g>
</svg>
