<?xml version="1.0" encoding="UTF-8" standalone="no"?>
<svg
   xmlns:dc="http://purl.org/dc/elements/1.1/"
   xmlns:cc="http://creativecommons.org/ns#"
   xmlns:rdf="http://www.w3.org/1999/02/22-rdf-syntax-ns#"
   xmlns:svg="http://www.w3.org/2000/svg"
   xmlns="http://www.w3.org/2000/svg"
   xmlns:xlink="http://www.w3.org/1999/xlink"
   xmlns:sodipodi="http://sodipodi.sourceforge.net/DTD/sodipodi-0.dtd"
   xmlns:inkscape="http://www.inkscape.org/namespaces/inkscape"
   version="1.1"
   id="svg3202"
   height="32"
   width="32"
   sodipodi:docname="button4-01.svg"
   inkscape:export-filename="/home/simbax/Documents/colobot-data/textures-src/interface/button4/button4-01.png"
   inkscape:export-xdpi="384"
   inkscape:export-ydpi="384"
   inkscape:version="0.92.2 5c3e80d, 2017-08-06">
  <sodipodi:namedview
     pagecolor="#ffffff"
     bordercolor="#666666"
     borderopacity="1"
     objecttolerance="10"
     gridtolerance="10"
     guidetolerance="10"
     inkscape:pageopacity="0"
     inkscape:pageshadow="2"
     inkscape:window-width="1920"
     inkscape:window-height="1149"
     id="namedview31"
     showgrid="false"
     inkscape:zoom="7.375"
     inkscape:cx="16"
     inkscape:cy="16"
     inkscape:window-x="0"
     inkscape:window-y="0"
     inkscape:window-maximized="1"
     inkscape:current-layer="svg3202" />
  <defs
     id="defs3204">
    <linearGradient
       id="linearGradient3916">
      <stop
         style="stop-color:#8d8d8d;stop-opacity:0"
         offset="0"
         id="stop3918" />
      <stop
         style="stop-color:#000000;stop-opacity:1"
         offset="1"
         id="stop3920" />
    </linearGradient>
    <linearGradient
       id="linearGradient3906">
      <stop
         style="stop-color:#000000;stop-opacity:1"
         offset="0"
         id="stop3908" />
      <stop
         style="stop-color:#888888;stop-opacity:0"
         offset="1"
         id="stop3910" />
    </linearGradient>
    <linearGradient
       id="linearGradient3894">
      <stop
         id="stop3896"
         offset="0"
         style="stop-color:#8d8d8d;stop-opacity:1" />
      <stop
         id="stop3898"
         offset="1"
         style="stop-color:#000000;stop-opacity:1" />
    </linearGradient>
    <linearGradient
       id="linearGradient3862">
      <stop
         id="stop3864"
         offset="0"
         style="stop-color:#000000;stop-opacity:1" />
      <stop
         id="stop3866"
         offset="1"
         style="stop-color:#888888;stop-opacity:1" />
    </linearGradient>
    <linearGradient
       id="linearGradient3854">
      <stop
         id="stop3856"
         offset="0"
         style="stop-color:#000000;stop-opacity:1;" />
      <stop
         id="stop3858"
         offset="1"
         style="stop-color:#ffffff;stop-opacity:1" />
    </linearGradient>
    <linearGradient
       gradientUnits="userSpaceOnUse"
       y2="2.0670276"
       x2="15.532289"
       y1="17.149614"
       x1="15.336637"
       id="linearGradient3860"
       xlink:href="#linearGradient3854" />
    <linearGradient
       gradientUnits="userSpaceOnUse"
       y2="9.8781223"
       x2="16.947277"
       y1="-2.4068718"
       x1="17.095724"
       id="linearGradient3868"
       xlink:href="#linearGradient3862" />
    <linearGradient
       gradientUnits="userSpaceOnUse"
       y2="13.150993"
       x2="9.1954613"
       y1="10.313343"
       x1="9.1954632"
       id="linearGradient3900"
       xlink:href="#linearGradient3894" />
    <linearGradient
       y2="9.3563833"
       x2="16.816841"
       y1="17.201824"
       x1="17.052246"
       gradientUnits="userSpaceOnUse"
       id="linearGradient3904"
       xlink:href="#linearGradient3906" />
    <linearGradient
       y2="7.6155767"
       x2="9.1355104"
       y1="10.313343"
       x1="9.1754799"
       gradientUnits="userSpaceOnUse"
       id="linearGradient3914"
       xlink:href="#linearGradient3916" />
  </defs>
  <metadata
     id="metadata3207">
    <rdf:RDF>
      <cc:Work
         rdf:about="">
        <dc:format>image/svg+xml</dc:format>
        <dc:type
           rdf:resource="http://purl.org/dc/dcmitype/StillImage" />
        <dc:title />
      </cc:Work>
    </rdf:RDF>
  </metadata>
  <g
     style="display:inline"
     id="layer2">
    <path
       id="path3943"
       d="M 21.454546,4 C 26,4 26,9 26,9 l 0,3 c -0.90909,0 -0.90909,1 -0.90909,1 0,0 0,-1 0,0 0,1 0.90909,1 0.90909,1 l 0,2 -4.545454,0 0,-2 c 0,0 0.90909,0 0.90909,-1 0,-1 0,0 0,0 0,0 0,-1 -0.90909,-1 l -3.636364,0 C 16.90909,13 7.8181818,13 6,13 L 6,8 c 1.8585362,0.018564 10.90909,0 11.818182,1 l 3.636364,0 c 3.727384,-0.8697931 0.773185,-4.0087505 0,-5 z"
       style="fill:#000000;fill-opacity:1;stroke:none" />
    <g
       id="g5944"
       style="display:inline"
       transform="translate(-32,-33)">
      <path
         style="fill:#000000;fill-opacity:1;stroke:none"
         id="path3001"
         d="M 50.065687,57.063084 A 7.8918166,7.8918166 0 0 1 42.17387,64.9549 7.8918166,7.8918166 0 0 1 34.282053,57.063084 7.8918166,7.8918166 0 0 1 42.17387,49.171267 7.8918166,7.8918166 0 0 1 50.065687,57.063084 Z"
         transform="matrix(0.38148416,0,0,0.38148416,25.920266,35.238591)" />
      <path
         style="fill:#000000;fill-opacity:1;stroke:none"
         id="path3001-7"
         d="M 50.065687,57.063084 A 7.8918166,7.8918166 0 0 1 42.17387,64.9549 7.8918166,7.8918166 0 0 1 34.282053,57.063084 7.8918166,7.8918166 0 0 1 42.17387,49.171267 7.8918166,7.8918166 0 0 1 50.065687,57.063084 Z"
         transform="matrix(0.38148416,0,0,0.38148416,37.911335,35.241938)" />
      <rect
         style="fill:#000000;fill-opacity:1;stroke:none"
         id="rect3794"
         width="22"
         height="3"
         x="37"
         y="50" />
    </g>
  </g>
</svg>
