<?xml version="1.0" encoding="UTF-8" standalone="no"?>
<!-- Created with Inkscape (http://www.inkscape.org/) -->

<svg
   xmlns:dc="http://purl.org/dc/elements/1.1/"
   xmlns:cc="http://creativecommons.org/ns#"
   xmlns:rdf="http://www.w3.org/1999/02/22-rdf-syntax-ns#"
   xmlns:svg="http://www.w3.org/2000/svg"
   xmlns="http://www.w3.org/2000/svg"
   xmlns:sodipodi="http://sodipodi.sourceforge.net/DTD/sodipodi-0.dtd"
   xmlns:inkscape="http://www.inkscape.org/namespaces/inkscape"
   width="32"
   height="32"
   id="svg3447"
   version="1.1"
   inkscape:version="0.92.2 (5c3e80d, 2017-08-06)"
   sodipodi:docname="button3-46-src_vector.svg">
  <defs
     id="defs3449">
    <mask
       maskUnits="userSpaceOnUse"
       id="mask4325">
      <path
         transform="translate(24.5,-0.5)"
         d="m 156,80 a 11,11 0 1 1 -22,0 11,11 0 1 1 22,0 z"
         sodipodi:ry="11"
         sodipodi:rx="11"
         sodipodi:cy="80"
         sodipodi:cx="145"
         id="path4327"
         style="fill:#ffffff;fill-opacity:1;fill-rule:evenodd;stroke:none;display:inline"
         sodipodi:type="arc" />
    </mask>
    <mask
       maskUnits="userSpaceOnUse"
       id="mask4639">
      <path
         style="fill:#ffffff;fill-opacity:1;fill-rule:evenodd;stroke:none"
         d="m 8,198 0,12 c 0,4.41828 3.58172,8 8,8 4.41828,0 8,-3.58172 8,-8 l 0,-12 -16,0 z"
         id="path4641"
         inkscape:connector-curvature="0" />
    </mask>
  </defs>
  <sodipodi:namedview
     id="base"
     pagecolor="#ffffff"
     bordercolor="#666666"
     borderopacity="1.0"
     inkscape:pageopacity="0.0"
     inkscape:pageshadow="2"
     inkscape:zoom="11.173391"
     inkscape:cx="11.725543"
     inkscape:cy="14.733512"
     inkscape:document-units="px"
     inkscape:current-layer="layer1"
     showgrid="true"
     inkscape:snap-bbox="true"
     inkscape:window-width="1920"
     inkscape:window-height="1017"
     inkscape:window-x="-8"
     inkscape:window-y="-8"
     inkscape:window-maximized="1"
     inkscape:snap-page="true">
    <inkscape:grid
       type="xygrid"
       id="grid3695"
       empspacing="5"
       visible="true"
       enabled="true"
       snapvisiblegridlinesonly="true" />
  </sodipodi:namedview>
  <metadata
     id="metadata3452">
    <rdf:RDF>
      <cc:Work
         rdf:about="">
        <dc:format>image/svg+xml</dc:format>
        <dc:type
           rdf:resource="http://purl.org/dc/dcmitype/StillImage" />
        <dc:title />
      </cc:Work>
    </rdf:RDF>
  </metadata>
  <g
     inkscape:label="Layer 1"
     inkscape:groupmode="layer"
     id="layer1"
     transform="translate(0,-1020.3622)">
    <g
       id="g842">
      <path
         id="path3331"
         d="m 0,1020.3622 h 31.996065 v 31.9961 H 0 Z"
         style="fill:#ffffff;fill-opacity:1;fill-rule:nonzero;stroke:none"
         inkscape:connector-curvature="0" />
      <path
         id="path3333"
         d="m 27.000002,1036.3425 c 0,6.0945 -4.925198,11.0197 -10.984253,11.0197 -6.0944886,0 -11.0196857,-4.9252 -11.0196857,-11.0197 0,-6.059 4.9251971,-10.9842 11.0196857,-10.9842 6.059055,0 10.984253,4.9252 10.984253,10.9842 z"
         style="fill:#000000;fill-opacity:1;fill-rule:nonzero;stroke:none"
         inkscape:connector-curvature="0" />
      <path
         id="path3335"
         d="m 25.01575,1036.3425 c 0,4.9961 -4.039371,9 -9.000001,9 -4.996063,0 -9.0000006,-4.0039 -9.0000006,-9 0,-4.9606 4.0039376,-9 9.0000006,-9 4.96063,0 9.000001,4.0394 9.000001,9 z"
         style="fill:#ffffff;fill-opacity:1;fill-rule:evenodd;stroke:none"
         inkscape:connector-curvature="0" />
      <path
         id="path3337"
         d="m 22.996064,1036.3425 c 0,3.8977 -3.11811,7.0158 -6.980315,7.0158 -3.897638,0 -7.0157485,-3.1181 -7.0157485,-7.0158 0,-3.8622 3.1181105,-6.9803 7.0157485,-6.9803 3.862205,0 6.980315,3.1181 6.980315,6.9803 z"
         style="fill:#000000;fill-opacity:1;fill-rule:evenodd;stroke:none"
         inkscape:connector-curvature="0" />
      <path
         id="path3339"
         d="m 21.011812,1036.3425 c 0,2.7638 -2.267716,5.0315 -4.996063,5.0315 -2.76378,0 -5.031496,-2.2677 -5.031496,-5.0315 0,-2.7283 2.267716,-4.996 5.031496,-4.996 2.728347,0 4.996063,2.2677 4.996063,4.996 z"
         style="fill:#ffffff;fill-opacity:1;fill-rule:evenodd;stroke:none"
         inkscape:connector-curvature="0" />
      <path
         id="path3341"
         d="m 18.992127,1036.3425 c 0,1.6654 -1.346457,3.0119 -2.976378,3.0119 -1.665354,0 -3.011811,-1.3465 -3.011811,-3.0119 0,-1.6299 1.346457,-2.9763 3.011811,-2.9763 1.629921,0 2.976378,1.3464 2.976378,2.9763 z"
         style="fill:#000000;fill-opacity:1;fill-rule:evenodd;stroke:none"
         inkscape:connector-curvature="0" />
      <path
         id="path3343"
         d="m 17.007875,1036.3425 c 0,0.567 -0.46063,1.0276 -0.992126,1.0276 -0.566929,0 -1.027559,-0.4606 -1.027559,-1.0276 0,-0.5314 0.46063,-0.9921 1.027559,-0.9921 0.531496,0 0.992126,0.4607 0.992126,0.9921 z"
         style="fill:#ffffff;fill-opacity:1;fill-rule:evenodd;stroke:none"
         inkscape:connector-curvature="0" />
    </g>
  </g>
</svg>
