<?xml version="1.0" encoding="UTF-8" standalone="no"?>
<svg
   xmlns:dc="http://purl.org/dc/elements/1.1/"
   xmlns:cc="http://creativecommons.org/ns#"
   xmlns:rdf="http://www.w3.org/1999/02/22-rdf-syntax-ns#"
   xmlns:svg="http://www.w3.org/2000/svg"
   xmlns="http://www.w3.org/2000/svg"
   height="32"
   width="32"
   version="1.1"
   id="svg4608">
  <metadata
     id="metadata4614">
    <rdf:RDF>
      <cc:Work
         rdf:about="">
        <dc:format>image/svg+xml</dc:format>
        <dc:type
           rdf:resource="http://purl.org/dc/dcmitype/StillImage" />
        <dc:title></dc:title>
      </cc:Work>
    </rdf:RDF>
  </metadata>
  <defs
     id="defs4612" />
  <g
     style="display:inline"
     id="layer6">
    <path
       transform="translate(0.2711864,0.13559327)"
       d="m 29.694915,15.864407 a 13.966102,14.033898 0 1 1 -27.9322035,0 13.966102,14.033898 0 1 1 27.9322035,0 z"
       id="path5146"
       style="fill:#0e3d00;fill-opacity:1;fill-rule:evenodd;stroke:none" />
    <path
       transform="matrix(0.73748886,0,0,0.73748886,3.0442434,2.6052616)"
       d="m 29.694915,15.864407 a 13.966102,14.033898 0 1 1 -27.9322035,0 13.966102,14.033898 0 1 1 27.9322035,0 z"
       id="path5146-1"
       style="fill:#032300;fill-opacity:1;fill-rule:evenodd;stroke:none;display:inline" />
    <path
       transform="matrix(0.23082035,0.0884795,-0.1059303,0.27634501,8.1516863,4.800544)"
       d="m 29.694915,15.864407 a 13.966102,14.033898 0 1 1 -27.9322035,0 13.966102,14.033898 0 1 1 27.9322035,0 z"
       id="path5146-1-7"
       style="fill:#083900;fill-opacity:1;fill-rule:evenodd;stroke:none;display:inline" />
  </g>
</svg>
