<?xml version="1.0" encoding="UTF-8" standalone="no"?>
<svg
   xmlns:dc="http://purl.org/dc/elements/1.1/"
   xmlns:cc="http://creativecommons.org/ns#"
   xmlns:rdf="http://www.w3.org/1999/02/22-rdf-syntax-ns#"
   xmlns:svg="http://www.w3.org/2000/svg"
   xmlns="http://www.w3.org/2000/svg"
   xmlns:xlink="http://www.w3.org/1999/xlink"
   height="64"
   width="64"
   version="1.1"
   id="svg4074">
  <metadata
     id="metadata4080">
    <rdf:RDF>
      <cc:Work
         rdf:about="">
        <dc:format>image/svg+xml</dc:format>
        <dc:type
           rdf:resource="http://purl.org/dc/dcmitype/StillImage" />
        <dc:title></dc:title>
      </cc:Work>
    </rdf:RDF>
  </metadata>
  <defs
     id="defs4078">
    <linearGradient
       id="linearGradient4648">
      <stop
         id="stop4650"
         offset="0"
         style="stop-color:#19fff1;stop-opacity:1;" />
      <stop
         id="stop4652"
         offset="1"
         style="stop-color:#002012;stop-opacity:1" />
    </linearGradient>
    <linearGradient
       gradientUnits="userSpaceOnUse"
       y2="61.554794"
       x2="32.81356"
       y1="33.351406"
       x1="33.355934"
       id="linearGradient4654"
       xlink:href="#linearGradient4648" />
  </defs>
  <g
     style="display:inline"
     id="layer5">
    <path
       id="path4638"
       d="M 42.71875 2.03125 C 39.257291 2.1365274 26.209418 3.8653394 38.90625 24.8125 C 40.426145 27.320015 27.931402 34.563581 25.09375 25.625 C 24.294812 23.10835 23.738347 16.947034 16.6875 25.625 C 14.920416 27.799873 10.17214 29.427966 13.96875 20.75 C 14.714817 19.044704 8.7673985 2.4563158 3.375 17.75 C 2.8396705 19.268278 4.7378178 21.288135 6.09375 24 C 6.09375 24 9.0847458 26.985699 0 29.96875 L 0 61.15625 C 0 61.15625 5.6912073 61.143538 10.84375 54.90625 L 18.96875 54.90625 C 18.96875 54.90625 26.563029 66.834216 34.15625 58.15625 L 41.75 57.90625 C 41.75 57.90625 43.652013 63.872352 46.90625 57.90625 C 46.90625 57.90625 52.896716 47.04661 60.21875 59.25 C 60.21875 59.25 61.016949 60.62394 64 61.4375 L 64 29.6875 C 64 29.6875 56.780495 28.747438 61.15625 23.46875 C 64.003708 20.033722 63.048728 8.53125 57.625 8.53125 C 57.625 8.53125 49.570592 5.1527996 54.65625 28.875 C 56.077824 35.505975 46.271309 44.326271 44.0625 33.75 C 43.26872 29.949205 58.446504 4.0651482 43.53125 2.03125 C 43.53125 2.03125 43.213244 2.0162104 42.71875 2.03125 z M 38.8125 5.1875 C 39.00388 5.1616306 39.180633 5.1581154 39.375 5.1875 C 40.929938 5.4225769 41.929574 7.4349096 41.59375 9.65625 C 41.257926 11.87759 39.711188 13.485077 38.15625 13.25 C 36.601312 13.014923 35.632926 11.00259 35.96875 8.78125 C 36.262596 6.8375771 37.472841 5.3685861 38.8125 5.1875 z M 13.5625 29.28125 C 15.28488 29.28125 16.6875 31.228646 16.6875 33.625 C 16.6875 36.021354 15.28488 37.96875 13.5625 37.96875 C 11.84012 37.96875 10.4375 36.021354 10.4375 33.625 C 10.4375 31.228646 11.84012 29.28125 13.5625 29.28125 z M 33.8125 34.78125 C 35.888535 34.717573 37.944371 37.071247 38.5625 40.3125 C 39.221837 43.769837 37.988061 46.922897 35.78125 47.34375 C 33.574439 47.764603 31.253087 45.301087 30.59375 41.84375 C 29.934413 38.386413 31.168189 35.233353 33.375 34.8125 C 33.512926 34.786197 33.674098 34.785495 33.8125 34.78125 z "
       style="fill:url(#linearGradient4654);fill-opacity:1;stroke:none" />
    <path
       d="m 13.966102,7.8644066 a 2.7118645,2.9830508 0 1 1 -5.4237293,0 2.7118645,2.9830508 0 1 1 5.4237293,0 z"
       id="path4640"
       style="fill:#19fff1;fill-opacity:1;fill-rule:evenodd;stroke:none" />
  </g>
</svg>
