<?xml version="1.0" encoding="UTF-8" standalone="no"?>
<svg
   xmlns:dc="http://purl.org/dc/elements/1.1/"
   xmlns:cc="http://creativecommons.org/ns#"
   xmlns:rdf="http://www.w3.org/1999/02/22-rdf-syntax-ns#"
   xmlns:svg="http://www.w3.org/2000/svg"
   xmlns="http://www.w3.org/2000/svg"
   xmlns:xlink="http://www.w3.org/1999/xlink"
   height="32"
   width="32"
   version="1.1"
   id="svg4290">
  <metadata
     id="metadata4296">
    <rdf:RDF>
      <cc:Work
         rdf:about="">
        <dc:format>image/svg+xml</dc:format>
        <dc:type
           rdf:resource="http://purl.org/dc/dcmitype/StillImage" />
        <dc:title></dc:title>
      </cc:Work>
    </rdf:RDF>
  </metadata>
  <defs
     id="defs4294">
    <linearGradient
       id="linearGradient4848">
      <stop
         id="stop4850"
         offset="0"
         style="stop-color:#117eff;stop-opacity:1" />
      <stop
         id="stop4852"
         offset="1"
         style="stop-color:#003bf7;stop-opacity:1" />
    </linearGradient>
    <radialGradient
       gradientUnits="userSpaceOnUse"
       gradientTransform="matrix(1,0,0,1.0026622,0.6779661,0.77167143)"
       r="12.778738"
       fy="15.734608"
       fx="14.696316"
       cy="15.734608"
       cx="14.696316"
       id="radialGradient4854"
       xlink:href="#linearGradient4848" />
    <filter
       height="1.4074584"
       y="-0.20372918"
       width="1.4085431"
       x="-0.20427154"
       id="filter4924">
      <feGaussianBlur
         id="feGaussianBlur4926"
         stdDeviation="2.175277" />
    </filter>
  </defs>
  <g
     id="layer6">
    <path
       id="path4838"
       d="m 18.223802,29.074282 c 0,0 -2.972245,0.575274 -4.506308,0.09588 -1.534062,-0.479394 -2.205214,-1.438183 -3.643397,-2.684608 -1.4381834,-1.246426 -2.1093356,-1.246426 -2.8763667,-1.246426 -0.7670311,0 -2.492851,0.767031 -2.7804877,0.09588 C 4.129606,24.663854 3.1708171,23.705065 3.8419693,22.650397 4.5131215,21.595729 5.1842737,21.212214 5.0883948,20.061667 4.992516,18.911121 4.2254849,18.431726 3.8419693,17.856453 3.4584538,17.28118 2.5955438,15.651238 2.5955438,14.69245 c 0,-0.958789 0.1917578,-2.013457 0.7670311,-2.876367 0.5752733,-0.86291 2.492851,-3.4516395 2.492851,-3.4516395 0,0 3.0681244,-2.6846088 3.4516399,-2.6846088 0.3835155,0 2.9722452,-1.8216989 3.8351552,-1.9175777 0.86291,-0.095879 4.31455,0.095879 4.889823,0.095879 0.575274,0 3.835156,1.8216989 4.602187,2.2052144 0.767031,0.3835156 3.643397,3.5475188 4.218671,3.8351554 0.575273,0.2876372 1.054668,4.3145492 1.246425,4.8898232 0.191758,0.575273 -0.191757,5.752733 -0.191757,5.752733 0,0 0.479394,2.492851 -1.054668,3.643397 -1.534062,1.150547 -2.205215,1.821699 -3.259882,2.396972 -1.054668,0.575274 -2.396972,0.383516 -2.876367,0.575274 -0.479394,0.191758 -2.492851,1.917577 -2.492851,1.917577 z"
       style="fill:url(#radialGradient4854);fill-opacity:1;stroke:none;filter:url(#filter4924)" />
  </g>
</svg>
