<?xml version="1.0" encoding="UTF-8" standalone="no"?>
<svg
   xmlns:dc="http://purl.org/dc/elements/1.1/"
   xmlns:cc="http://creativecommons.org/ns#"
   xmlns:rdf="http://www.w3.org/1999/02/22-rdf-syntax-ns#"
   xmlns:svg="http://www.w3.org/2000/svg"
   xmlns="http://www.w3.org/2000/svg"
   version="1.1"
   id="svg2"
   height="32"
   width="32">
  <defs
     id="defs4">
    <filter
       id="filter3820">
      <feGaussianBlur
         id="feGaussianBlur3822"
         stdDeviation="1.050604" />
    </filter>
    <filter
       height="1.2344444"
       y="-0.1172222"
       width="1.2458253"
       x="-0.12291265"
       id="filter3862">
      <feGaussianBlur
         id="feGaussianBlur3864"
         stdDeviation="1.2497257" />
    </filter>
    <filter
       height="1.5211992"
       y="-0.26059958"
       width="1.444837"
       x="-0.22241852"
       id="filter4098">
      <feGaussianBlur
         id="feGaussianBlur4100"
         stdDeviation="1.0161188" />
    </filter>
    <filter
       height="1.316318"
       y="-0.15815902"
       width="1.3582938"
       x="-0.17914689"
       id="filter4168">
      <feGaussianBlur
         id="feGaussianBlur4170"
         stdDeviation="1.1557149" />
    </filter>
  </defs>
  <metadata
     id="metadata7">
    <rdf:RDF>
      <cc:Work
         rdf:about="">
        <dc:format>image/svg+xml</dc:format>
        <dc:type
           rdf:resource="http://purl.org/dc/dcmitype/StillImage" />
        <dc:title></dc:title>
      </cc:Work>
    </rdf:RDF>
  </metadata>
  <g
     style="display:inline;opacity:0.98"
     id="layer3">
    <path
       id="path3790"
       d="m 8.9285715,18.875 c 0,0 -6.7857144,-0.803571 -6.1607143,-4.107143 0.625,-3.303571 0.9821428,-5.4464285 3.75,-5.0892856 2.7678571,0.3571426 -0.5357143,-5.5357143 5.6249998,-5.1785715 6.160714,0.3571429 3.392857,-3.125 9.642857,-0.8035714 6.25,2.3214286 6.428572,0.8035714 6.517858,5.8035714 0.08929,5.0000001 1.607142,5.7142861 -1.160715,7.9464291 -2.767857,2.232142 -3.214286,3.392857 -2.410714,5.714285 0.803571,2.321429 0.357143,1.071429 -2.678572,3.214286 -3.035714,2.142857 -3.125,3.928571 -6.428571,2.410714 C 12.321429,27.267857 11.25,24.053571 9.6428572,24.142857 8.0357143,24.232143 11.517857,27.535714 8.0357143,27.625 4.5535714,27.714286 4.0178572,28.785714 4.375,26.196429 c 0.3571429,-2.589286 0.7142857,-1.964286 1.9642857,-2.857143 1.25,-0.892857 2.8571429,-2.5 2.5892858,-4.464286 z"
       style="fill:#204000;fill-opacity:1;stroke:#183100;stroke-width:1px;stroke-linecap:butt;stroke-linejoin:miter;stroke-opacity:1;filter:url(#filter3820)" />
    <path
       id="path3824"
       d="m 18.482143,25.571429 c 0,0 -4.821429,3.928571 -6.160714,1.517857 C 10.982143,24.678571 8.9285715,25.660714 7.5,23.25 6.0714286,20.839286 3.125,20.928571 6.4285714,19.053571 9.7321429,17.178571 11.25,17.892857 11.071429,15.75 10.892857,13.607143 9.0178572,15.839286 6.6071429,13.696429 4.1964286,11.553571 3.9285714,12.446429 5.0892857,10.214286 6.25,7.9821428 4.1071429,5.4821428 7.8571429,3.4285714 11.607143,1.3749999 14.642857,2.6249999 16.964286,3.0714285 c 2.321428,0.4464286 7.321428,3.8392857 8.214285,3.3035714 0.892858,-0.5357143 3.482143,-4.5535714 3.303572,1.5178572 -0.178571,6.0714289 0,9.9999999 -2.232143,9.9107139 -2.232143,-0.08929 -6.696429,0.357143 -7.232143,-1.785714 -0.535714,-2.142857 -3.035714,4.285714 0.357143,4.375 3.392857,0.08929 8.75,0 9.285714,0 0.535715,0 -0.267857,3.125 -1.875,5.089286 -1.607143,1.964286 -4.732143,2.232143 -5.625,1.071428 -0.892857,-1.160714 -2.678571,-0.982142 -2.678571,-0.982142 z"
       style="fill:#6ad400;fill-opacity:1;stroke:none;filter:url(#filter3862)" />
    <path
       id="path3880"
       d="M 5.625,4.6785713 C 6.25,7.6249999 6.875,7.4464285 8.9285715,8.7857142 10.982143,10.125 12.946429,12.625 15.089286,12 17.232143,11.375 16.607143,7.8928571 16.071429,6.5535714 15.535714,5.2142856 15.267857,4.1428571 13.392857,3.3392856 11.517857,2.5357142 7.2321429,2.7142856 6.4285714,2.892857 5.625,3.0714285 5.625,4.6785713 5.625,4.6785713 z"
       style="fill:#478a00;fill-opacity:1;stroke:none;filter:url(#filter4098)" />
    <path
       id="path4102"
       d="m 20.178571,19.5 c -1.160714,1.428571 0.535715,3.214286 -1.25,4.642857 -1.785714,1.428572 -3.571428,0.08929 -4.910714,-0.08929 C 12.678571,23.875 9.9107143,24.946429 10,23.071429 c 0.08929,-1.875 -1.6071428,-3.035715 0,-4.107143 1.607143,-1.071429 1.339286,-5 3.392857,-5 2.053572,0 3.125,-2.589286 2.678572,-3.214286 -0.446429,-0.625 0.267857,-2.6785715 1.517857,-3.2142858 1.25,-0.5357143 2.053571,-0.2678571 3.660714,0.5357143 1.607143,0.8035714 4.642857,2.9464285 3.125,4.2857145 -1.517857,1.339286 -3.75,3.392857 -3.75,4.375 0,0.982143 -0.446429,2.767857 -0.446429,2.767857 z"
       style="fill:#85ff00;stroke:none;stroke-width:1px;stroke-linecap:butt;stroke-linejoin:miter;stroke-opacity:1;fill-opacity:1;filter:url(#filter4168)" />
  </g>
</svg>
