<?xml version="1.0" encoding="UTF-8" standalone="no"?>
<svg
   xmlns:dc="http://purl.org/dc/elements/1.1/"
   xmlns:cc="http://creativecommons.org/ns#"
   xmlns:rdf="http://www.w3.org/1999/02/22-rdf-syntax-ns#"
   xmlns:svg="http://www.w3.org/2000/svg"
   xmlns="http://www.w3.org/2000/svg"
   xmlns:xlink="http://www.w3.org/1999/xlink"
   height="32"
   width="32"
   version="1.1"
   id="svg6129">
  <metadata
     id="metadata6135">
    <rdf:RDF>
      <cc:Work
         rdf:about="">
        <dc:format>image/svg+xml</dc:format>
        <dc:type
           rdf:resource="http://purl.org/dc/dcmitype/StillImage" />
        <dc:title></dc:title>
      </cc:Work>
    </rdf:RDF>
  </metadata>
  <defs
     id="defs6133">
    <linearGradient
       id="linearGradient6677">
      <stop
         id="stop6679"
         offset="0"
         style="stop-color:#0732ce;stop-opacity:1;" />
      <stop
         id="stop6681"
         offset="1"
         style="stop-color:#041a6b;stop-opacity:1;" />
    </linearGradient>
    <radialGradient
       gradientUnits="userSpaceOnUse"
       gradientTransform="matrix(1,0,0,0.93351972,0,1.0687841)"
       r="14.108365"
       fy="16.076708"
       fx="16.065483"
       cy="16.076708"
       cx="16.065483"
       id="radialGradient6683"
       xlink:href="#linearGradient6677" />
    <filter
       height="1.2485458"
       y="-0.12427288"
       width="1.2320224"
       x="-0.11601118"
       id="filter6833">
      <feGaussianBlur
         id="feGaussianBlur6835"
         stdDeviation="1.3639401" />
    </filter>
  </defs>
  <g
     style="display:inline"
     id="layer12">
    <path
       id="path6667"
       d="m 15.389831,28.949153 c -0.0904,-0.0452 -0.175308,-0.103634 -0.271187,-0.135594 -0.04288,-0.01429 -0.09039,0 -0.135593,0 -0.0452,0 -0.0904,0 -0.135593,0 -0.180791,0 -0.361582,0 -0.542373,0 -0.0452,0 -0.0904,0 -0.135593,0 -0.0452,0 -0.09272,0.01429 -0.135594,0 -0.528058,-0.176019 -0.01268,-0.135593 -0.542373,-0.135593 -0.135593,0 -0.271186,0 -0.406779,0 -0.0452,0 -0.09799,0.02507 -0.135593,0 -0.106369,-0.07091 -0.156845,-0.214015 -0.271187,-0.271186 -0.08085,-0.04043 -0.180791,0 -0.271186,0 -0.135594,0 -0.271187,0 -0.40678,0 -0.09039,0 -0.18543,0.02858 -0.271186,0 -0.06064,-0.02021 -0.07842,-0.107008 -0.135594,-0.135594 -0.04043,-0.02021 -0.09272,0.01429 -0.135593,0 -0.09588,-0.03196 -0.175307,-0.103633 -0.271186,-0.135593 -0.04288,-0.01429 -0.09272,0.01429 -0.135594,0 -0.09588,-0.03196 -0.18079,-0.0904 -0.271186,-0.135593 -0.0904,-0.0452 -0.187095,-0.07953 -0.271186,-0.135593 -0.05318,-0.03546 -0.0904,-0.0904 -0.135594,-0.135593 -0.104492,-0.104493 -0.166694,-0.166695 -0.271186,-0.271187 -0.2711865,-0.271186 -0.542373,-0.542373 -0.8135594,-0.813559 -0.090395,-0.0904 -0.180791,-0.180791 -0.2711864,-0.271187 -0.045198,-0.0452 -0.078422,-0.107007 -0.1355933,-0.135593 -0.040426,-0.02021 -0.095167,0.02021 -0.1355932,0 -0.057171,-0.02858 -0.074954,-0.11538 -0.1355932,-0.135593 -0.617259,0 -0.00775,0.06392 -0.4067797,-0.135593 -0.040426,-0.02021 -0.090395,0 -0.1355932,0 -0.045198,0 -0.090395,0 -0.1355932,0 -0.3163842,0 -0.6327684,0 -0.9491525,0 -0.04333,0 -0.387223,0.0098 -0.4067797,0 -0.057171,-0.02859 -0.1001372,-0.08241 -0.1355932,-0.135594 -0.056061,-0.08409 -0.079532,-0.187095 -0.1355933,-0.271186 -0.035456,-0.05318 -0.1153801,-0.07495 -0.1355932,-0.135593 -0.028586,-0.08576 0,-0.180791 0,-0.271187 0,-0.0452 0,-0.0904 0,-0.135593 0,-0.271186 0,-0.542373 0,-0.813559 0,-0.135593 0,-0.271187 0,-0.40678 0,-0.0452 0,-0.0904 0,-0.135593 0,-0.0452 0.010962,-0.09174 0,-0.135593 -0.1993206,-0.797283 -0.015068,-0.158195 -0.2711864,-0.542373 -0.056061,-0.08409 -0.074954,-0.190334 -0.1355932,-0.271187 -0.076703,-0.10227 -0.180791,-0.180791 -0.2711865,-0.271186 -0.090395,-0.0904 -0.1807909,-0.180791 -0.2711864,-0.271186 -0.045198,-0.0452 -0.078422,-0.107008 -0.1355932,-0.135594 -0.040426,-0.02021 -0.090396,0 -0.1355933,0 -0.2976113,0 -0.534587,-0.03179 -0.8135593,0.135594 -0.1096206,0.06577 -0.1807909,0.18079 -0.2711864,0.271186 -0.045198,0.0452 -0.090395,0.0904 -0.1355932,0.135593 -0.045198,0.0452 -0.090396,0.0904 -0.1355933,0.135593 -0.045198,0.0452 -0.1070076,0.07842 -0.1355932,0.135594 -0.020213,0.04043 0,0.0904 0,0.135593 0,0.0452 0,0.0904 0,0.135593 0,0.180791 0,0.361582 0,0.542373 0,0.0452 -0.025071,0.09799 0,0.135593 0.070912,0.106368 0.1568442,0.214015 0.2711865,0.271187 0.080852,0.04043 0.1854297,-0.02859 0.2711864,0 0.060639,0.02021 0.090395,0.0904 0.1355932,0.135593 0.045198,0.0452 0.090396,0.0904 0.1355932,0.135593 0.045198,0.0452 0.180791,0.0904 0.1355933,0.135593 -0.063919,0.06392 -0.1854298,-0.02858 -0.2711865,0 C 4.0749541,24.494789 4.0571711,24.581584 4,24.610169 c -0.040426,0.02021 -0.090396,0 -0.1355932,0 -0.090395,0 -0.180791,0 -0.2711865,0 -0.045198,0 -0.099435,0.02712 -0.1355932,0 -0.1534062,-0.115054 -0.2533734,-0.291725 -0.4067796,-0.406779 -0.2875071,-0.21563 0.018534,0.502377 -0.4067797,-0.135593 -0.050142,-0.07521 0,-0.180791 0,-0.271187 0,-0.135593 0,-0.271186 0,-0.406779 0,-0.316385 0,-0.632769 0,-0.949153 0,-0.04333 -0.00978,-0.387223 0,-0.40678 0.028586,-0.05717 0.1001372,-0.08241 0.1355932,-0.135593 0.3283576,-0.492536 -0.039706,-0.09589 0.2711865,-0.40678 0.045198,-0.0452 0.078422,-0.107007 0.1355932,-0.135593 0.040426,-0.02021 0.095167,0.02021 0.1355932,0 0.057171,-0.02858 0.078422,-0.107007 0.1355932,-0.135593 0.040426,-0.02021 0.090396,0 0.1355932,0 0.045198,0 0.090396,0 0.1355933,0 0.3163841,0 0.6327683,0 0.9491525,0 0.04333,0 0.387223,0.0098 0.4067797,0 0.1675528,-0.08378 0.1355932,-0.130913 0.1355932,-0.271186 0,-0.0452 0.020213,-0.09517 0,-0.135594 -0.028586,-0.05717 -0.090395,-0.0904 -0.1355932,-0.135593 -0.045198,-0.0452 -0.078422,-0.107008 -0.1355933,-0.135593 -0.040426,-0.02021 -0.097986,0.02507 -0.1355932,0 -0.106368,-0.07091 -0.1807909,-0.180791 -0.2711864,-0.271187 -0.045198,-0.0452 -0.1070077,-0.07842 -0.1355932,-0.135593 -0.020213,-0.04043 0.03196,-0.103633 0,-0.135593 C 4.2416294,19.83485 4.1038358,19.936485 4,19.728814 3.979787,19.688387 4.020213,19.633646 4,19.59322 3.9714144,19.536049 3.9096045,19.502825 3.8644068,19.457627 3.819209,19.412429 3.7819976,19.35749 3.7288136,19.322034 3.6447222,19.265973 3.553506,19.2184 3.4576271,19.186441 c -0.042878,-0.01429 -0.090395,0 -0.1355932,0 -0.045198,0 -0.090396,0 -0.1355932,0 -0.090396,0 -0.1854298,0.02859 -0.2711865,0 -0.060639,-0.02021 -0.090395,-0.0904 -0.1355932,-0.135594 -0.045198,-0.0452 -0.1070076,-0.07842 -0.1355932,-0.135593 -0.020213,-0.04043 0,-0.0904 0,-0.135593 0,-0.0452 0,-0.0904 0,-0.135593 0,-0.225989 0,-0.451978 0,-0.677966 0,-0.225989 0,-0.451978 0,-0.677966 0,-0.0904 0,-0.180791 0,-0.271187 0,-0.0452 -0.020213,-0.09517 0,-0.135593 0.028586,-0.05717 0.1355932,-0.07167 0.1355932,-0.135593 0,-0.06392 -0.082409,-0.100137 -0.1355932,-0.135594 -0.1830573,-0.122038 -0.5733279,-0.197503 -0.6779661,-0.406779 -0.020213,-0.04043 0,-0.0904 0,-0.135593 0,-0.0452 0,-0.0904 0,-0.135594 0,-0.180791 0,-0.361582 0,-0.542373 0,-0.361581 0,-0.723163 0,-1.084745 0,-0.05754 -0.012458,-0.369405 0,-0.40678 0.03196,-0.09588 0.1036336,-0.175307 0.1355932,-0.271186 0.014293,-0.04288 -0.020213,-0.09517 0,-0.135594 0.028586,-0.05717 0.1070077,-0.07842 0.1355932,-0.135593 0.020213,-0.04043 -0.020213,-0.09517 0,-0.135593 0.028586,-0.05717 0.1070077,-0.07842 0.1355933,-0.135593 0.020213,-0.04043 -0.020213,-0.09517 0,-0.135593 0.028586,-0.05717 0.090395,-0.0904 0.1355932,-0.135594 0.1043294,-0.104329 0.166857,-0.166857 0.2711864,-0.271186 0.045198,-0.0452 0.1070077,-0.07842 0.1355932,-0.135593 0.020213,-0.04043 -0.020213,-0.09517 0,-0.135594 C 2.9929775,12.11574 3.1981712,12.082575 3.3220339,12 c 0.053184,-0.03546 0.078422,-0.107008 0.1355932,-0.135593 0.080852,-0.04043 0.1903343,0.04043 0.2711865,0 0.057171,-0.02859 0.084458,-0.09724 0.1355932,-0.135593 0.027206,-0.02041 0.4807067,-0.283448 0.5423729,-0.40678 0.020213,-0.04043 0,-0.0904 0,-0.135593 0,-0.135594 0,-0.271187 0,-0.40678 0,-0.497175 0,-0.9943503 0,-1.4915254 0,-0.180791 0,-0.3615819 0,-0.5423729 0,-0.045198 0,-0.090395 0,-0.1355932 0,-0.045198 -0.014293,-0.092715 0,-0.1355932 0.082089,-0.2462682 0.1160472,-0.2516405 0.2711864,-0.4067797 0.045198,-0.045198 0.082409,-0.1001372 0.1355932,-0.1355932 0.462594,-0.308396 0.076033,0.01489 0.6779661,-0.1355932 0.062011,-0.015503 0.090396,-0.090395 0.1355932,-0.1355933 0.1645769,-0.1645768 0.3004297,-0.3462938 0.5423729,-0.4067796 0.087696,-0.021924 0.18349,0.021924 0.2711865,0 0.098048,-0.024512 0.1753075,-0.1036336 0.2711864,-0.1355932 0.042878,-0.014293 0.095167,0.020213 0.1355932,0 0.057171,-0.028586 0.078422,-0.1070077 0.1355933,-0.1355933 0.1167136,-0.058357 0.2325694,0.087105 0.4067796,0 0.1143423,-0.057171 0.1648184,-0.2002744 0.2711865,-0.2711864 0.037607,-0.025071 0.090395,0 0.1355932,0 0.1355932,0 0.2711864,0 0.4067796,0 0.045198,0 0.090395,0 0.1355933,0 0.045198,0 0.095167,0.020213 0.1355932,0 0.057171,-0.028586 0.078422,-0.1070077 0.1355932,-0.1355932 0.080852,-0.040426 0.1854298,0.028586 0.2711864,0 0.4915649,-0.163855 0.096501,-0.064334 0.4067797,-0.2711865 0.084091,-0.056061 0.1870951,-0.079532 0.2711864,-0.1355932 0.12405,-0.0827 0.2382536,-0.275048 0.2711865,-0.4067796 0.021924,-0.087696 0,-0.180791 0,-0.2711865 0,-0.045198 0,-0.090395 0,-0.1355932 0,-0.045198 -0.010962,-0.091745 0,-0.1355932 0.034665,-0.1386604 0.1009281,-0.2681194 0.1355932,-0.4067797 0.013333,-0.05333 0,-0.3362763 0,-0.4067797 0,-0.3163841 0,-0.6327683 0,-0.9491525 0,-0.04333 -0.00978,-0.387223 0,-0.4067797 0.028586,-0.057171 0.078422,-0.1070076 0.1355933,-0.1355932 0.04043,-0.020213 0.0904,0 0.135593,0 0.0452,0 0.0904,0 0.135593,0 0.0452,0 0.09272,-0.014293 0.135594,0 0.09588,0.03196 0.175307,0.1036336 0.271186,0.1355932 0.20339,0.067797 0.135593,-0.1355932 0.40678,0 0.114342,0.057171 0.164818,0.2002744 0.271186,0.2711865 0.03761,0.025071 0.0904,0 0.135593,0 0.154276,0 0.605162,-0.018201 0.677966,0 0.06201,0.015503 0.07842,0.1070076 0.135594,0.1355932 0.04043,0.020213 0.09272,-0.014293 0.135593,0 0.09588,0.03196 0.175307,0.1036336 0.271186,0.1355932 0.03738,0.012458 0.349245,0 0.40678,0 0.316384,0 0.632768,0 0.949153,0 0.0904,0 0.18079,0 0.271186,0 0.0452,0 0.09272,-0.014293 0.135593,0 0.09588,0.03196 0.175308,0.1036336 0.271187,0.1355932 0.04288,0.014293 0.09517,-0.020213 0.135593,0 0.05717,0.028586 0.0904,0.090396 0.135593,0.1355933 0.07929,0.079285 0.191902,0.1919017 0.271187,0.2711864 0.0452,0.045198 0.07842,0.1070077 0.135593,0.1355932 0.09404,0.047021 0.719516,0.224165 0.813559,0.2711865 0.05717,0.028586 0.07167,0.1355932 0.135593,0.1355932 1.294565,0 0.02093,-0.1390819 0.81356,-0.2711865 0.178331,-0.029722 0.363399,0.025568 0.542372,0 0.141492,-0.020213 0.26812,-0.1009281 0.40678,-0.1355932 0.04385,-0.010962 0.0904,0 0.135593,0 0.0904,0 0.180791,0 0.271187,0 0.406779,0 0.813559,0 1.220339,0 0.225988,0 0.451977,0 0.677966,0 0.135593,0 0.271186,0 0.40678,0 0.0452,0 0.09174,-0.010962 0.135593,0 0.13866,0.034665 0.274074,0.082511 0.406779,0.1355932 0.09384,0.037535 0.190335,0.074954 0.271187,0.1355933 0.153406,0.1150546 0.271186,0.2711864 0.40678,0.4067796 0.05518,0.055184 0.403476,0.4034769 0.542372,0.5423729 0.135594,0.1355932 0.28699,0.257042 0.40678,0.4067797 0.06313,0.078919 0.0836,0.1845237 0.135593,0.2711864 0.08384,0.1397394 0.169385,0.2795271 0.271187,0.4067797 0.07986,0.099825 0.180791,0.1807909 0.271186,0.2711864 0.225989,0.2259887 0.451978,0.4519774 0.677966,0.6779661 0.0452,0.045198 0.0904,0.090395 0.135594,0.1355932 0.0452,0.045198 0.107007,0.078422 0.135593,0.1355933 0.02021,0.040426 -0.02021,0.095167 0,0.1355932 0.02858,0.057171 0.107007,0.078422 0.135593,0.1355932 0.04043,0.080852 -0.04043,0.1903343 0,0.2711864 0.07288,0.1457584 0.198307,0.2610214 0.271186,0.4067797 0.02021,0.040426 0,0.090395 0,0.1355932 0,0.1355932 0,0.2711865 0,0.4067797 0,0.045198 -0.02021,0.095167 0,0.1355932 0.02859,0.057171 0.0904,0.090396 0.135594,0.1355932 0.0452,0.045198 0.07495,0.1153802 0.135593,0.1355932 0.08576,0.028586 0.18543,-0.028586 0.271186,0 0.06064,0.020213 0.0904,0.090395 0.135593,0.1355933 0.225989,0.2259885 0.451978,0.4519775 0.677967,0.6779665 0.271186,0.271186 0.542372,0.542372 0.813559,0.813559 0.0452,0.0452 0.0904,0.09039 0.135593,0.135593 0.0452,0.0452 0.107008,0.07842 0.135593,0.135593 0.02021,0.04043 -0.02021,0.09517 0,0.135594 0.05717,0.114342 0.214016,0.156844 0.271187,0.271186 0.02021,0.04043 0,0.09039 0,0.135593 0,0.621786 0.02858,-0.142928 -0.135593,0.677966 -0.01773,0.08864 0,0.180791 0,0.271187 0,0.180791 0,0.361582 0,0.542373 0,0.135593 0,0.271186 0,0.406779 0,0.0452 0,0.0904 0,0.135594 0,0.0452 -0.01429,0.09271 0,0.135593 0.03196,0.09588 0.103633,0.175307 0.135593,0.271186 0.01246,0.03737 0,0.349244 0,0.40678 0,0.449186 -0.04239,0.775377 0.135593,1.220339 0.02374,0.05935 0.100137,0.08241 0.135593,0.135593 0.05606,0.08409 0.07246,0.192268 0.135593,0.271186 0.159721,0.199651 0.361582,0.361582 0.542373,0.542373 0.0452,0.0452 0.100138,0.08241 0.135594,0.135594 0.08258,0.123862 0.11574,0.329056 0.271186,0.406779 0.04043,0.02021 0.09174,-0.01096 0.135593,0 0.138661,0.03466 0.26812,0.100928 0.40678,0.135593 0.04385,0.01096 0.09517,-0.02021 0.135593,0 0.05717,0.02859 0.0904,0.0904 0.135593,0.135594 0.0452,0.0452 0.107008,0.07842 0.135594,0.135593 0.0098,0.01956 0,0.363449 0,0.40678 0,0.293533 0.04043,0.278343 -0.135594,0.542372 -0.03546,0.05318 -0.08241,0.100138 -0.135593,0.135594 -0.08409,0.05606 -0.190334,0.07495 -0.271186,0.135593 -0.58648,0.58648 0.03592,0.02125 -0.542373,0.40678 -0.05318,0.03546 -0.07842,0.107007 -0.135593,0.135593 -0.127839,0.06392 -0.284221,0.06206 -0.40678,0.135593 -0.109621,0.06577 -0.180791,0.180791 -0.271187,0.271186 -0.0452,0.0452 -0.07842,0.107008 -0.135593,0.135594 -0.04043,0.02021 -0.0904,0 -0.135593,0 -0.135593,0 -0.271186,0 -0.40678,0 -0.147003,0 -0.340275,-0.06392 -0.406779,0.135593 -0.02859,0.08576 0.02859,0.18543 0,0.271186 -0.02021,0.06064 -0.11538,0.07495 -0.135594,0.135594 -0.02858,0.08576 0,0.18079 0,0.271186 0,0.135593 0,0.271186 0,0.40678 0,0.0452 0.01429,0.09271 0,0.135593 -0.03196,0.09588 -0.103633,0.175307 -0.135593,0.271186 -0.01429,0.04288 0,0.0904 0,0.135594 0,0.0452 0,0.09039 0,0.135593 0,0.180791 0,0.361582 0,0.542373 0,0.0904 0.02192,0.18349 0,0.271186 -0.02451,0.09805 -0.111081,0.173139 -0.135593,0.271187 -0.01375,0.05499 0,0.437777 0,0.542372 0,0.451978 0,0.903955 0,1.355933 0,0.135593 0,0.271186 0,0.406779 0,0.0452 0.01429,0.09271 0,0.135593 -0.09638,0.289147 -0.186044,0.321638 -0.40678,0.542373 -0.0904,0.0904 -0.180791,0.180791 -0.271186,0.271187 -0.0452,0.0452 -0.07842,0.107007 -0.135593,0.135593 -0.04043,0.02021 -0.0904,0 -0.135594,0 -0.0452,0 -0.09039,0 -0.135593,0 -0.180791,0 -0.361582,0 -0.542373,0 -0.316384,0 -0.632768,0 -0.949152,0 -0.0904,0 -0.180791,0 -0.271187,0 -0.0452,0 -0.09517,0.02021 -0.135593,0 -0.05717,-0.02859 -0.08241,-0.100137 -0.135593,-0.135593 -0.08409,-0.05606 -0.190334,-0.07495 -0.271186,-0.135593 -0.153407,-0.115055 -0.271187,-0.271187 -0.40678,-0.40678 -0.0452,-0.0452 -0.107008,-0.07842 -0.135593,-0.135593 -0.02021,-0.04043 0.02021,-0.09517 0,-0.135594 -0.02859,-0.05717 -0.107008,-0.07842 -0.135594,-0.135593 -0.02021,-0.04043 0,-0.0904 0,-0.135593 0,-0.0452 0,-0.0904 0,-0.135593 0,-0.316384 0,-0.632769 0,-0.949153 0,-0.0452 0,-0.09039 0,-0.135593 0,-0.0452 0.02021,-0.09517 0,-0.135593 -0.149902,-0.299804 -0.08415,-0.04208 -0.271186,-0.135593 -0.05717,-0.02859 -0.07842,-0.107008 -0.135593,-0.135594 -0.04043,-0.02021 -0.09517,0.02021 -0.135593,0 -0.114343,-0.05717 -0.156845,-0.214015 -0.271187,-0.271186 -0.04043,-0.02021 -0.0904,0 -0.135593,0 -0.09656,0 -0.499859,0.01417 -0.542373,0 -0.06064,-0.02021 -0.07167,-0.135593 -0.135593,-0.135593 -0.0452,0 0,0.09039 0,0.135593 0,0.0452 0,0.09039 0,0.135593 0,0.180791 0,0.361582 0,0.542373 0,0.135593 0,0.271186 0,0.40678 0,0.0452 -0.01429,0.09271 0,0.135593 0.08209,0.246268 0.116047,0.25164 0.271186,0.40678 0.0452,0.0452 0.107008,0.07842 0.135593,0.135593 0.02021,0.04043 -0.02021,0.09517 0,0.135593 0.02378,0.04756 0.262768,0.237513 0.271187,0.271186 0.07069,0.282777 -0.01741,0.644374 -0.271187,0.81356 -0.168182,0.112122 -0.37419,0.159064 -0.542372,0.271186 -0.299269,0.199513 0.0694,0.135593 -0.40678,0.135593 -0.0452,0 -0.09517,0.02021 -0.135593,0 -0.114343,-0.05717 -0.149909,-0.23076 -0.271187,-0.271186 -0.08576,-0.02859 -0.18543,0.02859 -0.271186,0 -0.06064,-0.02021 -0.0904,-0.0904 -0.135593,-0.135593 -0.0452,-0.0452 -0.107008,-0.07842 -0.135594,-0.135593 -0.02021,-0.04043 0.02021,-0.09517 0,-0.135594 -0.02858,-0.05717 -0.09039,-0.0904 -0.135593,-0.135593 -0.0452,-0.0452 -0.07842,-0.107008 -0.135593,-0.135593 -0.04043,-0.02021 -0.0904,0 -0.135593,0 -0.0452,0 -0.0904,0 -0.135594,0 -0.18079,0 -0.361581,0 -0.542372,0 -0.0452,0 -0.09517,0.02021 -0.135594,0 -0.05717,-0.02859 -0.07842,-0.107008 -0.135593,-0.135593 -0.04043,-0.02021 -0.09517,0.02021 -0.135593,0 -0.114342,-0.05717 -0.156844,-0.214016 -0.271187,-0.271187 -0.04043,-0.02021 -0.09039,0 -0.135593,0 -0.0452,0 -0.0904,0 -0.135593,0 -0.0452,0 -0.09175,-0.01096 -0.135593,0 -0.06839,0.0171 -0.484164,0.09656 -0.542373,0.271187 -0.02859,0.08576 0,0.180791 0,0.271186 0,0.0452 -0.02021,0.09517 0,0.135593 0.02859,0.05717 0.180791,0.0904 0.135593,0.135594 -0.0452,0.0452 -0.0904,-0.0904 -0.135593,-0.135594 -0.0904,-0.0904 -0.180791,-0.180791 -0.271186,-0.271186 -0.310893,-0.310893 0.08576,0.05717 -0.40678,-0.271187 -0.106368,-0.07091 -0.156844,-0.214015 -0.271187,-0.271186 -0.04043,-0.02021 -0.09517,0.02021 -0.135593,0 -0.05717,-0.02859 -0.08241,-0.100137 -0.135593,-0.135593 -0.154636,-0.103091 -0.346684,-0.200823 -0.542373,-0.135593 -0.06064,0.02021 -0.09039,0.09039 -0.135593,0.135593 -0.0452,0.0452 -0.107008,0.07842 -0.135593,0.135593 -0.04043,0.08085 0.02858,0.18543 0,0.271186 -0.03196,0.09588 -0.103634,0.175308 -0.135594,0.271187 -0.01246,0.03738 0,0.349244 0,0.40678 0,0.0452 -0.02021,0.09517 0,0.135593 0.123452,0.246903 0.102859,0.07948 0.271187,0.135593 0.09588,0.03196 0.187095,0.07953 0.271186,0.135593 0.106368,0.07091 0.156844,0.214016 0.271187,0.271187 0.08085,0.04043 0.190334,-0.04043 0.271186,0 0.05717,0.02859 0.07495,0.11538 0.135593,0.135593 0.08576,0.02858 0.180791,0 0.271187,0 0.0452,0 0.09517,-0.02021 0.135593,0 0.05717,0.02858 0.0904,0.0904 0.135593,0.135593 0.0452,0.0452 0.107008,0.07842 0.135594,0.135593 0.0098,0.01956 0,0.36345 0,0.40678 0,0.0904 0,0.180791 0,0.271186 0,0.0452 0.02021,0.09517 0,0.135594 -0.02859,0.05717 -0.0904,0.09039 -0.135594,0.135593 -0.0452,0.0452 -0.07842,0.107008 -0.135593,0.135593 -0.04043,0.02021 -0.09517,-0.02021 -0.135593,0 -0.05717,0.02859 -0.0904,0.0904 -0.135593,0.135593 -0.0452,0.0452 -0.0904,0.0904 -0.135594,0.135594 -0.0452,0.0452 -0.09039,0.0904 -0.135593,0.135593 -0.02648,0.02648 -0.17143,0.235349 -0.271186,0.135593 -0.07146,-0.07146 -0.0904,-0.180791 -0.135593,-0.271186 z"
       style="fill:url(#radialGradient6683);fill-opacity:1;stroke:none;filter:url(#filter6833)" />
  </g>
</svg>
