<?xml version="1.0" encoding="UTF-8" standalone="no"?>
<svg
   xmlns:dc="http://purl.org/dc/elements/1.1/"
   xmlns:cc="http://creativecommons.org/ns#"
   xmlns:rdf="http://www.w3.org/1999/02/22-rdf-syntax-ns#"
   xmlns:svg="http://www.w3.org/2000/svg"
   xmlns="http://www.w3.org/2000/svg"
   xmlns:xlink="http://www.w3.org/1999/xlink"
   height="64"
   width="64"
   version="1.1"
   id="svg2985">
  <metadata
     id="metadata2991">
    <rdf:RDF>
      <cc:Work
         rdf:about="">
        <dc:format>image/svg+xml</dc:format>
        <dc:type
           rdf:resource="http://purl.org/dc/dcmitype/StillImage" />
        <dc:title></dc:title>
      </cc:Work>
    </rdf:RDF>
  </metadata>
  <defs
     id="defs2989">
    <linearGradient
       id="linearGradient5599">
      <stop
         style="stop-color:#bf6ef6;stop-opacity:1"
         offset="0"
         id="stop5601" />
      <stop
         id="stop5603"
         offset="0.4182238"
         style="stop-color:#bf6ef6;stop-opacity:1" />
      <stop
         style="stop-color:#000000;stop-opacity:1;"
         offset="1"
         id="stop5605" />
    </linearGradient>
    <linearGradient
       id="linearGradient3800">
      <stop
         id="stop3802"
         offset="0"
         style="stop-color:#ffffff;stop-opacity:1" />
      <stop
         style="stop-color:#bf6ef6;stop-opacity:1"
         offset="0.11851946"
         id="stop3818" />
      <stop
         id="stop3804"
         offset="1"
         style="stop-color:#000000;stop-opacity:1;" />
    </linearGradient>
    <radialGradient
       gradientTransform="matrix(3.2180275,0.0286139,-0.02845116,3.1997469,-70.066447,-71.307546)"
       gradientUnits="userSpaceOnUse"
       r="24.041632"
       fy="32"
       fx="32"
       cy="32"
       cx="32"
       id="radialGradient5260"
       xlink:href="#linearGradient3800" />
    <radialGradient
       gradientTransform="matrix(1.1408636,0.0139543,-0.01490501,1.2185916,-4.0306759,-7.4414703)"
       gradientUnits="userSpaceOnUse"
       r="24.041632"
       fy="32"
       fx="32"
       cy="32"
       cx="32"
       id="radialGradient5260-8"
       xlink:href="#linearGradient3800-2" />
    <linearGradient
       id="linearGradient3800-2">
      <stop
         id="stop3802-7"
         offset="0"
         style="stop-color:#fdd889;stop-opacity:1;" />
      <stop
         style="stop-color:#d27633;stop-opacity:1;"
         offset="0.26777309"
         id="stop3818-7" />
      <stop
         id="stop3804-1"
         offset="1"
         style="stop-color:#000000;stop-opacity:1;" />
    </linearGradient>
    <radialGradient
       xlink:href="#linearGradient5599"
       id="radialGradient5278"
       gradientUnits="userSpaceOnUse"
       gradientTransform="matrix(1.8169139,-0.00762709,0.00722369,1.720809,-26.372402,-22.821824)"
       cx="32"
       cy="32"
       fx="32"
       fy="32"
       r="24.041632" />
    <filter
       height="1.504"
       y="-0.252"
       width="1.504"
       x="-0.252"
       id="filter5595">
      <feGaussianBlur
         id="feGaussianBlur5597"
         stdDeviation="4.7806574" />
    </filter>
  </defs>
  <g
     style="display:inline"
     id="layer2">
    <path
       transform="matrix(0.75247488,0,0,0.75247488,7.0514863,7.0514866)"
       d="m 47.980001,47.980001 c -1.758074,1.758075 -4.482631,5.280107 -6.779666,6.23157 -2.297036,0.951463 -6.714041,0.387563 -9.200335,0.387563 -2.486293,10e-7 -6.903298,0.563901 -9.200333,-0.387562 C 20.502631,53.260109 17.778074,49.738076 16.019999,47.980001 14.261924,46.221927 10.739892,43.49737 9.788429,41.200335 8.8369656,38.903299 9.4008657,34.486294 9.4008656,32 9.4008654,29.513707 8.836965,25.096702 9.7884281,22.799667 10.739891,20.502631 14.261924,17.778074 16.019999,16.019999 17.778073,14.261924 20.50263,10.739892 22.799665,9.788429 25.096701,8.8369656 29.513706,9.4008657 32,9.4008656 c 2.486293,-2e-7 6.903298,-0.5639006 9.200333,0.3875625 2.297036,0.9514629 5.021593,4.4734959 6.779668,6.2315709 1.758075,1.758074 5.280107,4.482631 6.23157,6.779666 0.951463,2.297036 0.387563,6.714041 0.387563,9.200335 10e-7,2.486293 0.563901,6.903298 -0.387562,9.200333 -0.951463,2.297036 -4.473496,5.021593 -6.231571,6.779668 z"
       id="path3787-2"
       style="fill:url(#radialGradient5278);fill-opacity:1;fill-rule:evenodd;stroke:none;display:inline;filter:url(#filter5595)" />
    <path
       transform="matrix(1.1811282,0,0,1.1811282,-6.1923503,-6.1923503)"
       d="M 49.000001,49.000001 33.731828,36.181001 32,56.041632 30.268173,36.181001 14.999999,49.000001 27.818999,33.731828 7.9583683,32 27.818999,30.268173 14.999999,14.999999 30.268172,27.818999 32,7.9583683 33.731827,27.818999 49.000001,14.999999 36.181001,30.268172 56.041632,32 36.181001,33.731827 z"
       id="path3787"
       style="fill:url(#radialGradient5260);fill-opacity:1;fill-rule:evenodd;stroke:none" />
  </g>
</svg>
