<?xml version="1.0" encoding="UTF-8" standalone="no"?>
<svg
   xmlns:dc="http://purl.org/dc/elements/1.1/"
   xmlns:cc="http://creativecommons.org/ns#"
   xmlns:rdf="http://www.w3.org/1999/02/22-rdf-syntax-ns#"
   xmlns:svg="http://www.w3.org/2000/svg"
   xmlns="http://www.w3.org/2000/svg"
   id="svg2985"
   version="1.1"
   width="32"
   height="32">
  <metadata
     id="metadata2991">
    <rdf:RDF>
      <cc:Work
         rdf:about="">
        <dc:format>image/svg+xml</dc:format>
        <dc:type
           rdf:resource="http://purl.org/dc/dcmitype/StillImage" />
        <dc:title></dc:title>
      </cc:Work>
    </rdf:RDF>
  </metadata>
  <defs
     id="defs2989">
    <filter
       id="filter3861"
       x="-0.24348349"
       width="1.486967"
       y="-0.23661478"
       height="1.4732296">
      <feGaussianBlur
         stdDeviation="2.849796"
         id="feGaussianBlur3863" />
    </filter>
    <filter
       id="filter3972"
       x="-0.23847262"
       width="1.4769452"
       y="-0.24154707"
       height="1.4830941">
      <feGaussianBlur
         stdDeviation="2.1170508"
         id="feGaussianBlur3974" />
    </filter>
  </defs>
  <g
     id="layer2"
     style="display:inline">
    <path
       style="fill:#42320e;fill-opacity:1;stroke:none;filter:url(#filter3861)"
       d="m 23.089349,30.130711 c -0.171513,0.05717 -0.37086,-0.05717 -0.542373,0 -0.06064,0.02021 -0.08446,0.09724 -0.135593,0.135593 -1.344607,1.008455 0.268443,-0.22416 -0.677966,0.40678 -0.05318,0.03546 -0.07842,0.107007 -0.135593,0.135593 -0.04043,0.02021 -0.0904,0 -0.135594,0 -0.09039,0 -0.185429,-0.02859 -0.271186,0 -0.06064,0.02021 -0.0904,0.0904 -0.135593,0.135593 -0.0904,0.0904 -0.156845,0.214015 -0.271187,0.271186 -0.08085,0.04043 -0.180791,0 -0.271186,0 -0.271187,0 -0.542373,0 -0.81356,0 -0.542372,0 -1.084745,0 -1.627118,0 -0.135593,0 -0.271187,0 -0.40678,0 -0.0452,0 -0.0904,0 -0.135593,0 -0.0452,0 -0.09272,0.01429 -0.135593,0 -0.09588,-0.03196 -0.175308,-0.103633 -0.271187,-0.135593 -0.04288,-0.01429 -0.09517,0.02021 -0.135593,0 -0.05717,-0.02858 -0.07842,-0.107007 -0.135593,-0.135593 -0.04043,-0.02021 -0.09272,0.01429 -0.135593,0 -0.09588,-0.03196 -0.173139,-0.111081 -0.271187,-0.135593 -0.0877,-0.02192 -0.18543,0.02858 -0.271186,0 -0.121279,-0.04043 -0.156845,-0.214016 -0.271187,-0.271187 -0.04043,-0.02021 -0.09517,0.02021 -0.135593,0 -0.05717,-0.02858 -0.0904,-0.0904 -0.135593,-0.135593 -0.0452,-0.0452 -0.0904,-0.0904 -0.135593,-0.135593 -0.135594,-0.135593 -0.271187,-0.271187 -0.40678,-0.40678 -0.0452,-0.0452 -0.0904,-0.0904 -0.135593,-0.135593 -0.0452,-0.0452 -0.08241,-0.100137 -0.135594,-0.135593 -0.06828,-0.298734 -0.278941,-0.07167 -0.406779,-0.135593 -0.05717,-0.02859 -0.0904,-0.0904 -0.135593,-0.135594 -0.0904,-0.0904 -0.180791,-0.180791 -0.271187,-0.271186 -0.0452,-0.0452 -0.08241,-0.100137 -0.135593,-0.135593 -0.08409,-0.05606 -0.187095,-0.07953 -0.271187,-0.135594 -0.03151,-0.02101 -0.254459,-0.26561 -0.271186,-0.271186 -0.02671,-0.0089 -0.635071,0 -0.677966,0 -0.225989,0 -0.451977,0 -0.677966,0 -0.0904,0 -0.180791,0 -0.271187,0 -0.0452,0 -0.09517,-0.02021 -0.135593,0 -0.05717,0.02859 -0.07842,0.107008 -0.135593,0.135593 -0.04043,0.02021 -0.09517,-0.02021 -0.135593,0 -0.05717,0.02859 -0.0904,0.0904 -0.135593,0.135593 -0.08492,0.08492 -0.372583,0.372583 -0.40678,0.40678 -0.0452,0.0452 -0.09039,0.0904 -0.135593,0.135593 -0.0452,0.0452 -0.11538,0.07495 -0.135593,0.135594 -0.02859,0.08576 0.02859,0.185429 0,0.271186 -0.02021,0.06064 -0.09039,0.0904 -0.135593,0.135593 -0.0452,0.0452 -0.09039,0.0904 -0.135594,0.135593 -0.0452,0.0452 -0.07842,0.107008 -0.135593,0.135594 -0.04043,0.02021 -0.090395,0 -0.1355932,0 -0.090395,0 -0.1807909,0 -0.2711864,0 -0.2259887,0 -0.4519774,0 -0.6779661,0 -0.3615819,0 -0.7231638,0 -1.0847458,0 -0.042895,0 -0.651257,0.0089 -0.6779661,0 -0.1212782,-0.04043 -0.1568442,-0.214016 -0.2711864,-0.271187 -0.076421,-0.03821 -0.194766,0.03821 -0.2711864,0 -0.057171,-0.02858 -0.078422,-0.107007 -0.1355933,-0.135593 -0.1278385,-0.06392 -0.2789411,-0.07167 -0.4067796,-0.135593 -0.057171,-0.02859 -0.090395,-0.0904 -0.1355932,-0.135593 -0.090395,-0.0904 -0.1689157,-0.194484 -0.2711865,-0.271187 -0.080852,-0.06064 -0.1870951,-0.07953 -0.2711864,-0.135593 -0.053184,-0.03546 -0.090395,-0.0904 -0.1355932,-0.135593 -0.1355933,-0.135594 -0.2533735,-0.291725 -0.4067797,-0.40678 -0.080852,-0.06064 -0.1870951,-0.07953 -0.2711864,-0.135593 -0.053184,-0.03546 -0.090396,-0.0904 -0.1355933,-0.135593 -0.045198,-0.0452 -0.1070076,-0.07842 -0.1355932,-0.135594 -0.020213,-0.04043 0.025071,-0.09799 0,-0.135593 -0.070912,-0.106368 -0.180791,-0.180791 -0.2711864,-0.271186 -0.045198,-0.0452 -0.1153802,-0.07495 -0.1355933,-0.135593 -0.028586,-0.08576 0.028586,-0.18543 0,-0.271187 -0.040426,-0.121278 -0.2140153,-0.156844 -0.2711864,-0.271186 -0.020213,-0.04043 0,-0.0904 0,-0.135594 0,-0.135593 0,-0.271186 0,-0.406779 0,-0.40678 0,-0.81356 0,-1.220339 0,-0.135593 0,-0.271187 0,-0.40678 0,-0.0904 0.021924,-0.18349 0,-0.271186 -0.098313,-0.393252 -0.1057865,-0.15868 -0.2711864,-0.40678 -0.056061,-0.08409 -0.1036336,-0.175308 -0.1355933,-0.271186 -0.025895,-0.07768 0.030606,-0.345569 0,-0.40678 -0.028586,-0.05717 -0.1070076,-0.07842 -0.1355932,-0.135593 -0.030486,-0.06097 0.030486,-0.345808 0,-0.40678 -0.1393865,-0.278773 -0.2673931,0.0076 -0.4067796,-0.271186 -0.020213,-0.04043 0.020213,-0.09517 0,-0.135594 -0.028586,-0.05717 -0.1070077,-0.07842 -0.1355933,-0.135593 -0.020213,-0.04043 0.014293,-0.09271 0,-0.135593 -0.03196,-0.09588 -0.1036335,-0.175308 -0.1355932,-0.271187 -0.028585,-0.08576 0.040426,-0.190334 0,-0.271186 -0.028585,-0.05717 -0.1070076,-0.07842 -0.1355932,-0.135593 -0.020213,-0.04043 0,-0.0904 0,-0.135593 0,-0.0904 0.021924,-0.18349 0,-0.271187 0.081726,-0.245416 -0.2196531,-0.252179 -0.2711864,-0.40678 -0.028586,-0.08576 0,-0.18079 0,-0.271186 0,-0.135593 0,-0.271186 0,-0.40678 0,-0.451977 0,-0.903954 0,-1.355932 0,-0.542373 0,-1.084746 0,-1.627118 0,-0.225989 0,-0.451978 0,-0.677967 0,-0.0452 -0.014293,-0.09271 0,-0.135593 0.03196,-0.09588 0.1110813,-0.173139 0.1355932,-0.271186 0.021924,-0.0877 0,-0.180791 0,-0.271187 0,-0.0452 -0.014293,-0.09272 0,-0.135593 0.03196,-0.09588 0.1110813,-0.173139 0.1355932,-0.271186 0.021924,-0.0877 -0.028586,-0.18543 0,-0.271187 0.020213,-0.06064 0.1070077,-0.07842 0.1355932,-0.135593 0.020213,-0.04043 -0.020213,-0.09517 0,-0.135593 0.072879,-0.145759 0.1734088,-0.27641 0.2711865,-0.40678 0.038352,-0.05114 0.1070076,-0.07842 0.1355932,-0.135593 0.020213,-0.04043 -0.00886,-0.09127 0,-0.135593 0.036547,-0.182736 0.066383,-0.369347 0.1355932,-0.542373 0.023739,-0.05935 0.1001372,-0.08241 0.1355932,-0.135593 0.056061,-0.08409 0.090396,-0.180791 0.1355932,-0.271187 0.090396,-0.0904 0.1944834,-0.168915 0.2711865,-0.271186 0.060639,-0.08085 0.090396,-0.180791 0.1355932,-0.271187 0.045198,-0.0904 0.090396,-0.180791 0.1355932,-0.271186 0.045198,-0.0904 0.079532,-0.187095 0.1355932,-0.271187 0.021007,-0.03151 0.265611,-0.254459 0.2711865,-0.271186 0.028586,-0.08576 -0.028586,-0.18543 0,-0.271187 C 4.2823176,11.433161 4.4656,11.401948 4.513078,11.283253 4.582289,11.110227 4.579461,10.913907 4.6486713,10.74088 4.6546613,10.72592 4.90266,10.49549 4.9198577,10.469694 5.0319795,10.301511 5.0697659,10.089025 5.1910441,9.927321 5.2677472,9.8250501 5.4050595,9.7704768 5.4622306,9.6561345 c 0.040426,-0.080852 -0.017728,-0.1825464 0,-0.2711864 0.02803,-0.1401523 0.082511,-0.2740746 0.1355932,-0.4067797 0.037535,-0.093837 0.1036336,-0.1753075 0.1355932,-0.2711864 0.014293,-0.042878 0,-0.090395 0,-0.1355933 C 5.7786148,8.4357955 5.805091,8.2924476 5.8690102,8.1646091 5.9418894,8.0188508 6.042419,7.8881996 6.1401967,7.7578294 c 0.038352,-0.051135 0.1153802,-0.074954 0.1355932,-0.1355932 0.028586,-0.085757 -0.040426,-0.1903343 0,-0.2711864 C 6.332961,7.2367075 6.4760643,7.1862314 6.5469763,7.0798633 6.6590981,6.9116806 6.7141675,6.7108159 6.8181628,6.5374904 6.8839352,6.4278698 7.0184372,6.3726721 7.0893492,6.266304 7.4224356,6.2179556 7.1456604,5.9784475 7.2249424,5.8595243 c 0.070912,-0.106368 0.180791,-0.1807909 0.2711865,-0.2711864 0.045198,-0.045198 0.090395,-0.090396 0.1355932,-0.1355932 0.045198,-0.045198 0.1070077,-0.078422 0.1355932,-0.1355932 0.020213,-0.040426 -0.014293,-0.092715 0,-0.1355933 0.03196,-0.095879 0.1036336,-0.1753075 0.1355932,-0.2711864 0.05611,-0.1683283 -0.1113103,-0.1477347 0.1355933,-0.2711864 0.040426,-0.020213 0.095167,0.020213 0.1355932,0 0.057171,-0.028586 0.078422,-0.1070077 0.1355932,-0.1355933 0.040426,-0.020213 0.092715,0.014293 0.1355932,0 0.095879,-0.03196 0.1731388,-0.1110813 0.2711865,-0.1355932 0.087697,-0.021924 0.1872563,0.033572 0.2711864,0 0.1513071,-0.060523 0.2610213,-0.1983073 0.4067797,-0.2711864 0.040426,-0.020213 0.090395,0 0.1355932,0 0.045198,0 0.090395,0 0.1355932,0 0.1355932,0 0.2711864,0 0.4067796,0 0.0452,0 0.09517,0.020213 0.135593,0 0.05717,-0.028586 0.07842,-0.1070077 0.135594,-0.1355932 0.04043,-0.020213 0.0904,0 0.135593,0 0.0904,0 0.180791,0 0.271186,0 0.225989,0 0.451977,0 0.677966,0 0.09039,0 0.18543,0.028586 0.271186,0 0.06064,-0.020213 0.07358,-0.1200906 0.135594,-0.1355933 0.0099,-0.00246 0.614333,0.015908 0.677966,0 0.09805,-0.024512 0.175307,-0.1036336 0.271186,-0.1355932 0.04288,-0.014293 0.0904,0 0.135593,0 0.08908,0 0.510488,0.015942 0.542373,0 0.114343,-0.057171 0.164819,-0.2002744 0.271187,-0.2711864 0.03761,-0.025071 0.09039,0 0.135593,0 0.09039,0 0.180791,0 0.271186,0 0.0452,0 0.09272,0.014293 0.135594,0 0.09588,-0.03196 0.173138,-0.1110813 0.271186,-0.1355932 0.0877,-0.021924 0.180791,0 0.271186,0 0.143925,0 0.724576,0.017797 0.81356,0 0.0991,-0.019821 0.173139,-0.1110814 0.271186,-0.1355933 0.175393,-0.043848 0.365093,0.035456 0.542373,0 0.140152,-0.02803 0.265797,-0.112096 0.40678,-0.1355932 0.133748,-0.022291 0.275235,0.032886 0.406779,0 0.23613,-0.059032 0.443934,-0.2043201 0.677967,-0.2711864 0.08692,-0.024834 0.180791,0 0.271186,0 0.135593,0 0.272234,0.016818 0.40678,0 0.228684,-0.028586 0.449281,-0.1070077 0.677966,-0.1355932 0.134546,-0.016818 0.272549,0.019176 0.406779,0 0.184483,-0.026355 0.358554,-0.1049567 0.542373,-0.1355933 0.08917,-0.014861 0.180791,0 0.271187,0 0.135593,0 0.271186,0 0.406779,0 0.0904,0 0.18349,0.021924 0.271187,0 0.09805,-0.024512 0.175307,-0.1036336 0.271186,-0.1355932 0.03738,-0.012458 0.349245,0 0.40678,0 0.135593,0 0.271186,0 0.40678,0 0.0452,0 0.09271,-0.014293 0.135593,0 0.09588,0.03196 0.172084,0.1157727 0.271186,0.1355932 0.13296,0.026592 0.271187,0 0.40678,0 0.0452,0 0.09799,-0.025071 0.135593,0 0.183511,0.077143 0.247228,0.3004116 0.40678,0.4067797 0.08409,0.056061 0.175307,0.1036336 0.271186,0.1355932 0.484478,0.1614927 -0.558578,-0.5249774 0.542373,0.1355932 0.677966,0.4067797 0,0.1355933 0.40678,0.4067797 0.08409,0.056061 0.187095,0.079532 0.271186,0.1355932 0.05318,0.035456 0.0904,0.090395 0.135593,0.1355932 0.0904,0.090396 0.180791,0.180791 0.271187,0.2711865 0.0452,0.045198 0.08241,0.1001372 0.135593,0.1355932 0.08409,0.056061 0.187095,0.079532 0.271187,0.1355932 0.282342,0.1882284 -0.01116,0.2185513 0.271186,0.4067797 0.08409,0.056061 0.187095,0.079532 0.271186,0.1355932 0.05318,0.035456 0.0904,0.090395 0.135594,0.1355932 0.0904,0.090395 0.200274,0.1648184 0.271186,0.2711865 0.02507,0.037607 0,0.090395 0,0.1355932 0,0.090395 0,0.1807909 0,0.2711864 0,0.1355932 -0.05036,0.2808845 0,0.4067797 0.04748,0.1186951 0.223709,0.1524913 0.271187,0.2711864 0.171513,0.1529582 -0.05717,0.3708595 0,0.5423729 0.03196,0.095879 0.103633,0.1753076 0.135593,0.2711864 0.01429,0.042878 0,0.090395 0,0.1355933 0,0.045198 0,0.090395 0,0.1355932 0,0.1807909 0,0.3615819 0,0.5423729 0,0.045198 -0.02021,0.095167 0,0.1355932 0.02859,0.057171 0.0904,0.090395 0.135593,0.1355932 0.310893,0.3108929 -0.08576,-0.057171 0.40678,0.2711864 0.05318,0.035456 0.0904,0.090395 0.135593,0.1355933 0.0452,0.045198 0.0904,0.090395 0.135593,0.1355932 0.135593,0.1355932 0.291725,0.2533734 0.40678,0.4067797 0.298734,0.068284 0.07167,0.2789411 0.135593,0.4067796 0.02859,0.057171 0.11538,0.074954 0.135593,0.1355932 0.03436,0.10307 -0.02517,0.5521353 0,0.6779663 0.02803,0.140152 0.100928,0.268119 0.135593,0.406779 0.02192,0.0877 -0.04043,0.190335 0,0.271187 0.310279,0.620557 -0.0562,-0.575379 0.271187,0.406779 0.01429,0.04288 0,0.0904 0,0.135594 0,0.0452 0,0.0904 0,0.135593 0,0.180791 0,0.361582 0,0.542373 0,0.497175 0,0.99435 0,1.491525 0,0.451978 0,0.903955 0,1.355932 0,0.135594 0,0.271187 0,0.40678 0,0.0452 0,0.0904 0,0.135593 0,0.0452 0.02021,0.09517 0,0.135594 -0.02859,0.05717 -0.107008,0.07842 -0.135593,0.135593 -0.02021,0.04043 0.02021,0.09517 0,0.135593 -0.02859,0.05717 -0.107008,0.07842 -0.135594,0.135593 -0.005,0.0099 0,0.535425 0,0.542373 0,0.135593 0,0.271187 0,0.40678 0,0.0904 -0.02858,0.18543 0,0.271186 0.02021,0.06064 0.0904,0.0904 0.135594,0.135593 0.164576,0.164577 0.346293,0.30043 0.406779,0.542373 0.02192,0.0877 0,0.180791 0,0.271187 0,0.0452 -0.02021,0.09517 0,0.135593 0.02859,0.05717 0.107008,0.07842 0.135594,0.135593 0.04043,0.08085 -0.05014,0.195973 0,0.271187 0.07091,0.106368 0.214015,0.156844 0.271186,0.271186 0.135593,0.271187 -0.0678,0.20339 0,0.40678 0.03196,0.09588 0.111081,0.173138 0.135593,0.271186 0.02192,0.0877 0,0.180791 0,0.271187 0,0.0452 -0.01429,0.09271 0,0.135593 0.03196,0.09588 0.111081,0.173139 0.135593,0.271186 0.02192,0.0877 0,0.180791 0,0.271187 0,0.225988 0,0.451977 0,0.677966 0,0.225989 0,0.451977 0,0.677966 0,0.0452 0.02021,0.09517 0,0.135593 -0.145488,0.290977 -0.325498,0.461092 -0.542372,0.677966 -0.0452,0.0452 -0.0904,0.0904 -0.135594,0.135593 -0.0452,0.0452 -0.100137,0.08241 -0.135593,0.135594 -0.05606,0.08409 -0.07953,0.187095 -0.135593,0.271186 -0.03546,0.05318 -0.0904,0.0904 -0.135593,0.135593 -0.0452,0.0452 -0.0904,0.0904 -0.135594,0.135594 -0.0452,0.0452 -0.07842,0.107007 -0.135593,0.135593 -0.04043,0.02021 -0.09517,-0.02021 -0.135593,0 -0.05717,0.02858 -0.07842,0.107007 -0.135593,0.135593 -0.04043,0.02021 -0.09517,-0.02021 -0.135593,0 -0.05717,0.02859 -0.08446,0.09724 -0.135594,0.135593 -0.13037,0.09778 -0.276409,0.173409 -0.406779,0.271187 -0.05114,0.03835 -0.0904,0.09039 -0.135594,0.135593 -0.0452,0.0452 -0.09039,0.09039 -0.135593,0.135593 -0.0452,0.0452 -0.100137,0.08241 -0.135593,0.135593 -0.05606,0.08409 -0.07953,0.187095 -0.135593,0.271187 -0.03546,0.05318 -0.11538,0.07495 -0.135593,0.135593 -0.02859,0.08576 0,0.180791 0,0.271186 0,0.0452 -0.01096,0.09174 0,0.135594 0.03466,0.13866 0.100928,0.268119 0.135593,0.406779 0.01096,0.04385 0,0.0904 0,0.135594 0,0.0452 0,0.09039 0,0.135593 0,0.180791 0,0.361582 0,0.542373 0,0.135593 0,0.271186 0,0.406779 0,0.0452 0.01429,0.09272 0,0.135594 -0.08751,0.262523 -0.224621,0.360214 -0.40678,0.542372 -0.0452,0.0452 -0.100137,0.08241 -0.135593,0.135594 -0.05606,0.08409 -0.06413,0.199722 -0.135593,0.271186 -0.03196,0.03196 -0.09517,-0.02021 -0.135594,0 -0.114342,0.05717 -0.164818,0.200274 -0.271186,0.271186 -0.08409,0.05606 -0.175308,0.103634 -0.271186,0.135594 -0.04288,0.01429 -0.09799,-0.02507 -0.135594,0 -0.106368,0.07091 -0.180791,0.180791 -0.271186,0.271186 -0.0452,0.0452 -0.07842,0.107008 -0.135593,0.135593 -0.04043,0.02021 -0.09517,-0.02021 -0.135594,0 -0.05717,0.02859 -0.07842,0.107008 -0.135593,0.135594 -0.04043,0.02021 -0.0904,0 -0.135593,0 -0.0452,0 -0.0904,0 -0.135593,0 -0.0904,0 -0.18543,-0.02859 -0.271187,0 -0.06064,0.02021 -0.09039,0.09039 -0.135593,0.135593 -0.09039,0.09039 -0.180791,0.180791 -0.271186,0.271186 -0.0452,0.0452 -0.07842,0.107008 -0.135594,0.135593 -0.04043,0.02021 -0.09517,-0.02021 -0.135593,0 -0.05717,0.02859 -0.07842,0.107008 -0.135593,0.135594 -0.04043,0.02021 -0.0904,0 -0.135593,0 -0.0452,0 -0.0904,0 -0.135593,0 -0.135594,0 -0.271187,0 -0.40678,0 z"
       id="path3783" />
    <path
       style="display:inline;opacity:0.92000002;fill:#924a24;fill-opacity:1;stroke:none;filter:url(#filter3972)"
       d="m 25.394434,24.029016 c -0.0904,0.0452 -0.190335,0.07495 -0.271187,0.135593 -0.201789,0.151342 -0.435631,0.464483 -0.542373,0.677966 -0.02021,0.04043 0.02507,0.09799 0,0.135593 -0.07091,0.106368 -0.180791,0.180791 -0.271186,0.271187 -0.0904,0.0904 -0.180791,0.180791 -0.271187,0.271186 -0.0904,0.0904 -0.18079,0.180791 -0.271186,0.271187 -0.0452,0.0452 -0.07495,0.11538 -0.135593,0.135593 -0.08576,0.02858 -0.180791,0 -0.271187,0 -0.0452,0 -0.0904,0 -0.135593,0 -0.09656,0 -0.499859,0.01417 -0.542373,0 -0.06064,-0.02021 -0.0904,-0.0904 -0.135593,-0.135593 -0.0452,-0.0452 -0.0904,-0.0904 -0.135593,-0.135594 -0.0452,-0.0452 -0.08241,-0.100137 -0.135593,-0.135593 -0.08409,-0.05606 -0.190335,-0.07495 -0.271187,-0.135593 -0.102271,-0.0767 -0.180791,-0.180791 -0.271186,-0.271186 -0.0452,-0.0452 -0.07495,-0.115381 -0.135593,-0.135594 -0.08576,-0.02859 -0.18543,0.02859 -0.271187,0 -0.06064,-0.02021 -0.07842,-0.107007 -0.135593,-0.135593 -0.04043,-0.02021 -0.09517,0.02021 -0.135593,0 -0.05717,-0.02858 -0.07495,-0.11538 -0.135594,-0.135593 -0.08576,-0.02859 -0.180791,0 -0.271186,0 -0.0452,0 -0.09272,0.01429 -0.135593,0 -0.982158,-0.327386 0.213777,0.03909 -0.40678,-0.271187 -0.08085,-0.04043 -0.190334,0.04043 -0.271186,0 -0.05717,-0.02858 -0.07842,-0.107007 -0.135594,-0.135593 -0.04043,-0.02021 -0.09039,0 -0.135593,0 -0.09039,0 -0.180791,0 -0.271186,0 -0.451978,0 -0.903955,0 -1.355932,0 -0.497176,0 -0.994351,0 -1.491526,0 -0.180791,0 -0.361582,0 -0.542373,0 -0.0452,0 -0.09517,-0.02021 -0.135593,0 -0.05717,0.02859 -0.07842,0.107008 -0.135593,0.135593 -0.127839,0.06392 -0.26812,0.100929 -0.40678,0.135594 -0.04385,0.01096 -0.09517,-0.02021 -0.135593,0 -0.449706,0.449706 0.127838,-0.06392 -0.271187,0.135593 -0.05717,0.02858 -0.07842,0.107008 -0.135593,0.135593 -0.04043,0.02021 -0.09517,-0.02021 -0.135593,0 -0.05717,0.02859 -0.09039,0.0904 -0.135593,0.135593 -0.0904,0.0904 -0.180791,0.180791 -0.271187,0.271187 -0.0452,0.0452 -0.08241,0.100137 -0.135593,0.135593 -0.08712,0.05808 -0.455255,0.213108 -0.542373,0.271186 -0.03151,0.02101 -0.25446,0.265611 -0.271186,0.271187 -0.08576,0.02858 -0.18543,-0.02859 -0.271187,0 -0.06064,0.02021 -0.07358,0.12009 -0.135593,0.135593 -0.131545,0.03289 -0.275235,-0.03289 -0.406779,0 -0.06201,0.0155 -0.07842,0.107008 -0.135594,0.135593 -0.04043,0.02021 -0.09039,0 -0.135593,0 -0.135593,0 -0.271186,0 -0.40678,0 -0.180791,0 -0.361582,0 -0.542372,0 -0.271187,0 -0.542373,0 -0.813559,0 -0.0452,0 -0.09039,0 -0.135594,0 -0.0452,0 -0.09517,0.02021 -0.135593,0 -0.05717,-0.02858 -0.078422,-0.107007 -0.1355932,-0.135593 -0.040426,-0.02021 -0.095167,0.02021 -0.1355932,0 -0.057171,-0.02858 -0.090395,-0.0904 -0.1355932,-0.135593 -0.045198,-0.0452 -0.090396,-0.0904 -0.1355932,-0.135593 C 9.394434,25.656134 9.2588407,25.520541 9.1232475,25.384948 8.8068633,25.068564 8.4904792,24.75218 8.174095,24.435795 8.1288972,24.390598 8.0836995,24.3454 8.0385018,24.300202 7.993304,24.255004 7.9314941,24.22178 7.9029085,24.164609 7.8389893,24.03677 7.8312346,23.885668 7.7673153,23.757829 7.7387293,23.700659 7.6769203,23.667439 7.6317221,23.622236 7.5865241,23.577036 7.5413261,23.531846 7.4961289,23.486643 7.3153379,23.305852 7.134547,23.125061 6.953756,22.94427 6.908558,22.89907 6.86336,22.85387 6.8181628,22.808677 c -0.045198,-0.0452 -0.1070077,-0.07842 -0.1355932,-0.135593 -0.020213,-0.04043 0,-0.0904 0,-0.135594 -0.045198,-0.0904 -0.079532,-0.187095 -0.1355933,-0.271186 -0.08933,-0.133994 -0.31745,-0.272785 -0.4067796,-0.40678 -0.056061,-0.08409 -0.090395,-0.180791 -0.1355932,-0.271186 -0.045198,-0.0904 -0.1036336,-0.175308 -0.1355933,-0.271187 -0.020378,-0.06114 0.023319,-0.3718 0,-0.406779 -0.090395,-0.0904 -0.1807909,-0.180791 -0.2711864,-0.271187 0,-0.0452 0.020213,-0.09517 0,-0.135593 -0.028586,-0.05717 -0.1070077,-0.07842 -0.1355932,-0.135593 -0.020213,-0.04043 0,-0.0904 0,-0.135593 0,-0.0452 0,-0.0904 0,-0.135594 0,-0.225988 0,-0.451977 0,-0.677966 0,-0.0069 -0.00497,-0.53243 0,-0.542373 0.057171,-0.114342 0.2140153,-0.156844 0.2711864,-0.271186 0.020213,-0.04043 0,-0.0904 0,-0.135593 0.045198,-0.0904 0.079532,-0.187095 0.1355932,-0.271187 0.035456,-0.05318 0.090395,-0.0904 0.1355933,-0.135593 0.090395,-0.0904 0.1944833,-0.168916 0.2711864,-0.271186 0.060639,-0.08085 0.079532,-0.187095 0.1355932,-0.271187 0.035456,-0.05318 0.097242,-0.08446 0.1355932,-0.135593 0.097778,-0.13037 0.1734088,-0.276409 0.2711865,-0.40678 0.021147,-0.0282 0.2674172,-0.259878 0.2711864,-0.271186 0.028586,-0.08576 -0.028586,-0.18543 0,-0.271187 0.020213,-0.06064 0.1070077,-0.07842 0.1355932,-0.135593 0.040426,-0.08085 -0.021924,-0.18349 0,-0.271186 0.034665,-0.138661 0.1009282,-0.26812 0.1355933,-0.40678 0.010962,-0.04385 0,-0.0904 0,-0.135593 0,-0.0452 0,-0.0904 0,-0.135593 0,-0.316385 0,-0.632769 0,-0.949153 0,-0.813559 0,-1.627119 0,-2.440678 0,-0.316384 0,-0.632768 0,-0.949152 0,-0.0452 0,-0.0904 0,-0.135594 0,-0.0452 -0.020213,-0.09517 0,-0.135593 0.095898,-0.191797 0.175288,-0.07939 0.2711864,-0.271186 0.020213,-0.04043 -0.020213,-0.09517 0,-0.135593 0.028586,-0.05717 0.1070077,-0.07842 0.1355932,-0.135594 0.020213,-0.04043 -0.020213,-0.09517 0,-0.135593 C 7.7959009,10.005743 7.8674525,9.980505 7.9029085,9.927321 7.9589694,9.8432296 7.9778626,9.7369867 8.0385018,9.6561345 8.1535564,9.5027283 8.3096882,9.3849481 8.4452814,9.2493549 8.4904792,9.2041571 8.5454186,9.1669457 8.5808746,9.1137616 8.6369355,9.0296703 8.6558287,8.9234274 8.7164679,8.8425752 8.793171,8.7403044 8.8972588,8.6617842 8.9876543,8.5713887 9.032852,8.526191 9.0877915,8.4889796 9.1232475,8.4357955 9.1793084,8.3517042 9.2027798,8.2487004 9.2588407,8.1646091 9.2942968,8.1114251 9.3492362,8.0742136 9.394434,8.0290159 9.4848294,7.9386204 9.5752249,7.8482249 9.6656204,7.7578294 9.7560159,7.6674339 9.834536,7.5633461 9.9368068,7.486643 10.017659,7.426004 10.123902,7.407111 10.207993,7.3510498 c 0.05318,-0.035456 0.0904,-0.090396 0.135594,-0.1355933 0.0904,-0.090395 0.180791,-0.1807909 0.271186,-0.2711864 0.135593,-0.1355932 0.271186,-0.2711864 0.406779,-0.4067797 0.0452,-0.045198 0.107008,-0.078422 0.135594,-0.1355932 0.02021,-0.040426 -0.02021,-0.095167 0,-0.1355932 0.02858,-0.057171 0.0904,-0.090395 0.135593,-0.1355932 0.135593,-0.1355932 0.271186,-0.2711865 0.406779,-0.4067797 0.0904,-0.090395 0.180791,-0.1807909 0.271187,-0.2711864 0.0452,-0.045198 0.07495,-0.1153802 0.135593,-0.1355932 0.08576,-0.028586 0.18349,0.021924 0.271187,0 0.09805,-0.024512 0.173138,-0.1110813 0.271186,-0.1355933 0.05499,-0.013748 0.437777,0 0.542373,0 0.406779,0 0.813559,0 1.220339,0 0.632768,0 1.265537,0 1.898305,0 0.225989,0 0.451977,0 0.677966,0 0.0452,0 0.09517,-0.020213 0.135593,0 0.05717,0.028586 0.0904,0.090396 0.135593,0.1355933 0.15514,0.1551392 0.160512,0.189097 0.40678,0.2711864 0.08576,0.028586 0.190334,-0.040426 0.271187,0 0.05717,0.028586 0.0904,0.090395 0.135593,0.1355932 0.0904,0 0.18543,-0.028586 0.271186,0 0.06064,0.020213 0.07842,0.1070077 0.135593,0.1355932 0.0515,0.025749 0.490876,-0.025749 0.542373,0 0.114343,0.057171 0.180791,0.180791 0.271187,0.2711865 0.0452,0.045198 0.07495,0.1153802 0.135593,0.1355932 0.617259,0 0.0078,-0.063919 0.40678,0.1355932 0.0099,0.00497 0.535424,0 0.542373,0 0.316384,0 0.632768,0 0.949152,0 0.0452,0 0.0904,0 0.135593,0 0.0904,0 0.18543,-0.028586 0.271187,0 0.06064,0.020213 0.07842,0.1070077 0.135593,0.1355932 0.04043,0.020213 0.0904,0 0.135593,0 0.480131,0 -0.537102,0 0.542373,0 0.0452,0 0.0904,0 0.135593,0 0.0452,0 0.09363,-0.016786 0.135593,0 0.187674,0.075069 0.34802,0.215657 0.542373,0.2711865 0.130376,0.03725 0.271187,0 0.40678,0 0.0452,0 0.09271,-0.014293 0.135593,0 0.09588,0.03196 0.173139,0.1110813 0.271187,0.1355932 0.0877,0.021924 0.185429,-0.028586 0.271186,0 0.06064,0.020213 0.07842,0.1070077 0.135593,0.1355932 0.04043,0.020213 0.0904,0 0.135594,0 0.201819,0 0.17307,-0.020213 0.406779,0.1355932 0.05318,0.035456 0.0904,0.090395 0.135593,0.1355933 0.0452,0.045198 0.0904,0.090395 0.135594,0.1355932 0.0452,0.045198 0.09039,0.090395 0.135593,0.1355932 0.0452,0.045198 0.107008,0.078422 0.135593,0.1355932 0.06392,0.1278385 0.06206,0.2842201 0.135593,0.4067797 0.06577,0.1096206 0.180791,0.1807909 0.271187,0.2711864 0.0452,0.045198 0.107007,0.078422 0.135593,0.1355932 0.02021,0.040426 -0.01429,0.092715 0,0.1355933 0.03196,0.095879 0.0904,0.1807909 0.135593,0.2711864 0.0452,0.090395 0.0904,0.180791 0.135593,0.2711865 0.0452,0.090395 0.103634,0.1753075 0.135594,0.2711864 0.01369,0.041076 0,0.5383087 0,0.5423727 0,0.0452 -0.02021,0.09517 0,0.135593 0.02858,0.05717 0.107007,0.07842 0.135593,0.135594 0.02021,0.04043 0,0.0904 0,0.135593 0,0.09039 0,0.180791 0,0.271186 0,0.201819 0.02021,0.17307 -0.135593,0.40678 -0.03546,0.05318 -0.107008,0.07842 -0.135594,0.135593 -0.02021,0.04043 0.02021,0.09517 0,0.135593 -0.02858,0.05717 -0.0904,0.0904 -0.135593,0.135593 -0.0452,0.0452 -0.0904,0.0904 -0.135593,0.135594 -0.0452,0.0452 -0.0904,0.0904 -0.135593,0.135593 -0.0452,0.0452 -0.107008,0.07842 -0.135593,0.135593 -0.02021,0.04043 0.01429,0.09272 0,0.135593 -0.03196,0.09588 -0.103634,0.175308 -0.135594,0.271187 -0.01429,0.04288 0.02021,0.09517 0,0.135593 -0.02859,0.05717 -0.107007,0.07842 -0.135593,0.135593 -0.02021,0.04043 0.02021,0.09517 0,0.135593 -0.02858,0.05717 -0.100137,0.08241 -0.135593,0.135594 -0.05606,0.08409 -0.07495,0.190334 -0.135593,0.271186 -0.0767,0.102271 -0.200275,0.164819 -0.271187,0.271187 -0.02507,0.03761 0.02021,0.09517 0,0.135593 -0.02858,0.05717 -0.107007,0.07842 -0.135593,0.135593 -0.02021,0.04043 0.02021,0.09517 0,0.135593 -0.02859,0.05717 -0.107008,0.07842 -0.135593,0.135593 -0.02021,0.04043 0.02021,0.09517 0,0.135594 -0.02859,0.05717 -0.0904,0.0904 -0.135593,0.135593 -0.0904,0.0904 -0.180791,0.180791 -0.271187,0.271186 -0.0452,0.0452 -0.107008,0.07842 -0.135593,0.135594 -0.02021,0.04043 0.02021,0.09517 0,0.135593 -0.02859,0.05717 -0.107008,0.07842 -0.135593,0.135593 -0.02021,0.04043 0,0.09039 0,0.135593 0,0.0452 0,0.0904 0,0.135593 0,0.225989 0,0.451978 0,0.677967 0,0.135593 0,0.271186 0,0.406779 0,0.0452 0,0.0904 0,0.135593 0,0.0452 -0.01429,0.09271 0,0.135594 0.04705,0.141141 0.13821,0.318128 0.271186,0.406779 0.0712,0.04746 0.362367,0.137947 0.40678,0.271187 0.05717,0.171513 -0.04385,0.36698 0,0.542373 0.02451,0.09805 0.103633,0.175307 0.135593,0.271186 0.02859,0.08576 -0.04043,0.190334 0,0.271187 0.02859,0.05717 0.0904,0.09039 0.135593,0.135593 0.0452,0.0452 0.0904,0.0904 0.135593,0.135593 0.0452,0.0452 0.115381,0.07495 0.135594,0.135593 0.02858,0.08576 -0.02859,0.18543 0,0.271187 0.02021,0.06064 0.107007,0.07842 0.135593,0.135593 0.02021,0.04043 -0.01096,0.09174 0,0.135593 0.03467,0.13866 0.100928,0.268119 0.135593,0.40678 0.01096,0.04385 0,0.09039 0,0.135593 0,0.0452 0,0.09039 0,0.135593 0,0.0904 -0.02192,0.18349 0,0.271187 0.163693,0.654772 0.06444,-0.0067 0.271187,0.406779 0.06392,0.127839 0.100928,0.26812 0.135593,0.40678 0.02192,0.0877 -0.02859,0.18543 0,0.271186 0.03196,0.09588 0.103633,0.175308 0.135593,0.271187 0.02859,0.08576 -0.04043,0.190334 0,0.271186 0.02859,0.05717 0.107008,0.07842 0.135593,0.135593 0.02021,0.04043 0,0.0904 0,0.135594 0,0.0452 0,0.0904 0,0.135593 0,0.225989 0,0.451977 0,0.677966 0,0.0452 0.02021,0.09517 0,0.135593 -0.04758,0.09516 -0.359197,0.311615 -0.406779,0.40678 -0.02021,0.04043 0.02021,0.09517 0,0.135593 -0.06106,0.122118 -0.519493,0.391526 -0.542373,0.40678 z"
       id="path3866" />
  </g>
</svg>
