<?xml version="1.0" encoding="UTF-8" standalone="no"?>
<svg
   xmlns:dc="http://purl.org/dc/elements/1.1/"
   xmlns:cc="http://creativecommons.org/ns#"
   xmlns:rdf="http://www.w3.org/1999/02/22-rdf-syntax-ns#"
   xmlns:svg="http://www.w3.org/2000/svg"
   xmlns="http://www.w3.org/2000/svg"
   version="1.1"
   id="svg3202"
   height="32"
   width="32">
  <defs
     id="defs3204" />
  <metadata
     id="metadata3207">
    <rdf:RDF>
      <cc:Work
         rdf:about="">
        <dc:format>image/svg+xml</dc:format>
        <dc:type
           rdf:resource="http://purl.org/dc/dcmitype/StillImage" />
        <dc:title></dc:title>
      </cc:Work>
    </rdf:RDF>
  </metadata>
  <g
     style="display:inline"
     id="layer2">
    <g
       id="g5949"
       style="display:inline"
       transform="translate(-64,-33)">
      <path
         style="fill:#000000;fill-opacity:1;stroke:none"
         d="m 73,54 c -1.656854,0 -3,1.343146 -3,3 0,1.656854 1.343146,3 3,3 l 14,0 c 1.656854,0 3,-1.343146 3,-3 0,-1.656854 -1.343146,-3 -3,-3 l -14,0 z"
         id="path3001-5-8" />
      <path
         style="fill:#ffffff;fill-opacity:1;stroke:none"
         id="path3001-5"
         d="M 50.065687,57.063084 A 7.8918166,7.8918166 0 0 1 42.17387,64.9549 7.8918166,7.8918166 0 0 1 34.282053,57.063084 7.8918166,7.8918166 0 0 1 42.17387,49.171267 7.8918166,7.8918166 0 0 1 50.065687,57.063084 Z"
         transform="matrix(0.25342709,0,0,0.25342706,62.311999,42.538671)" />
      <rect
         style="fill:#000000;fill-opacity:1;stroke:none"
         id="rect3794-8"
         width="22"
         height="3"
         x="69"
         y="50" />
      <path
         style="fill:#ffffff;fill-opacity:1;stroke:none"
         id="path3001-5-9"
         d="M 50.065687,57.063084 A 7.8918166,7.8918166 0 0 1 42.17387,64.9549 7.8918166,7.8918166 0 0 1 34.282053,57.063084 7.8918166,7.8918166 0 0 1 42.17387,49.171267 7.8918166,7.8918166 0 0 1 50.065687,57.063084 Z"
         transform="matrix(0.25342709,0,0,0.25342706,76.311999,42.538671)" />
    </g>
  </g>
</svg>
