<?xml version="1.0" encoding="UTF-8" standalone="no"?>
<svg
   xmlns:dc="http://purl.org/dc/elements/1.1/"
   xmlns:cc="http://creativecommons.org/ns#"
   xmlns:rdf="http://www.w3.org/1999/02/22-rdf-syntax-ns#"
   xmlns:svg="http://www.w3.org/2000/svg"
   xmlns="http://www.w3.org/2000/svg"
   xmlns:xlink="http://www.w3.org/1999/xlink"
   version="1.1"
   id="svg3484"
   height="32"
   width="32">
  <defs
     id="defs3486">
    <filter
       height="1.6407254"
       y="-0.32036272"
       width="1.6407254"
       x="-0.32036272"
       id="filter5886"
       color-interpolation-filters="sRGB">
      <feGaussianBlur
         id="feGaussianBlur5888"
         stdDeviation="0.26696893" />
    </filter>
  </defs>
  <metadata
     id="metadata3489">
    <rdf:RDF>
      <cc:Work
         rdf:about="">
        <dc:format>image/svg+xml</dc:format>
        <dc:type
           rdf:resource="http://purl.org/dc/dcmitype/StillImage" />
        <dc:title></dc:title>
      </cc:Work>
    </rdf:RDF>
  </metadata>
  <g
     transform="translate(0,-1020.3622)"
     id="layer1">
    <g
       transform="translate(-65.015541,930.3622)"
       id="g5934"
       style="display:inline">
      <g
         id="g5890">
        <path
           d="m 87,102 a 1,1 0 0 1 -1,1 1,1 0 0 1 -1,-1 1,1 0 0 1 1,-1 1,1 0 0 1 1,1 z"
           id="path5269"
           style="fill:#000000;fill-opacity:1;fill-rule:evenodd;stroke:none" />
        <path
           transform="matrix(1.4925541,0,0,0.60948655,-43.410779,39.832371)"
           d="M 87,102 A 1,1.2175314 0 0 1 86,103.21753 1,1.2175314 0 0 1 85,102 1,1.2175314 0 0 1 86,100.78247 1,1.2175314 0 0 1 87,102 Z"
           id="path5269-2"
           style="fill:#000000;fill-opacity:1;fill-rule:evenodd;stroke:none;display:inline;filter:url(#filter5886)" />
      </g>
      <use
         x="0"
         y="0"
         xlink:href="#g5890"
         id="use5924"
         transform="translate(0,4)"
         width="256"
         height="256" />
      <use
         x="0"
         y="0"
         xlink:href="#use5924"
         id="use5926"
         transform="translate(0,4)"
         width="256"
         height="256" />
      <use
         x="0"
         y="0"
         xlink:href="#use5924"
         id="use5928"
         transform="translate(-5,-2)"
         width="256"
         height="256" />
      <use
         x="0"
         y="0"
         xlink:href="#use5928"
         id="use5930"
         transform="translate(0,4)"
         width="256"
         height="256" />
      <use
         x="0"
         y="0"
         xlink:href="#use5928"
         id="use5932"
         transform="translate(-5,2.000001)"
         width="256"
         height="256" />
    </g>
  </g>
</svg>
