<?xml version="1.0" encoding="UTF-8" standalone="no"?>
<svg
   xmlns:dc="http://purl.org/dc/elements/1.1/"
   xmlns:cc="http://creativecommons.org/ns#"
   xmlns:rdf="http://www.w3.org/1999/02/22-rdf-syntax-ns#"
   xmlns:svg="http://www.w3.org/2000/svg"
   xmlns="http://www.w3.org/2000/svg"
   version="1.1"
   id="svg2"
   height="32"
   width="32">
  <defs
     id="defs4" />
  <metadata
     id="metadata7">
    <rdf:RDF>
      <cc:Work
         rdf:about="">
        <dc:format>image/svg+xml</dc:format>
        <dc:type
           rdf:resource="http://purl.org/dc/dcmitype/StillImage" />
        <dc:title></dc:title>
      </cc:Work>
    </rdf:RDF>
  </metadata>
  <g
     transform="translate(-709.71429,-707.79077)"
     id="layer1">
    <rect
       y="718.79077"
       x="723.71429"
       height="8"
       width="4"
       id="rect7747"
       style="fill:#000000;fill-opacity:1;fill-rule:nonzero;stroke:none" />
    <path
       transform="translate(709.71429,707.79077)"
       id="path8521"
       d="m 14.297516,11.557061 -4.6404223,3.051809 4.5150053,3.219031 0.250833,-1.170556 -2.842781,-2.09028 3.469865,-2.173892 z"
       style="fill:#000000;fill-opacity:1;stroke:none" />
    <path
       style="fill:#000000;fill-opacity:1;stroke:none"
       d="m 727.54371,719.43652 4.64042,3.05181 -4.515,3.21903 -0.25083,-1.17056 2.84278,-2.09028 -3.46987,-2.17389 z"
       id="path8523" />
    <path
       id="path8525"
       d="m 723.71429,725.79077 -1,5 c 0,0 -2,0 -2,2 l 3.65034,0 1.11825,-7 z"
       style="fill:#000000;fill-opacity:1;stroke:none" />
    <path
       style="fill:#000000;fill-opacity:1;stroke:none"
       d="m 727.68981,725.87945 1,5 c 0,0 2,0 2,2 l -3.65034,0 -1.11825,-7 z"
       id="path8527" />
    <path
       transform="matrix(0.91638832,0,0,0.91638832,741.31063,708.57924)"
       d="M -13.50002,8.5 A 3.49998,3.49998 0 0 1 -17,11.99998 3.49998,3.49998 0 0 1 -20.49998,8.5 3.49998,3.49998 0 0 1 -17,5.00002 3.49998,3.49998 0 0 1 -13.50002,8.5 Z"
       id="path7741-1"
       style="fill:#000000;fill-opacity:1;fill-rule:nonzero;stroke:none" />
  </g>
</svg>
