<?xml version="1.0" encoding="UTF-8" standalone="no"?>
<svg
   xmlns:dc="http://purl.org/dc/elements/1.1/"
   xmlns:cc="http://creativecommons.org/ns#"
   xmlns:rdf="http://www.w3.org/1999/02/22-rdf-syntax-ns#"
   xmlns:svg="http://www.w3.org/2000/svg"
   xmlns="http://www.w3.org/2000/svg"
   version="1.1"
   id="svg10171"
   height="32"
   width="32">
  <defs
     id="defs10173">
    <mask
       id="mask4639"
       maskUnits="userSpaceOnUse">
      <path
         id="path4641"
         d="m 8,198 0,12 c 0,4.41828 3.58172,8 8,8 4.41828,0 8,-3.58172 8,-8 l 0,-12 -16,0 z"
         style="fill:#ffffff;fill-opacity:1;fill-rule:evenodd;stroke:none" />
    </mask>
  </defs>
  <metadata
     id="metadata10176">
    <rdf:RDF>
      <cc:Work
         rdf:about="">
        <dc:format>image/svg+xml</dc:format>
        <dc:type
           rdf:resource="http://purl.org/dc/dcmitype/StillImage" />
        <dc:title></dc:title>
      </cc:Work>
    </rdf:RDF>
  </metadata>
  <g
     transform="translate(-686.85712,-710.64789)"
     id="layer1">
    <g
       transform="translate(-20.96429,-0.10715)"
       id="g10259">
      <g
         transform="translate(707.82141,518.75504)"
         style="display:inline"
         id="g4556-8-6"
         mask="url(#mask4639)">
        <path
           id="rect4473-8-6-6"
           d="m -2,190 0,18 18,0 0,-18 -18,0 z m 18,18 0,18 18,0 0,-18 -18,0 z"
           style="fill:#000000;fill-opacity:1;fill-rule:evenodd;stroke:none" />
        <path
           id="rect4473-5-2-3-9-2"
           d="m 16,190 0,18 18,0 0,-18 -18,0 z m 0,18 -18,0 0,18 18,0 0,-18 z"
           style="fill:#ffffff;fill-opacity:1;fill-rule:evenodd;stroke:none;display:inline" />
      </g>
      <g
         transform="translate(547.82141,614.75504)"
         style="display:inline"
         id="g10208">
        <path
           id="path4592-8"
           d="m 168.35858,102.32323 0,11.71399 c 0,4.27546 3.42118,7.63956 7.64142,7.63956 4.22025,0 7.64142,-3.3641 7.64142,-7.63956 l 0,-11.71399 z"
           style="fill:none;stroke:#373737;stroke-width:1;stroke-opacity:1;display:inline" />
      </g>
    </g>
  </g>
</svg>
