<?xml version="1.0" encoding="UTF-8" standalone="no"?>
<svg
   xmlns:dc="http://purl.org/dc/elements/1.1/"
   xmlns:cc="http://creativecommons.org/ns#"
   xmlns:rdf="http://www.w3.org/1999/02/22-rdf-syntax-ns#"
   xmlns:svg="http://www.w3.org/2000/svg"
   xmlns="http://www.w3.org/2000/svg"
   version="1.1"
   id="svg2"
   height="32"
   width="32">
  <defs
     id="defs4" />
  <metadata
     id="metadata7">
    <rdf:RDF>
      <cc:Work
         rdf:about="">
        <dc:format>image/svg+xml</dc:format>
        <dc:type
           rdf:resource="http://purl.org/dc/dcmitype/StillImage" />
        <dc:title></dc:title>
      </cc:Work>
    </rdf:RDF>
  </metadata>
  <g
     transform="translate(-866.85712,-799.2193)"
     id="layer1">
    <path
       id="path3000"
       transform="translate(866.85712,799.2193)"
       d="M 13 5.4375 C 8.382442 6.7430039 5 10.964497 5 16 C 5 22.07513 9.92486 27 16 27 C 22.07513 27 27 22.07513 27 16 C 27 10.964497 23.617555 6.7430039 19 5.4375 L 19 7.53125 C 22.495332 8.7668897 25 12.081513 25 16 C 25 20.97056 20.97056 25 16 25 C 11.02943 25 7 20.97056 7 16 C 7 12.081513 9.5046656 8.7668897 13 7.53125 L 13 5.4375 z "
       style="fill:#000000;fill-opacity:1;stroke:none" />
    <rect
       y="801.2193"
       x="881.85712"
       height="14"
       width="2"
       id="rect3780"
       style="fill:#000000;fill-opacity:1;stroke:none" />
  </g>
</svg>
