<?xml version="1.0" encoding="UTF-8" standalone="no"?>
<svg
   xmlns:dc="http://purl.org/dc/elements/1.1/"
   xmlns:cc="http://creativecommons.org/ns#"
   xmlns:rdf="http://www.w3.org/1999/02/22-rdf-syntax-ns#"
   xmlns:svg="http://www.w3.org/2000/svg"
   xmlns="http://www.w3.org/2000/svg"
   version="1.1"
   id="svg8529"
   height="32"
   width="32">
  <defs
     id="defs8531" />
  <metadata
     id="metadata8534">
    <rdf:RDF>
      <cc:Work
         rdf:about="">
        <dc:format>image/svg+xml</dc:format>
        <dc:type
           rdf:resource="http://purl.org/dc/dcmitype/StillImage" />
        <dc:title></dc:title>
      </cc:Work>
    </rdf:RDF>
  </metadata>
  <g
     transform="translate(-375.42859,-533.50507)"
     id="layer1">
    <path
       transform="matrix(0.75,0,0,0.75,378.10537,539.67373)"
       d="M 26,5 A 4,4 0 0 1 22,9 4,4 0 0 1 18,5 4,4 0 0 1 22,1 4,4 0 0 1 26,5 Z"
       id="path8550"
       style="fill:#000000;fill-opacity:1;fill-rule:nonzero;stroke:none" />
    <rect
       transform="matrix(0.96592583,0.25881905,-0.25881905,0.96592583,0,0)"
       style="fill:#000000;fill-opacity:1;fill-rule:nonzero;stroke:none"
       id="rect8588"
       width="4"
       height="8"
       x="519.78418"
       y="424.92651" />
    <path
       id="path8590"
       d="m 394.11358,552.36123 0,5 c 0,0 1.76859,0 1.76859,2 l -3.65034,0 0.11316,-7 z"
       style="fill:#000000;fill-opacity:1;stroke:none" />
    <path
       style="fill:#000000;fill-opacity:1;stroke:none"
       d="m 393.2445,553.02088 c -2.74651,0.77386 -2.92606,2.44399 -7.61478,3.11284 0,0 -0.24903,1.76859 -2.24903,1.76859 l 0,-3.65034 c 3.7363,0.0529 6.00318,-1.1769 7.69459,-2.51452 z"
       id="path8592" />
    <path
       id="path8594"
       d="m 392.10184,545.79745 -7.88845,4.21574 1.02679,0.97248 7.88845,-4.21574 z"
       style="fill:#000000;fill-opacity:1;stroke:none" />
    <path
       id="path9106"
       d="m 394.47723,547.24381 c 0,0 2.9375,4.6875 6.09375,4.75 l 0,-1.28125 c 0,0 -2.71875,-0.5312 -5.03125,-4.25 z"
       style="fill:#000000;fill-opacity:1;stroke:none" />
    <path
       id="path9108"
       d="m 391.75834,554.27975 c -0.37436,-0.93036 -0.87048,5.00913 -0.0221,5.06023 0.41568,-0.49636 0.39646,-4.12987 0.0221,-5.06023 z"
       style="fill:#bfbfbf;fill-opacity:1;stroke:none" />
    <path
       id="path9112"
       d="m 384.17211,553.03852 c 0.29112,-0.0253 4.79075,-0.61545 5.23701,-2.05502 0.44626,-1.43957 0.77556,-1.15523 0.75823,0.19087 -0.0173,1.3461 -4.00794,2.77797 -5.99524,2.48291 -1.9873,-0.29506 -0.29112,-0.59347 0,-0.61876 z"
       style="fill:#bfbfbf;fill-opacity:1;stroke:none" />
    <path
       id="path9114"
       d="m 385.52977,551.46267 c 0,0 -2.70522,0.46514 -1.81329,-1.78617 0,0.003 0.24568,1.22639 1.81329,1.78617 z"
       style="fill:#bfbfbf;fill-opacity:1;stroke:none" />
    <path
       style="fill:#bfbfbf;fill-opacity:1;stroke:none"
       d="m 382.61031,553.63499 c -0.2954,-1.18111 -0.94078,4.00786 -0.0239,4.04875 0.44833,-0.39348 0.3193,-2.86764 0.0239,-4.04875 z"
       id="path9116" />
    <path
       id="path9118"
       d="m 391.37811,545.52506 c 0,0 -4.20174,-3.05963 0.90403,-5.27746 0,0 -2.76202,2.25222 -0.90403,5.27746 z"
       style="fill:#bfbfbf;fill-opacity:1;stroke:none" />
  </g>
</svg>
