<?xml version="1.0" encoding="UTF-8" standalone="no"?>
<svg
   xmlns:dc="http://purl.org/dc/elements/1.1/"
   xmlns:cc="http://creativecommons.org/ns#"
   xmlns:rdf="http://www.w3.org/1999/02/22-rdf-syntax-ns#"
   xmlns:svg="http://www.w3.org/2000/svg"
   xmlns="http://www.w3.org/2000/svg"
   version="1.1"
   id="svg2"
   viewBox="0 0 32 32"
   height="32"
   width="32">
  <defs
     id="defs4">
    <filter
       height="1.5779159"
       y="-0.28895795"
       width="1.9153091"
       x="-0.45765454"
       id="filter14403"
       style="color-interpolation-filters:sRGB">
      <feGaussianBlur
         id="feGaussianBlur14405"
         stdDeviation="1.1889415" />
    </filter>
    <filter
       height="3.1095254"
       y="-1.0547627"
       width="1.9448534"
       x="-0.47242668"
       id="filter14407"
       style="color-interpolation-filters:sRGB">
      <feGaussianBlur
         id="feGaussianBlur14409"
         stdDeviation="1.1889415" />
    </filter>
    <filter
       height="3.1649364"
       y="-1.0824682"
       width="1.9924688"
       x="-0.49623439"
       id="filter14411"
       style="color-interpolation-filters:sRGB">
      <feGaussianBlur
         id="feGaussianBlur14413"
         stdDeviation="1.1889415" />
    </filter>
    <filter
       height="5.2123546"
       y="-2.1061773"
       width="2.7108643"
       x="-0.85543214"
       id="filter14415"
       style="color-interpolation-filters:sRGB">
      <feGaussianBlur
         id="feGaussianBlur14417"
         stdDeviation="1.1889415" />
    </filter>
    <filter
       height="3.3680444"
       y="-1.1840222"
       width="2.0906183"
       x="-0.54530914"
       id="filter14419"
       style="color-interpolation-filters:sRGB">
      <feGaussianBlur
         id="feGaussianBlur14421"
         stdDeviation="1.1889415" />
    </filter>
    <filter
       height="1.7171114"
       y="-0.35855572"
       width="1.8451332"
       x="-0.42256659"
       id="filter14423"
       style="color-interpolation-filters:sRGB">
      <feGaussianBlur
         id="feGaussianBlur14425"
         stdDeviation="1.1889415" />
    </filter>
    <filter
       height="2.4236374"
       y="-0.71181869"
       width="1.8283599"
       x="-0.41417993"
       id="filter14427"
       style="color-interpolation-filters:sRGB">
      <feGaussianBlur
         id="feGaussianBlur14429"
         stdDeviation="1.1889415" />
    </filter>
    <filter
       height="2.9216911"
       y="-0.96084555"
       width="2.2636718"
       x="-0.63183589"
       id="filter14431"
       style="color-interpolation-filters:sRGB">
      <feGaussianBlur
         id="feGaussianBlur14433"
         stdDeviation="1.1889415" />
    </filter>
    <filter
       height="2.2478464"
       y="-0.62392319"
       width="1.7872236"
       x="-0.39361178"
       id="filter14435"
       style="color-interpolation-filters:sRGB">
      <feGaussianBlur
         id="feGaussianBlur14437"
         stdDeviation="1.1889415" />
    </filter>
    <filter
       height="1.4822179"
       y="-0.24110896"
       width="1.7425497"
       x="-0.37127485"
       id="filter14439"
       style="color-interpolation-filters:sRGB">
      <feGaussianBlur
         id="feGaussianBlur14441"
         stdDeviation="1.1889415" />
    </filter>
    <filter
       height="1.8009188"
       y="-0.40045942"
       width="1.6458738"
       x="-0.32293692"
       id="filter14443"
       style="color-interpolation-filters:sRGB">
      <feGaussianBlur
         id="feGaussianBlur14445"
         stdDeviation="1.1889415" />
    </filter>
    <filter
       height="1.9778183"
       y="-0.48890915"
       width="1.6818115"
       x="-0.34090573"
       id="filter14447"
       style="color-interpolation-filters:sRGB">
      <feGaussianBlur
         id="feGaussianBlur14449"
         stdDeviation="1.1889415" />
    </filter>
    <filter
       height="1.8411162"
       y="-0.4205581"
       width="1.7980173"
       x="-0.39900864"
       id="filter14451"
       style="color-interpolation-filters:sRGB">
      <feGaussianBlur
         id="feGaussianBlur14453"
         stdDeviation="1.1889415" />
    </filter>
    <filter
       height="1.6292127"
       y="-0.31460634"
       width="1.5234953"
       x="-0.26174767"
       id="filter14455"
       style="color-interpolation-filters:sRGB">
      <feGaussianBlur
         id="feGaussianBlur14457"
         stdDeviation="1.1889415" />
    </filter>
    <filter
       height="1.1874661"
       y="-0.09373303"
       width="1.1967587"
       x="-0.098379343"
       id="filter14459"
       style="color-interpolation-filters:sRGB">
      <feGaussianBlur
         id="feGaussianBlur14461"
         stdDeviation="1.1889415" />
    </filter>
  </defs>
  <metadata
     id="metadata7">
    <rdf:RDF>
      <cc:Work
         rdf:about="">
        <dc:format>image/svg+xml</dc:format>
        <dc:type
           rdf:resource="http://purl.org/dc/dcmitype/StillImage" />
        <dc:title></dc:title>
      </cc:Work>
    </rdf:RDF>
  </metadata>
  <g
     style="display:inline"
     transform="translate(-208,11.637795)"
     id="layer1">
    <path
       transform="matrix(0.84875366,0,0,0.84875366,33.939036,0.62285205)"
       id="path13441"
       d="m 236.125,13.612205 c -7.71921,-0.221218 -15.19069,9.135585 -23.125,4.375 -2.19868,-1.319207 -2.03018,-6.767224 -0.875,-8.5 0.82851,-1.24276 -3.22171,-7.681574 -2,-10.125 1.12617,-2.2523471 4.29323,-3.057641 5.75,-4.9999999 0.7187,-0.9582724 0.42673,-2.6767291 1.375,-3.625 4.14801,-4.1480061 10.61717,-0.1692766 14.5,1.125 0.9677,0.3225657 1.35523,2.3267443 2.25,2.625 0.45094,0.1503117 2.65282,0.6806452 2.875,1.125 0.30767,0.6153359 2.25582,13.2412669 2,13.6249999 -0.35114,0.526708 -1.26089,2.836962 -1.75,3 -0.46982,0.156605 -1.0454,-0.113789 -1.25,0.5 -0.12743,0.382284 0.25,2.769089 0.25,0.875 z"
       style="fill:#ada08b;fill-opacity:0.41284401;fill-rule:evenodd;stroke:none;stroke-width:1px;stroke-linecap:butt;stroke-linejoin:miter;stroke-opacity:1;filter:url(#filter14459)" />
    <path
       transform="matrix(0.84875366,0,0,0.84875366,33.939036,0.62285205)"
       id="path13443"
       d="m 221.75,15.487205 c -2.00553,-0.414692 -5.74736,1.668428 -7.5,0.5 -1.72011,-1.146741 0.5,-2.461446 0.5,-4.25 0,-1.438318 -2,-2.32843 -2,-3.25 0,-0.59771 0.39846,-0.574231 0.75,-0.75 3.00452,-1.502258 2.47855,1.046415 4.25,2.375 0.73675,0.552562 7.31511,2.93489 5.625,4.625 -0.64137,0.641374 -1.00747,0.75 -1.625,0.75 z"
       style="fill:#ada08b;fill-opacity:0.72171254;fill-rule:evenodd;stroke:none;stroke-width:1px;stroke-linecap:butt;stroke-linejoin:miter;stroke-opacity:1;filter:url(#filter14455)" />
    <path
       transform="matrix(0.84875366,0,0,0.84875366,33.939036,0.62285205)"
       id="path13445"
       d="m 216.75,5.237205 c -0.84673,-0.06159 -2.10294,0.316169 -2.375,-0.5 -0.295,-0.884984 -1.62637,-4.497262 -1.25,-5.25 1.02289,-2.0457901 10.52773,-1.027732 5.75,3.75 -0.73697,0.736972 -0.92976,1.760951 -2.125,2 z"
       style="fill:#ada08b;fill-opacity:0.72171254;fill-rule:evenodd;stroke:none;stroke-width:1px;stroke-linecap:butt;stroke-linejoin:miter;stroke-opacity:1;filter:url(#filter14451)" />
    <path
       transform="matrix(0.84875366,0,0,0.84875366,33.939036,0.62285205)"
       id="path13447"
       d="m 226.375,8.612205 c -1.02002,-0.832248 -9.20586,-3.283105 -6.75,-5.125 3.43173,-2.573797 10.74693,7.123467 6.75,5.125 z"
       style="fill:#ada08b;fill-opacity:0.72171254;fill-rule:evenodd;stroke:none;stroke-width:1px;stroke-linecap:butt;stroke-linejoin:miter;stroke-opacity:1;filter:url(#filter14447)" />
    <path
       transform="matrix(0.84875366,0,0,0.84875366,33.939036,0.62285205)"
       id="path13449"
       d="m 225.25,-8.2627949 c -11.20961,-3.3494141 -8.21761,7.7392029 -4.125,6.375 0.715,-0.238332 1.21871,-1.8332813 1.625,-2.375 0.29051,-0.3873527 5.74498,-3.3510037 2.5,-4 z"
       style="fill:#ada08b;fill-opacity:0.72171254;fill-rule:evenodd;stroke:none;stroke-width:1px;stroke-linecap:butt;stroke-linejoin:miter;stroke-opacity:1;filter:url(#filter14443)" />
    <path
       transform="matrix(0.84875366,0,0,0.84875366,33.939036,0.62285205)"
       id="path13451"
       d="m 227.375,-4.0127949 c 3.539,-0.6889503 5.99276,4.1322359 3.5,6.6249999 -0.88354,0.883544 -2.6838,0.150702 -3.5,1.375 -1.11358,1.670376 0.86508,2.026984 2.25,1.75 1.63907,-0.327815 0.86212,-2.543185 1.5,-3.5 1.00021,-1.500319 4.34708,-1.77347 3.125,-4.6249999 -1.18743,-2.7706813 -3.27288,-3.625 -6.125,-3.625 -1.60126,0 -1.55188,2.6014128 -0.75,2 z"
       style="fill:#ada08b;fill-opacity:0.72171254;fill-rule:evenodd;stroke:none;stroke-width:1px;stroke-linecap:butt;stroke-linejoin:miter;stroke-opacity:1;filter:url(#filter14439)" />
    <path
       transform="matrix(0.84875366,0,0,0.84875366,33.939036,0.62285205)"
       id="path13453"
       d="m 231.125,11.362205 c -0.71727,0.752956 -0.53449,1.65949 -1.375,2.5 -1.71017,1.710171 -6.72427,0.172802 -5.75,-2.75 0.38535,-1.156055 7.125,-1.869623 7.125,0.25 z"
       style="fill:#ada08b;fill-opacity:0.72171254;fill-rule:evenodd;stroke:none;stroke-width:1px;stroke-linecap:butt;stroke-linejoin:miter;stroke-opacity:1;filter:url(#filter14435)" />
    <path
       transform="matrix(0.84875366,0,0,0.84875366,33.939036,0.62285205)"
       id="path13455"
       d="m 222.125,10.487205 c -8.65669,-0.20569 -0.10532,-4.796296 0.625,-1.875 0.24472,0.97888 -0.64976,0.950488 -0.125,2"
       style="fill:#ada08b;fill-opacity:0.72171254;fill-rule:evenodd;stroke:none;stroke-width:1px;stroke-linecap:butt;stroke-linejoin:miter;stroke-opacity:1;filter:url(#filter14431)" />
    <path
       transform="matrix(0.84875366,0,0,0.84875366,33.939036,0.62285205)"
       id="path13457"
       d="m 228.875,-0.262795 c -1.40329,0.232041 -2.09288,1.717879 -3,2.625 -1.8985,1.898499 -4.52551,-0.798464 -3.75,-3.125 0.24897,-0.746917 1.95401,0.457253 2.625,0.625 2.0743,0.518574 3.40907,-0.661943 4.125,-0.125 z"
       style="fill:#ada08b;fill-opacity:0.72171254;fill-rule:evenodd;stroke:none;stroke-width:1px;stroke-linecap:butt;stroke-linejoin:miter;stroke-opacity:1;filter:url(#filter14427)" />
    <path
       transform="matrix(0.84875366,0,0,0.84875366,33.939036,0.62285205)"
       id="path13459"
       d="m 230.625,7.987205 c 3.97394,1.003684 5.50256,-8.251023 1.125,-6.5 -2.18676,0.874704 -0.0739,4.198862 -1.25,5.375 -0.52715,0.527153 -2.1491,0.149103 -2.75,0.75 -0.70829,0.70829 2.34598,3.020094 2.875,0.375 z"
       style="fill:#ada08b;fill-opacity:0.72171254;fill-rule:evenodd;stroke:none;stroke-width:1px;stroke-linecap:butt;stroke-linejoin:miter;stroke-opacity:1;filter:url(#filter14423)" />
    <path
       transform="matrix(0.84875366,0,0,0.84875366,33.939036,0.62285205)"
       id="path13461"
       d="m 228.625,13.112205 c -7.91217,0.96548 -2.32417,-3.024725 0.375,-2.125 1.18909,0.396364 1.00354,2.125 -0.375,2.125 z"
       style="fill:#ada08b;fill-opacity:0.72171254;fill-rule:evenodd;stroke:none;stroke-width:1px;stroke-linecap:butt;stroke-linejoin:miter;stroke-opacity:1;filter:url(#filter14419)" />
    <path
       transform="matrix(0.84875366,0,0,0.84875366,33.939036,0.62285205)"
       id="path13463"
       d="m 221.75,9.362205 c -7.70748,0.437881 0.52865,-3.171913 0,0 z"
       style="fill:#ada08b;fill-opacity:0.72171254;fill-rule:evenodd;stroke:none;stroke-width:1px;stroke-linecap:butt;stroke-linejoin:miter;stroke-opacity:1;filter:url(#filter14415)" />
    <path
       transform="matrix(0.84875366,0,0,0.84875366,33.939036,0.62285205)"
       id="path13465"
       d="m 224.25,9.737205 c -1.07428,0.09482 -1.3662,0.75 -2.5,0.75 -7.90834,0 7.14411,-5.394113 2.5,-0.75 z"
       style="fill:#ada08b;fill-opacity:0.72171254;fill-rule:evenodd;stroke:none;stroke-width:1px;stroke-linecap:butt;stroke-linejoin:miter;stroke-opacity:1;filter:url(#filter14411)" />
    <path
       transform="matrix(0.84875366,0,0,0.84875366,33.939036,0.62285205)"
       id="path13467"
       d="m 221.75,14.237205 c -0.46162,0.726444 -2.7201,0.706532 -3.25,0 -1.55062,-2.067497 4.20193,-2.567301 5.125,-1.875 1.81769,1.363267 -0.61566,2.504669 -1.875,1.875 z"
       style="fill:#ada08b;fill-opacity:0.72171254;fill-rule:evenodd;stroke:none;stroke-width:1px;stroke-linecap:butt;stroke-linejoin:miter;stroke-opacity:1;filter:url(#filter14407)" />
    <path
       transform="matrix(0.84875366,0,0,0.84875366,33.939036,0.62285205)"
       id="path13469"
       d="m 220.5,-4.2627949 c -5.02718,1.242897 -1.90692,9.8749999 2.5,9.8749999 1.52993,0 1.36592,-4.009083 0.5,-4.875 -0.59542,-0.595424 -2.01224,-0.661717 -2.375,-1.75 -0.34694,-1.0408189 -0.0317,-2.2611814 -0.625,-3.2499999 z"
       style="fill:#ada08b;fill-opacity:0.72171254;fill-rule:evenodd;stroke:none;stroke-width:1px;stroke-linecap:butt;stroke-linejoin:miter;stroke-opacity:1;filter:url(#filter14403)" />
  </g>
</svg>
