<?xml version="1.0" encoding="UTF-8" standalone="no"?>
<svg
   xmlns:dc="http://purl.org/dc/elements/1.1/"
   xmlns:cc="http://creativecommons.org/ns#"
   xmlns:rdf="http://www.w3.org/1999/02/22-rdf-syntax-ns#"
   xmlns:svg="http://www.w3.org/2000/svg"
   xmlns="http://www.w3.org/2000/svg"
   version="1.1"
   id="svg2"
   viewBox="0 0 32 32"
   height="32"
   width="32">
  <defs
     id="defs4">
    <filter
       height="2.063881"
       y="-0.53194048"
       width="1.8200801"
       x="-0.41004005"
       id="filter18333"
       style="color-interpolation-filters:sRGB">
      <feGaussianBlur
         id="feGaussianBlur18335"
         stdDeviation="1.196939" />
    </filter>
    <filter
       height="1.6056739"
       y="-0.30283694"
       width="1.5589158"
       x="-0.27945791"
       id="filter18337"
       style="color-interpolation-filters:sRGB">
      <feGaussianBlur
         id="feGaussianBlur18339"
         stdDeviation="1.196939" />
    </filter>
    <filter
       height="1.3961048"
       y="-0.19805239"
       width="1.3731245"
       x="-0.18656227"
       id="filter18341"
       style="color-interpolation-filters:sRGB">
      <feGaussianBlur
         id="feGaussianBlur18343"
         stdDeviation="1.196939" />
    </filter>
    <filter
       height="1.2486705"
       y="-0.12433527"
       width="1.2868517"
       x="-0.14342584"
       id="filter18345"
       style="color-interpolation-filters:sRGB">
      <feGaussianBlur
         id="feGaussianBlur18347"
         stdDeviation="1.196939" />
    </filter>
  </defs>
  <metadata
     id="metadata7">
    <rdf:RDF>
      <cc:Work
         rdf:about="">
        <dc:format>image/svg+xml</dc:format>
        <dc:type
           rdf:resource="http://purl.org/dc/dcmitype/StillImage" />
        <dc:title></dc:title>
      </cc:Work>
    </rdf:RDF>
  </metadata>
  <g
     style="display:inline"
     transform="translate(-208,11.637795)"
     id="layer1">
    <path
       id="path16949"
       d="m 233.09384,7.3045078 c -0.57118,1.4856377 0.81069,4.1667592 -0.0953,5.5257042 -1.00716,1.510739 -3.6698,2.11812 -5.33517,2.57231 -5.93091,1.617523 -11.36003,-1.043953 -12.86155,-7.0500359 -0.9371,-3.7483814 1.1434,-6.383441 2.57231,-9.24126349 0.53824,-1.07646131 0.22084,-2.83500011 0.95271,-3.81083021 1.22556,-1.634081 4.57884,-1.6196029 6.47841,-1.6196029 1.27271,0 5.54318,-1.6021288 6.57368,-0.5716246 0.73193,0.731923 3.72058,13.6161981 3.14394,14.4811552 -0.36551,0.5482634 -1.11251,-0.095882 -1.42906,-0.2858123 z"
       style="fill:#ff4f4f;fill-opacity:0.33027523;fill-rule:evenodd;stroke:none;stroke-width:1px;stroke-linecap:butt;stroke-linejoin:miter;stroke-opacity:1;filter:url(#filter18345)" />
    <path
       id="path16951"
       d="m 228.90192,8.3524861 c -0.92408,-0.074258 -1.01106,0.9569933 -1.71487,1.2385199 -1.8808,0.752318 -4.48463,-0.1129431 -6.47841,0.2858123 -0.65866,0.1317317 -2.05443,1.1491157 -2.85812,0.6668957 -0.35354,-0.212121 -1.47342,-0.87307 -1.61961,-1.2385203 -1.15536,-2.888399 2.80837,-3.7361967 4.00137,-5.525704 0.82612,-1.2391661 -0.0969,-3.64986156 0.6669,-4.66826709 1.40114,-1.86818581 3.40571,-0.57625701 5.14462,-1.61960281 0.56671,-0.3400261 1.65075,-1.8344233 2.57231,-1.1432491 2.69442,2.0208146 3.17575,5.7477114 2.57231,8.7649097 -0.14924,0.7461819 -1.46751,1.3438321 -1.90541,2.0006859 -0.244,0.3659875 -0.38109,2.7133645 -0.38109,1.2385198 z"
       style="fill:#ff4f4f;fill-opacity:0.44648324;fill-rule:evenodd;stroke:none;stroke-width:1px;stroke-linecap:butt;stroke-linejoin:miter;stroke-opacity:1;filter:url(#filter18341)" />
    <path
       id="path16955"
       d="m 227.09178,6.9234248 c -2.83639,0.2460988 -10.06937,5.0859612 -6.76422,-1.5243322 0.49373,-0.9874661 2.09505,-1.3328882 2.76285,-2.0006859 1.00209,-1.0020959 -0.51903,-2.73440182 0.9527,-3.71555954 0.62645,-0.41763271 4.32933,-0.36703632 5.14463,-0.0952708 0.57769,0.19256583 0.57162,1.73277844 0.57162,2.28649824 0,1.4921695 -1.94993,2.8963713 -2.66758,5.0493502 z"
       style="fill:#ff4f4f;fill-opacity:0.53822632;fill-rule:evenodd;stroke:none;stroke-width:1px;stroke-linecap:butt;stroke-linejoin:miter;stroke-opacity:1;filter:url(#filter18337)" />
    <path
       id="path16953"
       d="m 228.80665,5.1132804 c -2.31246,0.362714 -3.30697,3.0761616 -5.62097,0.762166 -0.6795,-0.6795007 -0.96774,-1.5444548 -0.76217,-2.5723104 0.47212,-2.36056476 5.47541,-2.45720666 6.66895,-0.6668953 0.29436,0.4415349 0.52474,4.0981417 -0.28581,2.4770397 z"
       style="fill:#ff4f4f;fill-opacity:1;fill-rule:evenodd;stroke:none;stroke-width:1px;stroke-linecap:butt;stroke-linejoin:miter;stroke-opacity:1;filter:url(#filter18333)" />
  </g>
</svg>
