<?xml version="1.0" encoding="UTF-8" standalone="no"?>
<svg
   xmlns:dc="http://purl.org/dc/elements/1.1/"
   xmlns:cc="http://creativecommons.org/ns#"
   xmlns:rdf="http://www.w3.org/1999/02/22-rdf-syntax-ns#"
   xmlns:svg="http://www.w3.org/2000/svg"
   xmlns="http://www.w3.org/2000/svg"
   version="1.1"
   id="svg2"
   viewBox="0 0 32 32"
   height="32"
   width="32">
  <defs
     id="defs4">
    <filter
       height="3.5319537"
       y="-1.2659768"
       width="3.2669938"
       x="-1.1334969"
       id="filter15693"
       style="color-interpolation-filters:sRGB">
      <feGaussianBlur
         id="feGaussianBlur15695"
         stdDeviation="1.3094875" />
    </filter>
    <filter
       height="2.3883854"
       y="-0.69419269"
       width="2.1550434"
       x="-0.57752171"
       id="filter15697"
       style="color-interpolation-filters:sRGB">
      <feGaussianBlur
         id="feGaussianBlur15699"
         stdDeviation="1.3094875" />
    </filter>
    <filter
       height="1.7688988"
       y="-0.38444939"
       width="1.8152249"
       x="-0.40761245"
       id="filter15701"
       style="color-interpolation-filters:sRGB">
      <feGaussianBlur
         id="feGaussianBlur15703"
         stdDeviation="1.3094875" />
    </filter>
    <filter
       height="1.7570909"
       y="-0.37854547"
       width="1.8103894"
       x="-0.40519469"
       id="filter15705"
       style="color-interpolation-filters:sRGB">
      <feGaussianBlur
         id="feGaussianBlur15707"
         stdDeviation="1.3094875" />
    </filter>
    <filter
       height="1.8128796"
       y="-0.4064398"
       width="1.6526107"
       x="-0.32630534"
       id="filter15709"
       style="color-interpolation-filters:sRGB">
      <feGaussianBlur
         id="feGaussianBlur15711"
         stdDeviation="1.3094875" />
    </filter>
    <filter
       height="1.2495586"
       y="-0.12477929"
       width="1.2311466"
       x="-0.11557332"
       id="filter15713"
       style="color-interpolation-filters:sRGB">
      <feGaussianBlur
         id="feGaussianBlur15715"
         stdDeviation="1.3094875" />
    </filter>
  </defs>
  <metadata
     id="metadata7">
    <rdf:RDF>
      <cc:Work
         rdf:about="">
        <dc:format>image/svg+xml</dc:format>
        <dc:type
           rdf:resource="http://purl.org/dc/dcmitype/StillImage" />
        <dc:title></dc:title>
      </cc:Work>
    </rdf:RDF>
  </metadata>
  <g
     style="display:inline"
     transform="translate(-208,11.637795)"
     id="layer1">
    <path
       id="path15345"
       d="m 232.375,14.612205 c -3.46153,0.492991 -7.24392,2.5 -10.875,2.5 -2.19819,0 -4.01591,-0.324435 -5.75,-1.625 -0.72575,-0.544313 -0.26654,-1.658072 -0.625,-2.375 -2.14984,-4.299683 -4.74425,-10.764376 -2.75,-15.75 1.12525,-2.8131348 3.4715,-2.7357521 5.75,-3.8749999 1.07553,-0.5377633 2.72453,-0.00694 3.875,-0.5 14.36764,-6.1575581 23.81753,16.2479859 10.375,21.6249999 z"
       style="fill:#ff4f4f;fill-opacity:0.58715593;fill-rule:evenodd;stroke:none;stroke-width:1px;stroke-linecap:butt;stroke-linejoin:miter;stroke-opacity:1;filter:url(#filter15713)" />
    <path
       id="path15347"
       d="m 224,10.237205 c -1.26834,1.057916 -3.00414,0.875 -4.625,0.875 -7.2941,0 -5.63602,-8.721504 -1.25,-7.625 1.52709,0.381773 2.67602,3.576536 3.375,4.625 0.67802,1.017029 1.89824,1.322648 2.5,2.125 z"
       style="fill:#ff4f4f;fill-opacity:0.58715593;fill-rule:evenodd;stroke:none;stroke-width:1px;stroke-linecap:butt;stroke-linejoin:miter;stroke-opacity:1;filter:url(#filter15709)" />
    <path
       id="path15349"
       d="m 225.25,1.737205 c -9.65017,2.112114 -9.23706,-10.1185316 -4.5,-7.7499999 1.1841,0.5920498 1.86834,1.9446708 2.875,2.75 1.7558,1.4046389 0.58038,3.2589739 1.625,4.9999999 z"
       style="fill:#ff4f4f;fill-opacity:0.58715593;fill-rule:evenodd;stroke:none;stroke-width:1px;stroke-linecap:butt;stroke-linejoin:miter;stroke-opacity:1;filter:url(#filter15705)" />
    <path
       id="path15351"
       d="m 229,4.362205 c -0.12665,-2.046924 -3.23156,-2.940573 -5.125,-2.625 -1.38022,0.230037 -1.38481,1.644628 -1.875,2.625 -2.75209,5.504187 7,7.846011 7,2.375 0,-0.88351 0.49673,-1.38154 0,-2.375 z"
       style="fill:#ff4f4f;fill-opacity:0.58715593;fill-rule:evenodd;stroke:none;stroke-width:1px;stroke-linecap:butt;stroke-linejoin:miter;stroke-opacity:1;filter:url(#filter15701)" />
    <path
       id="path15353"
       d="m 227.625,4.362205 c -0.84303,-1.99854 -7.11651,-1.363685 -4.875,1.625 1.94234,2.589783 5.56352,2.506119 4.875,-1.625 z"
       style="fill:#ff4f4f;fill-opacity:0.58715593;fill-rule:evenodd;stroke:none;stroke-width:1px;stroke-linecap:butt;stroke-linejoin:miter;stroke-opacity:1;filter:url(#filter15697)" />
    <path
       id="path15355"
       d="m 226,4.612205 c -0.002,-0.0046 -0.16225,-0.643627 -0.375,-0.75 -2.90362,-1.451812 -2.4853,3.194121 0.5,2 0.64627,-0.258508 0.0815,-0.768161 -0.125,-1.25 z"
       style="fill:#ff4f4f;fill-opacity:0.58715593;fill-rule:evenodd;stroke:none;stroke-width:1px;stroke-linecap:butt;stroke-linejoin:miter;stroke-opacity:1;filter:url(#filter15693)" />
    <path
       style="fill:#ff4f4f;fill-opacity:0.58715593;fill-rule:evenodd;stroke:none;stroke-width:1px;stroke-linecap:butt;stroke-linejoin:miter;stroke-opacity:1;filter:url(#filter15693)"
       d="m 226,4.612205 c -0.002,-0.0046 -0.16225,-0.643627 -0.375,-0.75 -2.90362,-1.451812 -2.4853,3.194121 0.5,2 0.64627,-0.258508 0.0815,-0.768161 -0.125,-1.25 z"
       id="path15717" />
    <path
       id="path15719"
       d="m 226,4.612205 c -0.002,-0.0046 -0.16225,-0.643627 -0.375,-0.75 -2.90362,-1.451812 -2.4853,3.194121 0.5,2 0.64627,-0.258508 0.0815,-0.768161 -0.125,-1.25 z"
       style="fill:#ff4f4f;fill-opacity:0.58715593;fill-rule:evenodd;stroke:none;stroke-width:1px;stroke-linecap:butt;stroke-linejoin:miter;stroke-opacity:1;filter:url(#filter15693)" />
    <path
       style="fill:#ff4f4f;fill-opacity:0.58715593;fill-rule:evenodd;stroke:none;stroke-width:1px;stroke-linecap:butt;stroke-linejoin:miter;stroke-opacity:1;filter:url(#filter15693)"
       d="m 226,4.612205 c -0.002,-0.0046 -0.16225,-0.643627 -0.375,-0.75 -2.90362,-1.451812 -2.4853,3.194121 0.5,2 0.64627,-0.258508 0.0815,-0.768161 -0.125,-1.25 z"
       id="path15721" />
  </g>
</svg>
