<?xml version="1.0" encoding="UTF-8" standalone="no"?>
<svg
   xmlns:dc="http://purl.org/dc/elements/1.1/"
   xmlns:cc="http://creativecommons.org/ns#"
   xmlns:rdf="http://www.w3.org/1999/02/22-rdf-syntax-ns#"
   xmlns:svg="http://www.w3.org/2000/svg"
   xmlns="http://www.w3.org/2000/svg"
   version="1.1"
   id="svg2"
   viewBox="0 0 32 32"
   height="32"
   width="32">
  <defs
     id="defs4">
    <filter
       height="3.6274939"
       y="-1.3137469"
       width="2.5614929"
       x="-0.78074643"
       id="filter15271"
       style="color-interpolation-filters:sRGB">
      <feGaussianBlur
         id="feGaussianBlur15273"
         stdDeviation="1.3607749" />
    </filter>
    <filter
       height="2.5693334"
       y="-0.78466668"
       width="1.6448156"
       x="-0.32240781"
       id="filter15275"
       style="color-interpolation-filters:sRGB">
      <feGaussianBlur
         id="feGaussianBlur15277"
         stdDeviation="1.3607749" />
    </filter>
    <filter
       height="3.2468369"
       y="-1.1234185"
       width="2.2092072"
       x="-0.60460359"
       id="filter15279"
       style="color-interpolation-filters:sRGB">
      <feGaussianBlur
         id="feGaussianBlur15281"
         stdDeviation="1.3607749" />
    </filter>
    <filter
       height="2.5224922"
       y="-0.76124612"
       width="2.5713338"
       x="-0.78566689"
       id="filter15283"
       style="color-interpolation-filters:sRGB">
      <feGaussianBlur
         id="feGaussianBlur15285"
         stdDeviation="1.3607749" />
    </filter>
    <filter
       height="1.9731873"
       y="-0.48659365"
       width="2.2749317"
       x="-0.63746587"
       id="filter15287"
       style="color-interpolation-filters:sRGB">
      <feGaussianBlur
         id="feGaussianBlur15289"
         stdDeviation="1.3607749" />
    </filter>
    <filter
       height="2.523448"
       y="-0.76172398"
       width="2.0211438"
       x="-0.51057192"
       id="filter15291"
       style="color-interpolation-filters:sRGB">
      <feGaussianBlur
         id="feGaussianBlur15293"
         stdDeviation="1.3607749" />
    </filter>
    <filter
       height="1.4943593"
       y="-0.24717967"
       width="1.6648399"
       x="-0.33241994"
       id="filter15295"
       style="color-interpolation-filters:sRGB">
      <feGaussianBlur
         id="feGaussianBlur15297"
         stdDeviation="1.3607749" />
    </filter>
    <filter
       height="2.0879152"
       y="-0.54395759"
       width="1.9148901"
       x="-0.45744507"
       id="filter15299"
       style="color-interpolation-filters:sRGB">
      <feGaussianBlur
         id="feGaussianBlur15301"
         stdDeviation="1.3607749" />
    </filter>
    <filter
       height="3.3947147"
       y="-1.1973574"
       width="4.0033669"
       x="-1.5016835"
       id="filter15303"
       style="color-interpolation-filters:sRGB">
      <feGaussianBlur
         id="feGaussianBlur15305"
         stdDeviation="1.3607749" />
    </filter>
    <filter
       height="2.6817608"
       y="-0.84088039"
       width="2.8455958"
       x="-0.92279792"
       id="filter15307"
       style="color-interpolation-filters:sRGB">
      <feGaussianBlur
         id="feGaussianBlur15309"
         stdDeviation="1.3607749" />
    </filter>
    <filter
       height="1.2350729"
       y="-0.11753646"
       width="1.247765"
       x="-0.12388252"
       id="filter15311"
       style="color-interpolation-filters:sRGB">
      <feGaussianBlur
         id="feGaussianBlur15313"
         stdDeviation="1.3607749" />
    </filter>
  </defs>
  <metadata
     id="metadata7">
    <rdf:RDF>
      <cc:Work
         rdf:about="">
        <dc:format>image/svg+xml</dc:format>
        <dc:type
           rdf:resource="http://purl.org/dc/dcmitype/StillImage" />
        <dc:title></dc:title>
      </cc:Work>
    </rdf:RDF>
  </metadata>
  <g
     style="display:inline"
     transform="translate(-208,11.637795)"
     id="layer1">
    <path
       id="path14493"
       transform="translate(208,-11.637795)"
       d="m 20.728516,2.1328125 c -1.891536,0.1549915 -4.782854,2.5229207 -5.576172,3.7128906 -0.0971,0.1455987 -0.432135,1.8769531 -0.552735,1.8769531 -1.66846,0 -1.737667,-3.6032491 -4.304687,-3.0898437 -3.8258002,0.7651604 -3.9069452,4.7460939 0.109375,4.7460937 -3.2704202,0.3153713 -4.7190839,0.014171 -6.4023439,2.5390628 -0.24575,0.368619 -0.9907894,0.666857 -0.6621093,1.324219 0.6501398,1.300284 4.8584974,1.927976 4.3046874,3.3125 -0.77536,1.938414 -4.7158518,0.171833 -3.2011718,3.201171 0.51512,1.030238 3.1603487,0.866234 2.9804687,1.765625 -0.29706,1.485338 -2.4583768,1.623561 -3.3105469,2.759766 -1.0110099,1.348025 -0.5483543,4.885861 1.1035157,5.298828 0.76966,0.192414 2.3759017,0.495796 3.2011719,0.220703 C 9.6437187,29.392196 11.10786,24.714966 10.625,23.507812 10.47797,23.140263 9.5214844,23.15285 9.5214844,22.957031 c 0,-0.264212 1.7173316,-0.356182 1.9882816,-0.220703 3.21256,1.606284 0.788804,6.84375 5.740234,6.84375 0.41463,0 1.857941,0.23273 2.207031,0 1.63998,-1.093317 -0.960283,-4.006503 -0.220703,-4.746094 1.74249,-1.742489 5.840105,4.283981 8.609375,2.207032 1.05403,-0.790532 1.657084,-3.310043 1.214844,-4.636719 -0.1,-0.300075 -1.738966,-0.938848 -2.097656,-1.65625 -0.26933,-0.538657 2.220932,-5.680565 2.539062,-6.953125 0.17466,-0.698659 0.1393,-2.063218 0,-2.759766 C 28.949863,8.2747262 25.518841,10.465406 24.644531,8.7167969 24.197891,7.8235034 23.769817,7.1435981 23.210938,6.3984375 22.153797,4.9888969 23.740119,2.9687082 21.443359,2.203125 21.332604,2.166206 21.215856,2.143839 21.091797,2.132813 c -0.116305,-0.010338 -0.237179,-0.010333 -0.363281,0 z M 17.75,9.875 c 1.6653,0 2.8045,1.1218 4.375,1.75 -2.83225,-1.189731 -1.02562,2.425206 -2.375,2.875 -5.15068,1.716892 -6.67337,-4.625 -2,-4.625 z m 5.109375,6.347656 c 0.332396,0.0013 0.716286,0.29899 1.140625,1.027344 -0.6029,1.20585 0.16813,3.0675 -0.625,4.125 -2.628028,3.504038 -2.310563,-5.159261 -0.515625,-5.152344 z"
       clip-path="none"
       style="fill:#92ad2f;fill-opacity:0.44036698;fill-rule:evenodd;stroke:none;stroke-width:1px;stroke-linecap:butt;stroke-linejoin:miter;stroke-opacity:1;filter:url(#filter15311)" />
    <path
       id="path14495"
       d="m 216.52843,15.071882 c -4.32769,2.092965 -4.67522,-4.986911 -1.10388,-3.201242 1.14433,0.572166 0.0458,2.407729 1.10388,3.201242 z"
       style="fill:#92ad2f;fill-opacity:0.69113147;fill-rule:evenodd;stroke:none;stroke-width:1px;stroke-linecap:butt;stroke-linejoin:miter;stroke-opacity:1;filter:url(#filter15307)" />
    <path
       id="path14497"
       d="m 215.42455,14.630331 c -1.00925,1.742409 -2.90898,-0.95458 -1.87658,-1.986977 1.06869,-1.068706 0.8536,3.350957 1.87658,1.986977 z"
       style="fill:#92ad2f;fill-opacity:0.69113147;fill-rule:evenodd;stroke:none;stroke-width:1px;stroke-linecap:butt;stroke-linejoin:miter;stroke-opacity:1;filter:url(#filter15303)" />
    <path
       id="path14499"
       d="m 216.19727,11.760253 c -0.88815,-0.115075 -3.66097,-0.17047 -4.4155,0.772713 -2.86818,3.585201 2.64652,6.072708 5.07783,4.857056 1.75925,-0.879632 1.78316,-5.629769 -0.66233,-5.629769 z"
       style="fill:#92ad2f;fill-opacity:0.69113147;fill-rule:evenodd;stroke:none;stroke-width:1px;stroke-linecap:butt;stroke-linejoin:miter;stroke-opacity:1;filter:url(#filter15299)" />
    <path
       id="path14501"
       d="m 222.82053,10.435601 c -2.18929,0.320938 -3.14789,-1.657045 -4.63629,-2.6493027 -0.43592,-0.290618 -1.91365,-0.1111996 -2.09736,-0.6623257 -0.48563,-1.4568792 1.43357,-4.3625172 0.66233,-5.5193814 -0.19998,-0.2999567 -2.09737,-0.1763208 -2.09737,-0.5519381 0,-0.5297017 1.73984,-1.0102923 2.20776,-1.1038762 1.02382,-0.2047673 4.37664,-3.7593633 5.18821,-1.3246516 0.47538,1.426133 -0.15303,6.0625493 0,6.2920947 0.59766,0.8965012 2.42853,2.6566681 2.42853,3.642792 0,1.131527 -1.75006,1.640984 -1.43504,2.428528"
       style="fill:#92ad2f;fill-opacity:0.69113147;fill-rule:evenodd;stroke:none;stroke-width:1px;stroke-linecap:butt;stroke-linejoin:miter;stroke-opacity:1;filter:url(#filter15295)" />
    <path
       id="path14503"
       d="m 221.2751,9.11095 c -7.20206,-3.1104286 1.96775,-4.4443358 2.87007,-3.0908537 3.2144,4.8215937 -4.57622,3.9439297 -2.87007,3.0908537 z"
       style="fill:#92ad2f;fill-opacity:0.69113147;fill-rule:evenodd;stroke:none;stroke-width:1px;stroke-linecap:butt;stroke-linejoin:miter;stroke-opacity:1;filter:url(#filter15291)" />
    <path
       id="path14505"
       d="m 220.94393,1.6045912 c 0.71179,-5.3266296 -6.69677,-2.9067349 -4.74666,0.9934886 0.45328,0.9065748 2.80598,3.7068784 4.30512,2.2077526 0.35958,-0.3595793 0.36394,-2.8131881 0.44154,-3.2012412 z"
       style="fill:#92ad2f;fill-opacity:0.69113147;fill-rule:evenodd;stroke:none;stroke-width:1px;stroke-linecap:butt;stroke-linejoin:miter;stroke-opacity:1;filter:url(#filter15287)" />
    <path
       id="path14507"
       d="m 229.00223,-5.0186663 c -0.49685,-0.3841856 -1.57727,-0.8273724 -1.98697,-0.1103873 -4.23957,7.4192433 6.59245,2.4131199 1.98697,0.1103873 z"
       style="fill:#92ad2f;fill-opacity:0.69113147;fill-rule:evenodd;stroke:none;stroke-width:1px;stroke-linecap:butt;stroke-linejoin:miter;stroke-opacity:1;filter:url(#filter15283)" />
    <path
       id="path14509"
       d="m 232.53464,1.3838159 c -0.84069,0.2355522 -1.93223,-0.2758215 -2.75969,0 -3.31023,1.10341 0.78584,3.4829981 2.87007,2.6493031 2.10653,-0.8426082 1.43619,-2.6493031 -0.66233,-2.6493031"
       style="fill:#92ad2f;fill-opacity:0.69113147;fill-rule:evenodd;stroke:none;stroke-width:1px;stroke-linecap:butt;stroke-linejoin:miter;stroke-opacity:1;filter:url(#filter15279)" />
    <path
       id="path14511"
       d="m 234.41122,12.974517 c -1.94572,0.14644 -3.22267,-0.433337 -4.30511,-1.87659 -0.75954,-1.012721 -5.96036,1.101544 -5.29861,-1.545427 0.58601,-2.3440447 12.55695,1.650086 9.60372,3.422017 z"
       style="fill:#92ad2f;fill-opacity:0.69113147;fill-rule:evenodd;stroke:none;stroke-width:1px;stroke-linecap:butt;stroke-linejoin:miter;stroke-opacity:1;filter:url(#filter15275)" />
    <path
       id="path14513"
       d="m 225.91137,4.4746695 c -0.0573,-1.6185934 -3.97866,-0.7821247 -3.09084,0.9934886 0.20394,0.4078894 1.29953,0.4415506 1.65581,0.4415506 0.47402,0 1.78992,0.4178427 2.20775,0 0.32937,-0.3293746 0.3168,-3.6140609 -0.77272,-1.4350392 z"
       style="fill:#92ad2f;fill-opacity:0.69113147;fill-rule:evenodd;stroke:none;stroke-width:1px;stroke-linecap:butt;stroke-linejoin:miter;stroke-opacity:1;filter:url(#filter15271)" />
  </g>
</svg>
