<?xml version="1.0" encoding="UTF-8" standalone="no"?>
<svg
   xmlns:dc="http://purl.org/dc/elements/1.1/"
   xmlns:cc="http://creativecommons.org/ns#"
   xmlns:rdf="http://www.w3.org/1999/02/22-rdf-syntax-ns#"
   xmlns:svg="http://www.w3.org/2000/svg"
   xmlns="http://www.w3.org/2000/svg"
   version="1.1"
   id="svg2"
   viewBox="0 0 32 32"
   height="32"
   width="32">
  <defs
     id="defs4">
    <filter
       height="1.9272201"
       y="-0.46361004"
       width="1.9644694"
       x="-0.4822347"
       id="filter13371"
       style="color-interpolation-filters:sRGB">
      <feGaussianBlur
         id="feGaussianBlur13373"
         stdDeviation="1.1752226" />
    </filter>
    <filter
       height="2.90678"
       y="-0.95339001"
       width="3.6743259"
       x="-1.337163"
       id="filter13375"
       style="color-interpolation-filters:sRGB">
      <feGaussianBlur
         id="feGaussianBlur13377"
         stdDeviation="1.1752226" />
    </filter>
    <filter
       height="2.8340145"
       y="-0.91700727"
       width="2.8447962"
       x="-0.92239812"
       id="filter13379"
       style="color-interpolation-filters:sRGB">
      <feGaussianBlur
         id="feGaussianBlur13381"
         stdDeviation="1.1752226" />
    </filter>
    <filter
       height="1.7355033"
       y="-0.36775165"
       width="1.5180813"
       x="-0.25904064"
       id="filter13383"
       style="color-interpolation-filters:sRGB">
      <feGaussianBlur
         id="feGaussianBlur13385"
         stdDeviation="1.1752226" />
    </filter>
    <filter
       height="1.4179951"
       y="-0.20899756"
       width="1.2903576"
       x="-0.14517878"
       id="filter13387"
       style="color-interpolation-filters:sRGB">
      <feGaussianBlur
         id="feGaussianBlur13389"
         stdDeviation="1.1752226" />
    </filter>
    <filter
       height="1.2351685"
       y="-0.11758424"
       width="1.2710409"
       x="-0.13552046"
       id="filter13391"
       style="color-interpolation-filters:sRGB">
      <feGaussianBlur
         id="feGaussianBlur13393"
         stdDeviation="1.1752226" />
    </filter>
    <filter
       height="1.5549418"
       y="-0.27747089"
       width="1.3458339"
       x="-0.17291697"
       id="filter13395"
       style="color-interpolation-filters:sRGB">
      <feGaussianBlur
         id="feGaussianBlur13397"
         stdDeviation="1.1752226" />
    </filter>
    <filter
       height="1.7042354"
       y="-0.3521177"
       width="1.5641929"
       x="-0.28209644"
       id="filter13399"
       style="color-interpolation-filters:sRGB">
      <feGaussianBlur
         id="feGaussianBlur13401"
         stdDeviation="1.1752226" />
    </filter>
    <filter
       height="1.918373"
       y="-0.45918649"
       width="1.77836"
       x="-0.38918002"
       id="filter13403"
       style="color-interpolation-filters:sRGB">
      <feGaussianBlur
         id="feGaussianBlur13405"
         stdDeviation="1.1752226" />
    </filter>
    <filter
       height="1.9256428"
       y="-0.46282139"
       width="1.6915663"
       x="-0.34578317"
       id="filter13407"
       style="color-interpolation-filters:sRGB">
      <feGaussianBlur
         id="feGaussianBlur13409"
         stdDeviation="1.1752226" />
    </filter>
  </defs>
  <metadata
     id="metadata7">
    <rdf:RDF>
      <cc:Work
         rdf:about="">
        <dc:format>image/svg+xml</dc:format>
        <dc:type
           rdf:resource="http://purl.org/dc/dcmitype/StillImage" />
        <dc:title></dc:title>
      </cc:Work>
    </rdf:RDF>
  </metadata>
  <g
     style="display:inline"
     transform="translate(-208,11.637795)"
     id="layer1">
    <path
       id="path12989"
       d="m 223.46796,15.942787 c -0.99428,-0.212451 -2.2196,0.296565 -3.18198,-0.08839 -0.92099,-0.368395 -2.62826,-2.051156 -2.91682,-2.916816 -0.14393,-0.431805 -1.08009,-0.304031 -1.23743,-0.618718 -0.32003,-0.640048 0.0999,-1.790777 0.35355,-2.298097 0.0901,-0.1803057 0.4615,-0.08839 0.61872,-0.08839 2.26308,0 0.92699,1.987654 2.12132,3.18198 0.62615,0.626152 2.37874,-0.04001 3.18198,0.441942 0.93313,0.559876 2.77914,2.386485 1.06066,2.386485 z"
       style="fill:#f0e0cb;fill-opacity:0.43119267;fill-rule:evenodd;stroke:none;stroke-width:1px;stroke-linecap:butt;stroke-linejoin:miter;stroke-opacity:1;filter:url(#filter13407)" />
    <path
       id="path12991"
       d="m 231.77647,13.821467 c -2.50879,-0.246415 -5.52506,-0.438824 -4.68459,-3.800699 0.22424,-0.8969627 1.89643,-1.0833397 2.56326,-1.3258247 7.62971,-2.774438 3.68486,8.2536007 2.12133,5.1265237 z"
       style="fill:#f0e0cb;fill-opacity:0.43119267;fill-rule:evenodd;stroke:none;stroke-width:1px;stroke-linecap:butt;stroke-linejoin:miter;stroke-opacity:1;filter:url(#filter13403)" />
    <path
       id="path12993"
       d="m 225.32412,11.434982 c -5.71023,1.811546 -4.158,-1.8868667 -5.65686,-2.3864857 -1.15307,-0.384357 -3.3738,0.09497 -3.97747,-1.414213 -0.92247,-2.306173 2.23862,-4.337141 4.24264,-3.535534 1.03175,0.4127 1.958,0.897347 2.74004,1.679378 0.28973,0.289735 0.94171,-0.108757 1.23743,0.08839 0.71039,0.473589 2.13816,5.2064937 1.41422,5.5684657 z"
       style="fill:#f0e0cb;fill-opacity:0.43119267;fill-rule:evenodd;stroke:none;stroke-width:1px;stroke-linecap:butt;stroke-linejoin:miter;stroke-opacity:1;filter:url(#filter13399)" />
    <path
       id="path12995"
       d="m 235.13522,4.6290793 c -5.02248,2.407595 -5.35818,1.753512 -8.39689,-2.298097 -1.06646,-1.42194895 -2.68596,-2.36671895 -3.53554,-4.0658642 -0.13723,-0.2744599 -0.14506,-0.6436889 -0.26516,-0.8838835 -0.22831,-0.4566263 -2.82804,-0.2661335 -3.0052,0.1767767 -1.44203,3.605071 3.07526,5.33375 5.39169,7.071068 0.47036,0.352772 0.65358,1.283657 1.23743,1.502602 1.65528,0.62073 6.36651,1.722297 8.22012,0.795495 0.98876,-0.49438 1.90287,-1.988234 0.35355,-2.298097 z"
       style="fill:#f0e0cb;fill-opacity:0.43119267;fill-rule:evenodd;stroke:none;stroke-width:1px;stroke-linecap:butt;stroke-linejoin:miter;stroke-opacity:1;filter:url(#filter13395)" />
    <path
       id="path12997"
       d="m 225.4125,-8.0988429 c -2.31974,0.8289668 -3.99196,3.026936 -5.39169,5.1265241 -0.72532,1.0879835 -3.27262,2.27238915 -4.5078,4.3310291 -0.51647,0.860787 0.17903,2.53079 -0.17678,3.005204 -0.71264,0.950195 -2.85742,7.6607917 -1.76776,8.7504457 1.13724,1.137244 14.98798,3.312509 16.97056,2.651651 1.24705,-0.415684 3.00876,-1.863273 3.53553,-2.916816 0.0688,-0.137655 -0.92072,-2.064867 -1.06066,-2.298097 -2.36379,-3.9396487 -4.93514,-1.5836887 -7.77817,-3.0052037 -1.96677,-0.983383 -1.41956,-2.745382 -2.65165,-3.977475 -0.93444,-0.934441 -4.46597,-1.097778 -3.71231,-3.35875795 0.67492,-2.02478605 2.78824,-2.95698575 4.41941,-3.88908695 1.02679,-0.5867341 0.59857,-1.8360083 1.23744,-2.4748737 0.56396,-0.5639626 0.88388,-1.1162969 0.88388,-1.9445436 z"
       style="fill:#f0e0cb;fill-opacity:0.43119267;fill-rule:evenodd;stroke:none;stroke-width:1px;stroke-linecap:butt;stroke-linejoin:miter;stroke-opacity:1;filter:url(#filter13391)" />
    <path
       id="path12999"
       d="m 235.04683,2.5961473 c -2.35097,1.068688 -4.88315,2.624104 -7.95495,1.856155 -1.62236,-0.40559 -1.87932,-3.62534695 -2.74004,-4.77297095 -0.57968,-0.77290905 -3.69335,-0.28412 -4.24264,0.265165 -0.60722,0.607221 -3.51661,6.47749495 -3.35875,7.42462195 0.1657,0.994208 1.22497,3.3052177 2.12132,3.9774747 2.08365,1.562743 14.61379,2.415432 16.08668,-0.53033 0.32829,-0.656588 0.67138,-1.3308527 0.97227,-2.0329317 0.53548,-1.249454 0.15447,-6.965953 -0.88389,-6.187184 z"
       style="fill:#f0e0cb;fill-opacity:0.43119267;fill-rule:evenodd;stroke:none;stroke-width:1px;stroke-linecap:butt;stroke-linejoin:miter;stroke-opacity:1;filter:url(#filter13387)" />
    <path
       id="path13001"
       d="m 224.17507,12.407254 c -0.65975,1.266151 -1.79635,1.59099 -3.18199,1.59099 -4.22653,0 -2.76969,-2.875646 -4.41941,-3.535533 -0.88157,-0.352627 -2.8705,0.723888 -2.12132,-1.1490494 0.55777,-1.394444 3.88291,-3.75137 5.56846,-2.740039 1.01932,0.611588 0.26904,1.805446 1.23744,2.386486 0.95999,0.575991 3.45678,0.657261 3.8007,2.0329324 0.18944,0.757784 0.29235,2.590445 -0.88388,1.414213 z"
       style="fill:#dfd1bb;fill-opacity:0.6238532;fill-rule:evenodd;stroke:none;stroke-width:1px;stroke-linecap:butt;stroke-linejoin:miter;stroke-opacity:1;filter:url(#filter13383)" />
    <path
       id="path13005"
       d="m 231.33452,13.644691 c -3.26515,1.66218 -3.816,-3.8525464 -1.23744,-2.563262 0.62615,0.313072 1.92801,2.563262 1.23744,2.563262 z"
       style="fill:#dfd1bb;fill-opacity:0.6238532;fill-rule:evenodd;stroke:none;stroke-width:1px;stroke-linecap:butt;stroke-linejoin:miter;stroke-opacity:1;filter:url(#filter13379)" />
    <path
       id="path13007"
       d="m 233.10229,4.8058556 c -0.74073,-0.227763 -1.5026,-0.02595 -1.5026,0.883884 0,0.691792 -0.35356,1.372572 -0.35356,1.856155 0,0.516188 2.97965,-0.493055 1.85616,-2.740039 z"
       style="fill:#dfd1bb;fill-opacity:0.6238532;fill-rule:evenodd;stroke:none;stroke-width:1px;stroke-linecap:butt;stroke-linejoin:miter;stroke-opacity:1;filter:url(#filter13375)" />
    <path
       id="path13009"
       d="m 221.16986,-1.4697168 c -7.83493,-0.020857 3.00521,8.6855264 3.00521,5.3033004 0,-1.333716 -0.45641,-2.405769 -1.23744,-3.44714504 -0.49438,-0.6591655 -1.20446,-1.1050809 -1.76777,-1.85615536 z"
       style="fill:#dfd1bb;fill-opacity:0.6238532;fill-rule:evenodd;stroke:none;stroke-width:1px;stroke-linecap:butt;stroke-linejoin:miter;stroke-opacity:1;filter:url(#filter13371)" />
  </g>
</svg>
