<?xml version="1.0" encoding="UTF-8" standalone="no"?>
<svg
   xmlns:osb="http://www.openswatchbook.org/uri/2009/osb"
   xmlns:dc="http://purl.org/dc/elements/1.1/"
   xmlns:cc="http://creativecommons.org/ns#"
   xmlns:rdf="http://www.w3.org/1999/02/22-rdf-syntax-ns#"
   xmlns:svg="http://www.w3.org/2000/svg"
   xmlns="http://www.w3.org/2000/svg"
   xmlns:xlink="http://www.w3.org/1999/xlink"
   version="1.1"
   id="svg2"
   viewBox="0 0 32 32"
   height="32"
   width="32">
  <defs
     id="defs4">
    <linearGradient
       osb:paint="solid"
       id="linearGradient10656">
      <stop
         id="stop10658"
         offset="0"
         style="stop-color:#000000;stop-opacity:1;" />
    </linearGradient>
    <symbol
       id="symbol9868">
      <path
         id="path5926"
         d="m 192.96613,26.621847 c -0.88851,0.02702 -1.39587,-0.09541 -2.00642,-0.705962 -0.27355,-0.273553 -1.93412,1.309239 -0.78027,1.597702 1.04937,0.262345 5.65932,-0.228824 2.78669,-0.89174 z"
         style="fill:#8e8e8e;fill-rule:evenodd;stroke:none;stroke-width:0.21018529px;stroke-linecap:butt;stroke-linejoin:miter;stroke-opacity:1;fill-opacity:0.50467288" />
    </symbol>
    <pattern
       id="pattern9931"
       patternTransform="translate(189.77607,25.884256)"
       height="1.701263"
       width="4.1190823"
       patternUnits="userSpaceOnUse">
      <use
         height="100%"
         width="100%"
         y="0"
         x="0"
         transform="translate(-189.77607,-25.884256)"
         xlink:href="#symbol9868"
         id="use9871" />
    </pattern>
    <pattern
       patternTransform="matrix(6.7051541,0,0,6.7051541,-4.7270508e-5,-2.5881836e-6)"
       id="pattern10874-3"
       xlink:href="#pattern9931-7" />
    <pattern
       id="pattern9931-7"
       patternTransform="translate(189.77607,25.884256)"
       height="1.701263"
       width="4.1190823"
       patternUnits="userSpaceOnUse">
      <use
         height="100%"
         width="100%"
         y="0"
         x="0"
         transform="translate(-189.77607,-25.884256)"
         xlink:href="#symbol9868"
         id="use9871-4" />
    </pattern>
    <filter
       height="3.7409666"
       y="-1.3704833"
       width="2.358922"
       x="-0.67946101"
       id="filter12775"
       style="color-interpolation-filters:sRGB">
      <feGaussianBlur
         id="feGaussianBlur12777"
         stdDeviation="1.2003452" />
    </filter>
    <filter
       height="1.688417"
       y="-0.3442085"
       width="1.8896163"
       x="-0.44480815"
       id="filter12779"
       style="color-interpolation-filters:sRGB">
      <feGaussianBlur
         id="feGaussianBlur12781"
         stdDeviation="1.2003452" />
    </filter>
    <filter
       height="2.5887679"
       y="-0.79438395"
       width="2.0663604"
       x="-0.53318018"
       id="filter12783"
       style="color-interpolation-filters:sRGB">
      <feGaussianBlur
         id="feGaussianBlur12785"
         stdDeviation="1.2003452" />
    </filter>
    <filter
       height="2.2491125"
       y="-0.62455627"
       width="2.5589964"
       x="-0.77949822"
       id="filter12787"
       style="color-interpolation-filters:sRGB">
      <feGaussianBlur
         id="feGaussianBlur12789"
         stdDeviation="1.2003452" />
    </filter>
    <filter
       height="1.2825783"
       y="-0.14128914"
       width="1.2730854"
       x="-0.13654272"
       id="filter12791"
       style="color-interpolation-filters:sRGB">
      <feGaussianBlur
         id="feGaussianBlur12793"
         stdDeviation="1.2003452" />
    </filter>
    <filter
       height="1.9908317"
       y="-0.49541584"
       width="1.3873689"
       x="-0.19368445"
       id="filter12795"
       style="color-interpolation-filters:sRGB">
      <feGaussianBlur
         id="feGaussianBlur12797"
         stdDeviation="1.2003452" />
    </filter>
    <filter
       height="1.5256912"
       y="-0.26284559"
       width="1.477755"
       x="-0.2388775"
       id="filter12799"
       style="color-interpolation-filters:sRGB">
      <feGaussianBlur
         id="feGaussianBlur12801"
         stdDeviation="1.2003452" />
    </filter>
    <filter
       height="1.7659067"
       y="-0.38295333"
       width="1.3758004"
       x="-0.18790019"
       id="filter12803"
       style="color-interpolation-filters:sRGB">
      <feGaussianBlur
         id="feGaussianBlur12805"
         stdDeviation="1.2003452" />
    </filter>
    <filter
       height="1.7727855"
       y="-0.38639274"
       width="1.4520834"
       x="-0.22604169"
       id="filter12807"
       style="color-interpolation-filters:sRGB">
      <feGaussianBlur
         id="feGaussianBlur12809"
         stdDeviation="1.2003452" />
    </filter>
    <filter
       height="1.691163"
       y="-0.34558151"
       width="1.5791057"
       x="-0.28955285"
       id="filter12811"
       style="color-interpolation-filters:sRGB">
      <feGaussianBlur
         id="feGaussianBlur12813"
         stdDeviation="1.2003452" />
    </filter>
  </defs>
  <metadata
     id="metadata7">
    <rdf:RDF>
      <cc:Work
         rdf:about="">
        <dc:format>image/svg+xml</dc:format>
        <dc:type
           rdf:resource="http://purl.org/dc/dcmitype/StillImage" />
        <dc:title></dc:title>
      </cc:Work>
    </rdf:RDF>
  </metadata>
  <g
     transform="translate(-208,11.637795)"
     id="layer1">
    <path
       id="path12037"
       d="m 217.36916,11.700146 c -1.3581,-0.107743 -3.8028,-0.04735 -4.59619,-1.237437 -0.0985,-0.147805 -0.30657,-0.6075347 -0.35356,-0.7954937 -1.12866,-4.5146423 1.60574,-1.4805243 2.03294,-2.1213203 0.53311,-0.799669 -1.18658,-3.695357 1.41421,-2.828427 0.27463,0.09154 3.72765,2.41716 3.8007,2.563262 0.28258,0.565154 -0.13869,1.275526 0.35355,1.767767 0.37506,0.375054 1.12045,0.06694 1.5026,0.353553 0.27783,0.2083703 0.71429,0.4239973 0.53033,0.883882 -0.0951,0.237754 -5.03995,2.986435 -5.74524,2.563263 -0.60262,-0.361576 2.97028,-0.830778 1.06066,-1.149049 z"
       style="fill:#8e8e8e;fill-opacity:0.50467296;fill-rule:evenodd;stroke:none;stroke-width:1px;stroke-linecap:butt;stroke-linejoin:miter;stroke-opacity:1;filter:url(#filter12811)" />
    <path
       id="path12039"
       d="m 223.02602,10.816263 c -1.43212,0.707222 -3.33485,3.757715 -1.41422,5.038135 2.58567,1.723776 5.69288,0.577246 8.22012,-0.265165 0.66559,-0.221865 1.52661,0.170773 2.20971,0 0.27097,-0.06774 0.0288,-2.178833 0.17677,-2.474873 0.21753,-0.435054 1.32583,-3.2543697 1.32583,-3.4471447 0,-0.4796193 -0.9689,-0.08704 -1.41421,-0.2651653 -1.56882,-0.627528 -3.90248,1.682724 -5.30331,2.032931 -1.26981,0.317453 -3.17464,-1.8708277 -3.80069,-0.618718 z"
       style="fill:#8e8e8e;fill-opacity:0.50467296;fill-rule:evenodd;stroke:none;stroke-width:1px;stroke-linecap:butt;stroke-linejoin:miter;stroke-opacity:1;filter:url(#filter12807)" />
    <path
       id="path12041"
       d="m 233.36745,7.545895 c 2.52449,-3.057204 -0.61813,-7.36589005 -4.41941,-6.098796 -0.70838,0.236126 -0.67161,2.403866 -0.97228,3.005204 -0.7357,1.471403 -3.54936,0.883883 -4.94974,0.883883 -1.10464,0 -1.5841,-5.84053005 -3.53554,-3.889087 -1.21967,1.219675 -0.1452,3.390333 0.7955,4.331029 1.21659,1.216598 7.83743,3.134774 9.8111,2.740038 1.00435,-0.200869 2.08803,-0.735803 3.27037,-0.972271 z"
       style="fill:#8e8e8e;fill-opacity:0.50467296;fill-rule:evenodd;stroke:none;stroke-width:1px;stroke-linecap:butt;stroke-linejoin:miter;stroke-opacity:1;filter:url(#filter12803)" />
    <path
       id="path12043"
       d="m 217.104,3.480031 c -3.66655,-0.218904 -2.76346,-5.8372581 -0.26517,-7.3362332 0.77279,-0.4636738 2.08443,-0.2111084 2.82843,-0.7071067 1.25115,-0.8340988 2.90886,-2.9168155 4.5078,-2.9168155 3.08841,0 3.36439,2.5162518 0.7955,3.8006989 -2.08332,1.041659 -4.21744,0.6440139 -6.18719,2.1213205 -1.65762,1.24321795 -0.76592,4.124684 -1.67937,5.038136 z"
       style="fill:#8e8e8e;fill-opacity:0.50467296;fill-rule:evenodd;stroke:none;stroke-width:1px;stroke-linecap:butt;stroke-linejoin:miter;stroke-opacity:1;filter:url(#filter12799)" />
    <path
       id="path12045"
       d="m 234.25134,0.82837996 c -1.72897,-1.12803801 -3.60543,-1.67937797 -5.74525,-1.67937797 -2.76298,0 -4.8787,0.88966396 -7.24784,1.67937797 -0.81657,0.27219104 -2.30124,-0.52508701 -1.76777,-1.41421301 1.40739,-2.34565585 5.73806,-1.07737295 7.24785,-2.20970895 0.72408,-0.5430617 1.66085,-1.5375316 2.47487,-1.9445436 0.34122,-0.1706117 2.05672,-0.1319055 2.38649,0 1.25303,0.5012123 2.65165,2.5723554 2.65165,3.80069859 0,0.50925696 -0.863,2.41501301 0,1.76776697 z"
       style="fill:#8e8e8e;fill-opacity:0.50467296;fill-rule:evenodd;stroke:none;stroke-width:1px;stroke-linecap:butt;stroke-linejoin:miter;stroke-opacity:1;filter:url(#filter12795)" />
    <path
       id="path12051"
       d="m 219.04854,9.048497 c -1.71519,2.707969 -4.55225,-0.706593 -3.44714,-2.916816 0.99815,-1.99631 3.44714,0.714381 3.44714,2.916816 z"
       style="fill:#a47878;fill-opacity:0.50467296;fill-rule:evenodd;stroke:none;stroke-width:1px;stroke-linecap:butt;stroke-linejoin:miter;stroke-opacity:1;filter:url(#filter12787)" />
    <path
       id="path12055"
       d="m 225.94284,14.440186 c -0.69364,-0.03025 -1.41879,0.468354 -2.12132,0 -4.88847,-3.258978 -0.61673,-4.020672 1.41421,-3.005204 1.04636,0.523182 2.89987,3.005204 0.70711,3.005204 z"
       style="fill:#a47878;fill-opacity:0.50467296;fill-rule:evenodd;stroke:none;stroke-width:1px;stroke-linecap:butt;stroke-linejoin:miter;stroke-opacity:1;filter:url(#filter12783)" />
    <path
       id="path12049"
       d="m 235.40038,9.136885 c -2.02974,0.105395 -3.57849,1.816409 -5.03813,3.093591 -2.06573,1.807512 -9.1884,3.097586 -11.22532,1.06066 -0.6749,-0.674896 -1.96034,0.321967 -2.56326,-0.883883 -1.11703,-2.23405 -0.54017,-4.746846 -1.23744,-7.071067 -0.49687,-1.656239 -0.86059,-5.84298905 0.0884,-7.4246212 1.29661,-2.1610278 9.43529,-1.1627968 11.75565,-2.032932 1.33483,-0.500563 2.43327,-1.3414203 3.71231,-1.7677669 0.93168,-0.3105589 2.479,-0.2379117 3.09359,0.53033 2.06592,2.5823995 1.50644,7.1902401 0.70711,9.9878831 -0.49296,1.725371 0.40351,3.168526 1.23744,4.419418 0.0288,0.04316 -0.53033,1.168152 -0.53033,0.08839 z"
       style="fill:#8e8e8e;fill-opacity:0.34862384;fill-rule:evenodd;stroke:none;stroke-width:1px;stroke-linecap:butt;stroke-linejoin:miter;stroke-opacity:1;filter:url(#filter12791)" />
    <path
       id="path12057"
       d="m 232.74874,7.81106 c 0.31409,1.907968 -5.65686,4.425036 -5.65686,1.767767 0,-0.241857 -0.0944,-0.877887 0.0884,-1.060661 1.49278,-1.492771 2.6618,0.765056 3.8007,-2.65165 0.47788,-1.433641 -1.37645,-3.289251 -1.23743,-3.358757 2.46722,-1.233611 5.17972,5.738205 3.0052,5.303301 z"
       style="fill:#a47878;fill-opacity:0.50467296;fill-rule:evenodd;stroke:none;stroke-width:1px;stroke-linecap:butt;stroke-linejoin:miter;stroke-opacity:1;filter:url(#filter12779)" />
    <path
       id="path12059"
       d="m 225.23573,-2.1768236 c 1.586,-0.9043985 2.6528,2.2682496 3.88909,1.8561556 1.53954,-0.513182 -2.39847,-2.7505259 -3.88909,-1.8561556 z"
       style="fill:#a47878;fill-opacity:0.50467296;fill-rule:evenodd;stroke:none;stroke-width:1px;stroke-linecap:butt;stroke-linejoin:miter;stroke-opacity:1;filter:url(#filter12775)" />
  </g>
</svg>
