<?xml version="1.0" encoding="UTF-8" standalone="no"?>
<!-- Created with Inkscape (http://www.inkscape.org/) -->

<svg
   xmlns:dc="http://purl.org/dc/elements/1.1/"
   xmlns:cc="http://creativecommons.org/ns#"
   xmlns:rdf="http://www.w3.org/1999/02/22-rdf-syntax-ns#"
   xmlns:svg="http://www.w3.org/2000/svg"
   xmlns="http://www.w3.org/2000/svg"
   xmlns:xlink="http://www.w3.org/1999/xlink"
   xmlns:sodipodi="http://sodipodi.sourceforge.net/DTD/sodipodi-0.dtd"
   xmlns:inkscape="http://www.inkscape.org/namespaces/inkscape"
   width="32"
   height="32"
   id="svg3447"
   version="1.1"
   inkscape:version="0.48.4 r9939"
   sodipodi:docname="button3-21.svg">
  <defs
     id="defs3449">
    <mask
       maskUnits="userSpaceOnUse"
       id="mask4325">
      <path
         transform="translate(24.5,-0.5)"
         d="m 156,80 a 11,11 0 1 1 -22,0 11,11 0 1 1 22,0 z"
         sodipodi:ry="11"
         sodipodi:rx="11"
         sodipodi:cy="80"
         sodipodi:cx="145"
         id="path4327"
         style="fill:#ffffff;fill-opacity:1;fill-rule:evenodd;stroke:none;display:inline"
         sodipodi:type="arc" />
    </mask>
  </defs>
  <sodipodi:namedview
     id="base"
     pagecolor="#ffffff"
     bordercolor="#666666"
     borderopacity="1.0"
     inkscape:pageopacity="0.0"
     inkscape:pageshadow="2"
     inkscape:zoom="7.9101828"
     inkscape:cx="1.7316953"
     inkscape:cy="23.577186"
     inkscape:document-units="px"
     inkscape:current-layer="layer1"
     showgrid="false"
     inkscape:snap-bbox="true"
     inkscape:window-width="1360"
     inkscape:window-height="706"
     inkscape:window-x="-8"
     inkscape:window-y="-8"
     inkscape:window-maximized="1"
     inkscape:snap-page="true">
    <inkscape:grid
       type="xygrid"
       id="grid3695"
       empspacing="5"
       visible="true"
       enabled="true"
       snapvisiblegridlinesonly="true" />
  </sodipodi:namedview>
  <metadata
     id="metadata3452">
    <rdf:RDF>
      <cc:Work
         rdf:about="">
        <dc:format>image/svg+xml</dc:format>
        <dc:type
           rdf:resource="http://purl.org/dc/dcmitype/StillImage" />
        <dc:title></dc:title>
      </cc:Work>
    </rdf:RDF>
  </metadata>
  <g
     inkscape:label="Layer 1"
     inkscape:groupmode="layer"
     id="layer1"
     transform="translate(0,-1020.3622)">
    <use
       x="0"
       y="0"
       xlink:href="#use5974"
       id="use5976-1"
       transform="translate(167.37568,1033.2417)"
       width="256"
       height="256"
       style="fill:#000000;fill-opacity:0;display:inline" />
    <use
       style="display:inline"
       x="0"
       y="0"
       xlink:href="#g5966"
       id="use6049-7"
       transform="translate(71.375679,1001.2784)"
       width="256"
       height="256" />
    <rect
       style="fill:#ffedc1;fill-opacity:1;fill-rule:nonzero;stroke:none;display:inline"
       id="rect4640"
       width="32"
       height="32"
       x="0"
       y="1020.3622" />
    <g
       style="display:inline"
       id="g4317"
       transform="translate(-153.5,956.8622)"
       mask="url(#mask4325)">
      <rect
         y="73.5"
         x="169.5"
         height="20"
         width="11.5"
         id="rect4236-4"
         style="fill:#000000;fill-opacity:1;fill-rule:evenodd;stroke:none" />
      <path
         inkscape:connector-curvature="0"
         id="path4193"
         d="m 169.5,65.5 0,20 c 5.52285,0 10,-4.477153 10,-10 0,-5.522847 -4.47715,-10 -10,-10 z"
         style="fill:#ffffff;fill-opacity:1;fill-rule:evenodd;stroke:none" />
      <path
         sodipodi:nodetypes="cczc"
         inkscape:connector-curvature="0"
         id="path4161"
         d="m 169.5,81.5 0,-12 c 0,0 6,3.596748 6,6 0,2.403252 -6,6 -6,6 z"
         inkscape:transform-center-x="-1.0833328"
         style="fill:#000000;fill-opacity:1;fill-rule:evenodd;stroke:none" />
      <rect
         y="65.5"
         x="158"
         height="20"
         width="11.5"
         id="rect4236"
         style="fill:#ffffff;fill-opacity:1;fill-rule:evenodd;stroke:none" />
      <path
         id="path4193-1"
         d="m 169.5,73.5 0,20 c -5.52285,0 -10,-4.477153 -10,-10 0,-5.522847 4.47715,-10 10,-10 z"
         style="fill:#000000;fill-opacity:1;fill-rule:evenodd;stroke:none"
         inkscape:connector-curvature="0" />
      <path
         style="fill:#ffffff;fill-opacity:1;fill-rule:evenodd;stroke:none"
         inkscape:transform-center-x="-1.0833328"
         d="m 169.5,89.5 0,-12 c 0,0 -6,3.596748 -6,6 0,2.403252 6,6 6,6 z"
         id="use3212"
         inkscape:connector-curvature="0"
         sodipodi:nodetypes="cczc" />
    </g>
    <path
       sodipodi:type="arc"
       style="fill:none;stroke:#373737;stroke-width:1.0476191;stroke-opacity:1;display:inline"
       id="path4137"
       sodipodi:cx="145"
       sodipodi:cy="80"
       sodipodi:rx="11"
       sodipodi:ry="11"
       d="m 156,80 a 11,11 0 1 1 -22,0 11,11 0 1 1 22,0 z"
       transform="matrix(0.95454544,0,0,0.95454545,-122.40909,959.99856)" />
  </g>
</svg>
