<?xml version="1.0" encoding="UTF-8" standalone="no"?>
<svg
   xmlns:osb="http://www.openswatchbook.org/uri/2009/osb"
   xmlns:dc="http://purl.org/dc/elements/1.1/"
   xmlns:cc="http://creativecommons.org/ns#"
   xmlns:rdf="http://www.w3.org/1999/02/22-rdf-syntax-ns#"
   xmlns:svg="http://www.w3.org/2000/svg"
   xmlns="http://www.w3.org/2000/svg"
   xmlns:xlink="http://www.w3.org/1999/xlink"
   version="1.1"
   id="svg3447"
   height="32"
   width="32">
  <defs
     id="defs3449">
    <mask
       id="mask4325"
       maskUnits="userSpaceOnUse">
      <path
         style="fill:#ffffff;fill-opacity:1;fill-rule:evenodd;stroke:none;display:inline"
         id="path4327"
         d="m 156,80 a 11,11 0 1 1 -22,0 11,11 0 1 1 22,0 z"
         transform="translate(24.5,-0.5)" />
    </mask>
    <mask
       id="mask4639"
       maskUnits="userSpaceOnUse">
      <path
         id="path4641"
         d="m 8,198 0,12 c 0,4.41828 3.58172,8 8,8 4.41828,0 8,-3.58172 8,-8 l 0,-12 -16,0 z"
         style="fill:#ffffff;fill-opacity:1;fill-rule:evenodd;stroke:none" />
    </mask>
    <mask
       id="mask4584"
       maskUnits="userSpaceOnUse">
      <path
         d="m 27,208 a 11,11 0 1 1 -22,0 11,11 0 1 1 22,0 z"
         id="path4586"
         style="fill:#ffffff;fill-opacity:1;fill-rule:evenodd;stroke:none" />
    </mask>
    <linearGradient
       y2="194"
       x2="82"
       y1="206"
       x1="94"
       gradientTransform="translate(-80,844.36224)"
       gradientUnits="userSpaceOnUse"
       id="linearGradient4371"
       xlink:href="#linearGradient4373" />
    <linearGradient
       id="linearGradient4373">
      <stop
         style="stop-color:#b09f7d;stop-opacity:1"
         offset="0"
         id="stop4375" />
      <stop
         style="stop-color:#b09f7d;stop-opacity:1"
         offset="1"
         id="stop4377" />
    </linearGradient>
    <linearGradient
       y2="207"
       x2="95"
       y1="193"
       x1="81"
       gradientTransform="translate(-80,844.36224)"
       gradientUnits="userSpaceOnUse"
       id="linearGradient4369"
       xlink:href="#linearGradient4379" />
    <linearGradient
       id="linearGradient4379">
      <stop
         style="stop-color:#d4cab3;stop-opacity:1"
         offset="0"
         id="stop4381" />
      <stop
         style="stop-color:#806943;stop-opacity:1"
         offset="1"
         id="stop4383" />
    </linearGradient>
    <linearGradient
       y2="202"
       x2="89"
       y1="193"
       x1="81"
       gradientTransform="translate(-80,844.36224)"
       gradientUnits="userSpaceOnUse"
       id="linearGradient4367"
       xlink:href="#linearGradient4385" />
    <linearGradient
       id="linearGradient4385">
      <stop
         style="stop-color:#e0d8c7;stop-opacity:1"
         offset="0"
         id="stop4387" />
      <stop
         style="stop-color:#6f5833;stop-opacity:1"
         offset="1"
         id="stop4389" />
    </linearGradient>
    <linearGradient
       y2="194"
       x2="82"
       y1="206"
       x1="94"
       gradientTransform="translate(-64,844.36224)"
       gradientUnits="userSpaceOnUse"
       id="linearGradient4341"
       xlink:href="#linearGradient4355" />
    <linearGradient
       id="linearGradient4355">
      <stop
         id="stop4357"
         offset="0"
         style="stop-color:#b77373;stop-opacity:1" />
      <stop
         id="stop4359"
         offset="1"
         style="stop-color:#b77373;stop-opacity:1" />
    </linearGradient>
    <linearGradient
       y2="207"
       x2="95"
       y1="193"
       x1="81"
       gradientTransform="translate(-64,844.36224)"
       gradientUnits="userSpaceOnUse"
       id="linearGradient4339"
       xlink:href="#linearGradient4343" />
    <linearGradient
       id="linearGradient4343">
      <stop
         id="stop4345"
         offset="0"
         style="stop-color:#d8acac;stop-opacity:1" />
      <stop
         id="stop4347"
         offset="1"
         style="stop-color:#893939;stop-opacity:1" />
    </linearGradient>
    <linearGradient
       y2="202"
       x2="89"
       y1="193"
       x1="81"
       gradientTransform="translate(-64,844.36224)"
       gradientUnits="userSpaceOnUse"
       id="linearGradient4337"
       xlink:href="#linearGradient4349" />
    <linearGradient
       id="linearGradient4349">
      <stop
         id="stop4351"
         offset="0"
         style="stop-color:#e3c1c1;stop-opacity:1" />
      <stop
         id="stop4353"
         offset="1"
         style="stop-color:#792b2b;stop-opacity:1" />
    </linearGradient>
    <linearGradient
       y2="194"
       x2="82"
       y1="206"
       x1="94"
       gradientTransform="translate(-64,828.36224)"
       gradientUnits="userSpaceOnUse"
       id="linearGradient4311"
       xlink:href="#linearGradient4325" />
    <linearGradient
       id="linearGradient4325">
      <stop
         style="stop-color:#c6905d;stop-opacity:1"
         offset="0"
         id="stop4327" />
      <stop
         style="stop-color:#c6905d;stop-opacity:1"
         offset="1"
         id="stop4329" />
    </linearGradient>
    <linearGradient
       y2="207"
       x2="95"
       y1="193"
       x1="81"
       gradientTransform="translate(-64,828.36224)"
       gradientUnits="userSpaceOnUse"
       id="linearGradient4309"
       xlink:href="#linearGradient4313" />
    <linearGradient
       id="linearGradient4313">
      <stop
         style="stop-color:#e1c09b;stop-opacity:1"
         offset="0"
         id="stop4315" />
      <stop
         style="stop-color:#9f5826;stop-opacity:1"
         offset="1"
         id="stop4317" />
    </linearGradient>
    <linearGradient
       y2="202"
       x2="89"
       y1="193"
       x1="81"
       gradientTransform="translate(-64,828.36224)"
       gradientUnits="userSpaceOnUse"
       id="linearGradient4307"
       xlink:href="#linearGradient4319" />
    <linearGradient
       id="linearGradient4319">
      <stop
         style="stop-color:#e9d1b3;stop-opacity:1"
         offset="0"
         id="stop4321" />
      <stop
         style="stop-color:#91471a;stop-opacity:1"
         offset="1"
         id="stop4323" />
    </linearGradient>
    <linearGradient
       gradientTransform="translate(-80,828.36224)"
       gradientUnits="userSpaceOnUse"
       y2="194"
       x2="82"
       y1="206"
       x1="94"
       id="linearGradient4299"
       xlink:href="#linearGradient4293" />
    <linearGradient
       id="linearGradient4293">
      <stop
         id="stop4295"
         offset="0"
         style="stop-color:#c6ac5d;stop-opacity:1" />
      <stop
         id="stop4297"
         offset="1"
         style="stop-color:#c6ac5d;stop-opacity:1" />
    </linearGradient>
    <linearGradient
       gradientTransform="translate(-80,828.36224)"
       gradientUnits="userSpaceOnUse"
       y2="207"
       x2="95"
       y1="193"
       x1="81"
       id="linearGradient4289"
       xlink:href="#linearGradient4282" />
    <linearGradient
       id="linearGradient4282">
      <stop
         id="stop4284"
         offset="0"
         style="stop-color:#e1d29b;stop-opacity:1" />
      <stop
         id="stop4286"
         offset="1"
         style="stop-color:#9f7a26;stop-opacity:1" />
    </linearGradient>
    <linearGradient
       gradientTransform="translate(-16,1.6909766e-6)"
       gradientUnits="userSpaceOnUse"
       y2="202"
       x2="89"
       y1="193"
       x1="81"
       id="linearGradient4278"
       xlink:href="#linearGradient4272" />
    <linearGradient
       id="linearGradient4272">
      <stop
         id="stop4274"
         offset="0"
         style="stop-color:#e9deb3;stop-opacity:1" />
      <stop
         id="stop4276"
         offset="1"
         style="stop-color:#91691a;stop-opacity:1" />
    </linearGradient>
    <linearGradient
       xlink:href="#linearGradient4272"
       id="linearGradient6090"
       gradientUnits="userSpaceOnUse"
       gradientTransform="translate(-80,828.36224)"
       x1="81"
       y1="193"
       x2="89"
       y2="202" />
    <linearGradient
       gradientTransform="translate(-26,-6)"
       gradientUnits="userSpaceOnUse"
       y2="262"
       x2="58"
       y1="230"
       x1="26"
       id="linearGradient4186"
       xlink:href="#linearGradient4180" />
    <linearGradient
       id="linearGradient4180">
      <stop
         id="stop4182"
         offset="0"
         style="stop-color:#a19c7f;stop-opacity:1" />
      <stop
         id="stop4184"
         offset="1"
         style="stop-color:#8b866b;stop-opacity:1" />
    </linearGradient>
    <linearGradient
       xlink:href="#linearGradient4180"
       id="linearGradient6107"
       gradientUnits="userSpaceOnUse"
       gradientTransform="translate(-26,790.36217)"
       x1="26"
       y1="230"
       x2="58"
       y2="262" />
    <linearGradient
       y2="273"
       x2="190"
       y1="273"
       x1="185"
       gradientTransform="translate(-1211.3622,-257)"
       gradientUnits="userSpaceOnUse"
       id="linearGradient4281"
       xlink:href="#linearGradient4161" />
    <linearGradient
       osb:paint="gradient"
       id="linearGradient4161">
      <stop
         id="stop4163"
         offset="0"
         style="stop-color:#45c0fe;stop-opacity:0" />
      <stop
         id="stop4165"
         offset="1"
         style="stop-color:#003a83;stop-opacity:1" />
    </linearGradient>
    <linearGradient
       y2="273"
       x2="190"
       y1="273"
       x1="185"
       gradientTransform="translate(-190.99999,-1309.3622)"
       gradientUnits="userSpaceOnUse"
       id="linearGradient4283"
       xlink:href="#linearGradient4179" />
    <linearGradient
       osb:paint="gradient"
       id="linearGradient4179">
      <stop
         id="stop4181"
         offset="0"
         style="stop-color:#45c0fe;stop-opacity:0" />
      <stop
         id="stop4183"
         offset="1"
         style="stop-color:#003a83;stop-opacity:1" />
    </linearGradient>
    <linearGradient
       y2="273"
       x2="190"
       y1="273"
       x1="185"
       gradientTransform="translate(861.36222,-288.99999)"
       gradientUnits="userSpaceOnUse"
       id="linearGradient4285"
       xlink:href="#linearGradient4173" />
    <linearGradient
       osb:paint="gradient"
       id="linearGradient4173">
      <stop
         id="stop4175"
         offset="0"
         style="stop-color:#45c0fe;stop-opacity:0" />
      <stop
         id="stop4177"
         offset="1"
         style="stop-color:#003a83;stop-opacity:1" />
    </linearGradient>
    <linearGradient
       gradientTransform="translate(-159.00001,763.36222)"
       gradientUnits="userSpaceOnUse"
       y2="273"
       x2="190"
       y1="273"
       x1="185"
       id="linearGradient5845"
       xlink:href="#linearGradient4167" />
    <linearGradient
       osb:paint="gradient"
       id="linearGradient4167">
      <stop
         id="stop4169"
         offset="0"
         style="stop-color:#45c0fe;stop-opacity:0" />
      <stop
         id="stop4171"
         offset="1"
         style="stop-color:#003a83;stop-opacity:1" />
    </linearGradient>
    <linearGradient
       gradientTransform="translate(-63.000001,1020.3623)"
       gradientUnits="userSpaceOnUse"
       y2="22.481482"
       x2="85.555557"
       y1="28.870371"
       x1="91.944443"
       id="linearGradient3990"
       xlink:href="#linearGradient3984" />
    <linearGradient
       id="linearGradient3984">
      <stop
         id="stop3986"
         offset="0"
         style="stop-color:#fff8bb;stop-opacity:1" />
      <stop
         id="stop3988"
         offset="1"
         style="stop-color:#ecb100;stop-opacity:1" />
    </linearGradient>
    <linearGradient
       gradientTransform="translate(32.999997,-3e-8)"
       gradientUnits="userSpaceOnUse"
       y2="17"
       x2="80"
       y1="15"
       x1="78"
       id="linearGradient3980"
       xlink:href="#linearGradient3974" />
    <linearGradient
       id="linearGradient3974">
      <stop
         id="stop3976"
         offset="0"
         style="stop-color:#ae8300;stop-opacity:1" />
      <stop
         id="stop3978"
         offset="1"
         style="stop-color:#ffe89f;stop-opacity:1" />
    </linearGradient>
    <linearGradient
       xlink:href="#linearGradient3974"
       id="linearGradient6548"
       gradientUnits="userSpaceOnUse"
       gradientTransform="translate(-63.000003,1020.3623)"
       x1="78"
       y1="15"
       x2="80"
       y2="17" />
    <linearGradient
       xlink:href="#linearGradient3996-7"
       id="linearGradient6584"
       gradientUnits="userSpaceOnUse"
       gradientTransform="translate(-24,-52)"
       x1="156"
       y1="0"
       x2="188"
       y2="32" />
    <linearGradient
       id="linearGradient3996-7">
      <stop
         id="stop3998-7"
         offset="0"
         style="stop-color:#fdf382;stop-opacity:1" />
      <stop
         style="stop-color:#f4ce39;stop-opacity:1"
         offset="0.50568372"
         id="stop4004-9" />
      <stop
         id="stop4000-3"
         offset="1"
         style="stop-color:#ecb100;stop-opacity:1" />
    </linearGradient>
    <linearGradient
       xlink:href="#linearGradient3996-7"
       id="linearGradient6621"
       gradientUnits="userSpaceOnUse"
       gradientTransform="translate(-156,1020.3622)"
       x1="156"
       y1="0"
       x2="188"
       y2="32" />
  </defs>
  <metadata
     id="metadata3452">
    <rdf:RDF>
      <cc:Work
         rdf:about="">
        <dc:format>image/svg+xml</dc:format>
        <dc:type
           rdf:resource="http://purl.org/dc/dcmitype/StillImage" />
        <dc:title></dc:title>
      </cc:Work>
    </rdf:RDF>
  </metadata>
  <g
     transform="translate(0,-1020.3622)"
     id="layer1">
    <g
       transform="translate(0,1020.3268)"
       id="g3152">
      <path
         style="fill:#000000;fill-opacity:1;fill-rule:nonzero;stroke:none"
         d="m 0,0.03543307 31.996065,0 0,31.99606293 -31.996065,0 z"
         id="path3154" />
      <path
         style="fill:#ffffff;fill-opacity:1;fill-rule:nonzero;stroke:none"
         d="M 0.70866146,8.0787401 8.8228352,0.0354 l 14.3503948,0 8.220473,8.3622377 -0.07087,15.4488183 -8.326772,8.188944 -14.3149611,0 -8.04330759,-8.543274 z"
         id="path3156" />
      <path
         style="fill:none;stroke:#000000;stroke-width:2.05511832px;stroke-linecap:butt;stroke-linejoin:miter;stroke-miterlimit:4;stroke-opacity:1;stroke-dasharray:none"
         d="M 2.8346458,9.1417322 9.8858274,2.3031496 22.287403,2.2322834 29.444884,9.4251968 29.374017,22.818897 22.181104,29.940945 9.7440951,29.905512 2.7637797,22.535433 z"
         id="path3158" />
      <path
         style="fill:#000000;fill-opacity:1;fill-rule:nonzero;stroke:none"
         d="m 9.3897643,17.751968 c 0,0.531496 -0.070866,1.027559 -0.1771653,1.417323 -0.1417323,0.389764 -0.3188977,0.744095 -0.5314961,0.992126 -0.2480315,0.283465 -0.496063,0.46063 -0.8149607,0.602362 -0.2834646,0.141733 -0.6023622,0.212599 -0.956693,0.212599 -0.2125984,0 -0.4251968,-0.03543 -0.6377953,-0.106299 C 6.0590555,20.834645 5.9173232,20.763779 5.7401578,20.65748 5.5984255,20.586614 5.4921263,20.515748 5.3858271,20.409449 5.2795279,20.338583 5.2086617,20.232283 5.1377956,20.161417 c -0.035433,-0.03543 -0.070866,-0.141732 -0.070866,-0.283464 -0.035433,-0.1063 -0.035433,-0.318898 -0.035433,-0.531496 0,-0.177166 0,-0.318898 0,-0.425197 0.035433,-0.1063 0.035433,-0.177166 0.035433,-0.248032 0.035433,-0.07087 0.035433,-0.141732 0.070866,-0.141732 0.035433,-0.03543 0.070866,-0.07087 0.1062992,-0.07087 0.035433,0 0.1062992,0.07087 0.1771654,0.141732 0.1062992,0.07087 0.2125984,0.177165 0.3543307,0.283465 0.1417323,0.106299 0.2834646,0.212598 0.496063,0.283464 0.1771654,0.106299 0.3897638,0.141732 0.6732284,0.141732 0.1417323,0 0.2834646,-0.03543 0.4251969,-0.106299 0.1417323,-0.03543 0.2480315,-0.141732 0.3543307,-0.248031 0.070866,-0.106299 0.1417323,-0.248032 0.1771654,-0.389764 0.070866,-0.177165 0.1062992,-0.354331 0.1062992,-0.531496 0,-0.248032 -0.070866,-0.425197 -0.1417323,-0.602362 C 7.7952761,17.255905 7.6889768,17.114173 7.5472445,17.007874 7.4055122,16.866142 7.26378,16.759842 7.0866146,16.61811 6.9448823,16.511811 6.7677169,16.405512 6.5905516,16.263779 6.4133862,16.15748 6.2362208,16.015748 6.0590555,15.838583 5.8818901,15.69685 5.7401578,15.484252 5.5984255,15.271653 5.4921263,15.059055 5.3858271,14.77559 5.2795279,14.492126 5.2086617,14.173228 5.1732287,13.818898 5.1732287,13.393701 c 0,-0.46063 0.070866,-0.92126 0.1771653,-1.275591 0.1417323,-0.354331 0.2834646,-0.673228 0.496063,-0.92126 0.2125985,-0.212598 0.4251969,-0.389763 0.7086615,-0.531496 0.2834646,-0.106299 0.5669292,-0.177165 0.8858268,-0.177165 0.1417323,0 0.3188977,0.03543 0.46063,0.07087 0.1771653,0.03543 0.3188976,0.07087 0.4606299,0.141732 0.1417323,0.07087 0.2480315,0.141733 0.3543307,0.212599 0.1062993,0.07087 0.1771654,0.141732 0.2125985,0.212598 0.035433,0.03543 0.035433,0.07087 0.070866,0.106299 0,0.03543 0,0.1063 0.035433,0.141733 0,0.07087 0,0.141732 0,0.248031 0,0.07087 0,0.212599 0,0.318898 0,0.177165 0,0.283464 0,0.389764 0,0.106299 0,0.212598 -0.035433,0.283464 0,0.03543 -0.035433,0.106299 -0.035433,0.141732 -0.035433,0.03543 -0.070866,0.03543 -0.1062993,0.03543 -0.035433,0 -0.1062992,-0.03543 -0.1771653,-0.106299 C 8.6102367,12.614173 8.5039375,12.543307 8.3976383,12.437008 8.255906,12.366142 8.1141737,12.259842 7.9724414,12.188976 7.7952761,12.11811 7.6181107,12.082677 7.4409453,12.082677 c -0.1417323,0 -0.2834646,0.03543 -0.3897638,0.106299 -0.1062992,0.03543 -0.2125984,0.106299 -0.2834646,0.212599 -0.070866,0.106299 -0.1062992,0.212598 -0.1417323,0.35433 -0.035433,0.141733 -0.070866,0.283465 -0.070866,0.425197 0,0.212599 0.035433,0.425197 0.1062992,0.566929 0.1062992,0.177166 0.2125985,0.318898 0.3543307,0.46063 0.1062993,0.1063 0.2834646,0.248032 0.4251969,0.354331 0.1771654,0.106299 0.3543308,0.248031 0.5314961,0.354331 0.1771654,0.141732 0.3543307,0.283464 0.5314961,0.425197 0.1771654,0.177165 0.3188977,0.35433 0.46063,0.566929 0.1417323,0.248031 0.2480315,0.496063 0.3188976,0.81496 0.070866,0.283465 0.1062992,0.637796 0.1062992,1.027559 z"
         id="path3160" />
      <path
         style="fill:#000000;fill-opacity:1;fill-rule:nonzero;stroke:none"
         d="m 14.917324,11.551181 c 0,0.141732 0,0.283465 -0.03543,0.389764 0,0.106299 0,0.177165 -0.03543,0.248031 0,0.07087 -0.03543,0.141733 -0.03543,0.141733 -0.03543,0.03543 -0.07087,0.07087 -0.106299,0.07087 l -1.665354,-0.03543 -0.03543,8.185039 c 0,0.03543 -0.03543,0.07087 -0.03543,0.141732 -0.03543,0.03543 -0.07087,0.07087 -0.1063,0.07087 -0.07087,0.03543 -0.141732,0.07087 -0.212598,0.07087 -0.106299,0.03543 -0.212598,0.03543 -0.318898,0.03543 -0.141732,0 -0.248031,-0.03543 -0.35433,-0.03543 -0.07087,0 -0.141733,-0.03543 -0.212599,-0.07087 -0.03543,-0.03543 -0.07087,-0.03543 -0.106299,-0.106299 0,-0.03543 -0.03543,-0.07087 -0.03543,-0.141732 l 0.03543,-8.149606 -1.6653544,0 c -0.035433,0 -0.070866,0 -0.070866,-0.03543 -0.035433,-0.03543 -0.035433,-0.1063 -0.070866,-0.141733 0,-0.07087 -0.035433,-0.177165 -0.035433,-0.283464 0,-0.1063 0,-0.212599 0,-0.389764 0,-0.141732 0,-0.283465 0,-0.389764 0,-0.106299 0.035433,-0.177165 0.035433,-0.248031 0.035433,-0.07087 0.035433,-0.1063 0.070866,-0.141733 0.035433,-0.03543 0.070866,-0.03543 0.1062994,-0.03543 l 4.677165,0 c 0.03543,0 0.07087,0.03543 0.106299,0.07087 0,0 0.03543,0.07087 0.07087,0.1063 0,0.07087 0,0.177165 0.03543,0.283464 0,0.106299 0,0.248032 0,0.389764 z"
         id="path3162" />
      <path
         style="fill:#000000;fill-opacity:1;fill-rule:nonzero;stroke:none"
         d="m 21.685041,15.69685 c 0,0.814961 -0.07087,1.559055 -0.212599,2.232284 -0.141732,0.673228 -0.354331,1.240157 -0.602362,1.700787 -0.283465,0.46063 -0.637795,0.779528 -1.027559,1.027559 -0.389764,0.248032 -0.850394,0.354331 -1.38189,0.354331 -0.531496,0 -0.992126,-0.106299 -1.38189,-0.318898 -0.354331,-0.177165 -0.673228,-0.496063 -0.956693,-0.92126 -0.248031,-0.425196 -0.425197,-0.956693 -0.566929,-1.629921 -0.106299,-0.637795 -0.177165,-1.417323 -0.177165,-2.303149 0,-0.814961 0.07087,-1.559056 0.212598,-2.196851 0.141732,-0.673228 0.354331,-1.240157 0.637795,-1.665354 0.248032,-0.46063 0.602363,-0.814961 0.992126,-1.062992 0.425197,-0.248032 0.885827,-0.354331 1.417323,-0.354331 0.496063,0 0.956693,0.106299 1.311024,0.318898 0.389764,0.177165 0.708662,0.496063 0.992126,0.921259 0.248032,0.425197 0.425197,0.956693 0.566929,1.594489 0.141733,0.673228 0.212599,1.417322 0.177166,2.303149 z m -1.417323,0.106299 c 0,-0.531496 0,-1.027559 -0.07087,-1.452755 -0.03543,-0.46063 -0.141733,-0.814961 -0.283465,-1.133859 -0.106299,-0.318897 -0.283465,-0.566929 -0.531496,-0.708661 -0.212599,-0.177165 -0.46063,-0.283465 -0.814961,-0.283465 -0.318897,0 -0.602362,0.1063 -0.81496,0.283465 -0.248032,0.212598 -0.425197,0.46063 -0.56693,0.779527 -0.141732,0.318898 -0.248031,0.673229 -0.283464,1.098426 -0.07087,0.425196 -0.106299,0.885826 -0.106299,1.346456 0,0.566929 0.03543,1.062992 0.07087,1.488189 0.07087,0.46063 0.141732,0.814961 0.283464,1.133859 0.141733,0.318897 0.318898,0.566929 0.531496,0.708661 0.212599,0.177165 0.496063,0.248031 0.814961,0.248031 0.354331,0 0.637795,-0.07087 0.850394,-0.248031 0.212598,-0.212598 0.389764,-0.46063 0.531496,-0.779528 0.141732,-0.318897 0.248031,-0.708661 0.318898,-1.133858 0.03543,-0.425197 0.07087,-0.885827 0.07087,-1.346457 z"
         id="path3164" />
      <path
         style="fill:#000000;fill-opacity:1;fill-rule:nonzero;stroke:none"
         d="m 27.425198,13.854331 c 0,0.566929 -0.07087,1.062992 -0.177165,1.488189 -0.141732,0.460629 -0.318898,0.81496 -0.531496,1.098425 -0.212598,0.318897 -0.496063,0.531496 -0.814961,0.708661 -0.35433,0.141732 -0.708661,0.212599 -1.169291,0.212599 l -0.531496,0 -0.03543,3.224409 c 0,0.07087 0,0.106299 -0.03543,0.141732 -0.03543,0.03543 -0.07087,0.07087 -0.1063,0.106299 -0.03543,0.03543 -0.106299,0.03543 -0.212598,0.07087 -0.07087,0 -0.177165,0 -0.318898,0 -0.141732,0 -0.248031,0 -0.318897,0 -0.1063,-0.03543 -0.177166,-0.07087 -0.212599,-0.07087 -0.07087,-0.03543 -0.106299,-0.07087 -0.106299,-0.106299 -0.03543,-0.03543 -0.03543,-0.106299 -0.03543,-0.141732 l 0.03543,-9.106299 c 0,-0.248032 0.03543,-0.425197 0.141732,-0.531496 0.07087,-0.141732 0.177166,-0.212599 0.318898,-0.212599 l 1.594488,0.03543 c 0.141733,0 0.283465,0 0.425197,0.03543 0.141732,0 0.318898,0.03543 0.531496,0.106299 0.177166,0.07087 0.389764,0.177165 0.602363,0.318897 0.212598,0.177166 0.35433,0.389764 0.496063,0.637796 0.177165,0.248031 0.283464,0.531496 0.35433,0.850393 0.07087,0.354331 0.106299,0.708662 0.106299,1.133859 z m -1.417322,0.141732 c 0,-0.354331 -0.03543,-0.673228 -0.141733,-0.885827 -0.07087,-0.212598 -0.177165,-0.389764 -0.283464,-0.496063 -0.141733,-0.106299 -0.248032,-0.177165 -0.389764,-0.212598 -0.141732,-0.03543 -0.248032,-0.07087 -0.389764,-0.07087 l -0.602362,0 0,3.437007 0.602362,0 c 0.212599,0 0.389764,-0.03543 0.531496,-0.106299 0.141732,-0.106299 0.283465,-0.212598 0.354331,-0.389764 0.106299,-0.141732 0.177165,-0.35433 0.248031,-0.566929 0.03543,-0.212598 0.07087,-0.46063 0.07087,-0.708661 z"
         id="path3166" />
    </g>
  </g>
</svg>
