<?xml version="1.0" encoding="UTF-8" standalone="no"?>
<!-- Created with Inkscape (http://www.inkscape.org/) -->

<svg
   xmlns:dc="http://purl.org/dc/elements/1.1/"
   xmlns:cc="http://creativecommons.org/ns#"
   xmlns:rdf="http://www.w3.org/1999/02/22-rdf-syntax-ns#"
   xmlns:svg="http://www.w3.org/2000/svg"
   xmlns="http://www.w3.org/2000/svg"
   xmlns:xlink="http://www.w3.org/1999/xlink"
   xmlns:sodipodi="http://sodipodi.sourceforge.net/DTD/sodipodi-0.dtd"
   xmlns:inkscape="http://www.inkscape.org/namespaces/inkscape"
   width="32"
   height="32"
   id="svg3387"
   version="1.1"
   inkscape:version="0.48.4 r9939"
   sodipodi:docname="button3-09.svg">
  <defs
     id="defs3389" />
  <sodipodi:namedview
     id="base"
     pagecolor="#ffffff"
     bordercolor="#666666"
     borderopacity="1.0"
     inkscape:pageopacity="0.0"
     inkscape:pageshadow="2"
     inkscape:zoom="5.6"
     inkscape:cx="32.840858"
     inkscape:cy="19.309559"
     inkscape:document-units="px"
     inkscape:current-layer="layer1"
     showgrid="false"
     fit-margin-top="0"
     fit-margin-left="0"
     fit-margin-right="0"
     fit-margin-bottom="0"
     inkscape:snap-bbox="true"
     inkscape:window-width="1360"
     inkscape:window-height="707"
     inkscape:window-x="-8"
     inkscape:window-y="-8"
     inkscape:window-maximized="1">
    <inkscape:grid
       type="xygrid"
       id="grid3404"
       empspacing="5"
       visible="true"
       enabled="true"
       snapvisiblegridlinesonly="true" />
  </sodipodi:namedview>
  <metadata
     id="metadata3392">
    <rdf:RDF>
      <cc:Work
         rdf:about="">
        <dc:format>image/svg+xml</dc:format>
        <dc:type
           rdf:resource="http://purl.org/dc/dcmitype/StillImage" />
        <dc:title />
      </cc:Work>
    </rdf:RDF>
  </metadata>
  <g
     inkscape:label="Layer 1"
     inkscape:groupmode="layer"
     id="layer1"
     transform="translate(-367,-512.36223)">
    <rect
       y="512.36224"
       x="367"
       height="32"
       width="32"
       id="rect3489"
       style="fill:#ffedc1;fill-opacity:1;stroke:none;display:inline" />
    <path
       style="fill:#000000;fill-opacity:1;fill-rule:evenodd;stroke:none;display:inline"
       d="m 383,516.36223 c -1.65685,0 -3,1.34315 -3,3 0,0.88447 0.39109,1.66968 1,2.21875 l 0,1.0625 c -3.4508,0.94334 -6,4.25784 -6,8.21875 0,0 0.0285,0.90347 0.0625,0.9375 0.034,0.034 0.1875,0.0625 0.1875,0.0625 l 0,1.5 c 0,0.13807 0.11193,0.25 0.25,0.25 0.13807,0 0.25,-0.11193 0.25,-0.25 l 0,0.25 c 0,0.13807 0.11193,0.25 0.25,0.25 0.13807,0 0.25,-0.11193 0.25,-0.25 0,0.13807 0.11193,0.25 0.25,0.25 0.13807,0 0.25,-0.11193 0.25,-0.25 0,0.13807 0.11193,0.25 0.25,0.25 0.13807,0 0.25,-0.11193 0.25,-0.25 l 0,-0.5 c 0,0.13807 0.11193,0.25 0.25,0.25 0.13807,0 0.25,-0.11193 0.25,-0.25 l 0,-1.25 c 0,0 0.13748,-0.007 0.1875,-0.0937 -0.0738,-1.13828 0.19846,-2.30636 0.5625,-2.90625 1.5,0 0.5,6.95143 0.5,9.5 -0.554,0 -0.99163,0.52288 -1.1875,0.71875 -0.19587,0.19587 -0.3125,0.78125 -0.3125,0.78125 -0.13287,0.13287 -0.0894,0.35014 0,0.5 l 4,0 c 0,0 0.2259,-0.0384 0.34375,-0.15625 0.11785,-0.1179 0.15625,-0.3438 0.15625,-0.3438 l 0,-0.5 c 0,0 -0.5,-6 1,-6 z"
       id="rect6342"
       inkscape:connector-curvature="0"
       sodipodi:nodetypes="cscccscsscsscscsscsscccczsccscccc" />
    <use
       style="display:inline"
       x="0"
       y="0"
       xlink:href="#rect6342"
       id="use6520"
       transform="matrix(-1,0,0,1,766,0)"
       width="256"
       height="256" />
  </g>
</svg>
