<?xml version="1.0" encoding="UTF-8" standalone="no"?>
<!-- Created with Inkscape (http://www.inkscape.org/) -->

<svg
   xmlns:dc="http://purl.org/dc/elements/1.1/"
   xmlns:cc="http://creativecommons.org/ns#"
   xmlns:rdf="http://www.w3.org/1999/02/22-rdf-syntax-ns#"
   xmlns:svg="http://www.w3.org/2000/svg"
   xmlns="http://www.w3.org/2000/svg"
   xmlns:sodipodi="http://sodipodi.sourceforge.net/DTD/sodipodi-0.dtd"
   xmlns:inkscape="http://www.inkscape.org/namespaces/inkscape"
   width="32"
   height="32"
   id="svg10108"
   version="1.1"
   inkscape:version="0.48.4 r9939"
   sodipodi:docname="button2-06.svg"
   inkscape:export-filename="C:\Documents and Settings\Administrator\Pulpit\button2-06.png"
   inkscape:export-xdpi="360"
   inkscape:export-ydpi="360">
  <defs
     id="defs10110" />
  <sodipodi:namedview
     id="base"
     pagecolor="#ffffff"
     bordercolor="#666666"
     borderopacity="1.0"
     inkscape:pageopacity="0.0"
     inkscape:pageshadow="2"
     inkscape:zoom="1"
     inkscape:cx="14.428571"
     inkscape:cy="21.389437"
     inkscape:document-units="px"
     inkscape:current-layer="layer1"
     showgrid="false"
     fit-margin-top="0"
     fit-margin-left="0"
     fit-margin-right="0"
     fit-margin-bottom="0"
     inkscape:snap-bbox="true"
     inkscape:window-width="1280"
     inkscape:window-height="977"
     inkscape:window-x="-4"
     inkscape:window-y="-4"
     inkscape:window-maximized="1">
    <inkscape:grid
       type="xygrid"
       id="grid10169"
       empspacing="5"
       visible="true"
       enabled="true"
       snapvisiblegridlinesonly="true" />
  </sodipodi:namedview>
  <metadata
     id="metadata10113">
    <rdf:RDF>
      <cc:Work
         rdf:about="">
        <dc:format>image/svg+xml</dc:format>
        <dc:type
           rdf:resource="http://purl.org/dc/dcmitype/StillImage" />
        <dc:title></dc:title>
      </cc:Work>
    </rdf:RDF>
  </metadata>
  <g
     inkscape:label="Layer 1"
     inkscape:groupmode="layer"
     id="layer1"
     transform="translate(-649.71429,-727.79077)">
    <path
       transform="translate(553.71429,663.79077)"
       sodipodi:type="arc"
       style="fill:#000000;fill-opacity:1;fill-rule:evenodd;stroke:none;display:inline"
       id="path4068"
       sodipodi:cx="104"
       sodipodi:cy="72"
       sodipodi:rx="3"
       sodipodi:ry="3"
       d="m 107,72 c 0,1.656854 -1.34315,3 -3,3 -1.65685,0 -3,-1.343146 -3,-3 0,-1.656854 1.34315,-3 3,-3 1.65685,0 3,1.343146 3,3 z" />
    <path
       transform="translate(561.71429,663.79077)"
       sodipodi:type="arc"
       style="fill:#000000;fill-opacity:1;fill-rule:evenodd;stroke:none;display:inline"
       id="path4068-4"
       sodipodi:cx="104"
       sodipodi:cy="72"
       sodipodi:rx="3"
       sodipodi:ry="3"
       d="m 107,72 c 0,1.656854 -1.34315,3 -3,3 -1.65685,0 -3,-1.343146 -3,-3 0,-1.656854 1.34315,-3 3,-3 1.65685,0 3,1.343146 3,3 z" />
    <path
       transform="translate(569.71429,663.79077)"
       sodipodi:type="arc"
       style="fill:#000000;fill-opacity:1;fill-rule:evenodd;stroke:none;display:inline"
       id="path4068-9"
       sodipodi:cx="104"
       sodipodi:cy="72"
       sodipodi:rx="3"
       sodipodi:ry="3"
       d="m 107,72 c 0,1.656854 -1.34315,3 -3,3 -1.65685,0 -3,-1.343146 -3,-3 0,-1.656854 1.34315,-3 3,-3 1.65685,0 3,1.343146 3,3 z" />
    <path
       transform="translate(569.71429,671.79077)"
       sodipodi:type="arc"
       style="fill:#000000;fill-opacity:1;fill-rule:evenodd;stroke:none;display:inline"
       id="path4068-46"
       sodipodi:cx="104"
       sodipodi:cy="72"
       sodipodi:rx="3"
       sodipodi:ry="3"
       d="m 107,72 c 0,1.656854 -1.34315,3 -3,3 -1.65685,0 -3,-1.343146 -3,-3 0,-1.656854 1.34315,-3 3,-3 1.65685,0 3,1.343146 3,3 z" />
    <path
       transform="translate(561.71429,671.79077)"
       sodipodi:type="arc"
       style="fill:#000000;fill-opacity:1;fill-rule:evenodd;stroke:none;display:inline"
       id="path4068-0"
       sodipodi:cx="104"
       sodipodi:cy="72"
       sodipodi:rx="3"
       sodipodi:ry="3"
       d="m 107,72 c 0,1.656854 -1.34315,3 -3,3 -1.65685,0 -3,-1.343146 -3,-3 0,-1.656854 1.34315,-3 3,-3 1.65685,0 3,1.343146 3,3 z" />
    <path
       transform="translate(553.71429,671.79077)"
       sodipodi:type="arc"
       style="fill:#000000;fill-opacity:1;fill-rule:evenodd;stroke:none;display:inline"
       id="path4068-3"
       sodipodi:cx="104"
       sodipodi:cy="72"
       sodipodi:rx="3"
       sodipodi:ry="3"
       d="m 107,72 c 0,1.656854 -1.34315,3 -3,3 -1.65685,0 -3,-1.343146 -3,-3 0,-1.656854 1.34315,-3 3,-3 1.65685,0 3,1.343146 3,3 z" />
    <path
       transform="translate(553.71429,679.79077)"
       sodipodi:type="arc"
       style="fill:#000000;fill-opacity:1;fill-rule:evenodd;stroke:none;display:inline"
       id="path4068-6"
       sodipodi:cx="104"
       sodipodi:cy="72"
       sodipodi:rx="3"
       sodipodi:ry="3"
       d="m 107,72 c 0,1.656854 -1.34315,3 -3,3 -1.65685,0 -3,-1.343146 -3,-3 0,-1.656854 1.34315,-3 3,-3 1.65685,0 3,1.343146 3,3 z" />
    <path
       transform="translate(561.71429,679.79077)"
       sodipodi:type="arc"
       style="fill:#000000;fill-opacity:1;fill-rule:evenodd;stroke:none;display:inline"
       id="path4068-2"
       sodipodi:cx="104"
       sodipodi:cy="72"
       sodipodi:rx="3"
       sodipodi:ry="3"
       d="m 107,72 c 0,1.656854 -1.34315,3 -3,3 -1.65685,0 -3,-1.343146 -3,-3 0,-1.656854 1.34315,-3 3,-3 1.65685,0 3,1.343146 3,3 z" />
    <path
       transform="translate(569.71429,679.79077)"
       sodipodi:type="arc"
       style="fill:#000000;fill-opacity:1;fill-rule:evenodd;stroke:none;display:inline"
       id="path4068-45"
       sodipodi:cx="104"
       sodipodi:cy="72"
       sodipodi:rx="3"
       sodipodi:ry="3"
       d="m 107,72 c 0,1.656854 -1.34315,3 -3,3 -1.65685,0 -3,-1.343146 -3,-3 0,-1.656854 1.34315,-3 3,-3 1.65685,0 3,1.343146 3,3 z" />
  </g>
</svg>
