<?xml version="1.0" encoding="UTF-8" standalone="no"?>
<!-- Created with Inkscape (http://www.inkscape.org/) -->

<svg
   xmlns:dc="http://purl.org/dc/elements/1.1/"
   xmlns:cc="http://creativecommons.org/ns#"
   xmlns:rdf="http://www.w3.org/1999/02/22-rdf-syntax-ns#"
   xmlns:svg="http://www.w3.org/2000/svg"
   xmlns="http://www.w3.org/2000/svg"
   xmlns:sodipodi="http://sodipodi.sourceforge.net/DTD/sodipodi-0.dtd"
   xmlns:inkscape="http://www.inkscape.org/namespaces/inkscape"
   width="32"
   height="32"
   id="svg2"
   version="1.1"
   inkscape:version="0.48.4 r9939"
   sodipodi:docname="button2-08.svg">
  <defs
     id="defs4" />
  <sodipodi:namedview
     id="base"
     pagecolor="#ffffff"
     bordercolor="#666666"
     borderopacity="1.0"
     inkscape:pageopacity="0.0"
     inkscape:pageshadow="2"
     inkscape:zoom="7.9195959"
     inkscape:cx="16.45078"
     inkscape:cy="17.930089"
     inkscape:document-units="px"
     inkscape:current-layer="layer1"
     showgrid="false"
     inkscape:window-width="463"
     inkscape:window-height="423"
     inkscape:window-x="96"
     inkscape:window-y="96"
     inkscape:window-maximized="0"
     fit-margin-top="0"
     fit-margin-left="0"
     fit-margin-right="0"
     fit-margin-bottom="0" />
  <metadata
     id="metadata7">
    <rdf:RDF>
      <cc:Work
         rdf:about="">
        <dc:format>image/svg+xml</dc:format>
        <dc:type
           rdf:resource="http://purl.org/dc/dcmitype/StillImage" />
        <dc:title />
      </cc:Work>
    </rdf:RDF>
  </metadata>
  <g
     inkscape:label="Layer 1"
     inkscape:groupmode="layer"
     id="layer1"
     transform="translate(-695.42859,-770.64789)">
    <g
       transform="translate(631.46476,610.87227)"
       style="display:inline"
       id="g5114">
      <path
         id="path4815"
         d="m 83.9375,175.34375 c 0.142376,0.87768 0.01054,1.82618 -0.46875,2.65625 -0.479243,0.83008 -1.231221,1.43447 -2.0625,1.75 l 4.4375,6.71875 c 1.980001,-1.10864 3.634736,-2.75451 4.71875,-4.75 C 91.486169,180.01843 92,178.07107 92,176 c 0,-0.0636 9.85e-4,-0.12418 0,-0.1875 l -8.0625,-0.46875 z"
         style="fill:#000000;fill-opacity:1;fill-rule:evenodd;stroke:none"
         inkscape:connector-curvature="0" />
      <path
         id="path4815-6"
         d="m 82,176 c 0,1.10457 -0.895431,2 -2,2 -1.104569,0 -2,-0.89543 -2,-2 0,-1.10457 0.895431,-2 2,-2 1.104569,0 2,0.89543 2,2 z"
         style="fill:#000000;fill-opacity:1;fill-rule:evenodd;stroke:none;display:inline"
         inkscape:connector-curvature="0" />
      <path
         id="path4854"
         d="m 80,164 c -2.253741,0 -4.354669,0.63808 -6.15625,1.71875 l 3.625,7.1875 C 78.157653,172.34411 79.041513,172 80,172 c 0.958487,0 1.842347,0.34411 2.53125,0.90625 l 3.625,-7.1875 C 84.354669,164.63808 82.253741,164 80,164 z"
         style="fill:#000000;fill-opacity:1;fill-rule:evenodd;stroke:none"
         inkscape:connector-curvature="0" />
      <path
         id="use4891-7-5"
         d="M 76.0625,175.34375 68,175.8125 c -9.85e-4,0.0633 0,0.12394 0,0.1875 0,2.07107 0.513831,4.01843 1.4375,5.71875 1.084014,1.99549 2.738749,3.64136 4.71875,4.75 l 4.4375,-6.71875 c -0.831279,-0.31554 -1.583257,-0.91993 -2.0625,-1.75 -0.479244,-0.83008 -0.611126,-1.77858 -0.46875,-2.65625 z"
         style="fill:#000000;fill-opacity:1;fill-rule:evenodd;stroke:none"
         inkscape:connector-curvature="0" />
    </g>
  </g>
</svg>
