<?xml version="1.0" encoding="UTF-8" standalone="no"?>
<!-- Created with Inkscape (http://www.inkscape.org/) -->

<svg
   xmlns:dc="http://purl.org/dc/elements/1.1/"
   xmlns:cc="http://creativecommons.org/ns#"
   xmlns:rdf="http://www.w3.org/1999/02/22-rdf-syntax-ns#"
   xmlns:svg="http://www.w3.org/2000/svg"
   xmlns="http://www.w3.org/2000/svg"
   xmlns:sodipodi="http://sodipodi.sourceforge.net/DTD/sodipodi-0.dtd"
   xmlns:inkscape="http://www.inkscape.org/namespaces/inkscape"
   width="32"
   height="32"
   id="svg8529"
   version="1.1"
   inkscape:version="0.48.4 r9939"
   sodipodi:docname="button2-26.svg"
   inkscape:export-filename="C:\Documents and Settings\Administrator\Pulpit\button2-26.png"
   inkscape:export-xdpi="360"
   inkscape:export-ydpi="360">
  <defs
     id="defs8531" />
  <sodipodi:namedview
     id="base"
     pagecolor="#ffffff"
     bordercolor="#666666"
     borderopacity="1.0"
     inkscape:pageopacity="0.0"
     inkscape:pageshadow="2"
     inkscape:zoom="1"
     inkscape:cx="10.866701"
     inkscape:cy="16.425462"
     inkscape:document-units="px"
     inkscape:current-layer="layer1"
     showgrid="false"
     fit-margin-top="0"
     fit-margin-left="0"
     fit-margin-right="0"
     fit-margin-bottom="0"
     inkscape:snap-bbox="true"
     inkscape:window-width="1280"
     inkscape:window-height="977"
     inkscape:window-x="-4"
     inkscape:window-y="-4"
     inkscape:window-maximized="1">
    <inkscape:grid
       type="xygrid"
       id="grid8548"
       empspacing="5"
       visible="true"
       enabled="true"
       snapvisiblegridlinesonly="true" />
  </sodipodi:namedview>
  <metadata
     id="metadata8534">
    <rdf:RDF>
      <cc:Work
         rdf:about="">
        <dc:format>image/svg+xml</dc:format>
        <dc:type
           rdf:resource="http://purl.org/dc/dcmitype/StillImage" />
        <dc:title></dc:title>
      </cc:Work>
    </rdf:RDF>
  </metadata>
  <g
     inkscape:label="Layer 1"
     inkscape:groupmode="layer"
     id="layer1"
     transform="translate(-375.42859,-533.50507)">
    <path
       sodipodi:type="arc"
       style="fill:#000000;fill-opacity:1;fill-rule:nonzero;stroke:none"
       id="path8550"
       sodipodi:cx="22"
       sodipodi:cy="5"
       sodipodi:rx="4"
       sodipodi:ry="4"
       d="m 26,5 c 0,2.209139 -1.790861,4 -4,4 -2.209139,0 -4,-1.790861 -4,-4 0,-2.209139 1.790861,-4 4,-4 2.209139,0 4,1.790861 4,4 z"
       transform="matrix(0.75,0,0,0.75,378.10537,539.67373)" />
    <rect
       y="424.92651"
       x="519.78418"
       height="8"
       width="4"
       id="rect8588"
       style="fill:#000000;fill-opacity:1;fill-rule:nonzero;stroke:none"
       transform="matrix(0.96592583,0.25881905,-0.25881905,0.96592583,0,0)"
       inkscape:transform-center-x="-2.2961939"
       inkscape:transform-center-y="-1.582128" />
    <path
       style="fill:#000000;fill-opacity:1;stroke:none"
       d="m 394.11358,552.36123 0,5 c 0,0 1.76859,0 1.76859,2 l -3.65034,0 0.11316,-7 z"
       id="path8590"
       inkscape:connector-curvature="0"
       sodipodi:nodetypes="cccccc" />
    <path
       sodipodi:nodetypes="cccccc"
       inkscape:connector-curvature="0"
       id="path8592"
       d="m 393.2445,553.02088 c -2.74651,0.77386 -2.92606,2.44399 -7.61478,3.11284 0,0 -0.24903,1.76859 -2.24903,1.76859 l 0,-3.65034 c 3.7363,0.0529 6.00318,-1.1769 7.69459,-2.51452 z"
       style="fill:#000000;fill-opacity:1;stroke:none" />
    <path
       style="fill:#000000;fill-opacity:1;stroke:none"
       d="m 392.10184,545.79745 -7.88845,4.21574 1.02679,0.97248 7.88845,-4.21574 z"
       id="path8594"
       inkscape:connector-curvature="0" />
    <path
       style="fill:#000000;fill-opacity:1;stroke:none"
       d="m 394.47723,547.24381 c 0,0 2.9375,4.6875 6.09375,4.75 l 0,-1.28125 c 0,0 -2.71875,-0.5312 -5.03125,-4.25 z"
       id="path9106"
       inkscape:connector-curvature="0"
       sodipodi:nodetypes="ccccc" />
    <path
       style="fill:#bfbfbf;fill-opacity:1;stroke:none"
       d="m 391.75834,554.27975 c -0.37436,-0.93036 -0.87048,5.00913 -0.0221,5.06023 0.41568,-0.49636 0.39646,-4.12987 0.0221,-5.06023 z"
       id="path9108"
       inkscape:connector-curvature="0"
       sodipodi:nodetypes="zcz" />
    <path
       style="fill:#bfbfbf;fill-opacity:1;stroke:none"
       d="m 384.17211,553.03852 c 0.29112,-0.0253 4.79075,-0.61545 5.23701,-2.05502 0.44626,-1.43957 0.77556,-1.15523 0.75823,0.19087 -0.0173,1.3461 -4.00794,2.77797 -5.99524,2.48291 -1.9873,-0.29506 -0.29112,-0.59347 0,-0.61876 z"
       id="path9112"
       inkscape:connector-curvature="0"
       sodipodi:nodetypes="zzzzz" />
    <path
       style="fill:#bfbfbf;fill-opacity:1;stroke:none"
       d="m 385.52977,551.46267 c 0,0 -2.70522,0.46514 -1.81329,-1.78617 0,0.003 0.24568,1.22639 1.81329,1.78617 z"
       id="path9114"
       inkscape:connector-curvature="0"
       sodipodi:nodetypes="ccc" />
    <path
       sodipodi:nodetypes="zcz"
       inkscape:connector-curvature="0"
       id="path9116"
       d="m 382.61031,553.63499 c -0.2954,-1.18111 -0.94078,4.00786 -0.0239,4.04875 0.44833,-0.39348 0.3193,-2.86764 0.0239,-4.04875 z"
       style="fill:#bfbfbf;fill-opacity:1;stroke:none" />
    <path
       style="fill:#bfbfbf;fill-opacity:1;stroke:none"
       d="m 391.37811,545.52506 c 0,0 -4.20174,-3.05963 0.90403,-5.27746 0,0 -2.76202,2.25222 -0.90403,5.27746 z"
       id="path9118"
       inkscape:connector-curvature="0"
       sodipodi:nodetypes="ccc" />
  </g>
</svg>
