<?xml version="1.0" encoding="UTF-8" standalone="no"?>
<!-- Created with Inkscape (http://www.inkscape.org/) -->

<svg
   xmlns:dc="http://purl.org/dc/elements/1.1/"
   xmlns:cc="http://creativecommons.org/ns#"
   xmlns:rdf="http://www.w3.org/1999/02/22-rdf-syntax-ns#"
   xmlns:svg="http://www.w3.org/2000/svg"
   xmlns="http://www.w3.org/2000/svg"
   xmlns:sodipodi="http://sodipodi.sourceforge.net/DTD/sodipodi-0.dtd"
   xmlns:inkscape="http://www.inkscape.org/namespaces/inkscape"
   width="32"
   height="32"
   id="svg3202"
   version="1.1"
   inkscape:version="0.48.4 r9939"
   sodipodi:docname="button2-01.svg"
   inkscape:export-filename="C:\Documents and Settings\Administrator\Pulpit\button2-01.png"
   inkscape:export-xdpi="360"
   inkscape:export-ydpi="360">
  <defs
     id="defs3204" />
  <sodipodi:namedview
     id="base"
     pagecolor="#ffffff"
     bordercolor="#666666"
     borderopacity="1.0"
     inkscape:pageopacity="0.0"
     inkscape:pageshadow="2"
     inkscape:zoom="1"
     inkscape:cx="16.226892"
     inkscape:cy="15.794598"
     inkscape:document-units="px"
     inkscape:current-layer="layer2"
     showgrid="false"
     inkscape:snap-object-midpoints="false"
     inkscape:snap-page="true"
     inkscape:window-width="1280"
     inkscape:window-height="977"
     inkscape:window-x="-4"
     inkscape:window-y="-4"
     inkscape:window-maximized="1" />
  <metadata
     id="metadata3207">
    <rdf:RDF>
      <cc:Work
         rdf:about="">
        <dc:format>image/svg+xml</dc:format>
        <dc:type
           rdf:resource="http://purl.org/dc/dcmitype/StillImage" />
        <dc:title></dc:title>
      </cc:Work>
    </rdf:RDF>
  </metadata>
  <g
     inkscape:groupmode="layer"
     id="layer2"
     inkscape:label="Vector"
     style="display:inline">
    <g
       transform="translate(-64,-33)"
       style="display:inline"
       id="g5949">
      <path
         inkscape:connector-curvature="0"
         id="path3001-5-8"
         d="m 73,54 c -1.656854,0 -3,1.343146 -3,3 0,1.656854 1.343146,3 3,3 l 14,0 c 1.656854,0 3,-1.343146 3,-3 0,-1.656854 -1.343146,-3 -3,-3 l -14,0 z"
         style="fill:#000000;fill-opacity:1;stroke:none" />
      <path
         transform="matrix(0.25342709,0,0,0.25342706,62.311999,42.538671)"
         d="m 50.065687,57.063084 c 0,4.35853 -3.533287,7.891816 -7.891817,7.891816 -4.35853,0 -7.891817,-3.533286 -7.891817,-7.891816 0,-4.35853 3.533287,-7.891817 7.891817,-7.891817 4.35853,0 7.891817,3.533287 7.891817,7.891817 z"
         sodipodi:ry="7.8918166"
         sodipodi:rx="7.8918166"
         sodipodi:cy="57.063084"
         sodipodi:cx="42.17387"
         id="path3001-5"
         style="fill:#ffffff;fill-opacity:1;stroke:none"
         sodipodi:type="arc" />
      <rect
         y="50"
         x="69"
         height="3"
         width="22"
         id="rect3794-8"
         style="fill:#000000;fill-opacity:1;stroke:none" />
      <path
         transform="matrix(0.25342709,0,0,0.25342706,76.311999,42.538671)"
         d="m 50.065687,57.063084 c 0,4.35853 -3.533287,7.891816 -7.891817,7.891816 -4.35853,0 -7.891817,-3.533286 -7.891817,-7.891816 0,-4.35853 3.533287,-7.891817 7.891817,-7.891817 4.35853,0 7.891817,3.533287 7.891817,7.891817 z"
         sodipodi:ry="7.8918166"
         sodipodi:rx="7.8918166"
         sodipodi:cy="57.063084"
         sodipodi:cx="42.17387"
         id="path3001-5-9"
         style="fill:#ffffff;fill-opacity:1;stroke:none"
         sodipodi:type="arc" />
    </g>
  </g>
</svg>
